<?xml version="1.0" encoding="utf-8" ?><!DOCTYPE svg PUBLIC "-//W3C//DTD SVG 1.1//EN" "http://www.w3.org/Graphics/SVG/1.1/DTD/svg11.dtd" 
[ <!ATTLIST svg 
  xmlns:dsy CDATA #FIXED "http://www.3ds.com/print"  
    dsy:text-version CDATA #IMPLIED > 

  <!ATTLIST text 
  xmlns:dsy CDATA #FIXED "http://www.3ds.com/print" 
    dsy:text-version CDATA #IMPLIED > 
]><svg xmlns="http://www.w3.org/2000/svg" xmlns:dsy="http://www.3ds.com/print" dsy:text-version="18000" width="297" height="210" viewBox="0 0 297 210" version="1.1"><g stroke="rgb(0, 0, 0)" stroke-width="0.35" stroke-linecap="butt" stroke-linejoin="miter" fill="none"><path d="M 127.001 104.75 A 21.5 21.5 0 0 0 128.384 112.588"/><circle cx="148.5" cy="105" r="25"/><path d="M 169.999 105.251 A 21.5 21.5 0 0 0 168.616 97.4117"/><circle cx="148.5" cy="105" r="2.5"/><path d="M 151.986 83.7846 A 3 3 0 0 0 148.5 86.7449"/><path d="M 148.5 86.7449 L 148.5 96.7576"/><path d="M 148.5 96.7576 A 3 3 0 0 0 153.798 98.6859"/><path d="M 160.234 91.0158 L 153.798 98.6859"/><path d="M 160.234 91.0158 A 3 3 0 0 0 159.466 86.507"/><path d="M 168.616 97.4117 A 3 3 0 0 0 164.309 95.8724"/><path d="M 164.309 95.8724 L 155.638 100.879"/><path d="M 155.638 100.879 A 3 3 0 0 0 156.617 106.431"/><path d="M 166.478 108.17 L 156.617 106.431"/><path d="M 166.478 108.17 A 3 3 0 0 0 169.999 105.251"/><path d="M 165.13 118.627 A 3 3 0 0 0 164.309 114.128"/><path d="M 164.309 114.128 L 155.638 109.121"/><path d="M 155.638 109.121 A 3 3 0 0 0 151.319 112.745"/><path d="M 154.744 122.154 L 151.319 112.745"/><path d="M 154.744 122.154 A 3 3 0 0 0 159.032 123.744"/><path d="M 145.014 126.215 A 3 3 0 0 0 148.5 123.255"/><path d="M 148.5 123.255 L 148.5 113.242"/><path d="M 148.5 113.242 A 3 3 0 0 0 143.202 111.314"/><path d="M 136.766 118.984 L 143.202 111.314"/><path d="M 136.766 118.984 A 3 3 0 0 0 137.534 123.493"/><path d="M 128.384 112.588 A 3 3 0 0 0 132.691 114.128"/><path d="M 132.691 114.128 L 141.362 109.121"/><path d="M 141.362 109.121 A 3 3 0 0 0 140.383 103.569"/><path d="M 130.522 101.83 L 140.383 103.569"/><path d="M 130.522 101.83 A 3 3 0 0 0 127.001 104.75"/><path d="M 131.87 91.3729 A 3 3 0 0 0 132.691 95.8724"/><path d="M 132.691 95.8724 L 141.362 100.879"/><path d="M 141.362 100.879 A 3 3 0 0 0 145.681 97.2547"/><path d="M 142.256 87.8458 L 145.681 97.2547"/><path d="M 142.256 87.8458 A 3 3 0 0 0 137.968 86.2565"/><path d="M 137.968 86.2565 A 21.5 21.5 0 0 0 131.87 91.3729"/><path d="M 159.466 86.507 A 21.5 21.5 0 0 0 151.986 83.7846"/><path d="M 159.032 123.744 A 21.5 21.5 0 0 0 165.13 118.627"/><path d="M 137.534 123.493 A 21.5 21.5 0 0 0 145.014 126.215"/><circle cx="234.075" cy="104.395" r="25"/><circle cx="234.075" cy="104.395" r="21.5"/><path d="M 234.075 86.14 L 234.075 96.1527"/></g><g stroke="rgb(0, 0, 0)" stroke-width="0.13" stroke-linecap="butt" stroke-linejoin="miter" fill="none"><path d="M 173.588 77.7101 L 173.95 77.9375 L 174.351 78.0058 L 174.754 77.9063 L 175.146 77.6459 L 175.457 77.2327 L 175.581 76.7804 L 175.498 76.3206 L 175.225 75.886 L 174.843 75.6008 L 174.415 75.4959 L 173.976 75.5797 L 173.559 75.8499 L 173.324 76.1517 L 173.223 76.4728 L 172.684 75.6858 L 173.807 74.6421 L 173.526 74.3392 L 172.155 75.6129 L 173.215 77.1612 L 173.511 76.8866 L 173.564 76.5138 L 173.779 76.197 L 174.053 76.0179 L 174.344 75.9679 L 174.627 76.0425 L 174.883 76.2375 L 175.059 76.508 L 175.109 76.7988 L 175.035 77.0816 L 174.84 77.3385 L 174.62 77.4946 L 174.389 77.5504 L 174.155 77.5204 L 173.931 77.3909 L 173.588 77.7101 L 173.588 77.7101 z M 175.808 74.5592 L 176.402 75.0877 L 176.96 75.3401 L 177.471 75.3338 L 177.931 75.0581 L 178.236 74.6232 L 178.279 74.1145 L 178.065 73.5428 L 177.585 72.9079 L 176.99 72.3865 L 176.707 72.2227 L 176.432 72.1269 L 175.922 72.1332 L 175.462 72.4018 L 175.157 72.8438 L 175.117 73.3562 L 175.328 73.9314 L 175.808 74.5592 L 175.808 74.5592 z M 176.162 74.2296 L 175.777 73.7551 L 175.57 73.3479 L 175.561 73.005 L 175.747 72.7085 L 176.053 72.5484 L 176.394 72.5823 L 176.785 72.8179 L 177.23 73.2374 L 177.619 73.7156 L 177.826 74.1228 L 177.835 74.4657 L 177.649 74.7551 L 177.343 74.9223 L 177.002 74.8884 L 176.611 74.6528 L 176.162 74.2296 L 176.162 74.2296 z" stroke="none" fill-rule="evenodd" fill="rgb(0, 0, 0)"/></g><g stroke="rgb(0, 0, 0)" stroke-width="0.13" stroke-linecap="butt" stroke-linejoin="miter" fill="none"><path d="M 172.084 80.3533 L 170.214 77.313"/><path d="M 172.089 77.9596 L 172.01 77.8741 M 172.01 77.8741 L 171.808 77.7429 M 171.808 77.7429 L 171.647 77.6544 M 171.647 77.6544 L 171.524 77.6086 M 171.524 77.6086 L 171.32 77.5599 M 171.32 77.5599 L 171.073 77.5508 M 171.073 77.5508 L 170.865 77.5845 M 170.865 77.5845 L 170.74 77.6212 M 170.74 77.6212 L 170.572 77.6976 M 170.572 77.6976 L 170.361 77.8137 M 170.361 77.8137 L 170.276 77.8931 M 170.276 77.8931 L 170.19 77.9725 M 170.19 77.9725 L 170.059 78.1741 M 170.059 78.1741 L 169.971 78.3359 M 169.971 78.3359 L 169.925 78.4581 M 169.925 78.4581 L 169.876 78.6627 M 169.876 78.6627 L 169.867 78.91 M 169.867 78.91 L 169.901 79.1176 M 169.901 79.1176 L 169.937 79.2428 M 169.937 79.2428 L 170.014 79.4107 M 170.014 79.4107 L 170.13 79.6213 M 170.13 79.6213 L 170.209 79.7068 M 170.209 79.7068 L 170.289 79.7922 M 170.289 79.7922 L 170.49 79.9234 M 170.49 79.9234 L 170.652 80.0119 M 170.652 80.0119 L 170.774 80.0577 M 170.774 80.0577 L 170.979 80.1065 M 170.979 80.1065 L 171.226 80.1155 M 171.226 80.1155 L 171.434 80.0819 M 171.434 80.0819 L 171.559 80.0452 M 171.559 80.0452 L 171.727 79.9688 M 171.727 79.9688 L 171.937 79.8527 M 171.937 79.8527 L 172.023 79.7733 M 172.023 79.7733 L 172.108 79.6938 M 172.108 79.6938 L 172.24 79.4923 M 172.24 79.4923 L 172.328 79.3304 M 172.328 79.3304 L 172.374 79.2083 M 172.374 79.2083 L 172.423 79.0037 M 172.423 79.0037 L 172.432 78.7563 M 172.432 78.7563 L 172.398 78.5487 M 172.398 78.5487 L 172.361 78.4236 M 172.361 78.4236 L 172.285 78.2557 M 172.285 78.2557 L 172.169 78.045 M 172.169 78.045 L 172.089 77.9596"/><path d="M 131.249 120.324 L 130.187 122.018 L 131.954 121.082"/><path d="M 165.751 89.676 L 166.813 87.9817 L 165.046 88.9176"/><path d="M 130.187 122.018 L 180.335 75.4159"/></g></svg>