solid CATIA STL
  facet normal  -0.000000e+000  0.000000e+000  1.000000e+000
    outer loop
      vertex  7.500000e+000  7.500000e+000  1.900000e+001
      vertex -7.500000e+000  7.500000e+000  1.900000e+001
      vertex -1.697056e+000  1.697056e+000  1.900000e+001
    endloop
  endfacet
  facet normal  0.000000e+000  0.000000e+000  1.000000e+000
    outer loop
      vertex  7.500000e+000  7.500000e+000  1.900000e+001
      vertex -1.697056e+000  1.697056e+000  1.900000e+001
      vertex  1.469528e-016  2.400000e+000  1.900000e+001
    endloop
  endfacet
  facet normal  -0.000000e+000  0.000000e+000  1.000000e+000
    outer loop
      vertex  7.500000e+000  7.500000e+000  1.900000e+001
      vertex  1.469528e-016  2.400000e+000  1.900000e+001
      vertex  1.697056e+000  1.697056e+000  1.900000e+001
    endloop
  endfacet
  facet normal  -0.000000e+000  0.000000e+000  1.000000e+000
    outer loop
      vertex  7.500000e+000  7.500000e+000  1.900000e+001
      vertex  1.697056e+000  1.697056e+000  1.900000e+001
      vertex  7.500000e+000 -7.500000e+000  1.900000e+001
    endloop
  endfacet
  facet normal  0.000000e+000  0.000000e+000  1.000000e+000
    outer loop
      vertex -7.500000e+000 -7.500000e+000  1.900000e+001
      vertex  7.500000e+000 -7.500000e+000  1.900000e+001
      vertex -4.408583e-016 -2.400000e+000  1.900000e+001
    endloop
  endfacet
  facet normal  0.000000e+000  0.000000e+000  1.000000e+000
    outer loop
      vertex -7.500000e+000 -7.500000e+000  1.900000e+001
      vertex -4.408583e-016 -2.400000e+000  1.900000e+001
      vertex -1.697056e+000 -1.697056e+000  1.900000e+001
    endloop
  endfacet
  facet normal  0.000000e+000  0.000000e+000  1.000000e+000
    outer loop
      vertex -7.500000e+000 -7.500000e+000  1.900000e+001
      vertex -1.697056e+000 -1.697056e+000  1.900000e+001
      vertex -2.400000e+000  2.939055e-016  1.900000e+001
    endloop
  endfacet
  facet normal  0.000000e+000  -0.000000e+000  1.000000e+000
    outer loop
      vertex -7.500000e+000 -7.500000e+000  1.900000e+001
      vertex -2.400000e+000  2.939055e-016  1.900000e+001
      vertex -1.697056e+000  1.697056e+000  1.900000e+001
    endloop
  endfacet
  facet normal  0.000000e+000  0.000000e+000  1.000000e+000
    outer loop
      vertex -7.500000e+000 -7.500000e+000  1.900000e+001
      vertex -1.697056e+000  1.697056e+000  1.900000e+001
      vertex -7.500000e+000  7.500000e+000  1.900000e+001
    endloop
  endfacet
  facet normal  0.000000e+000  0.000000e+000  1.000000e+000
    outer loop
      vertex  7.500000e+000 -7.500000e+000  1.900000e+001
      vertex  1.697056e+000  1.697056e+000  1.900000e+001
      vertex  2.400000e+000 -5.878111e-016  1.900000e+001
    endloop
  endfacet
  facet normal  0.000000e+000  0.000000e+000  1.000000e+000
    outer loop
      vertex  7.500000e+000 -7.500000e+000  1.900000e+001
      vertex  2.400000e+000 -5.878111e-016  1.900000e+001
      vertex  1.697056e+000 -1.697056e+000  1.900000e+001
    endloop
  endfacet
  facet normal  0.000000e+000  0.000000e+000  1.000000e+000
    outer loop
      vertex  7.500000e+000 -7.500000e+000  1.900000e+001
      vertex  1.697056e+000 -1.697056e+000  1.900000e+001
      vertex -4.408583e-016 -2.400000e+000  1.900000e+001
    endloop
  endfacet
  facet normal  -0.000000e+000  0.000000e+000 -1.000000e+000
    outer loop
      vertex -7.500000e+000  7.500000e+000 -3.000000e+000
      vertex -4.500000e+000  7.500000e+000 -3.000000e+000
      vertex -7.500000e+000 -7.500000e+000 -3.000000e+000
    endloop
  endfacet
  facet normal  0.000000e+000  0.000000e+000 -1.000000e+000
    outer loop
      vertex -7.500000e+000 -7.500000e+000 -3.000000e+000
      vertex -4.500000e+000  7.500000e+000 -3.000000e+000
      vertex -4.500000e+000 -7.500000e+000 -3.000000e+000
    endloop
  endfacet
  facet normal  -0.000000e+000  0.000000e+000 -1.000000e+000
    outer loop
      vertex  4.500000e+000  7.500000e+000 -3.000000e+000
      vertex  7.500000e+000  7.500000e+000 -3.000000e+000
      vertex  4.500000e+000 -7.500000e+000 -3.000000e+000
    endloop
  endfacet
  facet normal  0.000000e+000  0.000000e+000 -1.000000e+000
    outer loop
      vertex  4.500000e+000 -7.500000e+000 -3.000000e+000
      vertex  7.500000e+000  7.500000e+000 -3.000000e+000
      vertex  7.500000e+000 -7.500000e+000 -3.000000e+000
    endloop
  endfacet
  facet normal  9.999999e-001  0.000000e+000  0.000000e+000
    outer loop
      vertex  7.500000e+000  7.500000e+000 -3.000000e+000
      vertex  7.500000e+000  7.500000e+000  1.900000e+001
      vertex  7.500000e+000 -7.500000e+000 -3.000000e+000
    endloop
  endfacet
  facet normal  9.999999e-001  0.000000e+000  0.000000e+000
    outer loop
      vertex  7.500000e+000 -7.500000e+000 -3.000000e+000
      vertex  7.500000e+000  7.500000e+000  1.900000e+001
      vertex  7.500000e+000 -7.500000e+000  1.900000e+001
    endloop
  endfacet
  facet normal -9.999999e-001  0.000000e+000  0.000000e+000
    outer loop
      vertex -7.500000e+000 -7.500000e+000 -3.000000e+000
      vertex -7.500000e+000 -7.500000e+000  1.900000e+001
      vertex -7.500000e+000  7.500000e+000 -3.000000e+000
    endloop
  endfacet
  facet normal -9.999999e-001  0.000000e+000  0.000000e+000
    outer loop
      vertex -7.500000e+000  7.500000e+000 -3.000000e+000
      vertex -7.500000e+000 -7.500000e+000  1.900000e+001
      vertex -7.500000e+000  7.500000e+000  1.900000e+001
    endloop
  endfacet
  facet normal  0.000000e+000 -1.000000e+000  0.000000e+000
    outer loop
      vertex -4.500000e+000 -7.500000e+000  0.000000e+000
      vertex -7.500000e+000 -7.500000e+000 -3.000000e+000
      vertex -4.500000e+000 -7.500000e+000 -3.000000e+000
    endloop
  endfacet
  facet normal  -0.000000e+000 -1.000000e+000  0.000000e+000
    outer loop
      vertex -7.500000e+000 -7.500000e+000 -3.000000e+000
      vertex -4.500000e+000 -7.500000e+000  0.000000e+000
      vertex -7.500000e+000 -7.500000e+000  1.900000e+001
    endloop
  endfacet
  facet normal  0.000000e+000 -1.000000e+000  0.000000e+000
    outer loop
      vertex -7.500000e+000 -7.500000e+000  1.900000e+001
      vertex -4.500000e+000 -7.500000e+000  0.000000e+000
      vertex  4.500000e+000 -7.500000e+000  0.000000e+000
    endloop
  endfacet
  facet normal  0.000000e+000 -1.000000e+000  0.000000e+000
    outer loop
      vertex -7.500000e+000 -7.500000e+000  1.900000e+001
      vertex  4.500000e+000 -7.500000e+000  0.000000e+000
      vertex  7.500000e+000 -7.500000e+000  1.900000e+001
    endloop
  endfacet
  facet normal  0.000000e+000 -1.000000e+000  0.000000e+000
    outer loop
      vertex  7.500000e+000 -7.500000e+000  1.900000e+001
      vertex  4.500000e+000 -7.500000e+000  0.000000e+000
      vertex  4.500000e+000 -7.500000e+000 -3.000000e+000
    endloop
  endfacet
  facet normal  0.000000e+000 -1.000000e+000  0.000000e+000
    outer loop
      vertex  7.500000e+000 -7.500000e+000  1.900000e+001
      vertex  4.500000e+000 -7.500000e+000 -3.000000e+000
      vertex  7.500000e+000 -7.500000e+000 -3.000000e+000
    endloop
  endfacet
  facet normal  0.000000e+000  1.000000e+000  0.000000e+000
    outer loop
      vertex -7.500000e+000  7.500000e+000  1.900000e+001
      vertex -4.500000e+000  7.500000e+000 -3.000000e+000
      vertex -7.500000e+000  7.500000e+000 -3.000000e+000
    endloop
  endfacet
  facet normal  0.000000e+000  1.000000e+000  0.000000e+000
    outer loop
      vertex -4.500000e+000  7.500000e+000 -3.000000e+000
      vertex -7.500000e+000  7.500000e+000  1.900000e+001
      vertex -4.500000e+000  7.500000e+000  0.000000e+000
    endloop
  endfacet
  facet normal  0.000000e+000  1.000000e+000  -0.000000e+000
    outer loop
      vertex -4.500000e+000  7.500000e+000  0.000000e+000
      vertex -7.500000e+000  7.500000e+000  1.900000e+001
      vertex  7.500000e+000  7.500000e+000  1.900000e+001
    endloop
  endfacet
  facet normal  0.000000e+000  1.000000e+000  0.000000e+000
    outer loop
      vertex -4.500000e+000  7.500000e+000  0.000000e+000
      vertex  7.500000e+000  7.500000e+000  1.900000e+001
      vertex  4.500000e+000  7.500000e+000  0.000000e+000
    endloop
  endfacet
  facet normal  -0.000000e+000  1.000000e+000  0.000000e+000
    outer loop
      vertex  4.500000e+000  7.500000e+000  0.000000e+000
      vertex  7.500000e+000  7.500000e+000  1.900000e+001
      vertex  7.500000e+000  7.500000e+000 -3.000000e+000
    endloop
  endfacet
  facet normal  0.000000e+000  1.000000e+000  0.000000e+000
    outer loop
      vertex  4.500000e+000  7.500000e+000  0.000000e+000
      vertex  7.500000e+000  7.500000e+000 -3.000000e+000
      vertex  4.500000e+000  7.500000e+000 -3.000000e+000
    endloop
  endfacet
  facet normal  1.000000e+000  0.000000e+000  0.000000e+000
    outer loop
      vertex -4.500000e+000  7.500000e+000 -3.000000e+000
      vertex -4.500000e+000  7.500000e+000  0.000000e+000
      vertex -4.500000e+000 -7.500000e+000 -3.000000e+000
    endloop
  endfacet
  facet normal  1.000000e+000  0.000000e+000  0.000000e+000
    outer loop
      vertex -4.500000e+000 -7.500000e+000 -3.000000e+000
      vertex -4.500000e+000  7.500000e+000  0.000000e+000
      vertex -4.500000e+000 -7.500000e+000  0.000000e+000
    endloop
  endfacet
  facet normal -1.000000e+000  0.000000e+000  0.000000e+000
    outer loop
      vertex  4.500000e+000  7.500000e+000 -3.000000e+000
      vertex  4.500000e+000 -7.500000e+000 -3.000000e+000
      vertex  4.500000e+000  7.500000e+000  0.000000e+000
    endloop
  endfacet
  facet normal -1.000000e+000  -0.000000e+000  0.000000e+000
    outer loop
      vertex  4.500000e+000  7.500000e+000  0.000000e+000
      vertex  4.500000e+000 -7.500000e+000 -3.000000e+000
      vertex  4.500000e+000 -7.500000e+000  0.000000e+000
    endloop
  endfacet
  facet normal  0.000000e+000  0.000000e+000 -1.000000e+000
    outer loop
      vertex -4.500000e+000 -7.500000e+000  0.000000e+000
      vertex -4.500000e+000  7.500000e+000  0.000000e+000
      vertex  4.500000e+000 -7.500000e+000  0.000000e+000
    endloop
  endfacet
  facet normal  0.000000e+000  0.000000e+000 -1.000000e+000
    outer loop
      vertex  4.500000e+000 -7.500000e+000  0.000000e+000
      vertex -4.500000e+000  7.500000e+000  0.000000e+000
      vertex  4.500000e+000  7.500000e+000  0.000000e+000
    endloop
  endfacet
  facet normal  9.238794e-001 -3.826835e-001  2.249456e-017
    outer loop
      vertex  2.400000e+000 -5.878111e-016  1.900000e+001
      vertex  2.400000e+000  0.000000e+000  2.900000e+001
      vertex  1.697056e+000 -1.697056e+000  1.900000e+001
    endloop
  endfacet
  facet normal  9.238794e-001 -3.826835e-001  0.000000e+000
    outer loop
      vertex  1.697056e+000 -1.697056e+000  1.900000e+001
      vertex  2.400000e+000  0.000000e+000  2.900000e+001
      vertex  1.697056e+000 -1.697056e+000  2.900000e+001
    endloop
  endfacet
  facet normal  3.826835e-001 -9.238794e-001  0.000000e+000
    outer loop
      vertex  1.697056e+000 -1.697056e+000  1.900000e+001
      vertex  1.697056e+000 -1.697056e+000  2.900000e+001
      vertex -4.408583e-016 -2.400000e+000  1.900000e+001
    endloop
  endfacet
  facet normal  3.826835e-001 -9.238794e-001  0.000000e+000
    outer loop
      vertex -4.408583e-016 -2.400000e+000  1.900000e+001
      vertex  1.697056e+000 -1.697056e+000  2.900000e+001
      vertex -4.408583e-016 -2.400000e+000  2.900000e+001
    endloop
  endfacet
  facet normal -3.826835e-001 -9.238794e-001  -0.000000e+000
    outer loop
      vertex -4.408583e-016 -2.400000e+000  1.900000e+001
      vertex -4.408583e-016 -2.400000e+000  2.900000e+001
      vertex -1.697056e+000 -1.697056e+000  1.900000e+001
    endloop
  endfacet
  facet normal -3.826835e-001 -9.238794e-001  0.000000e+000
    outer loop
      vertex -1.697056e+000 -1.697056e+000  1.900000e+001
      vertex -4.408583e-016 -2.400000e+000  2.900000e+001
      vertex -1.697056e+000 -1.697056e+000  2.900000e+001
    endloop
  endfacet
  facet normal -9.238794e-001 -3.826835e-001  -0.000000e+000
    outer loop
      vertex -1.697056e+000 -1.697056e+000  1.900000e+001
      vertex -1.697056e+000 -1.697056e+000  2.900000e+001
      vertex -2.400000e+000  2.939055e-016  1.900000e+001
    endloop
  endfacet
  facet normal -9.238794e-001 -3.826835e-001  0.000000e+000
    outer loop
      vertex -2.400000e+000  2.939055e-016  1.900000e+001
      vertex -1.697056e+000 -1.697056e+000  2.900000e+001
      vertex -2.400000e+000  2.939055e-016  2.900000e+001
    endloop
  endfacet
  facet normal -9.238794e-001  3.826835e-001  0.000000e+000
    outer loop
      vertex -2.400000e+000  2.939055e-016  1.900000e+001
      vertex -2.400000e+000  2.939055e-016  2.900000e+001
      vertex -1.697056e+000  1.697056e+000  1.900000e+001
    endloop
  endfacet
  facet normal -9.238794e-001  3.826835e-001  0.000000e+000
    outer loop
      vertex -1.697056e+000  1.697056e+000  1.900000e+001
      vertex -2.400000e+000  2.939055e-016  2.900000e+001
      vertex -1.697056e+000  1.697056e+000  2.900000e+001
    endloop
  endfacet
  facet normal -3.826835e-001  9.238794e-001  0.000000e+000
    outer loop
      vertex -1.697056e+000  1.697056e+000  1.900000e+001
      vertex -1.697056e+000  1.697056e+000  2.900000e+001
      vertex  1.469528e-016  2.400000e+000  1.900000e+001
    endloop
  endfacet
  facet normal -3.826835e-001  9.238794e-001  0.000000e+000
    outer loop
      vertex  1.469528e-016  2.400000e+000  1.900000e+001
      vertex -1.697056e+000  1.697056e+000  2.900000e+001
      vertex  1.469528e-016  2.400000e+000  2.900000e+001
    endloop
  endfacet
  facet normal  3.826835e-001  9.238794e-001  0.000000e+000
    outer loop
      vertex  1.469528e-016  2.400000e+000  1.900000e+001
      vertex  1.469528e-016  2.400000e+000  2.900000e+001
      vertex  1.697056e+000  1.697056e+000  1.900000e+001
    endloop
  endfacet
  facet normal  3.826835e-001  9.238794e-001  -0.000000e+000
    outer loop
      vertex  1.697056e+000  1.697056e+000  1.900000e+001
      vertex  1.469528e-016  2.400000e+000  2.900000e+001
      vertex  1.697056e+000  1.697056e+000  2.900000e+001
    endloop
  endfacet
  facet normal  9.238794e-001  3.826835e-001  0.000000e+000
    outer loop
      vertex  1.697056e+000  1.697056e+000  1.900000e+001
      vertex  1.697056e+000  1.697056e+000  2.900000e+001
      vertex  2.400000e+000 -5.878111e-016  1.900000e+001
    endloop
  endfacet
  facet normal  9.238794e-001  3.826835e-001 -2.249456e-017
    outer loop
      vertex  2.400000e+000 -5.878111e-016  1.900000e+001
      vertex  1.697056e+000  1.697056e+000  2.900000e+001
      vertex  2.400000e+000  0.000000e+000  2.900000e+001
    endloop
  endfacet
  facet normal  0.000000e+000  0.000000e+000  1.000000e+000
    outer loop
      vertex -1.697056e+000  1.697056e+000  2.900000e+001
      vertex  1.697056e+000  1.697056e+000  2.900000e+001
      vertex  1.469528e-016  2.400000e+000  2.900000e+001
    endloop
  endfacet
  facet normal  -0.000000e+000  0.000000e+000  1.000000e+000
    outer loop
      vertex  1.697056e+000  1.697056e+000  2.900000e+001
      vertex -1.697056e+000  1.697056e+000  2.900000e+001
      vertex  2.400000e+000  0.000000e+000  2.900000e+001
    endloop
  endfacet
  facet normal  0.000000e+000  0.000000e+000  1.000000e+000
    outer loop
      vertex  2.400000e+000  0.000000e+000  2.900000e+001
      vertex -1.697056e+000  1.697056e+000  2.900000e+001
      vertex -2.400000e+000  2.939055e-016  2.900000e+001
    endloop
  endfacet
  facet normal  0.000000e+000  0.000000e+000  1.000000e+000
    outer loop
      vertex  2.400000e+000  0.000000e+000  2.900000e+001
      vertex -2.400000e+000  2.939055e-016  2.900000e+001
      vertex  1.697056e+000 -1.697056e+000  2.900000e+001
    endloop
  endfacet
  facet normal  0.000000e+000  0.000000e+000  1.000000e+000
    outer loop
      vertex  1.697056e+000 -1.697056e+000  2.900000e+001
      vertex -2.400000e+000  2.939055e-016  2.900000e+001
      vertex -1.697056e+000 -1.697056e+000  2.900000e+001
    endloop
  endfacet
  facet normal  -0.000000e+000  0.000000e+000  1.000000e+000
    outer loop
      vertex  1.697056e+000 -1.697056e+000  2.900000e+001
      vertex -1.697056e+000 -1.697056e+000  2.900000e+001
      vertex -4.408583e-016 -2.400000e+000  2.900000e+001
    endloop
  endfacet
endsolid CATIA STL
