solid CATIA STL
  facet normal -1.000000e+000  -0.000000e+000  0.000000e+000
    outer loop
      vertex -1.750000e+001 -7.500000e+000  3.000000e+000
      vertex -1.750000e+001  7.500000e+000  3.000000e+000
      vertex -1.750000e+001 -7.500000e+000  0.000000e+000
    endloop
  endfacet
  facet normal -1.000000e+000  0.000000e+000  0.000000e+000
    outer loop
      vertex -1.750000e+001 -7.500000e+000  0.000000e+000
      vertex -1.750000e+001  7.500000e+000  3.000000e+000
      vertex -1.750000e+001  7.500000e+000  0.000000e+000
    endloop
  endfacet
  facet normal  1.000000e+000  -0.000000e+000  0.000000e+000
    outer loop
      vertex  1.250000e+001  7.500000e+000  3.000000e+000
      vertex  1.250000e+001 -7.500000e+000  3.000000e+000
      vertex  1.250000e+001  7.500000e+000  0.000000e+000
    endloop
  endfacet
  facet normal  1.000000e+000  0.000000e+000  0.000000e+000
    outer loop
      vertex  1.250000e+001  7.500000e+000  0.000000e+000
      vertex  1.250000e+001 -7.500000e+000  3.000000e+000
      vertex  1.250000e+001 -7.500000e+000  0.000000e+000
    endloop
  endfacet
  facet normal  0.000000e+000 -1.000000e+000  0.000000e+000
    outer loop
      vertex -1.750000e+001 -7.500000e+000  0.000000e+000
      vertex  1.250000e+001 -7.500000e+000  0.000000e+000
      vertex  1.250000e+001 -7.500000e+000  3.000000e+000
    endloop
  endfacet
  facet normal  -0.000000e+000 -1.000000e+000  0.000000e+000
    outer loop
      vertex -1.750000e+001 -7.500000e+000  0.000000e+000
      vertex  1.250000e+001 -7.500000e+000  3.000000e+000
      vertex  7.500000e+000 -7.500000e+000  3.000000e+000
    endloop
  endfacet
  facet normal  -0.000000e+000 -1.000000e+000  0.000000e+000
    outer loop
      vertex -1.750000e+001 -7.500000e+000  0.000000e+000
      vertex  7.500000e+000 -7.500000e+000  3.000000e+000
      vertex -7.500000e+000 -7.500000e+000  3.000000e+000
    endloop
  endfacet
  facet normal  -0.000000e+000 -1.000000e+000  0.000000e+000
    outer loop
      vertex -1.750000e+001 -7.500000e+000  0.000000e+000
      vertex -7.500000e+000 -7.500000e+000  3.000000e+000
      vertex -1.750000e+001 -7.500000e+000  3.000000e+000
    endloop
  endfacet
  facet normal  0.000000e+000 -1.000000e+000  0.000000e+000
    outer loop
      vertex -7.500000e+000 -7.500000e+000  1.900000e+001
      vertex -7.500000e+000 -7.500000e+000  3.000000e+000
      vertex  7.500000e+000 -7.500000e+000  1.900000e+001
    endloop
  endfacet
  facet normal  0.000000e+000 -1.000000e+000  -0.000000e+000
    outer loop
      vertex  7.500000e+000 -7.500000e+000  1.900000e+001
      vertex -7.500000e+000 -7.500000e+000  3.000000e+000
      vertex  7.500000e+000 -7.500000e+000  3.000000e+000
    endloop
  endfacet
  facet normal  0.000000e+000  1.000000e+000  0.000000e+000
    outer loop
      vertex  1.250000e+001  7.500000e+000  0.000000e+000
      vertex -1.750000e+001  7.500000e+000  0.000000e+000
      vertex -1.750000e+001  7.500000e+000  3.000000e+000
    endloop
  endfacet
  facet normal  -0.000000e+000  1.000000e+000  0.000000e+000
    outer loop
      vertex  1.250000e+001  7.500000e+000  0.000000e+000
      vertex -1.750000e+001  7.500000e+000  3.000000e+000
      vertex -7.500000e+000  7.500000e+000  3.000000e+000
    endloop
  endfacet
  facet normal  -0.000000e+000  1.000000e+000  0.000000e+000
    outer loop
      vertex  1.250000e+001  7.500000e+000  0.000000e+000
      vertex -7.500000e+000  7.500000e+000  3.000000e+000
      vertex  7.500000e+000  7.500000e+000  3.000000e+000
    endloop
  endfacet
  facet normal  -0.000000e+000  1.000000e+000  0.000000e+000
    outer loop
      vertex  1.250000e+001  7.500000e+000  0.000000e+000
      vertex  7.500000e+000  7.500000e+000  3.000000e+000
      vertex  1.250000e+001  7.500000e+000  3.000000e+000
    endloop
  endfacet
  facet normal  0.000000e+000  1.000000e+000  -0.000000e+000
    outer loop
      vertex  7.500000e+000  7.500000e+000  1.900000e+001
      vertex  7.500000e+000  7.500000e+000  3.000000e+000
      vertex -7.500000e+000  7.500000e+000  1.900000e+001
    endloop
  endfacet
  facet normal  0.000000e+000  1.000000e+000  0.000000e+000
    outer loop
      vertex -7.500000e+000  7.500000e+000  1.900000e+001
      vertex  7.500000e+000  7.500000e+000  3.000000e+000
      vertex -7.500000e+000  7.500000e+000  3.000000e+000
    endloop
  endfacet
  facet normal  0.000000e+000  0.000000e+000 -1.000000e+000
    outer loop
      vertex  1.250000e+001 -7.500000e+000  0.000000e+000
      vertex -1.750000e+001 -7.500000e+000  0.000000e+000
      vertex -1.500000e+001 -1.350000e+000  0.000000e+000
    endloop
  endfacet
  facet normal  0.000000e+000  0.000000e+000 -1.000000e+000
    outer loop
      vertex  1.250000e+001 -7.500000e+000  0.000000e+000
      vertex -1.500000e+001 -1.350000e+000  0.000000e+000
      vertex  1.000000e+001 -1.350000e+000  0.000000e+000
    endloop
  endfacet
  facet normal  0.000000e+000  0.000000e+000 -1.000000e+000
    outer loop
      vertex  1.250000e+001 -7.500000e+000  0.000000e+000
      vertex  1.000000e+001 -1.350000e+000  0.000000e+000
      vertex  1.095459e+001 -9.545941e-001  0.000000e+000
    endloop
  endfacet
  facet normal  0.000000e+000  0.000000e+000 -9.999999e-001
    outer loop
      vertex  1.250000e+001 -7.500000e+000  0.000000e+000
      vertex  1.095459e+001 -9.545941e-001  0.000000e+000
      vertex  1.135000e+001  0.000000e+000  0.000000e+000
    endloop
  endfacet
  facet normal  0.000000e+000  0.000000e+000 -1.000000e+000
    outer loop
      vertex -1.750000e+001 -7.500000e+000  0.000000e+000
      vertex -1.750000e+001  7.500000e+000  0.000000e+000
      vertex -1.635000e+001 -1.653219e-016  0.000000e+000
    endloop
  endfacet
  facet normal  0.000000e+000  -0.000000e+000 -9.999999e-001
    outer loop
      vertex -1.750000e+001 -7.500000e+000  0.000000e+000
      vertex -1.635000e+001 -1.653219e-016  0.000000e+000
      vertex -1.595459e+001 -9.545941e-001  0.000000e+000
    endloop
  endfacet
  facet normal  0.000000e+000  -0.000000e+000 -1.000000e+000
    outer loop
      vertex -1.750000e+001 -7.500000e+000  0.000000e+000
      vertex -1.595459e+001 -9.545941e-001  0.000000e+000
      vertex -1.500000e+001 -1.350000e+000  0.000000e+000
    endloop
  endfacet
  facet normal  -0.000000e+000  0.000000e+000 -1.000000e+000
    outer loop
      vertex -1.750000e+001  7.500000e+000  0.000000e+000
      vertex  1.250000e+001  7.500000e+000  0.000000e+000
      vertex  1.000000e+001  1.350000e+000  0.000000e+000
    endloop
  endfacet
  facet normal  0.000000e+000  0.000000e+000 -1.000000e+000
    outer loop
      vertex -1.750000e+001  7.500000e+000  0.000000e+000
      vertex  1.000000e+001  1.350000e+000  0.000000e+000
      vertex -1.500000e+001  1.350000e+000  0.000000e+000
    endloop
  endfacet
  facet normal  -0.000000e+000  0.000000e+000 -1.000000e+000
    outer loop
      vertex -1.750000e+001  7.500000e+000  0.000000e+000
      vertex -1.500000e+001  1.350000e+000  0.000000e+000
      vertex -1.595459e+001  9.545941e-001  0.000000e+000
    endloop
  endfacet
  facet normal  -0.000000e+000  0.000000e+000 -9.999999e-001
    outer loop
      vertex -1.750000e+001  7.500000e+000  0.000000e+000
      vertex -1.595459e+001  9.545941e-001  0.000000e+000
      vertex -1.635000e+001 -1.653219e-016  0.000000e+000
    endloop
  endfacet
  facet normal  0.000000e+000  0.000000e+000 -1.000000e+000
    outer loop
      vertex  1.250000e+001  7.500000e+000  0.000000e+000
      vertex  1.250000e+001 -7.500000e+000  0.000000e+000
      vertex  1.135000e+001  0.000000e+000  0.000000e+000
    endloop
  endfacet
  facet normal  0.000000e+000  0.000000e+000 -9.999999e-001
    outer loop
      vertex  1.250000e+001  7.500000e+000  0.000000e+000
      vertex  1.135000e+001  0.000000e+000  0.000000e+000
      vertex  1.095459e+001  9.545941e-001  0.000000e+000
    endloop
  endfacet
  facet normal  0.000000e+000  0.000000e+000 -1.000000e+000
    outer loop
      vertex  1.250000e+001  7.500000e+000  0.000000e+000
      vertex  1.095459e+001  9.545941e-001  0.000000e+000
      vertex  1.000000e+001  1.350000e+000  0.000000e+000
    endloop
  endfacet
  facet normal  0.000000e+000  0.000000e+000 -1.000000e+000
    outer loop
      vertex  8.650000e+000 -1.653219e-016  0.000000e+000
      vertex -1.404541e+001  9.545941e-001  0.000000e+000
      vertex  9.045405e+000  9.545941e-001  0.000000e+000
    endloop
  endfacet
  facet normal  0.000000e+000  0.000000e+000 -1.000000e+000
    outer loop
      vertex  9.045405e+000  9.545941e-001  0.000000e+000
      vertex -1.404541e+001  9.545941e-001  0.000000e+000
      vertex -1.500000e+001  1.350000e+000  0.000000e+000
    endloop
  endfacet
  facet normal  0.000000e+000  0.000000e+000 -1.000000e+000
    outer loop
      vertex  9.045405e+000  9.545941e-001  0.000000e+000
      vertex -1.500000e+001  1.350000e+000  0.000000e+000
      vertex  1.000000e+001  1.350000e+000  0.000000e+000
    endloop
  endfacet
  facet normal  0.000000e+000  0.000000e+000 -1.000000e+000
    outer loop
      vertex -1.404541e+001  9.545941e-001  0.000000e+000
      vertex  8.650000e+000 -1.653219e-016  0.000000e+000
      vertex -1.365000e+001  0.000000e+000  0.000000e+000
    endloop
  endfacet
  facet normal  0.000000e+000  0.000000e+000 -1.000000e+000
    outer loop
      vertex -1.365000e+001  0.000000e+000  0.000000e+000
      vertex  8.650000e+000 -1.653219e-016  0.000000e+000
      vertex  9.045405e+000 -9.545941e-001  0.000000e+000
    endloop
  endfacet
  facet normal  0.000000e+000  0.000000e+000 -1.000000e+000
    outer loop
      vertex -1.365000e+001  0.000000e+000  0.000000e+000
      vertex  9.045405e+000 -9.545941e-001  0.000000e+000
      vertex -1.404541e+001 -9.545941e-001  0.000000e+000
    endloop
  endfacet
  facet normal  0.000000e+000  0.000000e+000 -1.000000e+000
    outer loop
      vertex -1.404541e+001 -9.545941e-001  0.000000e+000
      vertex  9.045405e+000 -9.545941e-001  0.000000e+000
      vertex  1.000000e+001 -1.350000e+000  0.000000e+000
    endloop
  endfacet
  facet normal  0.000000e+000  0.000000e+000 -1.000000e+000
    outer loop
      vertex -1.404541e+001 -9.545941e-001  0.000000e+000
      vertex  1.000000e+001 -1.350000e+000  0.000000e+000
      vertex -1.500000e+001 -1.350000e+000  0.000000e+000
    endloop
  endfacet
  facet normal  -0.000000e+000  0.000000e+000  1.000000e+000
    outer loop
      vertex -1.404541e+001 -9.545941e-001  3.000000e+000
      vertex -1.500000e+001 -1.350000e+000  3.000000e+000
      vertex -7.500000e+000 -7.500000e+000  3.000000e+000
    endloop
  endfacet
  facet normal  0.000000e+000  0.000000e+000  1.000000e+000
    outer loop
      vertex -1.750000e+001  7.500000e+000  3.000000e+000
      vertex -1.750000e+001 -7.500000e+000  3.000000e+000
      vertex -1.635000e+001 -1.653219e-016  3.000000e+000
    endloop
  endfacet
  facet normal  0.000000e+000  -0.000000e+000  9.999999e-001
    outer loop
      vertex -1.750000e+001  7.500000e+000  3.000000e+000
      vertex -1.635000e+001 -1.653219e-016  3.000000e+000
      vertex -1.595459e+001  9.545941e-001  3.000000e+000
    endloop
  endfacet
  facet normal  0.000000e+000  -0.000000e+000  1.000000e+000
    outer loop
      vertex -1.750000e+001  7.500000e+000  3.000000e+000
      vertex -1.595459e+001  9.545941e-001  3.000000e+000
      vertex -1.500000e+001  1.350000e+000  3.000000e+000
    endloop
  endfacet
  facet normal  0.000000e+000  -0.000000e+000  9.999999e-001
    outer loop
      vertex -1.750000e+001  7.500000e+000  3.000000e+000
      vertex -1.500000e+001  1.350000e+000  3.000000e+000
      vertex -7.500000e+000  7.500000e+000  3.000000e+000
    endloop
  endfacet
  facet normal  0.000000e+000  0.000000e+000  9.999999e-001
    outer loop
      vertex -1.750000e+001 -7.500000e+000  3.000000e+000
      vertex -7.500000e+000 -7.500000e+000  3.000000e+000
      vertex -1.500000e+001 -1.350000e+000  3.000000e+000
    endloop
  endfacet
  facet normal  0.000000e+000  0.000000e+000  1.000000e+000
    outer loop
      vertex -1.750000e+001 -7.500000e+000  3.000000e+000
      vertex -1.500000e+001 -1.350000e+000  3.000000e+000
      vertex -1.595459e+001 -9.545941e-001  3.000000e+000
    endloop
  endfacet
  facet normal  0.000000e+000  0.000000e+000  9.999999e-001
    outer loop
      vertex -1.750000e+001 -7.500000e+000  3.000000e+000
      vertex -1.595459e+001 -9.545941e-001  3.000000e+000
      vertex -1.635000e+001 -1.653219e-016  3.000000e+000
    endloop
  endfacet
  facet normal  -0.000000e+000  0.000000e+000  1.000000e+000
    outer loop
      vertex -7.500000e+000  7.500000e+000  3.000000e+000
      vertex -1.500000e+001  1.350000e+000  3.000000e+000
      vertex -1.404541e+001  9.545941e-001  3.000000e+000
    endloop
  endfacet
  facet normal  -0.000000e+000  0.000000e+000  1.000000e+000
    outer loop
      vertex -7.500000e+000  7.500000e+000  3.000000e+000
      vertex -1.404541e+001  9.545941e-001  3.000000e+000
      vertex -1.365000e+001  0.000000e+000  3.000000e+000
    endloop
  endfacet
  facet normal  -0.000000e+000  0.000000e+000  1.000000e+000
    outer loop
      vertex -7.500000e+000  7.500000e+000  3.000000e+000
      vertex -1.365000e+001  0.000000e+000  3.000000e+000
      vertex -1.404541e+001 -9.545941e-001  3.000000e+000
    endloop
  endfacet
  facet normal  -0.000000e+000  0.000000e+000  1.000000e+000
    outer loop
      vertex -7.500000e+000  7.500000e+000  3.000000e+000
      vertex -1.404541e+001 -9.545941e-001  3.000000e+000
      vertex -7.500000e+000 -7.500000e+000  3.000000e+000
    endloop
  endfacet
  facet normal  0.000000e+000  -0.000000e+000  9.999999e-001
    outer loop
      vertex  1.095459e+001  9.545941e-001  3.000000e+000
      vertex  1.135000e+001  0.000000e+000  3.000000e+000
      vertex  1.250000e+001  7.500000e+000  3.000000e+000
    endloop
  endfacet
  facet normal  0.000000e+000  -0.000000e+000  1.000000e+000
    outer loop
      vertex  1.000000e+001  1.350000e+000  3.000000e+000
      vertex  1.095459e+001  9.545941e-001  3.000000e+000
      vertex  1.250000e+001  7.500000e+000  3.000000e+000
    endloop
  endfacet
  facet normal  0.000000e+000  0.000000e+000  1.000000e+000
    outer loop
      vertex  7.500000e+000  7.500000e+000  3.000000e+000
      vertex  7.500000e+000 -7.500000e+000  3.000000e+000
      vertex  8.650000e+000 -1.653219e-016  3.000000e+000
    endloop
  endfacet
  facet normal  0.000000e+000  -0.000000e+000  9.999999e-001
    outer loop
      vertex  7.500000e+000  7.500000e+000  3.000000e+000
      vertex  8.650000e+000 -1.653219e-016  3.000000e+000
      vertex  9.045405e+000  9.545941e-001  3.000000e+000
    endloop
  endfacet
  facet normal  0.000000e+000  -0.000000e+000  1.000000e+000
    outer loop
      vertex  7.500000e+000  7.500000e+000  3.000000e+000
      vertex  9.045405e+000  9.545941e-001  3.000000e+000
      vertex  1.000000e+001  1.350000e+000  3.000000e+000
    endloop
  endfacet
  facet normal  0.000000e+000  -0.000000e+000  9.999999e-001
    outer loop
      vertex  7.500000e+000  7.500000e+000  3.000000e+000
      vertex  1.000000e+001  1.350000e+000  3.000000e+000
      vertex  1.250000e+001  7.500000e+000  3.000000e+000
    endloop
  endfacet
  facet normal  0.000000e+000  0.000000e+000  9.999999e-001
    outer loop
      vertex  7.500000e+000 -7.500000e+000  3.000000e+000
      vertex  1.250000e+001 -7.500000e+000  3.000000e+000
      vertex  1.000000e+001 -1.350000e+000  3.000000e+000
    endloop
  endfacet
  facet normal  0.000000e+000  0.000000e+000  1.000000e+000
    outer loop
      vertex  7.500000e+000 -7.500000e+000  3.000000e+000
      vertex  1.000000e+001 -1.350000e+000  3.000000e+000
      vertex  9.045405e+000 -9.545941e-001  3.000000e+000
    endloop
  endfacet
  facet normal  0.000000e+000  0.000000e+000  9.999999e-001
    outer loop
      vertex  7.500000e+000 -7.500000e+000  3.000000e+000
      vertex  9.045405e+000 -9.545941e-001  3.000000e+000
      vertex  8.650000e+000 -1.653219e-016  3.000000e+000
    endloop
  endfacet
  facet normal  0.000000e+000  0.000000e+000  1.000000e+000
    outer loop
      vertex  1.250000e+001 -7.500000e+000  3.000000e+000
      vertex  1.250000e+001  7.500000e+000  3.000000e+000
      vertex  1.135000e+001  0.000000e+000  3.000000e+000
    endloop
  endfacet
  facet normal  0.000000e+000  0.000000e+000  9.999999e-001
    outer loop
      vertex  1.250000e+001 -7.500000e+000  3.000000e+000
      vertex  1.135000e+001  0.000000e+000  3.000000e+000
      vertex  1.095459e+001 -9.545941e-001  3.000000e+000
    endloop
  endfacet
  facet normal  0.000000e+000  0.000000e+000  1.000000e+000
    outer loop
      vertex  1.250000e+001 -7.500000e+000  3.000000e+000
      vertex  1.095459e+001 -9.545941e-001  3.000000e+000
      vertex  1.000000e+001 -1.350000e+000  3.000000e+000
    endloop
  endfacet
  facet normal  1.000000e+000  0.000000e+000  0.000000e+000
    outer loop
      vertex  7.500000e+000  7.500000e+000  3.000000e+000
      vertex  7.500000e+000  7.500000e+000  1.900000e+001
      vertex  7.500000e+000 -7.500000e+000  3.000000e+000
    endloop
  endfacet
  facet normal  1.000000e+000  0.000000e+000  0.000000e+000
    outer loop
      vertex  7.500000e+000 -7.500000e+000  3.000000e+000
      vertex  7.500000e+000  7.500000e+000  1.900000e+001
      vertex  7.500000e+000 -7.500000e+000  1.900000e+001
    endloop
  endfacet
  facet normal -1.000000e+000  0.000000e+000  0.000000e+000
    outer loop
      vertex -7.500000e+000 -7.500000e+000  3.000000e+000
      vertex -7.500000e+000 -7.500000e+000  1.900000e+001
      vertex -7.500000e+000  7.500000e+000  3.000000e+000
    endloop
  endfacet
  facet normal -1.000000e+000  0.000000e+000  0.000000e+000
    outer loop
      vertex -7.500000e+000  7.500000e+000  3.000000e+000
      vertex -7.500000e+000 -7.500000e+000  1.900000e+001
      vertex -7.500000e+000  7.500000e+000  1.900000e+001
    endloop
  endfacet
  facet normal  3.826833e-001  9.238796e-001  -0.000000e+000
    outer loop
      vertex -1.500000e+001 -1.350000e+000  3.000000e+000
      vertex -1.595459e+001 -9.545941e-001  0.000000e+000
      vertex -1.595459e+001 -9.545941e-001  3.000000e+000
    endloop
  endfacet
  facet normal  9.238795e-001  3.826834e-001  0.000000e+000
    outer loop
      vertex -1.595459e+001 -9.545941e-001  3.000000e+000
      vertex -1.595459e+001 -9.545941e-001  0.000000e+000
      vertex -1.635000e+001 -1.653219e-016  0.000000e+000
    endloop
  endfacet
  facet normal  9.238795e-001  3.826834e-001  -0.000000e+000
    outer loop
      vertex -1.595459e+001 -9.545941e-001  3.000000e+000
      vertex -1.635000e+001 -1.653219e-016  0.000000e+000
      vertex -1.635000e+001 -1.653219e-016  3.000000e+000
    endloop
  endfacet
  facet normal  3.826833e-001  9.238796e-001  0.000000e+000
    outer loop
      vertex -1.595459e+001 -9.545941e-001  0.000000e+000
      vertex -1.500000e+001 -1.350000e+000  3.000000e+000
      vertex -1.500000e+001 -1.350000e+000  0.000000e+000
    endloop
  endfacet
  facet normal -3.826833e-001  9.238796e-001  0.000000e+000
    outer loop
      vertex -1.500000e+001 -1.350000e+000  0.000000e+000
      vertex -1.500000e+001 -1.350000e+000  3.000000e+000
      vertex -1.404541e+001 -9.545941e-001  3.000000e+000
    endloop
  endfacet
  facet normal -3.826833e-001  9.238796e-001  0.000000e+000
    outer loop
      vertex -1.500000e+001 -1.350000e+000  0.000000e+000
      vertex -1.404541e+001 -9.545941e-001  3.000000e+000
      vertex -1.404541e+001 -9.545941e-001  0.000000e+000
    endloop
  endfacet
  facet normal -9.238795e-001  3.826834e-001  0.000000e+000
    outer loop
      vertex -1.404541e+001 -9.545941e-001  0.000000e+000
      vertex -1.404541e+001 -9.545941e-001  3.000000e+000
      vertex -1.365000e+001  0.000000e+000  3.000000e+000
    endloop
  endfacet
  facet normal -9.238795e-001  3.826834e-001  0.000000e+000
    outer loop
      vertex -1.404541e+001 -9.545941e-001  0.000000e+000
      vertex -1.365000e+001  0.000000e+000  3.000000e+000
      vertex -1.365000e+001  0.000000e+000  0.000000e+000
    endloop
  endfacet
  facet normal -3.826833e-001 -9.238796e-001  0.000000e+000
    outer loop
      vertex -1.500000e+001  1.350000e+000  3.000000e+000
      vertex -1.404541e+001  9.545941e-001  0.000000e+000
      vertex -1.404541e+001  9.545941e-001  3.000000e+000
    endloop
  endfacet
  facet normal -9.238795e-001 -3.826834e-001  -0.000000e+000
    outer loop
      vertex -1.404541e+001  9.545941e-001  3.000000e+000
      vertex -1.404541e+001  9.545941e-001  0.000000e+000
      vertex -1.365000e+001  0.000000e+000  0.000000e+000
    endloop
  endfacet
  facet normal -9.238795e-001 -3.826834e-001  0.000000e+000
    outer loop
      vertex -1.404541e+001  9.545941e-001  3.000000e+000
      vertex -1.365000e+001  0.000000e+000  0.000000e+000
      vertex -1.365000e+001  0.000000e+000  3.000000e+000
    endloop
  endfacet
  facet normal -3.826833e-001 -9.238796e-001  -0.000000e+000
    outer loop
      vertex -1.404541e+001  9.545941e-001  0.000000e+000
      vertex -1.500000e+001  1.350000e+000  3.000000e+000
      vertex -1.500000e+001  1.350000e+000  0.000000e+000
    endloop
  endfacet
  facet normal  3.826833e-001 -9.238796e-001  0.000000e+000
    outer loop
      vertex -1.500000e+001  1.350000e+000  0.000000e+000
      vertex -1.500000e+001  1.350000e+000  3.000000e+000
      vertex -1.595459e+001  9.545941e-001  3.000000e+000
    endloop
  endfacet
  facet normal  3.826833e-001 -9.238796e-001  0.000000e+000
    outer loop
      vertex -1.500000e+001  1.350000e+000  0.000000e+000
      vertex -1.595459e+001  9.545941e-001  3.000000e+000
      vertex -1.595459e+001  9.545941e-001  0.000000e+000
    endloop
  endfacet
  facet normal  9.238795e-001 -3.826834e-001  0.000000e+000
    outer loop
      vertex -1.595459e+001  9.545941e-001  0.000000e+000
      vertex -1.595459e+001  9.545941e-001  3.000000e+000
      vertex -1.635000e+001 -1.653219e-016  3.000000e+000
    endloop
  endfacet
  facet normal  9.238795e-001 -3.826834e-001  0.000000e+000
    outer loop
      vertex -1.595459e+001  9.545941e-001  0.000000e+000
      vertex -1.635000e+001 -1.653219e-016  3.000000e+000
      vertex -1.635000e+001 -1.653219e-016  0.000000e+000
    endloop
  endfacet
  facet normal  3.826833e-001  9.238796e-001  -0.000000e+000
    outer loop
      vertex  1.000000e+001 -1.350000e+000  3.000000e+000
      vertex  9.045405e+000 -9.545941e-001  0.000000e+000
      vertex  9.045405e+000 -9.545941e-001  3.000000e+000
    endloop
  endfacet
  facet normal  9.238795e-001  3.826834e-001  0.000000e+000
    outer loop
      vertex  9.045405e+000 -9.545941e-001  3.000000e+000
      vertex  9.045405e+000 -9.545941e-001  0.000000e+000
      vertex  8.650000e+000 -1.653219e-016  0.000000e+000
    endloop
  endfacet
  facet normal  9.238795e-001  3.826834e-001  -0.000000e+000
    outer loop
      vertex  9.045405e+000 -9.545941e-001  3.000000e+000
      vertex  8.650000e+000 -1.653219e-016  0.000000e+000
      vertex  8.650000e+000 -1.653219e-016  3.000000e+000
    endloop
  endfacet
  facet normal  3.826833e-001  9.238796e-001  0.000000e+000
    outer loop
      vertex  9.045405e+000 -9.545941e-001  0.000000e+000
      vertex  1.000000e+001 -1.350000e+000  3.000000e+000
      vertex  1.000000e+001 -1.350000e+000  0.000000e+000
    endloop
  endfacet
  facet normal -3.826833e-001  9.238796e-001  0.000000e+000
    outer loop
      vertex  1.000000e+001 -1.350000e+000  0.000000e+000
      vertex  1.000000e+001 -1.350000e+000  3.000000e+000
      vertex  1.095459e+001 -9.545941e-001  3.000000e+000
    endloop
  endfacet
  facet normal -3.826833e-001  9.238796e-001  0.000000e+000
    outer loop
      vertex  1.000000e+001 -1.350000e+000  0.000000e+000
      vertex  1.095459e+001 -9.545941e-001  3.000000e+000
      vertex  1.095459e+001 -9.545941e-001  0.000000e+000
    endloop
  endfacet
  facet normal -9.238795e-001  3.826834e-001  0.000000e+000
    outer loop
      vertex  1.095459e+001 -9.545941e-001  0.000000e+000
      vertex  1.095459e+001 -9.545941e-001  3.000000e+000
      vertex  1.135000e+001  0.000000e+000  3.000000e+000
    endloop
  endfacet
  facet normal -9.238795e-001  3.826834e-001  0.000000e+000
    outer loop
      vertex  1.095459e+001 -9.545941e-001  0.000000e+000
      vertex  1.135000e+001  0.000000e+000  3.000000e+000
      vertex  1.135000e+001  0.000000e+000  0.000000e+000
    endloop
  endfacet
  facet normal -3.826833e-001 -9.238796e-001  0.000000e+000
    outer loop
      vertex  1.000000e+001  1.350000e+000  3.000000e+000
      vertex  1.095459e+001  9.545941e-001  0.000000e+000
      vertex  1.095459e+001  9.545941e-001  3.000000e+000
    endloop
  endfacet
  facet normal -9.238795e-001 -3.826834e-001  -0.000000e+000
    outer loop
      vertex  1.095459e+001  9.545941e-001  3.000000e+000
      vertex  1.095459e+001  9.545941e-001  0.000000e+000
      vertex  1.135000e+001  0.000000e+000  0.000000e+000
    endloop
  endfacet
  facet normal -9.238795e-001 -3.826834e-001  0.000000e+000
    outer loop
      vertex  1.095459e+001  9.545941e-001  3.000000e+000
      vertex  1.135000e+001  0.000000e+000  0.000000e+000
      vertex  1.135000e+001  0.000000e+000  3.000000e+000
    endloop
  endfacet
  facet normal -3.826833e-001 -9.238796e-001  -0.000000e+000
    outer loop
      vertex  1.095459e+001  9.545941e-001  0.000000e+000
      vertex  1.000000e+001  1.350000e+000  3.000000e+000
      vertex  1.000000e+001  1.350000e+000  0.000000e+000
    endloop
  endfacet
  facet normal  3.826833e-001 -9.238796e-001  0.000000e+000
    outer loop
      vertex  1.000000e+001  1.350000e+000  0.000000e+000
      vertex  1.000000e+001  1.350000e+000  3.000000e+000
      vertex  9.045405e+000  9.545941e-001  3.000000e+000
    endloop
  endfacet
  facet normal  3.826833e-001 -9.238796e-001  0.000000e+000
    outer loop
      vertex  1.000000e+001  1.350000e+000  0.000000e+000
      vertex  9.045405e+000  9.545941e-001  3.000000e+000
      vertex  9.045405e+000  9.545941e-001  0.000000e+000
    endloop
  endfacet
  facet normal  9.238795e-001 -3.826834e-001  0.000000e+000
    outer loop
      vertex  9.045405e+000  9.545941e-001  0.000000e+000
      vertex  9.045405e+000  9.545941e-001  3.000000e+000
      vertex  8.650000e+000 -1.653219e-016  3.000000e+000
    endloop
  endfacet
  facet normal  9.238795e-001 -3.826834e-001  0.000000e+000
    outer loop
      vertex  9.045405e+000  9.545941e-001  0.000000e+000
      vertex  8.650000e+000 -1.653219e-016  3.000000e+000
      vertex  8.650000e+000 -1.653219e-016  0.000000e+000
    endloop
  endfacet
  facet normal  -0.000000e+000  0.000000e+000  1.000000e+000
    outer loop
      vertex  7.500000e+000  7.500000e+000  1.900000e+001
      vertex -7.500000e+000  7.500000e+000  1.900000e+001
      vertex -1.767767e+000  1.767767e+000  1.900000e+001
    endloop
  endfacet
  facet normal  0.000000e+000  0.000000e+000  1.000000e+000
    outer loop
      vertex  7.500000e+000  7.500000e+000  1.900000e+001
      vertex -1.767767e+000  1.767767e+000  1.900000e+001
      vertex  1.530758e-016  2.500000e+000  1.900000e+001
    endloop
  endfacet
  facet normal  -0.000000e+000  0.000000e+000  1.000000e+000
    outer loop
      vertex  7.500000e+000  7.500000e+000  1.900000e+001
      vertex  1.530758e-016  2.500000e+000  1.900000e+001
      vertex  1.767767e+000  1.767767e+000  1.900000e+001
    endloop
  endfacet
  facet normal  -0.000000e+000  0.000000e+000  1.000000e+000
    outer loop
      vertex  7.500000e+000  7.500000e+000  1.900000e+001
      vertex  1.767767e+000  1.767767e+000  1.900000e+001
      vertex  7.500000e+000 -7.500000e+000  1.900000e+001
    endloop
  endfacet
  facet normal  0.000000e+000  0.000000e+000  1.000000e+000
    outer loop
      vertex -7.500000e+000 -7.500000e+000  1.900000e+001
      vertex  7.500000e+000 -7.500000e+000  1.900000e+001
      vertex -4.592274e-016 -2.500000e+000  1.900000e+001
    endloop
  endfacet
  facet normal  0.000000e+000  0.000000e+000  1.000000e+000
    outer loop
      vertex -7.500000e+000 -7.500000e+000  1.900000e+001
      vertex -4.592274e-016 -2.500000e+000  1.900000e+001
      vertex -1.767767e+000 -1.767767e+000  1.900000e+001
    endloop
  endfacet
  facet normal  0.000000e+000  0.000000e+000  1.000000e+000
    outer loop
      vertex -7.500000e+000 -7.500000e+000  1.900000e+001
      vertex -1.767767e+000 -1.767767e+000  1.900000e+001
      vertex -2.500000e+000  3.061516e-016  1.900000e+001
    endloop
  endfacet
  facet normal  0.000000e+000  -0.000000e+000  1.000000e+000
    outer loop
      vertex -7.500000e+000 -7.500000e+000  1.900000e+001
      vertex -2.500000e+000  3.061516e-016  1.900000e+001
      vertex -1.767767e+000  1.767767e+000  1.900000e+001
    endloop
  endfacet
  facet normal  0.000000e+000  0.000000e+000  1.000000e+000
    outer loop
      vertex -7.500000e+000 -7.500000e+000  1.900000e+001
      vertex -1.767767e+000  1.767767e+000  1.900000e+001
      vertex -7.500000e+000  7.500000e+000  1.900000e+001
    endloop
  endfacet
  facet normal  0.000000e+000  0.000000e+000  1.000000e+000
    outer loop
      vertex  7.500000e+000 -7.500000e+000  1.900000e+001
      vertex  1.767767e+000  1.767767e+000  1.900000e+001
      vertex  2.500000e+000 -6.123032e-016  1.900000e+001
    endloop
  endfacet
  facet normal  0.000000e+000  0.000000e+000  1.000000e+000
    outer loop
      vertex  7.500000e+000 -7.500000e+000  1.900000e+001
      vertex  2.500000e+000 -6.123032e-016  1.900000e+001
      vertex  1.767767e+000 -1.767767e+000  1.900000e+001
    endloop
  endfacet
  facet normal  0.000000e+000  0.000000e+000  1.000000e+000
    outer loop
      vertex  7.500000e+000 -7.500000e+000  1.900000e+001
      vertex  1.767767e+000 -1.767767e+000  1.900000e+001
      vertex -4.592274e-016 -2.500000e+000  1.900000e+001
    endloop
  endfacet
  facet normal  9.238796e-001 -3.826835e-001  2.343183e-017
    outer loop
      vertex  2.500000e+000 -6.123032e-016  1.900000e+001
      vertex  2.500000e+000  0.000000e+000  2.900000e+001
      vertex  1.767767e+000 -1.767767e+000  1.900000e+001
    endloop
  endfacet
  facet normal  9.238796e-001 -3.826835e-001  0.000000e+000
    outer loop
      vertex  1.767767e+000 -1.767767e+000  1.900000e+001
      vertex  2.500000e+000  0.000000e+000  2.900000e+001
      vertex  1.767767e+000 -1.767767e+000  2.900000e+001
    endloop
  endfacet
  facet normal  3.826835e-001 -9.238796e-001  0.000000e+000
    outer loop
      vertex  1.767767e+000 -1.767767e+000  1.900000e+001
      vertex  1.767767e+000 -1.767767e+000  2.900000e+001
      vertex -4.592274e-016 -2.500000e+000  1.900000e+001
    endloop
  endfacet
  facet normal  3.826835e-001 -9.238796e-001  0.000000e+000
    outer loop
      vertex -4.592274e-016 -2.500000e+000  1.900000e+001
      vertex  1.767767e+000 -1.767767e+000  2.900000e+001
      vertex -4.592274e-016 -2.500000e+000  2.900000e+001
    endloop
  endfacet
  facet normal -3.826835e-001 -9.238796e-001  -0.000000e+000
    outer loop
      vertex -4.592274e-016 -2.500000e+000  1.900000e+001
      vertex -4.592274e-016 -2.500000e+000  2.900000e+001
      vertex -1.767767e+000 -1.767767e+000  1.900000e+001
    endloop
  endfacet
  facet normal -3.826835e-001 -9.238796e-001  0.000000e+000
    outer loop
      vertex -1.767767e+000 -1.767767e+000  1.900000e+001
      vertex -4.592274e-016 -2.500000e+000  2.900000e+001
      vertex -1.767767e+000 -1.767767e+000  2.900000e+001
    endloop
  endfacet
  facet normal -9.238796e-001 -3.826835e-001  -0.000000e+000
    outer loop
      vertex -1.767767e+000 -1.767767e+000  1.900000e+001
      vertex -1.767767e+000 -1.767767e+000  2.900000e+001
      vertex -2.500000e+000  3.061516e-016  1.900000e+001
    endloop
  endfacet
  facet normal -9.238796e-001 -3.826835e-001  0.000000e+000
    outer loop
      vertex -2.500000e+000  3.061516e-016  1.900000e+001
      vertex -1.767767e+000 -1.767767e+000  2.900000e+001
      vertex -2.500000e+000  3.061516e-016  2.900000e+001
    endloop
  endfacet
  facet normal -9.238796e-001  3.826835e-001  0.000000e+000
    outer loop
      vertex -2.500000e+000  3.061516e-016  1.900000e+001
      vertex -2.500000e+000  3.061516e-016  2.900000e+001
      vertex -1.767767e+000  1.767767e+000  1.900000e+001
    endloop
  endfacet
  facet normal -9.238796e-001  3.826835e-001  0.000000e+000
    outer loop
      vertex -1.767767e+000  1.767767e+000  1.900000e+001
      vertex -2.500000e+000  3.061516e-016  2.900000e+001
      vertex -1.767767e+000  1.767767e+000  2.900000e+001
    endloop
  endfacet
  facet normal -3.826835e-001  9.238796e-001  0.000000e+000
    outer loop
      vertex -1.767767e+000  1.767767e+000  1.900000e+001
      vertex -1.767767e+000  1.767767e+000  2.900000e+001
      vertex  1.530758e-016  2.500000e+000  1.900000e+001
    endloop
  endfacet
  facet normal -3.826835e-001  9.238796e-001  0.000000e+000
    outer loop
      vertex  1.530758e-016  2.500000e+000  1.900000e+001
      vertex -1.767767e+000  1.767767e+000  2.900000e+001
      vertex  1.530758e-016  2.500000e+000  2.900000e+001
    endloop
  endfacet
  facet normal  3.826835e-001  9.238796e-001  0.000000e+000
    outer loop
      vertex  1.530758e-016  2.500000e+000  1.900000e+001
      vertex  1.530758e-016  2.500000e+000  2.900000e+001
      vertex  1.767767e+000  1.767767e+000  1.900000e+001
    endloop
  endfacet
  facet normal  3.826835e-001  9.238796e-001  -0.000000e+000
    outer loop
      vertex  1.767767e+000  1.767767e+000  1.900000e+001
      vertex  1.530758e-016  2.500000e+000  2.900000e+001
      vertex  1.767767e+000  1.767767e+000  2.900000e+001
    endloop
  endfacet
  facet normal  9.238796e-001  3.826835e-001  0.000000e+000
    outer loop
      vertex  1.767767e+000  1.767767e+000  1.900000e+001
      vertex  1.767767e+000  1.767767e+000  2.900000e+001
      vertex  2.500000e+000 -6.123032e-016  1.900000e+001
    endloop
  endfacet
  facet normal  9.238796e-001  3.826835e-001 -2.343183e-017
    outer loop
      vertex  2.500000e+000 -6.123032e-016  1.900000e+001
      vertex  1.767767e+000  1.767767e+000  2.900000e+001
      vertex  2.500000e+000  0.000000e+000  2.900000e+001
    endloop
  endfacet
  facet normal  0.000000e+000  0.000000e+000  1.000000e+000
    outer loop
      vertex -1.767767e+000  1.767767e+000  2.900000e+001
      vertex  1.767767e+000  1.767767e+000  2.900000e+001
      vertex  1.530758e-016  2.500000e+000  2.900000e+001
    endloop
  endfacet
  facet normal  -0.000000e+000  0.000000e+000  1.000000e+000
    outer loop
      vertex  1.767767e+000  1.767767e+000  2.900000e+001
      vertex -1.767767e+000  1.767767e+000  2.900000e+001
      vertex  2.500000e+000  0.000000e+000  2.900000e+001
    endloop
  endfacet
  facet normal  0.000000e+000  0.000000e+000  1.000000e+000
    outer loop
      vertex  2.500000e+000  0.000000e+000  2.900000e+001
      vertex -1.767767e+000  1.767767e+000  2.900000e+001
      vertex -2.500000e+000  3.061516e-016  2.900000e+001
    endloop
  endfacet
  facet normal  0.000000e+000  0.000000e+000  1.000000e+000
    outer loop
      vertex  2.500000e+000  0.000000e+000  2.900000e+001
      vertex -2.500000e+000  3.061516e-016  2.900000e+001
      vertex  1.767767e+000 -1.767767e+000  2.900000e+001
    endloop
  endfacet
  facet normal  0.000000e+000  0.000000e+000  1.000000e+000
    outer loop
      vertex  1.767767e+000 -1.767767e+000  2.900000e+001
      vertex -2.500000e+000  3.061516e-016  2.900000e+001
      vertex -1.767767e+000 -1.767767e+000  2.900000e+001
    endloop
  endfacet
  facet normal  -0.000000e+000  0.000000e+000  1.000000e+000
    outer loop
      vertex  1.767767e+000 -1.767767e+000  2.900000e+001
      vertex -1.767767e+000 -1.767767e+000  2.900000e+001
      vertex -4.592274e-016 -2.500000e+000  2.900000e+001
    endloop
  endfacet
endsolid CATIA STL
