solid CATIA STL
  facet normal  1.000000e+000  -0.000000e+000  0.000000e+000
    outer loop
      vertex -1.520000e+001  1.500000e+001  0.000000e+000
      vertex -1.520000e+001  0.000000e+000  0.000000e+000
      vertex -1.520000e+001  1.500000e+001 -1.920000e+001
    endloop
  endfacet
  facet normal  1.000000e+000  0.000000e+000  0.000000e+000
    outer loop
      vertex -1.520000e+001  1.500000e+001 -1.920000e+001
      vertex -1.520000e+001  0.000000e+000  0.000000e+000
      vertex -1.520000e+001 -7.105427e-015 -1.920000e+001
    endloop
  endfacet
  facet normal -1.000000e+000  -0.000000e+000  0.000000e+000
    outer loop
      vertex -2.500000e+001 -5.329071e-015 -1.620000e+001
      vertex -2.500000e+001  1.500000e+001 -1.620000e+001
      vertex -2.500000e+001 -5.329071e-015 -1.920000e+001
    endloop
  endfacet
  facet normal -1.000000e+000  0.000000e+000  0.000000e+000
    outer loop
      vertex -2.500000e+001 -5.329071e-015 -1.920000e+001
      vertex -2.500000e+001  1.500000e+001 -1.620000e+001
      vertex -2.500000e+001  1.500000e+001 -1.920000e+001
    endloop
  endfacet
  facet normal  5.329071e-015 -1.000000e+000  0.000000e+000
    outer loop
      vertex -2.000000e+001  2.131628e-014 -1.620000e+001
      vertex -2.500000e+001 -5.329071e-015 -1.620000e+001
      vertex -2.500000e+001 -5.329071e-015 -1.920000e+001
    endloop
  endfacet
  facet normal -1.812609e-016 -1.000000e+000  9.183885e-015
    outer loop
      vertex -2.000000e+001  2.131628e-014 -1.620000e+001
      vertex -2.500000e+001 -5.329071e-015 -1.920000e+001
      vertex -1.520000e+001 -7.105427e-015 -1.920000e+001
    endloop
  endfacet
  facet normal -5.689893e-015 -1.000000e+000  3.700743e-016
    outer loop
      vertex -2.000000e+001  2.131628e-014 -1.620000e+001
      vertex -1.520000e+001 -7.105427e-015 -1.920000e+001
      vertex -1.520000e+001  0.000000e+000  0.000000e+000
    endloop
  endfacet
  facet normal -4.440892e-015 -1.000000e+000  0.000000e+000
    outer loop
      vertex -2.000000e+001  2.131628e-014 -1.620000e+001
      vertex -1.520000e+001  0.000000e+000  0.000000e+000
      vertex -2.000000e+001  2.131628e-014  3.000000e+000
    endloop
  endfacet
  facet normal  0.000000e+000 -1.000000e+000  -0.000000e+000
    outer loop
      vertex  0.000000e+000  0.000000e+000  0.000000e+000
      vertex  0.000000e+000  0.000000e+000  3.000000e+000
      vertex -1.520000e+001  0.000000e+000  0.000000e+000
    endloop
  endfacet
  facet normal -1.065814e-015 -1.000000e+000  5.400125e-015
    outer loop
      vertex -1.520000e+001  0.000000e+000  0.000000e+000
      vertex  0.000000e+000  0.000000e+000  3.000000e+000
      vertex -2.000000e+001  2.131628e-014  3.000000e+000
    endloop
  endfacet
  facet normal  0.000000e+000  0.000000e+000 -1.000000e+000
    outer loop
      vertex -1.520000e+001 -7.105427e-015 -1.920000e+001
      vertex -2.500000e+001 -5.329071e-015 -1.920000e+001
      vertex -2.250000e+001  6.150000e+000 -1.920000e+001
    endloop
  endfacet
  facet normal  0.000000e+000  0.000000e+000 -1.000000e+000
    outer loop
      vertex -1.520000e+001 -7.105427e-015 -1.920000e+001
      vertex -2.250000e+001  6.150000e+000 -1.920000e+001
      vertex -2.154541e+001  6.545406e+000 -1.920000e+001
    endloop
  endfacet
  facet normal  0.000000e+000  0.000000e+000 -1.000000e+000
    outer loop
      vertex -1.520000e+001 -7.105427e-015 -1.920000e+001
      vertex -2.154541e+001  6.545406e+000 -1.920000e+001
      vertex -1.520000e+001  1.500000e+001 -1.920000e+001
    endloop
  endfacet
  facet normal  -0.000000e+000  0.000000e+000 -1.000000e+000
    outer loop
      vertex -2.500000e+001  1.500000e+001 -1.920000e+001
      vertex -1.520000e+001  1.500000e+001 -1.920000e+001
      vertex -2.250000e+001  8.850000e+000 -1.920000e+001
    endloop
  endfacet
  facet normal  -0.000000e+000  0.000000e+000 -1.000000e+000
    outer loop
      vertex -2.500000e+001  1.500000e+001 -1.920000e+001
      vertex -2.250000e+001  8.850000e+000 -1.920000e+001
      vertex -2.345459e+001  8.454595e+000 -1.920000e+001
    endloop
  endfacet
  facet normal  -0.000000e+000  0.000000e+000 -1.000000e+000
    outer loop
      vertex -2.500000e+001  1.500000e+001 -1.920000e+001
      vertex -2.345459e+001  8.454595e+000 -1.920000e+001
      vertex -2.385000e+001  7.500000e+000 -1.920000e+001
    endloop
  endfacet
  facet normal  0.000000e+000  0.000000e+000 -1.000000e+000
    outer loop
      vertex -2.500000e+001 -5.329071e-015 -1.920000e+001
      vertex -2.500000e+001  1.500000e+001 -1.920000e+001
      vertex -2.385000e+001  7.500000e+000 -1.920000e+001
    endloop
  endfacet
  facet normal  0.000000e+000  -0.000000e+000 -1.000000e+000
    outer loop
      vertex -2.500000e+001 -5.329071e-015 -1.920000e+001
      vertex -2.385000e+001  7.500000e+000 -1.920000e+001
      vertex -2.345459e+001  6.545406e+000 -1.920000e+001
    endloop
  endfacet
  facet normal  0.000000e+000  -0.000000e+000 -1.000000e+000
    outer loop
      vertex -2.500000e+001 -5.329071e-015 -1.920000e+001
      vertex -2.345459e+001  6.545406e+000 -1.920000e+001
      vertex -2.250000e+001  6.150000e+000 -1.920000e+001
    endloop
  endfacet
  facet normal  0.000000e+000  0.000000e+000 -1.000000e+000
    outer loop
      vertex -1.520000e+001  1.500000e+001 -1.920000e+001
      vertex -2.154541e+001  6.545406e+000 -1.920000e+001
      vertex -2.115000e+001  7.500000e+000 -1.920000e+001
    endloop
  endfacet
  facet normal  0.000000e+000  0.000000e+000 -1.000000e+000
    outer loop
      vertex -1.520000e+001  1.500000e+001 -1.920000e+001
      vertex -2.115000e+001  7.500000e+000 -1.920000e+001
      vertex -2.154541e+001  8.454595e+000 -1.920000e+001
    endloop
  endfacet
  facet normal  0.000000e+000  0.000000e+000 -1.000000e+000
    outer loop
      vertex -1.520000e+001  1.500000e+001 -1.920000e+001
      vertex -2.154541e+001  8.454595e+000 -1.920000e+001
      vertex -2.250000e+001  8.850000e+000 -1.920000e+001
    endloop
  endfacet
  facet normal  0.000000e+000  1.000000e+000  -0.000000e+000
    outer loop
      vertex -1.520000e+001  1.500000e+001  0.000000e+000
      vertex -1.520000e+001  1.500000e+001 -1.920000e+001
      vertex -2.000000e+001  1.500000e+001 -1.620000e+001
    endloop
  endfacet
  facet normal  0.000000e+000  1.000000e+000  0.000000e+000
    outer loop
      vertex -1.520000e+001  1.500000e+001  0.000000e+000
      vertex -2.000000e+001  1.500000e+001 -1.620000e+001
      vertex -2.000000e+001  1.500000e+001  3.000000e+000
    endloop
  endfacet
  facet normal  -0.000000e+000  1.000000e+000  0.000000e+000
    outer loop
      vertex -1.520000e+001  1.500000e+001  0.000000e+000
      vertex -2.000000e+001  1.500000e+001  3.000000e+000
      vertex  2.842171e-014  1.500000e+001  3.000000e+000
    endloop
  endfacet
  facet normal  0.000000e+000  1.000000e+000  0.000000e+000
    outer loop
      vertex -1.520000e+001  1.500000e+001  0.000000e+000
      vertex  2.842171e-014  1.500000e+001  3.000000e+000
      vertex  2.842171e-014  1.500000e+001  0.000000e+000
    endloop
  endfacet
  facet normal  0.000000e+000  1.000000e+000  0.000000e+000
    outer loop
      vertex -2.500000e+001  1.500000e+001 -1.620000e+001
      vertex -2.000000e+001  1.500000e+001 -1.620000e+001
      vertex -2.500000e+001  1.500000e+001 -1.920000e+001
    endloop
  endfacet
  facet normal  0.000000e+000  1.000000e+000  0.000000e+000
    outer loop
      vertex -2.500000e+001  1.500000e+001 -1.920000e+001
      vertex -2.000000e+001  1.500000e+001 -1.620000e+001
      vertex -1.520000e+001  1.500000e+001 -1.920000e+001
    endloop
  endfacet
  facet normal  0.000000e+000  -0.000000e+000  1.000000e+000
    outer loop
      vertex -2.154541e+001  8.454595e+000 -1.620000e+001
      vertex -2.115000e+001  7.500000e+000 -1.620000e+001
      vertex -2.000000e+001  1.500000e+001 -1.620000e+001
    endloop
  endfacet
  facet normal  0.000000e+000  -0.000000e+000  1.000000e+000
    outer loop
      vertex -2.250000e+001  8.850000e+000 -1.620000e+001
      vertex -2.154541e+001  8.454595e+000 -1.620000e+001
      vertex -2.000000e+001  1.500000e+001 -1.620000e+001
    endloop
  endfacet
  facet normal  0.000000e+000  0.000000e+000  1.000000e+000
    outer loop
      vertex -2.500000e+001  1.500000e+001 -1.620000e+001
      vertex -2.500000e+001 -5.329071e-015 -1.620000e+001
      vertex -2.385000e+001  7.500000e+000 -1.620000e+001
    endloop
  endfacet
  facet normal  0.000000e+000  -0.000000e+000  1.000000e+000
    outer loop
      vertex -2.500000e+001  1.500000e+001 -1.620000e+001
      vertex -2.385000e+001  7.500000e+000 -1.620000e+001
      vertex -2.345459e+001  8.454595e+000 -1.620000e+001
    endloop
  endfacet
  facet normal  0.000000e+000  -0.000000e+000  1.000000e+000
    outer loop
      vertex -2.500000e+001  1.500000e+001 -1.620000e+001
      vertex -2.345459e+001  8.454595e+000 -1.620000e+001
      vertex -2.250000e+001  8.850000e+000 -1.620000e+001
    endloop
  endfacet
  facet normal  0.000000e+000  -0.000000e+000  1.000000e+000
    outer loop
      vertex -2.500000e+001  1.500000e+001 -1.620000e+001
      vertex -2.250000e+001  8.850000e+000 -1.620000e+001
      vertex -2.000000e+001  1.500000e+001 -1.620000e+001
    endloop
  endfacet
  facet normal  0.000000e+000  0.000000e+000  9.999999e-001
    outer loop
      vertex -2.500000e+001 -5.329071e-015 -1.620000e+001
      vertex -2.000000e+001  2.131628e-014 -1.620000e+001
      vertex -2.250000e+001  6.150000e+000 -1.620000e+001
    endloop
  endfacet
  facet normal  0.000000e+000  0.000000e+000  1.000000e+000
    outer loop
      vertex -2.500000e+001 -5.329071e-015 -1.620000e+001
      vertex -2.250000e+001  6.150000e+000 -1.620000e+001
      vertex -2.345459e+001  6.545406e+000 -1.620000e+001
    endloop
  endfacet
  facet normal  0.000000e+000  0.000000e+000  1.000000e+000
    outer loop
      vertex -2.500000e+001 -5.329071e-015 -1.620000e+001
      vertex -2.345459e+001  6.545406e+000 -1.620000e+001
      vertex -2.385000e+001  7.500000e+000 -1.620000e+001
    endloop
  endfacet
  facet normal  0.000000e+000  0.000000e+000  1.000000e+000
    outer loop
      vertex -2.000000e+001  2.131628e-014 -1.620000e+001
      vertex -2.000000e+001  1.500000e+001 -1.620000e+001
      vertex -2.115000e+001  7.500000e+000 -1.620000e+001
    endloop
  endfacet
  facet normal  0.000000e+000  0.000000e+000  1.000000e+000
    outer loop
      vertex -2.000000e+001  2.131628e-014 -1.620000e+001
      vertex -2.115000e+001  7.500000e+000 -1.620000e+001
      vertex -2.154541e+001  6.545406e+000 -1.620000e+001
    endloop
  endfacet
  facet normal  0.000000e+000  0.000000e+000  1.000000e+000
    outer loop
      vertex -2.000000e+001  2.131628e-014 -1.620000e+001
      vertex -2.154541e+001  6.545406e+000 -1.620000e+001
      vertex -2.250000e+001  6.150000e+000 -1.620000e+001
    endloop
  endfacet
  facet normal -1.000000e+000  0.000000e+000  0.000000e+000
    outer loop
      vertex -2.000000e+001  2.131628e-014 -1.620000e+001
      vertex -2.000000e+001  2.131628e-014  3.000000e+000
      vertex -2.000000e+001  1.500000e+001 -1.620000e+001
    endloop
  endfacet
  facet normal -1.000000e+000  0.000000e+000  0.000000e+000
    outer loop
      vertex -2.000000e+001  1.500000e+001 -1.620000e+001
      vertex -2.000000e+001  2.131628e-014  3.000000e+000
      vertex -2.000000e+001  1.500000e+001  3.000000e+000
    endloop
  endfacet
  facet normal  3.826835e-001  9.238795e-001  -0.000000e+000
    outer loop
      vertex -2.250000e+001  6.150000e+000 -1.620000e+001
      vertex -2.345459e+001  6.545406e+000 -1.920000e+001
      vertex -2.345459e+001  6.545406e+000 -1.620000e+001
    endloop
  endfacet
  facet normal  9.238793e-001  3.826842e-001  0.000000e+000
    outer loop
      vertex -2.345459e+001  6.545406e+000 -1.620000e+001
      vertex -2.345459e+001  6.545406e+000 -1.920000e+001
      vertex -2.385000e+001  7.500000e+000 -1.920000e+001
    endloop
  endfacet
  facet normal  9.238793e-001  3.826842e-001  -0.000000e+000
    outer loop
      vertex -2.345459e+001  6.545406e+000 -1.620000e+001
      vertex -2.385000e+001  7.500000e+000 -1.920000e+001
      vertex -2.385000e+001  7.500000e+000 -1.620000e+001
    endloop
  endfacet
  facet normal  3.826835e-001  9.238795e-001  0.000000e+000
    outer loop
      vertex -2.345459e+001  6.545406e+000 -1.920000e+001
      vertex -2.250000e+001  6.150000e+000 -1.620000e+001
      vertex -2.250000e+001  6.150000e+000 -1.920000e+001
    endloop
  endfacet
  facet normal -3.826835e-001  9.238795e-001  0.000000e+000
    outer loop
      vertex -2.250000e+001  6.150000e+000 -1.920000e+001
      vertex -2.250000e+001  6.150000e+000 -1.620000e+001
      vertex -2.154541e+001  6.545406e+000 -1.620000e+001
    endloop
  endfacet
  facet normal -3.826835e-001  9.238795e-001  0.000000e+000
    outer loop
      vertex -2.250000e+001  6.150000e+000 -1.920000e+001
      vertex -2.154541e+001  6.545406e+000 -1.620000e+001
      vertex -2.154541e+001  6.545406e+000 -1.920000e+001
    endloop
  endfacet
  facet normal -9.238793e-001  3.826842e-001  0.000000e+000
    outer loop
      vertex -2.154541e+001  6.545406e+000 -1.920000e+001
      vertex -2.154541e+001  6.545406e+000 -1.620000e+001
      vertex -2.115000e+001  7.500000e+000 -1.620000e+001
    endloop
  endfacet
  facet normal -9.238793e-001  3.826842e-001  0.000000e+000
    outer loop
      vertex -2.154541e+001  6.545406e+000 -1.920000e+001
      vertex -2.115000e+001  7.500000e+000 -1.620000e+001
      vertex -2.115000e+001  7.500000e+000 -1.920000e+001
    endloop
  endfacet
  facet normal -3.826835e-001 -9.238795e-001  0.000000e+000
    outer loop
      vertex -2.250000e+001  8.850000e+000 -1.620000e+001
      vertex -2.154541e+001  8.454595e+000 -1.920000e+001
      vertex -2.154541e+001  8.454595e+000 -1.620000e+001
    endloop
  endfacet
  facet normal -9.238793e-001 -3.826840e-001  -0.000000e+000
    outer loop
      vertex -2.154541e+001  8.454595e+000 -1.620000e+001
      vertex -2.154541e+001  8.454595e+000 -1.920000e+001
      vertex -2.115000e+001  7.500000e+000 -1.920000e+001
    endloop
  endfacet
  facet normal -9.238793e-001 -3.826840e-001  0.000000e+000
    outer loop
      vertex -2.154541e+001  8.454595e+000 -1.620000e+001
      vertex -2.115000e+001  7.500000e+000 -1.920000e+001
      vertex -2.115000e+001  7.500000e+000 -1.620000e+001
    endloop
  endfacet
  facet normal -3.826835e-001 -9.238795e-001  -0.000000e+000
    outer loop
      vertex -2.154541e+001  8.454595e+000 -1.920000e+001
      vertex -2.250000e+001  8.850000e+000 -1.620000e+001
      vertex -2.250000e+001  8.850000e+000 -1.920000e+001
    endloop
  endfacet
  facet normal  3.826835e-001 -9.238795e-001  0.000000e+000
    outer loop
      vertex -2.250000e+001  8.850000e+000 -1.920000e+001
      vertex -2.250000e+001  8.850000e+000 -1.620000e+001
      vertex -2.345459e+001  8.454595e+000 -1.620000e+001
    endloop
  endfacet
  facet normal  3.826835e-001 -9.238795e-001  0.000000e+000
    outer loop
      vertex -2.250000e+001  8.850000e+000 -1.920000e+001
      vertex -2.345459e+001  8.454595e+000 -1.620000e+001
      vertex -2.345459e+001  8.454595e+000 -1.920000e+001
    endloop
  endfacet
  facet normal  9.238793e-001 -3.826840e-001  0.000000e+000
    outer loop
      vertex -2.345459e+001  8.454595e+000 -1.920000e+001
      vertex -2.345459e+001  8.454595e+000 -1.620000e+001
      vertex -2.385000e+001  7.500000e+000 -1.620000e+001
    endloop
  endfacet
  facet normal  9.238793e-001 -3.826840e-001  0.000000e+000
    outer loop
      vertex -2.345459e+001  8.454595e+000 -1.920000e+001
      vertex -2.385000e+001  7.500000e+000 -1.620000e+001
      vertex -2.385000e+001  7.500000e+000 -1.920000e+001
    endloop
  endfacet
  facet normal  0.000000e+000  -0.000000e+000  1.000000e+000
    outer loop
      vertex -2.000000e+001  1.500000e+001  3.000000e+000
      vertex -9.684346e+000  9.087020e+000  3.000000e+000
      vertex -8.334346e+000  1.006785e+001  3.000000e+000
    endloop
  endfacet
  facet normal  -0.000000e+000  0.000000e+000  1.000000e+000
    outer loop
      vertex  2.842171e-014  1.500000e+001  3.000000e+000
      vertex -2.000000e+001  1.500000e+001  3.000000e+000
      vertex -8.334346e+000  1.006785e+001  3.000000e+000
    endloop
  endfacet
  facet normal  0.000000e+000  0.000000e+000  1.000000e+000
    outer loop
      vertex  2.842171e-014  1.500000e+001  3.000000e+000
      vertex -8.334346e+000  1.006785e+001  3.000000e+000
      vertex -6.665654e+000  1.006785e+001  3.000000e+000
    endloop
  endfacet
  facet normal  -0.000000e+000  0.000000e+000  1.000000e+000
    outer loop
      vertex  2.842171e-014  1.500000e+001  3.000000e+000
      vertex -6.665654e+000  1.006785e+001  3.000000e+000
      vertex -5.315654e+000  9.087020e+000  3.000000e+000
    endloop
  endfacet
  facet normal  -0.000000e+000  0.000000e+000  1.000000e+000
    outer loop
      vertex  2.842171e-014  1.500000e+001  3.000000e+000
      vertex -5.315654e+000  9.087020e+000  3.000000e+000
      vertex  0.000000e+000  0.000000e+000  3.000000e+000
    endloop
  endfacet
  facet normal  0.000000e+000  0.000000e+000  1.000000e+000
    outer loop
      vertex -2.000000e+001  2.131628e-014  3.000000e+000
      vertex  0.000000e+000  0.000000e+000  3.000000e+000
      vertex -6.665654e+000  4.932148e+000  3.000000e+000
    endloop
  endfacet
  facet normal  0.000000e+000  0.000000e+000  1.000000e+000
    outer loop
      vertex -2.000000e+001  2.131628e-014  3.000000e+000
      vertex -6.665654e+000  4.932148e+000  3.000000e+000
      vertex -8.334346e+000  4.932148e+000  3.000000e+000
    endloop
  endfacet
  facet normal  0.000000e+000  0.000000e+000  1.000000e+000
    outer loop
      vertex -2.000000e+001  2.131628e-014  3.000000e+000
      vertex -8.334346e+000  4.932148e+000  3.000000e+000
      vertex -9.684346e+000  5.912980e+000  3.000000e+000
    endloop
  endfacet
  facet normal  0.000000e+000  0.000000e+000  1.000000e+000
    outer loop
      vertex -2.000000e+001  2.131628e-014  3.000000e+000
      vertex -9.684346e+000  5.912980e+000  3.000000e+000
      vertex -1.020000e+001  7.500000e+000  3.000000e+000
    endloop
  endfacet
  facet normal  0.000000e+000  -0.000000e+000  1.000000e+000
    outer loop
      vertex -2.000000e+001  2.131628e-014  3.000000e+000
      vertex -1.020000e+001  7.500000e+000  3.000000e+000
      vertex -9.684346e+000  9.087020e+000  3.000000e+000
    endloop
  endfacet
  facet normal  0.000000e+000  0.000000e+000  1.000000e+000
    outer loop
      vertex -2.000000e+001  2.131628e-014  3.000000e+000
      vertex -9.684346e+000  9.087020e+000  3.000000e+000
      vertex -2.000000e+001  1.500000e+001  3.000000e+000
    endloop
  endfacet
  facet normal  0.000000e+000  0.000000e+000  1.000000e+000
    outer loop
      vertex  0.000000e+000  0.000000e+000  3.000000e+000
      vertex -5.315654e+000  9.087020e+000  3.000000e+000
      vertex -4.800000e+000  7.500000e+000  3.000000e+000
    endloop
  endfacet
  facet normal  0.000000e+000  0.000000e+000  9.999999e-001
    outer loop
      vertex  0.000000e+000  0.000000e+000  3.000000e+000
      vertex -4.800000e+000  7.500000e+000  3.000000e+000
      vertex -5.315654e+000  5.912980e+000  3.000000e+000
    endloop
  endfacet
  facet normal  0.000000e+000  0.000000e+000  1.000000e+000
    outer loop
      vertex  0.000000e+000  0.000000e+000  3.000000e+000
      vertex -5.315654e+000  5.912980e+000  3.000000e+000
      vertex -6.665654e+000  4.932148e+000  3.000000e+000
    endloop
  endfacet
  facet normal  0.000000e+000  0.000000e+000 -1.000000e+000
    outer loop
      vertex -5.315654e+000  9.087020e+000  0.000000e+000
      vertex -6.665654e+000  1.006785e+001  0.000000e+000
      vertex  2.842171e-014  1.500000e+001  0.000000e+000
    endloop
  endfacet
  facet normal  -0.000000e+000  0.000000e+000 -1.000000e+000
    outer loop
      vertex -1.520000e+001  1.500000e+001  0.000000e+000
      vertex  2.842171e-014  1.500000e+001  0.000000e+000
      vertex -6.665654e+000  1.006785e+001  0.000000e+000
    endloop
  endfacet
  facet normal  0.000000e+000  0.000000e+000 -1.000000e+000
    outer loop
      vertex -1.520000e+001  1.500000e+001  0.000000e+000
      vertex -6.665654e+000  1.006785e+001  0.000000e+000
      vertex -8.334346e+000  1.006785e+001  0.000000e+000
    endloop
  endfacet
  facet normal  -0.000000e+000  0.000000e+000 -1.000000e+000
    outer loop
      vertex -1.520000e+001  1.500000e+001  0.000000e+000
      vertex -8.334346e+000  1.006785e+001  0.000000e+000
      vertex -9.684346e+000  9.087020e+000  0.000000e+000
    endloop
  endfacet
  facet normal  -0.000000e+000  0.000000e+000 -1.000000e+000
    outer loop
      vertex -1.520000e+001  1.500000e+001  0.000000e+000
      vertex -9.684346e+000  9.087020e+000  0.000000e+000
      vertex -1.520000e+001  0.000000e+000  0.000000e+000
    endloop
  endfacet
  facet normal  0.000000e+000  0.000000e+000 -1.000000e+000
    outer loop
      vertex -1.520000e+001  0.000000e+000  0.000000e+000
      vertex -9.684346e+000  9.087020e+000  0.000000e+000
      vertex -1.020000e+001  7.500000e+000  0.000000e+000
    endloop
  endfacet
  facet normal  0.000000e+000  -0.000000e+000 -1.000000e+000
    outer loop
      vertex -1.520000e+001  0.000000e+000  0.000000e+000
      vertex -1.020000e+001  7.500000e+000  0.000000e+000
      vertex -9.684346e+000  5.912980e+000  0.000000e+000
    endloop
  endfacet
  facet normal  0.000000e+000  -0.000000e+000 -1.000000e+000
    outer loop
      vertex -1.520000e+001  0.000000e+000  0.000000e+000
      vertex -9.684346e+000  5.912980e+000  0.000000e+000
      vertex -8.334346e+000  4.932148e+000  0.000000e+000
    endloop
  endfacet
  facet normal  0.000000e+000  -0.000000e+000 -1.000000e+000
    outer loop
      vertex -1.520000e+001  0.000000e+000  0.000000e+000
      vertex -8.334346e+000  4.932148e+000  0.000000e+000
      vertex -6.665654e+000  4.932148e+000  0.000000e+000
    endloop
  endfacet
  facet normal  0.000000e+000  -0.000000e+000 -1.000000e+000
    outer loop
      vertex -1.520000e+001  0.000000e+000  0.000000e+000
      vertex -6.665654e+000  4.932148e+000  0.000000e+000
      vertex  0.000000e+000  0.000000e+000  0.000000e+000
    endloop
  endfacet
  facet normal  0.000000e+000  0.000000e+000 -1.000000e+000
    outer loop
      vertex  0.000000e+000  0.000000e+000  0.000000e+000
      vertex -6.665654e+000  4.932148e+000  0.000000e+000
      vertex -5.315654e+000  5.912980e+000  0.000000e+000
    endloop
  endfacet
  facet normal  0.000000e+000  0.000000e+000 -9.999999e-001
    outer loop
      vertex  0.000000e+000  0.000000e+000  0.000000e+000
      vertex -5.315654e+000  5.912980e+000  0.000000e+000
      vertex -4.800000e+000  7.500000e+000  0.000000e+000
    endloop
  endfacet
  facet normal  0.000000e+000  0.000000e+000 -1.000000e+000
    outer loop
      vertex  0.000000e+000  0.000000e+000  0.000000e+000
      vertex -4.800000e+000  7.500000e+000  0.000000e+000
      vertex -5.315654e+000  9.087020e+000  0.000000e+000
    endloop
  endfacet
  facet normal  0.000000e+000  0.000000e+000 -1.000000e+000
    outer loop
      vertex  0.000000e+000  0.000000e+000  0.000000e+000
      vertex -5.315654e+000  9.087020e+000  0.000000e+000
      vertex  2.842171e-014  1.500000e+001  0.000000e+000
    endloop
  endfacet
  facet normal  5.877854e-001 -8.090169e-001  0.000000e+000
    outer loop
      vertex -8.334346e+000  1.006785e+001  0.000000e+000
      vertex -9.684346e+000  9.087020e+000  3.000000e+000
      vertex -9.684346e+000  9.087020e+000  0.000000e+000
    endloop
  endfacet
  facet normal  9.510566e-001 -3.090168e-001  0.000000e+000
    outer loop
      vertex -9.684346e+000  9.087020e+000  0.000000e+000
      vertex -9.684346e+000  9.087020e+000  3.000000e+000
      vertex -1.020000e+001  7.500000e+000  3.000000e+000
    endloop
  endfacet
  facet normal  9.510566e-001 -3.090168e-001  0.000000e+000
    outer loop
      vertex -9.684346e+000  9.087020e+000  0.000000e+000
      vertex -1.020000e+001  7.500000e+000  3.000000e+000
      vertex -1.020000e+001  7.500000e+000  0.000000e+000
    endloop
  endfacet
  facet normal  5.877854e-001 -8.090169e-001  0.000000e+000
    outer loop
      vertex -9.684346e+000  9.087020e+000  3.000000e+000
      vertex -8.334346e+000  1.006785e+001  0.000000e+000
      vertex -8.334346e+000  1.006785e+001  3.000000e+000
    endloop
  endfacet
  facet normal  0.000000e+000 -1.000000e+000  0.000000e+000
    outer loop
      vertex -8.334346e+000  1.006785e+001  3.000000e+000
      vertex -8.334346e+000  1.006785e+001  0.000000e+000
      vertex -6.665654e+000  1.006785e+001  0.000000e+000
    endloop
  endfacet
  facet normal  0.000000e+000 -1.000000e+000  0.000000e+000
    outer loop
      vertex -8.334346e+000  1.006785e+001  3.000000e+000
      vertex -6.665654e+000  1.006785e+001  0.000000e+000
      vertex -6.665654e+000  1.006785e+001  3.000000e+000
    endloop
  endfacet
  facet normal -5.877855e-001 -8.090168e-001  -0.000000e+000
    outer loop
      vertex -6.665654e+000  1.006785e+001  3.000000e+000
      vertex -6.665654e+000  1.006785e+001  0.000000e+000
      vertex -5.315654e+000  9.087020e+000  0.000000e+000
    endloop
  endfacet
  facet normal -5.877855e-001 -8.090168e-001  0.000000e+000
    outer loop
      vertex -6.665654e+000  1.006785e+001  3.000000e+000
      vertex -5.315654e+000  9.087020e+000  0.000000e+000
      vertex -5.315654e+000  9.087020e+000  3.000000e+000
    endloop
  endfacet
  facet normal -9.510565e-001 -3.090170e-001  -0.000000e+000
    outer loop
      vertex -5.315654e+000  9.087020e+000  3.000000e+000
      vertex -5.315654e+000  9.087020e+000  0.000000e+000
      vertex -4.800000e+000  7.500000e+000  0.000000e+000
    endloop
  endfacet
  facet normal -9.510565e-001 -3.090170e-001  0.000000e+000
    outer loop
      vertex -5.315654e+000  9.087020e+000  3.000000e+000
      vertex -4.800000e+000  7.500000e+000  0.000000e+000
      vertex -4.800000e+000  7.500000e+000  3.000000e+000
    endloop
  endfacet
  facet normal -5.877852e-001  8.090171e-001  0.000000e+000
    outer loop
      vertex -6.665654e+000  4.932148e+000  0.000000e+000
      vertex -5.315654e+000  5.912980e+000  3.000000e+000
      vertex -5.315654e+000  5.912980e+000  0.000000e+000
    endloop
  endfacet
  facet normal -9.510565e-001  3.090169e-001  0.000000e+000
    outer loop
      vertex -5.315654e+000  5.912980e+000  0.000000e+000
      vertex -5.315654e+000  5.912980e+000  3.000000e+000
      vertex -4.800000e+000  7.500000e+000  3.000000e+000
    endloop
  endfacet
  facet normal -9.510565e-001  3.090169e-001  0.000000e+000
    outer loop
      vertex -5.315654e+000  5.912980e+000  0.000000e+000
      vertex -4.800000e+000  7.500000e+000  3.000000e+000
      vertex -4.800000e+000  7.500000e+000  0.000000e+000
    endloop
  endfacet
  facet normal -5.877852e-001  8.090171e-001  0.000000e+000
    outer loop
      vertex -5.315654e+000  5.912980e+000  3.000000e+000
      vertex -6.665654e+000  4.932148e+000  0.000000e+000
      vertex -6.665654e+000  4.932148e+000  3.000000e+000
    endloop
  endfacet
  facet normal  0.000000e+000  1.000000e+000  0.000000e+000
    outer loop
      vertex -6.665654e+000  4.932148e+000  3.000000e+000
      vertex -6.665654e+000  4.932148e+000  0.000000e+000
      vertex -8.334346e+000  4.932148e+000  0.000000e+000
    endloop
  endfacet
  facet normal  0.000000e+000  1.000000e+000  0.000000e+000
    outer loop
      vertex -6.665654e+000  4.932148e+000  3.000000e+000
      vertex -8.334346e+000  4.932148e+000  0.000000e+000
      vertex -8.334346e+000  4.932148e+000  3.000000e+000
    endloop
  endfacet
  facet normal  5.877851e-001  8.090172e-001  0.000000e+000
    outer loop
      vertex -8.334346e+000  4.932148e+000  3.000000e+000
      vertex -8.334346e+000  4.932148e+000  0.000000e+000
      vertex -9.684346e+000  5.912980e+000  0.000000e+000
    endloop
  endfacet
  facet normal  5.877851e-001  8.090172e-001  -0.000000e+000
    outer loop
      vertex -8.334346e+000  4.932148e+000  3.000000e+000
      vertex -9.684346e+000  5.912980e+000  0.000000e+000
      vertex -9.684346e+000  5.912980e+000  3.000000e+000
    endloop
  endfacet
  facet normal  9.510566e-001  3.090167e-001  0.000000e+000
    outer loop
      vertex -9.684346e+000  5.912980e+000  3.000000e+000
      vertex -9.684346e+000  5.912980e+000  0.000000e+000
      vertex -1.020000e+001  7.500000e+000  0.000000e+000
    endloop
  endfacet
  facet normal  9.510566e-001  3.090167e-001  -0.000000e+000
    outer loop
      vertex -9.684346e+000  5.912980e+000  3.000000e+000
      vertex -1.020000e+001  7.500000e+000  0.000000e+000
      vertex -1.020000e+001  7.500000e+000  3.000000e+000
    endloop
  endfacet
  facet normal  1.000000e+000 -1.894781e-015  0.000000e+000
    outer loop
      vertex  2.842171e-014  1.500000e+001  3.000000e+000
      vertex  0.000000e+000  0.000000e+000  3.000000e+000
      vertex  2.842171e-014  1.500000e+001  0.000000e+000
    endloop
  endfacet
  facet normal  1.000000e+000 -1.894781e-015  0.000000e+000
    outer loop
      vertex  2.842171e-014  1.500000e+001  0.000000e+000
      vertex  0.000000e+000  0.000000e+000  3.000000e+000
      vertex  0.000000e+000  0.000000e+000  0.000000e+000
    endloop
  endfacet
endsolid CATIA STL
