solid CATIA STL
  facet normal  4.044656e-001  3.258048e-001 -8.545517e-001
    outer loop
      vertex  4.794255e-001  8.775826e-001  3.000000e+001
      vertex  1.760525e+000  1.262171e+000  3.075298e+001
      vertex  9.595496e-001  2.815395e-001  3.000000e+001
    endloop
  endfacet
  facet normal -5.562158e-002 -5.163792e-001 -8.545517e-001
    outer loop
      vertex -4.794255e-001 -8.775826e-001  3.000000e+001
      vertex  2.815395e-001 -9.595496e-001  3.000000e+001
      vertex -1.108645e-001 -2.163384e+000  3.075298e+001
    endloop
  endfacet
  facet normal  7.887374e-001  5.889676e-001 -1.760978e-001
    outer loop
      vertex  2.828423e+000  1.000000e+000  3.282357e+001
      vertex  2.827486e+000  8.381892e-001  3.227819e+001
      vertex  2.403036e+000  1.722806e+000  3.333573e+001
    endloop
  endfacet
  facet normal  8.933991e-001  4.271579e-001  1.391910e-001
    outer loop
      vertex  2.828423e+000  1.000000e+000  3.282357e+001
      vertex  2.403036e+000  1.722806e+000  3.333573e+001
      vertex  2.829443e+000  8.041850e-001  3.341795e+001
    endloop
  endfacet
  facet normal  8.556748e-001  2.991734e-001  4.222748e-001
    outer loop
      vertex  2.375784e+000  4.156466e-001  3.461249e+001
      vertex  2.830065e+000  2.909429e-001  3.378031e+001
      vertex  2.829443e+000  8.041850e-001  3.341795e+001
    endloop
  endfacet
  facet normal  8.324628e-001  3.496049e-001  4.298629e-001
    outer loop
      vertex  2.375784e+000  4.156466e-001  3.461249e+001
      vertex  2.829443e+000  8.041850e-001  3.341795e+001
      vertex  1.960166e+000  1.405299e+000  3.461249e+001
    endloop
  endfacet
  facet normal  9.995608e-001  1.756771e-002 -2.386486e-002
    outer loop
      vertex  2.827486e+000  8.381892e-001  3.227819e+001
      vertex  2.826808e+000  3.402858e-001  3.188325e+001
      vertex  2.825702e+000  4.943602e-001  3.195035e+001
    endloop
  endfacet
  facet normal  8.065059e-001 -4.405963e-001  3.942374e-001
    outer loop
      vertex  2.320850e+000 -6.563296e-001  3.461249e+001
      vertex  1.806243e+000 -1.598312e+000  3.461249e+001
      vertex  2.829360e+000 -8.381395e-001  3.336903e+001
    endloop
  endfacet
  facet normal  9.545764e-001 -1.710854e-001 -2.439544e-001
    outer loop
      vertex  2.827402e+000 -8.041860e-001  3.222919e+001
      vertex  2.760364e+000 -7.806229e-001  3.195035e+001
      vertex  2.826780e+000 -2.909759e-001  3.186684e+001
    endloop
  endfacet
  facet normal  5.247666e-001 -5.652503e-002 -8.493673e-001
    outer loop
      vertex  2.084474e+000 -5.894832e-001  3.075298e+001
      vertex  8.775826e-001 -4.794255e-001  3.000000e+001
      vertex  9.595496e-001  2.815395e-001  3.000000e+001
    endloop
  endfacet
  facet normal  5.411193e-001 -2.773010e-002 -8.404885e-001
    outer loop
      vertex  2.133814e+000  3.733135e-001  3.075298e+001
      vertex  2.084474e+000 -5.894832e-001  3.075298e+001
      vertex  9.595496e-001  2.815395e-001  3.000000e+001
    endloop
  endfacet
  facet normal  5.149828e-001  2.162745e-001 -8.294685e-001
    outer loop
      vertex  2.133814e+000  3.733135e-001  3.075298e+001
      vertex  9.595496e-001  2.815395e-001  3.000000e+001
      vertex  1.760525e+000  1.262171e+000  3.075298e+001
    endloop
  endfacet
  facet normal  3.420337e-001 -4.246127e-001 -8.382821e-001
    outer loop
      vertex  8.387719e-001 -1.997244e+000  3.075298e+001
      vertex  2.815395e-001 -9.595496e-001  3.000000e+001
      vertex  8.775826e-001 -4.794255e-001  3.000000e+001
    endloop
  endfacet
  facet normal  4.920789e-001 -2.688239e-001 -8.280049e-001
    outer loop
      vertex  1.622279e+000 -1.435526e+000  3.075298e+001
      vertex  8.775826e-001 -4.794255e-001  3.000000e+001
      vertex  2.084474e+000 -5.894832e-001  3.075298e+001
    endloop
  endfacet
  facet normal  8.527442e-001  3.581225e-001 -3.802309e-001
    outer loop
      vertex  2.827486e+000  8.381892e-001  3.227819e+001
      vertex  2.825702e+000  4.943602e-001  3.195035e+001
      vertex  2.331374e+000  1.671429e+000  3.195035e+001
    endloop
  endfacet
  facet normal  8.682432e-001  4.921020e-001 -6.316111e-002
    outer loop
      vertex  2.331374e+000  1.671429e+000  3.195035e+001
      vertex  2.403036e+000  1.722806e+000  3.333573e+001
      vertex  2.827486e+000  8.381892e-001  3.227819e+001
    endloop
  endfacet
  facet normal  8.219644e-001  4.163260e-001  3.886479e-001
    outer loop
      vertex  1.960166e+000  1.405299e+000  3.461249e+001
      vertex  2.829443e+000  8.041850e-001  3.341795e+001
      vertex  2.403036e+000  1.722806e+000  3.333573e+001
    endloop
  endfacet
  facet normal  8.662754e-001 -4.793289e-001  1.407504e-001
    outer loop
      vertex  2.828423e+000 -1.000000e+000  3.282357e+001
      vertex  2.829360e+000 -8.381395e-001  3.336903e+001
      vertex  2.214337e+000 -1.959427e+000  3.333573e+001
    endloop
  endfacet
  facet normal  8.042876e-001 -4.525837e-001  3.850838e-001
    outer loop
      vertex  2.829360e+000 -8.381395e-001  3.336903e+001
      vertex  1.806243e+000 -1.598312e+000  3.461249e+001
      vertex  2.214337e+000 -1.959427e+000  3.333573e+001
    endloop
  endfacet
  facet normal -6.448890e-002 -2.280395e-001  9.715138e-001
    outer loop
      vertex  8.806613e-017  4.612163e-016  3.582843e+001
      vertex -6.474736e-001 -1.185192e+000  3.550725e+001
      vertex -6.911781e-002 -1.348750e+000  3.550725e+001
    endloop
  endfacet
  facet normal  4.084016e-002 -2.334372e-001  9.715139e-001
    outer loop
      vertex  8.806613e-017  4.612163e-016  3.582843e+001
      vertex -6.911781e-002 -1.348750e+000  3.550725e+001
      vertex  5.229276e-001 -1.245171e+000  3.550725e+001
    endloop
  endfacet
  facet normal  1.380803e-001 -1.925998e-001  9.715139e-001
    outer loop
      vertex  8.806613e-017  4.612163e-016  3.582843e+001
      vertex  5.229276e-001 -1.245171e+000  3.550725e+001
      vertex  1.011401e+000 -8.949702e-001  3.550725e+001
    endloop
  endfacet
  facet normal  2.079720e-001 -1.136156e-001  9.715138e-001
    outer loop
      vertex  8.806613e-017  4.612163e-016  3.582843e+001
      vertex  1.011401e+000 -8.949702e-001  3.550725e+001
      vertex  1.299554e+000 -3.675099e-001  3.550725e+001
    endloop
  endfacet
  facet normal  2.366722e-001 -1.212845e-002  9.715138e-001
    outer loop
      vertex  8.806613e-017  4.612163e-016  3.582843e+001
      vertex  1.299554e+000 -3.675099e-001  3.550725e+001
      vertex  1.330314e+000  2.327402e-001  3.550725e+001
    endloop
  endfacet
  facet normal  2.184967e-001  9.176086e-002  9.715138e-001
    outer loop
      vertex  8.806613e-017  4.612163e-016  3.582843e+001
      vertex  1.330314e+000  2.327402e-001  3.550725e+001
      vertex  1.097589e+000  7.868932e-001  3.550725e+001
    endloop
  endfacet
  facet normal  1.570451e-001  1.774758e-001  9.715138e-001
    outer loop
      vertex  8.806613e-017  4.612163e-016  3.582843e+001
      vertex  1.097589e+000  7.868932e-001  3.550725e+001
      vertex  6.474736e-001  1.185192e+000  3.550725e+001
    endloop
  endfacet
  facet normal -1.779939e-001 -6.294053e-001  7.564173e-001
    outer loop
      vertex -6.911781e-002 -1.348750e+000  3.550725e+001
      vertex -6.474736e-001 -1.185192e+000  3.550725e+001
      vertex -1.234363e-001 -2.408709e+000  3.461249e+001
    endloop
  endfacet
  facet normal -1.779940e-001 -6.294053e-001  7.564173e-001
    outer loop
      vertex -1.234363e-001 -2.408709e+000  3.461249e+001
      vertex -6.474736e-001 -1.185192e+000  3.550725e+001
      vertex -1.156312e+000 -2.116614e+000  3.461249e+001
    endloop
  endfacet
  facet normal -2.512425e-001 -8.884194e-001  3.841721e-001
    outer loop
      vertex -1.234363e-001 -2.408709e+000  3.461249e+001
      vertex -1.156312e+000 -2.116614e+000  3.461249e+001
      vertex -1.513249e-001 -2.952921e+000  3.333573e+001
    endloop
  endfacet
  facet normal -2.512424e-001 -8.884194e-001  3.841721e-001
    outer loop
      vertex -1.513249e-001 -2.952921e+000  3.333573e+001
      vertex -1.156312e+000 -2.116614e+000  3.461249e+001
      vertex -1.417563e+000 -2.594832e+000  3.333573e+001
    endloop
  endfacet
  facet normal -2.716025e-001 -9.604148e-001 -6.193225e-002
    outer loop
      vertex -1.513249e-001 -2.952921e+000  3.333573e+001
      vertex -1.417563e+000 -2.594832e+000  3.333573e+001
      vertex -1.468122e-001 -2.864861e+000  3.195035e+001
    endloop
  endfacet
  facet normal -2.716024e-001 -9.604148e-001 -6.193214e-002
    outer loop
      vertex -1.468122e-001 -2.864861e+000  3.195035e+001
      vertex -1.417563e+000 -2.594832e+000  3.333573e+001
      vertex -1.375290e+000 -2.517451e+000  3.195035e+001
    endloop
  endfacet
  facet normal -2.362216e-001 -8.353046e-001 -4.964530e-001
    outer loop
      vertex -1.468122e-001 -2.864861e+000  3.195035e+001
      vertex -1.375290e+000 -2.517451e+000  3.195035e+001
      vertex -1.108645e-001 -2.163384e+000  3.075298e+001
    endloop
  endfacet
  facet normal -2.362216e-001 -8.353046e-001 -4.964530e-001
    outer loop
      vertex -1.108645e-001 -2.163384e+000  3.075298e+001
      vertex -1.375290e+000 -2.517451e+000  3.195035e+001
      vertex -1.038543e+000 -1.901040e+000  3.075298e+001
    endloop
  endfacet
  facet normal -1.502551e-001 -5.313180e-001 -8.337413e-001
    outer loop
      vertex -1.108645e-001 -2.163384e+000  3.075298e+001
      vertex -1.038543e+000 -1.901040e+000  3.075298e+001
      vertex -4.794255e-001 -8.775826e-001  3.000000e+001
    endloop
  endfacet
  facet normal  4.334558e-001  4.898459e-001  7.564173e-001
    outer loop
      vertex  6.474736e-001  1.185192e+000  3.550725e+001
      vertex  1.097589e+000  7.868932e-001  3.550725e+001
      vertex  1.156312e+000  2.116614e+000  3.461249e+001
    endloop
  endfacet
  facet normal  4.334557e-001  4.898459e-001  7.564173e-001
    outer loop
      vertex  1.156312e+000  2.116614e+000  3.461249e+001
      vertex  1.097589e+000  7.868932e-001  3.550725e+001
      vertex  1.960166e+000  1.405299e+000  3.461249e+001
    endloop
  endfacet
  facet normal  6.118323e-001  6.914283e-001  3.841721e-001
    outer loop
      vertex  1.156312e+000  2.116614e+000  3.461249e+001
      vertex  1.960166e+000  1.405299e+000  3.461249e+001
      vertex  1.417563e+000  2.594832e+000  3.333573e+001
    endloop
  endfacet
  facet normal  6.118323e-001  6.914282e-001  3.841721e-001
    outer loop
      vertex  1.417563e+000  2.594832e+000  3.333573e+001
      vertex  1.960166e+000  1.405299e+000  3.461249e+001
      vertex  2.403036e+000  1.722806e+000  3.333573e+001
    endloop
  endfacet
  facet normal  6.614137e-001  7.474598e-001 -6.193211e-002
    outer loop
      vertex  1.417563e+000  2.594832e+000  3.333573e+001
      vertex  2.403036e+000  1.722806e+000  3.333573e+001
      vertex  1.375290e+000  2.517451e+000  3.195035e+001
    endloop
  endfacet
  facet normal  6.614138e-001  7.474599e-001 -6.193227e-002
    outer loop
      vertex  1.375290e+000  2.517451e+000  3.195035e+001
      vertex  2.403036e+000  1.722806e+000  3.333573e+001
      vertex  2.331374e+000  1.671429e+000  3.195035e+001
    endloop
  endfacet
  facet normal  5.752535e-001  6.500906e-001 -4.964530e-001
    outer loop
      vertex  1.375290e+000  2.517451e+000  3.195035e+001
      vertex  2.331374e+000  1.671429e+000  3.195035e+001
      vertex  1.038543e+000  1.901040e+000  3.075298e+001
    endloop
  endfacet
  facet normal  5.752535e-001  6.500908e-001 -4.964530e-001
    outer loop
      vertex  1.038543e+000  1.901040e+000  3.075298e+001
      vertex  2.331374e+000  1.671429e+000  3.195035e+001
      vertex  1.760525e+000  1.262171e+000  3.075298e+001
    endloop
  endfacet
  facet normal  3.659054e-001  4.135077e-001 -8.337413e-001
    outer loop
      vertex  1.038543e+000  1.901040e+000  3.075298e+001
      vertex  1.760525e+000  1.262171e+000  3.075298e+001
      vertex  4.794255e-001  8.775826e-001  3.000000e+001
    endloop
  endfacet
  facet normal  8.003492e-001  3.361183e-001 -4.964530e-001
    outer loop
      vertex  1.760525e+000  1.262171e+000  3.075298e+001
      vertex  2.331374e+000  1.671429e+000  3.195035e+001
      vertex  2.133814e+000  3.733135e-001  3.075298e+001
    endloop
  endfacet
  facet normal  8.003491e-001  3.361185e-001 -4.964531e-001
    outer loop
      vertex  2.133814e+000  3.733135e-001  3.075298e+001
      vertex  2.331374e+000  1.671429e+000  3.195035e+001
      vertex  2.825702e+000  4.943602e-001  3.195035e+001
    endloop
  endfacet
  facet normal  8.669260e-001 -4.442632e-002 -4.964531e-001
    outer loop
      vertex  2.133814e+000  3.733135e-001  3.075298e+001
      vertex  2.825702e+000  4.943602e-001  3.195035e+001
      vertex  2.084474e+000 -5.894832e-001  3.075298e+001
    endloop
  endfacet
  facet normal  6.629705e-001  3.029313e-001 -6.846187e-001
    outer loop
      vertex  2.084474e+000 -5.894832e-001  3.075298e+001
      vertex  2.825702e+000  4.943602e-001  3.195035e+001
      vertex  2.826808e+000  3.402858e-001  3.188325e+001
    endloop
  endfacet
  facet normal  8.302650e-001  1.444461e-002 -5.571817e-001
    outer loop
      vertex  2.084474e+000 -5.894832e-001  3.075298e+001
      vertex  2.826808e+000  3.402858e-001  3.188325e+001
      vertex  2.826780e+000 -2.909759e-001  3.186684e+001
    endloop
  endfacet
  facet normal  6.030663e-001  2.532665e-001  7.564173e-001
    outer loop
      vertex  1.960166e+000  1.405299e+000  3.461249e+001
      vertex  1.097589e+000  7.868932e-001  3.550725e+001
      vertex  2.375784e+000  4.156466e-001  3.461249e+001
    endloop
  endfacet
  facet normal  6.030663e-001  2.532665e-001  7.564173e-001
    outer loop
      vertex  2.375784e+000  4.156466e-001  3.461249e+001
      vertex  1.097589e+000  7.868932e-001  3.550725e+001
      vertex  1.330314e+000  2.327402e-001  3.550725e+001
    endloop
  endfacet
  facet normal  6.532322e-001 -3.347540e-002  7.564173e-001
    outer loop
      vertex  2.375784e+000  4.156466e-001  3.461249e+001
      vertex  1.330314e+000  2.327402e-001  3.550725e+001
      vertex  2.320850e+000 -6.563296e-001  3.461249e+001
    endloop
  endfacet
  facet normal  6.532322e-001 -3.347540e-002  7.564173e-001
    outer loop
      vertex  2.320850e+000 -6.563296e-001  3.461249e+001
      vertex  1.330314e+000  2.327402e-001  3.550725e+001
      vertex  1.299554e+000 -3.675099e-001  3.550725e+001
    endloop
  endfacet
  facet normal  5.740174e-001 -3.135872e-001  7.564173e-001
    outer loop
      vertex  2.320850e+000 -6.563296e-001  3.461249e+001
      vertex  1.299554e+000 -3.675099e-001  3.550725e+001
      vertex  1.806243e+000 -1.598312e+000  3.461249e+001
    endloop
  endfacet
  facet normal  5.740175e-001 -3.135871e-001  7.564173e-001
    outer loop
      vertex  1.806243e+000 -1.598312e+000  3.461249e+001
      vertex  1.299554e+000 -3.675099e-001  3.550725e+001
      vertex  1.011401e+000 -8.949702e-001  3.550725e+001
    endloop
  endfacet
  facet normal  8.768731e-001 -1.254402e-002  4.805582e-001
    outer loop
      vertex  2.830065e+000  2.909429e-001  3.378031e+001
      vertex  2.375784e+000  4.156466e-001  3.461249e+001
      vertex  2.830037e+000 -3.403028e-001  3.376389e+001
    endloop
  endfacet
  facet normal  8.638294e-001 -4.426762e-002  5.018358e-001
    outer loop
      vertex  2.830037e+000 -3.403028e-001  3.376389e+001
      vertex  2.375784e+000  4.156466e-001  3.461249e+001
      vertex  2.320850e+000 -6.563296e-001  3.461249e+001
    endloop
  endfacet
  facet normal  8.606789e-001 -3.171120e-001  3.983363e-001
    outer loop
      vertex  2.830037e+000 -3.403028e-001  3.376389e+001
      vertex  2.320850e+000 -6.563296e-001  3.461249e+001
      vertex  2.829360e+000 -8.381395e-001  3.336903e+001
    endloop
  endfacet
  facet normal  7.617975e-001 -4.161718e-001 -4.964530e-001
    outer loop
      vertex  2.148303e+000 -1.900994e+000  3.195035e+001
      vertex  1.622279e+000 -1.435526e+000  3.075298e+001
      vertex  2.760364e+000 -7.806229e-001  3.195035e+001
    endloop
  endfacet
  facet normal  7.617975e-001 -4.161719e-001 -4.964530e-001
    outer loop
      vertex  2.760364e+000 -7.806229e-001  3.195035e+001
      vertex  1.622279e+000 -1.435526e+000  3.075298e+001
      vertex  2.084474e+000 -5.894832e-001  3.075298e+001
    endloop
  endfacet
  facet normal  8.392151e-001 -2.000724e-001 -5.056571e-001
    outer loop
      vertex  2.760364e+000 -7.806229e-001  3.195035e+001
      vertex  2.084474e+000 -5.894832e-001  3.075298e+001
      vertex  2.826780e+000 -2.909759e-001  3.186684e+001
    endloop
  endfacet
  facet normal  7.734925e-001 -6.015836e-001 -1.995159e-001
    outer loop
      vertex  2.828423e+000 -1.000000e+000  3.282357e+001
      vertex  2.214337e+000 -1.959427e+000  3.333573e+001
      vertex  2.827402e+000 -8.041860e-001  3.222919e+001
    endloop
  endfacet
  facet normal  8.555917e-001 -5.138699e-001 -6.245576e-002
    outer loop
      vertex  2.827402e+000 -8.041860e-001  3.222919e+001
      vertex  2.214337e+000 -1.959427e+000  3.333573e+001
      vertex  2.148303e+000 -1.900994e+000  3.195035e+001
    endloop
  endfacet
  facet normal  8.510790e-001 -4.649466e-001 -2.439042e-001
    outer loop
      vertex  2.827402e+000 -8.041860e-001  3.222919e+001
      vertex  2.148303e+000 -1.900994e+000  3.195035e+001
      vertex  2.760364e+000 -7.806229e-001  3.195035e+001
    endloop
  endfacet
  facet normal  3.811114e-001 -5.315890e-001  7.564173e-001
    outer loop
      vertex  1.011401e+000 -8.949702e-001  3.550725e+001
      vertex  5.229276e-001 -1.245171e+000  3.550725e+001
      vertex  1.806243e+000 -1.598312e+000  3.461249e+001
    endloop
  endfacet
  facet normal  3.811114e-001 -5.315891e-001  7.564173e-001
    outer loop
      vertex  1.806243e+000 -1.598312e+000  3.461249e+001
      vertex  5.229276e-001 -1.245171e+000  3.550725e+001
      vertex  9.338872e-001 -2.223728e+000  3.461249e+001
    endloop
  endfacet
  facet normal  5.379472e-001 -7.503497e-001  3.841720e-001
    outer loop
      vertex  1.806243e+000 -1.598312e+000  3.461249e+001
      vertex  9.338872e-001 -2.223728e+000  3.461249e+001
      vertex  2.214337e+000 -1.959427e+000  3.333573e+001
    endloop
  endfacet
  facet normal  5.379472e-001 -7.503496e-001  3.841721e-001
    outer loop
      vertex  2.214337e+000 -1.959427e+000  3.333573e+001
      vertex  9.338872e-001 -2.223728e+000  3.461249e+001
      vertex  1.144885e+000 -2.726147e+000  3.333573e+001
    endloop
  endfacet
  facet normal  5.815411e-001 -8.111562e-001 -6.193210e-002
    outer loop
      vertex  2.214337e+000 -1.959427e+000  3.333573e+001
      vertex  1.144885e+000 -2.726147e+000  3.333573e+001
      vertex  2.148303e+000 -1.900994e+000  3.195035e+001
    endloop
  endfacet
  facet normal  5.815411e-001 -8.111562e-001 -6.193219e-002
    outer loop
      vertex  2.148303e+000 -1.900994e+000  3.195035e+001
      vertex  1.144885e+000 -2.726147e+000  3.333573e+001
      vertex  1.110743e+000 -2.644850e+000  3.195035e+001
    endloop
  endfacet
  facet normal  5.057855e-001 -7.054895e-001 -4.964530e-001
    outer loop
      vertex  2.148303e+000 -1.900994e+000  3.195035e+001
      vertex  1.110743e+000 -2.644850e+000  3.195035e+001
      vertex  1.622279e+000 -1.435526e+000  3.075298e+001
    endloop
  endfacet
  facet normal  5.057856e-001 -7.054895e-001 -4.964530e-001
    outer loop
      vertex  1.622279e+000 -1.435526e+000  3.075298e+001
      vertex  1.110743e+000 -2.644850e+000  3.195035e+001
      vertex  8.387719e-001 -1.997244e+000  3.075298e+001
    endloop
  endfacet
  facet normal  3.076745e-001 -4.291564e-001 -8.492121e-001
    outer loop
      vertex  1.622279e+000 -1.435526e+000  3.075298e+001
      vertex  8.387719e-001 -1.997244e+000  3.075298e+001
      vertex  8.775826e-001 -4.794255e-001  3.000000e+001
    endloop
  endfacet
  facet normal  1.127217e-001 -6.443032e-001  7.564173e-001
    outer loop
      vertex  5.229276e-001 -1.245171e+000  3.550725e+001
      vertex -6.911781e-002 -1.348750e+000  3.550725e+001
      vertex  9.338872e-001 -2.223728e+000  3.461249e+001
    endloop
  endfacet
  facet normal  1.127217e-001 -6.443033e-001  7.564173e-001
    outer loop
      vertex  9.338872e-001 -2.223728e+000  3.461249e+001
      vertex -6.911781e-002 -1.348750e+000  3.550725e+001
      vertex -1.234363e-001 -2.408709e+000  3.461249e+001
    endloop
  endfacet
  facet normal  1.591092e-001 -9.094482e-001  3.841721e-001
    outer loop
      vertex  9.338872e-001 -2.223728e+000  3.461249e+001
      vertex -1.234363e-001 -2.408709e+000  3.461249e+001
      vertex  1.144885e+000 -2.726147e+000  3.333573e+001
    endloop
  endfacet
  facet normal  1.591092e-001 -9.094481e-001  3.841721e-001
    outer loop
      vertex  1.144885e+000 -2.726147e+000  3.333573e+001
      vertex -1.234363e-001 -2.408709e+000  3.461249e+001
      vertex -1.513249e-001 -2.952921e+000  3.333573e+001
    endloop
  endfacet
  facet normal  1.720030e-001 -9.831477e-001 -6.193220e-002
    outer loop
      vertex  1.144885e+000 -2.726147e+000  3.333573e+001
      vertex -1.513249e-001 -2.952921e+000  3.333573e+001
      vertex  1.110743e+000 -2.644850e+000  3.195035e+001
    endloop
  endfacet
  facet normal  1.720030e-001 -9.831477e-001 -6.193225e-002
    outer loop
      vertex  1.110743e+000 -2.644850e+000  3.195035e+001
      vertex -1.513249e-001 -2.952921e+000  3.333573e+001
      vertex -1.468122e-001 -2.864861e+000  3.195035e+001
    endloop
  endfacet
  facet normal  1.495967e-001 -8.550762e-001 -4.964530e-001
    outer loop
      vertex  1.110743e+000 -2.644850e+000  3.195035e+001
      vertex -1.468122e-001 -2.864861e+000  3.195035e+001
      vertex  8.387719e-001 -1.997244e+000  3.075298e+001
    endloop
  endfacet
  facet normal  1.495966e-001 -8.550761e-001 -4.964530e-001
    outer loop
      vertex  8.387719e-001 -1.997244e+000  3.075298e+001
      vertex -1.468122e-001 -2.864861e+000  3.195035e+001
      vertex -1.108645e-001 -2.163384e+000  3.075298e+001
    endloop
  endfacet
  facet normal  9.625763e-002 -5.501968e-001 -8.294685e-001
    outer loop
      vertex  8.387719e-001 -1.997244e+000  3.075298e+001
      vertex -1.108645e-001 -2.163384e+000  3.075298e+001
      vertex  2.815395e-001 -9.595496e-001  3.000000e+001
    endloop
  endfacet
  facet normal -4.044656e-001 -3.258048e-001 -8.545517e-001
    outer loop
      vertex -4.794255e-001 -8.775826e-001  3.000000e+001
      vertex -1.760525e+000 -1.262171e+000  3.075298e+001
      vertex -9.595496e-001 -2.815395e-001  3.000000e+001
    endloop
  endfacet
  facet normal  5.562158e-002  5.163792e-001 -8.545517e-001
    outer loop
      vertex  4.794255e-001  8.775826e-001  3.000000e+001
      vertex -2.815395e-001  9.595496e-001  3.000000e+001
      vertex  1.108645e-001  2.163384e+000  3.075298e+001
    endloop
  endfacet
  facet normal -7.768591e-001 -5.976582e-001 -1.982285e-001
    outer loop
      vertex -2.828423e+000 -1.000000e+000  3.282357e+001
      vertex -2.827402e+000 -8.041860e-001  3.222919e+001
      vertex -2.403036e+000 -1.722806e+000  3.333573e+001
    endloop
  endfacet
  facet normal -8.933991e-001 -4.271579e-001  1.391910e-001
    outer loop
      vertex -2.828423e+000 -1.000000e+000  3.282357e+001
      vertex -2.403036e+000 -1.722806e+000  3.333573e+001
      vertex -2.829443e+000 -8.041850e-001  3.341795e+001
    endloop
  endfacet
  facet normal -8.556748e-001 -2.991734e-001  4.222748e-001
    outer loop
      vertex -2.375784e+000 -4.156466e-001  3.461249e+001
      vertex -2.830065e+000 -2.909429e-001  3.378031e+001
      vertex -2.829443e+000 -8.041850e-001  3.341795e+001
    endloop
  endfacet
  facet normal -8.324628e-001 -3.496049e-001  4.298629e-001
    outer loop
      vertex -2.375784e+000 -4.156466e-001  3.461249e+001
      vertex -2.829443e+000 -8.041850e-001  3.341795e+001
      vertex -1.960166e+000 -1.405299e+000  3.461249e+001
    endloop
  endfacet
  facet normal -9.996543e-001 -1.434361e-002 -2.203275e-002
    outer loop
      vertex -2.827402e+000 -8.041860e-001  3.222919e+001
      vertex -2.826780e+000 -2.909759e-001  3.186684e+001
      vertex -2.825702e+000 -4.943602e-001  3.195035e+001
    endloop
  endfacet
  facet normal -8.065059e-001  4.405963e-001  3.942374e-001
    outer loop
      vertex -2.320850e+000  6.563296e-001  3.461249e+001
      vertex -1.806243e+000  1.598312e+000  3.461249e+001
      vertex -2.829360e+000  8.381395e-001  3.336903e+001
    endloop
  endfacet
  facet normal -9.571866e-001  1.790896e-001 -2.274220e-001
    outer loop
      vertex -2.827486e+000  8.381892e-001  3.227819e+001
      vertex -2.760364e+000  7.806229e-001  3.195035e+001
      vertex -2.826808e+000  3.402858e-001  3.188325e+001
    endloop
  endfacet
  facet normal -5.247666e-001  5.652503e-002 -8.493673e-001
    outer loop
      vertex -2.084474e+000  5.894832e-001  3.075298e+001
      vertex -8.775826e-001  4.794255e-001  3.000000e+001
      vertex -9.595496e-001 -2.815395e-001  3.000000e+001
    endloop
  endfacet
  facet normal -5.411193e-001  2.773010e-002 -8.404885e-001
    outer loop
      vertex -2.133814e+000 -3.733135e-001  3.075298e+001
      vertex -2.084474e+000  5.894832e-001  3.075298e+001
      vertex -9.595496e-001 -2.815395e-001  3.000000e+001
    endloop
  endfacet
  facet normal -5.149828e-001 -2.162745e-001 -8.294685e-001
    outer loop
      vertex -2.133814e+000 -3.733135e-001  3.075298e+001
      vertex -9.595496e-001 -2.815395e-001  3.000000e+001
      vertex -1.760525e+000 -1.262171e+000  3.075298e+001
    endloop
  endfacet
  facet normal -3.420337e-001  4.246127e-001 -8.382821e-001
    outer loop
      vertex -8.387719e-001  1.997244e+000  3.075298e+001
      vertex -2.815395e-001  9.595496e-001  3.000000e+001
      vertex -8.775826e-001  4.794255e-001  3.000000e+001
    endloop
  endfacet
  facet normal -8.452008e-001 -3.549546e-001 -3.995532e-001
    outer loop
      vertex -2.827402e+000 -8.041860e-001  3.222919e+001
      vertex -2.825702e+000 -4.943602e-001  3.195035e+001
      vertex -2.331374e+000 -1.671429e+000  3.195035e+001
    endloop
  endfacet
  facet normal -8.749207e-001 -4.801426e-001 -6.306302e-002
    outer loop
      vertex -2.331374e+000 -1.671429e+000  3.195035e+001
      vertex -2.403036e+000 -1.722806e+000  3.333573e+001
      vertex -2.827402e+000 -8.041860e-001  3.222919e+001
    endloop
  endfacet
  facet normal -8.219644e-001 -4.163260e-001  3.886479e-001
    outer loop
      vertex -1.960166e+000 -1.405299e+000  3.461249e+001
      vertex -2.829443e+000 -8.041850e-001  3.341795e+001
      vertex -2.403036e+000 -1.722806e+000  3.333573e+001
    endloop
  endfacet
  facet normal -8.662754e-001  4.793289e-001  1.407504e-001
    outer loop
      vertex -2.828423e+000  1.000000e+000  3.282357e+001
      vertex -2.829360e+000  8.381395e-001  3.336903e+001
      vertex -2.214337e+000  1.959427e+000  3.333573e+001
    endloop
  endfacet
  facet normal -8.042876e-001  4.525837e-001  3.850838e-001
    outer loop
      vertex -2.829360e+000  8.381395e-001  3.336903e+001
      vertex -1.806243e+000  1.598312e+000  3.461249e+001
      vertex -2.214337e+000  1.959427e+000  3.333573e+001
    endloop
  endfacet
  facet normal  6.448890e-002  2.280395e-001  9.715138e-001
    outer loop
      vertex  8.806613e-017  4.612163e-016  3.582843e+001
      vertex  6.474736e-001  1.185192e+000  3.550725e+001
      vertex  6.911781e-002  1.348750e+000  3.550725e+001
    endloop
  endfacet
  facet normal -4.084016e-002  2.334372e-001  9.715139e-001
    outer loop
      vertex  8.806613e-017  4.612163e-016  3.582843e+001
      vertex  6.911781e-002  1.348750e+000  3.550725e+001
      vertex -5.229276e-001  1.245171e+000  3.550725e+001
    endloop
  endfacet
  facet normal -1.380803e-001  1.925998e-001  9.715139e-001
    outer loop
      vertex  8.806613e-017  4.612163e-016  3.582843e+001
      vertex -5.229276e-001  1.245171e+000  3.550725e+001
      vertex -1.011401e+000  8.949702e-001  3.550725e+001
    endloop
  endfacet
  facet normal -2.079720e-001  1.136156e-001  9.715138e-001
    outer loop
      vertex  8.806613e-017  4.612163e-016  3.582843e+001
      vertex -1.011401e+000  8.949702e-001  3.550725e+001
      vertex -1.299554e+000  3.675099e-001  3.550725e+001
    endloop
  endfacet
  facet normal -2.366722e-001  1.212845e-002  9.715138e-001
    outer loop
      vertex  8.806613e-017  4.612163e-016  3.582843e+001
      vertex -1.299554e+000  3.675099e-001  3.550725e+001
      vertex -1.330314e+000 -2.327402e-001  3.550725e+001
    endloop
  endfacet
  facet normal -2.184967e-001 -9.176086e-002  9.715138e-001
    outer loop
      vertex  8.806613e-017  4.612163e-016  3.582843e+001
      vertex -1.330314e+000 -2.327402e-001  3.550725e+001
      vertex -1.097589e+000 -7.868932e-001  3.550725e+001
    endloop
  endfacet
  facet normal -1.570451e-001 -1.774758e-001  9.715138e-001
    outer loop
      vertex  8.806613e-017  4.612163e-016  3.582843e+001
      vertex -1.097589e+000 -7.868932e-001  3.550725e+001
      vertex -6.474736e-001 -1.185192e+000  3.550725e+001
    endloop
  endfacet
  facet normal  1.779939e-001  6.294053e-001  7.564173e-001
    outer loop
      vertex  6.911781e-002  1.348750e+000  3.550725e+001
      vertex  6.474736e-001  1.185192e+000  3.550725e+001
      vertex  1.234363e-001  2.408709e+000  3.461249e+001
    endloop
  endfacet
  facet normal  1.779940e-001  6.294053e-001  7.564173e-001
    outer loop
      vertex  1.234363e-001  2.408709e+000  3.461249e+001
      vertex  6.474736e-001  1.185192e+000  3.550725e+001
      vertex  1.156312e+000  2.116614e+000  3.461249e+001
    endloop
  endfacet
  facet normal  2.512425e-001  8.884194e-001  3.841721e-001
    outer loop
      vertex  1.234363e-001  2.408709e+000  3.461249e+001
      vertex  1.156312e+000  2.116614e+000  3.461249e+001
      vertex  1.513249e-001  2.952921e+000  3.333573e+001
    endloop
  endfacet
  facet normal  2.512424e-001  8.884194e-001  3.841721e-001
    outer loop
      vertex  1.513249e-001  2.952921e+000  3.333573e+001
      vertex  1.156312e+000  2.116614e+000  3.461249e+001
      vertex  1.417563e+000  2.594832e+000  3.333573e+001
    endloop
  endfacet
  facet normal  2.716025e-001  9.604148e-001 -6.193225e-002
    outer loop
      vertex  1.513249e-001  2.952921e+000  3.333573e+001
      vertex  1.417563e+000  2.594832e+000  3.333573e+001
      vertex  1.468122e-001  2.864861e+000  3.195035e+001
    endloop
  endfacet
  facet normal  2.716024e-001  9.604148e-001 -6.193214e-002
    outer loop
      vertex  1.468122e-001  2.864861e+000  3.195035e+001
      vertex  1.417563e+000  2.594832e+000  3.333573e+001
      vertex  1.375290e+000  2.517451e+000  3.195035e+001
    endloop
  endfacet
  facet normal  2.362216e-001  8.353046e-001 -4.964530e-001
    outer loop
      vertex  1.468122e-001  2.864861e+000  3.195035e+001
      vertex  1.375290e+000  2.517451e+000  3.195035e+001
      vertex  1.108645e-001  2.163384e+000  3.075298e+001
    endloop
  endfacet
  facet normal  2.362216e-001  8.353046e-001 -4.964530e-001
    outer loop
      vertex  1.108645e-001  2.163384e+000  3.075298e+001
      vertex  1.375290e+000  2.517451e+000  3.195035e+001
      vertex  1.038543e+000  1.901040e+000  3.075298e+001
    endloop
  endfacet
  facet normal  1.502551e-001  5.313180e-001 -8.337413e-001
    outer loop
      vertex  1.108645e-001  2.163384e+000  3.075298e+001
      vertex  1.038543e+000  1.901040e+000  3.075298e+001
      vertex  4.794255e-001  8.775826e-001  3.000000e+001
    endloop
  endfacet
  facet normal -4.334558e-001 -4.898459e-001  7.564173e-001
    outer loop
      vertex -6.474736e-001 -1.185192e+000  3.550725e+001
      vertex -1.097589e+000 -7.868932e-001  3.550725e+001
      vertex -1.156312e+000 -2.116614e+000  3.461249e+001
    endloop
  endfacet
  facet normal -4.334557e-001 -4.898459e-001  7.564173e-001
    outer loop
      vertex -1.156312e+000 -2.116614e+000  3.461249e+001
      vertex -1.097589e+000 -7.868932e-001  3.550725e+001
      vertex -1.960166e+000 -1.405299e+000  3.461249e+001
    endloop
  endfacet
  facet normal -6.118323e-001 -6.914283e-001  3.841721e-001
    outer loop
      vertex -1.156312e+000 -2.116614e+000  3.461249e+001
      vertex -1.960166e+000 -1.405299e+000  3.461249e+001
      vertex -1.417563e+000 -2.594832e+000  3.333573e+001
    endloop
  endfacet
  facet normal -6.118323e-001 -6.914282e-001  3.841721e-001
    outer loop
      vertex -1.417563e+000 -2.594832e+000  3.333573e+001
      vertex -1.960166e+000 -1.405299e+000  3.461249e+001
      vertex -2.403036e+000 -1.722806e+000  3.333573e+001
    endloop
  endfacet
  facet normal -6.614137e-001 -7.474598e-001 -6.193211e-002
    outer loop
      vertex -1.417563e+000 -2.594832e+000  3.333573e+001
      vertex -2.403036e+000 -1.722806e+000  3.333573e+001
      vertex -1.375290e+000 -2.517451e+000  3.195035e+001
    endloop
  endfacet
  facet normal -6.614138e-001 -7.474599e-001 -6.193227e-002
    outer loop
      vertex -1.375290e+000 -2.517451e+000  3.195035e+001
      vertex -2.403036e+000 -1.722806e+000  3.333573e+001
      vertex -2.331374e+000 -1.671429e+000  3.195035e+001
    endloop
  endfacet
  facet normal -5.752535e-001 -6.500906e-001 -4.964530e-001
    outer loop
      vertex -1.375290e+000 -2.517451e+000  3.195035e+001
      vertex -2.331374e+000 -1.671429e+000  3.195035e+001
      vertex -1.038543e+000 -1.901040e+000  3.075298e+001
    endloop
  endfacet
  facet normal -5.752535e-001 -6.500908e-001 -4.964530e-001
    outer loop
      vertex -1.038543e+000 -1.901040e+000  3.075298e+001
      vertex -2.331374e+000 -1.671429e+000  3.195035e+001
      vertex -1.760525e+000 -1.262171e+000  3.075298e+001
    endloop
  endfacet
  facet normal -3.659054e-001 -4.135077e-001 -8.337413e-001
    outer loop
      vertex -1.038543e+000 -1.901040e+000  3.075298e+001
      vertex -1.760525e+000 -1.262171e+000  3.075298e+001
      vertex -4.794255e-001 -8.775826e-001  3.000000e+001
    endloop
  endfacet
  facet normal -8.003492e-001 -3.361183e-001 -4.964530e-001
    outer loop
      vertex -1.760525e+000 -1.262171e+000  3.075298e+001
      vertex -2.331374e+000 -1.671429e+000  3.195035e+001
      vertex -2.133814e+000 -3.733135e-001  3.075298e+001
    endloop
  endfacet
  facet normal -8.003491e-001 -3.361185e-001 -4.964531e-001
    outer loop
      vertex -2.133814e+000 -3.733135e-001  3.075298e+001
      vertex -2.331374e+000 -1.671429e+000  3.195035e+001
      vertex -2.825702e+000 -4.943602e-001  3.195035e+001
    endloop
  endfacet
  facet normal -8.367794e-001 -2.117633e-001 -5.049323e-001
    outer loop
      vertex -2.133814e+000 -3.733135e-001  3.075298e+001
      vertex -2.825702e+000 -4.943602e-001  3.195035e+001
      vertex -2.826780e+000 -2.909759e-001  3.186684e+001
    endloop
  endfacet
  facet normal -6.030663e-001 -2.532665e-001  7.564173e-001
    outer loop
      vertex -1.960166e+000 -1.405299e+000  3.461249e+001
      vertex -1.097589e+000 -7.868932e-001  3.550725e+001
      vertex -2.375784e+000 -4.156466e-001  3.461249e+001
    endloop
  endfacet
  facet normal -6.030663e-001 -2.532665e-001  7.564173e-001
    outer loop
      vertex -2.375784e+000 -4.156466e-001  3.461249e+001
      vertex -1.097589e+000 -7.868932e-001  3.550725e+001
      vertex -1.330314e+000 -2.327402e-001  3.550725e+001
    endloop
  endfacet
  facet normal -6.532322e-001  3.347540e-002  7.564173e-001
    outer loop
      vertex -2.375784e+000 -4.156466e-001  3.461249e+001
      vertex -1.330314e+000 -2.327402e-001  3.550725e+001
      vertex -2.320850e+000  6.563296e-001  3.461249e+001
    endloop
  endfacet
  facet normal -6.532322e-001  3.347540e-002  7.564173e-001
    outer loop
      vertex -2.320850e+000  6.563296e-001  3.461249e+001
      vertex -1.330314e+000 -2.327402e-001  3.550725e+001
      vertex -1.299554e+000  3.675099e-001  3.550725e+001
    endloop
  endfacet
  facet normal -5.740174e-001  3.135872e-001  7.564173e-001
    outer loop
      vertex -2.320850e+000  6.563296e-001  3.461249e+001
      vertex -1.299554e+000  3.675099e-001  3.550725e+001
      vertex -1.806243e+000  1.598312e+000  3.461249e+001
    endloop
  endfacet
  facet normal -5.740175e-001  3.135871e-001  7.564173e-001
    outer loop
      vertex -1.806243e+000  1.598312e+000  3.461249e+001
      vertex -1.299554e+000  3.675099e-001  3.550725e+001
      vertex -1.011401e+000  8.949702e-001  3.550725e+001
    endloop
  endfacet
  facet normal -8.468495e-001  4.339749e-002 -5.300591e-001
    outer loop
      vertex -2.133814e+000 -3.733135e-001  3.075298e+001
      vertex -2.826780e+000 -2.909759e-001  3.186684e+001
      vertex -2.084474e+000  5.894832e-001  3.075298e+001
    endloop
  endfacet
  facet normal -8.371925e-001  1.417251e-002 -5.467245e-001
    outer loop
      vertex -2.084474e+000  5.894832e-001  3.075298e+001
      vertex -2.826780e+000 -2.909759e-001  3.186684e+001
      vertex -2.826808e+000  3.402858e-001  3.188325e+001
    endloop
  endfacet
  facet normal -8.383369e-001  2.035666e-001 -5.057191e-001
    outer loop
      vertex -2.084474e+000  5.894832e-001  3.075298e+001
      vertex -2.826808e+000  3.402858e-001  3.188325e+001
      vertex -2.760364e+000  7.806229e-001  3.195035e+001
    endloop
  endfacet
  facet normal -8.768731e-001  1.254402e-002  4.805582e-001
    outer loop
      vertex -2.830065e+000 -2.909429e-001  3.378031e+001
      vertex -2.375784e+000 -4.156466e-001  3.461249e+001
      vertex -2.830037e+000  3.403028e-001  3.376389e+001
    endloop
  endfacet
  facet normal -8.638294e-001  4.426762e-002  5.018358e-001
    outer loop
      vertex -2.830037e+000  3.403028e-001  3.376389e+001
      vertex -2.375784e+000 -4.156466e-001  3.461249e+001
      vertex -2.320850e+000  6.563296e-001  3.461249e+001
    endloop
  endfacet
  facet normal -8.606789e-001  3.171120e-001  3.983363e-001
    outer loop
      vertex -2.830037e+000  3.403028e-001  3.376389e+001
      vertex -2.320850e+000  6.563296e-001  3.461249e+001
      vertex -2.829360e+000  8.381395e-001  3.336903e+001
    endloop
  endfacet
  facet normal -7.617975e-001  4.161718e-001 -4.964530e-001
    outer loop
      vertex -2.760364e+000  7.806229e-001  3.195035e+001
      vertex -2.148303e+000  1.900994e+000  3.195035e+001
      vertex -2.084474e+000  5.894832e-001  3.075298e+001
    endloop
  endfacet
  facet normal -7.617975e-001  4.161719e-001 -4.964531e-001
    outer loop
      vertex -2.084474e+000  5.894832e-001  3.075298e+001
      vertex -2.148303e+000  1.900994e+000  3.195035e+001
      vertex -1.622279e+000  1.435526e+000  3.075298e+001
    endloop
  endfacet
  facet normal -4.920789e-001  2.688239e-001 -8.280049e-001
    outer loop
      vertex -2.084474e+000  5.894832e-001  3.075298e+001
      vertex -1.622279e+000  1.435526e+000  3.075298e+001
      vertex -8.775826e-001  4.794255e-001  3.000000e+001
    endloop
  endfacet
  facet normal -7.828131e-001  5.961862e-001 -1.782293e-001
    outer loop
      vertex -2.828423e+000  1.000000e+000  3.282357e+001
      vertex -2.214337e+000  1.959427e+000  3.333573e+001
      vertex -2.827486e+000  8.381892e-001  3.227819e+001
    endloop
  endfacet
  facet normal -8.496314e-001  5.236503e-001 -6.258418e-002
    outer loop
      vertex -2.827486e+000  8.381892e-001  3.227819e+001
      vertex -2.214337e+000  1.959427e+000  3.333573e+001
      vertex -2.148303e+000  1.900994e+000  3.195035e+001
    endloop
  endfacet
  facet normal -8.485408e-001  4.635599e-001 -2.551289e-001
    outer loop
      vertex -2.827486e+000  8.381892e-001  3.227819e+001
      vertex -2.148303e+000  1.900994e+000  3.195035e+001
      vertex -2.760364e+000  7.806229e-001  3.195035e+001
    endloop
  endfacet
  facet normal -3.811114e-001  5.315890e-001  7.564173e-001
    outer loop
      vertex -1.011401e+000  8.949702e-001  3.550725e+001
      vertex -5.229276e-001  1.245171e+000  3.550725e+001
      vertex -1.806243e+000  1.598312e+000  3.461249e+001
    endloop
  endfacet
  facet normal -3.811114e-001  5.315891e-001  7.564173e-001
    outer loop
      vertex -1.806243e+000  1.598312e+000  3.461249e+001
      vertex -5.229276e-001  1.245171e+000  3.550725e+001
      vertex -9.338872e-001  2.223728e+000  3.461249e+001
    endloop
  endfacet
  facet normal -5.379472e-001  7.503497e-001  3.841720e-001
    outer loop
      vertex -1.806243e+000  1.598312e+000  3.461249e+001
      vertex -9.338872e-001  2.223728e+000  3.461249e+001
      vertex -2.214337e+000  1.959427e+000  3.333573e+001
    endloop
  endfacet
  facet normal -5.379472e-001  7.503496e-001  3.841721e-001
    outer loop
      vertex -2.214337e+000  1.959427e+000  3.333573e+001
      vertex -9.338872e-001  2.223728e+000  3.461249e+001
      vertex -1.144885e+000  2.726147e+000  3.333573e+001
    endloop
  endfacet
  facet normal -5.815411e-001  8.111562e-001 -6.193210e-002
    outer loop
      vertex -2.214337e+000  1.959427e+000  3.333573e+001
      vertex -1.144885e+000  2.726147e+000  3.333573e+001
      vertex -2.148303e+000  1.900994e+000  3.195035e+001
    endloop
  endfacet
  facet normal -5.815411e-001  8.111562e-001 -6.193219e-002
    outer loop
      vertex -2.148303e+000  1.900994e+000  3.195035e+001
      vertex -1.144885e+000  2.726147e+000  3.333573e+001
      vertex -1.110743e+000  2.644850e+000  3.195035e+001
    endloop
  endfacet
  facet normal -5.057855e-001  7.054895e-001 -4.964530e-001
    outer loop
      vertex -2.148303e+000  1.900994e+000  3.195035e+001
      vertex -1.110743e+000  2.644850e+000  3.195035e+001
      vertex -1.622279e+000  1.435526e+000  3.075298e+001
    endloop
  endfacet
  facet normal -5.057856e-001  7.054895e-001 -4.964530e-001
    outer loop
      vertex -1.622279e+000  1.435526e+000  3.075298e+001
      vertex -1.110743e+000  2.644850e+000  3.195035e+001
      vertex -8.387719e-001  1.997244e+000  3.075298e+001
    endloop
  endfacet
  facet normal -3.076745e-001  4.291564e-001 -8.492121e-001
    outer loop
      vertex -1.622279e+000  1.435526e+000  3.075298e+001
      vertex -8.387719e-001  1.997244e+000  3.075298e+001
      vertex -8.775826e-001  4.794255e-001  3.000000e+001
    endloop
  endfacet
  facet normal -1.127217e-001  6.443032e-001  7.564173e-001
    outer loop
      vertex -5.229276e-001  1.245171e+000  3.550725e+001
      vertex  6.911781e-002  1.348750e+000  3.550725e+001
      vertex -9.338872e-001  2.223728e+000  3.461249e+001
    endloop
  endfacet
  facet normal -1.127217e-001  6.443033e-001  7.564173e-001
    outer loop
      vertex -9.338872e-001  2.223728e+000  3.461249e+001
      vertex  6.911781e-002  1.348750e+000  3.550725e+001
      vertex  1.234363e-001  2.408709e+000  3.461249e+001
    endloop
  endfacet
  facet normal -1.591092e-001  9.094482e-001  3.841721e-001
    outer loop
      vertex -9.338872e-001  2.223728e+000  3.461249e+001
      vertex  1.234363e-001  2.408709e+000  3.461249e+001
      vertex -1.144885e+000  2.726147e+000  3.333573e+001
    endloop
  endfacet
  facet normal -1.591092e-001  9.094481e-001  3.841721e-001
    outer loop
      vertex -1.144885e+000  2.726147e+000  3.333573e+001
      vertex  1.234363e-001  2.408709e+000  3.461249e+001
      vertex  1.513249e-001  2.952921e+000  3.333573e+001
    endloop
  endfacet
  facet normal -1.720030e-001  9.831477e-001 -6.193220e-002
    outer loop
      vertex -1.144885e+000  2.726147e+000  3.333573e+001
      vertex  1.513249e-001  2.952921e+000  3.333573e+001
      vertex -1.110743e+000  2.644850e+000  3.195035e+001
    endloop
  endfacet
  facet normal -1.720030e-001  9.831477e-001 -6.193225e-002
    outer loop
      vertex -1.110743e+000  2.644850e+000  3.195035e+001
      vertex  1.513249e-001  2.952921e+000  3.333573e+001
      vertex  1.468122e-001  2.864861e+000  3.195035e+001
    endloop
  endfacet
  facet normal -1.495967e-001  8.550762e-001 -4.964530e-001
    outer loop
      vertex -1.110743e+000  2.644850e+000  3.195035e+001
      vertex  1.468122e-001  2.864861e+000  3.195035e+001
      vertex -8.387719e-001  1.997244e+000  3.075298e+001
    endloop
  endfacet
  facet normal -1.495966e-001  8.550761e-001 -4.964530e-001
    outer loop
      vertex -8.387719e-001  1.997244e+000  3.075298e+001
      vertex  1.468122e-001  2.864861e+000  3.195035e+001
      vertex  1.108645e-001  2.163384e+000  3.075298e+001
    endloop
  endfacet
  facet normal -9.625763e-002  5.501968e-001 -8.294685e-001
    outer loop
      vertex -8.387719e-001  1.997244e+000  3.075298e+001
      vertex  1.108645e-001  2.163384e+000  3.075298e+001
      vertex -2.815395e-001  9.595496e-001  3.000000e+001
    endloop
  endfacet
  facet normal  3.458192e-002 -3.824537e-001  9.233273e-001
    outer loop
      vertex  5.000000e+000 -7.071068e-001  3.353068e+001
      vertex  5.000000e+000  6.123032e-017  3.382357e+001
      vertex  2.830037e+000 -3.403028e-001  3.376389e+001
    endloop
  endfacet
  facet normal -2.340995e-002 -2.600472e-002  9.993877e-001
    outer loop
      vertex  2.830037e+000 -3.403028e-001  3.376389e+001
      vertex  5.000000e+000  6.123032e-017  3.382357e+001
      vertex  2.830065e+000  2.909429e-001  3.378031e+001
    endloop
  endfacet
  facet normal  3.287399e-002  3.824758e-001  9.233806e-001
    outer loop
      vertex  2.830065e+000  2.909429e-001  3.378031e+001
      vertex  5.000000e+000  6.123032e-017  3.382357e+001
      vertex  5.000000e+000  7.071068e-001  3.353068e+001
    endloop
  endfacet
  facet normal  0.000000e+000 -9.586812e-001  2.844825e-001
    outer loop
      vertex  2.828423e+000 -1.000000e+000  3.282357e+001
      vertex  5.000000e+000 -1.000000e+000  3.282357e+001
      vertex  2.829360e+000 -8.381395e-001  3.336903e+001
    endloop
  endfacet
  facet normal  2.726159e-002 -9.235363e-001  3.825409e-001
    outer loop
      vertex  2.829360e+000 -8.381395e-001  3.336903e+001
      vertex  5.000000e+000 -1.000000e+000  3.282357e+001
      vertex  5.000000e+000 -7.071068e-001  3.353068e+001
    endloop
  endfacet
  facet normal -2.083233e-002 -6.212649e-001  7.833236e-001
    outer loop
      vertex  2.829360e+000 -8.381395e-001  3.336903e+001
      vertex  5.000000e+000 -7.071068e-001  3.353068e+001
      vertex  2.830037e+000 -3.403028e-001  3.376389e+001
    endloop
  endfacet
  facet normal  -0.000000e+000  9.238797e-001  3.826831e-001
    outer loop
      vertex  5.000000e+000  1.000000e+000  3.282357e+001
      vertex  2.828423e+000  1.000000e+000  3.282357e+001
      vertex  5.000000e+000  7.071068e-001  3.353068e+001
    endloop
  endfacet
  facet normal  2.622232e-002  9.494723e-001  3.127533e-001
    outer loop
      vertex  5.000000e+000  7.071068e-001  3.353068e+001
      vertex  2.828423e+000  1.000000e+000  3.282357e+001
      vertex  2.829443e+000  8.041850e-001  3.341795e+001
    endloop
  endfacet
  facet normal -1.662959e-002  5.766679e-001  8.168094e-001
    outer loop
      vertex  5.000000e+000  7.071068e-001  3.353068e+001
      vertex  2.829443e+000  8.041850e-001  3.341795e+001
      vertex  2.830065e+000  2.909429e-001  3.378031e+001
    endloop
  endfacet
  facet normal -3.287399e-002 -3.824758e-001  9.233806e-001
    outer loop
      vertex -5.000000e+000 -7.071068e-001  3.353068e+001
      vertex -2.830065e+000 -2.909429e-001  3.378031e+001
      vertex -5.000000e+000  6.123032e-017  3.382357e+001
    endloop
  endfacet
  facet normal  2.340995e-002  2.600472e-002  9.993877e-001
    outer loop
      vertex -5.000000e+000  6.123032e-017  3.382357e+001
      vertex -2.830065e+000 -2.909429e-001  3.378031e+001
      vertex -2.830037e+000  3.403028e-001  3.376389e+001
    endloop
  endfacet
  facet normal -3.458192e-002  3.824537e-001  9.233273e-001
    outer loop
      vertex -5.000000e+000  6.123032e-017  3.382357e+001
      vertex -2.830037e+000  3.403028e-001  3.376389e+001
      vertex -5.000000e+000  7.071068e-001  3.353068e+001
    endloop
  endfacet
  facet normal  0.000000e+000 -9.238797e-001  3.826831e-001
    outer loop
      vertex -5.000000e+000 -1.000000e+000  3.282357e+001
      vertex -2.828423e+000 -1.000000e+000  3.282357e+001
      vertex -5.000000e+000 -7.071068e-001  3.353068e+001
    endloop
  endfacet
  facet normal -2.622232e-002 -9.494723e-001  3.127533e-001
    outer loop
      vertex -5.000000e+000 -7.071068e-001  3.353068e+001
      vertex -2.828423e+000 -1.000000e+000  3.282357e+001
      vertex -2.829443e+000 -8.041850e-001  3.341795e+001
    endloop
  endfacet
  facet normal  1.662959e-002 -5.766679e-001  8.168094e-001
    outer loop
      vertex -5.000000e+000 -7.071068e-001  3.353068e+001
      vertex -2.829443e+000 -8.041850e-001  3.341795e+001
      vertex -2.830065e+000 -2.909429e-001  3.378031e+001
    endloop
  endfacet
  facet normal  -0.000000e+000  9.586812e-001  2.844825e-001
    outer loop
      vertex -2.828423e+000  1.000000e+000  3.282357e+001
      vertex -5.000000e+000  1.000000e+000  3.282357e+001
      vertex -2.829360e+000  8.381395e-001  3.336903e+001
    endloop
  endfacet
  facet normal -2.726159e-002  9.235363e-001  3.825409e-001
    outer loop
      vertex -2.829360e+000  8.381395e-001  3.336903e+001
      vertex -5.000000e+000  1.000000e+000  3.282357e+001
      vertex -5.000000e+000  7.071068e-001  3.353068e+001
    endloop
  endfacet
  facet normal  2.083233e-002  6.212649e-001  7.833236e-001
    outer loop
      vertex -2.829360e+000  8.381395e-001  3.336903e+001
      vertex -5.000000e+000  7.071068e-001  3.353068e+001
      vertex -2.830037e+000  3.403028e-001  3.376389e+001
    endloop
  endfacet
  facet normal  3.453085e-002  3.824544e-001 -9.233289e-001
    outer loop
      vertex  5.000000e+000  7.071068e-001  3.211646e+001
      vertex  5.000000e+000 -1.836910e-016  3.182357e+001
      vertex  2.826808e+000  3.402858e-001  3.188325e+001
    endloop
  endfacet
  facet normal -2.337640e-002  2.597599e-002 -9.993892e-001
    outer loop
      vertex  2.826808e+000  3.402858e-001  3.188325e+001
      vertex  5.000000e+000 -1.836910e-016  3.182357e+001
      vertex  2.826780e+000 -2.909759e-001  3.186684e+001
    endloop
  endfacet
  facet normal  3.282528e-002 -3.824764e-001 -9.233820e-001
    outer loop
      vertex  2.826780e+000 -2.909759e-001  3.186684e+001
      vertex  5.000000e+000 -1.836910e-016  3.182357e+001
      vertex  5.000000e+000 -7.071068e-001  3.211646e+001
    endloop
  endfacet
  facet normal  0.000000e+000  9.586942e-001 -2.844386e-001
    outer loop
      vertex  2.828423e+000  1.000000e+000  3.282357e+001
      vertex  5.000000e+000  1.000000e+000  3.282357e+001
      vertex  2.827486e+000  8.381892e-001  3.227819e+001
    endloop
  endfacet
  facet normal  2.724582e-002  9.235368e-001 -3.825411e-001
    outer loop
      vertex  2.827486e+000  8.381892e-001  3.227819e+001
      vertex  5.000000e+000  1.000000e+000  3.282357e+001
      vertex  5.000000e+000  7.071068e-001  3.211646e+001
    endloop
  endfacet
  facet normal -2.081992e-002  6.213298e-001 -7.832724e-001
    outer loop
      vertex  2.827486e+000  8.381892e-001  3.227819e+001
      vertex  5.000000e+000  7.071068e-001  3.211646e+001
      vertex  2.826808e+000  3.402858e-001  3.188325e+001
    endloop
  endfacet
  facet normal  0.000000e+000 -9.238797e-001 -3.826831e-001
    outer loop
      vertex  5.000000e+000 -1.000000e+000  3.282357e+001
      vertex  2.828423e+000 -1.000000e+000  3.282357e+001
      vertex  5.000000e+000 -7.071068e-001  3.211646e+001
    endloop
  endfacet
  facet normal  2.619281e-002 -9.494469e-001 -3.128334e-001
    outer loop
      vertex  5.000000e+000 -7.071068e-001  3.211646e+001
      vertex  2.828423e+000 -1.000000e+000  3.282357e+001
      vertex  2.827402e+000 -8.041860e-001  3.222919e+001
    endloop
  endfacet
  facet normal -1.661056e-002 -5.767069e-001 -8.167823e-001
    outer loop
      vertex  5.000000e+000 -7.071068e-001  3.211646e+001
      vertex  2.827402e+000 -8.041860e-001  3.222919e+001
      vertex  2.826780e+000 -2.909759e-001  3.186684e+001
    endloop
  endfacet
  facet normal -3.453085e-002  3.824544e-001 -9.233289e-001
    outer loop
      vertex -5.000000e+000  7.071068e-001  3.211646e+001
      vertex -2.826808e+000  3.402858e-001  3.188325e+001
      vertex -5.000000e+000 -1.836910e-016  3.182357e+001
    endloop
  endfacet
  facet normal  2.337640e-002  2.597599e-002 -9.993892e-001
    outer loop
      vertex -2.826808e+000  3.402858e-001  3.188325e+001
      vertex -2.826780e+000 -2.909759e-001  3.186684e+001
      vertex -5.000000e+000 -1.836910e-016  3.182357e+001
    endloop
  endfacet
  facet normal -3.282528e-002 -3.824764e-001 -9.233820e-001
    outer loop
      vertex -5.000000e+000 -7.071068e-001  3.211646e+001
      vertex -5.000000e+000 -1.836910e-016  3.182357e+001
      vertex -2.826780e+000 -2.909759e-001  3.186684e+001
    endloop
  endfacet
  facet normal  0.000000e+000  9.238797e-001 -3.826831e-001
    outer loop
      vertex -5.000000e+000  1.000000e+000  3.282357e+001
      vertex -2.828423e+000  1.000000e+000  3.282357e+001
      vertex -5.000000e+000  7.071068e-001  3.211646e+001
    endloop
  endfacet
  facet normal -3.664016e-002  9.580334e-001 -2.843055e-001
    outer loop
      vertex -5.000000e+000  7.071068e-001  3.211646e+001
      vertex -2.828423e+000  1.000000e+000  3.282357e+001
      vertex -2.827486e+000  8.381892e-001  3.227819e+001
    endloop
  endfacet
  facet normal  2.081992e-002  6.213298e-001 -7.832724e-001
    outer loop
      vertex -5.000000e+000  7.071068e-001  3.211646e+001
      vertex -2.827486e+000  8.381892e-001  3.227819e+001
      vertex -2.826808e+000  3.402858e-001  3.188325e+001
    endloop
  endfacet
  facet normal  0.000000e+000 -9.497860e-001 -3.129001e-001
    outer loop
      vertex -2.828423e+000 -1.000000e+000  3.282357e+001
      vertex -5.000000e+000 -1.000000e+000  3.282357e+001
      vertex -2.827402e+000 -8.041860e-001  3.222919e+001
    endloop
  endfacet
  facet normal -2.142121e-002 -9.236677e-001 -3.825952e-001
    outer loop
      vertex -2.827402e+000 -8.041860e-001  3.222919e+001
      vertex -5.000000e+000 -1.000000e+000  3.282357e+001
      vertex -5.000000e+000 -7.071068e-001  3.211646e+001
    endloop
  endfacet
  facet normal  1.661056e-002 -5.767069e-001 -8.167823e-001
    outer loop
      vertex -2.827402e+000 -8.041860e-001  3.222919e+001
      vertex -5.000000e+000 -7.071068e-001  3.211646e+001
      vertex -2.826780e+000 -2.909759e-001  3.186684e+001
    endloop
  endfacet
  facet normal  9.999999e-001  0.000000e+000  0.000000e+000
    outer loop
      vertex  5.000000e+000 -7.071068e-001  3.353068e+001
      vertex  5.000000e+000  7.071068e-001  3.353068e+001
      vertex  5.000000e+000  6.123032e-017  3.382357e+001
    endloop
  endfacet
  facet normal  1.000000e+000  -0.000000e+000  0.000000e+000
    outer loop
      vertex  5.000000e+000  7.071068e-001  3.353068e+001
      vertex  5.000000e+000 -7.071068e-001  3.353068e+001
      vertex  5.000000e+000  1.000000e+000  3.282357e+001
    endloop
  endfacet
  facet normal  9.999999e-001  0.000000e+000  0.000000e+000
    outer loop
      vertex  5.000000e+000  1.000000e+000  3.282357e+001
      vertex  5.000000e+000 -7.071068e-001  3.353068e+001
      vertex  5.000000e+000 -1.000000e+000  3.282357e+001
    endloop
  endfacet
  facet normal  9.999999e-001  -0.000000e+000  0.000000e+000
    outer loop
      vertex  5.000000e+000  1.000000e+000  3.282357e+001
      vertex  5.000000e+000 -1.000000e+000  3.282357e+001
      vertex  5.000000e+000  7.071068e-001  3.211646e+001
    endloop
  endfacet
  facet normal  1.000000e+000  0.000000e+000  0.000000e+000
    outer loop
      vertex  5.000000e+000  7.071068e-001  3.211646e+001
      vertex  5.000000e+000 -1.000000e+000  3.282357e+001
      vertex  5.000000e+000 -7.071068e-001  3.211646e+001
    endloop
  endfacet
  facet normal  9.999999e-001  -0.000000e+000  0.000000e+000
    outer loop
      vertex  5.000000e+000  7.071068e-001  3.211646e+001
      vertex  5.000000e+000 -7.071068e-001  3.211646e+001
      vertex  5.000000e+000 -1.836910e-016  3.182357e+001
    endloop
  endfacet
  facet normal -9.999999e-001  0.000000e+000  0.000000e+000
    outer loop
      vertex -5.000000e+000  6.123032e-017  3.382357e+001
      vertex -5.000000e+000  7.071068e-001  3.353068e+001
      vertex -5.000000e+000 -7.071068e-001  3.353068e+001
    endloop
  endfacet
  facet normal -9.999999e-001  0.000000e+000  0.000000e+000
    outer loop
      vertex -5.000000e+000 -1.836910e-016  3.182357e+001
      vertex -5.000000e+000 -7.071068e-001  3.211646e+001
      vertex -5.000000e+000  7.071068e-001  3.211646e+001
    endloop
  endfacet
  facet normal -1.000000e+000  0.000000e+000  0.000000e+000
    outer loop
      vertex -5.000000e+000  7.071068e-001  3.211646e+001
      vertex -5.000000e+000 -7.071068e-001  3.211646e+001
      vertex -5.000000e+000 -1.000000e+000  3.282357e+001
    endloop
  endfacet
  facet normal -9.999999e-001  0.000000e+000  0.000000e+000
    outer loop
      vertex -5.000000e+000  7.071068e-001  3.211646e+001
      vertex -5.000000e+000 -1.000000e+000  3.282357e+001
      vertex -5.000000e+000  1.000000e+000  3.282357e+001
    endloop
  endfacet
  facet normal -9.999999e-001  0.000000e+000  0.000000e+000
    outer loop
      vertex -5.000000e+000  1.000000e+000  3.282357e+001
      vertex -5.000000e+000 -1.000000e+000  3.282357e+001
      vertex -5.000000e+000 -7.071068e-001  3.353068e+001
    endloop
  endfacet
  facet normal -1.000000e+000  0.000000e+000  0.000000e+000
    outer loop
      vertex -5.000000e+000  1.000000e+000  3.282357e+001
      vertex -5.000000e+000 -7.071068e-001  3.353068e+001
      vertex -5.000000e+000  7.071068e-001  3.353068e+001
    endloop
  endfacet
  facet normal -5.270855e-025 -1.000041e-016 -1.000000e+000
    outer loop
      vertex  2.815395e-001 -9.595496e-001  9.595891e-017
      vertex -4.794255e-001 -8.775826e-001  8.776186e-017
      vertex  8.775826e-001 -4.794255e-001  4.794453e-017
    endloop
  endfacet
  facet normal -1.444286e-026 -1.000041e-016 -1.000000e+000
    outer loop
      vertex  8.775826e-001 -4.794255e-001  4.794453e-017
      vertex -4.794255e-001 -8.775826e-001  8.776186e-017
      vertex -9.595496e-001 -2.815395e-001  2.815511e-017
    endloop
  endfacet
  facet normal  1.824783e-025 -1.000041e-016 -9.999999e-001
    outer loop
      vertex  8.775826e-001 -4.794255e-001  4.794453e-017
      vertex -9.595496e-001 -2.815395e-001  2.815511e-017
      vertex  9.595496e-001  2.815395e-001 -2.815511e-017
    endloop
  endfacet
  facet normal  1.824783e-025 -1.000041e-016 -9.999999e-001
    outer loop
      vertex  9.595496e-001  2.815395e-001 -2.815511e-017
      vertex -9.595496e-001 -2.815395e-001  2.815511e-017
      vertex -8.775826e-001  4.794255e-001 -4.794453e-017
    endloop
  endfacet
  facet normal -1.444286e-026 -1.000041e-016 -1.000000e+000
    outer loop
      vertex  9.595496e-001  2.815395e-001 -2.815511e-017
      vertex -8.775826e-001  4.794255e-001 -4.794453e-017
      vertex  4.794255e-001  8.775826e-001 -8.776186e-017
    endloop
  endfacet
  facet normal -5.270855e-025 -1.000041e-016 -1.000000e+000
    outer loop
      vertex  4.794255e-001  8.775826e-001 -8.776186e-017
      vertex -8.775826e-001  4.794255e-001 -4.794453e-017
      vertex -2.815395e-001  9.595496e-001 -9.595891e-017
    endloop
  endfacet
  facet normal  1.070951e-001  9.942487e-001  -0.000000e+000
    outer loop
      vertex  4.794255e-001  8.775826e-001  3.000000e+001
      vertex  4.794255e-001  8.775826e-001 -8.776186e-017
      vertex -2.815395e-001  9.595496e-001  3.000000e+001
    endloop
  endfacet
  facet normal  1.070951e-001  9.942487e-001  0.000000e+000
    outer loop
      vertex -2.815395e-001  9.595496e-001  3.000000e+001
      vertex  4.794255e-001  8.775826e-001 -8.776186e-017
      vertex -2.815395e-001  9.595496e-001 -9.595891e-017
    endloop
  endfacet
  facet normal -6.273123e-001  7.787677e-001  0.000000e+000
    outer loop
      vertex -2.815395e-001  9.595496e-001  3.000000e+001
      vertex -2.815395e-001  9.595496e-001 -9.595891e-017
      vertex -8.775826e-001  4.794255e-001  3.000000e+001
    endloop
  endfacet
  facet normal -6.273123e-001  7.787677e-001  0.000000e+000
    outer loop
      vertex -8.775826e-001  4.794255e-001  3.000000e+001
      vertex -2.815395e-001  9.595496e-001 -9.595891e-017
      vertex -8.775826e-001  4.794255e-001 -4.794453e-017
    endloop
  endfacet
  facet normal -9.942487e-001  1.070951e-001  0.000000e+000
    outer loop
      vertex -8.775826e-001  4.794255e-001  3.000000e+001
      vertex -8.775826e-001  4.794255e-001 -4.794453e-017
      vertex -9.595496e-001 -2.815395e-001  3.000000e+001
    endloop
  endfacet
  facet normal -9.942487e-001  1.070951e-001  0.000000e+000
    outer loop
      vertex -9.595496e-001 -2.815395e-001  3.000000e+001
      vertex -8.775826e-001  4.794255e-001 -4.794453e-017
      vertex -9.595496e-001 -2.815395e-001  2.815511e-017
    endloop
  endfacet
  facet normal -7.787677e-001 -6.273123e-001  0.000000e+000
    outer loop
      vertex -9.595496e-001 -2.815395e-001  3.000000e+001
      vertex -9.595496e-001 -2.815395e-001  2.815511e-017
      vertex -4.794255e-001 -8.775826e-001  3.000000e+001
    endloop
  endfacet
  facet normal -7.787677e-001 -6.273123e-001  -0.000000e+000
    outer loop
      vertex -4.794255e-001 -8.775826e-001  3.000000e+001
      vertex -9.595496e-001 -2.815395e-001  2.815511e-017
      vertex -4.794255e-001 -8.775826e-001  8.776186e-017
    endloop
  endfacet
  facet normal -1.070951e-001 -9.942487e-001  0.000000e+000
    outer loop
      vertex -4.794255e-001 -8.775826e-001  3.000000e+001
      vertex -4.794255e-001 -8.775826e-001  8.776186e-017
      vertex  2.815395e-001 -9.595496e-001  3.000000e+001
    endloop
  endfacet
  facet normal -1.070951e-001 -9.942487e-001  -0.000000e+000
    outer loop
      vertex  2.815395e-001 -9.595496e-001  3.000000e+001
      vertex -4.794255e-001 -8.775826e-001  8.776186e-017
      vertex  2.815395e-001 -9.595496e-001  9.595891e-017
    endloop
  endfacet
  facet normal  6.273123e-001 -7.787677e-001  0.000000e+000
    outer loop
      vertex  2.815395e-001 -9.595496e-001  3.000000e+001
      vertex  2.815395e-001 -9.595496e-001  9.595891e-017
      vertex  8.775826e-001 -4.794255e-001  3.000000e+001
    endloop
  endfacet
  facet normal  6.273123e-001 -7.787677e-001  0.000000e+000
    outer loop
      vertex  8.775826e-001 -4.794255e-001  3.000000e+001
      vertex  2.815395e-001 -9.595496e-001  9.595891e-017
      vertex  8.775826e-001 -4.794255e-001  4.794453e-017
    endloop
  endfacet
  facet normal  9.942487e-001 -1.070951e-001  0.000000e+000
    outer loop
      vertex  8.775826e-001 -4.794255e-001  3.000000e+001
      vertex  8.775826e-001 -4.794255e-001  4.794453e-017
      vertex  9.595496e-001  2.815395e-001  3.000000e+001
    endloop
  endfacet
  facet normal  9.942487e-001 -1.070951e-001  0.000000e+000
    outer loop
      vertex  9.595496e-001  2.815395e-001  3.000000e+001
      vertex  8.775826e-001 -4.794255e-001  4.794453e-017
      vertex  9.595496e-001  2.815395e-001 -2.815511e-017
    endloop
  endfacet
  facet normal  7.787677e-001  6.273123e-001  -0.000000e+000
    outer loop
      vertex  9.595496e-001  2.815395e-001  3.000000e+001
      vertex  9.595496e-001  2.815395e-001 -2.815511e-017
      vertex  4.794255e-001  8.775826e-001  3.000000e+001
    endloop
  endfacet
  facet normal  7.787677e-001  6.273123e-001  0.000000e+000
    outer loop
      vertex  4.794255e-001  8.775826e-001  3.000000e+001
      vertex  9.595496e-001  2.815395e-001 -2.815511e-017
      vertex  4.794255e-001  8.775826e-001 -8.776186e-017
    endloop
  endfacet
endsolid CATIA STL
