solid CATIA STL
  facet normal  8.741573e-001  4.856429e-001  -0.000000e+000
    outer loop
      vertex  1.900000e+001 -2.550000e+001  2.500000e+000
      vertex  1.900000e+001 -2.550000e+001 -2.500000e+000
      vertex  9.000000e+000 -7.500000e+000  2.500000e+000
    endloop
  endfacet
  facet normal  8.741573e-001  4.856429e-001  0.000000e+000
    outer loop
      vertex  9.000000e+000 -7.500000e+000  2.500000e+000
      vertex  1.900000e+001 -2.550000e+001 -2.500000e+000
      vertex  9.000000e+000 -7.500000e+000 -2.500000e+000
    endloop
  endfacet
  facet normal  0.000000e+000  0.000000e+000  1.000000e+000
    outer loop
      vertex  1.277732e+001 -2.550000e+001  2.500000e+000
      vertex  1.900000e+001 -2.550000e+001  2.500000e+000
      vertex  1.450000e+001 -2.435000e+001  2.500000e+000
    endloop
  endfacet
  facet normal  0.000000e+000  0.000000e+000  1.000000e+000
    outer loop
      vertex  1.277732e+001 -2.550000e+001  2.500000e+000
      vertex  1.450000e+001 -2.435000e+001  2.500000e+000
      vertex  1.354541e+001 -2.395459e+001  2.500000e+000
    endloop
  endfacet
  facet normal  0.000000e+000  0.000000e+000  9.999999e-001
    outer loop
      vertex  1.277732e+001 -2.550000e+001  2.500000e+000
      vertex  1.354541e+001 -2.395459e+001  2.500000e+000
      vertex  1.315000e+001 -2.300000e+001  2.500000e+000
    endloop
  endfacet
  facet normal  0.000000e+000  0.000000e+000  1.000000e+000
    outer loop
      vertex  1.277732e+001 -2.550000e+001  2.500000e+000
      vertex  1.315000e+001 -2.300000e+001  2.500000e+000
      vertex  9.000000e+000 -7.500000e+000  2.500000e+000
    endloop
  endfacet
  facet normal  0.000000e+000  0.000000e+000  1.000000e+000
    outer loop
      vertex  1.277732e+001 -2.550000e+001  2.500000e+000
      vertex  9.000000e+000 -7.500000e+000  2.500000e+000
      vertex  2.777321e+000 -7.500000e+000  2.500000e+000
    endloop
  endfacet
  facet normal  0.000000e+000  -0.000000e+000  1.000000e+000
    outer loop
      vertex  9.000000e+000 -7.500000e+000  2.500000e+000
      vertex  1.315000e+001 -2.300000e+001  2.500000e+000
      vertex  1.354541e+001 -2.204541e+001  2.500000e+000
    endloop
  endfacet
  facet normal  0.000000e+000  -0.000000e+000  1.000000e+000
    outer loop
      vertex  9.000000e+000 -7.500000e+000  2.500000e+000
      vertex  1.354541e+001 -2.204541e+001  2.500000e+000
      vertex  1.450000e+001 -2.165000e+001  2.500000e+000
    endloop
  endfacet
  facet normal  -0.000000e+000  -0.000000e+000  1.000000e+000
    outer loop
      vertex  9.000000e+000 -7.500000e+000  2.500000e+000
      vertex  1.450000e+001 -2.165000e+001  2.500000e+000
      vertex  1.545459e+001 -2.204541e+001  2.500000e+000
    endloop
  endfacet
  facet normal  -0.000000e+000  -0.000000e+000  1.000000e+000
    outer loop
      vertex  9.000000e+000 -7.500000e+000  2.500000e+000
      vertex  1.545459e+001 -2.204541e+001  2.500000e+000
      vertex  1.900000e+001 -2.550000e+001  2.500000e+000
    endloop
  endfacet
  facet normal  0.000000e+000  0.000000e+000  1.000000e+000
    outer loop
      vertex  1.900000e+001 -2.550000e+001  2.500000e+000
      vertex  1.545459e+001 -2.204541e+001  2.500000e+000
      vertex  1.585000e+001 -2.300000e+001  2.500000e+000
    endloop
  endfacet
  facet normal  0.000000e+000  0.000000e+000  1.000000e+000
    outer loop
      vertex  1.900000e+001 -2.550000e+001  2.500000e+000
      vertex  1.585000e+001 -2.300000e+001  2.500000e+000
      vertex  1.545459e+001 -2.395459e+001  2.500000e+000
    endloop
  endfacet
  facet normal  0.000000e+000  0.000000e+000  1.000000e+000
    outer loop
      vertex  1.900000e+001 -2.550000e+001  2.500000e+000
      vertex  1.545459e+001 -2.395459e+001  2.500000e+000
      vertex  1.450000e+001 -2.435000e+001  2.500000e+000
    endloop
  endfacet
  facet normal  0.000000e+000  0.000000e+000 -1.000000e+000
    outer loop
      vertex  1.277732e+001 -2.550000e+001 -2.500000e+000
      vertex  2.777321e+000 -7.500000e+000 -2.500000e+000
      vertex  9.000000e+000 -7.500000e+000 -2.500000e+000
    endloop
  endfacet
  facet normal  0.000000e+000  0.000000e+000 -1.000000e+000
    outer loop
      vertex  1.277732e+001 -2.550000e+001 -2.500000e+000
      vertex  9.000000e+000 -7.500000e+000 -2.500000e+000
      vertex  1.315000e+001 -2.300000e+001 -2.500000e+000
    endloop
  endfacet
  facet normal  0.000000e+000  -0.000000e+000 -9.999999e-001
    outer loop
      vertex  1.277732e+001 -2.550000e+001 -2.500000e+000
      vertex  1.315000e+001 -2.300000e+001 -2.500000e+000
      vertex  1.354541e+001 -2.395459e+001 -2.500000e+000
    endloop
  endfacet
  facet normal  0.000000e+000  -0.000000e+000 -1.000000e+000
    outer loop
      vertex  1.277732e+001 -2.550000e+001 -2.500000e+000
      vertex  1.354541e+001 -2.395459e+001 -2.500000e+000
      vertex  1.450000e+001 -2.435000e+001 -2.500000e+000
    endloop
  endfacet
  facet normal  0.000000e+000  -0.000000e+000 -1.000000e+000
    outer loop
      vertex  1.277732e+001 -2.550000e+001 -2.500000e+000
      vertex  1.450000e+001 -2.435000e+001 -2.500000e+000
      vertex  1.900000e+001 -2.550000e+001 -2.500000e+000
    endloop
  endfacet
  facet normal  0.000000e+000  0.000000e+000 -1.000000e+000
    outer loop
      vertex  9.000000e+000 -7.500000e+000 -2.500000e+000
      vertex  1.900000e+001 -2.550000e+001 -2.500000e+000
      vertex  1.545459e+001 -2.204541e+001 -2.500000e+000
    endloop
  endfacet
  facet normal  0.000000e+000  0.000000e+000 -1.000000e+000
    outer loop
      vertex  9.000000e+000 -7.500000e+000 -2.500000e+000
      vertex  1.545459e+001 -2.204541e+001 -2.500000e+000
      vertex  1.450000e+001 -2.165000e+001 -2.500000e+000
    endloop
  endfacet
  facet normal  -0.000000e+000  0.000000e+000 -1.000000e+000
    outer loop
      vertex  9.000000e+000 -7.500000e+000 -2.500000e+000
      vertex  1.450000e+001 -2.165000e+001 -2.500000e+000
      vertex  1.354541e+001 -2.204541e+001 -2.500000e+000
    endloop
  endfacet
  facet normal  -0.000000e+000  0.000000e+000 -1.000000e+000
    outer loop
      vertex  9.000000e+000 -7.500000e+000 -2.500000e+000
      vertex  1.354541e+001 -2.204541e+001 -2.500000e+000
      vertex  1.315000e+001 -2.300000e+001 -2.500000e+000
    endloop
  endfacet
  facet normal  0.000000e+000  0.000000e+000 -1.000000e+000
    outer loop
      vertex  1.900000e+001 -2.550000e+001 -2.500000e+000
      vertex  1.450000e+001 -2.435000e+001 -2.500000e+000
      vertex  1.545459e+001 -2.395459e+001 -2.500000e+000
    endloop
  endfacet
  facet normal  0.000000e+000  0.000000e+000 -1.000000e+000
    outer loop
      vertex  1.900000e+001 -2.550000e+001 -2.500000e+000
      vertex  1.545459e+001 -2.395459e+001 -2.500000e+000
      vertex  1.585000e+001 -2.300000e+001 -2.500000e+000
    endloop
  endfacet
  facet normal  0.000000e+000  0.000000e+000 -1.000000e+000
    outer loop
      vertex  1.900000e+001 -2.550000e+001 -2.500000e+000
      vertex  1.585000e+001 -2.300000e+001 -2.500000e+000
      vertex  1.545459e+001 -2.204541e+001 -2.500000e+000
    endloop
  endfacet
  facet normal  0.000000e+000 -1.000000e+000  0.000000e+000
    outer loop
      vertex  0.000000e+000 -7.500000e+000  7.500000e+000
      vertex  9.000000e+000 -7.500000e+000  2.500000e+000
      vertex  9.000000e+000 -7.500000e+000  7.500000e+000
    endloop
  endfacet
  facet normal  0.000000e+000 -9.999999e-001  0.000000e+000
    outer loop
      vertex  9.000000e+000 -7.500000e+000  2.500000e+000
      vertex  0.000000e+000 -7.500000e+000  7.500000e+000
      vertex  2.777321e+000 -7.500000e+000  2.500000e+000
    endloop
  endfacet
  facet normal  -0.000000e+000 -1.000000e+000  0.000000e+000
    outer loop
      vertex  2.777321e+000 -7.500000e+000  2.500000e+000
      vertex  0.000000e+000 -7.500000e+000  7.500000e+000
      vertex  0.000000e+000 -7.500000e+000 -7.500000e+000
    endloop
  endfacet
  facet normal  0.000000e+000 -1.000000e+000  0.000000e+000
    outer loop
      vertex  2.777321e+000 -7.500000e+000  2.500000e+000
      vertex  0.000000e+000 -7.500000e+000 -7.500000e+000
      vertex  2.777321e+000 -7.500000e+000 -2.500000e+000
    endloop
  endfacet
  facet normal  0.000000e+000 -1.000000e+000  -0.000000e+000
    outer loop
      vertex  2.777321e+000 -7.500000e+000 -2.500000e+000
      vertex  0.000000e+000 -7.500000e+000 -7.500000e+000
      vertex  9.000000e+000 -7.500000e+000 -7.500000e+000
    endloop
  endfacet
  facet normal  0.000000e+000 -1.000000e+000  0.000000e+000
    outer loop
      vertex  2.777321e+000 -7.500000e+000 -2.500000e+000
      vertex  9.000000e+000 -7.500000e+000 -7.500000e+000
      vertex  9.000000e+000 -7.500000e+000 -2.500000e+000
    endloop
  endfacet
  facet normal -8.741573e-001 -4.856429e-001  0.000000e+000
    outer loop
      vertex  2.777321e+000 -7.500000e+000  2.500000e+000
      vertex  2.777321e+000 -7.500000e+000 -2.500000e+000
      vertex  1.277732e+001 -2.550000e+001  2.500000e+000
    endloop
  endfacet
  facet normal -8.741573e-001 -4.856429e-001  -0.000000e+000
    outer loop
      vertex  1.277732e+001 -2.550000e+001  2.500000e+000
      vertex  2.777321e+000 -7.500000e+000 -2.500000e+000
      vertex  1.277732e+001 -2.550000e+001 -2.500000e+000
    endloop
  endfacet
  facet normal  1.000000e+000  0.000000e+000  -0.000000e+000
    outer loop
      vertex  9.000000e+000 -7.500000e+000  2.500000e+000
      vertex  9.000000e+000 -1.803122e+000  1.803122e+000
      vertex  9.000000e+000  1.561373e-016  2.550000e+000
    endloop
  endfacet
  facet normal  1.000000e+000  -0.000000e+000  0.000000e+000
    outer loop
      vertex  9.000000e+000  7.500000e+000  7.500000e+000
      vertex  9.000000e+000 -7.500000e+000  7.500000e+000
      vertex  9.000000e+000 -7.500000e+000  2.500000e+000
    endloop
  endfacet
  facet normal  1.000000e+000  0.000000e+000  0.000000e+000
    outer loop
      vertex  9.000000e+000  7.500000e+000  7.500000e+000
      vertex  9.000000e+000 -7.500000e+000  2.500000e+000
      vertex  9.000000e+000  1.561373e-016  2.550000e+000
    endloop
  endfacet
  facet normal  1.000000e+000  -0.000000e+000  0.000000e+000
    outer loop
      vertex  9.000000e+000  7.500000e+000  7.500000e+000
      vertex  9.000000e+000  1.561373e-016  2.550000e+000
      vertex  9.000000e+000  1.803122e+000  1.803122e+000
    endloop
  endfacet
  facet normal  1.000000e+000  -0.000000e+000  0.000000e+000
    outer loop
      vertex  9.000000e+000  7.500000e+000  7.500000e+000
      vertex  9.000000e+000  1.803122e+000  1.803122e+000
      vertex  9.000000e+000  7.500000e+000 -7.500000e+000
    endloop
  endfacet
  facet normal  1.000000e+000  0.000000e+000  0.000000e+000
    outer loop
      vertex  9.000000e+000 -7.500000e+000 -2.500000e+000
      vertex  9.000000e+000 -7.500000e+000 -7.500000e+000
      vertex  9.000000e+000 -4.684119e-016 -2.550000e+000
    endloop
  endfacet
  facet normal  1.000000e+000  0.000000e+000  0.000000e+000
    outer loop
      vertex  9.000000e+000 -7.500000e+000 -2.500000e+000
      vertex  9.000000e+000 -4.684119e-016 -2.550000e+000
      vertex  9.000000e+000 -1.803122e+000 -1.803122e+000
    endloop
  endfacet
  facet normal  1.000000e+000  0.000000e+000  0.000000e+000
    outer loop
      vertex  9.000000e+000 -7.500000e+000 -2.500000e+000
      vertex  9.000000e+000 -1.803122e+000 -1.803122e+000
      vertex  9.000000e+000 -2.550000e+000  3.122746e-016
    endloop
  endfacet
  facet normal  1.000000e+000  0.000000e+000  -0.000000e+000
    outer loop
      vertex  9.000000e+000 -7.500000e+000 -2.500000e+000
      vertex  9.000000e+000 -2.550000e+000  3.122746e-016
      vertex  9.000000e+000 -1.803122e+000  1.803122e+000
    endloop
  endfacet
  facet normal  1.000000e+000  0.000000e+000  0.000000e+000
    outer loop
      vertex  9.000000e+000 -7.500000e+000 -2.500000e+000
      vertex  9.000000e+000 -1.803122e+000  1.803122e+000
      vertex  9.000000e+000 -7.500000e+000  2.500000e+000
    endloop
  endfacet
  facet normal  1.000000e+000  0.000000e+000  0.000000e+000
    outer loop
      vertex  9.000000e+000  7.500000e+000 -7.500000e+000
      vertex  9.000000e+000  1.803122e+000  1.803122e+000
      vertex  9.000000e+000  2.550000e+000  0.000000e+000
    endloop
  endfacet
  facet normal  1.000000e+000  0.000000e+000  0.000000e+000
    outer loop
      vertex  9.000000e+000  7.500000e+000 -7.500000e+000
      vertex  9.000000e+000  2.550000e+000  0.000000e+000
      vertex  9.000000e+000  1.803122e+000 -1.803122e+000
    endloop
  endfacet
  facet normal  1.000000e+000  0.000000e+000  0.000000e+000
    outer loop
      vertex  9.000000e+000  7.500000e+000 -7.500000e+000
      vertex  9.000000e+000  1.803122e+000 -1.803122e+000
      vertex  9.000000e+000 -4.684119e-016 -2.550000e+000
    endloop
  endfacet
  facet normal  1.000000e+000  0.000000e+000  0.000000e+000
    outer loop
      vertex  9.000000e+000  7.500000e+000 -7.500000e+000
      vertex  9.000000e+000 -4.684119e-016 -2.550000e+000
      vertex  9.000000e+000 -7.500000e+000 -7.500000e+000
    endloop
  endfacet
  facet normal  3.826840e-001 -9.238793e-001  0.000000e+000
    outer loop
      vertex  1.450000e+001 -2.165000e+001 -2.500000e+000
      vertex  1.354541e+001 -2.204541e+001  2.500000e+000
      vertex  1.354541e+001 -2.204541e+001 -2.500000e+000
    endloop
  endfacet
  facet normal  9.238794e-001 -3.826835e-001  0.000000e+000
    outer loop
      vertex  1.354541e+001 -2.204541e+001 -2.500000e+000
      vertex  1.354541e+001 -2.204541e+001  2.500000e+000
      vertex  1.315000e+001 -2.300000e+001  2.500000e+000
    endloop
  endfacet
  facet normal  9.238794e-001 -3.826835e-001  0.000000e+000
    outer loop
      vertex  1.354541e+001 -2.204541e+001 -2.500000e+000
      vertex  1.315000e+001 -2.300000e+001  2.500000e+000
      vertex  1.315000e+001 -2.300000e+001 -2.500000e+000
    endloop
  endfacet
  facet normal  3.826840e-001 -9.238793e-001  0.000000e+000
    outer loop
      vertex  1.354541e+001 -2.204541e+001  2.500000e+000
      vertex  1.450000e+001 -2.165000e+001 -2.500000e+000
      vertex  1.450000e+001 -2.165000e+001  2.500000e+000
    endloop
  endfacet
  facet normal -3.826840e-001 -9.238793e-001  -0.000000e+000
    outer loop
      vertex  1.450000e+001 -2.165000e+001  2.500000e+000
      vertex  1.450000e+001 -2.165000e+001 -2.500000e+000
      vertex  1.545459e+001 -2.204541e+001 -2.500000e+000
    endloop
  endfacet
  facet normal -3.826840e-001 -9.238793e-001  0.000000e+000
    outer loop
      vertex  1.450000e+001 -2.165000e+001  2.500000e+000
      vertex  1.545459e+001 -2.204541e+001 -2.500000e+000
      vertex  1.545459e+001 -2.204541e+001  2.500000e+000
    endloop
  endfacet
  facet normal -9.238794e-001 -3.826835e-001  -0.000000e+000
    outer loop
      vertex  1.545459e+001 -2.204541e+001  2.500000e+000
      vertex  1.545459e+001 -2.204541e+001 -2.500000e+000
      vertex  1.585000e+001 -2.300000e+001 -2.500000e+000
    endloop
  endfacet
  facet normal -9.238794e-001 -3.826835e-001  0.000000e+000
    outer loop
      vertex  1.545459e+001 -2.204541e+001  2.500000e+000
      vertex  1.585000e+001 -2.300000e+001 -2.500000e+000
      vertex  1.585000e+001 -2.300000e+001  2.500000e+000
    endloop
  endfacet
  facet normal -3.826840e-001  9.238793e-001  0.000000e+000
    outer loop
      vertex  1.450000e+001 -2.435000e+001 -2.500000e+000
      vertex  1.545459e+001 -2.395459e+001  2.500000e+000
      vertex  1.545459e+001 -2.395459e+001 -2.500000e+000
    endloop
  endfacet
  facet normal -9.238794e-001  3.826835e-001  0.000000e+000
    outer loop
      vertex  1.545459e+001 -2.395459e+001 -2.500000e+000
      vertex  1.545459e+001 -2.395459e+001  2.500000e+000
      vertex  1.585000e+001 -2.300000e+001  2.500000e+000
    endloop
  endfacet
  facet normal -9.238794e-001  3.826835e-001  0.000000e+000
    outer loop
      vertex  1.545459e+001 -2.395459e+001 -2.500000e+000
      vertex  1.585000e+001 -2.300000e+001  2.500000e+000
      vertex  1.585000e+001 -2.300000e+001 -2.500000e+000
    endloop
  endfacet
  facet normal -3.826840e-001  9.238793e-001  0.000000e+000
    outer loop
      vertex  1.545459e+001 -2.395459e+001  2.500000e+000
      vertex  1.450000e+001 -2.435000e+001 -2.500000e+000
      vertex  1.450000e+001 -2.435000e+001  2.500000e+000
    endloop
  endfacet
  facet normal  3.826840e-001  9.238793e-001  0.000000e+000
    outer loop
      vertex  1.450000e+001 -2.435000e+001  2.500000e+000
      vertex  1.450000e+001 -2.435000e+001 -2.500000e+000
      vertex  1.354541e+001 -2.395459e+001 -2.500000e+000
    endloop
  endfacet
  facet normal  3.826840e-001  9.238793e-001  -0.000000e+000
    outer loop
      vertex  1.450000e+001 -2.435000e+001  2.500000e+000
      vertex  1.354541e+001 -2.395459e+001 -2.500000e+000
      vertex  1.354541e+001 -2.395459e+001  2.500000e+000
    endloop
  endfacet
  facet normal  9.238794e-001  3.826835e-001  0.000000e+000
    outer loop
      vertex  1.354541e+001 -2.395459e+001  2.500000e+000
      vertex  1.354541e+001 -2.395459e+001 -2.500000e+000
      vertex  1.315000e+001 -2.300000e+001 -2.500000e+000
    endloop
  endfacet
  facet normal  9.238794e-001  3.826835e-001  -0.000000e+000
    outer loop
      vertex  1.354541e+001 -2.395459e+001  2.500000e+000
      vertex  1.315000e+001 -2.300000e+001 -2.500000e+000
      vertex  1.315000e+001 -2.300000e+001  2.500000e+000
    endloop
  endfacet
  facet normal  0.000000e+000 -1.000000e+000  0.000000e+000
    outer loop
      vertex  1.277732e+001 -2.550000e+001  2.500000e+000
      vertex  1.277732e+001 -2.550000e+001 -2.500000e+000
      vertex  1.900000e+001 -2.550000e+001  2.500000e+000
    endloop
  endfacet
  facet normal  0.000000e+000 -1.000000e+000  -0.000000e+000
    outer loop
      vertex  1.900000e+001 -2.550000e+001  2.500000e+000
      vertex  1.277732e+001 -2.550000e+001 -2.500000e+000
      vertex  1.900000e+001 -2.550000e+001 -2.500000e+000
    endloop
  endfacet
  facet normal  0.000000e+000  0.000000e+000 -1.000000e+000
    outer loop
      vertex  3.439340e+000  1.060660e+000 -7.500000e+000
      vertex  3.000000e+000  1.836910e-016 -7.500000e+000
      vertex  0.000000e+000  7.500000e+000 -7.500000e+000
    endloop
  endfacet
  facet normal  0.000000e+000  0.000000e+000 -1.000000e+000
    outer loop
      vertex  4.500000e+000  1.500000e+000 -7.500000e+000
      vertex  3.439340e+000  1.060660e+000 -7.500000e+000
      vertex  0.000000e+000  7.500000e+000 -7.500000e+000
    endloop
  endfacet
  facet normal  0.000000e+000  0.000000e+000 -1.000000e+000
    outer loop
      vertex  9.000000e+000 -7.500000e+000 -7.500000e+000
      vertex  5.560660e+000 -1.060660e+000 -7.500000e+000
      vertex  6.000000e+000  0.000000e+000 -7.500000e+000
    endloop
  endfacet
  facet normal  0.000000e+000  0.000000e+000 -1.000000e+000
    outer loop
      vertex  9.000000e+000  7.500000e+000 -7.500000e+000
      vertex  9.000000e+000 -7.500000e+000 -7.500000e+000
      vertex  6.000000e+000  0.000000e+000 -7.500000e+000
    endloop
  endfacet
  facet normal  0.000000e+000  0.000000e+000 -9.999999e-001
    outer loop
      vertex  9.000000e+000  7.500000e+000 -7.500000e+000
      vertex  6.000000e+000  0.000000e+000 -7.500000e+000
      vertex  5.560660e+000  1.060660e+000 -7.500000e+000
    endloop
  endfacet
  facet normal  0.000000e+000  0.000000e+000 -1.000000e+000
    outer loop
      vertex  9.000000e+000  7.500000e+000 -7.500000e+000
      vertex  5.560660e+000  1.060660e+000 -7.500000e+000
      vertex  4.500000e+000  1.500000e+000 -7.500000e+000
    endloop
  endfacet
  facet normal  0.000000e+000  0.000000e+000 -1.000000e+000
    outer loop
      vertex  9.000000e+000  7.500000e+000 -7.500000e+000
      vertex  4.500000e+000  1.500000e+000 -7.500000e+000
      vertex  0.000000e+000  7.500000e+000 -7.500000e+000
    endloop
  endfacet
  facet normal  0.000000e+000  0.000000e+000 -1.000000e+000
    outer loop
      vertex  0.000000e+000 -7.500000e+000 -7.500000e+000
      vertex  0.000000e+000  7.500000e+000 -7.500000e+000
      vertex  3.000000e+000  1.836910e-016 -7.500000e+000
    endloop
  endfacet
  facet normal  0.000000e+000  -0.000000e+000 -1.000000e+000
    outer loop
      vertex  0.000000e+000 -7.500000e+000 -7.500000e+000
      vertex  3.000000e+000  1.836910e-016 -7.500000e+000
      vertex  3.439340e+000 -1.060660e+000 -7.500000e+000
    endloop
  endfacet
  facet normal  0.000000e+000  -0.000000e+000 -1.000000e+000
    outer loop
      vertex  0.000000e+000 -7.500000e+000 -7.500000e+000
      vertex  3.439340e+000 -1.060660e+000 -7.500000e+000
      vertex  4.500000e+000 -1.500000e+000 -7.500000e+000
    endloop
  endfacet
  facet normal  0.000000e+000  -0.000000e+000 -1.000000e+000
    outer loop
      vertex  0.000000e+000 -7.500000e+000 -7.500000e+000
      vertex  4.500000e+000 -1.500000e+000 -7.500000e+000
      vertex  5.560660e+000 -1.060660e+000 -7.500000e+000
    endloop
  endfacet
  facet normal  0.000000e+000  -0.000000e+000 -1.000000e+000
    outer loop
      vertex  0.000000e+000 -7.500000e+000 -7.500000e+000
      vertex  5.560660e+000 -1.060660e+000 -7.500000e+000
      vertex  9.000000e+000 -7.500000e+000 -7.500000e+000
    endloop
  endfacet
  facet normal  9.238796e-001 -3.826833e-001  0.000000e+000
    outer loop
      vertex  6.000000e+000  0.000000e+000 -1.350000e+001
      vertex  6.000000e+000  0.000000e+000 -7.500000e+000
      vertex  5.560660e+000 -1.060660e+000 -1.350000e+001
    endloop
  endfacet
  facet normal  9.238796e-001 -3.826833e-001  0.000000e+000
    outer loop
      vertex  5.560660e+000 -1.060660e+000 -1.350000e+001
      vertex  6.000000e+000  0.000000e+000 -7.500000e+000
      vertex  5.560660e+000 -1.060660e+000 -7.500000e+000
    endloop
  endfacet
  facet normal  3.826834e-001 -9.238794e-001  0.000000e+000
    outer loop
      vertex  5.560660e+000 -1.060660e+000 -1.350000e+001
      vertex  5.560660e+000 -1.060660e+000 -7.500000e+000
      vertex  4.500000e+000 -1.500000e+000 -1.350000e+001
    endloop
  endfacet
  facet normal  3.826834e-001 -9.238794e-001  0.000000e+000
    outer loop
      vertex  4.500000e+000 -1.500000e+000 -1.350000e+001
      vertex  5.560660e+000 -1.060660e+000 -7.500000e+000
      vertex  4.500000e+000 -1.500000e+000 -7.500000e+000
    endloop
  endfacet
  facet normal -3.826835e-001 -9.238794e-001  -0.000000e+000
    outer loop
      vertex  4.500000e+000 -1.500000e+000 -1.350000e+001
      vertex  4.500000e+000 -1.500000e+000 -7.500000e+000
      vertex  3.439340e+000 -1.060660e+000 -1.350000e+001
    endloop
  endfacet
  facet normal -3.826835e-001 -9.238794e-001  0.000000e+000
    outer loop
      vertex  3.439340e+000 -1.060660e+000 -1.350000e+001
      vertex  4.500000e+000 -1.500000e+000 -7.500000e+000
      vertex  3.439340e+000 -1.060660e+000 -7.500000e+000
    endloop
  endfacet
  facet normal -9.238794e-001 -3.826835e-001  -0.000000e+000
    outer loop
      vertex  3.439340e+000 -1.060660e+000 -1.350000e+001
      vertex  3.439340e+000 -1.060660e+000 -7.500000e+000
      vertex  3.000000e+000  1.836910e-016 -1.350000e+001
    endloop
  endfacet
  facet normal -9.238794e-001 -3.826835e-001  0.000000e+000
    outer loop
      vertex  3.000000e+000  1.836910e-016 -1.350000e+001
      vertex  3.439340e+000 -1.060660e+000 -7.500000e+000
      vertex  3.000000e+000  1.836910e-016 -7.500000e+000
    endloop
  endfacet
  facet normal -9.238794e-001  3.826835e-001  0.000000e+000
    outer loop
      vertex  3.000000e+000  1.836910e-016 -1.350000e+001
      vertex  3.000000e+000  1.836910e-016 -7.500000e+000
      vertex  3.439340e+000  1.060660e+000 -1.350000e+001
    endloop
  endfacet
  facet normal -9.238794e-001  3.826835e-001  0.000000e+000
    outer loop
      vertex  3.439340e+000  1.060660e+000 -1.350000e+001
      vertex  3.000000e+000  1.836910e-016 -7.500000e+000
      vertex  3.439340e+000  1.060660e+000 -7.500000e+000
    endloop
  endfacet
  facet normal -3.826835e-001  9.238794e-001  0.000000e+000
    outer loop
      vertex  3.439340e+000  1.060660e+000 -1.350000e+001
      vertex  3.439340e+000  1.060660e+000 -7.500000e+000
      vertex  4.500000e+000  1.500000e+000 -1.350000e+001
    endloop
  endfacet
  facet normal -3.826835e-001  9.238794e-001  0.000000e+000
    outer loop
      vertex  4.500000e+000  1.500000e+000 -1.350000e+001
      vertex  3.439340e+000  1.060660e+000 -7.500000e+000
      vertex  4.500000e+000  1.500000e+000 -7.500000e+000
    endloop
  endfacet
  facet normal  3.826834e-001  9.238794e-001  0.000000e+000
    outer loop
      vertex  4.500000e+000  1.500000e+000 -1.350000e+001
      vertex  4.500000e+000  1.500000e+000 -7.500000e+000
      vertex  5.560660e+000  1.060660e+000 -1.350000e+001
    endloop
  endfacet
  facet normal  3.826834e-001  9.238794e-001  -0.000000e+000
    outer loop
      vertex  5.560660e+000  1.060660e+000 -1.350000e+001
      vertex  4.500000e+000  1.500000e+000 -7.500000e+000
      vertex  5.560660e+000  1.060660e+000 -7.500000e+000
    endloop
  endfacet
  facet normal  9.238796e-001  3.826833e-001  0.000000e+000
    outer loop
      vertex  5.560660e+000  1.060660e+000 -1.350000e+001
      vertex  5.560660e+000  1.060660e+000 -7.500000e+000
      vertex  6.000000e+000  0.000000e+000 -1.350000e+001
    endloop
  endfacet
  facet normal  9.238796e-001  3.826833e-001  -0.000000e+000
    outer loop
      vertex  6.000000e+000  0.000000e+000 -1.350000e+001
      vertex  5.560660e+000  1.060660e+000 -7.500000e+000
      vertex  6.000000e+000  0.000000e+000 -7.500000e+000
    endloop
  endfacet
  facet normal  0.000000e+000  0.000000e+000 -1.000000e+000
    outer loop
      vertex  4.500000e+000  1.500000e+000 -1.350000e+001
      vertex  5.560660e+000  1.060660e+000 -1.350000e+001
      vertex  3.439340e+000  1.060660e+000 -1.350000e+001
    endloop
  endfacet
  facet normal  0.000000e+000  0.000000e+000 -1.000000e+000
    outer loop
      vertex  4.500000e+000 -1.500000e+000 -1.350000e+001
      vertex  3.439340e+000 -1.060660e+000 -1.350000e+001
      vertex  5.560660e+000 -1.060660e+000 -1.350000e+001
    endloop
  endfacet
  facet normal  0.000000e+000  0.000000e+000 -1.000000e+000
    outer loop
      vertex  5.560660e+000 -1.060660e+000 -1.350000e+001
      vertex  3.439340e+000 -1.060660e+000 -1.350000e+001
      vertex  3.000000e+000  1.836910e-016 -1.350000e+001
    endloop
  endfacet
  facet normal  0.000000e+000  0.000000e+000 -1.000000e+000
    outer loop
      vertex  5.560660e+000 -1.060660e+000 -1.350000e+001
      vertex  3.000000e+000  1.836910e-016 -1.350000e+001
      vertex  6.000000e+000  0.000000e+000 -1.350000e+001
    endloop
  endfacet
  facet normal  0.000000e+000  0.000000e+000 -1.000000e+000
    outer loop
      vertex  6.000000e+000  0.000000e+000 -1.350000e+001
      vertex  3.000000e+000  1.836910e-016 -1.350000e+001
      vertex  3.439340e+000  1.060660e+000 -1.350000e+001
    endloop
  endfacet
  facet normal  0.000000e+000  0.000000e+000 -1.000000e+000
    outer loop
      vertex  6.000000e+000  0.000000e+000 -1.350000e+001
      vertex  3.439340e+000  1.060660e+000 -1.350000e+001
      vertex  5.560660e+000  1.060660e+000 -1.350000e+001
    endloop
  endfacet
  facet normal  0.000000e+000  0.000000e+000  1.000000e+000
    outer loop
      vertex  3.439340e+000 -1.060660e+000  7.500000e+000
      vertex  3.000000e+000  1.836910e-016  7.500000e+000
      vertex  0.000000e+000 -7.500000e+000  7.500000e+000
    endloop
  endfacet
  facet normal  0.000000e+000  0.000000e+000  1.000000e+000
    outer loop
      vertex  4.500000e+000 -1.500000e+000  7.500000e+000
      vertex  3.439340e+000 -1.060660e+000  7.500000e+000
      vertex  0.000000e+000 -7.500000e+000  7.500000e+000
    endloop
  endfacet
  facet normal  -0.000000e+000  0.000000e+000  1.000000e+000
    outer loop
      vertex  9.000000e+000  7.500000e+000  7.500000e+000
      vertex  5.560660e+000  1.060660e+000  7.500000e+000
      vertex  6.000000e+000 -3.673819e-016  7.500000e+000
    endloop
  endfacet
  facet normal  0.000000e+000  0.000000e+000  1.000000e+000
    outer loop
      vertex  9.000000e+000 -7.500000e+000  7.500000e+000
      vertex  9.000000e+000  7.500000e+000  7.500000e+000
      vertex  6.000000e+000 -3.673819e-016  7.500000e+000
    endloop
  endfacet
  facet normal  0.000000e+000  0.000000e+000  9.999999e-001
    outer loop
      vertex  9.000000e+000 -7.500000e+000  7.500000e+000
      vertex  6.000000e+000 -3.673819e-016  7.500000e+000
      vertex  5.560660e+000 -1.060660e+000  7.500000e+000
    endloop
  endfacet
  facet normal  0.000000e+000  0.000000e+000  1.000000e+000
    outer loop
      vertex  9.000000e+000 -7.500000e+000  7.500000e+000
      vertex  5.560660e+000 -1.060660e+000  7.500000e+000
      vertex  4.500000e+000 -1.500000e+000  7.500000e+000
    endloop
  endfacet
  facet normal  0.000000e+000  0.000000e+000  1.000000e+000
    outer loop
      vertex  9.000000e+000 -7.500000e+000  7.500000e+000
      vertex  4.500000e+000 -1.500000e+000  7.500000e+000
      vertex  0.000000e+000 -7.500000e+000  7.500000e+000
    endloop
  endfacet
  facet normal  0.000000e+000  0.000000e+000  1.000000e+000
    outer loop
      vertex  0.000000e+000  7.500000e+000  7.500000e+000
      vertex  0.000000e+000 -7.500000e+000  7.500000e+000
      vertex  3.000000e+000  1.836910e-016  7.500000e+000
    endloop
  endfacet
  facet normal  0.000000e+000  -0.000000e+000  1.000000e+000
    outer loop
      vertex  0.000000e+000  7.500000e+000  7.500000e+000
      vertex  3.000000e+000  1.836910e-016  7.500000e+000
      vertex  3.439340e+000  1.060660e+000  7.500000e+000
    endloop
  endfacet
  facet normal  0.000000e+000  -0.000000e+000  1.000000e+000
    outer loop
      vertex  0.000000e+000  7.500000e+000  7.500000e+000
      vertex  3.439340e+000  1.060660e+000  7.500000e+000
      vertex  4.500000e+000  1.500000e+000  7.500000e+000
    endloop
  endfacet
  facet normal  -0.000000e+000  -0.000000e+000  1.000000e+000
    outer loop
      vertex  0.000000e+000  7.500000e+000  7.500000e+000
      vertex  4.500000e+000  1.500000e+000  7.500000e+000
      vertex  5.560660e+000  1.060660e+000  7.500000e+000
    endloop
  endfacet
  facet normal  0.000000e+000  -0.000000e+000  1.000000e+000
    outer loop
      vertex  0.000000e+000  7.500000e+000  7.500000e+000
      vertex  5.560660e+000  1.060660e+000  7.500000e+000
      vertex  9.000000e+000  7.500000e+000  7.500000e+000
    endloop
  endfacet
  facet normal  9.238796e-001 -3.826833e-001  2.343182e-017
    outer loop
      vertex  6.000000e+000 -3.673819e-016  7.500000e+000
      vertex  6.000000e+000  0.000000e+000  1.350000e+001
      vertex  5.560660e+000 -1.060660e+000  7.500000e+000
    endloop
  endfacet
  facet normal  9.238796e-001 -3.826833e-001  0.000000e+000
    outer loop
      vertex  5.560660e+000 -1.060660e+000  7.500000e+000
      vertex  6.000000e+000  0.000000e+000  1.350000e+001
      vertex  5.560660e+000 -1.060660e+000  1.350000e+001
    endloop
  endfacet
  facet normal  3.826834e-001 -9.238794e-001  0.000000e+000
    outer loop
      vertex  5.560660e+000 -1.060660e+000  7.500000e+000
      vertex  5.560660e+000 -1.060660e+000  1.350000e+001
      vertex  4.500000e+000 -1.500000e+000  7.500000e+000
    endloop
  endfacet
  facet normal  3.826834e-001 -9.238794e-001  0.000000e+000
    outer loop
      vertex  4.500000e+000 -1.500000e+000  7.500000e+000
      vertex  5.560660e+000 -1.060660e+000  1.350000e+001
      vertex  4.500000e+000 -1.500000e+000  1.350000e+001
    endloop
  endfacet
  facet normal -3.826835e-001 -9.238794e-001  -0.000000e+000
    outer loop
      vertex  4.500000e+000 -1.500000e+000  7.500000e+000
      vertex  4.500000e+000 -1.500000e+000  1.350000e+001
      vertex  3.439340e+000 -1.060660e+000  7.500000e+000
    endloop
  endfacet
  facet normal -3.826835e-001 -9.238794e-001  0.000000e+000
    outer loop
      vertex  3.439340e+000 -1.060660e+000  7.500000e+000
      vertex  4.500000e+000 -1.500000e+000  1.350000e+001
      vertex  3.439340e+000 -1.060660e+000  1.350000e+001
    endloop
  endfacet
  facet normal -9.238794e-001 -3.826835e-001  -0.000000e+000
    outer loop
      vertex  3.439340e+000 -1.060660e+000  7.500000e+000
      vertex  3.439340e+000 -1.060660e+000  1.350000e+001
      vertex  3.000000e+000  1.836910e-016  7.500000e+000
    endloop
  endfacet
  facet normal -9.238794e-001 -3.826835e-001  0.000000e+000
    outer loop
      vertex  3.000000e+000  1.836910e-016  7.500000e+000
      vertex  3.439340e+000 -1.060660e+000  1.350000e+001
      vertex  3.000000e+000  1.836910e-016  1.350000e+001
    endloop
  endfacet
  facet normal -9.238794e-001  3.826835e-001  0.000000e+000
    outer loop
      vertex  3.000000e+000  1.836910e-016  7.500000e+000
      vertex  3.000000e+000  1.836910e-016  1.350000e+001
      vertex  3.439340e+000  1.060660e+000  7.500000e+000
    endloop
  endfacet
  facet normal -9.238794e-001  3.826835e-001  0.000000e+000
    outer loop
      vertex  3.439340e+000  1.060660e+000  7.500000e+000
      vertex  3.000000e+000  1.836910e-016  1.350000e+001
      vertex  3.439340e+000  1.060660e+000  1.350000e+001
    endloop
  endfacet
  facet normal -3.826835e-001  9.238794e-001  0.000000e+000
    outer loop
      vertex  3.439340e+000  1.060660e+000  7.500000e+000
      vertex  3.439340e+000  1.060660e+000  1.350000e+001
      vertex  4.500000e+000  1.500000e+000  7.500000e+000
    endloop
  endfacet
  facet normal -3.826835e-001  9.238794e-001  0.000000e+000
    outer loop
      vertex  4.500000e+000  1.500000e+000  7.500000e+000
      vertex  3.439340e+000  1.060660e+000  1.350000e+001
      vertex  4.500000e+000  1.500000e+000  1.350000e+001
    endloop
  endfacet
  facet normal  3.826834e-001  9.238794e-001  0.000000e+000
    outer loop
      vertex  4.500000e+000  1.500000e+000  7.500000e+000
      vertex  4.500000e+000  1.500000e+000  1.350000e+001
      vertex  5.560660e+000  1.060660e+000  7.500000e+000
    endloop
  endfacet
  facet normal  3.826834e-001  9.238794e-001  -0.000000e+000
    outer loop
      vertex  5.560660e+000  1.060660e+000  7.500000e+000
      vertex  4.500000e+000  1.500000e+000  1.350000e+001
      vertex  5.560660e+000  1.060660e+000  1.350000e+001
    endloop
  endfacet
  facet normal  9.238796e-001  3.826833e-001  0.000000e+000
    outer loop
      vertex  5.560660e+000  1.060660e+000  7.500000e+000
      vertex  5.560660e+000  1.060660e+000  1.350000e+001
      vertex  6.000000e+000 -3.673819e-016  7.500000e+000
    endloop
  endfacet
  facet normal  9.238796e-001  3.826833e-001 -2.343182e-017
    outer loop
      vertex  6.000000e+000 -3.673819e-016  7.500000e+000
      vertex  5.560660e+000  1.060660e+000  1.350000e+001
      vertex  6.000000e+000  0.000000e+000  1.350000e+001
    endloop
  endfacet
  facet normal  0.000000e+000  0.000000e+000  1.000000e+000
    outer loop
      vertex  3.439340e+000  1.060660e+000  1.350000e+001
      vertex  5.560660e+000  1.060660e+000  1.350000e+001
      vertex  4.500000e+000  1.500000e+000  1.350000e+001
    endloop
  endfacet
  facet normal  -0.000000e+000  0.000000e+000  1.000000e+000
    outer loop
      vertex  5.560660e+000  1.060660e+000  1.350000e+001
      vertex  3.439340e+000  1.060660e+000  1.350000e+001
      vertex  6.000000e+000  0.000000e+000  1.350000e+001
    endloop
  endfacet
  facet normal  0.000000e+000  0.000000e+000  1.000000e+000
    outer loop
      vertex  6.000000e+000  0.000000e+000  1.350000e+001
      vertex  3.439340e+000  1.060660e+000  1.350000e+001
      vertex  3.000000e+000  1.836910e-016  1.350000e+001
    endloop
  endfacet
  facet normal  0.000000e+000  0.000000e+000  1.000000e+000
    outer loop
      vertex  6.000000e+000  0.000000e+000  1.350000e+001
      vertex  3.000000e+000  1.836910e-016  1.350000e+001
      vertex  5.560660e+000 -1.060660e+000  1.350000e+001
    endloop
  endfacet
  facet normal  0.000000e+000  0.000000e+000  1.000000e+000
    outer loop
      vertex  5.560660e+000 -1.060660e+000  1.350000e+001
      vertex  3.000000e+000  1.836910e-016  1.350000e+001
      vertex  3.439340e+000 -1.060660e+000  1.350000e+001
    endloop
  endfacet
  facet normal  -0.000000e+000  0.000000e+000  1.000000e+000
    outer loop
      vertex  5.560660e+000 -1.060660e+000  1.350000e+001
      vertex  3.439340e+000 -1.060660e+000  1.350000e+001
      vertex  4.500000e+000 -1.500000e+000  1.350000e+001
    endloop
  endfacet
  facet normal -1.000000e+000  0.000000e+000  0.000000e+000
    outer loop
      vertex  0.000000e+000  7.500000e+000  7.500000e+000
      vertex  0.000000e+000  7.500000e+000 -7.500000e+000
      vertex  0.000000e+000  1.803122e+000  1.803122e+000
    endloop
  endfacet
  facet normal -1.000000e+000  0.000000e+000  0.000000e+000
    outer loop
      vertex  0.000000e+000  7.500000e+000  7.500000e+000
      vertex  0.000000e+000  1.803122e+000  1.803122e+000
      vertex  0.000000e+000  1.561373e-016  2.550000e+000
    endloop
  endfacet
  facet normal -1.000000e+000  -0.000000e+000  0.000000e+000
    outer loop
      vertex  0.000000e+000  7.500000e+000  7.500000e+000
      vertex  0.000000e+000  1.561373e-016  2.550000e+000
      vertex  0.000000e+000 -1.803122e+000  1.803122e+000
    endloop
  endfacet
  facet normal -1.000000e+000  0.000000e+000  0.000000e+000
    outer loop
      vertex  0.000000e+000  7.500000e+000  7.500000e+000
      vertex  0.000000e+000 -1.803122e+000  1.803122e+000
      vertex  0.000000e+000 -7.500000e+000  7.500000e+000
    endloop
  endfacet
  facet normal -1.000000e+000  0.000000e+000  0.000000e+000
    outer loop
      vertex  0.000000e+000 -7.500000e+000 -7.500000e+000
      vertex  0.000000e+000 -7.500000e+000  7.500000e+000
      vertex  0.000000e+000 -1.803122e+000  1.803122e+000
    endloop
  endfacet
  facet normal -1.000000e+000  0.000000e+000  0.000000e+000
    outer loop
      vertex  0.000000e+000 -7.500000e+000 -7.500000e+000
      vertex  0.000000e+000 -1.803122e+000  1.803122e+000
      vertex  0.000000e+000 -2.550000e+000  3.122746e-016
    endloop
  endfacet
  facet normal -1.000000e+000  0.000000e+000  -0.000000e+000
    outer loop
      vertex  0.000000e+000 -7.500000e+000 -7.500000e+000
      vertex  0.000000e+000 -2.550000e+000  3.122746e-016
      vertex  0.000000e+000 -1.803122e+000 -1.803122e+000
    endloop
  endfacet
  facet normal -1.000000e+000  0.000000e+000  -0.000000e+000
    outer loop
      vertex  0.000000e+000 -7.500000e+000 -7.500000e+000
      vertex  0.000000e+000 -1.803122e+000 -1.803122e+000
      vertex  0.000000e+000 -4.684119e-016 -2.550000e+000
    endloop
  endfacet
  facet normal -1.000000e+000  0.000000e+000  -0.000000e+000
    outer loop
      vertex  0.000000e+000 -7.500000e+000 -7.500000e+000
      vertex  0.000000e+000 -4.684119e-016 -2.550000e+000
      vertex  0.000000e+000  7.500000e+000 -7.500000e+000
    endloop
  endfacet
  facet normal -1.000000e+000  0.000000e+000  0.000000e+000
    outer loop
      vertex  0.000000e+000  7.500000e+000 -7.500000e+000
      vertex  0.000000e+000 -4.684119e-016 -2.550000e+000
      vertex  0.000000e+000  1.803122e+000 -1.803122e+000
    endloop
  endfacet
  facet normal -1.000000e+000  0.000000e+000  0.000000e+000
    outer loop
      vertex  0.000000e+000  7.500000e+000 -7.500000e+000
      vertex  0.000000e+000  1.803122e+000 -1.803122e+000
      vertex  0.000000e+000  2.550000e+000  0.000000e+000
    endloop
  endfacet
  facet normal -1.000000e+000  0.000000e+000  0.000000e+000
    outer loop
      vertex  0.000000e+000  7.500000e+000 -7.500000e+000
      vertex  0.000000e+000  2.550000e+000  0.000000e+000
      vertex  0.000000e+000  1.803122e+000  1.803122e+000
    endloop
  endfacet
  facet normal  0.000000e+000  3.826834e-001 -9.238796e-001
    outer loop
      vertex  0.000000e+000  1.561373e-016  2.550000e+000
      vertex  9.000000e+000 -1.803122e+000  1.803122e+000
      vertex  0.000000e+000 -1.803122e+000  1.803122e+000
    endloop
  endfacet
  facet normal  0.000000e+000  9.238796e-001 -3.826834e-001
    outer loop
      vertex  0.000000e+000 -1.803122e+000  1.803122e+000
      vertex  9.000000e+000 -1.803122e+000  1.803122e+000
      vertex  9.000000e+000 -2.550000e+000  3.122746e-016
    endloop
  endfacet
  facet normal  0.000000e+000  9.238796e-001 -3.826834e-001
    outer loop
      vertex  0.000000e+000 -1.803122e+000  1.803122e+000
      vertex  9.000000e+000 -2.550000e+000  3.122746e-016
      vertex  0.000000e+000 -2.550000e+000  3.122746e-016
    endloop
  endfacet
  facet normal  0.000000e+000  3.826834e-001 -9.238796e-001
    outer loop
      vertex  9.000000e+000 -1.803122e+000  1.803122e+000
      vertex  0.000000e+000  1.561373e-016  2.550000e+000
      vertex  9.000000e+000  1.561373e-016  2.550000e+000
    endloop
  endfacet
  facet normal  -0.000000e+000 -3.826834e-001 -9.238796e-001
    outer loop
      vertex  9.000000e+000  1.561373e-016  2.550000e+000
      vertex  0.000000e+000  1.561373e-016  2.550000e+000
      vertex  0.000000e+000  1.803122e+000  1.803122e+000
    endloop
  endfacet
  facet normal  0.000000e+000 -3.826834e-001 -9.238796e-001
    outer loop
      vertex  9.000000e+000  1.561373e-016  2.550000e+000
      vertex  0.000000e+000  1.803122e+000  1.803122e+000
      vertex  9.000000e+000  1.803122e+000  1.803122e+000
    endloop
  endfacet
  facet normal  -0.000000e+000 -9.238796e-001 -3.826834e-001
    outer loop
      vertex  9.000000e+000  1.803122e+000  1.803122e+000
      vertex  0.000000e+000  1.803122e+000  1.803122e+000
      vertex  0.000000e+000  2.550000e+000  0.000000e+000
    endloop
  endfacet
  facet normal  0.000000e+000 -9.238796e-001 -3.826834e-001
    outer loop
      vertex  9.000000e+000  1.803122e+000  1.803122e+000
      vertex  0.000000e+000  2.550000e+000  0.000000e+000
      vertex  9.000000e+000  2.550000e+000  0.000000e+000
    endloop
  endfacet
  facet normal  0.000000e+000 -3.826834e-001  9.238796e-001
    outer loop
      vertex  0.000000e+000 -4.684119e-016 -2.550000e+000
      vertex  9.000000e+000  1.803122e+000 -1.803122e+000
      vertex  0.000000e+000  1.803122e+000 -1.803122e+000
    endloop
  endfacet
  facet normal  0.000000e+000 -9.238796e-001  3.826834e-001
    outer loop
      vertex  0.000000e+000  1.803122e+000 -1.803122e+000
      vertex  9.000000e+000  1.803122e+000 -1.803122e+000
      vertex  9.000000e+000  2.550000e+000  0.000000e+000
    endloop
  endfacet
  facet normal  0.000000e+000 -9.238796e-001  3.826834e-001
    outer loop
      vertex  0.000000e+000  1.803122e+000 -1.803122e+000
      vertex  9.000000e+000  2.550000e+000  0.000000e+000
      vertex  0.000000e+000  2.550000e+000  0.000000e+000
    endloop
  endfacet
  facet normal  0.000000e+000 -3.826834e-001  9.238796e-001
    outer loop
      vertex  9.000000e+000  1.803122e+000 -1.803122e+000
      vertex  0.000000e+000 -4.684119e-016 -2.550000e+000
      vertex  9.000000e+000 -4.684119e-016 -2.550000e+000
    endloop
  endfacet
  facet normal  0.000000e+000  3.826834e-001  9.238796e-001
    outer loop
      vertex  9.000000e+000 -4.684119e-016 -2.550000e+000
      vertex  0.000000e+000 -4.684119e-016 -2.550000e+000
      vertex  0.000000e+000 -1.803122e+000 -1.803122e+000
    endloop
  endfacet
  facet normal  -0.000000e+000  3.826834e-001  9.238796e-001
    outer loop
      vertex  9.000000e+000 -4.684119e-016 -2.550000e+000
      vertex  0.000000e+000 -1.803122e+000 -1.803122e+000
      vertex  9.000000e+000 -1.803122e+000 -1.803122e+000
    endloop
  endfacet
  facet normal  0.000000e+000  9.238796e-001  3.826834e-001
    outer loop
      vertex  9.000000e+000 -1.803122e+000 -1.803122e+000
      vertex  0.000000e+000 -1.803122e+000 -1.803122e+000
      vertex  0.000000e+000 -2.550000e+000  3.122746e-016
    endloop
  endfacet
  facet normal  -0.000000e+000  9.238796e-001  3.826834e-001
    outer loop
      vertex  9.000000e+000 -1.803122e+000 -1.803122e+000
      vertex  0.000000e+000 -2.550000e+000  3.122746e-016
      vertex  9.000000e+000 -2.550000e+000  3.122746e-016
    endloop
  endfacet
  facet normal  0.000000e+000  1.000000e+000  -0.000000e+000
    outer loop
      vertex  9.000000e+000  7.500000e+000  7.500000e+000
      vertex  9.000000e+000  7.500000e+000 -7.500000e+000
      vertex  0.000000e+000  7.500000e+000  7.500000e+000
    endloop
  endfacet
  facet normal  0.000000e+000  1.000000e+000  0.000000e+000
    outer loop
      vertex  0.000000e+000  7.500000e+000  7.500000e+000
      vertex  9.000000e+000  7.500000e+000 -7.500000e+000
      vertex  0.000000e+000  7.500000e+000 -7.500000e+000
    endloop
  endfacet
endsolid CATIA STL
