solid CATIA STL
  facet normal  0.000000e+000  0.000000e+000 -9.999999e-001
    outer loop
      vertex  1.488388e+001 -1.616117e+000  0.000000e+000
      vertex  1.400000e+001 -1.250000e+000  0.000000e+000
      vertex  1.800000e+001  2.664535e-015  0.000000e+000
    endloop
  endfacet
  facet normal  0.000000e+000  0.000000e+000 -1.000000e+000
    outer loop
      vertex  1.400000e+001  1.955000e+001  0.000000e+000
      vertex  1.311612e+001  1.918388e+001  0.000000e+000
      vertex  1.000000e+001  2.080000e+001  0.000000e+000
    endloop
  endfacet
  facet normal  0.000000e+000  0.000000e+000 -1.000000e+000
    outer loop
      vertex  1.800000e+001  2.080000e+001  0.000000e+000
      vertex  1.800000e+001  1.580000e+001  0.000000e+000
      vertex  1.488388e+001  1.918388e+001  0.000000e+000
    endloop
  endfacet
  facet normal  0.000000e+000  0.000000e+000 -1.000000e+000
    outer loop
      vertex  1.800000e+001  2.080000e+001  0.000000e+000
      vertex  1.488388e+001  1.918388e+001  0.000000e+000
      vertex  1.400000e+001  1.955000e+001  0.000000e+000
    endloop
  endfacet
  facet normal  0.000000e+000  0.000000e+000 -1.000000e+000
    outer loop
      vertex  1.800000e+001  2.080000e+001  0.000000e+000
      vertex  1.400000e+001  1.955000e+001  0.000000e+000
      vertex  1.000000e+001  2.080000e+001  0.000000e+000
    endloop
  endfacet
  facet normal  0.000000e+000  0.000000e+000 -1.000000e+000
    outer loop
      vertex  1.000000e+001  8.921060e-015  0.000000e+000
      vertex  1.500000e+000  1.500000e+000  0.000000e+000
      vertex  1.800000e+001  2.664535e-015  0.000000e+000
    endloop
  endfacet
  facet normal  -0.000000e+000  0.000000e+000 -1.000000e+000
    outer loop
      vertex  1.000000e+001  8.921060e-015  0.000000e+000
      vertex  1.800000e+001  2.664535e-015  0.000000e+000
      vertex  1.400000e+001 -1.250000e+000  0.000000e+000
    endloop
  endfacet
  facet normal  -0.000000e+000  0.000000e+000 -9.999999e-001
    outer loop
      vertex  1.000000e+001  8.921060e-015  0.000000e+000
      vertex  1.400000e+001 -1.250000e+000  0.000000e+000
      vertex  1.311612e+001 -1.616117e+000  0.000000e+000
    endloop
  endfacet
  facet normal  -0.000000e+000  0.000000e+000 -1.000000e+000
    outer loop
      vertex  1.000000e+001  8.921060e-015  0.000000e+000
      vertex  1.311612e+001 -1.616117e+000  0.000000e+000
      vertex  1.000000e+001 -5.000000e+000  0.000000e+000
    endloop
  endfacet
  facet normal  0.000000e+000  0.000000e+000 -1.000000e+000
    outer loop
      vertex -5.000000e+000  3.100000e+000  0.000000e+000
      vertex -5.000000e+000  1.310000e+001  0.000000e+000
      vertex -3.100000e+000  8.100000e+000  0.000000e+000
    endloop
  endfacet
  facet normal  0.000000e+000  -0.000000e+000 -9.999999e-001
    outer loop
      vertex -5.000000e+000  3.100000e+000  0.000000e+000
      vertex -3.100000e+000  8.100000e+000  0.000000e+000
      vertex -2.777817e+000  7.322183e+000  0.000000e+000
    endloop
  endfacet
  facet normal  0.000000e+000  -0.000000e+000 -1.000000e+000
    outer loop
      vertex -5.000000e+000  3.100000e+000  0.000000e+000
      vertex -2.777817e+000  7.322183e+000  0.000000e+000
      vertex -2.000000e+000  7.000000e+000  0.000000e+000
    endloop
  endfacet
  facet normal  0.000000e+000  -0.000000e+000 -1.000000e+000
    outer loop
      vertex -5.000000e+000  3.100000e+000  0.000000e+000
      vertex -2.000000e+000  7.000000e+000  0.000000e+000
      vertex  8.881784e-015  3.100000e+000  0.000000e+000
    endloop
  endfacet
  facet normal  0.000000e+000  0.000000e+000 -1.000000e+000
    outer loop
      vertex  1.923387e-016  1.310000e+001  0.000000e+000
      vertex -9.414691e-014  1.580000e+001  0.000000e+000
      vertex  1.500000e+000  1.430000e+001  0.000000e+000
    endloop
  endfacet
  facet normal  0.000000e+000  -0.000000e+000 -1.000000e+000
    outer loop
      vertex  1.923387e-016  1.310000e+001  0.000000e+000
      vertex  1.500000e+000  1.430000e+001  0.000000e+000
      vertex  1.500000e+000  1.500000e+000  0.000000e+000
    endloop
  endfacet
  facet normal  0.000000e+000  0.000000e+000 -1.000000e+000
    outer loop
      vertex  1.923387e-016  1.310000e+001  0.000000e+000
      vertex  1.500000e+000  1.500000e+000  0.000000e+000
      vertex -9.000000e-001  8.100000e+000  0.000000e+000
    endloop
  endfacet
  facet normal  0.000000e+000  0.000000e+000 -1.000000e+000
    outer loop
      vertex  1.923387e-016  1.310000e+001  0.000000e+000
      vertex -9.000000e-001  8.100000e+000  0.000000e+000
      vertex -1.222183e+000  8.877817e+000  0.000000e+000
    endloop
  endfacet
  facet normal  0.000000e+000  0.000000e+000 -1.000000e+000
    outer loop
      vertex  1.923387e-016  1.310000e+001  0.000000e+000
      vertex -1.222183e+000  8.877817e+000  0.000000e+000
      vertex -5.000000e+000  1.310000e+001  0.000000e+000
    endloop
  endfacet
  facet normal  0.000000e+000  0.000000e+000 -1.000000e+000
    outer loop
      vertex  1.000000e+001  1.580000e+001  0.000000e+000
      vertex  1.000000e+001  2.080000e+001  0.000000e+000
      vertex  1.311612e+001  1.918388e+001  0.000000e+000
    endloop
  endfacet
  facet normal  0.000000e+000  0.000000e+000 -1.000000e+000
    outer loop
      vertex  1.000000e+001  1.580000e+001  0.000000e+000
      vertex  1.311612e+001  1.918388e+001  0.000000e+000
      vertex  1.275000e+001  1.830000e+001  0.000000e+000
    endloop
  endfacet
  facet normal  0.000000e+000  -0.000000e+000 -1.000000e+000
    outer loop
      vertex  1.000000e+001  1.580000e+001  0.000000e+000
      vertex  1.275000e+001  1.830000e+001  0.000000e+000
      vertex  1.311612e+001  1.741612e+001  0.000000e+000
    endloop
  endfacet
  facet normal  0.000000e+000  -0.000000e+000 -1.000000e+000
    outer loop
      vertex  1.000000e+001  1.580000e+001  0.000000e+000
      vertex  1.311612e+001  1.741612e+001  0.000000e+000
      vertex  1.400000e+001  1.705000e+001  0.000000e+000
    endloop
  endfacet
  facet normal  0.000000e+000  -0.000000e+000 -1.000000e+000
    outer loop
      vertex  1.000000e+001  1.580000e+001  0.000000e+000
      vertex  1.400000e+001  1.705000e+001  0.000000e+000
      vertex  1.800000e+001  1.580000e+001  0.000000e+000
    endloop
  endfacet
  facet normal  -0.000000e+000  0.000000e+000 -1.000000e+000
    outer loop
      vertex  1.000000e+001  1.580000e+001  0.000000e+000
      vertex  1.800000e+001  1.580000e+001  0.000000e+000
      vertex  1.500000e+000  1.430000e+001  0.000000e+000
    endloop
  endfacet
  facet normal  0.000000e+000  0.000000e+000 -1.000000e+000
    outer loop
      vertex  1.000000e+001  1.580000e+001  0.000000e+000
      vertex  1.500000e+000  1.430000e+001  0.000000e+000
      vertex -9.414691e-014  1.580000e+001  0.000000e+000
    endloop
  endfacet
  facet normal  0.000000e+000  0.000000e+000 -1.000000e+000
    outer loop
      vertex -5.000000e+000  1.310000e+001  0.000000e+000
      vertex -1.222183e+000  8.877817e+000  0.000000e+000
      vertex -2.000000e+000  9.200000e+000  0.000000e+000
    endloop
  endfacet
  facet normal  -0.000000e+000  0.000000e+000 -1.000000e+000
    outer loop
      vertex -5.000000e+000  1.310000e+001  0.000000e+000
      vertex -2.000000e+000  9.200000e+000  0.000000e+000
      vertex -2.777817e+000  8.877817e+000  0.000000e+000
    endloop
  endfacet
  facet normal  -0.000000e+000  0.000000e+000 -1.000000e+000
    outer loop
      vertex -5.000000e+000  1.310000e+001  0.000000e+000
      vertex -2.777817e+000  8.877817e+000  0.000000e+000
      vertex -3.100000e+000  8.100000e+000  0.000000e+000
    endloop
  endfacet
  facet normal  0.000000e+000  0.000000e+000 -1.000000e+000
    outer loop
      vertex  1.800000e+001 -5.000000e+000  0.000000e+000
      vertex  1.000000e+001 -5.000000e+000  0.000000e+000
      vertex  1.400000e+001 -3.750000e+000  0.000000e+000
    endloop
  endfacet
  facet normal  0.000000e+000  0.000000e+000 -9.999999e-001
    outer loop
      vertex  1.800000e+001 -5.000000e+000  0.000000e+000
      vertex  1.400000e+001 -3.750000e+000  0.000000e+000
      vertex  1.488388e+001 -3.383883e+000  0.000000e+000
    endloop
  endfacet
  facet normal  0.000000e+000  0.000000e+000 -1.000000e+000
    outer loop
      vertex  1.800000e+001 -5.000000e+000  0.000000e+000
      vertex  1.488388e+001 -3.383883e+000  0.000000e+000
      vertex  1.525000e+001 -2.500000e+000  0.000000e+000
    endloop
  endfacet
  facet normal  0.000000e+000  0.000000e+000 -1.000000e+000
    outer loop
      vertex  1.800000e+001 -5.000000e+000  0.000000e+000
      vertex  1.525000e+001 -2.500000e+000  0.000000e+000
      vertex  1.488388e+001 -1.616117e+000  0.000000e+000
    endloop
  endfacet
  facet normal  0.000000e+000  0.000000e+000 -1.000000e+000
    outer loop
      vertex  1.800000e+001 -5.000000e+000  0.000000e+000
      vertex  1.488388e+001 -1.616117e+000  0.000000e+000
      vertex  1.800000e+001  2.664535e-015  0.000000e+000
    endloop
  endfacet
  facet normal  -0.000000e+000  0.000000e+000 -1.000000e+000
    outer loop
      vertex  1.500000e+000  1.500000e+000  0.000000e+000
      vertex  1.000000e+001  8.921060e-015  0.000000e+000
      vertex  1.923387e-016  7.105427e-015  0.000000e+000
    endloop
  endfacet
  facet normal  0.000000e+000  0.000000e+000 -1.000000e+000
    outer loop
      vertex  1.500000e+000  1.500000e+000  0.000000e+000
      vertex  1.923387e-016  7.105427e-015  0.000000e+000
      vertex  8.881784e-015  3.100000e+000  0.000000e+000
    endloop
  endfacet
  facet normal  0.000000e+000  0.000000e+000 -1.000000e+000
    outer loop
      vertex  1.500000e+000  1.500000e+000  0.000000e+000
      vertex  8.881784e-015  3.100000e+000  0.000000e+000
      vertex -2.000000e+000  7.000000e+000  0.000000e+000
    endloop
  endfacet
  facet normal  0.000000e+000  0.000000e+000 -1.000000e+000
    outer loop
      vertex  1.500000e+000  1.500000e+000  0.000000e+000
      vertex -2.000000e+000  7.000000e+000  0.000000e+000
      vertex -1.222183e+000  7.322183e+000  0.000000e+000
    endloop
  endfacet
  facet normal  0.000000e+000  0.000000e+000 -1.000000e+000
    outer loop
      vertex  1.500000e+000  1.500000e+000  0.000000e+000
      vertex -1.222183e+000  7.322183e+000  0.000000e+000
      vertex -9.000000e-001  8.100000e+000  0.000000e+000
    endloop
  endfacet
  facet normal  0.000000e+000  0.000000e+000 -1.000000e+000
    outer loop
      vertex  1.000000e+001 -5.000000e+000  0.000000e+000
      vertex  1.311612e+001 -1.616117e+000  0.000000e+000
      vertex  1.275000e+001 -2.500000e+000  0.000000e+000
    endloop
  endfacet
  facet normal  0.000000e+000  -0.000000e+000 -1.000000e+000
    outer loop
      vertex  1.000000e+001 -5.000000e+000  0.000000e+000
      vertex  1.275000e+001 -2.500000e+000  0.000000e+000
      vertex  1.311612e+001 -3.383883e+000  0.000000e+000
    endloop
  endfacet
  facet normal  0.000000e+000  -0.000000e+000 -9.999999e-001
    outer loop
      vertex  1.000000e+001 -5.000000e+000  0.000000e+000
      vertex  1.311612e+001 -3.383883e+000  0.000000e+000
      vertex  1.400000e+001 -3.750000e+000  0.000000e+000
    endloop
  endfacet
  facet normal  0.000000e+000  0.000000e+000 -1.000000e+000
    outer loop
      vertex  1.800000e+001  1.580000e+001  0.000000e+000
      vertex  1.400000e+001  1.705000e+001  0.000000e+000
      vertex  1.488388e+001  1.741612e+001  0.000000e+000
    endloop
  endfacet
  facet normal  0.000000e+000  0.000000e+000 -1.000000e+000
    outer loop
      vertex  1.800000e+001  1.580000e+001  0.000000e+000
      vertex  1.488388e+001  1.741612e+001  0.000000e+000
      vertex  1.525000e+001  1.830000e+001  0.000000e+000
    endloop
  endfacet
  facet normal  0.000000e+000  0.000000e+000 -1.000000e+000
    outer loop
      vertex  1.800000e+001  1.580000e+001  0.000000e+000
      vertex  1.525000e+001  1.830000e+001  0.000000e+000
      vertex  1.488388e+001  1.918388e+001  0.000000e+000
    endloop
  endfacet
  facet normal  0.000000e+000  0.000000e+000 -1.000000e+000
    outer loop
      vertex  2.580000e+001  5.400000e+000  0.000000e+000
      vertex  2.580000e+001  1.760960e-014  0.000000e+000
      vertex  2.430000e+001  5.400000e+000  0.000000e+000
    endloop
  endfacet
  facet normal  0.000000e+000  0.000000e+000 -1.000000e+000
    outer loop
      vertex  2.430000e+001  5.400000e+000  0.000000e+000
      vertex  2.580000e+001  1.760960e-014  0.000000e+000
      vertex  2.430000e+001  1.500000e+000  0.000000e+000
    endloop
  endfacet
  facet normal  0.000000e+000  0.000000e+000 -1.000000e+000
    outer loop
      vertex  2.580000e+001  1.760960e-014  0.000000e+000
      vertex  1.800000e+001  2.664535e-015  0.000000e+000
      vertex  2.430000e+001  1.500000e+000  0.000000e+000
    endloop
  endfacet
  facet normal  -0.000000e+000  0.000000e+000 -1.000000e+000
    outer loop
      vertex  2.430000e+001  1.500000e+000  0.000000e+000
      vertex  1.800000e+001  2.664535e-015  0.000000e+000
      vertex  1.500000e+000  1.500000e+000  0.000000e+000
    endloop
  endfacet
  facet normal  0.000000e+000  0.000000e+000 -1.000000e+000
    outer loop
      vertex  2.430000e+001  1.040000e+001  0.000000e+000
      vertex  2.430000e+001  1.430000e+001  0.000000e+000
      vertex  2.580000e+001  1.040000e+001  0.000000e+000
    endloop
  endfacet
  facet normal  0.000000e+000  0.000000e+000 -1.000000e+000
    outer loop
      vertex  2.580000e+001  1.040000e+001  0.000000e+000
      vertex  2.430000e+001  1.430000e+001  0.000000e+000
      vertex  2.580000e+001  1.580000e+001  0.000000e+000
    endloop
  endfacet
  facet normal  0.000000e+000  0.000000e+000 -1.000000e+000
    outer loop
      vertex  2.430000e+001  1.430000e+001  0.000000e+000
      vertex  1.500000e+000  1.430000e+001  0.000000e+000
      vertex  2.580000e+001  1.580000e+001  0.000000e+000
    endloop
  endfacet
  facet normal  -0.000000e+000  0.000000e+000 -1.000000e+000
    outer loop
      vertex  2.580000e+001  1.580000e+001  0.000000e+000
      vertex  1.500000e+000  1.430000e+001  0.000000e+000
      vertex  1.800000e+001  1.580000e+001  0.000000e+000
    endloop
  endfacet
  facet normal  1.000000e+000  -0.000000e+000  0.000000e+000
    outer loop
      vertex  1.800000e+001  2.080000e+001  1.500000e+000
      vertex  1.800000e+001  1.580000e+001  1.500000e+000
      vertex  1.800000e+001  2.080000e+001  0.000000e+000
    endloop
  endfacet
  facet normal  1.000000e+000  0.000000e+000  0.000000e+000
    outer loop
      vertex  1.800000e+001  2.080000e+001  0.000000e+000
      vertex  1.800000e+001  1.580000e+001  1.500000e+000
      vertex  1.800000e+001  1.580000e+001  0.000000e+000
    endloop
  endfacet
  facet normal -1.000000e+000  -0.000000e+000  0.000000e+000
    outer loop
      vertex  1.000000e+001  1.580000e+001  1.500000e+000
      vertex  1.000000e+001  2.080000e+001  1.500000e+000
      vertex  1.000000e+001  1.580000e+001  0.000000e+000
    endloop
  endfacet
  facet normal -1.000000e+000  0.000000e+000  0.000000e+000
    outer loop
      vertex  1.000000e+001  1.580000e+001  0.000000e+000
      vertex  1.000000e+001  2.080000e+001  1.500000e+000
      vertex  1.000000e+001  2.080000e+001  0.000000e+000
    endloop
  endfacet
  facet normal -1.000000e+000  -0.000000e+000  0.000000e+000
    outer loop
      vertex  1.000000e+001 -5.000000e+000  1.500000e+000
      vertex  1.000000e+001  1.776357e-015  1.500000e+000
      vertex  1.000000e+001 -5.000000e+000  0.000000e+000
    endloop
  endfacet
  facet normal -1.000000e+000  0.000000e+000  0.000000e+000
    outer loop
      vertex  1.000000e+001 -5.000000e+000  0.000000e+000
      vertex  1.000000e+001  1.776357e-015  1.500000e+000
      vertex  1.000000e+001  8.921060e-015  0.000000e+000
    endloop
  endfacet
  facet normal  1.000000e+000  -0.000000e+000  0.000000e+000
    outer loop
      vertex  1.800000e+001  2.664535e-015  1.500000e+000
      vertex  1.800000e+001 -5.000000e+000  1.500000e+000
      vertex  1.800000e+001  2.664535e-015  0.000000e+000
    endloop
  endfacet
  facet normal  1.000000e+000  0.000000e+000  0.000000e+000
    outer loop
      vertex  1.800000e+001  2.664535e-015  0.000000e+000
      vertex  1.800000e+001 -5.000000e+000  1.500000e+000
      vertex  1.800000e+001 -5.000000e+000  0.000000e+000
    endloop
  endfacet
  facet normal  0.000000e+000  9.999999e-001  0.000000e+000
    outer loop
      vertex -9.414691e-014  1.580000e+001  1.100000e+001
      vertex  1.000000e+001  1.580000e+001  0.000000e+000
      vertex -9.414691e-014  1.580000e+001  0.000000e+000
    endloop
  endfacet
  facet normal  0.000000e+000  1.000000e+000  0.000000e+000
    outer loop
      vertex  1.000000e+001  1.580000e+001  0.000000e+000
      vertex -9.414691e-014  1.580000e+001  1.100000e+001
      vertex  1.000000e+001  1.580000e+001  1.500000e+000
    endloop
  endfacet
  facet normal  0.000000e+000  1.000000e+000  -0.000000e+000
    outer loop
      vertex  1.000000e+001  1.580000e+001  1.500000e+000
      vertex -9.414691e-014  1.580000e+001  1.100000e+001
      vertex  2.580000e+001  1.580000e+001  1.100000e+001
    endloop
  endfacet
  facet normal  0.000000e+000  1.000000e+000  0.000000e+000
    outer loop
      vertex  1.000000e+001  1.580000e+001  1.500000e+000
      vertex  2.580000e+001  1.580000e+001  1.100000e+001
      vertex  1.800000e+001  1.580000e+001  1.500000e+000
    endloop
  endfacet
  facet normal  -0.000000e+000  1.000000e+000  0.000000e+000
    outer loop
      vertex  1.800000e+001  1.580000e+001  1.500000e+000
      vertex  2.580000e+001  1.580000e+001  1.100000e+001
      vertex  2.580000e+001  1.580000e+001  0.000000e+000
    endloop
  endfacet
  facet normal  0.000000e+000  1.000000e+000  0.000000e+000
    outer loop
      vertex  1.800000e+001  1.580000e+001  1.500000e+000
      vertex  2.580000e+001  1.580000e+001  0.000000e+000
      vertex  1.800000e+001  1.580000e+001  0.000000e+000
    endloop
  endfacet
  facet normal  1.916034e-015 -1.000000e+000  0.000000e+000
    outer loop
      vertex  2.580000e+001  1.760960e-014  1.100000e+001
      vertex  1.800000e+001  2.664535e-015  0.000000e+000
      vertex  2.580000e+001  1.760960e-014  0.000000e+000
    endloop
  endfacet
  facet normal  1.916034e-015 -1.000000e+000  0.000000e+000
    outer loop
      vertex  1.800000e+001  2.664535e-015  0.000000e+000
      vertex  2.580000e+001  1.760960e-014  1.100000e+001
      vertex  1.800000e+001  2.664535e-015  1.500000e+000
    endloop
  endfacet
  facet normal  4.071384e-016 -1.000000e+000  1.238882e-015
    outer loop
      vertex  1.800000e+001  2.664535e-015  1.500000e+000
      vertex  2.580000e+001  1.760960e-014  1.100000e+001
      vertex  1.923387e-016  7.105427e-015  1.100000e+001
    endloop
  endfacet
  facet normal  1.110223e-016 -1.000000e+000  6.778204e-016
    outer loop
      vertex  1.800000e+001  2.664535e-015  1.500000e+000
      vertex  1.923387e-016  7.105427e-015  1.100000e+001
      vertex  1.000000e+001  1.776357e-015  1.500000e+000
    endloop
  endfacet
  facet normal -5.329070e-016 -9.999999e-001  0.000000e+000
    outer loop
      vertex  1.000000e+001  1.776357e-015  1.500000e+000
      vertex  1.923387e-016  7.105427e-015  1.100000e+001
      vertex  1.923387e-016  7.105427e-015  0.000000e+000
    endloop
  endfacet
  facet normal  1.815633e-016 -1.000000e+000 -4.763136e-015
    outer loop
      vertex  1.000000e+001  1.776357e-015  1.500000e+000
      vertex  1.923387e-016  7.105427e-015  0.000000e+000
      vertex  1.000000e+001  8.921060e-015  0.000000e+000
    endloop
  endfacet
  facet normal  0.000000e+000  -0.000000e+000  1.000000e+000
    outer loop
      vertex  1.000000e+001  2.080000e+001  1.500000e+000
      vertex  1.311612e+001  1.918388e+001  1.500000e+000
      vertex  1.400000e+001  1.955000e+001  1.500000e+000
    endloop
  endfacet
  facet normal  -0.000000e+000  0.000000e+000  1.000000e+000
    outer loop
      vertex  1.800000e+001  2.080000e+001  1.500000e+000
      vertex  1.000000e+001  2.080000e+001  1.500000e+000
      vertex  1.400000e+001  1.955000e+001  1.500000e+000
    endloop
  endfacet
  facet normal  -0.000000e+000  0.000000e+000  1.000000e+000
    outer loop
      vertex  1.800000e+001  2.080000e+001  1.500000e+000
      vertex  1.400000e+001  1.955000e+001  1.500000e+000
      vertex  1.488388e+001  1.918388e+001  1.500000e+000
    endloop
  endfacet
  facet normal  -0.000000e+000  0.000000e+000  1.000000e+000
    outer loop
      vertex  1.800000e+001  2.080000e+001  1.500000e+000
      vertex  1.488388e+001  1.918388e+001  1.500000e+000
      vertex  1.800000e+001  1.580000e+001  1.500000e+000
    endloop
  endfacet
  facet normal  0.000000e+000  0.000000e+000  1.000000e+000
    outer loop
      vertex  1.000000e+001  1.580000e+001  1.500000e+000
      vertex  1.800000e+001  1.580000e+001  1.500000e+000
      vertex  1.400000e+001  1.705000e+001  1.500000e+000
    endloop
  endfacet
  facet normal  0.000000e+000  0.000000e+000  1.000000e+000
    outer loop
      vertex  1.000000e+001  1.580000e+001  1.500000e+000
      vertex  1.400000e+001  1.705000e+001  1.500000e+000
      vertex  1.311612e+001  1.741612e+001  1.500000e+000
    endloop
  endfacet
  facet normal  0.000000e+000  0.000000e+000  1.000000e+000
    outer loop
      vertex  1.000000e+001  1.580000e+001  1.500000e+000
      vertex  1.311612e+001  1.741612e+001  1.500000e+000
      vertex  1.275000e+001  1.830000e+001  1.500000e+000
    endloop
  endfacet
  facet normal  0.000000e+000  -0.000000e+000  1.000000e+000
    outer loop
      vertex  1.000000e+001  1.580000e+001  1.500000e+000
      vertex  1.275000e+001  1.830000e+001  1.500000e+000
      vertex  1.311612e+001  1.918388e+001  1.500000e+000
    endloop
  endfacet
  facet normal  0.000000e+000  0.000000e+000  1.000000e+000
    outer loop
      vertex  1.000000e+001  1.580000e+001  1.500000e+000
      vertex  1.311612e+001  1.918388e+001  1.500000e+000
      vertex  1.000000e+001  2.080000e+001  1.500000e+000
    endloop
  endfacet
  facet normal  0.000000e+000  0.000000e+000  1.000000e+000
    outer loop
      vertex  1.800000e+001  1.580000e+001  1.500000e+000
      vertex  1.488388e+001  1.918388e+001  1.500000e+000
      vertex  1.525000e+001  1.830000e+001  1.500000e+000
    endloop
  endfacet
  facet normal  0.000000e+000  0.000000e+000  1.000000e+000
    outer loop
      vertex  1.800000e+001  1.580000e+001  1.500000e+000
      vertex  1.525000e+001  1.830000e+001  1.500000e+000
      vertex  1.488388e+001  1.741612e+001  1.500000e+000
    endloop
  endfacet
  facet normal  0.000000e+000  0.000000e+000  1.000000e+000
    outer loop
      vertex  1.800000e+001  1.580000e+001  1.500000e+000
      vertex  1.488388e+001  1.741612e+001  1.500000e+000
      vertex  1.400000e+001  1.705000e+001  1.500000e+000
    endloop
  endfacet
  facet normal  0.000000e+000  -0.000000e+000  9.999999e-001
    outer loop
      vertex  1.000000e+001  1.776357e-015  1.500000e+000
      vertex  1.311612e+001 -1.616117e+000  1.500000e+000
      vertex  1.400000e+001 -1.250000e+000  1.500000e+000
    endloop
  endfacet
  facet normal  -0.000000e+000  0.000000e+000  1.000000e+000
    outer loop
      vertex  1.800000e+001  2.664535e-015  1.500000e+000
      vertex  1.000000e+001  1.776357e-015  1.500000e+000
      vertex  1.400000e+001 -1.250000e+000  1.500000e+000
    endloop
  endfacet
  facet normal  -0.000000e+000  0.000000e+000  9.999999e-001
    outer loop
      vertex  1.800000e+001  2.664535e-015  1.500000e+000
      vertex  1.400000e+001 -1.250000e+000  1.500000e+000
      vertex  1.488388e+001 -1.616117e+000  1.500000e+000
    endloop
  endfacet
  facet normal  -0.000000e+000  0.000000e+000  1.000000e+000
    outer loop
      vertex  1.800000e+001  2.664535e-015  1.500000e+000
      vertex  1.488388e+001 -1.616117e+000  1.500000e+000
      vertex  1.800000e+001 -5.000000e+000  1.500000e+000
    endloop
  endfacet
  facet normal  0.000000e+000  0.000000e+000  1.000000e+000
    outer loop
      vertex  1.000000e+001 -5.000000e+000  1.500000e+000
      vertex  1.800000e+001 -5.000000e+000  1.500000e+000
      vertex  1.400000e+001 -3.750000e+000  1.500000e+000
    endloop
  endfacet
  facet normal  0.000000e+000  0.000000e+000  9.999999e-001
    outer loop
      vertex  1.000000e+001 -5.000000e+000  1.500000e+000
      vertex  1.400000e+001 -3.750000e+000  1.500000e+000
      vertex  1.311612e+001 -3.383883e+000  1.500000e+000
    endloop
  endfacet
  facet normal  0.000000e+000  0.000000e+000  1.000000e+000
    outer loop
      vertex  1.000000e+001 -5.000000e+000  1.500000e+000
      vertex  1.311612e+001 -3.383883e+000  1.500000e+000
      vertex  1.275000e+001 -2.500000e+000  1.500000e+000
    endloop
  endfacet
  facet normal  0.000000e+000  -0.000000e+000  1.000000e+000
    outer loop
      vertex  1.000000e+001 -5.000000e+000  1.500000e+000
      vertex  1.275000e+001 -2.500000e+000  1.500000e+000
      vertex  1.311612e+001 -1.616117e+000  1.500000e+000
    endloop
  endfacet
  facet normal  0.000000e+000  0.000000e+000  1.000000e+000
    outer loop
      vertex  1.000000e+001 -5.000000e+000  1.500000e+000
      vertex  1.311612e+001 -1.616117e+000  1.500000e+000
      vertex  1.000000e+001  1.776357e-015  1.500000e+000
    endloop
  endfacet
  facet normal  0.000000e+000  0.000000e+000  1.000000e+000
    outer loop
      vertex  1.800000e+001 -5.000000e+000  1.500000e+000
      vertex  1.488388e+001 -1.616117e+000  1.500000e+000
      vertex  1.525000e+001 -2.500000e+000  1.500000e+000
    endloop
  endfacet
  facet normal  0.000000e+000  0.000000e+000  1.000000e+000
    outer loop
      vertex  1.800000e+001 -5.000000e+000  1.500000e+000
      vertex  1.525000e+001 -2.500000e+000  1.500000e+000
      vertex  1.488388e+001 -3.383883e+000  1.500000e+000
    endloop
  endfacet
  facet normal  0.000000e+000  0.000000e+000  9.999999e-001
    outer loop
      vertex  1.800000e+001 -5.000000e+000  1.500000e+000
      vertex  1.488388e+001 -3.383883e+000  1.500000e+000
      vertex  1.400000e+001 -3.750000e+000  1.500000e+000
    endloop
  endfacet
  facet normal  3.826826e-001 -9.238799e-001  0.000000e+000
    outer loop
      vertex  1.400000e+001  1.955000e+001  0.000000e+000
      vertex  1.311612e+001  1.918388e+001  1.500000e+000
      vertex  1.311612e+001  1.918388e+001  0.000000e+000
    endloop
  endfacet
  facet normal  9.238797e-001 -3.826831e-001  0.000000e+000
    outer loop
      vertex  1.311612e+001  1.918388e+001  0.000000e+000
      vertex  1.311612e+001  1.918388e+001  1.500000e+000
      vertex  1.275000e+001  1.830000e+001  1.500000e+000
    endloop
  endfacet
  facet normal  9.238797e-001 -3.826831e-001  0.000000e+000
    outer loop
      vertex  1.311612e+001  1.918388e+001  0.000000e+000
      vertex  1.275000e+001  1.830000e+001  1.500000e+000
      vertex  1.275000e+001  1.830000e+001  0.000000e+000
    endloop
  endfacet
  facet normal  3.826826e-001 -9.238799e-001  0.000000e+000
    outer loop
      vertex  1.311612e+001  1.918388e+001  1.500000e+000
      vertex  1.400000e+001  1.955000e+001  0.000000e+000
      vertex  1.400000e+001  1.955000e+001  1.500000e+000
    endloop
  endfacet
  facet normal -3.826826e-001 -9.238799e-001  -0.000000e+000
    outer loop
      vertex  1.400000e+001  1.955000e+001  1.500000e+000
      vertex  1.400000e+001  1.955000e+001  0.000000e+000
      vertex  1.488388e+001  1.918388e+001  0.000000e+000
    endloop
  endfacet
  facet normal -3.826826e-001 -9.238799e-001  0.000000e+000
    outer loop
      vertex  1.400000e+001  1.955000e+001  1.500000e+000
      vertex  1.488388e+001  1.918388e+001  0.000000e+000
      vertex  1.488388e+001  1.918388e+001  1.500000e+000
    endloop
  endfacet
  facet normal -9.238797e-001 -3.826831e-001  -0.000000e+000
    outer loop
      vertex  1.488388e+001  1.918388e+001  1.500000e+000
      vertex  1.488388e+001  1.918388e+001  0.000000e+000
      vertex  1.525000e+001  1.830000e+001  0.000000e+000
    endloop
  endfacet
  facet normal -9.238797e-001 -3.826831e-001  0.000000e+000
    outer loop
      vertex  1.488388e+001  1.918388e+001  1.500000e+000
      vertex  1.525000e+001  1.830000e+001  0.000000e+000
      vertex  1.525000e+001  1.830000e+001  1.500000e+000
    endloop
  endfacet
  facet normal -3.826843e-001  9.238793e-001  0.000000e+000
    outer loop
      vertex  1.400000e+001  1.705000e+001  0.000000e+000
      vertex  1.488388e+001  1.741612e+001  1.500000e+000
      vertex  1.488388e+001  1.741612e+001  0.000000e+000
    endloop
  endfacet
  facet normal -9.238794e-001  3.826838e-001  0.000000e+000
    outer loop
      vertex  1.488388e+001  1.741612e+001  0.000000e+000
      vertex  1.488388e+001  1.741612e+001  1.500000e+000
      vertex  1.525000e+001  1.830000e+001  1.500000e+000
    endloop
  endfacet
  facet normal -9.238794e-001  3.826838e-001  0.000000e+000
    outer loop
      vertex  1.488388e+001  1.741612e+001  0.000000e+000
      vertex  1.525000e+001  1.830000e+001  1.500000e+000
      vertex  1.525000e+001  1.830000e+001  0.000000e+000
    endloop
  endfacet
  facet normal -3.826843e-001  9.238793e-001  0.000000e+000
    outer loop
      vertex  1.488388e+001  1.741612e+001  1.500000e+000
      vertex  1.400000e+001  1.705000e+001  0.000000e+000
      vertex  1.400000e+001  1.705000e+001  1.500000e+000
    endloop
  endfacet
  facet normal  3.826843e-001  9.238793e-001  0.000000e+000
    outer loop
      vertex  1.400000e+001  1.705000e+001  1.500000e+000
      vertex  1.400000e+001  1.705000e+001  0.000000e+000
      vertex  1.311612e+001  1.741612e+001  0.000000e+000
    endloop
  endfacet
  facet normal  3.826843e-001  9.238793e-001  -0.000000e+000
    outer loop
      vertex  1.400000e+001  1.705000e+001  1.500000e+000
      vertex  1.311612e+001  1.741612e+001  0.000000e+000
      vertex  1.311612e+001  1.741612e+001  1.500000e+000
    endloop
  endfacet
  facet normal  9.238794e-001  3.826838e-001  0.000000e+000
    outer loop
      vertex  1.311612e+001  1.741612e+001  1.500000e+000
      vertex  1.311612e+001  1.741612e+001  0.000000e+000
      vertex  1.275000e+001  1.830000e+001  0.000000e+000
    endloop
  endfacet
  facet normal  9.238794e-001  3.826838e-001  -0.000000e+000
    outer loop
      vertex  1.311612e+001  1.741612e+001  1.500000e+000
      vertex  1.275000e+001  1.830000e+001  0.000000e+000
      vertex  1.275000e+001  1.830000e+001  1.500000e+000
    endloop
  endfacet
  facet normal  0.000000e+000  1.000000e+000  0.000000e+000
    outer loop
      vertex  1.000000e+001  2.080000e+001  1.500000e+000
      vertex  1.800000e+001  2.080000e+001  1.500000e+000
      vertex  1.000000e+001  2.080000e+001  0.000000e+000
    endloop
  endfacet
  facet normal  0.000000e+000  1.000000e+000  0.000000e+000
    outer loop
      vertex  1.000000e+001  2.080000e+001  0.000000e+000
      vertex  1.800000e+001  2.080000e+001  1.500000e+000
      vertex  1.800000e+001  2.080000e+001  0.000000e+000
    endloop
  endfacet
  facet normal  3.826834e-001 -9.238795e-001  0.000000e+000
    outer loop
      vertex  1.400000e+001 -1.250000e+000  0.000000e+000
      vertex  1.311612e+001 -1.616117e+000  1.500000e+000
      vertex  1.311612e+001 -1.616117e+000  0.000000e+000
    endloop
  endfacet
  facet normal  9.238795e-001 -3.826834e-001  0.000000e+000
    outer loop
      vertex  1.311612e+001 -1.616117e+000  0.000000e+000
      vertex  1.311612e+001 -1.616117e+000  1.500000e+000
      vertex  1.275000e+001 -2.500000e+000  1.500000e+000
    endloop
  endfacet
  facet normal  9.238795e-001 -3.826834e-001  0.000000e+000
    outer loop
      vertex  1.311612e+001 -1.616117e+000  0.000000e+000
      vertex  1.275000e+001 -2.500000e+000  1.500000e+000
      vertex  1.275000e+001 -2.500000e+000  0.000000e+000
    endloop
  endfacet
  facet normal  3.826834e-001 -9.238795e-001  0.000000e+000
    outer loop
      vertex  1.311612e+001 -1.616117e+000  1.500000e+000
      vertex  1.400000e+001 -1.250000e+000  0.000000e+000
      vertex  1.400000e+001 -1.250000e+000  1.500000e+000
    endloop
  endfacet
  facet normal -3.826834e-001 -9.238795e-001  -0.000000e+000
    outer loop
      vertex  1.400000e+001 -1.250000e+000  1.500000e+000
      vertex  1.400000e+001 -1.250000e+000  0.000000e+000
      vertex  1.488388e+001 -1.616117e+000  0.000000e+000
    endloop
  endfacet
  facet normal -3.826834e-001 -9.238795e-001  0.000000e+000
    outer loop
      vertex  1.400000e+001 -1.250000e+000  1.500000e+000
      vertex  1.488388e+001 -1.616117e+000  0.000000e+000
      vertex  1.488388e+001 -1.616117e+000  1.500000e+000
    endloop
  endfacet
  facet normal -9.238795e-001 -3.826834e-001  -0.000000e+000
    outer loop
      vertex  1.488388e+001 -1.616117e+000  1.500000e+000
      vertex  1.488388e+001 -1.616117e+000  0.000000e+000
      vertex  1.525000e+001 -2.500000e+000  0.000000e+000
    endloop
  endfacet
  facet normal -9.238795e-001 -3.826834e-001  0.000000e+000
    outer loop
      vertex  1.488388e+001 -1.616117e+000  1.500000e+000
      vertex  1.525000e+001 -2.500000e+000  0.000000e+000
      vertex  1.525000e+001 -2.500000e+000  1.500000e+000
    endloop
  endfacet
  facet normal -3.826834e-001  9.238795e-001  0.000000e+000
    outer loop
      vertex  1.400000e+001 -3.750000e+000  0.000000e+000
      vertex  1.488388e+001 -3.383883e+000  1.500000e+000
      vertex  1.488388e+001 -3.383883e+000  0.000000e+000
    endloop
  endfacet
  facet normal -9.238795e-001  3.826834e-001  0.000000e+000
    outer loop
      vertex  1.488388e+001 -3.383883e+000  0.000000e+000
      vertex  1.488388e+001 -3.383883e+000  1.500000e+000
      vertex  1.525000e+001 -2.500000e+000  1.500000e+000
    endloop
  endfacet
  facet normal -9.238795e-001  3.826834e-001  0.000000e+000
    outer loop
      vertex  1.488388e+001 -3.383883e+000  0.000000e+000
      vertex  1.525000e+001 -2.500000e+000  1.500000e+000
      vertex  1.525000e+001 -2.500000e+000  0.000000e+000
    endloop
  endfacet
  facet normal -3.826834e-001  9.238795e-001  0.000000e+000
    outer loop
      vertex  1.488388e+001 -3.383883e+000  1.500000e+000
      vertex  1.400000e+001 -3.750000e+000  0.000000e+000
      vertex  1.400000e+001 -3.750000e+000  1.500000e+000
    endloop
  endfacet
  facet normal  3.826834e-001  9.238795e-001  0.000000e+000
    outer loop
      vertex  1.400000e+001 -3.750000e+000  1.500000e+000
      vertex  1.400000e+001 -3.750000e+000  0.000000e+000
      vertex  1.311612e+001 -3.383883e+000  0.000000e+000
    endloop
  endfacet
  facet normal  3.826834e-001  9.238795e-001  -0.000000e+000
    outer loop
      vertex  1.400000e+001 -3.750000e+000  1.500000e+000
      vertex  1.311612e+001 -3.383883e+000  0.000000e+000
      vertex  1.311612e+001 -3.383883e+000  1.500000e+000
    endloop
  endfacet
  facet normal  9.238795e-001  3.826834e-001  0.000000e+000
    outer loop
      vertex  1.311612e+001 -3.383883e+000  1.500000e+000
      vertex  1.311612e+001 -3.383883e+000  0.000000e+000
      vertex  1.275000e+001 -2.500000e+000  0.000000e+000
    endloop
  endfacet
  facet normal  9.238795e-001  3.826834e-001  -0.000000e+000
    outer loop
      vertex  1.311612e+001 -3.383883e+000  1.500000e+000
      vertex  1.275000e+001 -2.500000e+000  0.000000e+000
      vertex  1.275000e+001 -2.500000e+000  1.500000e+000
    endloop
  endfacet
  facet normal  0.000000e+000 -1.000000e+000  0.000000e+000
    outer loop
      vertex  1.000000e+001 -5.000000e+000  1.500000e+000
      vertex  1.000000e+001 -5.000000e+000  0.000000e+000
      vertex  1.800000e+001 -5.000000e+000  1.500000e+000
    endloop
  endfacet
  facet normal  0.000000e+000 -1.000000e+000  -0.000000e+000
    outer loop
      vertex  1.800000e+001 -5.000000e+000  1.500000e+000
      vertex  1.000000e+001 -5.000000e+000  0.000000e+000
      vertex  1.800000e+001 -5.000000e+000  0.000000e+000
    endloop
  endfacet
  facet normal  0.000000e+000  0.000000e+000  1.000000e+000
    outer loop
      vertex  1.923387e-016  3.100000e+000  1.100000e+001
      vertex -9.000000e-001  8.100000e+000  1.100000e+001
      vertex -1.222183e+000  7.322183e+000  1.100000e+001
    endloop
  endfacet
  facet normal  0.000000e+000  0.000000e+000  1.000000e+000
    outer loop
      vertex  1.923387e-016  3.100000e+000  1.100000e+001
      vertex -1.222183e+000  7.322183e+000  1.100000e+001
      vertex -2.000000e+000  7.000000e+000  1.100000e+001
    endloop
  endfacet
  facet normal  -0.000000e+000  0.000000e+000  1.000000e+000
    outer loop
      vertex  1.923387e-016  1.310000e+001  1.100000e+001
      vertex -5.000000e+000  1.310000e+001  1.100000e+001
      vertex -1.222183e+000  8.877817e+000  1.100000e+001
    endloop
  endfacet
  facet normal  -0.000000e+000  0.000000e+000  1.000000e+000
    outer loop
      vertex  1.923387e-016  1.310000e+001  1.100000e+001
      vertex -1.222183e+000  8.877817e+000  1.100000e+001
      vertex -9.000000e-001  8.100000e+000  1.100000e+001
    endloop
  endfacet
  facet normal  -0.000000e+000  0.000000e+000  1.000000e+000
    outer loop
      vertex  1.923387e-016  1.310000e+001  1.100000e+001
      vertex -9.000000e-001  8.100000e+000  1.100000e+001
      vertex  1.923387e-016  3.100000e+000  1.100000e+001
    endloop
  endfacet
  facet normal  0.000000e+000  0.000000e+000  1.000000e+000
    outer loop
      vertex  1.923387e-016  1.310000e+001  1.100000e+001
      vertex  1.923387e-016  3.100000e+000  1.100000e+001
      vertex  1.500000e+000  1.430000e+001  1.100000e+001
    endloop
  endfacet
  facet normal  0.000000e+000  0.000000e+000  1.000000e+000
    outer loop
      vertex -5.000000e+000  3.100000e+000  1.100000e+001
      vertex  1.923387e-016  3.100000e+000  1.100000e+001
      vertex -2.000000e+000  7.000000e+000  1.100000e+001
    endloop
  endfacet
  facet normal  0.000000e+000  0.000000e+000  1.000000e+000
    outer loop
      vertex -5.000000e+000  3.100000e+000  1.100000e+001
      vertex -2.000000e+000  7.000000e+000  1.100000e+001
      vertex -2.777817e+000  7.322183e+000  1.100000e+001
    endloop
  endfacet
  facet normal  0.000000e+000  0.000000e+000  9.999999e-001
    outer loop
      vertex -5.000000e+000  3.100000e+000  1.100000e+001
      vertex -2.777817e+000  7.322183e+000  1.100000e+001
      vertex -3.100000e+000  8.100000e+000  1.100000e+001
    endloop
  endfacet
  facet normal  0.000000e+000  0.000000e+000  9.999999e-001
    outer loop
      vertex -5.000000e+000  3.100000e+000  1.100000e+001
      vertex -3.100000e+000  8.100000e+000  1.100000e+001
      vertex -5.000000e+000  1.310000e+001  1.100000e+001
    endloop
  endfacet
  facet normal  0.000000e+000  -0.000000e+000  1.000000e+000
    outer loop
      vertex -5.000000e+000  1.310000e+001  1.100000e+001
      vertex -3.100000e+000  8.100000e+000  1.100000e+001
      vertex -2.777817e+000  8.877817e+000  1.100000e+001
    endloop
  endfacet
  facet normal  0.000000e+000  -0.000000e+000  1.000000e+000
    outer loop
      vertex -5.000000e+000  1.310000e+001  1.100000e+001
      vertex -2.777817e+000  8.877817e+000  1.100000e+001
      vertex -2.000000e+000  9.200000e+000  1.100000e+001
    endloop
  endfacet
  facet normal  -0.000000e+000  -0.000000e+000  1.000000e+000
    outer loop
      vertex -5.000000e+000  1.310000e+001  1.100000e+001
      vertex -2.000000e+000  9.200000e+000  1.100000e+001
      vertex -1.222183e+000  8.877817e+000  1.100000e+001
    endloop
  endfacet
  facet normal  0.000000e+000  -0.000000e+000  1.000000e+000
    outer loop
      vertex -9.414691e-014  1.580000e+001  1.100000e+001
      vertex  1.923387e-016  1.310000e+001  1.100000e+001
      vertex  1.500000e+000  1.430000e+001  1.100000e+001
    endloop
  endfacet
  facet normal  0.000000e+000  -0.000000e+000  1.000000e+000
    outer loop
      vertex -9.414691e-014  1.580000e+001  1.100000e+001
      vertex  1.500000e+000  1.430000e+001  1.100000e+001
      vertex  2.430000e+001  1.430000e+001  1.100000e+001
    endloop
  endfacet
  facet normal  0.000000e+000  -0.000000e+000  9.999999e-001
    outer loop
      vertex -9.414691e-014  1.580000e+001  1.100000e+001
      vertex  2.430000e+001  1.430000e+001  1.100000e+001
      vertex  2.580000e+001  1.580000e+001  1.100000e+001
    endloop
  endfacet
  facet normal  -0.000000e+000  0.000000e+000  1.000000e+000
    outer loop
      vertex  2.580000e+001  5.400000e+000  1.100000e+001
      vertex  2.430000e+001  5.400000e+000  1.100000e+001
      vertex  2.580000e+001  1.760960e-014  1.100000e+001
    endloop
  endfacet
  facet normal  0.000000e+000  0.000000e+000  1.000000e+000
    outer loop
      vertex  2.580000e+001  1.760960e-014  1.100000e+001
      vertex  2.430000e+001  5.400000e+000  1.100000e+001
      vertex  2.430000e+001  1.500000e+000  1.100000e+001
    endloop
  endfacet
  facet normal  0.000000e+000  0.000000e+000  9.999999e-001
    outer loop
      vertex  2.580000e+001  1.760960e-014  1.100000e+001
      vertex  2.430000e+001  1.500000e+000  1.100000e+001
      vertex  1.923387e-016  7.105427e-015  1.100000e+001
    endloop
  endfacet
  facet normal  0.000000e+000  0.000000e+000  1.000000e+000
    outer loop
      vertex  1.923387e-016  7.105427e-015  1.100000e+001
      vertex  2.430000e+001  1.500000e+000  1.100000e+001
      vertex  1.500000e+000  1.500000e+000  1.100000e+001
    endloop
  endfacet
  facet normal  0.000000e+000  0.000000e+000  1.000000e+000
    outer loop
      vertex  1.923387e-016  7.105427e-015  1.100000e+001
      vertex  1.500000e+000  1.500000e+000  1.100000e+001
      vertex  1.923387e-016  3.100000e+000  1.100000e+001
    endloop
  endfacet
  facet normal  -0.000000e+000  0.000000e+000  1.000000e+000
    outer loop
      vertex  1.923387e-016  3.100000e+000  1.100000e+001
      vertex  1.500000e+000  1.500000e+000  1.100000e+001
      vertex  1.500000e+000  1.430000e+001  1.100000e+001
    endloop
  endfacet
  facet normal  0.000000e+000  0.000000e+000  1.000000e+000
    outer loop
      vertex  2.430000e+001  1.040000e+001  1.100000e+001
      vertex  2.580000e+001  1.040000e+001  1.100000e+001
      vertex  2.430000e+001  1.430000e+001  1.100000e+001
    endloop
  endfacet
  facet normal  -0.000000e+000  0.000000e+000  1.000000e+000
    outer loop
      vertex  2.430000e+001  1.430000e+001  1.100000e+001
      vertex  2.580000e+001  1.040000e+001  1.100000e+001
      vertex  2.580000e+001  1.580000e+001  1.100000e+001
    endloop
  endfacet
  facet normal  0.000000e+000 -9.999999e-001  -0.000000e+000
    outer loop
      vertex  8.881784e-015  3.100000e+000  0.000000e+000
      vertex  1.923387e-016  3.100000e+000  1.100000e+001
      vertex -5.000000e+000  3.100000e+000  0.000000e+000
    endloop
  endfacet
  facet normal  0.000000e+000 -9.999999e-001  0.000000e+000
    outer loop
      vertex -5.000000e+000  3.100000e+000  0.000000e+000
      vertex  1.923387e-016  3.100000e+000  1.100000e+001
      vertex -5.000000e+000  3.100000e+000  1.100000e+001
    endloop
  endfacet
  facet normal  0.000000e+000  9.999999e-001  0.000000e+000
    outer loop
      vertex -5.000000e+000  1.310000e+001  0.000000e+000
      vertex -5.000000e+000  1.310000e+001  1.100000e+001
      vertex  1.923387e-016  1.310000e+001  0.000000e+000
    endloop
  endfacet
  facet normal  0.000000e+000  9.999999e-001  -0.000000e+000
    outer loop
      vertex  1.923387e-016  1.310000e+001  0.000000e+000
      vertex -5.000000e+000  1.310000e+001  1.100000e+001
      vertex  1.923387e-016  1.310000e+001  1.100000e+001
    endloop
  endfacet
  facet normal -1.000000e+000 -3.494047e-014  0.000000e+000
    outer loop
      vertex  1.923387e-016  1.310000e+001  1.100000e+001
      vertex -9.414691e-014  1.580000e+001  1.100000e+001
      vertex  1.923387e-016  1.310000e+001  0.000000e+000
    endloop
  endfacet
  facet normal -1.000000e+000 -3.494047e-014  0.000000e+000
    outer loop
      vertex  1.923387e-016  1.310000e+001  0.000000e+000
      vertex -9.414691e-014  1.580000e+001  1.100000e+001
      vertex -9.414691e-014  1.580000e+001  0.000000e+000
    endloop
  endfacet
  facet normal -1.000000e+000  -0.000000e+000  0.000000e+000
    outer loop
      vertex  1.923387e-016  7.105427e-015  1.100000e+001
      vertex  1.923387e-016  3.100000e+000  1.100000e+001
      vertex  1.923387e-016  7.105427e-015  0.000000e+000
    endloop
  endfacet
  facet normal -1.000000e+000  2.803047e-015 -7.899496e-016
    outer loop
      vertex  1.923387e-016  7.105427e-015  0.000000e+000
      vertex  1.923387e-016  3.100000e+000  1.100000e+001
      vertex  8.881784e-015  3.100000e+000  0.000000e+000
    endloop
  endfacet
  facet normal  3.826835e-001 -9.238795e-001  0.000000e+000
    outer loop
      vertex -2.000000e+000  9.200000e+000  0.000000e+000
      vertex -2.777817e+000  8.877817e+000  1.100000e+001
      vertex -2.777817e+000  8.877817e+000  0.000000e+000
    endloop
  endfacet
  facet normal  9.238794e-001 -3.826836e-001  0.000000e+000
    outer loop
      vertex -2.777817e+000  8.877817e+000  0.000000e+000
      vertex -2.777817e+000  8.877817e+000  1.100000e+001
      vertex -3.100000e+000  8.100000e+000  1.100000e+001
    endloop
  endfacet
  facet normal  9.238794e-001 -3.826836e-001  0.000000e+000
    outer loop
      vertex -2.777817e+000  8.877817e+000  0.000000e+000
      vertex -3.100000e+000  8.100000e+000  1.100000e+001
      vertex -3.100000e+000  8.100000e+000  0.000000e+000
    endloop
  endfacet
  facet normal  3.826835e-001 -9.238795e-001  0.000000e+000
    outer loop
      vertex -2.777817e+000  8.877817e+000  1.100000e+001
      vertex -2.000000e+000  9.200000e+000  0.000000e+000
      vertex -2.000000e+000  9.200000e+000  1.100000e+001
    endloop
  endfacet
  facet normal -3.826835e-001 -9.238795e-001  -0.000000e+000
    outer loop
      vertex -2.000000e+000  9.200000e+000  1.100000e+001
      vertex -2.000000e+000  9.200000e+000  0.000000e+000
      vertex -1.222183e+000  8.877817e+000  0.000000e+000
    endloop
  endfacet
  facet normal -3.826835e-001 -9.238795e-001  0.000000e+000
    outer loop
      vertex -2.000000e+000  9.200000e+000  1.100000e+001
      vertex -1.222183e+000  8.877817e+000  0.000000e+000
      vertex -1.222183e+000  8.877817e+000  1.100000e+001
    endloop
  endfacet
  facet normal -9.238794e-001 -3.826837e-001  -0.000000e+000
    outer loop
      vertex -1.222183e+000  8.877817e+000  1.100000e+001
      vertex -1.222183e+000  8.877817e+000  0.000000e+000
      vertex -9.000000e-001  8.100000e+000  0.000000e+000
    endloop
  endfacet
  facet normal -9.238794e-001 -3.826837e-001  0.000000e+000
    outer loop
      vertex -1.222183e+000  8.877817e+000  1.100000e+001
      vertex -9.000000e-001  8.100000e+000  0.000000e+000
      vertex -9.000000e-001  8.100000e+000  1.100000e+001
    endloop
  endfacet
  facet normal -3.826835e-001  9.238795e-001  0.000000e+000
    outer loop
      vertex -2.000000e+000  7.000000e+000  0.000000e+000
      vertex -1.222183e+000  7.322183e+000  1.100000e+001
      vertex -1.222183e+000  7.322183e+000  0.000000e+000
    endloop
  endfacet
  facet normal -9.238796e-001  3.826833e-001  0.000000e+000
    outer loop
      vertex -1.222183e+000  7.322183e+000  0.000000e+000
      vertex -1.222183e+000  7.322183e+000  1.100000e+001
      vertex -9.000000e-001  8.100000e+000  1.100000e+001
    endloop
  endfacet
  facet normal -9.238796e-001  3.826833e-001  0.000000e+000
    outer loop
      vertex -1.222183e+000  7.322183e+000  0.000000e+000
      vertex -9.000000e-001  8.100000e+000  1.100000e+001
      vertex -9.000000e-001  8.100000e+000  0.000000e+000
    endloop
  endfacet
  facet normal -3.826835e-001  9.238795e-001  0.000000e+000
    outer loop
      vertex -1.222183e+000  7.322183e+000  1.100000e+001
      vertex -2.000000e+000  7.000000e+000  0.000000e+000
      vertex -2.000000e+000  7.000000e+000  1.100000e+001
    endloop
  endfacet
  facet normal  3.826835e-001  9.238795e-001  0.000000e+000
    outer loop
      vertex -2.000000e+000  7.000000e+000  1.100000e+001
      vertex -2.000000e+000  7.000000e+000  0.000000e+000
      vertex -2.777817e+000  7.322183e+000  0.000000e+000
    endloop
  endfacet
  facet normal  3.826835e-001  9.238795e-001  -0.000000e+000
    outer loop
      vertex -2.000000e+000  7.000000e+000  1.100000e+001
      vertex -2.777817e+000  7.322183e+000  0.000000e+000
      vertex -2.777817e+000  7.322183e+000  1.100000e+001
    endloop
  endfacet
  facet normal  9.238796e-001  3.826832e-001  0.000000e+000
    outer loop
      vertex -2.777817e+000  7.322183e+000  1.100000e+001
      vertex -2.777817e+000  7.322183e+000  0.000000e+000
      vertex -3.100000e+000  8.100000e+000  0.000000e+000
    endloop
  endfacet
  facet normal  9.238796e-001  3.826832e-001  -0.000000e+000
    outer loop
      vertex -2.777817e+000  7.322183e+000  1.100000e+001
      vertex -3.100000e+000  8.100000e+000  0.000000e+000
      vertex -3.100000e+000  8.100000e+000  1.100000e+001
    endloop
  endfacet
  facet normal -9.999999e-001  0.000000e+000  0.000000e+000
    outer loop
      vertex -5.000000e+000  1.310000e+001  0.000000e+000
      vertex -5.000000e+000  3.100000e+000  0.000000e+000
      vertex -5.000000e+000  1.310000e+001  1.100000e+001
    endloop
  endfacet
  facet normal -9.999999e-001  -0.000000e+000  0.000000e+000
    outer loop
      vertex -5.000000e+000  1.310000e+001  1.100000e+001
      vertex -5.000000e+000  3.100000e+000  0.000000e+000
      vertex -5.000000e+000  3.100000e+000  1.100000e+001
    endloop
  endfacet
  facet normal  0.000000e+000 -1.000000e+000  0.000000e+000
    outer loop
      vertex  2.430000e+001  1.430000e+001  1.100000e+001
      vertex  1.500000e+000  1.430000e+001  1.100000e+001
      vertex  2.430000e+001  1.430000e+001  0.000000e+000
    endloop
  endfacet
  facet normal  0.000000e+000 -1.000000e+000  0.000000e+000
    outer loop
      vertex  2.430000e+001  1.430000e+001  0.000000e+000
      vertex  1.500000e+000  1.430000e+001  1.100000e+001
      vertex  1.500000e+000  1.430000e+001  0.000000e+000
    endloop
  endfacet
  facet normal  1.000000e+000  -0.000000e+000  0.000000e+000
    outer loop
      vertex  1.500000e+000  1.430000e+001  1.100000e+001
      vertex  1.500000e+000  1.500000e+000  1.100000e+001
      vertex  1.500000e+000  1.430000e+001  0.000000e+000
    endloop
  endfacet
  facet normal  1.000000e+000  0.000000e+000  0.000000e+000
    outer loop
      vertex  1.500000e+000  1.430000e+001  0.000000e+000
      vertex  1.500000e+000  1.500000e+000  1.100000e+001
      vertex  1.500000e+000  1.500000e+000  0.000000e+000
    endloop
  endfacet
  facet normal  0.000000e+000  1.000000e+000  0.000000e+000
    outer loop
      vertex  1.500000e+000  1.500000e+000  1.100000e+001
      vertex  2.430000e+001  1.500000e+000  1.100000e+001
      vertex  1.500000e+000  1.500000e+000  0.000000e+000
    endloop
  endfacet
  facet normal  0.000000e+000  1.000000e+000  0.000000e+000
    outer loop
      vertex  1.500000e+000  1.500000e+000  0.000000e+000
      vertex  2.430000e+001  1.500000e+000  1.100000e+001
      vertex  2.430000e+001  1.500000e+000  0.000000e+000
    endloop
  endfacet
  facet normal -1.000000e+000  -0.000000e+000  0.000000e+000
    outer loop
      vertex  2.430000e+001  1.500000e+000  1.100000e+001
      vertex  2.430000e+001  5.400000e+000  1.100000e+001
      vertex  2.430000e+001  1.500000e+000  0.000000e+000
    endloop
  endfacet
  facet normal -1.000000e+000  0.000000e+000  0.000000e+000
    outer loop
      vertex  2.430000e+001  1.500000e+000  0.000000e+000
      vertex  2.430000e+001  5.400000e+000  1.100000e+001
      vertex  2.430000e+001  5.400000e+000  0.000000e+000
    endloop
  endfacet
  facet normal  0.000000e+000  1.000000e+000  0.000000e+000
    outer loop
      vertex  2.430000e+001  5.400000e+000  0.000000e+000
      vertex  2.430000e+001  5.400000e+000  1.100000e+001
      vertex  2.580000e+001  5.400000e+000  0.000000e+000
    endloop
  endfacet
  facet normal  0.000000e+000  1.000000e+000  -0.000000e+000
    outer loop
      vertex  2.580000e+001  5.400000e+000  0.000000e+000
      vertex  2.430000e+001  5.400000e+000  1.100000e+001
      vertex  2.580000e+001  5.400000e+000  1.100000e+001
    endloop
  endfacet
  facet normal  1.000000e+000  -0.000000e+000  0.000000e+000
    outer loop
      vertex  2.580000e+001  5.400000e+000  1.100000e+001
      vertex  2.580000e+001  1.760960e-014  1.100000e+001
      vertex  2.580000e+001  5.400000e+000  0.000000e+000
    endloop
  endfacet
  facet normal  1.000000e+000  0.000000e+000  0.000000e+000
    outer loop
      vertex  2.580000e+001  5.400000e+000  0.000000e+000
      vertex  2.580000e+001  1.760960e-014  1.100000e+001
      vertex  2.580000e+001  1.760960e-014  0.000000e+000
    endloop
  endfacet
  facet normal  1.000000e+000  -0.000000e+000  0.000000e+000
    outer loop
      vertex  2.580000e+001  1.580000e+001  1.100000e+001
      vertex  2.580000e+001  1.040000e+001  1.100000e+001
      vertex  2.580000e+001  1.580000e+001  0.000000e+000
    endloop
  endfacet
  facet normal  1.000000e+000  0.000000e+000  0.000000e+000
    outer loop
      vertex  2.580000e+001  1.580000e+001  0.000000e+000
      vertex  2.580000e+001  1.040000e+001  1.100000e+001
      vertex  2.580000e+001  1.040000e+001  0.000000e+000
    endloop
  endfacet
  facet normal  0.000000e+000 -1.000000e+000  -0.000000e+000
    outer loop
      vertex  2.580000e+001  1.040000e+001  0.000000e+000
      vertex  2.580000e+001  1.040000e+001  1.100000e+001
      vertex  2.430000e+001  1.040000e+001  0.000000e+000
    endloop
  endfacet
  facet normal  0.000000e+000 -1.000000e+000  0.000000e+000
    outer loop
      vertex  2.430000e+001  1.040000e+001  0.000000e+000
      vertex  2.580000e+001  1.040000e+001  1.100000e+001
      vertex  2.430000e+001  1.040000e+001  1.100000e+001
    endloop
  endfacet
  facet normal -1.000000e+000  -0.000000e+000  0.000000e+000
    outer loop
      vertex  2.430000e+001  1.040000e+001  1.100000e+001
      vertex  2.430000e+001  1.430000e+001  1.100000e+001
      vertex  2.430000e+001  1.040000e+001  0.000000e+000
    endloop
  endfacet
  facet normal -1.000000e+000  0.000000e+000  0.000000e+000
    outer loop
      vertex  2.430000e+001  1.040000e+001  0.000000e+000
      vertex  2.430000e+001  1.430000e+001  1.100000e+001
      vertex  2.430000e+001  1.430000e+001  0.000000e+000
    endloop
  endfacet
endsolid CATIA STL
