solid CATIA STL
  facet normal  9.936033e-001 -5.209519e-003  1.128073e-001
    outer loop
      vertex  4.984571e+000  5.413762e+000  1.801125e+000
      vertex  5.261877e+000  5.561531e+000 -6.345500e-001
      vertex  5.298524e+000  2.900000e+001  1.250619e-001
    endloop
  endfacet
  facet normal  9.595246e-001  7.233865e-003  2.815322e-001
    outer loop
      vertex  5.298524e+000  2.900000e+001  1.250619e-001
      vertex  4.526126e+000  2.900000e+001  2.757569e+000
      vertex  4.984571e+000  5.413762e+000  1.801125e+000
    endloop
  endfacet
  facet normal -2.359544e-001  1.067001e-003 -9.717636e-001
    outer loop
      vertex -2.540955e+000  2.900000e+001 -4.651187e+000
      vertex  1.250619e-001  2.900000e+001 -5.298524e+000
      vertex  0.000000e+000  5.329071e-015 -5.300000e+000
    endloop
  endfacet
  facet normal -1.582387e-001  8.225472e-003 -9.873667e-001
    outer loop
      vertex -2.540955e+000  2.900000e+001 -4.651187e+000
      vertex  0.000000e+000  5.329071e-015 -5.300000e+000
      vertex -1.656250e+000  0.000000e+000 -5.034564e+000
    endloop
  endfacet
  facet normal -2.814243e-001  4.100030e-003 -9.595746e-001
    outer loop
      vertex -2.540955e+000  2.900000e+001 -4.651187e+000
      vertex -1.656250e+000  0.000000e+000 -5.034564e+000
      vertex -1.754594e+000  1.072350e+000 -5.001140e+000
    endloop
  endfacet
  facet normal -4.065832e-001  0.000000e+000 -9.136137e-001
    outer loop
      vertex -2.540955e+000  2.900000e+001 -4.651187e+000
      vertex -1.754594e+000  1.072350e+000 -5.001140e+000
      vertex -2.540955e+000  3.126366e+000 -4.651187e+000
    endloop
  endfacet
  facet normal  1.582443e-001 -6.321765e-004 -9.873998e-001
    outer loop
      vertex  0.000000e+000  5.329071e-015 -5.300000e+000
      vertex  1.250619e-001  2.900000e+001 -5.298524e+000
      vertex  1.656253e+000  0.000000e+000 -5.034563e+000
    endloop
  endfacet
  facet normal  2.815342e-001  6.131149e-003 -9.595316e-001
    outer loop
      vertex  1.656253e+000  0.000000e+000 -5.034563e+000
      vertex  1.250619e-001  2.900000e+001 -5.298524e+000
      vertex  2.757569e+000  2.900000e+001 -4.526126e+000
    endloop
  endfacet
  facet normal  3.600470e-001  2.683131e-003 -9.329304e-001
    outer loop
      vertex  1.656253e+000  0.000000e+000 -5.034563e+000
      vertex  2.757569e+000  2.900000e+001 -4.526126e+000
      vertex  2.258281e+000  2.578305e+000 -4.794806e+000
    endloop
  endfacet
  facet normal  9.717458e-001  6.127455e-003 -2.359501e-001
    outer loop
      vertex  5.298524e+000  2.900000e+001  1.250619e-001
      vertex  5.261877e+000  5.561531e+000 -6.345500e-001
      vertex  4.651187e+000  2.900000e+001 -2.540955e+000
    endloop
  endfacet
  facet normal  9.520540e-001 -7.753151e-005 -3.059299e-001
    outer loop
      vertex  4.651187e+000  2.900000e+001 -2.540955e+000
      vertex  5.261877e+000  5.561531e+000 -6.345500e-001
      vertex  4.646498e+000  5.211618e+000 -2.549521e+000
    endloop
  endfacet
  facet normal  7.235952e-001  1.058833e-004 -6.902245e-001
    outer loop
      vertex  4.651187e+000  2.900000e+001 -2.540955e+000
      vertex  4.646498e+000  5.211618e+000 -2.549521e+000
      vertex  2.757569e+000  2.900000e+001 -4.526126e+000
    endloop
  endfacet
  facet normal  7.835881e-001  1.060579e-002 -6.211902e-001
    outer loop
      vertex  2.757569e+000  2.900000e+001 -4.526126e+000
      vertex  4.646498e+000  5.211618e+000 -2.549521e+000
      vertex  3.582605e+000  4.379317e+000 -3.905758e+000
    endloop
  endfacet
  facet normal  5.593781e-001 -2.141379e-003 -8.289098e-001
    outer loop
      vertex  2.757569e+000  2.900000e+001 -4.526126e+000
      vertex  3.582605e+000  4.379317e+000 -3.905758e+000
      vertex  2.258281e+000  2.578305e+000 -4.794806e+000
    endloop
  endfacet
  facet normal  6.902245e-001  -0.000000e+000  7.235953e-001
    outer loop
      vertex  2.540955e+000  2.900000e+001  4.651187e+000
      vertex  2.540955e+000  3.092545e+000  4.651187e+000
      vertex  4.526126e+000  2.900000e+001  2.757569e+000
    endloop
  endfacet
  facet normal  6.016348e-001  1.227608e-002  7.986770e-001
    outer loop
      vertex  4.526126e+000  2.900000e+001  2.757569e+000
      vertex  2.540955e+000  3.092545e+000  4.651187e+000
      vertex  3.852960e+000  4.624165e+000  3.639326e+000
    endloop
  endfacet
  facet normal  8.524511e-001 -4.630401e-003  5.227864e-001
    outer loop
      vertex  4.526126e+000  2.900000e+001  2.757569e+000
      vertex  3.852960e+000  4.624165e+000  3.639326e+000
      vertex  4.984571e+000  5.413762e+000  1.801125e+000
    endloop
  endfacet
  facet normal -9.998574e-001 -6.369781e-003 -1.563847e-002
    outer loop
      vertex -5.169612e+000  5.589302e+000  1.168378e+000
      vertex -5.298524e+000  2.900000e+001 -1.250619e-001
      vertex -5.130400e+000  5.568067e+000 -1.330036e+000
    endloop
  endfacet
  facet normal -9.595220e-001  7.593020e-003 -2.815314e-001
    outer loop
      vertex -5.130400e+000  5.568067e+000 -1.330036e+000
      vertex -5.298524e+000  2.900000e+001 -1.250619e-001
      vertex -4.526126e+000  2.900000e+001 -2.757569e+000
    endloop
  endfacet
  facet normal -5.447520e-001  0.000000e+000 -8.385972e-001
    outer loop
      vertex -2.540955e+000  2.900000e+001 -4.651187e+000
      vertex -2.540955e+000  3.126366e+000 -4.651187e+000
      vertex -3.216706e+000  4.046592e+000 -4.212220e+000
    endloop
  endfacet
  facet normal  2.359544e-001  1.067001e-003  9.717636e-001
    outer loop
      vertex  2.540955e+000  2.900000e+001  4.651187e+000
      vertex -1.250619e-001  2.900000e+001  5.298524e+000
      vertex  1.665335e-016  0.000000e+000  5.300000e+000
    endloop
  endfacet
  facet normal  1.582387e-001  8.225472e-003  9.873667e-001
    outer loop
      vertex  2.540955e+000  2.900000e+001  4.651187e+000
      vertex  1.665335e-016  0.000000e+000  5.300000e+000
      vertex  1.656250e+000  0.000000e+000  5.034564e+000
    endloop
  endfacet
  facet normal  2.820583e-001  4.078231e-003  9.593886e-001
    outer loop
      vertex  2.540955e+000  2.900000e+001  4.651187e+000
      vertex  1.656250e+000  0.000000e+000  5.034564e+000
      vertex  1.754614e+000  1.061496e+000  5.001133e+000
    endloop
  endfacet
  facet normal  4.065852e-001  0.000000e+000  9.136129e-001
    outer loop
      vertex  2.540955e+000  2.900000e+001  4.651187e+000
      vertex  1.754614e+000  1.061496e+000  5.001133e+000
      vertex  2.540955e+000  3.092545e+000  4.651187e+000
    endloop
  endfacet
  facet normal -1.582441e-001 -6.321755e-004  9.873998e-001
    outer loop
      vertex  1.665335e-016  0.000000e+000  5.300000e+000
      vertex -1.250619e-001  2.900000e+001  5.298524e+000
      vertex -1.656252e+000  0.000000e+000  5.034564e+000
    endloop
  endfacet
  facet normal -2.815342e-001  6.131161e-003  9.595316e-001
    outer loop
      vertex -1.656252e+000  0.000000e+000  5.034564e+000
      vertex -1.250619e-001  2.900000e+001  5.298524e+000
      vertex -2.757569e+000  2.900000e+001  4.526126e+000
    endloop
  endfacet
  facet normal -3.651873e-001  2.452879e-003  9.309309e-001
    outer loop
      vertex -1.656252e+000  0.000000e+000  5.034564e+000
      vertex -2.757569e+000  2.900000e+001  4.526126e+000
      vertex -2.299893e+000  2.690387e+000  4.774986e+000
    endloop
  endfacet
  facet normal -9.717354e-001  7.685194e-003  2.359476e-001
    outer loop
      vertex -5.298524e+000  2.900000e+001 -1.250619e-001
      vertex -5.169612e+000  5.589302e+000  1.168378e+000
      vertex -4.651187e+000  2.900000e+001  2.540955e+000
    endloop
  endfacet
  facet normal -9.380329e-001  4.544393e-004  3.465459e-001
    outer loop
      vertex -4.651187e+000  2.900000e+001  2.540955e+000
      vertex -5.169612e+000  5.589302e+000  1.168378e+000
      vertex -4.688004e+000  5.306178e+000  2.472372e+000
    endloop
  endfacet
  facet normal -7.235950e-001 -8.735623e-004  6.902243e-001
    outer loop
      vertex -4.651187e+000  2.900000e+001  2.540955e+000
      vertex -4.688004e+000  5.306178e+000  2.472372e+000
      vertex -2.757569e+000  2.900000e+001  4.526126e+000
    endloop
  endfacet
  facet normal -7.743995e-001  8.256761e-003  6.326430e-001
    outer loop
      vertex -2.757569e+000  2.900000e+001  4.526126e+000
      vertex -4.688004e+000  5.306178e+000  2.472372e+000
      vertex -3.392787e+000  4.239321e+000  4.071731e+000
    endloop
  endfacet
  facet normal -5.426238e-001 -1.494118e-003  8.399744e-001
    outer loop
      vertex -2.757569e+000  2.900000e+001  4.526126e+000
      vertex -3.392787e+000  4.239321e+000  4.071731e+000
      vertex -2.299893e+000  2.690387e+000  4.774986e+000
    endloop
  endfacet
  facet normal -6.902122e-001  5.962418e-003 -7.235824e-001
    outer loop
      vertex -2.540955e+000  2.900000e+001 -4.651187e+000
      vertex -3.216706e+000  4.046592e+000 -4.212220e+000
      vertex -4.526126e+000  2.900000e+001 -2.757569e+000
    endloop
  endfacet
  facet normal -7.169359e-001  3.018220e-003 -6.971326e-001
    outer loop
      vertex -4.526126e+000  2.900000e+001 -2.757569e+000
      vertex -3.216706e+000  4.046592e+000 -4.212220e+000
      vertex -4.312510e+000  5.048412e+000 -3.080950e+000
    endloop
  endfacet
  facet normal -9.062929e-001 -2.376589e-003 -4.226435e-001
    outer loop
      vertex -4.526126e+000  2.900000e+001 -2.757569e+000
      vertex -4.312510e+000  5.048412e+000 -3.080950e+000
      vertex -5.130400e+000  5.568067e+000 -1.330036e+000
    endloop
  endfacet
  facet normal  0.000000e+000  1.000000e+000  0.000000e+000
    outer loop
      vertex -2.061530e+000  3.000000e+001 -3.773605e+000
      vertex  2.237273e+000  3.000000e+001 -3.672140e+000
      vertex  1.014654e-001  3.000000e+001 -4.298803e+000
    endloop
  endfacet
  facet normal  0.000000e+000  1.000000e+000  0.000000e+000
    outer loop
      vertex  2.237273e+000  3.000000e+001 -3.672140e+000
      vertex -2.061530e+000  3.000000e+001 -3.773605e+000
      vertex  3.773605e+000  3.000000e+001 -2.061530e+000
    endloop
  endfacet
  facet normal  0.000000e+000  1.000000e+000  0.000000e+000
    outer loop
      vertex  3.773605e+000  3.000000e+001 -2.061530e+000
      vertex -2.061530e+000  3.000000e+001 -3.773605e+000
      vertex -3.672140e+000  3.000000e+001 -2.237273e+000
    endloop
  endfacet
  facet normal  0.000000e+000  1.000000e+000  0.000000e+000
    outer loop
      vertex  3.773605e+000  3.000000e+001 -2.061530e+000
      vertex -3.672140e+000  3.000000e+001 -2.237273e+000
      vertex  4.298803e+000  3.000000e+001  1.014654e-001
    endloop
  endfacet
  facet normal  0.000000e+000  1.000000e+000  0.000000e+000
    outer loop
      vertex  4.298803e+000  3.000000e+001  1.014654e-001
      vertex -3.672140e+000  3.000000e+001 -2.237273e+000
      vertex -4.298803e+000  3.000000e+001 -1.014653e-001
    endloop
  endfacet
  facet normal  0.000000e+000  1.000000e+000  0.000000e+000
    outer loop
      vertex  4.298803e+000  3.000000e+001  1.014654e-001
      vertex -4.298803e+000  3.000000e+001 -1.014653e-001
      vertex  3.672140e+000  3.000000e+001  2.237273e+000
    endloop
  endfacet
  facet normal  0.000000e+000  1.000000e+000  0.000000e+000
    outer loop
      vertex  3.672140e+000  3.000000e+001  2.237273e+000
      vertex -4.298803e+000  3.000000e+001 -1.014653e-001
      vertex -3.773605e+000  3.000000e+001  2.061530e+000
    endloop
  endfacet
  facet normal  0.000000e+000  1.000000e+000  0.000000e+000
    outer loop
      vertex  3.672140e+000  3.000000e+001  2.237273e+000
      vertex -3.773605e+000  3.000000e+001  2.061530e+000
      vertex  2.061530e+000  3.000000e+001  3.773605e+000
    endloop
  endfacet
  facet normal  0.000000e+000  1.000000e+000  0.000000e+000
    outer loop
      vertex  2.061530e+000  3.000000e+001  3.773605e+000
      vertex -3.773605e+000  3.000000e+001  2.061530e+000
      vertex -2.237273e+000  3.000000e+001  3.672140e+000
    endloop
  endfacet
  facet normal  0.000000e+000  1.000000e+000  0.000000e+000
    outer loop
      vertex  2.061530e+000  3.000000e+001  3.773605e+000
      vertex -2.237273e+000  3.000000e+001  3.672140e+000
      vertex -1.014653e-001  3.000000e+001  4.298803e+000
    endloop
  endfacet
  facet normal -9.299332e-002  9.190608e-001 -3.829874e-001
    outer loop
      vertex -2.061530e+000  3.000000e+001 -3.773605e+000
      vertex  1.014654e-001  3.000000e+001 -4.298803e+000
      vertex -2.400535e+000  2.970711e+001 -4.394150e+000
    endloop
  endfacet
  facet normal -9.299330e-002  9.190608e-001 -3.829875e-001
    outer loop
      vertex -2.400535e+000  2.970711e+001 -4.394150e+000
      vertex  1.014654e-001  3.000000e+001 -4.298803e+000
      vertex  1.181506e-001  2.970711e+001 -5.005713e+000
    endloop
  endfacet
  facet normal -2.190706e-001  3.714696e-001 -9.022297e-001
    outer loop
      vertex -2.400535e+000  2.970711e+001 -4.394150e+000
      vertex  1.181506e-001  2.970711e+001 -5.005713e+000
      vertex -2.540955e+000  2.900000e+001 -4.651187e+000
    endloop
  endfacet
  facet normal -2.190707e-001  3.714702e-001 -9.022294e-001
    outer loop
      vertex -2.540955e+000  2.900000e+001 -4.651187e+000
      vertex  1.181506e-001  2.970711e+001 -5.005713e+000
      vertex  1.250619e-001  2.900000e+001 -5.298524e+000
    endloop
  endfacet
  facet normal  2.720283e-001  9.190609e-001  2.851802e-001
    outer loop
      vertex  3.672140e+000  3.000000e+001  2.237273e+000
      vertex  2.061530e+000  3.000000e+001  3.773605e+000
      vertex  4.275999e+000  2.970711e+001  2.605178e+000
    endloop
  endfacet
  facet normal  2.720284e-001  9.190609e-001  2.851802e-001
    outer loop
      vertex  4.275999e+000  2.970711e+001  2.605178e+000
      vertex  2.061530e+000  3.000000e+001  3.773605e+000
      vertex  2.400535e+000  2.970711e+001  4.394150e+000
    endloop
  endfacet
  facet normal  6.408355e-001  3.714702e-001  6.718182e-001
    outer loop
      vertex  4.275999e+000  2.970711e+001  2.605178e+000
      vertex  2.400535e+000  2.970711e+001  4.394150e+000
      vertex  4.526126e+000  2.900000e+001  2.757569e+000
    endloop
  endfacet
  facet normal  6.408356e-001  3.714697e-001  6.718184e-001
    outer loop
      vertex  4.526126e+000  2.900000e+001  2.757569e+000
      vertex  2.400535e+000  2.970711e+001  4.394150e+000
      vertex  2.540955e+000  2.900000e+001  4.651187e+000
    endloop
  endfacet
  facet normal  3.781736e-001  9.190608e-001  1.109592e-001
    outer loop
      vertex  4.298803e+000  3.000000e+001  1.014654e-001
      vertex  3.672140e+000  3.000000e+001  2.237273e+000
      vertex  5.005713e+000  2.970711e+001  1.181506e-001
    endloop
  endfacet
  facet normal  3.781735e-001  9.190609e-001  1.109591e-001
    outer loop
      vertex  5.005713e+000  2.970711e+001  1.181506e-001
      vertex  3.672140e+000  3.000000e+001  2.237273e+000
      vertex  4.275999e+000  2.970711e+001  2.605178e+000
    endloop
  endfacet
  facet normal  8.908889e-001  3.714702e-001  2.613939e-001
    outer loop
      vertex  5.005713e+000  2.970711e+001  1.181506e-001
      vertex  4.275999e+000  2.970711e+001  2.605178e+000
      vertex  5.298524e+000  2.900000e+001  1.250619e-001
    endloop
  endfacet
  facet normal  8.908889e-001  3.714702e-001  2.613939e-001
    outer loop
      vertex  5.298524e+000  2.900000e+001  1.250619e-001
      vertex  4.275999e+000  2.970711e+001  2.605178e+000
      vertex  4.526126e+000  2.900000e+001  2.757569e+000
    endloop
  endfacet
  facet normal  3.829874e-001  9.190608e-001 -9.299332e-002
    outer loop
      vertex  3.773605e+000  3.000000e+001 -2.061530e+000
      vertex  4.298803e+000  3.000000e+001  1.014654e-001
      vertex  4.394150e+000  2.970711e+001 -2.400535e+000
    endloop
  endfacet
  facet normal  3.829875e-001  9.190608e-001 -9.299330e-002
    outer loop
      vertex  4.394150e+000  2.970711e+001 -2.400535e+000
      vertex  4.298803e+000  3.000000e+001  1.014654e-001
      vertex  5.005713e+000  2.970711e+001  1.181506e-001
    endloop
  endfacet
  facet normal  9.022297e-001  3.714696e-001 -2.190706e-001
    outer loop
      vertex  4.394150e+000  2.970711e+001 -2.400535e+000
      vertex  5.005713e+000  2.970711e+001  1.181506e-001
      vertex  4.651187e+000  2.900000e+001 -2.540955e+000
    endloop
  endfacet
  facet normal  9.022294e-001  3.714702e-001 -2.190707e-001
    outer loop
      vertex  4.651187e+000  2.900000e+001 -2.540955e+000
      vertex  5.005713e+000  2.970711e+001  1.181506e-001
      vertex  5.298524e+000  2.900000e+001  1.250619e-001
    endloop
  endfacet
  facet normal  2.851802e-001  9.190609e-001 -2.720283e-001
    outer loop
      vertex  2.237273e+000  3.000000e+001 -3.672140e+000
      vertex  3.773605e+000  3.000000e+001 -2.061530e+000
      vertex  2.605178e+000  2.970711e+001 -4.275999e+000
    endloop
  endfacet
  facet normal  2.851802e-001  9.190609e-001 -2.720284e-001
    outer loop
      vertex  2.605178e+000  2.970711e+001 -4.275999e+000
      vertex  3.773605e+000  3.000000e+001 -2.061530e+000
      vertex  4.394150e+000  2.970711e+001 -2.400535e+000
    endloop
  endfacet
  facet normal  6.718182e-001  3.714702e-001 -6.408355e-001
    outer loop
      vertex  2.605178e+000  2.970711e+001 -4.275999e+000
      vertex  4.394150e+000  2.970711e+001 -2.400535e+000
      vertex  2.757569e+000  2.900000e+001 -4.526126e+000
    endloop
  endfacet
  facet normal  6.718184e-001  3.714697e-001 -6.408356e-001
    outer loop
      vertex  2.757569e+000  2.900000e+001 -4.526126e+000
      vertex  4.394150e+000  2.970711e+001 -2.400535e+000
      vertex  4.651187e+000  2.900000e+001 -2.540955e+000
    endloop
  endfacet
  facet normal  1.109592e-001  9.190608e-001 -3.781736e-001
    outer loop
      vertex  1.014654e-001  3.000000e+001 -4.298803e+000
      vertex  2.237273e+000  3.000000e+001 -3.672140e+000
      vertex  1.181506e-001  2.970711e+001 -5.005713e+000
    endloop
  endfacet
  facet normal  1.109591e-001  9.190609e-001 -3.781735e-001
    outer loop
      vertex  1.181506e-001  2.970711e+001 -5.005713e+000
      vertex  2.237273e+000  3.000000e+001 -3.672140e+000
      vertex  2.605178e+000  2.970711e+001 -4.275999e+000
    endloop
  endfacet
  facet normal  2.613939e-001  3.714702e-001 -8.908889e-001
    outer loop
      vertex  1.181506e-001  2.970711e+001 -5.005713e+000
      vertex  2.605178e+000  2.970711e+001 -4.275999e+000
      vertex  1.250619e-001  2.900000e+001 -5.298524e+000
    endloop
  endfacet
  facet normal  2.613939e-001  3.714702e-001 -8.908889e-001
    outer loop
      vertex  1.250619e-001  2.900000e+001 -5.298524e+000
      vertex  2.605178e+000  2.970711e+001 -4.275999e+000
      vertex  2.757569e+000  2.900000e+001 -4.526126e+000
    endloop
  endfacet
  facet normal  9.299333e-002  9.190608e-001  3.829874e-001
    outer loop
      vertex  2.061530e+000  3.000000e+001  3.773605e+000
      vertex -1.014653e-001  3.000000e+001  4.298803e+000
      vertex  2.400535e+000  2.970711e+001  4.394150e+000
    endloop
  endfacet
  facet normal  9.299332e-002  9.190608e-001  3.829876e-001
    outer loop
      vertex  2.400535e+000  2.970711e+001  4.394150e+000
      vertex -1.014653e-001  3.000000e+001  4.298803e+000
      vertex -1.181506e-001  2.970711e+001  5.005713e+000
    endloop
  endfacet
  facet normal  2.190706e-001  3.714696e-001  9.022297e-001
    outer loop
      vertex  2.400535e+000  2.970711e+001  4.394150e+000
      vertex -1.181506e-001  2.970711e+001  5.005713e+000
      vertex  2.540955e+000  2.900000e+001  4.651187e+000
    endloop
  endfacet
  facet normal  2.190707e-001  3.714702e-001  9.022294e-001
    outer loop
      vertex  2.540955e+000  2.900000e+001  4.651187e+000
      vertex -1.181506e-001  2.970711e+001  5.005713e+000
      vertex -1.250619e-001  2.900000e+001  5.298524e+000
    endloop
  endfacet
  facet normal -2.720283e-001  9.190609e-001 -2.851801e-001
    outer loop
      vertex -3.672140e+000  3.000000e+001 -2.237273e+000
      vertex -2.061530e+000  3.000000e+001 -3.773605e+000
      vertex -4.275999e+000  2.970711e+001 -2.605178e+000
    endloop
  endfacet
  facet normal -2.720283e-001  9.190609e-001 -2.851801e-001
    outer loop
      vertex -4.275999e+000  2.970711e+001 -2.605178e+000
      vertex -2.061530e+000  3.000000e+001 -3.773605e+000
      vertex -2.400535e+000  2.970711e+001 -4.394150e+000
    endloop
  endfacet
  facet normal -6.408355e-001  3.714702e-001 -6.718182e-001
    outer loop
      vertex -4.275999e+000  2.970711e+001 -2.605178e+000
      vertex -2.400535e+000  2.970711e+001 -4.394150e+000
      vertex -4.526126e+000  2.900000e+001 -2.757569e+000
    endloop
  endfacet
  facet normal -6.408356e-001  3.714697e-001 -6.718184e-001
    outer loop
      vertex -4.526126e+000  2.900000e+001 -2.757569e+000
      vertex -2.400535e+000  2.970711e+001 -4.394150e+000
      vertex -2.540955e+000  2.900000e+001 -4.651187e+000
    endloop
  endfacet
  facet normal -3.781736e-001  9.190608e-001 -1.109592e-001
    outer loop
      vertex -4.298803e+000  3.000000e+001 -1.014653e-001
      vertex -3.672140e+000  3.000000e+001 -2.237273e+000
      vertex -5.005713e+000  2.970711e+001 -1.181506e-001
    endloop
  endfacet
  facet normal -3.781735e-001  9.190609e-001 -1.109591e-001
    outer loop
      vertex -5.005713e+000  2.970711e+001 -1.181506e-001
      vertex -3.672140e+000  3.000000e+001 -2.237273e+000
      vertex -4.275999e+000  2.970711e+001 -2.605178e+000
    endloop
  endfacet
  facet normal -8.908889e-001  3.714702e-001 -2.613939e-001
    outer loop
      vertex -5.005713e+000  2.970711e+001 -1.181506e-001
      vertex -4.275999e+000  2.970711e+001 -2.605178e+000
      vertex -5.298524e+000  2.900000e+001 -1.250619e-001
    endloop
  endfacet
  facet normal -8.908889e-001  3.714702e-001 -2.613939e-001
    outer loop
      vertex -5.298524e+000  2.900000e+001 -1.250619e-001
      vertex -4.275999e+000  2.970711e+001 -2.605178e+000
      vertex -4.526126e+000  2.900000e+001 -2.757569e+000
    endloop
  endfacet
  facet normal -3.829874e-001  9.190608e-001  9.299333e-002
    outer loop
      vertex -3.773605e+000  3.000000e+001  2.061530e+000
      vertex -4.298803e+000  3.000000e+001 -1.014653e-001
      vertex -4.394150e+000  2.970711e+001  2.400535e+000
    endloop
  endfacet
  facet normal -3.829876e-001  9.190608e-001  9.299332e-002
    outer loop
      vertex -4.394150e+000  2.970711e+001  2.400535e+000
      vertex -4.298803e+000  3.000000e+001 -1.014653e-001
      vertex -5.005713e+000  2.970711e+001 -1.181506e-001
    endloop
  endfacet
  facet normal -9.022297e-001  3.714696e-001  2.190706e-001
    outer loop
      vertex -4.394150e+000  2.970711e+001  2.400535e+000
      vertex -5.005713e+000  2.970711e+001 -1.181506e-001
      vertex -4.651187e+000  2.900000e+001  2.540955e+000
    endloop
  endfacet
  facet normal -9.022294e-001  3.714702e-001  2.190707e-001
    outer loop
      vertex -4.651187e+000  2.900000e+001  2.540955e+000
      vertex -5.005713e+000  2.970711e+001 -1.181506e-001
      vertex -5.298524e+000  2.900000e+001 -1.250619e-001
    endloop
  endfacet
  facet normal -2.851802e-001  9.190609e-001  2.720283e-001
    outer loop
      vertex -2.237273e+000  3.000000e+001  3.672140e+000
      vertex -3.773605e+000  3.000000e+001  2.061530e+000
      vertex -2.605178e+000  2.970711e+001  4.275999e+000
    endloop
  endfacet
  facet normal -2.851802e-001  9.190609e-001  2.720284e-001
    outer loop
      vertex -2.605178e+000  2.970711e+001  4.275999e+000
      vertex -3.773605e+000  3.000000e+001  2.061530e+000
      vertex -4.394150e+000  2.970711e+001  2.400535e+000
    endloop
  endfacet
  facet normal -6.718182e-001  3.714702e-001  6.408355e-001
    outer loop
      vertex -2.605178e+000  2.970711e+001  4.275999e+000
      vertex -4.394150e+000  2.970711e+001  2.400535e+000
      vertex -2.757569e+000  2.900000e+001  4.526126e+000
    endloop
  endfacet
  facet normal -6.718184e-001  3.714697e-001  6.408356e-001
    outer loop
      vertex -2.757569e+000  2.900000e+001  4.526126e+000
      vertex -4.394150e+000  2.970711e+001  2.400535e+000
      vertex -4.651187e+000  2.900000e+001  2.540955e+000
    endloop
  endfacet
  facet normal -1.109592e-001  9.190608e-001  3.781736e-001
    outer loop
      vertex -1.014653e-001  3.000000e+001  4.298803e+000
      vertex -2.237273e+000  3.000000e+001  3.672140e+000
      vertex -1.181506e-001  2.970711e+001  5.005713e+000
    endloop
  endfacet
  facet normal -1.109591e-001  9.190609e-001  3.781735e-001
    outer loop
      vertex -1.181506e-001  2.970711e+001  5.005713e+000
      vertex -2.237273e+000  3.000000e+001  3.672140e+000
      vertex -2.605178e+000  2.970711e+001  4.275999e+000
    endloop
  endfacet
  facet normal -2.613939e-001  3.714702e-001  8.908889e-001
    outer loop
      vertex -1.181506e-001  2.970711e+001  5.005713e+000
      vertex -2.605178e+000  2.970711e+001  4.275999e+000
      vertex -1.250619e-001  2.900000e+001  5.298524e+000
    endloop
  endfacet
  facet normal -2.613939e-001  3.714702e-001  8.908889e-001
    outer loop
      vertex -1.250619e-001  2.900000e+001  5.298524e+000
      vertex -2.605178e+000  2.970711e+001  4.275999e+000
      vertex -2.757569e+000  2.900000e+001  4.526126e+000
    endloop
  endfacet
  facet normal -1.055762e-001 -5.527785e-001  8.266134e-001
    outer loop
      vertex -1.656250e+000 -6.574279e+000  5.034564e+000
      vertex -1.853553e+000 -8.698666e+000  3.588730e+000
      vertex -1.557445e+000 -6.546140e+000  5.066001e+000
    endloop
  endfacet
  facet normal -9.093860e-001 -3.622991e-001  2.043436e-001
    outer loop
      vertex -2.000000e+000 -8.506266e+000  3.278125e+000
      vertex -1.853553e+000 -9.984594e+000  1.308791e+000
      vertex -1.853553e+000 -8.698666e+000  3.588730e+000
    endloop
  endfacet
  facet normal -9.160632e-001 -4.010338e-001  0.000000e+000
    outer loop
      vertex -2.000000e+000 -9.650073e+000  1.190304e+000
      vertex -1.853553e+000 -9.984594e+000 -1.308791e+000
      vertex -1.853553e+000 -9.984594e+000  1.308791e+000
    endloop
  endfacet
  facet normal -9.226230e-001 -3.382660e-001  1.853181e-001
    outer loop
      vertex -2.000000e+000 -9.650073e+000  1.190304e+000
      vertex -1.853553e+000 -9.984594e+000  1.308791e+000
      vertex -2.000000e+000 -8.506266e+000  3.278125e+000
    endloop
  endfacet
  facet normal -9.160632e-001 -4.010338e-001  -0.000000e+000
    outer loop
      vertex -1.853553e+000 -9.984594e+000 -1.308791e+000
      vertex -2.000000e+000 -9.650073e+000  1.190304e+000
      vertex -2.000000e+000 -9.650073e+000 -1.190304e+000
    endloop
  endfacet
  facet normal -1.055762e-001 -5.527785e-001 -8.266134e-001
    outer loop
      vertex -1.853553e+000 -8.698666e+000 -3.588730e+000
      vertex -1.656250e+000 -6.574279e+000 -5.034564e+000
      vertex -1.557445e+000 -6.546140e+000 -5.066001e+000
    endloop
  endfacet
  facet normal  2.218770e-001 -5.723162e-001 -7.894459e-001
    outer loop
      vertex -1.853553e+000 -8.698666e+000 -3.588730e+000
      vertex -1.557445e+000 -6.546140e+000 -5.066001e+000
      vertex -1.500001e+000 -6.500000e+000 -5.083306e+000
    endloop
  endfacet
  facet normal -3.718972e-001 -4.802109e-001 -7.944117e-001
    outer loop
      vertex -1.853553e+000 -8.698666e+000 -3.588730e+000
      vertex -1.500001e+000 -6.500000e+000 -5.083306e+000
      vertex -1.500000e+000 -8.803769e+000 -3.690710e+000
    endloop
  endfacet
  facet normal -3.718973e-001 -8.085355e-001 -4.560294e-001
    outer loop
      vertex -1.853553e+000 -8.698666e+000 -3.588730e+000
      vertex -1.500000e+000 -8.803769e+000 -3.690710e+000
      vertex -1.500000e+000 -1.012624e+001 -1.345982e+000
    endloop
  endfacet
  facet normal -3.718977e-001 -8.085353e-001 -4.560292e-001
    outer loop
      vertex -1.853553e+000 -8.698666e+000 -3.588730e+000
      vertex -1.500000e+000 -1.012624e+001 -1.345982e+000
      vertex -1.853553e+000 -9.984594e+000 -1.308791e+000
    endloop
  endfacet
  facet normal -9.223368e-001 -3.365466e-001 -1.898187e-001
    outer loop
      vertex -1.853553e+000 -8.698666e+000 -3.588730e+000
      vertex -1.853553e+000 -9.984594e+000 -1.308791e+000
      vertex -2.000000e+000 -9.650073e+000 -1.190304e+000
    endloop
  endfacet
  facet normal -9.082962e-001 -3.668782e-001 -2.009933e-001
    outer loop
      vertex -1.853553e+000 -8.698666e+000 -3.588730e+000
      vertex -2.000000e+000 -9.650073e+000 -1.190304e+000
      vertex -2.000000e+000 -8.506266e+000 -3.278125e+000
    endloop
  endfacet
  facet normal -9.282017e-001 -2.002892e-001 -3.135697e-001
    outer loop
      vertex -1.853553e+000 -8.698666e+000 -3.588730e+000
      vertex -2.000000e+000 -8.506266e+000 -3.278125e+000
      vertex -2.000000e+000 -6.500000e+000 -4.559605e+000
    endloop
  endfacet
  facet normal -9.434651e-001 -1.844550e-001 -2.754090e-001
    outer loop
      vertex -1.853553e+000 -8.698666e+000 -3.588730e+000
      vertex -2.000000e+000 -6.500000e+000 -4.559605e+000
      vertex -1.905649e+000 -6.546138e+000 -4.851922e+000
    endloop
  endfacet
  facet normal -5.649793e-001 -4.277359e-001 -7.055780e-001
    outer loop
      vertex -1.853553e+000 -8.698666e+000 -3.588730e+000
      vertex -1.905649e+000 -6.546138e+000 -4.851922e+000
      vertex -1.656250e+000 -6.574279e+000 -5.034564e+000
    endloop
  endfacet
  facet normal -9.444694e-001 -1.768850e-001  2.769284e-001
    outer loop
      vertex -2.000000e+000 -6.500000e+000  4.559605e+000
      vertex -2.000000e+000 -8.506266e+000  3.278125e+000
      vertex -1.905649e+000 -6.546138e+000  4.851922e+000
    endloop
  endfacet
  facet normal -9.281629e-001 -2.048209e-001  3.107443e-001
    outer loop
      vertex -1.905649e+000 -6.546138e+000  4.851922e+000
      vertex -2.000000e+000 -8.506266e+000  3.278125e+000
      vertex -1.853553e+000 -8.698666e+000  3.588730e+000
    endloop
  endfacet
  facet normal -5.649794e-001 -4.277358e-001  7.055779e-001
    outer loop
      vertex -1.905649e+000 -6.546138e+000  4.851922e+000
      vertex -1.853553e+000 -8.698666e+000  3.588730e+000
      vertex -1.656250e+000 -6.574279e+000  5.034564e+000
    endloop
  endfacet
  facet normal  1.557866e-001 -5.109997e-001  8.453459e-001
    outer loop
      vertex -1.500001e+000 -6.500000e+000  5.083306e+000
      vertex -1.557445e+000 -6.546140e+000  5.066001e+000
      vertex -1.500000e+000 -8.803769e+000  3.690710e+000
    endloop
  endfacet
  facet normal -3.728961e-001 -4.896238e-001  7.881733e-001
    outer loop
      vertex -1.500000e+000 -8.803769e+000  3.690710e+000
      vertex -1.557445e+000 -6.546140e+000  5.066001e+000
      vertex -1.853553e+000 -8.698666e+000  3.588730e+000
    endloop
  endfacet
  facet normal -3.718973e-001 -8.085355e-001  4.560294e-001
    outer loop
      vertex -1.500000e+000 -8.803769e+000  3.690710e+000
      vertex -1.853553e+000 -8.698666e+000  3.588730e+000
      vertex -1.500000e+000 -1.012624e+001  1.345982e+000
    endloop
  endfacet
  facet normal -3.718977e-001 -8.085353e-001  4.560292e-001
    outer loop
      vertex -1.500000e+000 -1.012624e+001  1.345982e+000
      vertex -1.853553e+000 -8.698666e+000  3.588730e+000
      vertex -1.853553e+000 -9.984594e+000  1.308791e+000
    endloop
  endfacet
  facet normal -3.718978e-001 -9.282737e-001  0.000000e+000
    outer loop
      vertex -1.500000e+000 -1.012624e+001  1.345982e+000
      vertex -1.853553e+000 -9.984594e+000  1.308791e+000
      vertex -1.500000e+000 -1.012624e+001 -1.345982e+000
    endloop
  endfacet
  facet normal -3.718978e-001 -9.282737e-001  0.000000e+000
    outer loop
      vertex -1.500000e+000 -1.012624e+001 -1.345982e+000
      vertex -1.853553e+000 -9.984594e+000  1.308791e+000
      vertex -1.853553e+000 -9.984594e+000 -1.308791e+000
    endloop
  endfacet
  facet normal -1.429786e-001  1.067702e-016 -9.897258e-001
    outer loop
      vertex  0.000000e+000  5.329071e-015 -5.300000e+000
      vertex -3.733783e-015 -5.000000e+000 -5.300000e+000
      vertex -1.500001e+000 -6.500000e+000 -5.083306e+000
    endloop
  endfacet
  facet normal -3.190047e-001  4.205181e-002 -9.468198e-001
    outer loop
      vertex  0.000000e+000  5.329071e-015 -5.300000e+000
      vertex -1.500001e+000 -6.500000e+000 -5.083306e+000
      vertex -1.557445e+000 -6.546140e+000 -5.066001e+000
    endloop
  endfacet
  facet normal -3.134399e-001  4.065932e-002 -9.487372e-001
    outer loop
      vertex  0.000000e+000  5.329071e-015 -5.300000e+000
      vertex -1.557445e+000 -6.546140e+000 -5.066001e+000
      vertex -1.656250e+000 -6.574279e+000 -5.034564e+000
    endloop
  endfacet
  facet normal -1.582440e-001  0.000000e+000 -9.874000e-001
    outer loop
      vertex  0.000000e+000  5.329071e-015 -5.300000e+000
      vertex -1.656250e+000 -6.574279e+000 -5.034564e+000
      vertex -1.656250e+000  0.000000e+000 -5.034564e+000
    endloop
  endfacet
  facet normal  3.031941e-001  1.728336e-008 -9.529287e-001
    outer loop
      vertex  1.656253e+000  0.000000e+000 -5.034563e+000
      vertex  1.656250e+000 -6.574279e+000 -5.034564e+000
      vertex  1.557445e+000 -6.546140e+000 -5.066001e+000
    endloop
  endfacet
  facet normal  2.886222e-001  2.416465e-004 -9.574431e-001
    outer loop
      vertex  1.656253e+000  0.000000e+000 -5.034563e+000
      vertex  1.557445e+000 -6.546140e+000 -5.066001e+000
      vertex  1.500001e+000 -6.500000e+000 -5.083306e+000
    endloop
  endfacet
  facet normal  1.467860e-001  3.889055e-003 -9.891607e-001
    outer loop
      vertex  1.656253e+000  0.000000e+000 -5.034563e+000
      vertex  1.500001e+000 -6.500000e+000 -5.083306e+000
      vertex -3.733783e-015 -5.000000e+000 -5.300000e+000
    endloop
  endfacet
  facet normal  1.582443e-001 -1.181700e-016 -9.874000e-001
    outer loop
      vertex  1.656253e+000  0.000000e+000 -5.034563e+000
      vertex -3.733783e-015 -5.000000e+000 -5.300000e+000
      vertex  0.000000e+000  5.329071e-015 -5.300000e+000
    endloop
  endfacet
  facet normal  0.000000e+000 -1.429787e-001 -9.897258e-001
    outer loop
      vertex -1.500001e+000 -6.500000e+000 -5.083306e+000
      vertex -3.733783e-015 -5.000000e+000 -5.300000e+000
      vertex  1.500001e+000 -6.500000e+000 -5.083306e+000
    endloop
  endfacet
  facet normal  -0.000000e+000 -5.173159e-001 -8.557945e-001
    outer loop
      vertex -1.500001e+000 -6.500000e+000 -5.083306e+000
      vertex  1.500001e+000 -6.500000e+000 -5.083306e+000
      vertex -1.500000e+000 -8.803769e+000 -3.690710e+000
    endloop
  endfacet
  facet normal  0.000000e+000 -5.173159e-001 -8.557945e-001
    outer loop
      vertex -1.500000e+000 -8.803769e+000 -3.690710e+000
      vertex  1.500001e+000 -6.500000e+000 -5.083306e+000
      vertex  1.500000e+000 -8.803769e+000 -3.690710e+000
    endloop
  endfacet
  facet normal  -0.000000e+000 -8.710096e-001 -4.912660e-001
    outer loop
      vertex -1.500000e+000 -8.803769e+000 -3.690710e+000
      vertex  1.500000e+000 -8.803769e+000 -3.690710e+000
      vertex -1.500000e+000 -1.012624e+001 -1.345982e+000
    endloop
  endfacet
  facet normal  0.000000e+000 -8.710096e-001 -4.912660e-001
    outer loop
      vertex -1.500000e+000 -1.012624e+001 -1.345982e+000
      vertex  1.500000e+000 -8.803769e+000 -3.690710e+000
      vertex  1.500000e+000 -1.012624e+001 -1.345982e+000
    endloop
  endfacet
  facet normal  0.000000e+000 -1.000000e+000  0.000000e+000
    outer loop
      vertex -1.500000e+000 -1.012624e+001 -1.345982e+000
      vertex  1.500000e+000 -1.012624e+001 -1.345982e+000
      vertex -1.500000e+000 -1.012624e+001  1.345982e+000
    endloop
  endfacet
  facet normal  0.000000e+000 -1.000000e+000  0.000000e+000
    outer loop
      vertex -1.500000e+000 -1.012624e+001  1.345982e+000
      vertex  1.500000e+000 -1.012624e+001 -1.345982e+000
      vertex  1.500000e+000 -1.012624e+001  1.345982e+000
    endloop
  endfacet
  facet normal  0.000000e+000 -8.710096e-001  4.912660e-001
    outer loop
      vertex -1.500000e+000 -1.012624e+001  1.345982e+000
      vertex  1.500000e+000 -1.012624e+001  1.345982e+000
      vertex -1.500000e+000 -8.803769e+000  3.690710e+000
    endloop
  endfacet
  facet normal  0.000000e+000 -8.710096e-001  4.912660e-001
    outer loop
      vertex -1.500000e+000 -8.803769e+000  3.690710e+000
      vertex  1.500000e+000 -1.012624e+001  1.345982e+000
      vertex  1.500000e+000 -8.803769e+000  3.690710e+000
    endloop
  endfacet
  facet normal  0.000000e+000 -5.173159e-001  8.557945e-001
    outer loop
      vertex -1.500000e+000 -8.803769e+000  3.690710e+000
      vertex  1.500000e+000 -8.803769e+000  3.690710e+000
      vertex -1.500001e+000 -6.500000e+000  5.083306e+000
    endloop
  endfacet
  facet normal  0.000000e+000 -5.173159e-001  8.557945e-001
    outer loop
      vertex -1.500001e+000 -6.500000e+000  5.083306e+000
      vertex  1.500000e+000 -8.803769e+000  3.690710e+000
      vertex  1.500001e+000 -6.500000e+000  5.083306e+000
    endloop
  endfacet
  facet normal  0.000000e+000 -1.429787e-001  9.897258e-001
    outer loop
      vertex -1.500001e+000 -6.500000e+000  5.083306e+000
      vertex  1.500001e+000 -6.500000e+000  5.083306e+000
      vertex -2.775558e-017 -5.000000e+000  5.300000e+000
    endloop
  endfacet
  facet normal  1.429786e-001 -5.555833e-018  9.897258e-001
    outer loop
      vertex  1.665335e-016  0.000000e+000  5.300000e+000
      vertex -2.775558e-017 -5.000000e+000  5.300000e+000
      vertex  1.500001e+000 -6.500000e+000  5.083306e+000
    endloop
  endfacet
  facet normal  3.190047e-001  4.205181e-002  9.468198e-001
    outer loop
      vertex  1.665335e-016  0.000000e+000  5.300000e+000
      vertex  1.500001e+000 -6.500000e+000  5.083306e+000
      vertex  1.557445e+000 -6.546140e+000  5.066001e+000
    endloop
  endfacet
  facet normal  3.134399e-001  4.065932e-002  9.487372e-001
    outer loop
      vertex  1.665335e-016  0.000000e+000  5.300000e+000
      vertex  1.557445e+000 -6.546140e+000  5.066001e+000
      vertex  1.656250e+000 -6.574279e+000  5.034564e+000
    endloop
  endfacet
  facet normal  1.582440e-001  -0.000000e+000  9.874000e-001
    outer loop
      vertex  1.665335e-016  0.000000e+000  5.300000e+000
      vertex  1.656250e+000 -6.574279e+000  5.034564e+000
      vertex  1.656250e+000  0.000000e+000  5.034564e+000
    endloop
  endfacet
  facet normal -1.429786e-001  5.555833e-018  9.897258e-001
    outer loop
      vertex -2.775558e-017 -5.000000e+000  5.300000e+000
      vertex  1.665335e-016  0.000000e+000  5.300000e+000
      vertex -1.500001e+000 -6.500000e+000  5.083306e+000
    endloop
  endfacet
  facet normal -1.582431e-001  3.600329e-003  9.873936e-001
    outer loop
      vertex -1.500001e+000 -6.500000e+000  5.083306e+000
      vertex  1.665335e-016  0.000000e+000  5.300000e+000
      vertex -1.656252e+000  0.000000e+000  5.034564e+000
    endloop
  endfacet
  facet normal -2.886221e-001  2.415984e-004  9.574431e-001
    outer loop
      vertex -1.500001e+000 -6.500000e+000  5.083306e+000
      vertex -1.656252e+000  0.000000e+000  5.034564e+000
      vertex -1.557445e+000 -6.546140e+000  5.066001e+000
    endloop
  endfacet
  facet normal -3.031941e-001 -2.984236e-008  9.529289e-001
    outer loop
      vertex -1.557445e+000 -6.546140e+000  5.066001e+000
      vertex -1.656252e+000  0.000000e+000  5.034564e+000
      vertex -1.656250e+000 -6.574279e+000  5.034564e+000
    endloop
  endfacet
  facet normal -1.000000e+000  0.000000e+000  0.000000e+000
    outer loop
      vertex -2.000000e+000  0.000000e+000  4.559605e+000
      vertex -2.000000e+000  0.000000e+000 -4.559605e+000
      vertex -2.000000e+000 -3.691853e+000  1.308148e+000
    endloop
  endfacet
  facet normal -1.000000e+000  0.000000e+000  0.000000e+000
    outer loop
      vertex -2.000000e+000  0.000000e+000  4.559605e+000
      vertex -2.000000e+000 -3.691853e+000  1.308148e+000
      vertex -2.000000e+000 -5.000000e+000  1.850000e+000
    endloop
  endfacet
  facet normal -1.000000e+000  0.000000e+000  0.000000e+000
    outer loop
      vertex -2.000000e+000  0.000000e+000  4.559605e+000
      vertex -2.000000e+000 -5.000000e+000  1.850000e+000
      vertex -2.000000e+000 -8.506266e+000  3.278125e+000
    endloop
  endfacet
  facet normal -1.000000e+000  0.000000e+000  0.000000e+000
    outer loop
      vertex -2.000000e+000  0.000000e+000  4.559605e+000
      vertex -2.000000e+000 -8.506266e+000  3.278125e+000
      vertex -2.000000e+000 -6.500000e+000  4.559605e+000
    endloop
  endfacet
  facet normal -1.000000e+000  0.000000e+000  0.000000e+000
    outer loop
      vertex -2.000000e+000  0.000000e+000 -4.559605e+000
      vertex -2.000000e+000 -6.500000e+000 -4.559605e+000
      vertex -2.000000e+000 -5.571681e+000 -1.759455e+000
    endloop
  endfacet
  facet normal -9.999999e-001  0.000000e+000  0.000000e+000
    outer loop
      vertex -2.000000e+000  0.000000e+000 -4.559605e+000
      vertex -2.000000e+000 -5.571681e+000 -1.759455e+000
      vertex -2.000000e+000 -4.428318e+000 -1.759454e+000
    endloop
  endfacet
  facet normal -1.000000e+000  0.000000e+000  0.000000e+000
    outer loop
      vertex -2.000000e+000  0.000000e+000 -4.559605e+000
      vertex -2.000000e+000 -4.428318e+000 -1.759454e+000
      vertex -2.000000e+000 -3.503318e+000 -1.087402e+000
    endloop
  endfacet
  facet normal -1.000000e+000  0.000000e+000  0.000000e+000
    outer loop
      vertex -2.000000e+000  0.000000e+000 -4.559605e+000
      vertex -2.000000e+000 -3.503318e+000 -1.087402e+000
      vertex -2.000000e+000 -3.150000e+000  6.469681e-007
    endloop
  endfacet
  facet normal -1.000000e+000  0.000000e+000  0.000000e+000
    outer loop
      vertex -2.000000e+000  0.000000e+000 -4.559605e+000
      vertex -2.000000e+000 -3.150000e+000  6.469681e-007
      vertex -2.000000e+000 -3.691853e+000  1.308148e+000
    endloop
  endfacet
  facet normal -1.000000e+000  0.000000e+000  0.000000e+000
    outer loop
      vertex -2.000000e+000 -6.496681e+000 -1.087403e+000
      vertex -2.000000e+000 -9.650073e+000 -1.190304e+000
      vertex -2.000000e+000 -6.850000e+000 -8.777430e-017
    endloop
  endfacet
  facet normal -9.999999e-001  -0.000000e+000  0.000000e+000
    outer loop
      vertex -2.000000e+000 -6.850000e+000 -8.777430e-017
      vertex -2.000000e+000 -9.650073e+000 -1.190304e+000
      vertex -2.000000e+000 -9.650073e+000  1.190304e+000
    endloop
  endfacet
  facet normal -1.000000e+000  0.000000e+000  0.000000e+000
    outer loop
      vertex -2.000000e+000 -6.850000e+000 -8.777430e-017
      vertex -2.000000e+000 -9.650073e+000  1.190304e+000
      vertex -2.000000e+000 -6.308147e+000  1.308147e+000
    endloop
  endfacet
  facet normal -1.000000e+000  -0.000000e+000  0.000000e+000
    outer loop
      vertex -2.000000e+000 -6.308147e+000  1.308147e+000
      vertex -2.000000e+000 -9.650073e+000  1.190304e+000
      vertex -2.000000e+000 -8.506266e+000  3.278125e+000
    endloop
  endfacet
  facet normal -1.000000e+000  0.000000e+000  0.000000e+000
    outer loop
      vertex -2.000000e+000 -6.308147e+000  1.308147e+000
      vertex -2.000000e+000 -8.506266e+000  3.278125e+000
      vertex -2.000000e+000 -5.000000e+000  1.850000e+000
    endloop
  endfacet
  facet normal -1.000000e+000  0.000000e+000  0.000000e+000
    outer loop
      vertex -2.000000e+000 -6.500000e+000 -4.559605e+000
      vertex -2.000000e+000 -8.506266e+000 -3.278125e+000
      vertex -2.000000e+000 -5.571681e+000 -1.759455e+000
    endloop
  endfacet
  facet normal -1.000000e+000  -0.000000e+000  0.000000e+000
    outer loop
      vertex -2.000000e+000 -5.571681e+000 -1.759455e+000
      vertex -2.000000e+000 -8.506266e+000 -3.278125e+000
      vertex -2.000000e+000 -9.650073e+000 -1.190304e+000
    endloop
  endfacet
  facet normal -1.000000e+000  0.000000e+000  0.000000e+000
    outer loop
      vertex -2.000000e+000 -5.571681e+000 -1.759455e+000
      vertex -2.000000e+000 -9.650073e+000 -1.190304e+000
      vertex -2.000000e+000 -6.496681e+000 -1.087403e+000
    endloop
  endfacet
  facet normal -9.965684e-001 -8.277238e-002  -0.000000e+000
    outer loop
      vertex -2.000000e+000  0.000000e+000 -4.559605e+000
      vertex -2.000000e+000  0.000000e+000  4.559605e+000
      vertex -2.082215e+000  9.898614e-001 -4.529334e+000
    endloop
  endfacet
  facet normal -9.769397e-001 -2.130316e-001 -1.436388e-002
    outer loop
      vertex -2.082215e+000  9.898614e-001 -4.529334e+000
      vertex -2.000000e+000  0.000000e+000  4.559605e+000
      vertex -2.538082e+000  2.483435e+000  4.324516e+000
    endloop
  endfacet
  facet normal -9.444451e-001 -3.285989e-001  6.804477e-003
    outer loop
      vertex -2.082215e+000  9.898614e-001 -4.529334e+000
      vertex -2.538082e+000  2.483435e+000  4.324516e+000
      vertex -2.739609e+000  2.885876e+000 -4.212396e+000
    endloop
  endfacet
  facet normal -8.415008e-001 -5.402268e-001 -5.602103e-003
    outer loop
      vertex -2.739609e+000  2.885876e+000 -4.212396e+000
      vertex -2.538082e+000  2.483435e+000  4.324516e+000
      vertex -3.451735e+000  3.913219e+000  3.687606e+000
    endloop
  endfacet
  facet normal -8.333644e-001 -5.527145e-001 -3.244727e-003
    outer loop
      vertex -2.739609e+000  2.885876e+000 -4.212396e+000
      vertex -3.451735e+000  3.913219e+000  3.687606e+000
      vertex -3.304533e+000  3.735316e+000 -3.814841e+000
    endloop
  endfacet
  facet normal -6.759082e-001 -7.369738e-001  4.213953e-003
    outer loop
      vertex -3.304533e+000  3.735316e+000 -3.814841e+000
      vertex -3.451735e+000  3.913219e+000  3.687606e+000
      vertex -4.534528e+000  4.898010e+000  2.239129e+000
    endloop
  endfacet
  facet normal -7.168659e-001 -6.971118e-001 -1.176319e-002
    outer loop
      vertex -3.304533e+000  3.735316e+000 -3.814841e+000
      vertex -4.534528e+000  4.898010e+000  2.239129e+000
      vertex -4.220618e+000  4.660072e+000 -2.790295e+000
    endloop
  endfacet
  facet normal -5.542848e-001 -8.323133e-001  4.780545e-003
    outer loop
      vertex -4.220618e+000  4.660072e+000 -2.790295e+000
      vertex -4.534528e+000  4.898010e+000  2.239129e+000
      vertex -4.937150e+000  5.159356e+000  1.058154e+000
    endloop
  endfacet
  facet normal -5.762804e-001 -8.172511e-001 -1.268882e-003
    outer loop
      vertex -4.220618e+000  4.660072e+000 -2.790295e+000
      vertex -4.937150e+000  5.159356e+000  1.058154e+000
      vertex -4.904369e+000  5.139754e+000 -1.204561e+000
    endloop
  endfacet
  facet normal -5.908370e-001 -1.343251e-007  8.067909e-001
    outer loop
      vertex -1.656250e+000 -6.574279e+000  5.034564e+000
      vertex -1.656252e+000  0.000000e+000  5.034564e+000
      vertex -1.905649e+000 -6.546138e+000  4.851922e+000
    endloop
  endfacet
  facet normal -5.900089e-001 -4.858272e-005  8.073967e-001
    outer loop
      vertex -1.905649e+000 -6.546138e+000  4.851922e+000
      vertex -1.656252e+000  0.000000e+000  5.034564e+000
      vertex -1.905046e+000  1.776357e-015  4.852756e+000
    endloop
  endfacet
  facet normal -9.516535e-001  4.841780e-005  3.071738e-001
    outer loop
      vertex -1.905649e+000 -6.546138e+000  4.851922e+000
      vertex -1.905046e+000  1.776357e-015  4.852756e+000
      vertex -2.000000e+000 -6.500000e+000  4.559605e+000
    endloop
  endfacet
  facet normal -9.513392e-001  0.000000e+000  3.081455e-001
    outer loop
      vertex -2.000000e+000 -6.500000e+000  4.559605e+000
      vertex -1.905046e+000  1.776357e-015  4.852756e+000
      vertex -2.000000e+000  0.000000e+000  4.559605e+000
    endloop
  endfacet
  facet normal -5.900066e-001  0.000000e+000 -8.073984e-001
    outer loop
      vertex -1.656250e+000  0.000000e+000 -5.034564e+000
      vertex -1.656250e+000 -6.574279e+000 -5.034564e+000
      vertex -1.905046e+000  3.306279e-015 -4.852756e+000
    endloop
  endfacet
  facet normal -5.908403e-001 -4.841798e-005 -8.067884e-001
    outer loop
      vertex -1.905046e+000  3.306279e-015 -4.852756e+000
      vertex -1.656250e+000 -6.574279e+000 -5.034564e+000
      vertex -1.905649e+000 -6.546138e+000 -4.851922e+000
    endloop
  endfacet
  facet normal -9.513392e-001  4.828240e-005 -3.081455e-001
    outer loop
      vertex -1.905046e+000  3.306279e-015 -4.852756e+000
      vertex -1.905649e+000 -6.546138e+000 -4.851922e+000
      vertex -2.000000e+000  0.000000e+000 -4.559605e+000
    endloop
  endfacet
  facet normal -9.516558e-001  -0.000000e+000 -3.071665e-001
    outer loop
      vertex -2.000000e+000  0.000000e+000 -4.559605e+000
      vertex -1.905649e+000 -6.546138e+000 -4.851922e+000
      vertex -2.000000e+000 -6.500000e+000 -4.559605e+000
    endloop
  endfacet
  facet normal -9.490439e-001 -6.942441e-002 -3.074020e-001
    outer loop
      vertex -2.000000e+000  0.000000e+000 -4.559605e+000
      vertex -2.082215e+000  9.898614e-001 -4.529334e+000
      vertex -1.905046e+000  3.306279e-015 -4.852756e+000
    endloop
  endfacet
  facet normal -9.513506e-001 -7.242677e-002 -2.994767e-001
    outer loop
      vertex -1.905046e+000  3.306279e-015 -4.852756e+000
      vertex -2.082215e+000  9.898614e-001 -4.529334e+000
      vertex -1.993457e+000  1.021707e+000 -4.818996e+000
    endloop
  endfacet
  facet normal -5.898314e-001 -2.436852e-002 -8.071586e-001
    outer loop
      vertex -1.905046e+000  3.306279e-015 -4.852756e+000
      vertex -1.993457e+000  1.021707e+000 -4.818996e+000
      vertex -1.656250e+000  0.000000e+000 -5.034564e+000
    endloop
  endfacet
  facet normal -6.020117e-001 -3.033976e-002 -7.979106e-001
    outer loop
      vertex -1.656250e+000  0.000000e+000 -5.034564e+000
      vertex -1.993457e+000  1.021707e+000 -4.818996e+000
      vertex -1.754594e+000  1.072350e+000 -5.001140e+000
    endloop
  endfacet
  facet normal -9.133809e-001 -2.650355e-001 -3.090172e-001
    outer loop
      vertex -2.082215e+000  9.898614e-001 -4.529334e+000
      vertex -2.739609e+000  2.885876e+000 -4.212396e+000
      vertex -1.993457e+000  1.021707e+000 -4.818996e+000
    endloop
  endfacet
  facet normal -9.259196e-001 -2.930672e-001 -2.382950e-001
    outer loop
      vertex -1.993457e+000  1.021707e+000 -4.818996e+000
      vertex -2.739609e+000  2.885876e+000 -4.212396e+000
      vertex -2.703562e+000  2.983678e+000 -4.472741e+000
    endloop
  endfacet
  facet normal -5.947392e-001 -7.398057e-002 -8.005075e-001
    outer loop
      vertex -1.993457e+000  1.021707e+000 -4.818996e+000
      vertex -2.703562e+000  2.983678e+000 -4.472741e+000
      vertex -1.754594e+000  1.072350e+000 -5.001140e+000
    endloop
  endfacet
  facet normal -6.760437e-001 -1.354126e-001 -7.243122e-001
    outer loop
      vertex -1.754594e+000  1.072350e+000 -5.001140e+000
      vertex -2.703562e+000  2.983678e+000 -4.472741e+000
      vertex -2.540955e+000  3.126366e+000 -4.651187e+000
    endloop
  endfacet
  facet normal -8.544626e-001 -4.362024e-001 -2.821719e-001
    outer loop
      vertex -2.739609e+000  2.885876e+000 -4.212396e+000
      vertex -3.304533e+000  3.735316e+000 -3.814841e+000
      vertex -2.703562e+000  2.983678e+000 -4.472741e+000
    endloop
  endfacet
  facet normal -8.471654e-001 -4.823868e-001 -2.227413e-001
    outer loop
      vertex -2.703562e+000  2.983678e+000 -4.472741e+000
      vertex -3.304533e+000  3.735316e+000 -3.814841e+000
      vertex -3.317748e+000  3.865358e+000 -4.046207e+000
    endloop
  endfacet
  facet normal -6.812214e-001 -1.256396e-001 -7.212156e-001
    outer loop
      vertex -2.703562e+000  2.983678e+000 -4.472741e+000
      vertex -3.317748e+000  3.865358e+000 -4.046207e+000
      vertex -2.540955e+000  3.126366e+000 -4.651187e+000
    endloop
  endfacet
  facet normal -7.169894e-001 -2.093313e-001 -6.649110e-001
    outer loop
      vertex -2.540955e+000  3.126366e+000 -4.651187e+000
      vertex -3.317748e+000  3.865358e+000 -4.046207e+000
      vertex -3.216706e+000  4.046592e+000 -4.212220e+000
    endloop
  endfacet
  facet normal -9.525647e-001 -1.833999e-001  2.428684e-001
    outer loop
      vertex -2.538082e+000  2.483435e+000  4.324516e+000
      vertex -2.000000e+000  0.000000e+000  4.559605e+000
      vertex -2.485312e+000  2.566489e+000  4.594203e+000
    endloop
  endfacet
  facet normal -9.356247e-001 -1.810080e-001  3.030555e-001
    outer loop
      vertex -2.485312e+000  2.566489e+000  4.594203e+000
      vertex -2.000000e+000  0.000000e+000  4.559605e+000
      vertex -1.905046e+000  1.776357e-015  4.852756e+000
    endloop
  endfacet
  facet normal -6.692332e-001 -7.685406e-002  7.390673e-001
    outer loop
      vertex -2.485312e+000  2.566489e+000  4.594203e+000
      vertex -1.905046e+000  1.776357e-015  4.852756e+000
      vertex -2.299893e+000  2.690387e+000  4.774986e+000
    endloop
  endfacet
  facet normal -5.888323e-001 -6.312563e-002  8.057865e-001
    outer loop
      vertex -2.299893e+000  2.690387e+000  4.774986e+000
      vertex -1.905046e+000  1.776357e-015  4.852756e+000
      vertex -1.656252e+000  0.000000e+000  5.034564e+000
    endloop
  endfacet
  facet normal -8.634290e-001 -4.692532e-001  1.851810e-001
    outer loop
      vertex -3.451735e+000  3.913219e+000  3.687606e+000
      vertex -2.538082e+000  2.483435e+000  4.324516e+000
      vertex -3.478334e+000  4.050114e+000  3.910478e+000
    endloop
  endfacet
  facet normal -8.509408e-001 -4.315698e-001  2.994117e-001
    outer loop
      vertex -3.478334e+000  4.050114e+000  3.910478e+000
      vertex -2.538082e+000  2.483435e+000  4.324516e+000
      vertex -2.485312e+000  2.566489e+000  4.594203e+000
    endloop
  endfacet
  facet normal -7.442341e-001 -2.052111e-001  6.356132e-001
    outer loop
      vertex -3.478334e+000  4.050114e+000  3.910478e+000
      vertex -2.485312e+000  2.566489e+000  4.594203e+000
      vertex -3.392787e+000  4.239321e+000  4.071731e+000
    endloop
  endfacet
  facet normal -6.511673e-001 -1.191472e-001  7.495233e-001
    outer loop
      vertex -3.392787e+000  4.239321e+000  4.071731e+000
      vertex -2.485312e+000  2.566489e+000  4.594203e+000
      vertex -2.299893e+000  2.690387e+000  4.774986e+000
    endloop
  endfacet
  facet normal -7.469886e-001 -6.551691e-001  1.129668e-001
    outer loop
      vertex -4.534528e+000  4.898010e+000  2.239129e+000
      vertex -3.451735e+000  3.913219e+000  3.687606e+000
      vertex -4.666290e+000  5.071373e+000  2.373306e+000
    endloop
  endfacet
  facet normal -7.949269e-001 -5.546729e-001  2.458236e-001
    outer loop
      vertex -4.666290e+000  5.071373e+000  2.373306e+000
      vertex -3.451735e+000  3.913219e+000  3.687606e+000
      vertex -3.478334e+000  4.050114e+000  3.910478e+000
    endloop
  endfacet
  facet normal -8.404865e-001 -2.747559e-001  4.670028e-001
    outer loop
      vertex -4.666290e+000  5.071373e+000  2.373306e+000
      vertex -3.478334e+000  4.050114e+000  3.910478e+000
      vertex -4.688004e+000  5.306178e+000  2.472372e+000
    endloop
  endfacet
  facet normal -8.097386e-001 -1.228943e-001  5.737773e-001
    outer loop
      vertex -4.688004e+000  5.306178e+000  2.472372e+000
      vertex -3.478334e+000  4.050114e+000  3.910478e+000
      vertex -3.392787e+000  4.239321e+000  4.071731e+000
    endloop
  endfacet
  facet normal -7.044690e-001 -7.047203e-001  8.421780e-002
    outer loop
      vertex -4.937150e+000  5.159356e+000  1.058154e+000
      vertex -4.534528e+000  4.898010e+000  2.239129e+000
      vertex -5.111146e+000  5.340900e+000  1.121836e+000
    endloop
  endfacet
  facet normal -7.424235e-001 -6.587213e-001  1.220393e-001
    outer loop
      vertex -5.111146e+000  5.340900e+000  1.121836e+000
      vertex -4.534528e+000  4.898010e+000  2.239129e+000
      vertex -4.666290e+000  5.071373e+000  2.373306e+000
    endloop
  endfacet
  facet normal -9.244715e-001 -2.683368e-001  2.708279e-001
    outer loop
      vertex -5.111146e+000  5.340900e+000  1.121836e+000
      vertex -4.666290e+000  5.071373e+000  2.373306e+000
      vertex -5.169612e+000  5.589302e+000  1.168378e+000
    endloop
  endfacet
  facet normal -9.308447e-001 -2.117329e-001  2.978208e-001
    outer loop
      vertex -5.169612e+000  5.589302e+000  1.168378e+000
      vertex -4.666290e+000  5.071373e+000  2.373306e+000
      vertex -4.688004e+000  5.306178e+000  2.472372e+000
    endloop
  endfacet
  facet normal -7.269648e-001 -6.866595e-001 -4.583263e-003
    outer loop
      vertex -4.904369e+000  5.139754e+000 -1.204561e+000
      vertex -4.937150e+000  5.159356e+000  1.058154e+000
      vertex -5.074858e+000  5.320733e+000 -1.277018e+000
    endloop
  endfacet
  facet normal -7.228445e-001 -6.909916e-001 -5.125626e-003
    outer loop
      vertex -5.074858e+000  5.320733e+000 -1.277018e+000
      vertex -4.937150e+000  5.159356e+000  1.058154e+000
      vertex -5.111146e+000  5.340900e+000  1.121836e+000
    endloop
  endfacet
  facet normal -9.750255e-001 -2.217188e-001 -1.288557e-002
    outer loop
      vertex -5.074858e+000  5.320733e+000 -1.277018e+000
      vertex -5.111146e+000  5.340900e+000  1.121836e+000
      vertex -5.130400e+000  5.568067e+000 -1.330036e+000
    endloop
  endfacet
  facet normal -9.738691e-001 -2.267169e-001 -1.335773e-002
    outer loop
      vertex -5.130400e+000  5.568067e+000 -1.330036e+000
      vertex -5.111146e+000  5.340900e+000  1.121836e+000
      vertex -5.169612e+000  5.589302e+000  1.168378e+000
    endloop
  endfacet
  facet normal -7.730999e-001 -6.170905e-001 -1.466835e-001
    outer loop
      vertex -4.220618e+000  4.660072e+000 -2.790295e+000
      vertex -4.904369e+000  5.139754e+000 -1.204561e+000
      vertex -4.320664e+000  4.825135e+000 -2.957408e+000
    endloop
  endfacet
  facet normal -7.018769e-001 -7.041644e-001 -1.073371e-001
    outer loop
      vertex -4.320664e+000  4.825135e+000 -2.957408e+000
      vertex -4.904369e+000  5.139754e+000 -1.204561e+000
      vertex -5.074858e+000  5.320733e+000 -1.277018e+000
    endloop
  endfacet
  facet normal -9.169778e-001 -1.669836e-001 -3.623097e-001
    outer loop
      vertex -4.320664e+000  4.825135e+000 -2.957408e+000
      vertex -5.074858e+000  5.320733e+000 -1.277018e+000
      vertex -4.312510e+000  5.048412e+000 -3.080950e+000
    endloop
  endfacet
  facet normal -8.998574e-001 -2.747042e-001 -3.388131e-001
    outer loop
      vertex -4.312510e+000  5.048412e+000 -3.080950e+000
      vertex -5.074858e+000  5.320733e+000 -1.277018e+000
      vertex -5.130400e+000  5.568067e+000 -1.330036e+000
    endloop
  endfacet
  facet normal -8.120075e-001 -5.273762e-001 -2.500364e-001
    outer loop
      vertex -3.304533e+000  3.735316e+000 -3.814841e+000
      vertex -4.220618e+000  4.660072e+000 -2.790295e+000
      vertex -3.317748e+000  3.865358e+000 -4.046207e+000
    endloop
  endfacet
  facet normal -7.663231e-001 -6.230665e-001 -1.566433e-001
    outer loop
      vertex -3.317748e+000  3.865358e+000 -4.046207e+000
      vertex -4.220618e+000  4.660072e+000 -2.790295e+000
      vertex -4.320664e+000  4.825135e+000 -2.957408e+000
    endloop
  endfacet
  facet normal -7.818569e-001 -1.238186e-001 -6.110390e-001
    outer loop
      vertex -3.317748e+000  3.865358e+000 -4.046207e+000
      vertex -4.320664e+000  4.825135e+000 -2.957408e+000
      vertex -3.216706e+000  4.046592e+000 -4.212220e+000
    endloop
  endfacet
  facet normal -7.996974e-001 -2.680588e-001 -5.372415e-001
    outer loop
      vertex -3.216706e+000  4.046592e+000 -4.212220e+000
      vertex -4.320664e+000  4.825135e+000 -2.957408e+000
      vertex -4.312510e+000  5.048412e+000 -3.080950e+000
    endloop
  endfacet
  facet normal -1.557866e-001 -5.109997e-001 -8.453459e-001
    outer loop
      vertex  1.500001e+000 -6.500000e+000 -5.083306e+000
      vertex  1.557445e+000 -6.546140e+000 -5.066001e+000
      vertex  1.500000e+000 -8.803769e+000 -3.690710e+000
    endloop
  endfacet
  facet normal  1.215638e-001 -5.186415e-001  8.463057e-001
    outer loop
      vertex  1.656250e+000 -6.574279e+000  5.034564e+000
      vertex  1.557445e+000 -6.546140e+000  5.066001e+000
      vertex  1.500000e+000 -8.803769e+000  3.690710e+000
    endloop
  endfacet
  facet normal -1.557866e-001 -5.109997e-001  8.453459e-001
    outer loop
      vertex  1.500001e+000 -6.500000e+000  5.083306e+000
      vertex  1.500000e+000 -8.803769e+000  3.690710e+000
      vertex  1.557445e+000 -6.546140e+000  5.066001e+000
    endloop
  endfacet
  facet normal  9.444694e-001 -1.768850e-001 -2.769284e-001
    outer loop
      vertex  2.000000e+000 -6.500000e+000 -4.559605e+000
      vertex  2.000000e+000 -8.506266e+000 -3.278125e+000
      vertex  1.905649e+000 -6.546138e+000 -4.851922e+000
    endloop
  endfacet
  facet normal  9.281629e-001 -2.048209e-001 -3.107443e-001
    outer loop
      vertex  1.905649e+000 -6.546138e+000 -4.851922e+000
      vertex  2.000000e+000 -8.506266e+000 -3.278125e+000
      vertex  1.853553e+000 -8.698666e+000 -3.588730e+000
    endloop
  endfacet
  facet normal  5.649794e-001 -4.277358e-001 -7.055779e-001
    outer loop
      vertex  1.905649e+000 -6.546138e+000 -4.851922e+000
      vertex  1.853553e+000 -8.698666e+000 -3.588730e+000
      vertex  1.656250e+000 -6.574279e+000 -5.034564e+000
    endloop
  endfacet
  facet normal  3.737396e-001 -4.978977e-001 -7.825705e-001
    outer loop
      vertex  1.656250e+000 -6.574279e+000 -5.034564e+000
      vertex  1.853553e+000 -8.698666e+000 -3.588730e+000
      vertex  1.500000e+000 -8.803769e+000 -3.690710e+000
    endloop
  endfacet
  facet normal  1.215638e-001 -5.186415e-001 -8.463057e-001
    outer loop
      vertex  1.656250e+000 -6.574279e+000 -5.034564e+000
      vertex  1.500000e+000 -8.803769e+000 -3.690710e+000
      vertex  1.557445e+000 -6.546140e+000 -5.066001e+000
    endloop
  endfacet
  facet normal  9.093860e-001 -3.622991e-001 -2.043436e-001
    outer loop
      vertex  1.853553e+000 -8.698666e+000 -3.588730e+000
      vertex  2.000000e+000 -8.506266e+000 -3.278125e+000
      vertex  1.853553e+000 -9.984594e+000 -1.308791e+000
    endloop
  endfacet
  facet normal  9.226230e-001 -3.382660e-001 -1.853181e-001
    outer loop
      vertex  1.853553e+000 -9.984594e+000 -1.308791e+000
      vertex  2.000000e+000 -8.506266e+000 -3.278125e+000
      vertex  2.000000e+000 -9.650073e+000 -1.190304e+000
    endloop
  endfacet
  facet normal  9.160632e-001 -4.010338e-001  0.000000e+000
    outer loop
      vertex  1.853553e+000 -9.984594e+000 -1.308791e+000
      vertex  2.000000e+000 -9.650073e+000 -1.190304e+000
      vertex  1.853553e+000 -9.984594e+000  1.308791e+000
    endloop
  endfacet
  facet normal  9.160632e-001 -4.010338e-001  0.000000e+000
    outer loop
      vertex  1.853553e+000 -9.984594e+000  1.308791e+000
      vertex  2.000000e+000 -9.650073e+000 -1.190304e+000
      vertex  2.000000e+000 -9.650073e+000  1.190304e+000
    endloop
  endfacet
  facet normal  9.223368e-001 -3.365466e-001  1.898187e-001
    outer loop
      vertex  1.853553e+000 -9.984594e+000  1.308791e+000
      vertex  2.000000e+000 -9.650073e+000  1.190304e+000
      vertex  1.853553e+000 -8.698666e+000  3.588730e+000
    endloop
  endfacet
  facet normal  9.082962e-001 -3.668782e-001  2.009933e-001
    outer loop
      vertex  1.853553e+000 -8.698666e+000  3.588730e+000
      vertex  2.000000e+000 -9.650073e+000  1.190304e+000
      vertex  2.000000e+000 -8.506266e+000  3.278125e+000
    endloop
  endfacet
  facet normal  9.281629e-001 -2.048209e-001  3.107443e-001
    outer loop
      vertex  1.853553e+000 -8.698666e+000  3.588730e+000
      vertex  2.000000e+000 -8.506266e+000  3.278125e+000
      vertex  1.905649e+000 -6.546138e+000  4.851922e+000
    endloop
  endfacet
  facet normal  9.444695e-001 -1.768848e-001  2.769281e-001
    outer loop
      vertex  1.905649e+000 -6.546138e+000  4.851922e+000
      vertex  2.000000e+000 -8.506266e+000  3.278125e+000
      vertex  2.000000e+000 -6.500000e+000  4.559605e+000
    endloop
  endfacet
  facet normal  5.649793e-001 -4.277359e-001  7.055780e-001
    outer loop
      vertex  1.905649e+000 -6.546138e+000  4.851922e+000
      vertex  1.656250e+000 -6.574279e+000  5.034564e+000
      vertex  1.853553e+000 -8.698666e+000  3.588730e+000
    endloop
  endfacet
  facet normal  3.737396e-001 -4.978977e-001  7.825705e-001
    outer loop
      vertex  1.853553e+000 -8.698666e+000  3.588730e+000
      vertex  1.656250e+000 -6.574279e+000  5.034564e+000
      vertex  1.500000e+000 -8.803769e+000  3.690710e+000
    endloop
  endfacet
  facet normal  3.718973e-001 -8.085355e-001  4.560293e-001
    outer loop
      vertex  1.853553e+000 -8.698666e+000  3.588730e+000
      vertex  1.500000e+000 -8.803769e+000  3.690710e+000
      vertex  1.853553e+000 -9.984594e+000  1.308791e+000
    endloop
  endfacet
  facet normal  3.718977e-001 -8.085353e-001  4.560292e-001
    outer loop
      vertex  1.853553e+000 -9.984594e+000  1.308791e+000
      vertex  1.500000e+000 -8.803769e+000  3.690710e+000
      vertex  1.500000e+000 -1.012624e+001  1.345982e+000
    endloop
  endfacet
  facet normal  3.718978e-001 -9.282737e-001  0.000000e+000
    outer loop
      vertex  1.853553e+000 -9.984594e+000  1.308791e+000
      vertex  1.500000e+000 -1.012624e+001  1.345982e+000
      vertex  1.853553e+000 -9.984594e+000 -1.308791e+000
    endloop
  endfacet
  facet normal  3.718978e-001 -9.282737e-001  0.000000e+000
    outer loop
      vertex  1.853553e+000 -9.984594e+000 -1.308791e+000
      vertex  1.500000e+000 -1.012624e+001  1.345982e+000
      vertex  1.500000e+000 -1.012624e+001 -1.345982e+000
    endloop
  endfacet
  facet normal  3.718977e-001 -8.085353e-001 -4.560292e-001
    outer loop
      vertex  1.853553e+000 -9.984594e+000 -1.308791e+000
      vertex  1.500000e+000 -1.012624e+001 -1.345982e+000
      vertex  1.853553e+000 -8.698666e+000 -3.588730e+000
    endloop
  endfacet
  facet normal  3.718973e-001 -8.085355e-001 -4.560294e-001
    outer loop
      vertex  1.853553e+000 -8.698666e+000 -3.588730e+000
      vertex  1.500000e+000 -1.012624e+001 -1.345982e+000
      vertex  1.500000e+000 -8.803769e+000 -3.690710e+000
    endloop
  endfacet
  facet normal  1.000000e+000  -0.000000e+000  0.000000e+000
    outer loop
      vertex  2.000000e+000  7.186905e-016  4.559605e+000
      vertex  2.000000e+000 -6.500000e+000  4.559605e+000
      vertex  2.000000e+000 -5.571681e+000  1.759455e+000
    endloop
  endfacet
  facet normal  9.999999e-001  -0.000000e+000  0.000000e+000
    outer loop
      vertex  2.000000e+000  7.186905e-016  4.559605e+000
      vertex  2.000000e+000 -5.571681e+000  1.759455e+000
      vertex  2.000000e+000 -4.428318e+000  1.759454e+000
    endloop
  endfacet
  facet normal  1.000000e+000  -0.000000e+000  0.000000e+000
    outer loop
      vertex  2.000000e+000  7.186905e-016  4.559605e+000
      vertex  2.000000e+000 -4.428318e+000  1.759454e+000
      vertex  2.000000e+000 -3.503318e+000  1.087402e+000
    endloop
  endfacet
  facet normal  1.000000e+000  -0.000000e+000  0.000000e+000
    outer loop
      vertex  2.000000e+000  7.186905e-016  4.559605e+000
      vertex  2.000000e+000 -3.503318e+000  1.087402e+000
      vertex  2.000000e+000  7.186905e-016 -4.559605e+000
    endloop
  endfacet
  facet normal  1.000000e+000  0.000000e+000  0.000000e+000
    outer loop
      vertex  2.000000e+000  7.186905e-016 -4.559605e+000
      vertex  2.000000e+000 -3.503318e+000  1.087402e+000
      vertex  2.000000e+000 -3.150000e+000 -6.469681e-007
    endloop
  endfacet
  facet normal  1.000000e+000  0.000000e+000  0.000000e+000
    outer loop
      vertex  2.000000e+000  7.186905e-016 -4.559605e+000
      vertex  2.000000e+000 -3.150000e+000 -6.469681e-007
      vertex  2.000000e+000 -3.691853e+000 -1.308148e+000
    endloop
  endfacet
  facet normal  1.000000e+000  0.000000e+000  0.000000e+000
    outer loop
      vertex  2.000000e+000  7.186905e-016 -4.559605e+000
      vertex  2.000000e+000 -3.691853e+000 -1.308148e+000
      vertex  2.000000e+000 -5.000000e+000 -1.850000e+000
    endloop
  endfacet
  facet normal  1.000000e+000  0.000000e+000  0.000000e+000
    outer loop
      vertex  2.000000e+000  7.186905e-016 -4.559605e+000
      vertex  2.000000e+000 -5.000000e+000 -1.850000e+000
      vertex  2.000000e+000 -8.506266e+000 -3.278125e+000
    endloop
  endfacet
  facet normal  1.000000e+000  0.000000e+000  0.000000e+000
    outer loop
      vertex  2.000000e+000  7.186905e-016 -4.559605e+000
      vertex  2.000000e+000 -8.506266e+000 -3.278125e+000
      vertex  2.000000e+000 -6.500000e+000 -4.559605e+000
    endloop
  endfacet
  facet normal  9.999999e-001  0.000000e+000  0.000000e+000
    outer loop
      vertex  2.000000e+000 -9.650073e+000 -1.190304e+000
      vertex  2.000000e+000 -6.850000e+000 -5.100358e-017
      vertex  2.000000e+000 -9.650073e+000  1.190304e+000
    endloop
  endfacet
  facet normal  9.999999e-001  0.000000e+000  0.000000e+000
    outer loop
      vertex  2.000000e+000 -9.650073e+000  1.190304e+000
      vertex  2.000000e+000 -6.850000e+000 -5.100358e-017
      vertex  2.000000e+000 -6.496681e+000  1.087403e+000
    endloop
  endfacet
  facet normal  9.999999e-001  0.000000e+000  0.000000e+000
    outer loop
      vertex  2.000000e+000 -9.650073e+000  1.190304e+000
      vertex  2.000000e+000 -6.496681e+000  1.087403e+000
      vertex  2.000000e+000 -8.506266e+000  3.278125e+000
    endloop
  endfacet
  facet normal  1.000000e+000  0.000000e+000  0.000000e+000
    outer loop
      vertex  2.000000e+000 -8.506266e+000  3.278125e+000
      vertex  2.000000e+000 -6.496681e+000  1.087403e+000
      vertex  2.000000e+000 -5.571681e+000  1.759455e+000
    endloop
  endfacet
  facet normal  1.000000e+000  0.000000e+000  0.000000e+000
    outer loop
      vertex  2.000000e+000 -8.506266e+000  3.278125e+000
      vertex  2.000000e+000 -5.571681e+000  1.759455e+000
      vertex  2.000000e+000 -6.500000e+000  4.559605e+000
    endloop
  endfacet
  facet normal  1.000000e+000  0.000000e+000  0.000000e+000
    outer loop
      vertex  2.000000e+000 -8.506266e+000 -3.278125e+000
      vertex  2.000000e+000 -5.000000e+000 -1.850000e+000
      vertex  2.000000e+000 -9.650073e+000 -1.190304e+000
    endloop
  endfacet
  facet normal  1.000000e+000  0.000000e+000  0.000000e+000
    outer loop
      vertex  2.000000e+000 -9.650073e+000 -1.190304e+000
      vertex  2.000000e+000 -5.000000e+000 -1.850000e+000
      vertex  2.000000e+000 -6.308147e+000 -1.308147e+000
    endloop
  endfacet
  facet normal  1.000000e+000  0.000000e+000  0.000000e+000
    outer loop
      vertex  2.000000e+000 -9.650073e+000 -1.190304e+000
      vertex  2.000000e+000 -6.308147e+000 -1.308147e+000
      vertex  2.000000e+000 -6.850000e+000 -5.100358e-017
    endloop
  endfacet
  facet normal  9.432402e-001 -3.320240e-001 -7.619345e-003
    outer loop
      vertex  2.738338e+000  2.849754e+000  4.212396e+000
      vertex  2.082090e+000  9.781598e-001  4.529328e+000
      vertex  2.502430e+000  2.375887e+000 -4.342466e+000
    endloop
  endfacet
  facet normal  9.960020e-001 -8.252952e-002  3.418765e-002
    outer loop
      vertex  2.502430e+000  2.375887e+000 -4.342466e+000
      vertex  2.082090e+000  9.781598e-001  4.529328e+000
      vertex  2.000000e+000  7.186905e-016  4.559605e+000
    endloop
  endfacet
  facet normal  9.783632e-001 -2.068951e-001  0.000000e+000
    outer loop
      vertex  2.502430e+000  2.375887e+000 -4.342466e+000
      vertex  2.000000e+000  7.186905e-016  4.559605e+000
      vertex  2.000000e+000  7.186905e-016 -4.559605e+000
    endloop
  endfacet
  facet normal  5.254141e-001 -8.508427e-001  2.600948e-003
    outer loop
      vertex  5.009106e+000  5.124904e+000 -5.746868e-001
      vertex  4.777678e+000  4.988736e+000  1.631208e+000
      vertex  4.495537e+000  4.802462e+000 -2.309000e+000
    endloop
  endfacet
  facet normal  6.041095e-001 -7.968817e-001 -5.585102e-003
    outer loop
      vertex  4.495537e+000  4.802462e+000 -2.309000e+000
      vertex  4.777678e+000  4.988736e+000  1.631208e+000
      vertex  3.833283e+000  4.261129e+000  3.295994e+000
    endloop
  endfacet
  facet normal  6.508512e-001 -7.591969e-001  3.577243e-003
    outer loop
      vertex  4.495537e+000  4.802462e+000 -2.309000e+000
      vertex  3.833283e+000  4.261129e+000  3.295994e+000
      vertex  3.607656e+000  4.035504e+000 -3.537290e+000
    endloop
  endfacet
  facet normal  7.882960e-001 -6.152697e-001 -5.713308e-003
    outer loop
      vertex  3.607656e+000  4.035504e+000 -3.537290e+000
      vertex  3.833283e+000  4.261129e+000  3.295994e+000
      vertex  2.738338e+000  2.849754e+000  4.212396e+000
    endloop
  endfacet
  facet normal  8.305153e-001 -5.569392e-001  7.947546e-003
    outer loop
      vertex  3.607656e+000  4.035504e+000 -3.537290e+000
      vertex  2.738338e+000  2.849754e+000  4.212396e+000
      vertex  2.502430e+000  2.375887e+000 -4.342466e+000
    endloop
  endfacet
  facet normal  9.513392e-001  0.000000e+000 -3.081455e-001
    outer loop
      vertex  2.000000e+000  7.186905e-016 -4.559605e+000
      vertex  2.000000e+000 -6.500000e+000 -4.559605e+000
      vertex  1.905046e+000  0.000000e+000 -4.852756e+000
    endloop
  endfacet
  facet normal  9.516535e-001  4.841780e-005 -3.071738e-001
    outer loop
      vertex  1.905046e+000  0.000000e+000 -4.852756e+000
      vertex  2.000000e+000 -6.500000e+000 -4.559605e+000
      vertex  1.905649e+000 -6.546138e+000 -4.851922e+000
    endloop
  endfacet
  facet normal  5.900087e-001 -4.858277e-005 -8.073969e-001
    outer loop
      vertex  1.905046e+000  0.000000e+000 -4.852756e+000
      vertex  1.905649e+000 -6.546138e+000 -4.851922e+000
      vertex  1.656253e+000  0.000000e+000 -5.034563e+000
    endloop
  endfacet
  facet normal  5.908370e-001 -1.186618e-007 -8.067909e-001
    outer loop
      vertex  1.656253e+000  0.000000e+000 -5.034563e+000
      vertex  1.905649e+000 -6.546138e+000 -4.851922e+000
      vertex  1.656250e+000 -6.574279e+000 -5.034564e+000
    endloop
  endfacet
  facet normal  9.516558e-001  0.000000e+000  3.071665e-001
    outer loop
      vertex  2.000000e+000 -6.500000e+000  4.559605e+000
      vertex  2.000000e+000  7.186905e-016  4.559605e+000
      vertex  1.905649e+000 -6.546138e+000  4.851922e+000
    endloop
  endfacet
  facet normal  9.513392e-001  4.828240e-005  3.081455e-001
    outer loop
      vertex  1.905649e+000 -6.546138e+000  4.851922e+000
      vertex  2.000000e+000  7.186905e-016  4.559605e+000
      vertex  1.905046e+000  2.217927e-016  4.852756e+000
    endloop
  endfacet
  facet normal  5.908403e-001 -4.841798e-005  8.067884e-001
    outer loop
      vertex  1.905649e+000 -6.546138e+000  4.851922e+000
      vertex  1.905046e+000  2.217927e-016  4.852756e+000
      vertex  1.656250e+000 -6.574279e+000  5.034564e+000
    endloop
  endfacet
  facet normal  5.900066e-001  -0.000000e+000  8.073984e-001
    outer loop
      vertex  1.656250e+000 -6.574279e+000  5.034564e+000
      vertex  1.905046e+000  2.217927e-016  4.852756e+000
      vertex  1.656250e+000  0.000000e+000  5.034564e+000
    endloop
  endfacet
  facet normal  9.489971e-001 -7.012831e-002  3.073869e-001
    outer loop
      vertex  2.000000e+000  7.186905e-016  4.559605e+000
      vertex  2.082090e+000  9.781598e-001  4.529328e+000
      vertex  1.905046e+000  2.217927e-016  4.852756e+000
    endloop
  endfacet
  facet normal  9.513183e-001 -7.319134e-002  2.993938e-001
    outer loop
      vertex  1.905046e+000  2.217927e-016  4.852756e+000
      vertex  2.082090e+000  9.781598e-001  4.529328e+000
      vertex  1.993402e+000  1.010331e+000  4.818999e+000
    endloop
  endfacet
  facet normal  5.898279e-001 -2.461327e-002  8.071539e-001
    outer loop
      vertex  1.905046e+000  2.217927e-016  4.852756e+000
      vertex  1.993402e+000  1.010331e+000  4.818999e+000
      vertex  1.656250e+000  0.000000e+000  5.034564e+000
    endloop
  endfacet
  facet normal  6.020185e-001 -3.065716e-002  7.978933e-001
    outer loop
      vertex  1.656250e+000  0.000000e+000  5.034564e+000
      vertex  1.993402e+000  1.010331e+000  4.818999e+000
      vertex  1.754614e+000  1.061496e+000  5.001133e+000
    endloop
  endfacet
  facet normal  9.125838e-001 -2.676372e-001  3.091295e-001
    outer loop
      vertex  2.082090e+000  9.781598e-001  4.529328e+000
      vertex  2.738338e+000  2.849754e+000  4.212396e+000
      vertex  1.993402e+000  1.010331e+000  4.818999e+000
    endloop
  endfacet
  facet normal  9.250473e-001 -2.962083e-001  2.377983e-001
    outer loop
      vertex  1.993402e+000  1.010331e+000  4.818999e+000
      vertex  2.738338e+000  2.849754e+000  4.212396e+000
      vertex  2.702981e+000  2.948430e+000  4.472853e+000
    endloop
  endfacet
  facet normal  5.945988e-001 -7.471726e-002  8.005432e-001
    outer loop
      vertex  1.993402e+000  1.010331e+000  4.818999e+000
      vertex  2.702981e+000  2.948430e+000  4.472853e+000
      vertex  1.754614e+000  1.061496e+000  5.001133e+000
    endloop
  endfacet
  facet normal  6.756675e-001 -1.367778e-001  7.244069e-001
    outer loop
      vertex  1.754614e+000  1.061496e+000  5.001133e+000
      vertex  2.702981e+000  2.948430e+000  4.472853e+000
      vertex  2.540955e+000  3.092545e+000  4.651187e+000
    endloop
  endfacet
  facet normal  9.374118e-001 -1.704851e-001 -3.036343e-001
    outer loop
      vertex  2.000000e+000  7.186905e-016 -4.559605e+000
      vertex  1.905046e+000  0.000000e+000 -4.852756e+000
      vertex  2.502430e+000  2.375887e+000 -4.342466e+000
    endloop
  endfacet
  facet normal  9.506403e-001 -1.856200e-001 -2.486531e-001
    outer loop
      vertex  2.502430e+000  2.375887e+000 -4.342466e+000
      vertex  1.905046e+000  0.000000e+000 -4.852756e+000
      vertex  2.447275e+000  2.456886e+000 -4.613799e+000
    endloop
  endfacet
  facet normal  5.892221e-001 -5.161709e-002 -8.063206e-001
    outer loop
      vertex  1.905046e+000  0.000000e+000 -4.852756e+000
      vertex  1.656253e+000  0.000000e+000 -5.034563e+000
      vertex  2.447275e+000  2.456886e+000 -4.613799e+000
    endloop
  endfacet
  facet normal  6.602487e-001 -8.477300e-002 -7.462475e-001
    outer loop
      vertex  2.447275e+000  2.456886e+000 -4.613799e+000
      vertex  1.656253e+000  0.000000e+000 -5.034563e+000
      vertex  2.258281e+000  2.578305e+000 -4.794806e+000
    endloop
  endfacet
  facet normal  8.261424e-001 -5.428321e-001  1.510697e-001
    outer loop
      vertex  3.833283e+000  4.261129e+000  3.295994e+000
      vertex  3.897847e+000  4.414558e+000  3.494225e+000
      vertex  2.738338e+000  2.849754e+000  4.212396e+000
    endloop
  endfacet
  facet normal  8.275642e-001 -4.784647e-001  2.936138e-001
    outer loop
      vertex  2.738338e+000  2.849754e+000  4.212396e+000
      vertex  3.897847e+000  4.414558e+000  3.494225e+000
      vertex  2.702981e+000  2.948430e+000  4.472853e+000
    endloop
  endfacet
  facet normal  7.741022e-001 -2.398072e-001  5.858826e-001
    outer loop
      vertex  3.897847e+000  4.414558e+000  3.494225e+000
      vertex  3.852960e+000  4.624165e+000  3.639326e+000
      vertex  2.702981e+000  2.948430e+000  4.472853e+000
    endloop
  endfacet
  facet normal  6.872762e-001 -1.148765e-001  7.172551e-001
    outer loop
      vertex  2.702981e+000  2.948430e+000  4.472853e+000
      vertex  3.852960e+000  4.624165e+000  3.639326e+000
      vertex  2.540955e+000  3.092545e+000  4.651187e+000
    endloop
  endfacet
  facet normal  7.124594e-001 -6.944584e-001  1.006442e-001
    outer loop
      vertex  4.777678e+000  4.988736e+000  1.631208e+000
      vertex  4.938526e+000  5.167992e+000  1.729462e+000
      vertex  3.833283e+000  4.261129e+000  3.295994e+000
    endloop
  endfacet
  facet normal  7.782956e-001 -5.932550e-001  2.056803e-001
    outer loop
      vertex  3.833283e+000  4.261129e+000  3.295994e+000
      vertex  4.938526e+000  5.167992e+000  1.729462e+000
      vertex  3.897847e+000  4.414558e+000  3.494225e+000
    endloop
  endfacet
  facet normal  8.745184e-001 -2.794286e-001  3.964053e-001
    outer loop
      vertex  4.938526e+000  5.167992e+000  1.729462e+000
      vertex  4.984571e+000  5.413762e+000  1.801125e+000
      vertex  3.897847e+000  4.414558e+000  3.494225e+000
    endloop
  endfacet
  facet normal  8.690135e-001 -1.420106e-001  4.739709e-001
    outer loop
      vertex  3.897847e+000  4.414558e+000  3.494225e+000
      vertex  4.984571e+000  5.413762e+000  1.801125e+000
      vertex  3.852960e+000  4.624165e+000  3.639326e+000
    endloop
  endfacet
  facet normal  7.042654e-001 -7.092983e-001  3.010228e-002
    outer loop
      vertex  5.009106e+000  5.124904e+000 -5.746868e-001
      vertex  5.195065e+000  5.308069e+000 -6.094375e-001
      vertex  4.777678e+000  4.988736e+000  1.631208e+000
    endloop
  endfacet
  facet normal  7.327921e-001 -6.792940e-001  3.969238e-002
    outer loop
      vertex  4.777678e+000  4.988736e+000  1.631208e+000
      vertex  5.195065e+000  5.308069e+000 -6.094375e-001
      vertex  4.938526e+000  5.167992e+000  1.729462e+000
    endloop
  endfacet
  facet normal  9.651328e-001 -2.453725e-001  9.116403e-002
    outer loop
      vertex  5.195065e+000  5.308069e+000 -6.094375e-001
      vertex  5.261877e+000  5.561531e+000 -6.345500e-001
      vertex  4.938526e+000  5.167992e+000  1.729462e+000
    endloop
  endfacet
  facet normal  9.726142e-001 -2.107802e-001  9.794594e-002
    outer loop
      vertex  4.938526e+000  5.167992e+000  1.729462e+000
      vertex  5.261877e+000  5.561531e+000 -6.345500e-001
      vertex  4.984571e+000  5.413762e+000  1.801125e+000
    endloop
  endfacet
  facet normal  7.524070e-001 -6.507827e-001 -1.018117e-001
    outer loop
      vertex  4.495537e+000  4.802462e+000 -2.309000e+000
      vertex  4.626609e+000  4.975698e+000 -2.447685e+000
      vertex  5.009106e+000  5.124904e+000 -5.746868e-001
    endloop
  endfacet
  facet normal  6.912440e-001 -7.177238e-001 -8.398861e-002
    outer loop
      vertex  5.009106e+000  5.124904e+000 -5.746868e-001
      vertex  4.626609e+000  4.975698e+000 -2.447685e+000
      vertex  5.195065e+000  5.308069e+000 -6.094375e-001
    endloop
  endfacet
  facet normal  9.469494e-001 -1.913041e-001 -2.582435e-001
    outer loop
      vertex  4.626609e+000  4.975698e+000 -2.447685e+000
      vertex  4.646498e+000  5.211618e+000 -2.549521e+000
      vertex  5.195065e+000  5.308069e+000 -6.094375e-001
    endloop
  endfacet
  facet normal  9.299992e-001 -2.698682e-001 -2.495450e-001
    outer loop
      vertex  5.195065e+000  5.308069e+000 -6.094375e-001
      vertex  4.646498e+000  5.211618e+000 -2.549521e+000
      vertex  5.261877e+000  5.561531e+000 -6.345500e-001
    endloop
  endfacet
  facet normal  7.951331e-001 -5.641363e-001 -2.225164e-001
    outer loop
      vertex  3.607656e+000  4.035504e+000 -3.537290e+000
      vertex  3.650602e+000  4.180204e+000 -3.750681e+000
      vertex  4.495537e+000  4.802462e+000 -2.309000e+000
    endloop
  endfacet
  facet normal  7.318335e-001 -6.667063e-001 -1.411467e-001
    outer loop
      vertex  4.495537e+000  4.802462e+000 -2.309000e+000
      vertex  3.650602e+000  4.180204e+000 -3.750681e+000
      vertex  4.626609e+000  4.975698e+000 -2.447685e+000
    endloop
  endfacet
  facet normal  8.310201e-001 -1.362359e-001 -5.393006e-001
    outer loop
      vertex  3.650602e+000  4.180204e+000 -3.750681e+000
      vertex  3.582605e+000  4.379317e+000 -3.905758e+000
      vertex  4.626609e+000  4.975698e+000 -2.447685e+000
    endloop
  endfacet
  facet normal  8.312200e-001 -2.779154e-001 -4.814939e-001
    outer loop
      vertex  4.626609e+000  4.975698e+000 -2.447685e+000
      vertex  3.582605e+000  4.379317e+000 -3.905758e+000
      vertex  4.646498e+000  5.211618e+000 -2.549521e+000
    endloop
  endfacet
  facet normal  8.546922e-001 -4.235509e-001 -3.001768e-001
    outer loop
      vertex  2.502430e+000  2.375887e+000 -4.342466e+000
      vertex  2.447275e+000  2.456886e+000 -4.613799e+000
      vertex  3.607656e+000  4.035504e+000 -3.537290e+000
    endloop
  endfacet
  facet normal  8.460351e-001 -5.046432e-001 -1.719297e-001
    outer loop
      vertex  3.607656e+000  4.035504e+000 -3.537290e+000
      vertex  2.447275e+000  2.456886e+000 -4.613799e+000
      vertex  3.650602e+000  4.180204e+000 -3.750681e+000
    endloop
  endfacet
  facet normal  6.595256e-001 -8.654758e-002 -7.466829e-001
    outer loop
      vertex  2.447275e+000  2.456886e+000 -4.613799e+000
      vertex  2.258281e+000  2.578305e+000 -4.794806e+000
      vertex  3.650602e+000  4.180204e+000 -3.750681e+000
    endloop
  endfacet
  facet normal  7.418647e-001 -2.356057e-001 -6.277952e-001
    outer loop
      vertex  3.650602e+000  4.180204e+000 -3.750681e+000
      vertex  2.258281e+000  2.578305e+000 -4.794806e+000
      vertex  3.582605e+000  4.379317e+000 -3.905758e+000
    endloop
  endfacet
  facet normal  0.000000e+000 -3.826835e-001 -9.238795e-001
    outer loop
      vertex  1.500000e+000 -5.000000e+000  1.350000e+000
      vertex -1.500000e+000 -4.045406e+000  9.545941e-001
      vertex  1.500000e+000 -4.045406e+000  9.545941e-001
    endloop
  endfacet
  facet normal  -0.000000e+000 -9.238795e-001 -3.826834e-001
    outer loop
      vertex  1.500000e+000 -4.045406e+000  9.545941e-001
      vertex -1.500000e+000 -4.045406e+000  9.545941e-001
      vertex -1.500000e+000 -3.650000e+000  1.653219e-016
    endloop
  endfacet
  facet normal  0.000000e+000 -9.238795e-001 -3.826834e-001
    outer loop
      vertex  1.500000e+000 -4.045406e+000  9.545941e-001
      vertex -1.500000e+000 -3.650000e+000  1.653219e-016
      vertex  1.500000e+000 -3.650000e+000  1.653219e-016
    endloop
  endfacet
  facet normal  -0.000000e+000 -3.826835e-001 -9.238795e-001
    outer loop
      vertex -1.500000e+000 -4.045406e+000  9.545941e-001
      vertex  1.500000e+000 -5.000000e+000  1.350000e+000
      vertex -1.500000e+000 -5.000000e+000  1.350000e+000
    endloop
  endfacet
  facet normal  0.000000e+000  3.826835e-001 -9.238795e-001
    outer loop
      vertex -1.500000e+000 -5.000000e+000  1.350000e+000
      vertex  1.500000e+000 -5.000000e+000  1.350000e+000
      vertex  1.500000e+000 -5.954594e+000  9.545941e-001
    endloop
  endfacet
  facet normal  0.000000e+000  3.826835e-001 -9.238795e-001
    outer loop
      vertex -1.500000e+000 -5.000000e+000  1.350000e+000
      vertex  1.500000e+000 -5.954594e+000  9.545941e-001
      vertex -1.500000e+000 -5.954594e+000  9.545941e-001
    endloop
  endfacet
  facet normal  0.000000e+000  9.238795e-001 -3.826834e-001
    outer loop
      vertex -1.500000e+000 -5.954594e+000  9.545941e-001
      vertex  1.500000e+000 -5.954594e+000  9.545941e-001
      vertex  1.500000e+000 -6.350000e+000  0.000000e+000
    endloop
  endfacet
  facet normal  4.217728e-017  9.238795e-001 -3.826834e-001
    outer loop
      vertex -1.500000e+000 -5.954594e+000  9.545941e-001
      vertex  1.500000e+000 -6.350000e+000  0.000000e+000
      vertex -1.500000e+000 -6.350000e+000 -3.306437e-016
    endloop
  endfacet
  facet normal  -0.000000e+000  3.826835e-001  9.238795e-001
    outer loop
      vertex  1.500000e+000 -5.000000e+000 -1.350000e+000
      vertex -1.500000e+000 -5.954594e+000 -9.545941e-001
      vertex  1.500000e+000 -5.954594e+000 -9.545941e-001
    endloop
  endfacet
  facet normal  0.000000e+000  9.238795e-001  3.826834e-001
    outer loop
      vertex  1.500000e+000 -5.954594e+000 -9.545941e-001
      vertex -1.500000e+000 -5.954594e+000 -9.545941e-001
      vertex -1.500000e+000 -6.350000e+000 -3.306437e-016
    endloop
  endfacet
  facet normal -4.217728e-017  9.238795e-001  3.826834e-001
    outer loop
      vertex  1.500000e+000 -5.954594e+000 -9.545941e-001
      vertex -1.500000e+000 -6.350000e+000 -3.306437e-016
      vertex  1.500000e+000 -6.350000e+000  0.000000e+000
    endloop
  endfacet
  facet normal  0.000000e+000  3.826835e-001  9.238795e-001
    outer loop
      vertex -1.500000e+000 -5.954594e+000 -9.545941e-001
      vertex  1.500000e+000 -5.000000e+000 -1.350000e+000
      vertex -1.500000e+000 -5.000000e+000 -1.350000e+000
    endloop
  endfacet
  facet normal  0.000000e+000 -3.826835e-001  9.238795e-001
    outer loop
      vertex -1.500000e+000 -5.000000e+000 -1.350000e+000
      vertex  1.500000e+000 -5.000000e+000 -1.350000e+000
      vertex  1.500000e+000 -4.045406e+000 -9.545941e-001
    endloop
  endfacet
  facet normal  0.000000e+000 -3.826835e-001  9.238795e-001
    outer loop
      vertex -1.500000e+000 -5.000000e+000 -1.350000e+000
      vertex  1.500000e+000 -4.045406e+000 -9.545941e-001
      vertex -1.500000e+000 -4.045406e+000 -9.545941e-001
    endloop
  endfacet
  facet normal  0.000000e+000 -9.238795e-001  3.826834e-001
    outer loop
      vertex -1.500000e+000 -4.045406e+000 -9.545941e-001
      vertex  1.500000e+000 -4.045406e+000 -9.545941e-001
      vertex  1.500000e+000 -3.650000e+000  1.653219e-016
    endloop
  endfacet
  facet normal  0.000000e+000 -9.238795e-001  3.826834e-001
    outer loop
      vertex -1.500000e+000 -4.045406e+000 -9.545941e-001
      vertex  1.500000e+000 -3.650000e+000  1.653219e-016
      vertex -1.500000e+000 -3.650000e+000  1.653219e-016
    endloop
  endfacet
  facet normal -6.785985e-001 -6.785982e-001 -2.810847e-001
    outer loop
      vertex -2.000000e+000 -3.150000e+000  6.469681e-007
      vertex -1.500000e+000 -3.650000e+000  1.653219e-016
      vertex -2.000000e+000 -3.691853e+000  1.308148e+000
    endloop
  endfacet
  facet normal -6.785982e-001 -6.785985e-001 -2.810847e-001
    outer loop
      vertex -2.000000e+000 -3.691853e+000  1.308148e+000
      vertex -1.500000e+000 -3.650000e+000  1.653219e-016
      vertex -1.500000e+000 -4.045406e+000  9.545941e-001
    endloop
  endfacet
  facet normal -6.785985e-001 -2.810844e-001 -6.785983e-001
    outer loop
      vertex -2.000000e+000 -3.691853e+000  1.308148e+000
      vertex -1.500000e+000 -4.045406e+000  9.545941e-001
      vertex -2.000000e+000 -5.000000e+000  1.850000e+000
    endloop
  endfacet
  facet normal -6.785982e-001 -2.810847e-001 -6.785985e-001
    outer loop
      vertex -2.000000e+000 -5.000000e+000  1.850000e+000
      vertex -1.500000e+000 -4.045406e+000  9.545941e-001
      vertex -1.500000e+000 -5.000000e+000  1.350000e+000
    endloop
  endfacet
  facet normal -6.785985e-001  2.810848e-001 -6.785982e-001
    outer loop
      vertex -2.000000e+000 -5.000000e+000  1.850000e+000
      vertex -1.500000e+000 -5.000000e+000  1.350000e+000
      vertex -2.000000e+000 -6.308147e+000  1.308147e+000
    endloop
  endfacet
  facet normal -6.785983e-001  2.810847e-001 -6.785985e-001
    outer loop
      vertex -2.000000e+000 -6.308147e+000  1.308147e+000
      vertex -1.500000e+000 -5.000000e+000  1.350000e+000
      vertex -1.500000e+000 -5.954594e+000  9.545941e-001
    endloop
  endfacet
  facet normal -6.785982e-001  6.785984e-001 -2.810847e-001
    outer loop
      vertex -2.000000e+000 -6.308147e+000  1.308147e+000
      vertex -1.500000e+000 -5.954594e+000  9.545941e-001
      vertex -2.000000e+000 -6.850000e+000 -8.777430e-017
    endloop
  endfacet
  facet normal -6.785984e-001  6.785984e-001 -2.810846e-001
    outer loop
      vertex -2.000000e+000 -6.850000e+000 -8.777430e-017
      vertex -1.500000e+000 -5.954594e+000  9.545941e-001
      vertex -1.500000e+000 -6.350000e+000 -3.306437e-016
    endloop
  endfacet
  facet normal -6.335748e-001 -2.419967e-007  7.736815e-001
    outer loop
      vertex -1.500000e+000 -5.000000e+000 -1.350000e+000
      vertex -2.000000e+000 -4.428318e+000 -1.759454e+000
      vertex -2.000000e+000 -5.571681e+000 -1.759455e+000
    endloop
  endfacet
  facet normal -7.666717e-001  2.456979e-001  5.931671e-001
    outer loop
      vertex -1.500000e+000 -5.000000e+000 -1.350000e+000
      vertex -2.000000e+000 -5.571681e+000 -1.759455e+000
      vertex -1.500000e+000 -5.954594e+000 -9.545941e-001
    endloop
  endfacet
  facet normal -7.666717e-001 -2.456978e-001  5.931670e-001
    outer loop
      vertex -1.500000e+000 -4.045406e+000 -9.545941e-001
      vertex -2.000000e+000 -4.428318e+000 -1.759454e+000
      vertex -1.500000e+000 -5.000000e+000 -1.350000e+000
    endloop
  endfacet
  facet normal -6.891518e-001  6.891518e-001  2.239190e-001
    outer loop
      vertex -2.000000e+000 -6.850000e+000 -8.777430e-017
      vertex -1.500000e+000 -6.350000e+000 -3.306437e-016
      vertex -2.000000e+000 -6.496681e+000 -1.087403e+000
    endloop
  endfacet
  facet normal -7.409401e-001  6.204508e-001  2.569991e-001
    outer loop
      vertex -2.000000e+000 -6.496681e+000 -1.087403e+000
      vertex -1.500000e+000 -6.350000e+000 -3.306437e-016
      vertex -1.500000e+000 -5.954594e+000 -9.545941e-001
    endloop
  endfacet
  facet normal -6.485981e-001  4.473815e-001  6.157679e-001
    outer loop
      vertex -2.000000e+000 -6.496681e+000 -1.087403e+000
      vertex -1.500000e+000 -5.954594e+000 -9.545941e-001
      vertex -2.000000e+000 -5.571681e+000 -1.759455e+000
    endloop
  endfacet
  facet normal -6.785982e-001 -6.785985e-001  2.810847e-001
    outer loop
      vertex -1.500000e+000 -3.650000e+000  1.653219e-016
      vertex -2.000000e+000 -3.150000e+000  6.469681e-007
      vertex -1.500000e+000 -4.045406e+000 -9.545941e-001
    endloop
  endfacet
  facet normal -7.439162e-001 -6.355655e-001  2.065074e-001
    outer loop
      vertex -1.500000e+000 -4.045406e+000 -9.545941e-001
      vertex -2.000000e+000 -3.150000e+000  6.469681e-007
      vertex -2.000000e+000 -3.503318e+000 -1.087402e+000
    endloop
  endfacet
  facet normal -6.485981e-001 -4.473818e-001  6.157678e-001
    outer loop
      vertex -1.500000e+000 -4.045406e+000 -9.545941e-001
      vertex -2.000000e+000 -3.503318e+000 -1.087402e+000
      vertex -2.000000e+000 -4.428318e+000 -1.759454e+000
    endloop
  endfacet
  facet normal  6.785982e-001  2.810848e-001  6.785983e-001
    outer loop
      vertex  2.000000e+000 -5.000000e+000 -1.850000e+000
      vertex  1.500000e+000 -5.954594e+000 -9.545941e-001
      vertex  2.000000e+000 -6.308147e+000 -1.308147e+000
    endloop
  endfacet
  facet normal  6.785982e-001  6.785985e-001  2.810846e-001
    outer loop
      vertex  2.000000e+000 -6.308147e+000 -1.308147e+000
      vertex  1.500000e+000 -5.954594e+000 -9.545941e-001
      vertex  1.500000e+000 -6.350000e+000  0.000000e+000
    endloop
  endfacet
  facet normal  6.785983e-001  6.785983e-001  2.810847e-001
    outer loop
      vertex  2.000000e+000 -6.308147e+000 -1.308147e+000
      vertex  1.500000e+000 -6.350000e+000  0.000000e+000
      vertex  2.000000e+000 -6.850000e+000 -5.100358e-017
    endloop
  endfacet
  facet normal  6.785985e-001  2.810846e-001  6.785982e-001
    outer loop
      vertex  1.500000e+000 -5.954594e+000 -9.545941e-001
      vertex  2.000000e+000 -5.000000e+000 -1.850000e+000
      vertex  1.500000e+000 -5.000000e+000 -1.350000e+000
    endloop
  endfacet
  facet normal  6.785982e-001 -2.810845e-001  6.785985e-001
    outer loop
      vertex  1.500000e+000 -5.000000e+000 -1.350000e+000
      vertex  2.000000e+000 -5.000000e+000 -1.850000e+000
      vertex  2.000000e+000 -3.691853e+000 -1.308148e+000
    endloop
  endfacet
  facet normal  6.785986e-001 -2.810846e-001  6.785982e-001
    outer loop
      vertex  1.500000e+000 -5.000000e+000 -1.350000e+000
      vertex  2.000000e+000 -3.691853e+000 -1.308148e+000
      vertex  1.500000e+000 -4.045406e+000 -9.545941e-001
    endloop
  endfacet
  facet normal  6.785983e-001 -6.785983e-001  2.810848e-001
    outer loop
      vertex  1.500000e+000 -4.045406e+000 -9.545941e-001
      vertex  2.000000e+000 -3.691853e+000 -1.308148e+000
      vertex  2.000000e+000 -3.150000e+000 -6.469681e-007
    endloop
  endfacet
  facet normal  6.785986e-001 -6.785982e-001  2.810845e-001
    outer loop
      vertex  1.500000e+000 -4.045406e+000 -9.545941e-001
      vertex  2.000000e+000 -3.150000e+000 -6.469681e-007
      vertex  1.500000e+000 -3.650000e+000  1.653219e-016
    endloop
  endfacet
  facet normal  6.335748e-001 -2.419967e-007 -7.736815e-001
    outer loop
      vertex  2.000000e+000 -4.428318e+000  1.759454e+000
      vertex  2.000000e+000 -5.571681e+000  1.759455e+000
      vertex  1.500000e+000 -5.000000e+000  1.350000e+000
    endloop
  endfacet
  facet normal  7.666717e-001 -2.456978e-001 -5.931670e-001
    outer loop
      vertex  1.500000e+000 -4.045406e+000  9.545941e-001
      vertex  2.000000e+000 -4.428318e+000  1.759454e+000
      vertex  1.500000e+000 -5.000000e+000  1.350000e+000
    endloop
  endfacet
  facet normal  7.666717e-001  2.456979e-001 -5.931671e-001
    outer loop
      vertex  1.500000e+000 -5.000000e+000  1.350000e+000
      vertex  2.000000e+000 -5.571681e+000  1.759455e+000
      vertex  1.500000e+000 -5.954594e+000  9.545941e-001
    endloop
  endfacet
  facet normal  6.485981e-001 -4.473819e-001 -6.157678e-001
    outer loop
      vertex  2.000000e+000 -4.428318e+000  1.759454e+000
      vertex  1.500000e+000 -4.045406e+000  9.545941e-001
      vertex  2.000000e+000 -3.503318e+000  1.087402e+000
    endloop
  endfacet
  facet normal  7.409404e-001 -6.204506e-001 -2.569990e-001
    outer loop
      vertex  2.000000e+000 -3.503318e+000  1.087402e+000
      vertex  1.500000e+000 -4.045406e+000  9.545941e-001
      vertex  1.500000e+000 -3.650000e+000  1.653219e-016
    endloop
  endfacet
  facet normal  6.891517e-001 -6.891519e-001 -2.239187e-001
    outer loop
      vertex  2.000000e+000 -3.503318e+000  1.087402e+000
      vertex  1.500000e+000 -3.650000e+000  1.653219e-016
      vertex  2.000000e+000 -3.150000e+000 -6.469681e-007
    endloop
  endfacet
  facet normal  6.485983e-001  4.473815e-001 -6.157680e-001
    outer loop
      vertex  2.000000e+000 -5.571681e+000  1.759455e+000
      vertex  2.000000e+000 -6.496681e+000  1.087403e+000
      vertex  1.500000e+000 -5.954594e+000  9.545941e-001
    endloop
  endfacet
  facet normal  7.439159e-001  6.355656e-001 -2.065078e-001
    outer loop
      vertex  1.500000e+000 -5.954594e+000  9.545941e-001
      vertex  2.000000e+000 -6.496681e+000  1.087403e+000
      vertex  2.000000e+000 -6.850000e+000 -5.100358e-017
    endloop
  endfacet
  facet normal  6.785984e-001  6.785984e-001 -2.810846e-001
    outer loop
      vertex  1.500000e+000 -5.954594e+000  9.545941e-001
      vertex  2.000000e+000 -6.850000e+000 -5.100358e-017
      vertex  1.500000e+000 -6.350000e+000  0.000000e+000
    endloop
  endfacet
endsolid CATIA STL
