solid CATIA STL
  facet normal  1.000000e+000  -0.000000e+000  0.000000e+000
    outer loop
      vertex  4.750000e+000  1.400000e+001  7.300000e+000
      vertex  4.750000e+000  1.400000e+001  1.300000e+000
      vertex  4.750000e+000  1.491924e+001  9.192388e-001
    endloop
  endfacet
  facet normal  1.000000e+000  0.000000e+000  0.000000e+000
    outer loop
      vertex  4.750000e+000  1.400000e+001  1.300000e+000
      vertex  4.750000e+000  1.400000e+001  7.300000e+000
      vertex  4.750000e+000  1.308076e+001  9.192388e-001
    endloop
  endfacet
  facet normal  1.000000e+000  -0.000000e+000  0.000000e+000
    outer loop
      vertex  4.750000e+000  1.700000e+001  1.160000e+001
      vertex  4.750000e+000  1.100000e+001  1.160000e+001
      vertex  4.750000e+000  1.400000e+001  9.900000e+000
    endloop
  endfacet
  facet normal  1.000000e+000  -0.000000e+000  0.000000e+000
    outer loop
      vertex  4.750000e+000  1.700000e+001  1.160000e+001
      vertex  4.750000e+000  1.400000e+001  9.900000e+000
      vertex  4.750000e+000  1.491924e+001  9.519238e+000
    endloop
  endfacet
  facet normal  1.000000e+000  -0.000000e+000  0.000000e+000
    outer loop
      vertex  4.750000e+000  1.700000e+001  1.160000e+001
      vertex  4.750000e+000  1.491924e+001  9.519238e+000
      vertex  4.750000e+000  1.530000e+001  8.600000e+000
    endloop
  endfacet
  facet normal  1.000000e+000  -0.000000e+000  0.000000e+000
    outer loop
      vertex  4.750000e+000  1.700000e+001  1.160000e+001
      vertex  4.750000e+000  1.530000e+001  8.600000e+000
      vertex  4.750000e+000  1.700000e+001 -3.600000e+000
    endloop
  endfacet
  facet normal  1.000000e+000  0.000000e+000  0.000000e+000
    outer loop
      vertex  4.750000e+000  1.700000e+001 -3.600000e+000
      vertex  4.750000e+000  1.530000e+001  8.600000e+000
      vertex  4.750000e+000  1.491924e+001  7.680761e+000
    endloop
  endfacet
  facet normal  1.000000e+000  0.000000e+000  0.000000e+000
    outer loop
      vertex  4.750000e+000  1.700000e+001 -3.600000e+000
      vertex  4.750000e+000  1.491924e+001  7.680761e+000
      vertex  4.750000e+000  1.400000e+001  7.300000e+000
    endloop
  endfacet
  facet normal  1.000000e+000  0.000000e+000  0.000000e+000
    outer loop
      vertex  4.750000e+000  1.700000e+001 -3.600000e+000
      vertex  4.750000e+000  1.400000e+001  7.300000e+000
      vertex  4.750000e+000  1.491924e+001  9.192388e-001
    endloop
  endfacet
  facet normal  1.000000e+000  0.000000e+000  0.000000e+000
    outer loop
      vertex  4.750000e+000  1.700000e+001 -3.600000e+000
      vertex  4.750000e+000  1.491924e+001  9.192388e-001
      vertex  4.750000e+000  1.530000e+001  0.000000e+000
    endloop
  endfacet
  facet normal  1.000000e+000  0.000000e+000  0.000000e+000
    outer loop
      vertex  4.750000e+000  1.700000e+001 -3.600000e+000
      vertex  4.750000e+000  1.530000e+001  0.000000e+000
      vertex  4.750000e+000  1.491924e+001 -9.192388e-001
    endloop
  endfacet
  facet normal  1.000000e+000  0.000000e+000  0.000000e+000
    outer loop
      vertex  4.750000e+000  1.700000e+001 -3.600000e+000
      vertex  4.750000e+000  1.491924e+001 -9.192388e-001
      vertex  4.750000e+000  1.400000e+001 -1.300000e+000
    endloop
  endfacet
  facet normal  1.000000e+000  0.000000e+000  0.000000e+000
    outer loop
      vertex  4.750000e+000  1.700000e+001 -3.600000e+000
      vertex  4.750000e+000  1.400000e+001 -1.300000e+000
      vertex  4.750000e+000  1.100000e+001 -3.600000e+000
    endloop
  endfacet
  facet normal  1.000000e+000  0.000000e+000  0.000000e+000
    outer loop
      vertex  4.750000e+000  1.100000e+001 -3.600000e+000
      vertex  4.750000e+000  1.400000e+001 -1.300000e+000
      vertex  4.750000e+000  1.308076e+001 -9.192388e-001
    endloop
  endfacet
  facet normal  1.000000e+000  0.000000e+000  0.000000e+000
    outer loop
      vertex  4.750000e+000  1.100000e+001 -3.600000e+000
      vertex  4.750000e+000  1.308076e+001 -9.192388e-001
      vertex  4.750000e+000  1.270000e+001  1.591988e-016
    endloop
  endfacet
  facet normal  9.999999e-001  0.000000e+000  -0.000000e+000
    outer loop
      vertex  4.750000e+000  1.100000e+001 -3.600000e+000
      vertex  4.750000e+000  1.270000e+001  1.591988e-016
      vertex  4.750000e+000  1.308076e+001  9.192388e-001
    endloop
  endfacet
  facet normal  1.000000e+000  0.000000e+000  -0.000000e+000
    outer loop
      vertex  4.750000e+000  1.100000e+001 -3.600000e+000
      vertex  4.750000e+000  1.308076e+001  9.192388e-001
      vertex  4.750000e+000  1.400000e+001  7.300000e+000
    endloop
  endfacet
  facet normal  1.000000e+000  0.000000e+000  0.000000e+000
    outer loop
      vertex  4.750000e+000  1.100000e+001 -3.600000e+000
      vertex  4.750000e+000  1.400000e+001  7.300000e+000
      vertex  4.750000e+000  1.308076e+001  7.680761e+000
    endloop
  endfacet
  facet normal  1.000000e+000  0.000000e+000  0.000000e+000
    outer loop
      vertex  4.750000e+000  1.100000e+001 -3.600000e+000
      vertex  4.750000e+000  1.308076e+001  7.680761e+000
      vertex  4.750000e+000  1.270000e+001  8.600000e+000
    endloop
  endfacet
  facet normal  1.000000e+000  0.000000e+000  0.000000e+000
    outer loop
      vertex  4.750000e+000  1.100000e+001  1.160000e+001
      vertex  4.750000e+000  1.100000e+001 -3.600000e+000
      vertex  4.750000e+000  1.270000e+001  8.600000e+000
    endloop
  endfacet
  facet normal  1.000000e+000  0.000000e+000  -0.000000e+000
    outer loop
      vertex  4.750000e+000  1.100000e+001  1.160000e+001
      vertex  4.750000e+000  1.270000e+001  8.600000e+000
      vertex  4.750000e+000  1.308076e+001  9.519238e+000
    endloop
  endfacet
  facet normal  1.000000e+000  0.000000e+000  -0.000000e+000
    outer loop
      vertex  4.750000e+000  1.100000e+001  1.160000e+001
      vertex  4.750000e+000  1.308076e+001  9.519238e+000
      vertex  4.750000e+000  1.400000e+001  9.900000e+000
    endloop
  endfacet
  facet normal -9.949098e-001  0.000000e+000  1.007702e-001
    outer loop
      vertex  2.600000e+000  1.700000e+001  3.183976e-016
      vertex  2.547196e+000  1.519088e+001 -5.213391e-001
      vertex  2.600000e+000  1.530000e+001  0.000000e+000
    endloop
  endfacet
  facet normal  8.399997e-001  0.000000e+000  5.425868e-001
    outer loop
      vertex -2.103444e+000  0.000000e+000 -1.528242e+000
      vertex -2.103444e+000  1.700000e+001 -1.528242e+000
      vertex -2.257997e+000  1.416896e+001 -1.288973e+000
    endloop
  endfacet
  facet normal  8.814708e-001  1.640365e-003  4.722357e-001
    outer loop
      vertex -2.103444e+000  0.000000e+000 -1.528242e+000
      vertex -2.257997e+000  1.416896e+001 -1.288973e+000
      vertex -2.341101e+000  1.335910e+001 -1.131038e+000
    endloop
  endfacet
  facet normal  9.453494e-001  7.125308e-003  3.259813e-001
    outer loop
      vertex -2.103444e+000  0.000000e+000 -1.528242e+000
      vertex -2.341101e+000  1.335910e+001 -1.131038e+000
      vertex -2.547196e+000  1.280912e+001 -5.213391e-001
    endloop
  endfacet
  facet normal  9.940088e-001  2.609238e-002  1.061401e-001
    outer loop
      vertex -2.103444e+000  0.000000e+000 -1.528242e+000
      vertex -2.547196e+000  1.280912e+001 -5.213391e-001
      vertex -2.600000e+000  1.270000e+001  1.591988e-016
    endloop
  endfacet
  facet normal  9.510565e-001 -3.873633e-018  3.090170e-001
    outer loop
      vertex -2.103444e+000  0.000000e+000 -1.528242e+000
      vertex -2.600000e+000  1.270000e+001  1.591988e-016
      vertex -2.600000e+000  0.000000e+000  0.000000e+000
    endloop
  endfacet
  facet normal -9.932206e-001  0.000000e+000  1.162445e-001
    outer loop
      vertex  2.600000e+000  0.000000e+000  3.183976e-016
      vertex  2.600000e+000  1.270000e+001  3.183976e-016
      vertex  2.529733e+000  1.284694e+001 -6.003734e-001
    endloop
  endfacet
  facet normal -9.357433e-001  1.135520e-002  3.524989e-001
    outer loop
      vertex  2.600000e+000  0.000000e+000  3.183976e-016
      vertex  2.529733e+000  1.284694e+001 -6.003734e-001
      vertex  2.323184e+000  1.342800e+001 -1.167397e+000
    endloop
  endfacet
  facet normal -8.352636e-001  3.051012e-002  5.490026e-001
    outer loop
      vertex  2.600000e+000  0.000000e+000  3.183976e-016
      vertex  2.323184e+000  1.342800e+001 -1.167397e+000
      vertex  2.257997e+000  1.383104e+001 -1.288973e+000
    endloop
  endfacet
  facet normal -9.510432e-001  5.281529e-003  3.090127e-001
    outer loop
      vertex  2.600000e+000  0.000000e+000  3.183976e-016
      vertex  2.257997e+000  1.383104e+001 -1.288973e+000
      vertex  2.103444e+000  0.000000e+000 -1.528242e+000
    endloop
  endfacet
  facet normal  9.510565e-001  0.000000e+000  3.090170e-001
    outer loop
      vertex -2.103444e+000  1.700000e+001 -1.528242e+000
      vertex -2.600000e+000  1.700000e+001  0.000000e+000
      vertex -2.600000e+000  1.530000e+001  0.000000e+000
    endloop
  endfacet
  facet normal  9.771377e-001 -1.496750e-001  1.509944e-001
    outer loop
      vertex -2.103444e+000  1.700000e+001 -1.528242e+000
      vertex -2.600000e+000  1.530000e+001  0.000000e+000
      vertex -2.529733e+000  1.515306e+001 -6.003734e-001
    endloop
  endfacet
  facet normal  9.291596e-001 -2.932344e-002  3.685138e-001
    outer loop
      vertex -2.103444e+000  1.700000e+001 -1.528242e+000
      vertex -2.529733e+000  1.515306e+001 -6.003734e-001
      vertex -2.323184e+000  1.457200e+001 -1.167397e+000
    endloop
  endfacet
  facet normal  8.724113e-001 -6.321065e-003  4.887316e-001
    outer loop
      vertex -2.103444e+000  1.700000e+001 -1.528242e+000
      vertex -2.323184e+000  1.457200e+001 -1.167397e+000
      vertex -2.257997e+000  1.416896e+001 -1.288973e+000
    endloop
  endfacet
  facet normal -8.726351e-001 -5.687518e-003  4.883396e-001
    outer loop
      vertex  2.257997e+000  1.383104e+001 -1.288973e+000
      vertex  2.341101e+000  1.464090e+001 -1.131038e+000
      vertex  2.103444e+000  1.700000e+001 -1.528242e+000
    endloop
  endfacet
  facet normal -9.365484e-001 -3.563359e-002  3.487225e-001
    outer loop
      vertex  2.103444e+000  1.700000e+001 -1.528242e+000
      vertex  2.341101e+000  1.464090e+001 -1.131038e+000
      vertex  2.547196e+000  1.519088e+001 -5.213391e-001
    endloop
  endfacet
  facet normal -9.492752e-001 -6.117639e-002  3.084382e-001
    outer loop
      vertex  2.103444e+000  1.700000e+001 -1.528242e+000
      vertex  2.547196e+000  1.519088e+001 -5.213391e-001
      vertex  2.600000e+000  1.700000e+001  3.183976e-016
    endloop
  endfacet
  facet normal -8.399997e-001  0.000000e+000  5.425868e-001
    outer loop
      vertex  2.257997e+000  1.383104e+001 -1.288973e+000
      vertex  2.103444e+000  1.700000e+001 -1.528242e+000
      vertex  2.103444e+000  0.000000e+000 -1.528242e+000
    endloop
  endfacet
  facet normal -5.877852e-001  0.000000e+000  8.090169e-001
    outer loop
      vertex  2.103444e+000  0.000000e+000 -1.528242e+000
      vertex  2.103444e+000  1.700000e+001 -1.528242e+000
      vertex  8.034442e-001  1.700000e+001 -2.472747e+000
    endloop
  endfacet
  facet normal -5.877852e-001  0.000000e+000  8.090169e-001
    outer loop
      vertex  2.103444e+000  0.000000e+000 -1.528242e+000
      vertex  8.034442e-001  1.700000e+001 -2.472747e+000
      vertex  8.034442e-001  0.000000e+000 -2.472747e+000
    endloop
  endfacet
  facet normal  0.000000e+000  -0.000000e+000  1.000000e+000
    outer loop
      vertex  8.034442e-001  0.000000e+000 -2.472747e+000
      vertex  8.034442e-001  1.700000e+001 -2.472747e+000
      vertex -8.034442e-001  1.700000e+001 -2.472747e+000
    endloop
  endfacet
  facet normal  0.000000e+000  0.000000e+000  1.000000e+000
    outer loop
      vertex  8.034442e-001  0.000000e+000 -2.472747e+000
      vertex -8.034442e-001  1.700000e+001 -2.472747e+000
      vertex -8.034442e-001  0.000000e+000 -2.472747e+000
    endloop
  endfacet
  facet normal  5.877852e-001  -0.000000e+000  8.090169e-001
    outer loop
      vertex -8.034442e-001  0.000000e+000 -2.472747e+000
      vertex -8.034442e-001  1.700000e+001 -2.472747e+000
      vertex -2.103444e+000  1.700000e+001 -1.528242e+000
    endloop
  endfacet
  facet normal  5.877852e-001  0.000000e+000  8.090169e-001
    outer loop
      vertex -8.034442e-001  0.000000e+000 -2.472747e+000
      vertex -2.103444e+000  1.700000e+001 -1.528242e+000
      vertex -2.103444e+000  0.000000e+000 -1.528242e+000
    endloop
  endfacet
  facet normal  9.949098e-001  0.000000e+000 -1.007702e-001
    outer loop
      vertex -2.600000e+000  1.700000e+001  0.000000e+000
      vertex -2.547196e+000  1.519088e+001  5.213391e-001
      vertex -2.600000e+000  1.530000e+001  0.000000e+000
    endloop
  endfacet
  facet normal -8.399997e-001  -0.000000e+000 -5.425868e-001
    outer loop
      vertex  2.103444e+000  0.000000e+000  1.528242e+000
      vertex  2.103444e+000  1.700000e+001  1.528242e+000
      vertex  2.257997e+000  1.416896e+001  1.288973e+000
    endloop
  endfacet
  facet normal -8.814708e-001  1.640365e-003 -4.722357e-001
    outer loop
      vertex  2.103444e+000  0.000000e+000  1.528242e+000
      vertex  2.257997e+000  1.416896e+001  1.288973e+000
      vertex  2.341101e+000  1.335910e+001  1.131038e+000
    endloop
  endfacet
  facet normal -9.453494e-001  7.125308e-003 -3.259813e-001
    outer loop
      vertex  2.103444e+000  0.000000e+000  1.528242e+000
      vertex  2.341101e+000  1.335910e+001  1.131038e+000
      vertex  2.547196e+000  1.280912e+001  5.213391e-001
    endloop
  endfacet
  facet normal -9.940088e-001  2.609238e-002 -1.061401e-001
    outer loop
      vertex  2.103444e+000  0.000000e+000  1.528242e+000
      vertex  2.547196e+000  1.280912e+001  5.213391e-001
      vertex  2.600000e+000  1.270000e+001  3.183976e-016
    endloop
  endfacet
  facet normal -9.510565e-001  -0.000000e+000 -3.090170e-001
    outer loop
      vertex  2.103444e+000  0.000000e+000  1.528242e+000
      vertex  2.600000e+000  1.270000e+001  3.183976e-016
      vertex  2.600000e+000  0.000000e+000  3.183976e-016
    endloop
  endfacet
  facet normal  9.932206e-001  1.457165e-018 -1.162445e-001
    outer loop
      vertex -2.600000e+000  0.000000e+000  0.000000e+000
      vertex -2.600000e+000  1.270000e+001  1.591988e-016
      vertex -2.529733e+000  1.284694e+001  6.003734e-001
    endloop
  endfacet
  facet normal  9.357433e-001  1.135520e-002 -3.524989e-001
    outer loop
      vertex -2.600000e+000  0.000000e+000  0.000000e+000
      vertex -2.529733e+000  1.284694e+001  6.003734e-001
      vertex -2.323184e+000  1.342800e+001  1.167397e+000
    endloop
  endfacet
  facet normal  8.352636e-001  3.051012e-002 -5.490026e-001
    outer loop
      vertex -2.600000e+000  0.000000e+000  0.000000e+000
      vertex -2.323184e+000  1.342800e+001  1.167397e+000
      vertex -2.257997e+000  1.383104e+001  1.288973e+000
    endloop
  endfacet
  facet normal  9.510432e-001  5.281529e-003 -3.090127e-001
    outer loop
      vertex -2.600000e+000  0.000000e+000  0.000000e+000
      vertex -2.257997e+000  1.383104e+001  1.288973e+000
      vertex -2.103444e+000  0.000000e+000  1.528242e+000
    endloop
  endfacet
  facet normal -9.510565e-001  5.787664e-017 -3.090170e-001
    outer loop
      vertex  2.103444e+000  1.700000e+001  1.528242e+000
      vertex  2.600000e+000  1.700000e+001  3.183976e-016
      vertex  2.600000e+000  1.530000e+001  0.000000e+000
    endloop
  endfacet
  facet normal -9.771377e-001 -1.496750e-001 -1.509944e-001
    outer loop
      vertex  2.103444e+000  1.700000e+001  1.528242e+000
      vertex  2.600000e+000  1.530000e+001  0.000000e+000
      vertex  2.529733e+000  1.515306e+001  6.003734e-001
    endloop
  endfacet
  facet normal -9.291596e-001 -2.932344e-002 -3.685138e-001
    outer loop
      vertex  2.103444e+000  1.700000e+001  1.528242e+000
      vertex  2.529733e+000  1.515306e+001  6.003734e-001
      vertex  2.323184e+000  1.457200e+001  1.167397e+000
    endloop
  endfacet
  facet normal -8.724113e-001 -6.321065e-003 -4.887316e-001
    outer loop
      vertex  2.103444e+000  1.700000e+001  1.528242e+000
      vertex  2.323184e+000  1.457200e+001  1.167397e+000
      vertex  2.257997e+000  1.416896e+001  1.288973e+000
    endloop
  endfacet
  facet normal  8.726351e-001 -5.687518e-003 -4.883396e-001
    outer loop
      vertex -2.257997e+000  1.383104e+001  1.288973e+000
      vertex -2.341101e+000  1.464090e+001  1.131038e+000
      vertex -2.103444e+000  1.700000e+001  1.528242e+000
    endloop
  endfacet
  facet normal  9.365484e-001 -3.563359e-002 -3.487225e-001
    outer loop
      vertex -2.103444e+000  1.700000e+001  1.528242e+000
      vertex -2.341101e+000  1.464090e+001  1.131038e+000
      vertex -2.547196e+000  1.519088e+001  5.213391e-001
    endloop
  endfacet
  facet normal  9.492752e-001 -6.117639e-002 -3.084382e-001
    outer loop
      vertex -2.103444e+000  1.700000e+001  1.528242e+000
      vertex -2.547196e+000  1.519088e+001  5.213391e-001
      vertex -2.600000e+000  1.700000e+001  0.000000e+000
    endloop
  endfacet
  facet normal  8.399997e-001  0.000000e+000 -5.425868e-001
    outer loop
      vertex -2.257997e+000  1.383104e+001  1.288973e+000
      vertex -2.103444e+000  1.700000e+001  1.528242e+000
      vertex -2.103444e+000  0.000000e+000  1.528242e+000
    endloop
  endfacet
  facet normal  5.877852e-001  0.000000e+000 -8.090169e-001
    outer loop
      vertex -2.103444e+000  0.000000e+000  1.528242e+000
      vertex -2.103444e+000  1.700000e+001  1.528242e+000
      vertex -8.034442e-001  1.700000e+001  2.472747e+000
    endloop
  endfacet
  facet normal  5.877852e-001  0.000000e+000 -8.090169e-001
    outer loop
      vertex -2.103444e+000  0.000000e+000  1.528242e+000
      vertex -8.034442e-001  1.700000e+001  2.472747e+000
      vertex -8.034442e-001  0.000000e+000  2.472747e+000
    endloop
  endfacet
  facet normal  0.000000e+000  0.000000e+000 -1.000000e+000
    outer loop
      vertex -8.034442e-001  0.000000e+000  2.472747e+000
      vertex -8.034442e-001  1.700000e+001  2.472747e+000
      vertex  8.034442e-001  1.700000e+001  2.472747e+000
    endloop
  endfacet
  facet normal  0.000000e+000  -0.000000e+000 -1.000000e+000
    outer loop
      vertex -8.034442e-001  0.000000e+000  2.472747e+000
      vertex  8.034442e-001  1.700000e+001  2.472747e+000
      vertex  8.034442e-001  0.000000e+000  2.472747e+000
    endloop
  endfacet
  facet normal -5.877852e-001  0.000000e+000 -8.090169e-001
    outer loop
      vertex  8.034442e-001  0.000000e+000  2.472747e+000
      vertex  8.034442e-001  1.700000e+001  2.472747e+000
      vertex  2.103444e+000  1.700000e+001  1.528242e+000
    endloop
  endfacet
  facet normal -5.877852e-001  -0.000000e+000 -8.090169e-001
    outer loop
      vertex  8.034442e-001  0.000000e+000  2.472747e+000
      vertex  2.103444e+000  1.700000e+001  1.528242e+000
      vertex  2.103444e+000  0.000000e+000  1.528242e+000
    endloop
  endfacet
  facet normal -1.000000e+000  0.000000e+000  0.000000e+000
    outer loop
      vertex -4.750000e+000  1.491924e+001  9.192388e-001
      vertex -4.750000e+000  1.400000e+001  1.300000e+000
      vertex -4.750000e+000  1.400000e+001  7.300000e+000
    endloop
  endfacet
  facet normal -1.000000e+000  0.000000e+000  -0.000000e+000
    outer loop
      vertex -4.750000e+000  1.308076e+001  9.192388e-001
      vertex -4.750000e+000  1.400000e+001  7.300000e+000
      vertex -4.750000e+000  1.400000e+001  1.300000e+000
    endloop
  endfacet
  facet normal -1.000000e+000  0.000000e+000  0.000000e+000
    outer loop
      vertex -4.750000e+000  1.700000e+001  1.160000e+001
      vertex -4.750000e+000  1.700000e+001 -3.600000e+000
      vertex -4.750000e+000  1.530000e+001  8.600000e+000
    endloop
  endfacet
  facet normal -1.000000e+000  0.000000e+000  0.000000e+000
    outer loop
      vertex -4.750000e+000  1.700000e+001  1.160000e+001
      vertex -4.750000e+000  1.530000e+001  8.600000e+000
      vertex -4.750000e+000  1.491924e+001  9.519238e+000
    endloop
  endfacet
  facet normal -1.000000e+000  0.000000e+000  0.000000e+000
    outer loop
      vertex -4.750000e+000  1.700000e+001  1.160000e+001
      vertex -4.750000e+000  1.491924e+001  9.519238e+000
      vertex -4.750000e+000  1.400000e+001  9.900000e+000
    endloop
  endfacet
  facet normal -1.000000e+000  0.000000e+000  0.000000e+000
    outer loop
      vertex -4.750000e+000  1.700000e+001  1.160000e+001
      vertex -4.750000e+000  1.400000e+001  9.900000e+000
      vertex -4.750000e+000  1.100000e+001  1.160000e+001
    endloop
  endfacet
  facet normal -1.000000e+000  0.000000e+000  0.000000e+000
    outer loop
      vertex -4.750000e+000  1.700000e+001 -3.600000e+000
      vertex -4.750000e+000  1.100000e+001 -3.600000e+000
      vertex -4.750000e+000  1.400000e+001 -1.300000e+000
    endloop
  endfacet
  facet normal -1.000000e+000  0.000000e+000  0.000000e+000
    outer loop
      vertex -4.750000e+000  1.700000e+001 -3.600000e+000
      vertex -4.750000e+000  1.400000e+001 -1.300000e+000
      vertex -4.750000e+000  1.491924e+001 -9.192388e-001
    endloop
  endfacet
  facet normal -1.000000e+000  0.000000e+000  0.000000e+000
    outer loop
      vertex -4.750000e+000  1.700000e+001 -3.600000e+000
      vertex -4.750000e+000  1.491924e+001 -9.192388e-001
      vertex -4.750000e+000  1.530000e+001  0.000000e+000
    endloop
  endfacet
  facet normal -9.999999e-001  0.000000e+000  0.000000e+000
    outer loop
      vertex -4.750000e+000  1.700000e+001 -3.600000e+000
      vertex -4.750000e+000  1.530000e+001  0.000000e+000
      vertex -4.750000e+000  1.491924e+001  9.192388e-001
    endloop
  endfacet
  facet normal -1.000000e+000  0.000000e+000  0.000000e+000
    outer loop
      vertex -4.750000e+000  1.700000e+001 -3.600000e+000
      vertex -4.750000e+000  1.491924e+001  9.192388e-001
      vertex -4.750000e+000  1.400000e+001  7.300000e+000
    endloop
  endfacet
  facet normal -1.000000e+000  0.000000e+000  0.000000e+000
    outer loop
      vertex -4.750000e+000  1.700000e+001 -3.600000e+000
      vertex -4.750000e+000  1.400000e+001  7.300000e+000
      vertex -4.750000e+000  1.491924e+001  7.680761e+000
    endloop
  endfacet
  facet normal -1.000000e+000  0.000000e+000  0.000000e+000
    outer loop
      vertex -4.750000e+000  1.700000e+001 -3.600000e+000
      vertex -4.750000e+000  1.491924e+001  7.680761e+000
      vertex -4.750000e+000  1.530000e+001  8.600000e+000
    endloop
  endfacet
  facet normal -1.000000e+000  0.000000e+000  -0.000000e+000
    outer loop
      vertex -4.750000e+000  1.100000e+001 -3.600000e+000
      vertex -4.750000e+000  1.270000e+001  8.600000e+000
      vertex -4.750000e+000  1.308076e+001  7.680761e+000
    endloop
  endfacet
  facet normal -1.000000e+000  0.000000e+000  -0.000000e+000
    outer loop
      vertex -4.750000e+000  1.100000e+001 -3.600000e+000
      vertex -4.750000e+000  1.308076e+001  7.680761e+000
      vertex -4.750000e+000  1.400000e+001  7.300000e+000
    endloop
  endfacet
  facet normal -1.000000e+000  0.000000e+000  0.000000e+000
    outer loop
      vertex -4.750000e+000  1.100000e+001 -3.600000e+000
      vertex -4.750000e+000  1.400000e+001  7.300000e+000
      vertex -4.750000e+000  1.308076e+001  9.192388e-001
    endloop
  endfacet
  facet normal -1.000000e+000  0.000000e+000  0.000000e+000
    outer loop
      vertex -4.750000e+000  1.100000e+001 -3.600000e+000
      vertex -4.750000e+000  1.308076e+001  9.192388e-001
      vertex -4.750000e+000  1.270000e+001  1.591988e-016
    endloop
  endfacet
  facet normal -1.000000e+000  0.000000e+000  -0.000000e+000
    outer loop
      vertex -4.750000e+000  1.100000e+001 -3.600000e+000
      vertex -4.750000e+000  1.270000e+001  1.591988e-016
      vertex -4.750000e+000  1.308076e+001 -9.192388e-001
    endloop
  endfacet
  facet normal -1.000000e+000  0.000000e+000  -0.000000e+000
    outer loop
      vertex -4.750000e+000  1.100000e+001 -3.600000e+000
      vertex -4.750000e+000  1.308076e+001 -9.192388e-001
      vertex -4.750000e+000  1.400000e+001 -1.300000e+000
    endloop
  endfacet
  facet normal -1.000000e+000  -0.000000e+000  0.000000e+000
    outer loop
      vertex -4.750000e+000  1.100000e+001  1.160000e+001
      vertex -4.750000e+000  1.400000e+001  9.900000e+000
      vertex -4.750000e+000  1.308076e+001  9.519238e+000
    endloop
  endfacet
  facet normal -1.000000e+000  -0.000000e+000  0.000000e+000
    outer loop
      vertex -4.750000e+000  1.100000e+001  1.160000e+001
      vertex -4.750000e+000  1.308076e+001  9.519238e+000
      vertex -4.750000e+000  1.270000e+001  8.600000e+000
    endloop
  endfacet
  facet normal -1.000000e+000  -0.000000e+000  0.000000e+000
    outer loop
      vertex -4.750000e+000  1.100000e+001  1.160000e+001
      vertex -4.750000e+000  1.270000e+001  8.600000e+000
      vertex -4.750000e+000  1.100000e+001 -3.600000e+000
    endloop
  endfacet
  facet normal -3.698805e-002  3.824215e-001 -9.232474e-001
    outer loop
      vertex  4.750000e+000  1.400000e+001  1.300000e+000
      vertex  4.750000e+000  1.308076e+001  9.192388e-001
      vertex  2.341101e+000  1.335910e+001  1.131038e+000
    endloop
  endfacet
  facet normal  2.789258e-002  7.469155e-001 -6.643336e-001
    outer loop
      vertex  2.341101e+000  1.335910e+001  1.131038e+000
      vertex  4.750000e+000  1.308076e+001  9.192388e-001
      vertex  2.547196e+000  1.280912e+001  5.213391e-001
    endloop
  endfacet
  facet normal -4.476076e-002  9.229535e-001 -3.822998e-001
    outer loop
      vertex  2.547196e+000  1.280912e+001  5.213391e-001
      vertex  4.750000e+000  1.308076e+001  9.192388e-001
      vertex  4.750000e+000  1.270000e+001  1.591988e-016
    endloop
  endfacet
  facet normal -1.516904e-017  9.787914e-001 -2.048598e-001
    outer loop
      vertex  2.547196e+000  1.280912e+001  5.213391e-001
      vertex  4.750000e+000  1.270000e+001  1.591988e-016
      vertex  2.600000e+000  1.270000e+001  3.183976e-016
    endloop
  endfacet
  facet normal  1.743374e-002  1.931022e-001 -9.810237e-001
    outer loop
      vertex  2.341101e+000  1.335910e+001  1.131038e+000
      vertex  2.257997e+000  1.416896e+001  1.288973e+000
      vertex  4.750000e+000  1.400000e+001  1.300000e+000
    endloop
  endfacet
  facet normal -1.518718e-002 -2.865109e-001 -9.579566e-001
    outer loop
      vertex  4.750000e+000  1.400000e+001  1.300000e+000
      vertex  2.257997e+000  1.416896e+001  1.288973e+000
      vertex  2.323184e+000  1.457200e+001  1.167397e+000
    endloop
  endfacet
  facet normal -3.968567e-002 -3.823818e-001 -9.231517e-001
    outer loop
      vertex  4.750000e+000  1.400000e+001  1.300000e+000
      vertex  2.323184e+000  1.457200e+001  1.167397e+000
      vertex  4.750000e+000  1.491924e+001  9.192388e-001
    endloop
  endfacet
  facet normal  2.797201e-002 -7.032104e-001 -7.104312e-001
    outer loop
      vertex  2.323184e+000  1.457200e+001  1.167397e+000
      vertex  2.529733e+000  1.515306e+001  6.003734e-001
      vertex  4.750000e+000  1.491924e+001  9.192388e-001
    endloop
  endfacet
  facet normal -6.674974e-002 -9.673334e-001 -2.445622e-001
    outer loop
      vertex  4.750000e+000  1.491924e+001  9.192388e-001
      vertex  2.529733e+000  1.515306e+001  6.003734e-001
      vertex  2.600000e+000  1.530000e+001  0.000000e+000
    endloop
  endfacet
  facet normal  0.000000e+000 -9.238796e-001 -3.826834e-001
    outer loop
      vertex  4.750000e+000  1.491924e+001  9.192388e-001
      vertex  2.600000e+000  1.530000e+001  0.000000e+000
      vertex  4.750000e+000  1.530000e+001  0.000000e+000
    endloop
  endfacet
  facet normal  3.698805e-002 -3.824215e-001 -9.232474e-001
    outer loop
      vertex -4.750000e+000  1.491924e+001  9.192388e-001
      vertex -2.341101e+000  1.464090e+001  1.131038e+000
      vertex -4.750000e+000  1.400000e+001  1.300000e+000
    endloop
  endfacet
  facet normal -2.797201e-002  7.032104e-001 -7.104312e-001
    outer loop
      vertex -2.323184e+000  1.342800e+001  1.167397e+000
      vertex -2.529733e+000  1.284694e+001  6.003734e-001
      vertex -4.750000e+000  1.308076e+001  9.192388e-001
    endloop
  endfacet
  facet normal  6.674974e-002  9.673334e-001 -2.445622e-001
    outer loop
      vertex -4.750000e+000  1.308076e+001  9.192388e-001
      vertex -2.529733e+000  1.284694e+001  6.003734e-001
      vertex -2.600000e+000  1.270000e+001  1.591988e-016
    endloop
  endfacet
  facet normal  0.000000e+000  9.238796e-001 -3.826834e-001
    outer loop
      vertex -4.750000e+000  1.308076e+001  9.192388e-001
      vertex -2.600000e+000  1.270000e+001  1.591988e-016
      vertex -4.750000e+000  1.270000e+001  1.591988e-016
    endloop
  endfacet
  facet normal -1.743374e-002 -1.931022e-001 -9.810237e-001
    outer loop
      vertex -2.341101e+000  1.464090e+001  1.131038e+000
      vertex -2.257997e+000  1.383104e+001  1.288973e+000
      vertex -4.750000e+000  1.400000e+001  1.300000e+000
    endloop
  endfacet
  facet normal  1.518718e-002  2.865109e-001 -9.579566e-001
    outer loop
      vertex -4.750000e+000  1.400000e+001  1.300000e+000
      vertex -2.257997e+000  1.383104e+001  1.288973e+000
      vertex -2.323184e+000  1.342800e+001  1.167397e+000
    endloop
  endfacet
  facet normal  3.968567e-002  3.823818e-001 -9.231517e-001
    outer loop
      vertex -4.750000e+000  1.400000e+001  1.300000e+000
      vertex -2.323184e+000  1.342800e+001  1.167397e+000
      vertex -4.750000e+000  1.308076e+001  9.192388e-001
    endloop
  endfacet
  facet normal -2.789258e-002 -7.469155e-001 -6.643336e-001
    outer loop
      vertex -2.341101e+000  1.464090e+001  1.131038e+000
      vertex -4.750000e+000  1.491924e+001  9.192388e-001
      vertex -2.547196e+000  1.519088e+001  5.213391e-001
    endloop
  endfacet
  facet normal  4.476076e-002 -9.229535e-001 -3.822998e-001
    outer loop
      vertex -2.547196e+000  1.519088e+001  5.213391e-001
      vertex -4.750000e+000  1.491924e+001  9.192388e-001
      vertex -4.750000e+000  1.530000e+001  0.000000e+000
    endloop
  endfacet
  facet normal  0.000000e+000 -9.787914e-001 -2.048598e-001
    outer loop
      vertex -2.547196e+000  1.519088e+001  5.213391e-001
      vertex -4.750000e+000  1.530000e+001  0.000000e+000
      vertex -2.600000e+000  1.530000e+001  0.000000e+000
    endloop
  endfacet
  facet normal -3.698805e-002 -3.824215e-001  9.232474e-001
    outer loop
      vertex  4.750000e+000  1.400000e+001 -1.300000e+000
      vertex  4.750000e+000  1.491924e+001 -9.192388e-001
      vertex  2.341101e+000  1.464090e+001 -1.131038e+000
    endloop
  endfacet
  facet normal  2.789258e-002 -7.469155e-001  6.643336e-001
    outer loop
      vertex  2.341101e+000  1.464090e+001 -1.131038e+000
      vertex  4.750000e+000  1.491924e+001 -9.192388e-001
      vertex  2.547196e+000  1.519088e+001 -5.213391e-001
    endloop
  endfacet
  facet normal -4.476076e-002 -9.229535e-001  3.822998e-001
    outer loop
      vertex  2.547196e+000  1.519088e+001 -5.213391e-001
      vertex  4.750000e+000  1.491924e+001 -9.192388e-001
      vertex  4.750000e+000  1.530000e+001  0.000000e+000
    endloop
  endfacet
  facet normal  0.000000e+000 -9.787914e-001  2.048598e-001
    outer loop
      vertex  2.547196e+000  1.519088e+001 -5.213391e-001
      vertex  4.750000e+000  1.530000e+001  0.000000e+000
      vertex  2.600000e+000  1.530000e+001  0.000000e+000
    endloop
  endfacet
  facet normal  1.743374e-002 -1.931022e-001  9.810237e-001
    outer loop
      vertex  2.341101e+000  1.464090e+001 -1.131038e+000
      vertex  2.257997e+000  1.383104e+001 -1.288973e+000
      vertex  4.750000e+000  1.400000e+001 -1.300000e+000
    endloop
  endfacet
  facet normal -1.518718e-002  2.865109e-001  9.579566e-001
    outer loop
      vertex  4.750000e+000  1.400000e+001 -1.300000e+000
      vertex  2.257997e+000  1.383104e+001 -1.288973e+000
      vertex  2.323184e+000  1.342800e+001 -1.167397e+000
    endloop
  endfacet
  facet normal -3.968567e-002  3.823818e-001  9.231517e-001
    outer loop
      vertex  4.750000e+000  1.400000e+001 -1.300000e+000
      vertex  2.323184e+000  1.342800e+001 -1.167397e+000
      vertex  4.750000e+000  1.308076e+001 -9.192388e-001
    endloop
  endfacet
  facet normal  2.797201e-002  7.032104e-001  7.104312e-001
    outer loop
      vertex  2.323184e+000  1.342800e+001 -1.167397e+000
      vertex  2.529733e+000  1.284694e+001 -6.003734e-001
      vertex  4.750000e+000  1.308076e+001 -9.192388e-001
    endloop
  endfacet
  facet normal -6.674974e-002  9.673334e-001  2.445622e-001
    outer loop
      vertex  4.750000e+000  1.308076e+001 -9.192388e-001
      vertex  2.529733e+000  1.284694e+001 -6.003734e-001
      vertex  2.600000e+000  1.270000e+001  3.183976e-016
    endloop
  endfacet
  facet normal  2.833616e-017  9.238796e-001  3.826834e-001
    outer loop
      vertex  4.750000e+000  1.308076e+001 -9.192388e-001
      vertex  2.600000e+000  1.270000e+001  3.183976e-016
      vertex  4.750000e+000  1.270000e+001  1.591988e-016
    endloop
  endfacet
  facet normal  3.698805e-002  3.824215e-001  9.232474e-001
    outer loop
      vertex -4.750000e+000  1.308076e+001 -9.192388e-001
      vertex -2.341101e+000  1.335910e+001 -1.131038e+000
      vertex -4.750000e+000  1.400000e+001 -1.300000e+000
    endloop
  endfacet
  facet normal -2.797201e-002 -7.032104e-001  7.104312e-001
    outer loop
      vertex -2.323184e+000  1.457200e+001 -1.167397e+000
      vertex -2.529733e+000  1.515306e+001 -6.003734e-001
      vertex -4.750000e+000  1.491924e+001 -9.192388e-001
    endloop
  endfacet
  facet normal  6.674974e-002 -9.673334e-001  2.445622e-001
    outer loop
      vertex -4.750000e+000  1.491924e+001 -9.192388e-001
      vertex -2.529733e+000  1.515306e+001 -6.003734e-001
      vertex -2.600000e+000  1.530000e+001  0.000000e+000
    endloop
  endfacet
  facet normal  0.000000e+000 -9.238796e-001  3.826834e-001
    outer loop
      vertex -4.750000e+000  1.491924e+001 -9.192388e-001
      vertex -2.600000e+000  1.530000e+001  0.000000e+000
      vertex -4.750000e+000  1.530000e+001  0.000000e+000
    endloop
  endfacet
  facet normal -1.743374e-002  1.931022e-001  9.810237e-001
    outer loop
      vertex -2.341101e+000  1.335910e+001 -1.131038e+000
      vertex -2.257997e+000  1.416896e+001 -1.288973e+000
      vertex -4.750000e+000  1.400000e+001 -1.300000e+000
    endloop
  endfacet
  facet normal  1.518718e-002 -2.865109e-001  9.579566e-001
    outer loop
      vertex -4.750000e+000  1.400000e+001 -1.300000e+000
      vertex -2.257997e+000  1.416896e+001 -1.288973e+000
      vertex -2.323184e+000  1.457200e+001 -1.167397e+000
    endloop
  endfacet
  facet normal  3.968567e-002 -3.823818e-001  9.231517e-001
    outer loop
      vertex -4.750000e+000  1.400000e+001 -1.300000e+000
      vertex -2.323184e+000  1.457200e+001 -1.167397e+000
      vertex -4.750000e+000  1.491924e+001 -9.192388e-001
    endloop
  endfacet
  facet normal -2.789258e-002  7.469155e-001  6.643336e-001
    outer loop
      vertex -2.341101e+000  1.335910e+001 -1.131038e+000
      vertex -4.750000e+000  1.308076e+001 -9.192388e-001
      vertex -2.547196e+000  1.280912e+001 -5.213391e-001
    endloop
  endfacet
  facet normal  4.476076e-002  9.229535e-001  3.822998e-001
    outer loop
      vertex -2.547196e+000  1.280912e+001 -5.213391e-001
      vertex -4.750000e+000  1.308076e+001 -9.192388e-001
      vertex -4.750000e+000  1.270000e+001  1.591988e-016
    endloop
  endfacet
  facet normal  -0.000000e+000  9.787914e-001  2.048598e-001
    outer loop
      vertex -2.547196e+000  1.280912e+001 -5.213391e-001
      vertex -4.750000e+000  1.270000e+001  1.591988e-016
      vertex -2.600000e+000  1.270000e+001  1.591988e-016
    endloop
  endfacet
  facet normal  9.999999e-001  0.000000e+000  0.000000e+000
    outer loop
      vertex -2.750000e+000  1.700000e+001  3.600000e+000
      vertex -2.750000e+000  1.530000e+001  8.600000e+000
      vertex -2.750000e+000  1.491924e+001  7.680761e+000
    endloop
  endfacet
  facet normal  1.000000e+000  0.000000e+000  0.000000e+000
    outer loop
      vertex -2.750000e+000  1.700000e+001  3.600000e+000
      vertex -2.750000e+000  1.491924e+001  7.680761e+000
      vertex -2.750000e+000  1.400000e+001  7.300000e+000
    endloop
  endfacet
  facet normal  1.000000e+000  0.000000e+000  0.000000e+000
    outer loop
      vertex -2.750000e+000  1.100000e+001  3.600000e+000
      vertex -2.750000e+000  1.700000e+001  3.600000e+000
      vertex -2.750000e+000  1.400000e+001  7.300000e+000
    endloop
  endfacet
  facet normal  1.000000e+000  0.000000e+000  0.000000e+000
    outer loop
      vertex -2.750000e+000  1.100000e+001  3.600000e+000
      vertex -2.750000e+000  1.400000e+001  7.300000e+000
      vertex -2.750000e+000  1.308076e+001  7.680761e+000
    endloop
  endfacet
  facet normal  9.999999e-001  0.000000e+000  0.000000e+000
    outer loop
      vertex -2.750000e+000  1.100000e+001  3.600000e+000
      vertex -2.750000e+000  1.308076e+001  7.680761e+000
      vertex -2.750000e+000  1.270000e+001  8.600000e+000
    endloop
  endfacet
  facet normal  1.000000e+000  0.000000e+000  0.000000e+000
    outer loop
      vertex -2.750000e+000  1.100000e+001  1.160000e+001
      vertex -2.750000e+000  1.100000e+001  3.600000e+000
      vertex -2.750000e+000  1.270000e+001  8.600000e+000
    endloop
  endfacet
  facet normal  1.000000e+000  0.000000e+000  -0.000000e+000
    outer loop
      vertex -2.750000e+000  1.100000e+001  1.160000e+001
      vertex -2.750000e+000  1.270000e+001  8.600000e+000
      vertex -2.750000e+000  1.308076e+001  9.519238e+000
    endloop
  endfacet
  facet normal  1.000000e+000  0.000000e+000  -0.000000e+000
    outer loop
      vertex -2.750000e+000  1.100000e+001  1.160000e+001
      vertex -2.750000e+000  1.308076e+001  9.519238e+000
      vertex -2.750000e+000  1.400000e+001  9.900000e+000
    endloop
  endfacet
  facet normal  1.000000e+000  0.000000e+000  -0.000000e+000
    outer loop
      vertex -2.750000e+000  1.100000e+001  1.160000e+001
      vertex -2.750000e+000  1.400000e+001  9.900000e+000
      vertex -2.750000e+000  1.700000e+001  1.160000e+001
    endloop
  endfacet
  facet normal  1.000000e+000  -0.000000e+000  0.000000e+000
    outer loop
      vertex -2.750000e+000  1.700000e+001  1.160000e+001
      vertex -2.750000e+000  1.400000e+001  9.900000e+000
      vertex -2.750000e+000  1.491924e+001  9.519238e+000
    endloop
  endfacet
  facet normal  1.000000e+000  -0.000000e+000  0.000000e+000
    outer loop
      vertex -2.750000e+000  1.700000e+001  1.160000e+001
      vertex -2.750000e+000  1.491924e+001  9.519238e+000
      vertex -2.750000e+000  1.530000e+001  8.600000e+000
    endloop
  endfacet
  facet normal  1.000000e+000  -0.000000e+000  0.000000e+000
    outer loop
      vertex -2.750000e+000  1.700000e+001  1.160000e+001
      vertex -2.750000e+000  1.530000e+001  8.600000e+000
      vertex -2.750000e+000  1.700000e+001  3.600000e+000
    endloop
  endfacet
  facet normal -9.999999e-001  0.000000e+000  -0.000000e+000
    outer loop
      vertex  2.750000e+000  1.491924e+001  7.680761e+000
      vertex  2.750000e+000  1.530000e+001  8.600000e+000
      vertex  2.750000e+000  1.700000e+001  3.600000e+000
    endloop
  endfacet
  facet normal -1.000000e+000  0.000000e+000  -0.000000e+000
    outer loop
      vertex  2.750000e+000  1.400000e+001  7.300000e+000
      vertex  2.750000e+000  1.491924e+001  7.680761e+000
      vertex  2.750000e+000  1.700000e+001  3.600000e+000
    endloop
  endfacet
  facet normal -9.999999e-001  0.000000e+000  -0.000000e+000
    outer loop
      vertex  2.750000e+000  1.100000e+001  3.600000e+000
      vertex  2.750000e+000  1.270000e+001  8.600000e+000
      vertex  2.750000e+000  1.308076e+001  7.680761e+000
    endloop
  endfacet
  facet normal -1.000000e+000  0.000000e+000  -0.000000e+000
    outer loop
      vertex  2.750000e+000  1.100000e+001  3.600000e+000
      vertex  2.750000e+000  1.308076e+001  7.680761e+000
      vertex  2.750000e+000  1.400000e+001  7.300000e+000
    endloop
  endfacet
  facet normal -1.000000e+000  0.000000e+000  -0.000000e+000
    outer loop
      vertex  2.750000e+000  1.100000e+001  3.600000e+000
      vertex  2.750000e+000  1.400000e+001  7.300000e+000
      vertex  2.750000e+000  1.700000e+001  3.600000e+000
    endloop
  endfacet
  facet normal -1.000000e+000  -0.000000e+000  0.000000e+000
    outer loop
      vertex  2.750000e+000  1.100000e+001  1.160000e+001
      vertex  2.750000e+000  1.700000e+001  1.160000e+001
      vertex  2.750000e+000  1.400000e+001  9.900000e+000
    endloop
  endfacet
  facet normal -1.000000e+000  -0.000000e+000  0.000000e+000
    outer loop
      vertex  2.750000e+000  1.100000e+001  1.160000e+001
      vertex  2.750000e+000  1.400000e+001  9.900000e+000
      vertex  2.750000e+000  1.308076e+001  9.519238e+000
    endloop
  endfacet
  facet normal -1.000000e+000  -0.000000e+000  0.000000e+000
    outer loop
      vertex  2.750000e+000  1.100000e+001  1.160000e+001
      vertex  2.750000e+000  1.308076e+001  9.519238e+000
      vertex  2.750000e+000  1.270000e+001  8.600000e+000
    endloop
  endfacet
  facet normal -1.000000e+000  -0.000000e+000  0.000000e+000
    outer loop
      vertex  2.750000e+000  1.100000e+001  1.160000e+001
      vertex  2.750000e+000  1.270000e+001  8.600000e+000
      vertex  2.750000e+000  1.100000e+001  3.600000e+000
    endloop
  endfacet
  facet normal -1.000000e+000  0.000000e+000  0.000000e+000
    outer loop
      vertex  2.750000e+000  1.700000e+001  1.160000e+001
      vertex  2.750000e+000  1.700000e+001  3.600000e+000
      vertex  2.750000e+000  1.530000e+001  8.600000e+000
    endloop
  endfacet
  facet normal -1.000000e+000  0.000000e+000  0.000000e+000
    outer loop
      vertex  2.750000e+000  1.700000e+001  1.160000e+001
      vertex  2.750000e+000  1.530000e+001  8.600000e+000
      vertex  2.750000e+000  1.491924e+001  9.519238e+000
    endloop
  endfacet
  facet normal -1.000000e+000  0.000000e+000  0.000000e+000
    outer loop
      vertex  2.750000e+000  1.700000e+001  1.160000e+001
      vertex  2.750000e+000  1.491924e+001  9.519238e+000
      vertex  2.750000e+000  1.400000e+001  9.900000e+000
    endloop
  endfacet
  facet normal  0.000000e+000  3.826833e-001 -9.238796e-001
    outer loop
      vertex  2.750000e+000  1.400000e+001  9.900000e+000
      vertex  4.750000e+000  1.308076e+001  9.519238e+000
      vertex  2.750000e+000  1.308076e+001  9.519238e+000
    endloop
  endfacet
  facet normal  0.000000e+000  9.238794e-001 -3.826837e-001
    outer loop
      vertex  2.750000e+000  1.308076e+001  9.519238e+000
      vertex  4.750000e+000  1.308076e+001  9.519238e+000
      vertex  4.750000e+000  1.270000e+001  8.600000e+000
    endloop
  endfacet
  facet normal  0.000000e+000  9.238794e-001 -3.826837e-001
    outer loop
      vertex  2.750000e+000  1.308076e+001  9.519238e+000
      vertex  4.750000e+000  1.270000e+001  8.600000e+000
      vertex  2.750000e+000  1.270000e+001  8.600000e+000
    endloop
  endfacet
  facet normal  0.000000e+000  3.826833e-001 -9.238796e-001
    outer loop
      vertex  4.750000e+000  1.308076e+001  9.519238e+000
      vertex  2.750000e+000  1.400000e+001  9.900000e+000
      vertex  4.750000e+000  1.400000e+001  9.900000e+000
    endloop
  endfacet
  facet normal  -0.000000e+000 -3.826833e-001 -9.238796e-001
    outer loop
      vertex  4.750000e+000  1.400000e+001  9.900000e+000
      vertex  2.750000e+000  1.400000e+001  9.900000e+000
      vertex  2.750000e+000  1.491924e+001  9.519238e+000
    endloop
  endfacet
  facet normal  0.000000e+000 -3.826833e-001 -9.238796e-001
    outer loop
      vertex  4.750000e+000  1.400000e+001  9.900000e+000
      vertex  2.750000e+000  1.491924e+001  9.519238e+000
      vertex  4.750000e+000  1.491924e+001  9.519238e+000
    endloop
  endfacet
  facet normal  -0.000000e+000 -9.238794e-001 -3.826837e-001
    outer loop
      vertex  4.750000e+000  1.491924e+001  9.519238e+000
      vertex  2.750000e+000  1.491924e+001  9.519238e+000
      vertex  2.750000e+000  1.530000e+001  8.600000e+000
    endloop
  endfacet
  facet normal  0.000000e+000 -9.238794e-001 -3.826837e-001
    outer loop
      vertex  4.750000e+000  1.491924e+001  9.519238e+000
      vertex  2.750000e+000  1.530000e+001  8.600000e+000
      vertex  4.750000e+000  1.530000e+001  8.600000e+000
    endloop
  endfacet
  facet normal  0.000000e+000  3.826833e-001 -9.238796e-001
    outer loop
      vertex -4.750000e+000  1.400000e+001  9.900000e+000
      vertex -2.750000e+000  1.308076e+001  9.519238e+000
      vertex -4.750000e+000  1.308076e+001  9.519238e+000
    endloop
  endfacet
  facet normal  0.000000e+000  9.238794e-001 -3.826837e-001
    outer loop
      vertex -4.750000e+000  1.308076e+001  9.519238e+000
      vertex -2.750000e+000  1.308076e+001  9.519238e+000
      vertex -2.750000e+000  1.270000e+001  8.600000e+000
    endloop
  endfacet
  facet normal  0.000000e+000  9.238794e-001 -3.826837e-001
    outer loop
      vertex -4.750000e+000  1.308076e+001  9.519238e+000
      vertex -2.750000e+000  1.270000e+001  8.600000e+000
      vertex -4.750000e+000  1.270000e+001  8.600000e+000
    endloop
  endfacet
  facet normal  0.000000e+000  3.826833e-001 -9.238796e-001
    outer loop
      vertex -2.750000e+000  1.308076e+001  9.519238e+000
      vertex -4.750000e+000  1.400000e+001  9.900000e+000
      vertex -2.750000e+000  1.400000e+001  9.900000e+000
    endloop
  endfacet
  facet normal  -0.000000e+000 -3.826833e-001 -9.238796e-001
    outer loop
      vertex -2.750000e+000  1.400000e+001  9.900000e+000
      vertex -4.750000e+000  1.400000e+001  9.900000e+000
      vertex -4.750000e+000  1.491924e+001  9.519238e+000
    endloop
  endfacet
  facet normal  0.000000e+000 -3.826833e-001 -9.238796e-001
    outer loop
      vertex -2.750000e+000  1.400000e+001  9.900000e+000
      vertex -4.750000e+000  1.491924e+001  9.519238e+000
      vertex -2.750000e+000  1.491924e+001  9.519238e+000
    endloop
  endfacet
  facet normal  -0.000000e+000 -9.238794e-001 -3.826837e-001
    outer loop
      vertex -2.750000e+000  1.491924e+001  9.519238e+000
      vertex -4.750000e+000  1.491924e+001  9.519238e+000
      vertex -4.750000e+000  1.530000e+001  8.600000e+000
    endloop
  endfacet
  facet normal  0.000000e+000 -9.238794e-001 -3.826837e-001
    outer loop
      vertex -2.750000e+000  1.491924e+001  9.519238e+000
      vertex -4.750000e+000  1.530000e+001  8.600000e+000
      vertex -2.750000e+000  1.530000e+001  8.600000e+000
    endloop
  endfacet
  facet normal  0.000000e+000 -3.826833e-001  9.238796e-001
    outer loop
      vertex  2.750000e+000  1.400000e+001  7.300000e+000
      vertex  4.750000e+000  1.491924e+001  7.680761e+000
      vertex  2.750000e+000  1.491924e+001  7.680761e+000
    endloop
  endfacet
  facet normal  0.000000e+000 -9.238796e-001  3.826833e-001
    outer loop
      vertex  2.750000e+000  1.491924e+001  7.680761e+000
      vertex  4.750000e+000  1.491924e+001  7.680761e+000
      vertex  4.750000e+000  1.530000e+001  8.600000e+000
    endloop
  endfacet
  facet normal  0.000000e+000 -9.238796e-001  3.826833e-001
    outer loop
      vertex  2.750000e+000  1.491924e+001  7.680761e+000
      vertex  4.750000e+000  1.530000e+001  8.600000e+000
      vertex  2.750000e+000  1.530000e+001  8.600000e+000
    endloop
  endfacet
  facet normal  0.000000e+000 -3.826833e-001  9.238796e-001
    outer loop
      vertex  4.750000e+000  1.491924e+001  7.680761e+000
      vertex  2.750000e+000  1.400000e+001  7.300000e+000
      vertex  4.750000e+000  1.400000e+001  7.300000e+000
    endloop
  endfacet
  facet normal  0.000000e+000  3.826833e-001  9.238796e-001
    outer loop
      vertex  4.750000e+000  1.400000e+001  7.300000e+000
      vertex  2.750000e+000  1.400000e+001  7.300000e+000
      vertex  2.750000e+000  1.308076e+001  7.680761e+000
    endloop
  endfacet
  facet normal  -0.000000e+000  3.826833e-001  9.238796e-001
    outer loop
      vertex  4.750000e+000  1.400000e+001  7.300000e+000
      vertex  2.750000e+000  1.308076e+001  7.680761e+000
      vertex  4.750000e+000  1.308076e+001  7.680761e+000
    endloop
  endfacet
  facet normal  0.000000e+000  9.238796e-001  3.826833e-001
    outer loop
      vertex  4.750000e+000  1.308076e+001  7.680761e+000
      vertex  2.750000e+000  1.308076e+001  7.680761e+000
      vertex  2.750000e+000  1.270000e+001  8.600000e+000
    endloop
  endfacet
  facet normal  -0.000000e+000  9.238796e-001  3.826833e-001
    outer loop
      vertex  4.750000e+000  1.308076e+001  7.680761e+000
      vertex  2.750000e+000  1.270000e+001  8.600000e+000
      vertex  4.750000e+000  1.270000e+001  8.600000e+000
    endloop
  endfacet
  facet normal  0.000000e+000 -3.826833e-001  9.238796e-001
    outer loop
      vertex -4.750000e+000  1.400000e+001  7.300000e+000
      vertex -2.750000e+000  1.491924e+001  7.680761e+000
      vertex -4.750000e+000  1.491924e+001  7.680761e+000
    endloop
  endfacet
  facet normal  0.000000e+000 -9.238796e-001  3.826833e-001
    outer loop
      vertex -4.750000e+000  1.491924e+001  7.680761e+000
      vertex -2.750000e+000  1.491924e+001  7.680761e+000
      vertex -2.750000e+000  1.530000e+001  8.600000e+000
    endloop
  endfacet
  facet normal  0.000000e+000 -9.238796e-001  3.826833e-001
    outer loop
      vertex -4.750000e+000  1.491924e+001  7.680761e+000
      vertex -2.750000e+000  1.530000e+001  8.600000e+000
      vertex -4.750000e+000  1.530000e+001  8.600000e+000
    endloop
  endfacet
  facet normal  0.000000e+000 -3.826833e-001  9.238796e-001
    outer loop
      vertex -2.750000e+000  1.491924e+001  7.680761e+000
      vertex -4.750000e+000  1.400000e+001  7.300000e+000
      vertex -2.750000e+000  1.400000e+001  7.300000e+000
    endloop
  endfacet
  facet normal  0.000000e+000  3.826833e-001  9.238796e-001
    outer loop
      vertex -2.750000e+000  1.400000e+001  7.300000e+000
      vertex -4.750000e+000  1.400000e+001  7.300000e+000
      vertex -4.750000e+000  1.308076e+001  7.680761e+000
    endloop
  endfacet
  facet normal  -0.000000e+000  3.826833e-001  9.238796e-001
    outer loop
      vertex -2.750000e+000  1.400000e+001  7.300000e+000
      vertex -4.750000e+000  1.308076e+001  7.680761e+000
      vertex -2.750000e+000  1.308076e+001  7.680761e+000
    endloop
  endfacet
  facet normal  0.000000e+000  9.238796e-001  3.826833e-001
    outer loop
      vertex -2.750000e+000  1.308076e+001  7.680761e+000
      vertex -4.750000e+000  1.308076e+001  7.680761e+000
      vertex -4.750000e+000  1.270000e+001  8.600000e+000
    endloop
  endfacet
  facet normal  -0.000000e+000  9.238796e-001  3.826833e-001
    outer loop
      vertex -2.750000e+000  1.308076e+001  7.680761e+000
      vertex -4.750000e+000  1.270000e+001  8.600000e+000
      vertex -2.750000e+000  1.270000e+001  8.600000e+000
    endloop
  endfacet
  facet normal  0.000000e+000  1.000000e+000  -0.000000e+000
    outer loop
      vertex  2.750000e+000  1.700000e+001  3.600000e+000
      vertex  2.103444e+000  1.700000e+001  1.528242e+000
      vertex  8.034442e-001  1.700000e+001  2.472747e+000
    endloop
  endfacet
  facet normal  0.000000e+000  1.000000e+000  -0.000000e+000
    outer loop
      vertex  2.750000e+000  1.700000e+001  3.600000e+000
      vertex  8.034442e-001  1.700000e+001  2.472747e+000
      vertex -8.034442e-001  1.700000e+001  2.472747e+000
    endloop
  endfacet
  facet normal  0.000000e+000  1.000000e+000  0.000000e+000
    outer loop
      vertex -2.750000e+000  1.700000e+001  3.600000e+000
      vertex  2.750000e+000  1.700000e+001  3.600000e+000
      vertex -8.034442e-001  1.700000e+001  2.472747e+000
    endloop
  endfacet
  facet normal  0.000000e+000  1.000000e+000  0.000000e+000
    outer loop
      vertex -2.750000e+000  1.700000e+001  3.600000e+000
      vertex -8.034442e-001  1.700000e+001  2.472747e+000
      vertex -2.103444e+000  1.700000e+001  1.528242e+000
    endloop
  endfacet
  facet normal  0.000000e+000  1.000000e+000  0.000000e+000
    outer loop
      vertex -2.750000e+000  1.700000e+001  3.600000e+000
      vertex -2.103444e+000  1.700000e+001  1.528242e+000
      vertex -4.750000e+000  1.700000e+001 -3.600000e+000
    endloop
  endfacet
  facet normal  0.000000e+000  1.000000e+000  0.000000e+000
    outer loop
      vertex -2.750000e+000  1.700000e+001  3.600000e+000
      vertex -4.750000e+000  1.700000e+001 -3.600000e+000
      vertex -4.750000e+000  1.700000e+001  1.160000e+001
    endloop
  endfacet
  facet normal  -0.000000e+000  1.000000e+000  0.000000e+000
    outer loop
      vertex -2.750000e+000  1.700000e+001  3.600000e+000
      vertex -4.750000e+000  1.700000e+001  1.160000e+001
      vertex -2.750000e+000  1.700000e+001  1.160000e+001
    endloop
  endfacet
  facet normal  0.000000e+000  1.000000e+000  0.000000e+000
    outer loop
      vertex  4.750000e+000  1.700000e+001 -3.600000e+000
      vertex -4.750000e+000  1.700000e+001 -3.600000e+000
      vertex -8.034442e-001  1.700000e+001 -2.472747e+000
    endloop
  endfacet
  facet normal  -0.000000e+000  1.000000e+000  0.000000e+000
    outer loop
      vertex  4.750000e+000  1.700000e+001 -3.600000e+000
      vertex -8.034442e-001  1.700000e+001 -2.472747e+000
      vertex  8.034442e-001  1.700000e+001 -2.472747e+000
    endloop
  endfacet
  facet normal  -0.000000e+000  9.999999e-001  0.000000e+000
    outer loop
      vertex  4.750000e+000  1.700000e+001 -3.600000e+000
      vertex  8.034442e-001  1.700000e+001 -2.472747e+000
      vertex  2.103444e+000  1.700000e+001 -1.528242e+000
    endloop
  endfacet
  facet normal  -0.000000e+000  1.000000e+000  0.000000e+000
    outer loop
      vertex  4.750000e+000  1.700000e+001 -3.600000e+000
      vertex  2.103444e+000  1.700000e+001 -1.528242e+000
      vertex  2.600000e+000  1.700000e+001  3.183976e-016
    endloop
  endfacet
  facet normal  -0.000000e+000  1.000000e+000  -0.000000e+000
    outer loop
      vertex  4.750000e+000  1.700000e+001 -3.600000e+000
      vertex  2.600000e+000  1.700000e+001  3.183976e-016
      vertex  2.103444e+000  1.700000e+001  1.528242e+000
    endloop
  endfacet
  facet normal  -0.000000e+000  1.000000e+000  0.000000e+000
    outer loop
      vertex  4.750000e+000  1.700000e+001 -3.600000e+000
      vertex  2.103444e+000  1.700000e+001  1.528242e+000
      vertex  2.750000e+000  1.700000e+001  3.600000e+000
    endloop
  endfacet
  facet normal  -0.000000e+000  1.000000e+000  0.000000e+000
    outer loop
      vertex  4.750000e+000  1.700000e+001 -3.600000e+000
      vertex  2.750000e+000  1.700000e+001  3.600000e+000
      vertex  2.750000e+000  1.700000e+001  1.160000e+001
    endloop
  endfacet
  facet normal  -0.000000e+000  1.000000e+000  0.000000e+000
    outer loop
      vertex  4.750000e+000  1.700000e+001 -3.600000e+000
      vertex  2.750000e+000  1.700000e+001  1.160000e+001
      vertex  4.750000e+000  1.700000e+001  1.160000e+001
    endloop
  endfacet
  facet normal  0.000000e+000  1.000000e+000  0.000000e+000
    outer loop
      vertex -4.750000e+000  1.700000e+001 -3.600000e+000
      vertex -2.103444e+000  1.700000e+001  1.528242e+000
      vertex -2.600000e+000  1.700000e+001  0.000000e+000
    endloop
  endfacet
  facet normal  0.000000e+000  1.000000e+000  0.000000e+000
    outer loop
      vertex -4.750000e+000  1.700000e+001 -3.600000e+000
      vertex -2.600000e+000  1.700000e+001  0.000000e+000
      vertex -2.103444e+000  1.700000e+001 -1.528242e+000
    endloop
  endfacet
  facet normal  0.000000e+000  9.999999e-001  0.000000e+000
    outer loop
      vertex -4.750000e+000  1.700000e+001 -3.600000e+000
      vertex -2.103444e+000  1.700000e+001 -1.528242e+000
      vertex -8.034442e-001  1.700000e+001 -2.472747e+000
    endloop
  endfacet
  facet normal  0.000000e+000  0.000000e+000 -1.000000e+000
    outer loop
      vertex  4.750000e+000  1.700000e+001 -3.600000e+000
      vertex  4.750000e+000  1.100000e+001 -3.600000e+000
      vertex  3.600000e+000  1.100000e+001 -3.600000e+000
    endloop
  endfacet
  facet normal  0.000000e+000  0.000000e+000 -1.000000e+000
    outer loop
      vertex  4.750000e+000  1.700000e+001 -3.600000e+000
      vertex  3.600000e+000  1.100000e+001 -3.600000e+000
      vertex -3.600000e+000  1.100000e+001 -3.600000e+000
    endloop
  endfacet
  facet normal  0.000000e+000  0.000000e+000 -1.000000e+000
    outer loop
      vertex  4.750000e+000  1.700000e+001 -3.600000e+000
      vertex -3.600000e+000  1.100000e+001 -3.600000e+000
      vertex -4.750000e+000  1.100000e+001 -3.600000e+000
    endloop
  endfacet
  facet normal  0.000000e+000  0.000000e+000 -1.000000e+000
    outer loop
      vertex  4.750000e+000  1.700000e+001 -3.600000e+000
      vertex -4.750000e+000  1.100000e+001 -3.600000e+000
      vertex -4.750000e+000  1.700000e+001 -3.600000e+000
    endloop
  endfacet
  facet normal  0.000000e+000  0.000000e+000 -1.000000e+000
    outer loop
      vertex -3.600000e+000  0.000000e+000 -3.600000e+000
      vertex -3.600000e+000  1.100000e+001 -3.600000e+000
      vertex  3.600000e+000  0.000000e+000 -3.600000e+000
    endloop
  endfacet
  facet normal  0.000000e+000  0.000000e+000 -1.000000e+000
    outer loop
      vertex  3.600000e+000  0.000000e+000 -3.600000e+000
      vertex -3.600000e+000  1.100000e+001 -3.600000e+000
      vertex  3.600000e+000  1.100000e+001 -3.600000e+000
    endloop
  endfacet
  facet normal  0.000000e+000 -1.000000e+000  -0.000000e+000
    outer loop
      vertex  4.750000e+000  1.100000e+001 -3.600000e+000
      vertex  4.750000e+000  1.100000e+001  1.160000e+001
      vertex  3.600000e+000  1.100000e+001 -3.600000e+000
    endloop
  endfacet
  facet normal  0.000000e+000 -1.000000e+000  0.000000e+000
    outer loop
      vertex  3.600000e+000  1.100000e+001 -3.600000e+000
      vertex  4.750000e+000  1.100000e+001  1.160000e+001
      vertex  3.600000e+000  1.100000e+001  3.600000e+000
    endloop
  endfacet
  facet normal  0.000000e+000 -1.000000e+000  0.000000e+000
    outer loop
      vertex  4.750000e+000  1.100000e+001  1.160000e+001
      vertex  2.750000e+000  1.100000e+001  1.160000e+001
      vertex  3.600000e+000  1.100000e+001  3.600000e+000
    endloop
  endfacet
  facet normal  0.000000e+000 -1.000000e+000  0.000000e+000
    outer loop
      vertex  3.600000e+000  1.100000e+001  3.600000e+000
      vertex  2.750000e+000  1.100000e+001  1.160000e+001
      vertex  2.750000e+000  1.100000e+001  3.600000e+000
    endloop
  endfacet
  facet normal  0.000000e+000 -1.000000e+000  0.000000e+000
    outer loop
      vertex -2.750000e+000  1.100000e+001  1.160000e+001
      vertex -4.750000e+000  1.100000e+001  1.160000e+001
      vertex -2.750000e+000  1.100000e+001  3.600000e+000
    endloop
  endfacet
  facet normal  0.000000e+000 -1.000000e+000  0.000000e+000
    outer loop
      vertex -2.750000e+000  1.100000e+001  3.600000e+000
      vertex -4.750000e+000  1.100000e+001  1.160000e+001
      vertex -3.600000e+000  1.100000e+001  3.600000e+000
    endloop
  endfacet
  facet normal  0.000000e+000 -1.000000e+000  0.000000e+000
    outer loop
      vertex -4.750000e+000  1.100000e+001  1.160000e+001
      vertex -4.750000e+000  1.100000e+001 -3.600000e+000
      vertex -3.600000e+000  1.100000e+001  3.600000e+000
    endloop
  endfacet
  facet normal  0.000000e+000 -1.000000e+000  -0.000000e+000
    outer loop
      vertex -3.600000e+000  1.100000e+001  3.600000e+000
      vertex -4.750000e+000  1.100000e+001 -3.600000e+000
      vertex -3.600000e+000  1.100000e+001 -3.600000e+000
    endloop
  endfacet
  facet normal  1.000000e+000  0.000000e+000  0.000000e+000
    outer loop
      vertex  3.600000e+000  0.000000e+000  3.600000e+000
      vertex  3.600000e+000  0.000000e+000 -3.600000e+000
      vertex  3.600000e+000  1.100000e+001  3.600000e+000
    endloop
  endfacet
  facet normal  1.000000e+000  0.000000e+000  0.000000e+000
    outer loop
      vertex  3.600000e+000  1.100000e+001  3.600000e+000
      vertex  3.600000e+000  0.000000e+000 -3.600000e+000
      vertex  3.600000e+000  1.100000e+001 -3.600000e+000
    endloop
  endfacet
  facet normal -1.000000e+000  0.000000e+000  0.000000e+000
    outer loop
      vertex -3.600000e+000  0.000000e+000 -3.600000e+000
      vertex -3.600000e+000  0.000000e+000  3.600000e+000
      vertex -3.600000e+000  1.100000e+001 -3.600000e+000
    endloop
  endfacet
  facet normal -1.000000e+000  0.000000e+000  0.000000e+000
    outer loop
      vertex -3.600000e+000  1.100000e+001 -3.600000e+000
      vertex -3.600000e+000  0.000000e+000  3.600000e+000
      vertex -3.600000e+000  1.100000e+001  3.600000e+000
    endloop
  endfacet
  facet normal  0.000000e+000  0.000000e+000  1.000000e+000
    outer loop
      vertex  3.600000e+000  0.000000e+000  3.600000e+000
      vertex  3.600000e+000  1.100000e+001  3.600000e+000
      vertex  2.750000e+000  1.100000e+001  3.600000e+000
    endloop
  endfacet
  facet normal  0.000000e+000  0.000000e+000  9.999999e-001
    outer loop
      vertex  3.600000e+000  0.000000e+000  3.600000e+000
      vertex  2.750000e+000  1.100000e+001  3.600000e+000
      vertex -2.750000e+000  1.100000e+001  3.600000e+000
    endloop
  endfacet
  facet normal  0.000000e+000  0.000000e+000  1.000000e+000
    outer loop
      vertex  3.600000e+000  0.000000e+000  3.600000e+000
      vertex -2.750000e+000  1.100000e+001  3.600000e+000
      vertex -3.600000e+000  1.100000e+001  3.600000e+000
    endloop
  endfacet
  facet normal  0.000000e+000  0.000000e+000  1.000000e+000
    outer loop
      vertex  3.600000e+000  0.000000e+000  3.600000e+000
      vertex -3.600000e+000  1.100000e+001  3.600000e+000
      vertex -3.600000e+000  0.000000e+000  3.600000e+000
    endloop
  endfacet
  facet normal  0.000000e+000  0.000000e+000  1.000000e+000
    outer loop
      vertex  2.750000e+000  1.100000e+001  3.600000e+000
      vertex  2.750000e+000  1.700000e+001  3.600000e+000
      vertex -2.750000e+000  1.100000e+001  3.600000e+000
    endloop
  endfacet
  facet normal  0.000000e+000  0.000000e+000  1.000000e+000
    outer loop
      vertex -2.750000e+000  1.100000e+001  3.600000e+000
      vertex  2.750000e+000  1.700000e+001  3.600000e+000
      vertex -2.750000e+000  1.700000e+001  3.600000e+000
    endloop
  endfacet
  facet normal  0.000000e+000  0.000000e+000  1.000000e+000
    outer loop
      vertex -4.750000e+000  1.100000e+001  1.160000e+001
      vertex -2.750000e+000  1.100000e+001  1.160000e+001
      vertex -4.750000e+000  1.700000e+001  1.160000e+001
    endloop
  endfacet
  facet normal  -0.000000e+000  0.000000e+000  1.000000e+000
    outer loop
      vertex -4.750000e+000  1.700000e+001  1.160000e+001
      vertex -2.750000e+000  1.100000e+001  1.160000e+001
      vertex -2.750000e+000  1.700000e+001  1.160000e+001
    endloop
  endfacet
  facet normal  0.000000e+000  0.000000e+000  1.000000e+000
    outer loop
      vertex  2.750000e+000  1.100000e+001  1.160000e+001
      vertex  4.750000e+000  1.100000e+001  1.160000e+001
      vertex  2.750000e+000  1.700000e+001  1.160000e+001
    endloop
  endfacet
  facet normal  -0.000000e+000  0.000000e+000  1.000000e+000
    outer loop
      vertex  2.750000e+000  1.700000e+001  1.160000e+001
      vertex  4.750000e+000  1.100000e+001  1.160000e+001
      vertex  4.750000e+000  1.700000e+001  1.160000e+001
    endloop
  endfacet
  facet normal  0.000000e+000 -1.000000e+000  0.000000e+000
    outer loop
      vertex  2.103444e+000  0.000000e+000 -1.528242e+000
      vertex  8.034442e-001  0.000000e+000 -2.472747e+000
      vertex  3.600000e+000  0.000000e+000 -3.600000e+000
    endloop
  endfacet
  facet normal  0.000000e+000 -1.000000e+000  0.000000e+000
    outer loop
      vertex  2.600000e+000  0.000000e+000  3.183976e-016
      vertex  2.103444e+000  0.000000e+000 -1.528242e+000
      vertex  3.600000e+000  0.000000e+000 -3.600000e+000
    endloop
  endfacet
  facet normal  0.000000e+000 -1.000000e+000  0.000000e+000
    outer loop
      vertex -3.600000e+000  0.000000e+000 -3.600000e+000
      vertex  3.600000e+000  0.000000e+000 -3.600000e+000
      vertex  8.034442e-001  0.000000e+000 -2.472747e+000
    endloop
  endfacet
  facet normal  -0.000000e+000 -1.000000e+000  0.000000e+000
    outer loop
      vertex -3.600000e+000  0.000000e+000 -3.600000e+000
      vertex  8.034442e-001  0.000000e+000 -2.472747e+000
      vertex -8.034442e-001  0.000000e+000 -2.472747e+000
    endloop
  endfacet
  facet normal  -0.000000e+000 -1.000000e+000  0.000000e+000
    outer loop
      vertex -3.600000e+000  0.000000e+000 -3.600000e+000
      vertex -8.034442e-001  0.000000e+000 -2.472747e+000
      vertex -2.103444e+000  0.000000e+000 -1.528242e+000
    endloop
  endfacet
  facet normal  -0.000000e+000 -1.000000e+000  0.000000e+000
    outer loop
      vertex -3.600000e+000  0.000000e+000 -3.600000e+000
      vertex -2.103444e+000  0.000000e+000 -1.528242e+000
      vertex -2.600000e+000  0.000000e+000  0.000000e+000
    endloop
  endfacet
  facet normal  0.000000e+000 -1.000000e+000  0.000000e+000
    outer loop
      vertex  3.600000e+000  0.000000e+000  3.600000e+000
      vertex -3.600000e+000  0.000000e+000  3.600000e+000
      vertex -8.034442e-001  0.000000e+000  2.472747e+000
    endloop
  endfacet
  facet normal  0.000000e+000 -1.000000e+000  0.000000e+000
    outer loop
      vertex  3.600000e+000  0.000000e+000  3.600000e+000
      vertex -8.034442e-001  0.000000e+000  2.472747e+000
      vertex  8.034442e-001  0.000000e+000  2.472747e+000
    endloop
  endfacet
  facet normal  0.000000e+000 -1.000000e+000  0.000000e+000
    outer loop
      vertex  3.600000e+000  0.000000e+000  3.600000e+000
      vertex  8.034442e-001  0.000000e+000  2.472747e+000
      vertex  2.103444e+000  0.000000e+000  1.528242e+000
    endloop
  endfacet
  facet normal  0.000000e+000 -1.000000e+000  0.000000e+000
    outer loop
      vertex  3.600000e+000  0.000000e+000  3.600000e+000
      vertex  2.103444e+000  0.000000e+000  1.528242e+000
      vertex  2.600000e+000  0.000000e+000  3.183976e-016
    endloop
  endfacet
  facet normal  0.000000e+000 -1.000000e+000  0.000000e+000
    outer loop
      vertex  3.600000e+000  0.000000e+000  3.600000e+000
      vertex  2.600000e+000  0.000000e+000  3.183976e-016
      vertex  3.600000e+000  0.000000e+000 -3.600000e+000
    endloop
  endfacet
  facet normal  0.000000e+000 -1.000000e+000  0.000000e+000
    outer loop
      vertex -3.600000e+000  0.000000e+000  3.600000e+000
      vertex -3.600000e+000  0.000000e+000 -3.600000e+000
      vertex -2.600000e+000  0.000000e+000  0.000000e+000
    endloop
  endfacet
  facet normal  0.000000e+000 -1.000000e+000  0.000000e+000
    outer loop
      vertex -3.600000e+000  0.000000e+000  3.600000e+000
      vertex -2.600000e+000  0.000000e+000  0.000000e+000
      vertex -2.103444e+000  0.000000e+000  1.528242e+000
    endloop
  endfacet
  facet normal  0.000000e+000 -1.000000e+000  0.000000e+000
    outer loop
      vertex -3.600000e+000  0.000000e+000  3.600000e+000
      vertex -2.103444e+000  0.000000e+000  1.528242e+000
      vertex -8.034442e-001  0.000000e+000  2.472747e+000
    endloop
  endfacet
endsolid CATIA STL
