solid CATIA STL
  facet normal  7.302846e-001  6.785991e-001 -7.866234e-002
    outer loop
      vertex  2.193956e+000  2.450000e+001 -1.198564e+000
      vertex  2.117829e+000  2.479289e+001  6.213878e-001
      vertex  2.398874e+000  2.450000e+001  7.038488e-001
    endloop
  endfacet
  facet normal  5.720117e-001  6.785992e-001  4.607665e-001
    outer loop
      vertex  2.398874e+000  2.450000e+001  7.038488e-001
      vertex  2.117829e+000  2.479289e+001  6.213878e-001
      vertex  1.058143e+000  2.479289e+001  1.936918e+000
    endloop
  endfacet
  facet normal  5.720116e-001  6.785992e-001  4.607664e-001
    outer loop
      vertex  2.398874e+000  2.450000e+001  7.038488e-001
      vertex  1.058143e+000  2.479289e+001  1.936918e+000
      vertex  1.198564e+000  2.450000e+001  2.193956e+000
    endloop
  endfacet
  facet normal  7.302844e-001  6.785994e-001 -7.866238e-002
    outer loop
      vertex  2.117829e+000  2.479289e+001  6.213878e-001
      vertex  2.193956e+000  2.450000e+001 -1.198564e+000
      vertex  1.936918e+000  2.479289e+001 -1.058143e+000
    endloop
  endfacet
  facet normal  4.607664e-001  6.785992e-001 -5.720116e-001
    outer loop
      vertex  1.936918e+000  2.479289e+001 -1.058143e+000
      vertex  2.193956e+000  2.450000e+001 -1.198564e+000
      vertex  7.038488e-001  2.450000e+001 -2.398874e+000
    endloop
  endfacet
  facet normal  4.607665e-001  6.785992e-001 -5.720117e-001
    outer loop
      vertex  1.936918e+000  2.479289e+001 -1.058143e+000
      vertex  7.038488e-001  2.450000e+001 -2.398874e+000
      vertex  6.213878e-001  2.479289e+001 -2.117829e+000
    endloop
  endfacet
  facet normal -7.866234e-002  6.785991e-001 -7.302846e-001
    outer loop
      vertex  6.213878e-001  2.479289e+001 -2.117829e+000
      vertex  7.038488e-001  2.450000e+001 -2.398874e+000
      vertex -1.198564e+000  2.450000e+001 -2.193956e+000
    endloop
  endfacet
  facet normal -7.866238e-002  6.785994e-001 -7.302844e-001
    outer loop
      vertex  6.213878e-001  2.479289e+001 -2.117829e+000
      vertex -1.198564e+000  2.450000e+001 -2.193956e+000
      vertex -1.058143e+000  2.479289e+001 -1.936918e+000
    endloop
  endfacet
  facet normal -7.302846e-001  6.785991e-001  7.866234e-002
    outer loop
      vertex -2.193956e+000  2.450000e+001  1.198564e+000
      vertex -2.117829e+000  2.479289e+001 -6.213878e-001
      vertex -2.398874e+000  2.450000e+001 -7.038488e-001
    endloop
  endfacet
  facet normal -5.720117e-001  6.785992e-001 -4.607665e-001
    outer loop
      vertex -2.398874e+000  2.450000e+001 -7.038488e-001
      vertex -2.117829e+000  2.479289e+001 -6.213878e-001
      vertex -1.058143e+000  2.479289e+001 -1.936918e+000
    endloop
  endfacet
  facet normal -5.720116e-001  6.785992e-001 -4.607664e-001
    outer loop
      vertex -2.398874e+000  2.450000e+001 -7.038488e-001
      vertex -1.058143e+000  2.479289e+001 -1.936918e+000
      vertex -1.198564e+000  2.450000e+001 -2.193956e+000
    endloop
  endfacet
  facet normal -7.302844e-001  6.785994e-001  7.866238e-002
    outer loop
      vertex -2.117829e+000  2.479289e+001 -6.213878e-001
      vertex -2.193956e+000  2.450000e+001  1.198564e+000
      vertex -1.936918e+000  2.479289e+001  1.058143e+000
    endloop
  endfacet
  facet normal -4.607664e-001  6.785992e-001  5.720116e-001
    outer loop
      vertex -1.936918e+000  2.479289e+001  1.058143e+000
      vertex -2.193956e+000  2.450000e+001  1.198564e+000
      vertex -7.038488e-001  2.450000e+001  2.398874e+000
    endloop
  endfacet
  facet normal -4.607665e-001  6.785992e-001  5.720117e-001
    outer loop
      vertex -1.936918e+000  2.479289e+001  1.058143e+000
      vertex -7.038488e-001  2.450000e+001  2.398874e+000
      vertex -6.213878e-001  2.479289e+001  2.117829e+000
    endloop
  endfacet
  facet normal  7.866234e-002  6.785991e-001  7.302846e-001
    outer loop
      vertex -6.213878e-001  2.479289e+001  2.117829e+000
      vertex -7.038488e-001  2.450000e+001  2.398874e+000
      vertex  1.198564e+000  2.450000e+001  2.193956e+000
    endloop
  endfacet
  facet normal  7.866238e-002  6.785994e-001  7.302844e-001
    outer loop
      vertex -6.213878e-001  2.479289e+001  2.117829e+000
      vertex  1.198564e+000  2.450000e+001  2.193956e+000
      vertex  1.058143e+000  2.479289e+001  1.936918e+000
    endloop
  endfacet
  facet normal -6.273124e-001  0.000000e+000  7.787677e-001
    outer loop
      vertex  1.316374e+000  2.250000e+001 -7.191383e-001
      vertex  4.223093e-001  2.479289e+001 -1.439324e+000
      vertex  4.223093e-001  2.250000e+001 -1.439324e+000
    endloop
  endfacet
  facet normal  1.070952e-001  -0.000000e+000  9.942487e-001
    outer loop
      vertex  4.223093e-001  2.250000e+001 -1.439324e+000
      vertex  4.223093e-001  2.479289e+001 -1.439324e+000
      vertex -7.191383e-001  2.479289e+001 -1.316374e+000
    endloop
  endfacet
  facet normal  1.070952e-001  0.000000e+000  9.942487e-001
    outer loop
      vertex  4.223093e-001  2.250000e+001 -1.439324e+000
      vertex -7.191383e-001  2.479289e+001 -1.316374e+000
      vertex -7.191383e-001  2.250000e+001 -1.316374e+000
    endloop
  endfacet
  facet normal -6.273124e-001  0.000000e+000  7.787677e-001
    outer loop
      vertex  4.223093e-001  2.479289e+001 -1.439324e+000
      vertex  1.316374e+000  2.250000e+001 -7.191383e-001
      vertex  1.316374e+000  2.479289e+001 -7.191383e-001
    endloop
  endfacet
  facet normal -9.942487e-001  0.000000e+000  1.070952e-001
    outer loop
      vertex  1.316374e+000  2.479289e+001 -7.191383e-001
      vertex  1.316374e+000  2.250000e+001 -7.191383e-001
      vertex  1.439324e+000  2.250000e+001  4.223093e-001
    endloop
  endfacet
  facet normal -9.942487e-001  0.000000e+000  1.070952e-001
    outer loop
      vertex  1.316374e+000  2.479289e+001 -7.191383e-001
      vertex  1.439324e+000  2.250000e+001  4.223093e-001
      vertex  1.439324e+000  2.479289e+001  4.223093e-001
    endloop
  endfacet
  facet normal -7.787677e-001  -0.000000e+000 -6.273124e-001
    outer loop
      vertex  1.439324e+000  2.479289e+001  4.223093e-001
      vertex  1.439324e+000  2.250000e+001  4.223093e-001
      vertex  7.191383e-001  2.250000e+001  1.316374e+000
    endloop
  endfacet
  facet normal -7.787677e-001  0.000000e+000 -6.273124e-001
    outer loop
      vertex  1.439324e+000  2.479289e+001  4.223093e-001
      vertex  7.191383e-001  2.250000e+001  1.316374e+000
      vertex  7.191383e-001  2.479289e+001  1.316374e+000
    endloop
  endfacet
  facet normal  6.273124e-001  0.000000e+000 -7.787677e-001
    outer loop
      vertex -1.316374e+000  2.250000e+001  7.191383e-001
      vertex -4.223093e-001  2.479289e+001  1.439324e+000
      vertex -4.223093e-001  2.250000e+001  1.439324e+000
    endloop
  endfacet
  facet normal -1.070952e-001  0.000000e+000 -9.942487e-001
    outer loop
      vertex -4.223093e-001  2.250000e+001  1.439324e+000
      vertex -4.223093e-001  2.479289e+001  1.439324e+000
      vertex  7.191383e-001  2.479289e+001  1.316374e+000
    endloop
  endfacet
  facet normal -1.070952e-001  -0.000000e+000 -9.942487e-001
    outer loop
      vertex -4.223093e-001  2.250000e+001  1.439324e+000
      vertex  7.191383e-001  2.479289e+001  1.316374e+000
      vertex  7.191383e-001  2.250000e+001  1.316374e+000
    endloop
  endfacet
  facet normal  6.273124e-001  0.000000e+000 -7.787677e-001
    outer loop
      vertex -4.223093e-001  2.479289e+001  1.439324e+000
      vertex -1.316374e+000  2.250000e+001  7.191383e-001
      vertex -1.316374e+000  2.479289e+001  7.191383e-001
    endloop
  endfacet
  facet normal  9.942487e-001  0.000000e+000 -1.070952e-001
    outer loop
      vertex -1.316374e+000  2.479289e+001  7.191383e-001
      vertex -1.316374e+000  2.250000e+001  7.191383e-001
      vertex -1.439324e+000  2.250000e+001 -4.223093e-001
    endloop
  endfacet
  facet normal  9.942487e-001  0.000000e+000 -1.070952e-001
    outer loop
      vertex -1.316374e+000  2.479289e+001  7.191383e-001
      vertex -1.439324e+000  2.250000e+001 -4.223093e-001
      vertex -1.439324e+000  2.479289e+001 -4.223093e-001
    endloop
  endfacet
  facet normal  7.787677e-001  0.000000e+000  6.273124e-001
    outer loop
      vertex -1.439324e+000  2.479289e+001 -4.223093e-001
      vertex -1.439324e+000  2.250000e+001 -4.223093e-001
      vertex -7.191383e-001  2.250000e+001 -1.316374e+000
    endloop
  endfacet
  facet normal  7.787677e-001  -0.000000e+000  6.273124e-001
    outer loop
      vertex -1.439324e+000  2.479289e+001 -4.223093e-001
      vertex -7.191383e-001  2.250000e+001 -1.316374e+000
      vertex -7.191383e-001  2.479289e+001 -1.316374e+000
    endloop
  endfacet
  facet normal  0.000000e+000  1.000000e+000  0.000000e+000
    outer loop
      vertex -1.936918e+000  2.479289e+001  1.058143e+000
      vertex -1.439324e+000  2.479289e+001 -4.223093e-001
      vertex -2.117829e+000  2.479289e+001 -6.213878e-001
    endloop
  endfacet
  facet normal  -0.000000e+000  1.000000e+000  0.000000e+000
    outer loop
      vertex -2.117829e+000  2.479289e+001 -6.213878e-001
      vertex -1.439324e+000  2.479289e+001 -4.223093e-001
      vertex -7.191383e-001  2.479289e+001 -1.316374e+000
    endloop
  endfacet
  facet normal  0.000000e+000  1.000000e+000  0.000000e+000
    outer loop
      vertex -2.117829e+000  2.479289e+001 -6.213878e-001
      vertex -7.191383e-001  2.479289e+001 -1.316374e+000
      vertex -1.058143e+000  2.479289e+001 -1.936918e+000
    endloop
  endfacet
  facet normal  0.000000e+000  1.000000e+000  0.000000e+000
    outer loop
      vertex -1.439324e+000  2.479289e+001 -4.223093e-001
      vertex -1.936918e+000  2.479289e+001  1.058143e+000
      vertex -1.316374e+000  2.479289e+001  7.191383e-001
    endloop
  endfacet
  facet normal  0.000000e+000  1.000000e+000  -0.000000e+000
    outer loop
      vertex -1.316374e+000  2.479289e+001  7.191383e-001
      vertex -1.936918e+000  2.479289e+001  1.058143e+000
      vertex -6.213878e-001  2.479289e+001  2.117829e+000
    endloop
  endfacet
  facet normal  0.000000e+000  1.000000e+000  0.000000e+000
    outer loop
      vertex -1.316374e+000  2.479289e+001  7.191383e-001
      vertex -6.213878e-001  2.479289e+001  2.117829e+000
      vertex -4.223093e-001  2.479289e+001  1.439324e+000
    endloop
  endfacet
  facet normal  0.000000e+000  1.000000e+000  -0.000000e+000
    outer loop
      vertex -4.223093e-001  2.479289e+001  1.439324e+000
      vertex -6.213878e-001  2.479289e+001  2.117829e+000
      vertex  1.058143e+000  2.479289e+001  1.936918e+000
    endloop
  endfacet
  facet normal  0.000000e+000  1.000000e+000  0.000000e+000
    outer loop
      vertex -4.223093e-001  2.479289e+001  1.439324e+000
      vertex  1.058143e+000  2.479289e+001  1.936918e+000
      vertex  7.191383e-001  2.479289e+001  1.316374e+000
    endloop
  endfacet
  facet normal  -0.000000e+000  1.000000e+000  0.000000e+000
    outer loop
      vertex  1.936918e+000  2.479289e+001 -1.058143e+000
      vertex  1.439324e+000  2.479289e+001  4.223093e-001
      vertex  2.117829e+000  2.479289e+001  6.213878e-001
    endloop
  endfacet
  facet normal  0.000000e+000  1.000000e+000  0.000000e+000
    outer loop
      vertex  2.117829e+000  2.479289e+001  6.213878e-001
      vertex  1.439324e+000  2.479289e+001  4.223093e-001
      vertex  7.191383e-001  2.479289e+001  1.316374e+000
    endloop
  endfacet
  facet normal  -0.000000e+000  1.000000e+000  0.000000e+000
    outer loop
      vertex  2.117829e+000  2.479289e+001  6.213878e-001
      vertex  7.191383e-001  2.479289e+001  1.316374e+000
      vertex  1.058143e+000  2.479289e+001  1.936918e+000
    endloop
  endfacet
  facet normal  0.000000e+000  1.000000e+000  0.000000e+000
    outer loop
      vertex  1.439324e+000  2.479289e+001  4.223093e-001
      vertex  1.936918e+000  2.479289e+001 -1.058143e+000
      vertex  1.316374e+000  2.479289e+001 -7.191383e-001
    endloop
  endfacet
  facet normal  0.000000e+000  1.000000e+000  0.000000e+000
    outer loop
      vertex  1.316374e+000  2.479289e+001 -7.191383e-001
      vertex  1.936918e+000  2.479289e+001 -1.058143e+000
      vertex  6.213878e-001  2.479289e+001 -2.117829e+000
    endloop
  endfacet
  facet normal  0.000000e+000  1.000000e+000  -0.000000e+000
    outer loop
      vertex  1.316374e+000  2.479289e+001 -7.191383e-001
      vertex  6.213878e-001  2.479289e+001 -2.117829e+000
      vertex  4.223093e-001  2.479289e+001 -1.439324e+000
    endloop
  endfacet
  facet normal  0.000000e+000  1.000000e+000  0.000000e+000
    outer loop
      vertex  4.223093e-001  2.479289e+001 -1.439324e+000
      vertex  6.213878e-001  2.479289e+001 -2.117829e+000
      vertex -1.058143e+000  2.479289e+001 -1.936918e+000
    endloop
  endfacet
  facet normal  0.000000e+000  1.000000e+000  0.000000e+000
    outer loop
      vertex  4.223093e-001  2.479289e+001 -1.439324e+000
      vertex -1.058143e+000  2.479289e+001 -1.936918e+000
      vertex -7.191383e-001  2.479289e+001 -1.316374e+000
    endloop
  endfacet
  facet normal -6.715349e-001  5.737476e-003  7.409507e-001
    outer loop
      vertex -1.779327e+000  1.024245e+000  1.756131e+000
      vertex -1.668102e+000  3.566403e-001  1.862105e+000
      vertex -2.193956e+000  2.450000e+001  1.198564e+000
    endloop
  endfacet
  facet normal -7.493693e-001  2.491132e-003  6.621476e-001
    outer loop
      vertex -1.974883e+000  1.528555e+000  1.532918e+000
      vertex -1.779327e+000  1.024245e+000  1.756131e+000
      vertex -2.193956e+000  2.450000e+001  1.198564e+000
    endloop
  endfacet
  facet normal -8.433468e-001 -2.212840e-004  5.373696e-001
    outer loop
      vertex -1.974883e+000  1.528555e+000  1.532918e+000
      vertex -2.193956e+000  2.450000e+001  1.198564e+000
      vertex -2.223228e+000  1.984813e+000  1.143353e+000
    endloop
  endfacet
  facet normal -6.272936e-001  7.739772e-003  7.787444e-001
    outer loop
      vertex -7.038488e-001  2.450000e+001  2.398874e+000
      vertex -2.193956e+000  2.450000e+001  1.198564e+000
      vertex -1.668102e+000  3.566403e-001  1.862105e+000
    endloop
  endfacet
  facet normal -5.658072e-001  4.266232e-003  8.245265e-001
    outer loop
      vertex -7.038488e-001  2.450000e+001  2.398874e+000
      vertex -1.668102e+000  3.566403e-001  1.862105e+000
      vertex -1.659112e+000  0.000000e+000  1.870120e+000
    endloop
  endfacet
  facet normal -4.070821e-001 -3.840202e-003  9.133835e-001
    outer loop
      vertex -7.038488e-001  2.450000e+001  2.398874e+000
      vertex -1.659112e+000  0.000000e+000  1.870120e+000
      vertex -2.815024e-001  0.000000e+000  2.484101e+000
    endloop
  endfacet
  facet normal  1.923689e-001  6.729768e-003  9.812996e-001
    outer loop
      vertex -7.038488e-001  2.450000e+001  2.398874e+000
      vertex -2.815024e-001  0.000000e+000  2.484101e+000
      vertex  1.198564e+000  0.000000e+000  2.193956e+000
    endloop
  endfacet
  facet normal  1.070951e-001  -0.000000e+000  9.942488e-001
    outer loop
      vertex -7.038488e-001  2.450000e+001  2.398874e+000
      vertex  1.198564e+000  0.000000e+000  2.193956e+000
      vertex  1.198564e+000  2.450000e+001  2.193956e+000
    endloop
  endfacet
  facet normal -7.787677e-001  -0.000000e+000 -6.273124e-001
    outer loop
      vertex -2.398874e+000  2.450000e+001 -7.038488e-001
      vertex -1.198564e+000  2.450000e+001 -2.193956e+000
      vertex -1.198564e+000  0.000000e+000 -2.193956e+000
    endloop
  endfacet
  facet normal -5.750620e-001  2.156715e-002 -8.178256e-001
    outer loop
      vertex -2.398874e+000  2.450000e+001 -7.038488e-001
      vertex -1.198564e+000  0.000000e+000 -2.193956e+000
      vertex -1.659124e+000  0.000000e+000 -1.870109e+000
    endloop
  endfacet
  facet normal  3.659505e-001  5.527176e-002 -9.289914e-001
    outer loop
      vertex -2.398874e+000  2.450000e+001 -7.038488e-001
      vertex -1.659124e+000  0.000000e+000 -1.870109e+000
      vertex -1.684497e+000  5.515838e-001 -1.847287e+000
    endloop
  endfacet
  facet normal -6.457397e-001  1.718520e-002 -7.633642e-001
    outer loop
      vertex -2.398874e+000  2.450000e+001 -7.038488e-001
      vertex -1.684497e+000  5.515838e-001 -1.847287e+000
      vertex -1.775940e+000  1.012597e+000 -1.759555e+000
    endloop
  endfacet
  facet normal -7.471848e-001  1.005275e-002 -6.645403e-001
    outer loop
      vertex -2.398874e+000  2.450000e+001 -7.038488e-001
      vertex -1.775940e+000  1.012597e+000 -1.759555e+000
      vertex -2.005232e+000  1.591020e+000 -1.492998e+000
    endloop
  endfacet
  facet normal -8.524034e-001  3.364796e-003 -5.228740e-001
    outer loop
      vertex -2.398874e+000  2.450000e+001 -7.038488e-001
      vertex -2.005232e+000  1.591020e+000 -1.492998e+000
      vertex -2.246556e+000  2.022803e+000 -1.096807e+000
    endloop
  endfacet
  facet normal -9.247314e-001  3.877060e-004 -3.806200e-001
    outer loop
      vertex -2.398874e+000  2.450000e+001 -7.038488e-001
      vertex -2.246556e+000  2.022803e+000 -1.096807e+000
      vertex -2.368088e+000  2.211210e+000 -8.013473e-001
    endloop
  endfacet
  facet normal -9.675900e-001 -2.318135e-004 -2.525266e-001
    outer loop
      vertex -2.398874e+000  2.450000e+001 -7.038488e-001
      vertex -2.368088e+000  2.211210e+000 -8.013473e-001
      vertex -2.457592e+000  2.340942e+000 -4.585233e-001
    endloop
  endfacet
  facet normal -9.957297e-001  1.616612e-003 -9.230249e-002
    outer loop
      vertex -2.398874e+000  2.450000e+001 -7.038488e-001
      vertex -2.457592e+000  2.340942e+000 -4.585233e-001
      vertex -2.500000e+000  2.400000e+000  3.522437e-015
    endloop
  endfacet
  facet normal -9.919814e-001  8.555013e-003  1.260934e-001
    outer loop
      vertex -2.398874e+000  2.450000e+001 -7.038488e-001
      vertex -2.500000e+000  2.400000e+000  3.522437e-015
      vertex -2.422363e+000  2.290723e+000  6.181905e-001
    endloop
  endfacet
  facet normal -9.303240e-001  2.277244e-002  3.660312e-001
    outer loop
      vertex -2.398874e+000  2.450000e+001 -7.038488e-001
      vertex -2.422363e+000  2.290723e+000  6.181905e-001
      vertex -2.223228e+000  1.984813e+000  1.143353e+000
    endloop
  endfacet
  facet normal -9.942483e-001  1.029993e-003  1.070951e-001
    outer loop
      vertex -2.398874e+000  2.450000e+001 -7.038488e-001
      vertex -2.223228e+000  1.984813e+000  1.143353e+000
      vertex -2.193956e+000  2.450000e+001  1.198564e+000
    endloop
  endfacet
  facet normal  8.621851e-001 -5.917646e-004 -5.065931e-001
    outer loop
      vertex  2.193956e+000  2.450000e+001 -1.198564e+000
      vertex  2.279128e+000  2.074807e+000 -1.027413e+000
      vertex  2.005232e+000  1.591020e+000 -1.492998e+000
    endloop
  endfacet
  facet normal  7.601664e-001  2.088247e-003 -6.497251e-001
    outer loop
      vertex  2.193956e+000  2.450000e+001 -1.198564e+000
      vertex  2.005232e+000  1.591020e+000 -1.492998e+000
      vertex  1.798505e+000  1.087031e+000 -1.736485e+000
    endloop
  endfacet
  facet normal  6.792336e-001  5.389221e-003 -7.339023e-001
    outer loop
      vertex  2.193956e+000  2.450000e+001 -1.198564e+000
      vertex  1.798505e+000  1.087031e+000 -1.736485e+000
      vertex  1.671113e+000  4.039601e-001 -1.859403e+000
    endloop
  endfacet
  facet normal -1.147185e-001  2.972118e-002 -9.929534e-001
    outer loop
      vertex  2.193956e+000  2.450000e+001 -1.198564e+000
      vertex  1.671113e+000  4.039601e-001 -1.859403e+000
      vertex  1.659123e+000  0.000000e+000 -1.870110e+000
    endloop
  endfacet
  facet normal  6.272940e-001  7.651647e-003 -7.787449e-001
    outer loop
      vertex  2.193956e+000  2.450000e+001 -1.198564e+000
      vertex  1.659123e+000  0.000000e+000 -1.870110e+000
      vertex  7.038488e-001  2.450000e+001 -2.398874e+000
    endloop
  endfacet
  facet normal  7.787529e-001  6.169904e-003  6.273004e-001
    outer loop
      vertex  2.398874e+000  2.450000e+001  7.038488e-001
      vertex  1.198564e+000  2.450000e+001  2.193956e+000
      vertex  2.223228e+000  1.984813e+000  1.143353e+000
    endloop
  endfacet
  facet normal  9.351088e-001 -3.777516e-004  3.543604e-001
    outer loop
      vertex  2.398874e+000  2.450000e+001  7.038488e-001
      vertex  2.223228e+000  1.984813e+000  1.143353e+000
      vertex  2.422363e+000  2.290723e+000  6.181905e-001
    endloop
  endfacet
  facet normal  9.921933e-001  5.683597e-004  1.247082e-001
    outer loop
      vertex  2.398874e+000  2.450000e+001  7.038488e-001
      vertex  2.422363e+000  2.290723e+000  6.181905e-001
      vertex  2.500000e+000  2.400000e+000 -1.608143e-015
    endloop
  endfacet
  facet normal  9.936124e-001  8.131257e-003 -1.125537e-001
    outer loop
      vertex  2.398874e+000  2.450000e+001  7.038488e-001
      vertex  2.500000e+000  2.400000e+000 -1.608143e-015
      vertex  2.438064e+000  2.313240e+000 -5.530316e-001
    endloop
  endfacet
  facet normal  9.449050e-001  2.017786e-002 -3.267220e-001
    outer loop
      vertex  2.398874e+000  2.450000e+001  7.038488e-001
      vertex  2.438064e+000  2.313240e+000 -5.530316e-001
      vertex  2.279128e+000  2.074807e+000 -1.027413e+000
    endloop
  endfacet
  facet normal  9.942445e-001  2.958809e-003 -1.070947e-001
    outer loop
      vertex  2.398874e+000  2.450000e+001  7.038488e-001
      vertex  2.279128e+000  2.074807e+000 -1.027413e+000
      vertex  2.193956e+000  2.450000e+001 -1.198564e+000
    endloop
  endfacet
  facet normal  5.751930e-001  -0.000000e+000  8.180176e-001
    outer loop
      vertex  1.198564e+000  2.450000e+001  2.193956e+000
      vertex  1.198564e+000  0.000000e+000  2.193956e+000
      vertex  1.659112e+000  0.000000e+000  1.870120e+000
    endloop
  endfacet
  facet normal  6.299042e-001  1.574959e-003  7.766713e-001
    outer loop
      vertex  1.198564e+000  2.450000e+001  2.193956e+000
      vertex  1.659112e+000  0.000000e+000  1.870120e+000
      vertex  1.668102e+000  3.566403e-001  1.862105e+000
    endloop
  endfacet
  facet normal  6.798584e-001  3.142103e-003  7.333366e-001
    outer loop
      vertex  1.198564e+000  2.450000e+001  2.193956e+000
      vertex  1.668102e+000  3.566403e-001  1.862105e+000
      vertex  1.779327e+000  1.024245e+000  1.756131e+000
    endloop
  endfacet
  facet normal  7.453874e-001  6.007779e-003  6.666044e-001
    outer loop
      vertex  1.198564e+000  2.450000e+001  2.193956e+000
      vertex  1.779327e+000  1.024245e+000  1.756131e+000
      vertex  1.974883e+000  1.528555e+000  1.532918e+000
    endloop
  endfacet
  facet normal  8.364621e-001  1.250205e-002  5.478822e-001
    outer loop
      vertex  1.198564e+000  2.450000e+001  2.193956e+000
      vertex  1.974883e+000  1.528555e+000  1.532918e+000
      vertex  2.223228e+000  1.984813e+000  1.143353e+000
    endloop
  endfacet
  facet normal -1.923717e-001  -0.000000e+000 -9.813222e-001
    outer loop
      vertex -1.198564e+000  0.000000e+000 -2.193956e+000
      vertex -1.198564e+000  2.450000e+001 -2.193956e+000
      vertex  2.815101e-001  0.000000e+000 -2.484100e+000
    endloop
  endfacet
  facet normal -1.070936e-001  5.304663e-003 -9.942347e-001
    outer loop
      vertex  2.815101e-001  0.000000e+000 -2.484100e+000
      vertex -1.198564e+000  2.450000e+001 -2.193956e+000
      vertex  7.038488e-001  2.450000e+001 -2.398874e+000
    endloop
  endfacet
  facet normal  4.070863e-001 -3.840188e-003 -9.133816e-001
    outer loop
      vertex  2.815101e-001  0.000000e+000 -2.484100e+000
      vertex  7.038488e-001  2.450000e+001 -2.398874e+000
      vertex  1.659123e+000  0.000000e+000 -1.870110e+000
    endloop
  endfacet
  facet normal  -0.000000e+000 -4.565302e-001 -8.897079e-001
    outer loop
      vertex -1.264601e+000  8.881211e-001  1.082239e+000
      vertex  1.196216e+000  3.612479e-001  1.352590e+000
      vertex -1.196216e+000  3.612479e-001  1.352590e+000
    endloop
  endfacet
  facet normal  0.000000e+000 -1.301217e-001 -9.914980e-001
    outer loop
      vertex -1.196216e+000  3.612479e-001  1.352590e+000
      vertex  1.196216e+000  3.612479e-001  1.352590e+000
      vertex  1.189009e+000 -4.720008e-006  1.400000e+000
    endloop
  endfacet
  facet normal  -0.000000e+000 -1.301217e-001 -9.914979e-001
    outer loop
      vertex -1.196216e+000  3.612479e-001  1.352590e+000
      vertex  1.189009e+000 -4.720008e-006  1.400000e+000
      vertex -1.189009e+000 -4.720008e-006  1.400000e+000
    endloop
  endfacet
  facet normal  0.000000e+000  3.826850e-001 -9.238789e-001
    outer loop
      vertex -1.189009e+000 -4.720008e-006  1.400000e+000
      vertex  1.189009e+000 -4.720008e-006  1.400000e+000
      vertex  1.189015e+000 -9.899495e-001  9.899495e-001
    endloop
  endfacet
  facet normal  0.000000e+000  3.826850e-001 -9.238788e-001
    outer loop
      vertex -1.189009e+000 -4.720008e-006  1.400000e+000
      vertex  1.189015e+000 -9.899495e-001  9.899495e-001
      vertex -1.189015e+000 -9.899495e-001  9.899495e-001
    endloop
  endfacet
  facet normal  0.000000e+000  9.238796e-001 -3.826835e-001
    outer loop
      vertex -1.189015e+000 -9.899495e-001  9.899495e-001
      vertex  1.189015e+000 -9.899495e-001  9.899495e-001
      vertex  1.189015e+000 -1.400000e+000  1.714449e-016
    endloop
  endfacet
  facet normal  0.000000e+000  9.238796e-001 -3.826835e-001
    outer loop
      vertex -1.189015e+000 -9.899495e-001  9.899495e-001
      vertex  1.189015e+000 -1.400000e+000  1.714449e-016
      vertex -1.189015e+000 -1.400000e+000  1.714449e-016
    endloop
  endfacet
  facet normal  0.000000e+000 -4.565302e-001 -8.897079e-001
    outer loop
      vertex  1.196216e+000  3.612479e-001  1.352590e+000
      vertex -1.264601e+000  8.881211e-001  1.082239e+000
      vertex  1.264601e+000  8.881211e-001  1.082239e+000
    endloop
  endfacet
  facet normal  -0.000000e+000 -7.357041e-001 -6.773031e-001
    outer loop
      vertex  1.264601e+000  8.881211e-001  1.082239e+000
      vertex -1.264601e+000  8.881211e-001  1.082239e+000
      vertex -1.360530e+000  1.151836e+000  7.957847e-001
    endloop
  endfacet
  facet normal  0.000000e+000 -7.357041e-001 -6.773031e-001
    outer loop
      vertex  1.264601e+000  8.881211e-001  1.082239e+000
      vertex -1.360530e+000  1.151836e+000  7.957847e-001
      vertex  1.360530e+000  1.151836e+000  7.957847e-001
    endloop
  endfacet
  facet normal  -0.000000e+000 -8.861623e-001 -4.633749e-001
    outer loop
      vertex  1.360530e+000  1.151836e+000  7.957847e-001
      vertex -1.360530e+000  1.151836e+000  7.957847e-001
      vertex -1.448378e+000  1.310739e+000  4.918979e-001
    endloop
  endfacet
  facet normal  0.000000e+000 -8.861622e-001 -4.633749e-001
    outer loop
      vertex  1.360530e+000  1.151836e+000  7.957847e-001
      vertex -1.448378e+000  1.310739e+000  4.918979e-001
      vertex  1.448378e+000  1.310739e+000  4.918979e-001
    endloop
  endfacet
  facet normal  -0.000000e+000 -9.659312e-001 -2.587991e-001
    outer loop
      vertex  1.448378e+000  1.310739e+000  4.918979e-001
      vertex -1.448378e+000  1.310739e+000  4.918979e-001
      vertex -1.490400e+000  1.381091e+000  2.293169e-001
    endloop
  endfacet
  facet normal  0.000000e+000 -9.659312e-001 -2.587991e-001
    outer loop
      vertex  1.448378e+000  1.310739e+000  4.918979e-001
      vertex -1.490400e+000  1.381091e+000  2.293169e-001
      vertex  1.490400e+000  1.381091e+000  2.293169e-001
    endloop
  endfacet
  facet normal  -0.000000e+000 -9.966178e-001 -8.217689e-002
    outer loop
      vertex  1.490400e+000  1.381091e+000  2.293169e-001
      vertex -1.490400e+000  1.381091e+000  2.293169e-001
      vertex -1.500000e+000  1.400000e+000 -3.428898e-016
    endloop
  endfacet
  facet normal  0.000000e+000 -9.966178e-001 -8.217689e-002
    outer loop
      vertex  1.490400e+000  1.381091e+000  2.293169e-001
      vertex -1.500000e+000  1.400000e+000 -3.428898e-016
      vertex  1.500000e+000  1.400000e+000 -3.428898e-016
    endloop
  endfacet
  facet normal  0.000000e+000 -7.446510e-001  6.674540e-001
    outer loop
      vertex -1.262722e+000  8.807851e-001 -1.088218e+000
      vertex  1.373323e+000  1.177747e+000 -7.569093e-001
      vertex -1.373323e+000  1.177747e+000 -7.569093e-001
    endloop
  endfacet
  facet normal  0.000000e+000 -9.049807e-001  4.254525e-001
    outer loop
      vertex -1.373323e+000  1.177747e+000 -7.569093e-001
      vertex  1.373323e+000  1.177747e+000 -7.569093e-001
      vertex  1.462746e+000  1.334239e+000 -4.240344e-001
    endloop
  endfacet
  facet normal -1.879655e-003 -8.987181e-001  4.385228e-001
    outer loop
      vertex -1.373323e+000  1.177747e+000 -7.569093e-001
      vertex  1.462746e+000  1.334239e+000 -4.240344e-001
      vertex -1.454619e+000  1.320956e+000 -4.637634e-001
    endloop
  endfacet
  facet normal  1.380888e-003 -9.744890e-001  2.244308e-001
    outer loop
      vertex -1.454619e+000  1.320956e+000 -4.637634e-001
      vertex  1.462746e+000  1.334239e+000 -4.240344e-001
      vertex  1.492648e+000  1.385234e+000 -2.027973e-001
    endloop
  endfacet
  facet normal  1.205383e-003 -9.740555e-001  2.263061e-001
    outer loop
      vertex -1.454619e+000  1.320956e+000 -4.637634e-001
      vertex  1.492648e+000  1.385234e+000 -2.027973e-001
      vertex -1.495215e+000  1.390164e+000 -1.656649e-001
    endloop
  endfacet
  facet normal -7.427097e-004 -9.973575e-001  7.264603e-002
    outer loop
      vertex -1.495215e+000  1.390164e+000 -1.656649e-001
      vertex  1.492648e+000  1.385234e+000 -2.027973e-001
      vertex  1.500000e+000  1.400000e+000 -3.428898e-016
    endloop
  endfacet
  facet normal  0.000000e+000 -9.982420e-001  5.927038e-002
    outer loop
      vertex -1.495215e+000  1.390164e+000 -1.656649e-001
      vertex  1.500000e+000  1.400000e+000 -3.428898e-016
      vertex -1.500000e+000  1.400000e+000 -3.428898e-016
    endloop
  endfacet
  facet normal  3.781537e-003 -7.594129e-001  6.505979e-001
    outer loop
      vertex  1.373323e+000  1.177747e+000 -7.569093e-001
      vertex -1.262722e+000  8.807851e-001 -1.088218e+000
      vertex  1.275087e+000  9.266309e-001 -1.049455e+000
    endloop
  endfacet
  facet normal -3.858252e-003 -5.124626e-001  8.587009e-001
    outer loop
      vertex  1.275087e+000  9.266309e-001 -1.049455e+000
      vertex -1.262722e+000  8.807851e-001 -1.088218e+000
      vertex -1.207762e+000  5.382262e-001 -1.292406e+000
    endloop
  endfacet
  facet normal -9.488707e-003 -4.859866e-001  8.739148e-001
    outer loop
      vertex  1.275087e+000  9.266309e-001 -1.049455e+000
      vertex -1.207762e+000  5.382262e-001 -1.292406e+000
      vertex  1.198440e+000  4.058975e-001 -1.339868e+000
    endloop
  endfacet
  facet normal  8.578565e-003 -1.957321e-001  9.806198e-001
    outer loop
      vertex  1.198440e+000  4.058975e-001 -1.339868e+000
      vertex -1.207762e+000  5.382262e-001 -1.292406e+000
      vertex -1.189015e+000 -3.967002e-007 -1.400000e+000
    endloop
  endfacet
  facet normal -2.241628e-008 -1.465453e-001  9.892040e-001
    outer loop
      vertex  1.198440e+000  4.058975e-001 -1.339868e+000
      vertex -1.189015e+000 -3.967002e-007 -1.400000e+000
      vertex  1.189015e+000 -7.604552e-007 -1.400000e+000
    endloop
  endfacet
  facet normal  5.853713e-008  3.826836e-001  9.238794e-001
    outer loop
      vertex  1.189015e+000 -7.604552e-007 -1.400000e+000
      vertex -1.189015e+000 -3.967002e-007 -1.400000e+000
      vertex -1.189015e+000 -9.899496e-001 -9.899493e-001
    endloop
  endfacet
  facet normal -2.712983e-008  3.826838e-001  9.238794e-001
    outer loop
      vertex  1.189015e+000 -7.604552e-007 -1.400000e+000
      vertex -1.189015e+000 -9.899496e-001 -9.899493e-001
      vertex  1.189015e+000 -9.899498e-001 -9.899492e-001
    endloop
  endfacet
  facet normal  2.712986e-008  9.238796e-001  3.826833e-001
    outer loop
      vertex  1.189015e+000 -9.899498e-001 -9.899492e-001
      vertex -1.189015e+000 -9.899496e-001 -9.899493e-001
      vertex -1.189015e+000 -1.400000e+000  1.714449e-016
    endloop
  endfacet
  facet normal  -0.000000e+000  9.238796e-001  3.826833e-001
    outer loop
      vertex  1.189015e+000 -9.899498e-001 -9.899492e-001
      vertex -1.189015e+000 -1.400000e+000  1.714449e-016
      vertex  1.189015e+000 -1.400000e+000  1.714449e-016
    endloop
  endfacet
  facet normal  4.381323e-002 -9.124869e-001  4.067529e-001
    outer loop
      vertex  6.056577e-016 -2.500000e+000  1.108649e-015
      vertex  8.475126e-001 -1.767767e+000  1.551361e+000
      vertex -4.976963e-001 -1.767767e+000  1.696260e+000
    endloop
  endfacet
  facet normal -2.566371e-001 -9.124869e-001  3.185984e-001
    outer loop
      vertex  6.056577e-016 -2.500000e+000  1.108649e-015
      vertex -4.976963e-001 -1.767767e+000  1.696260e+000
      vertex -1.551361e+000 -1.767767e+000  8.475126e-001
    endloop
  endfacet
  facet normal -3.505835e-001 -9.234326e-001  1.560875e-001
    outer loop
      vertex  6.056577e-016 -2.500000e+000  1.108649e-015
      vertex -1.551361e+000 -1.767767e+000  8.475126e-001
      vertex -1.659125e+000 -1.870108e+000  4.678967e-006
    endloop
  endfacet
  facet normal -3.500952e-001 -9.221439e-001 -1.645720e-001
    outer loop
      vertex  6.056577e-016 -2.500000e+000  1.108649e-015
      vertex -1.659125e+000 -1.870108e+000  4.678967e-006
      vertex -1.659124e+000 -1.754656e+000 -6.469066e-001
    endloop
  endfacet
  facet normal -3.080809e-001 -9.142264e-001 -2.632039e-001
    outer loop
      vertex  6.056577e-016 -2.500000e+000  1.108649e-015
      vertex -1.659124e+000 -1.754656e+000 -6.469066e-001
      vertex -8.475126e-001 -1.767767e+000 -1.551361e+000
    endloop
  endfacet
  facet normal -5.467190e-001 -6.856129e-001 -4.806592e-001
    outer loop
      vertex -8.475126e-001 -1.767767e+000 -1.551361e+000
      vertex -1.659124e+000 -1.754656e+000 -6.469066e-001
      vertex -1.659124e+000 -1.206378e+000 -1.428971e+000
    endloop
  endfacet
  facet normal -3.545449e-001 -3.211208e-001 -8.781682e-001
    outer loop
      vertex -8.475126e-001 -1.767767e+000 -1.551361e+000
      vertex -1.659124e+000 -1.206378e+000 -1.428971e+000
      vertex -1.659124e+000  0.000000e+000 -1.870109e+000
    endloop
  endfacet
  facet normal -5.319057e-001 -3.806031e-001 -7.564508e-001
    outer loop
      vertex -8.475126e-001 -1.767767e+000 -1.551361e+000
      vertex -1.659124e+000  0.000000e+000 -1.870109e+000
      vertex -1.198564e+000  0.000000e+000 -2.193956e+000
    endloop
  endfacet
  facet normal -3.833518e-001 -3.364552e-001  8.601391e-001
    outer loop
      vertex -2.815024e-001  0.000000e+000  2.484101e+000
      vertex -1.659112e+000  0.000000e+000  1.870120e+000
      vertex -4.976963e-001 -1.767767e+000  1.696260e+000
    endloop
  endfacet
  facet normal -2.327242e-001 -2.454520e-001  9.410594e-001
    outer loop
      vertex -4.976963e-001 -1.767767e+000  1.696260e+000
      vertex -1.659112e+000  0.000000e+000  1.870120e+000
      vertex -1.659124e+000 -9.133778e-001  1.631885e+000
    endloop
  endfacet
  facet normal -4.912666e-001 -6.218592e-001  6.098757e-001
    outer loop
      vertex -4.976963e-001 -1.767767e+000  1.696260e+000
      vertex -1.659124e+000 -9.133778e-001  1.631885e+000
      vertex -1.551361e+000 -1.767767e+000  8.475126e-001
    endloop
  endfacet
  facet normal -4.825301e-001 -6.245877e-001  6.140479e-001
    outer loop
      vertex -1.551361e+000 -1.767767e+000  8.475126e-001
      vertex -1.659124e+000 -9.133778e-001  1.631885e+000
      vertex -1.659124e+000 -1.647192e+000  8.854757e-001
    endloop
  endfacet
  facet normal -7.067664e-001 -6.860409e-001  1.727108e-001
    outer loop
      vertex -1.551361e+000 -1.767767e+000  8.475126e-001
      vertex -1.659124e+000 -1.647192e+000  8.854757e-001
      vertex -1.659125e+000 -1.870108e+000  4.678967e-006
    endloop
  endfacet
  facet normal  9.743483e-002 -4.150534e-001  9.045646e-001
    outer loop
      vertex -4.976963e-001 -1.767767e+000  1.696260e+000
      vertex  8.475126e-001 -1.767767e+000  1.551361e+000
      vertex -2.815024e-001  0.000000e+000  2.484101e+000
    endloop
  endfacet
  facet normal  1.789258e-001 -3.673134e-001  9.127248e-001
    outer loop
      vertex -2.815024e-001  0.000000e+000  2.484101e+000
      vertex  8.475126e-001 -1.767767e+000  1.551361e+000
      vertex  1.198564e+000  0.000000e+000  2.193956e+000
    endloop
  endfacet
  facet normal -6.785988e-001  2.810846e-001  6.785979e-001
    outer loop
      vertex -1.189015e+000 -3.967002e-007 -1.400000e+000
      vertex -1.659124e+000  0.000000e+000 -1.870109e+000
      vertex -1.189015e+000 -9.899496e-001 -9.899493e-001
    endloop
  endfacet
  facet normal -7.192228e-001  2.386087e-001  6.525216e-001
    outer loop
      vertex -1.189015e+000 -9.899496e-001 -9.899493e-001
      vertex -1.659124e+000  0.000000e+000 -1.870109e+000
      vertex -1.659124e+000 -1.206378e+000 -1.428971e+000
    endloop
  endfacet
  facet normal -6.163590e-001  7.275230e-001  3.013498e-001
    outer loop
      vertex -1.189015e+000 -9.899496e-001 -9.899493e-001
      vertex -1.659124e+000 -1.206378e+000 -1.428971e+000
      vertex -1.189015e+000 -1.400000e+000  1.714449e-016
    endloop
  endfacet
  facet normal -8.152304e-001  4.742101e-001  3.324521e-001
    outer loop
      vertex -1.189015e+000 -1.400000e+000  1.714449e-016
      vertex -1.659124e+000 -1.206378e+000 -1.428971e+000
      vertex -1.659124e+000 -1.754656e+000 -6.469066e-001
    endloop
  endfacet
  facet normal -7.015413e-001  7.015443e-001  1.252014e-001
    outer loop
      vertex -1.189015e+000 -1.400000e+000  1.714449e-016
      vertex -1.659124e+000 -1.754656e+000 -6.469066e-001
      vertex -1.659125e+000 -1.870108e+000  4.678967e-006
    endloop
  endfacet
  facet normal -6.953896e-001  1.813808e-001 -6.953663e-001
    outer loop
      vertex -1.659112e+000  0.000000e+000  1.870120e+000
      vertex -1.189009e+000 -4.720008e-006  1.400000e+000
      vertex -1.659124e+000 -9.133778e-001  1.631885e+000
    endloop
  endfacet
  facet normal -7.680173e-001  2.450869e-001 -5.916772e-001
    outer loop
      vertex -1.659124e+000 -9.133778e-001  1.631885e+000
      vertex -1.189009e+000 -4.720008e-006  1.400000e+000
      vertex -1.189015e+000 -9.899495e-001  9.899495e-001
    endloop
  endfacet
  facet normal -6.437107e-001  5.457116e-001 -5.365028e-001
    outer loop
      vertex -1.659124e+000 -9.133778e-001  1.631885e+000
      vertex -1.189015e+000 -9.899495e-001  9.899495e-001
      vertex -1.659124e+000 -1.647192e+000  8.854757e-001
    endloop
  endfacet
  facet normal -7.699438e-001  5.895383e-001 -2.441948e-001
    outer loop
      vertex -1.189015e+000 -9.899495e-001  9.899495e-001
      vertex -1.189015e+000 -1.400000e+000  1.714449e-016
      vertex -1.659124e+000 -1.647192e+000  8.854757e-001
    endloop
  endfacet
  facet normal -6.961625e-001  6.961626e-001 -1.752580e-001
    outer loop
      vertex -1.659124e+000 -1.647192e+000  8.854757e-001
      vertex -1.189015e+000 -1.400000e+000  1.714449e-016
      vertex -1.659125e+000 -1.870108e+000  4.678967e-006
    endloop
  endfacet
  facet normal -7.067221e-001 -7.067220e-001 -3.298390e-002
    outer loop
      vertex -1.500000e+000  1.400000e+000 -3.428898e-016
      vertex -1.801054e+000  1.684302e+000  3.589414e-001
      vertex -2.500000e+000  2.400000e+000  3.522437e-015
    endloop
  endfacet
  facet normal -7.292877e-001 -1.033149e-001 -6.763619e-001
    outer loop
      vertex -1.189009e+000 -4.720008e-006  1.400000e+000
      vertex -1.353512e+000  3.597120e-001  1.522428e+000
      vertex -1.196216e+000  3.612479e-001  1.352590e+000
    endloop
  endfacet
  facet normal -7.047132e-001 -8.243627e-002 -7.046869e-001
    outer loop
      vertex -1.189009e+000 -4.720008e-006  1.400000e+000
      vertex -1.659112e+000  0.000000e+000  1.870120e+000
      vertex -1.353512e+000  3.597120e-001  1.522428e+000
    endloop
  endfacet
  facet normal -7.331098e-001 -3.374626e-002 -6.792726e-001
    outer loop
      vertex -1.353512e+000  3.597120e-001  1.522428e+000
      vertex -1.659112e+000  0.000000e+000  1.870120e+000
      vertex -1.668102e+000  3.566403e-001  1.862105e+000
    endloop
  endfacet
  facet normal -6.884676e-001 -3.398843e-001 -6.406957e-001
    outer loop
      vertex -1.353512e+000  3.597120e-001  1.522428e+000
      vertex -1.668102e+000  3.566403e-001  1.862105e+000
      vertex -1.436177e+000  9.334956e-001  1.306869e+000
    endloop
  endfacet
  facet normal -7.959840e-001 -2.220052e-001 -5.631369e-001
    outer loop
      vertex -1.436177e+000  9.334956e-001  1.306869e+000
      vertex -1.668102e+000  3.566403e-001  1.862105e+000
      vertex -1.779327e+000  1.024245e+000  1.756131e+000
    endloop
  endfacet
  facet normal -6.982464e-001 -5.828691e-001 -4.155907e-001
    outer loop
      vertex -1.436177e+000  9.334956e-001  1.306869e+000
      vertex -1.779327e+000  1.024245e+000  1.756131e+000
      vertex -1.565314e+000  1.277409e+000  1.041496e+000
    endloop
  endfacet
  facet normal -7.786929e-001 -4.805093e-001 -4.034205e-001
    outer loop
      vertex -1.565314e+000  1.277409e+000  1.041496e+000
      vertex -1.779327e+000  1.024245e+000  1.756131e+000
      vertex -1.974883e+000  1.528555e+000  1.532918e+000
    endloop
  endfacet
  facet normal -6.954758e-001 -6.800330e-001 -2.320961e-001
    outer loop
      vertex -1.565314e+000  1.277409e+000  1.041496e+000
      vertex -1.974883e+000  1.528555e+000  1.532918e+000
      vertex -1.706661e+000  1.535430e+000  7.090497e-001
    endloop
  endfacet
  facet normal -7.460965e-001 -6.179055e-001 -2.480579e-001
    outer loop
      vertex -1.706661e+000  1.535430e+000  7.090497e-001
      vertex -1.974883e+000  1.528555e+000  1.532918e+000
      vertex -2.223228e+000  1.984813e+000  1.143353e+000
    endloop
  endfacet
  facet normal -7.030962e-001 -7.026572e-001 -1.092185e-001
    outer loop
      vertex -1.706661e+000  1.535430e+000  7.090497e-001
      vertex -2.223228e+000  1.984813e+000  1.143353e+000
      vertex -1.801054e+000  1.684302e+000  3.589414e-001
    endloop
  endfacet
  facet normal -7.192610e-001 -6.833442e-001 -1.253173e-001
    outer loop
      vertex -1.801054e+000  1.684302e+000  3.589414e-001
      vertex -2.223228e+000  1.984813e+000  1.143353e+000
      vertex -2.422363e+000  2.290723e+000  6.181905e-001
    endloop
  endfacet
  facet normal -7.057612e-001 -7.075125e-001 -3.643110e-002
    outer loop
      vertex -1.801054e+000  1.684302e+000  3.589414e-001
      vertex -2.422363e+000  2.290723e+000  6.181905e-001
      vertex -2.500000e+000  2.400000e+000  3.522437e-015
    endloop
  endfacet
  facet normal -6.685363e-001 -4.063650e-001 -6.228376e-001
    outer loop
      vertex -1.196216e+000  3.612479e-001  1.352590e+000
      vertex -1.353512e+000  3.597120e-001  1.522428e+000
      vertex -1.264601e+000  8.881211e-001  1.082239e+000
    endloop
  endfacet
  facet normal -7.840231e-001 -3.140935e-001 -5.354000e-001
    outer loop
      vertex -1.264601e+000  8.881211e-001  1.082239e+000
      vertex -1.353512e+000  3.597120e-001  1.522428e+000
      vertex -1.436177e+000  9.334956e-001  1.306869e+000
    endloop
  endfacet
  facet normal -6.625089e-001 -6.483924e-001 -3.750588e-001
    outer loop
      vertex -1.264601e+000  8.881211e-001  1.082239e+000
      vertex -1.436177e+000  9.334956e-001  1.306869e+000
      vertex -1.360530e+000  1.151836e+000  7.957847e-001
    endloop
  endfacet
  facet normal -7.569366e-001 -5.529553e-001 -3.482635e-001
    outer loop
      vertex -1.360530e+000  1.151836e+000  7.957847e-001
      vertex -1.436177e+000  9.334956e-001  1.306869e+000
      vertex -1.565314e+000  1.277409e+000  1.041496e+000
    endloop
  endfacet
  facet normal -6.657434e-001 -7.227607e-001 -1.854793e-001
    outer loop
      vertex -1.360530e+000  1.151836e+000  7.957847e-001
      vertex -1.565314e+000  1.277409e+000  1.041496e+000
      vertex -1.448378e+000  1.310739e+000  4.918979e-001
    endloop
  endfacet
  facet normal -7.320194e-001 -6.526818e-001 -1.953308e-001
    outer loop
      vertex -1.448378e+000  1.310739e+000  4.918979e-001
      vertex -1.565314e+000  1.277409e+000  1.041496e+000
      vertex -1.706661e+000  1.535430e+000  7.090497e-001
    endloop
  endfacet
  facet normal -6.922183e-001 -7.170888e-001 -8.134754e-002
    outer loop
      vertex -1.448378e+000  1.310739e+000  4.918979e-001
      vertex -1.706661e+000  1.535430e+000  7.090497e-001
      vertex -1.490400e+000  1.381091e+000  2.293169e-001
    endloop
  endfacet
  facet normal -7.161205e-001 -6.906863e-001 -1.006168e-001
    outer loop
      vertex -1.490400e+000  1.381091e+000  2.293169e-001
      vertex -1.706661e+000  1.535430e+000  7.090497e-001
      vertex -1.801054e+000  1.684302e+000  3.589414e-001
    endloop
  endfacet
  facet normal -7.043575e-001 -7.092529e-001 -2.899611e-002
    outer loop
      vertex -1.490400e+000  1.381091e+000  2.293169e-001
      vertex -1.801054e+000  1.684302e+000  3.589414e-001
      vertex -1.500000e+000  1.400000e+000 -3.428898e-016
    endloop
  endfacet
  facet normal -7.069041e-001 -7.069041e-001  2.394232e-002
    outer loop
      vertex -1.500000e+000  1.400000e+000 -3.428898e-016
      vertex -2.500000e+000  2.400000e+000  3.522437e-015
      vertex -1.816007e+000  1.707090e+000 -2.632844e-001
    endloop
  endfacet
  facet normal -7.065278e-001 -7.072169e-001  2.574356e-002
    outer loop
      vertex -1.816007e+000  1.707090e+000 -2.632844e-001
      vertex -2.500000e+000  2.400000e+000  3.522437e-015
      vertex -2.457592e+000  2.340942e+000 -4.585233e-001
    endloop
  endfacet
  facet normal -7.125612e-001 -6.972791e-001  7.783420e-002
    outer loop
      vertex -1.816007e+000  1.707090e+000 -2.632844e-001
      vertex -2.457592e+000  2.340942e+000 -4.585233e-001
      vertex -2.368088e+000  2.211210e+000 -8.013473e-001
    endloop
  endfacet
  facet normal -7.011459e-001 -1.295787e-001  7.011446e-001
    outer loop
      vertex -1.659124e+000  0.000000e+000 -1.870109e+000
      vertex -1.189015e+000 -3.967002e-007 -1.400000e+000
      vertex -1.366674e+000  5.426788e-001 -1.477366e+000
    endloop
  endfacet
  facet normal -7.512314e-001 -1.544479e-001  6.417142e-001
    outer loop
      vertex -1.366674e+000  5.426788e-001 -1.477366e+000
      vertex -1.189015e+000 -3.967002e-007 -1.400000e+000
      vertex -1.207762e+000  5.382262e-001 -1.292406e+000
    endloop
  endfacet
  facet normal -7.054133e-001 -3.822896e-001  5.968641e-001
    outer loop
      vertex -1.366674e+000  5.426788e-001 -1.477366e+000
      vertex -1.207762e+000  5.382262e-001 -1.292406e+000
      vertex -1.433795e+000  9.247224e-001 -1.311997e+000
    endloop
  endfacet
  facet normal -7.592356e-001 -4.187679e-001  4.981915e-001
    outer loop
      vertex -1.433795e+000  9.247224e-001 -1.311997e+000
      vertex -1.207762e+000  5.382262e-001 -1.292406e+000
      vertex -1.262722e+000  8.807851e-001 -1.088218e+000
    endloop
  endfacet
  facet normal -6.917707e-001 -5.927309e-001  4.124603e-001
    outer loop
      vertex -1.433795e+000  9.247224e-001 -1.311997e+000
      vertex -1.262722e+000  8.807851e-001 -1.088218e+000
      vertex -1.583960e+000  1.315505e+000 -1.002272e+000
    endloop
  endfacet
  facet normal -7.395527e-001 -6.048728e-001  2.952809e-001
    outer loop
      vertex -1.583960e+000  1.315505e+000 -1.002272e+000
      vertex -1.262722e+000  8.807851e-001 -1.088218e+000
      vertex -1.373323e+000  1.177747e+000 -7.569093e-001
    endloop
  endfacet
  facet normal -6.968758e-001 -6.845483e-001  2.139108e-001
    outer loop
      vertex -1.583960e+000  1.315505e+000 -1.002272e+000
      vertex -1.373323e+000  1.177747e+000 -7.569093e-001
      vertex -1.718598e+000  1.554905e+000 -6.747778e-001
    endloop
  endfacet
  facet normal -7.157938e-001 -6.849214e-001  1.360944e-001
    outer loop
      vertex -1.718598e+000  1.554905e+000 -6.747778e-001
      vertex -1.373323e+000  1.177747e+000 -7.569093e-001
      vertex -1.454619e+000  1.320956e+000 -4.637634e-001
    endloop
  endfacet
  facet normal -7.017213e-001 -7.060862e-001  9.502438e-002
    outer loop
      vertex -1.718598e+000  1.554905e+000 -6.747778e-001
      vertex -1.454619e+000  1.320956e+000 -4.637634e-001
      vertex -1.816007e+000  1.707090e+000 -2.632844e-001
    endloop
  endfacet
  facet normal -7.113245e-001 -6.997960e-001  6.559794e-002
    outer loop
      vertex -1.816007e+000  1.707090e+000 -2.632844e-001
      vertex -1.454619e+000  1.320956e+000 -4.637634e-001
      vertex -1.495215e+000  1.390164e+000 -1.656649e-001
    endloop
  endfacet
  facet normal -7.059677e-001 -7.079133e-001  2.164104e-002
    outer loop
      vertex -1.816007e+000  1.707090e+000 -2.632844e-001
      vertex -1.495215e+000  1.390164e+000 -1.656649e-001
      vertex -1.500000e+000  1.400000e+000 -3.428898e-016
    endloop
  endfacet
  facet normal -7.164116e-001 -6.923013e-001  8.644868e-002
    outer loop
      vertex -1.816007e+000  1.707090e+000 -2.632844e-001
      vertex -2.368088e+000  2.211210e+000 -8.013473e-001
      vertex -1.718598e+000  1.554905e+000 -6.747778e-001
    endloop
  endfacet
  facet normal -7.171518e-001 -6.826454e-001  1.403158e-001
    outer loop
      vertex -1.718598e+000  1.554905e+000 -6.747778e-001
      vertex -2.368088e+000  2.211210e+000 -8.013473e-001
      vertex -2.246556e+000  2.022803e+000 -1.096807e+000
    endloop
  endfacet
  facet normal -7.296295e-001 -6.592019e-001  1.819169e-001
    outer loop
      vertex -1.718598e+000  1.554905e+000 -6.747778e-001
      vertex -2.246556e+000  2.022803e+000 -1.096807e+000
      vertex -1.583960e+000  1.315505e+000 -1.002272e+000
    endloop
  endfacet
  facet normal -7.218553e-001 -6.415502e-001  2.594958e-001
    outer loop
      vertex -1.583960e+000  1.315505e+000 -1.002272e+000
      vertex -2.246556e+000  2.022803e+000 -1.096807e+000
      vertex -2.005232e+000  1.591020e+000 -1.492998e+000
    endloop
  endfacet
  facet normal -7.579412e-001 -5.584524e-001  3.371293e-001
    outer loop
      vertex -1.583960e+000  1.315505e+000 -1.002272e+000
      vertex -2.005232e+000  1.591020e+000 -1.492998e+000
      vertex -1.433795e+000  9.247224e-001 -1.311997e+000
    endloop
  endfacet
  facet normal -7.316886e-001 -5.023637e-001  4.607194e-001
    outer loop
      vertex -1.433795e+000  9.247224e-001 -1.311997e+000
      vertex -2.005232e+000  1.591020e+000 -1.492998e+000
      vertex -1.775940e+000  1.012597e+000 -1.759555e+000
    endloop
  endfacet
  facet normal -7.736698e-001 -3.612365e-001  5.205220e-001
    outer loop
      vertex -1.433795e+000  9.247224e-001 -1.311997e+000
      vertex -1.775940e+000  1.012597e+000 -1.759555e+000
      vertex -1.366674e+000  5.426788e-001 -1.477366e+000
    endloop
  endfacet
  facet normal -7.346018e-001 -2.646064e-001  6.247749e-001
    outer loop
      vertex -1.366674e+000  5.426788e-001 -1.477366e+000
      vertex -1.775940e+000  1.012597e+000 -1.759555e+000
      vertex -1.684497e+000  5.515838e-001 -1.847287e+000
    endloop
  endfacet
  facet normal -7.577852e-001 -6.173563e-002  6.495770e-001
    outer loop
      vertex -1.366674e+000  5.426788e-001 -1.477366e+000
      vertex -1.684497e+000  5.515838e-001 -1.847287e+000
      vertex -1.659124e+000  0.000000e+000 -1.870109e+000
    endloop
  endfacet
  facet normal  4.358319e-001 -7.192411e-001 -5.410572e-001
    outer loop
      vertex  1.551361e+000 -1.767767e+000 -8.475126e-001
      vertex  4.976963e-001 -1.767767e+000 -1.696260e+000
      vertex  1.659124e+000 -1.481304e+000 -1.141510e+000
    endloop
  endfacet
  facet normal  8.533264e-001 -4.935331e-001 -1.681040e-001
    outer loop
      vertex  1.659131e+000 -1.870103e+000 -8.479569e-006
      vertex  1.551361e+000 -1.767767e+000 -8.475126e-001
      vertex  1.659124e+000 -1.481304e+000 -1.141510e+000
    endloop
  endfacet
  facet normal  4.679946e-001 -5.344137e-001 -7.038346e-001
    outer loop
      vertex  4.976963e-001 -1.767767e+000 -1.696260e+000
      vertex  1.659124e+000 -7.016516e-001 -1.733491e+000
      vertex  1.659124e+000 -1.481304e+000 -1.141510e+000
    endloop
  endfacet
  facet normal -4.381323e-002 -9.124869e-001 -4.067529e-001
    outer loop
      vertex  6.056577e-016 -2.500000e+000  1.108649e-015
      vertex -8.475126e-001 -1.767767e+000 -1.551361e+000
      vertex  4.976963e-001 -1.767767e+000 -1.696260e+000
    endloop
  endfacet
  facet normal  2.566371e-001 -9.124869e-001 -3.185984e-001
    outer loop
      vertex  6.056577e-016 -2.500000e+000  1.108649e-015
      vertex  4.976963e-001 -1.767767e+000 -1.696260e+000
      vertex  1.551361e+000 -1.767767e+000 -8.475126e-001
    endloop
  endfacet
  facet normal  3.505849e-001 -9.234325e-001 -1.560848e-001
    outer loop
      vertex  6.056577e-016 -2.500000e+000  1.108649e-015
      vertex  1.551361e+000 -1.767767e+000 -8.475126e-001
      vertex  1.659131e+000 -1.870103e+000 -8.479569e-006
    endloop
  endfacet
  facet normal  3.510885e-001 -9.247549e-001  1.468510e-001
    outer loop
      vertex  6.056577e-016 -2.500000e+000  1.108649e-015
      vertex  1.659131e+000 -1.870103e+000 -8.479569e-006
      vertex  1.659124e+000 -1.778101e+000  5.793668e-001
    endloop
  endfacet
  facet normal  3.054927e-001 -9.146312e-001  2.648089e-001
    outer loop
      vertex  6.056577e-016 -2.500000e+000  1.108649e-015
      vertex  1.659124e+000 -1.778101e+000  5.793668e-001
      vertex  8.475126e-001 -1.767767e+000  1.551361e+000
    endloop
  endfacet
  facet normal  5.313325e-001 -7.169586e-001  4.512827e-001
    outer loop
      vertex  8.475126e-001 -1.767767e+000  1.551361e+000
      vertex  1.659124e+000 -1.778101e+000  5.793668e-001
      vertex  1.659124e+000 -1.291352e+000  1.352670e+000
    endloop
  endfacet
  facet normal  4.635869e-001 -4.788339e-001  7.455236e-001
    outer loop
      vertex  8.475126e-001 -1.767767e+000  1.551361e+000
      vertex  1.659124e+000 -1.291352e+000  1.352670e+000
      vertex  1.659124e+000 -6.930453e-001  1.736950e+000
    endloop
  endfacet
  facet normal  2.530503e-002 -1.886387e-001  9.817205e-001
    outer loop
      vertex  8.475126e-001 -1.767767e+000  1.551361e+000
      vertex  1.659124e+000 -6.930453e-001  1.736950e+000
      vertex  1.659112e+000  0.000000e+000  1.870120e+000
    endloop
  endfacet
  facet normal  5.319032e-001 -3.806032e-001  7.564524e-001
    outer loop
      vertex  8.475126e-001 -1.767767e+000  1.551361e+000
      vertex  1.659112e+000  0.000000e+000  1.870120e+000
      vertex  1.198564e+000  0.000000e+000  2.193956e+000
    endloop
  endfacet
  facet normal -1.000214e-001 -3.574067e-001 -9.285775e-001
    outer loop
      vertex -8.475126e-001 -1.767767e+000 -1.551361e+000
      vertex -1.198564e+000  0.000000e+000 -2.193956e+000
      vertex  4.976963e-001 -1.767767e+000 -1.696260e+000
    endloop
  endfacet
  facet normal -1.747100e-001 -4.185585e-001 -8.912268e-001
    outer loop
      vertex  4.976963e-001 -1.767767e+000 -1.696260e+000
      vertex -1.198564e+000  0.000000e+000 -2.193956e+000
      vertex  2.815101e-001  0.000000e+000 -2.484100e+000
    endloop
  endfacet
  facet normal  2.998229e-001 -3.575154e-001 -8.844711e-001
    outer loop
      vertex  4.976963e-001 -1.767767e+000 -1.696260e+000
      vertex  2.815101e-001  0.000000e+000 -2.484100e+000
      vertex  1.659124e+000 -7.016516e-001 -1.733491e+000
    endloop
  endfacet
  facet normal  4.008001e-001 -1.750975e-001 -8.992775e-001
    outer loop
      vertex  1.659124e+000 -7.016516e-001 -1.733491e+000
      vertex  2.815101e-001  0.000000e+000 -2.484100e+000
      vertex  1.659123e+000  0.000000e+000 -1.870110e+000
    endloop
  endfacet
  facet normal  6.785906e-001  6.786050e-001  2.810872e-001
    outer loop
      vertex  1.189015e+000 -1.400000e+000  1.714449e-016
      vertex  1.659131e+000 -1.870103e+000 -8.479569e-006
      vertex  1.189015e+000 -9.899498e-001 -9.899492e-001
    endloop
  endfacet
  facet normal  7.378976e-001  6.388729e-001  2.175971e-001
    outer loop
      vertex  1.189015e+000 -9.899498e-001 -9.899492e-001
      vertex  1.659131e+000 -1.870103e+000 -8.479569e-006
      vertex  1.659124e+000 -1.481304e+000 -1.141510e+000
    endloop
  endfacet
  facet normal  5.722685e-001  3.138261e-001  7.576423e-001
    outer loop
      vertex  1.189015e+000 -9.899498e-001 -9.899492e-001
      vertex  1.659124e+000 -1.481304e+000 -1.141510e+000
      vertex  1.189015e+000 -7.604552e-007 -1.400000e+000
    endloop
  endfacet
  facet normal  8.263856e-001  3.405230e-001  4.484763e-001
    outer loop
      vertex  1.189015e+000 -7.604552e-007 -1.400000e+000
      vertex  1.659124e+000 -1.481304e+000 -1.141510e+000
      vertex  1.659124e+000 -7.016516e-001 -1.733491e+000
    endloop
  endfacet
  facet normal  7.004996e-001  1.363943e-001  7.004976e-001
    outer loop
      vertex  1.189015e+000 -7.604552e-007 -1.400000e+000
      vertex  1.659124e+000 -7.016516e-001 -1.733491e+000
      vertex  1.659123e+000  0.000000e+000 -1.870110e+000
    endloop
  endfacet
  facet normal  7.026803e-001  7.027025e-001 -1.115771e-001
    outer loop
      vertex  1.189015e+000 -1.400000e+000  1.714449e-016
      vertex  1.659124e+000 -1.778101e+000  5.793668e-001
      vertex  1.659131e+000 -1.870103e+000 -8.479569e-006
    endloop
  endfacet
  facet normal  8.008268e-001  5.068488e-001 -3.190311e-001
    outer loop
      vertex  1.659124e+000 -1.778101e+000  5.793668e-001
      vertex  1.189015e+000 -1.400000e+000  1.714449e-016
      vertex  1.659124e+000 -1.291352e+000  1.352670e+000
    endloop
  endfacet
  facet normal  6.638237e-001  6.909594e-001 -2.862048e-001
    outer loop
      vertex  1.659124e+000 -1.291352e+000  1.352670e+000
      vertex  1.189015e+000 -1.400000e+000  1.714449e-016
      vertex  1.189015e+000 -9.899495e-001  9.899495e-001
    endloop
  endfacet
  facet normal  7.055723e-001  3.829572e-001 -5.962478e-001
    outer loop
      vertex  1.659124e+000 -1.291352e+000  1.352670e+000
      vertex  1.189015e+000 -9.899495e-001  9.899495e-001
      vertex  1.659124e+000 -6.930453e-001  1.736950e+000
    endloop
  endfacet
  facet normal  7.749997e-001  2.418466e-001 -5.838543e-001
    outer loop
      vertex  1.189015e+000 -9.899495e-001  9.899495e-001
      vertex  1.189009e+000 -4.720008e-006  1.400000e+000
      vertex  1.659124e+000 -6.930453e-001  1.736950e+000
    endloop
  endfacet
  facet normal  7.006798e-001  1.346447e-001 -7.006559e-001
    outer loop
      vertex  1.659124e+000 -6.930453e-001  1.736950e+000
      vertex  1.189009e+000 -4.720008e-006  1.400000e+000
      vertex  1.659112e+000  0.000000e+000  1.870120e+000
    endloop
  endfacet
  facet normal  7.292877e-001 -1.033149e-001 -6.763619e-001
    outer loop
      vertex  1.196216e+000  3.612479e-001  1.352590e+000
      vertex  1.353512e+000  3.597120e-001  1.522428e+000
      vertex  1.189009e+000 -4.720008e-006  1.400000e+000
    endloop
  endfacet
  facet normal  7.460965e-001 -6.179055e-001 -2.480579e-001
    outer loop
      vertex  1.974883e+000  1.528555e+000  1.532918e+000
      vertex  1.706661e+000  1.535430e+000  7.090497e-001
      vertex  2.223228e+000  1.984813e+000  1.143353e+000
    endloop
  endfacet
  facet normal  7.030962e-001 -7.026572e-001 -1.092185e-001
    outer loop
      vertex  2.223228e+000  1.984813e+000  1.143353e+000
      vertex  1.706661e+000  1.535430e+000  7.090497e-001
      vertex  1.801054e+000  1.684302e+000  3.589414e-001
    endloop
  endfacet
  facet normal  7.192610e-001 -6.833442e-001 -1.253173e-001
    outer loop
      vertex  2.223228e+000  1.984813e+000  1.143353e+000
      vertex  1.801054e+000  1.684302e+000  3.589414e-001
      vertex  2.422363e+000  2.290723e+000  6.181905e-001
    endloop
  endfacet
  facet normal  7.043576e-001 -7.092529e-001 -2.899611e-002
    outer loop
      vertex  2.422363e+000  2.290723e+000  6.181905e-001
      vertex  1.801054e+000  1.684302e+000  3.589414e-001
      vertex  1.500000e+000  1.400000e+000 -3.428898e-016
    endloop
  endfacet
  facet normal  7.066442e-001 -7.066442e-001 -3.616671e-002
    outer loop
      vertex  2.422363e+000  2.290723e+000  6.181905e-001
      vertex  1.500000e+000  1.400000e+000 -3.428898e-016
      vertex  2.500000e+000  2.400000e+000 -1.608143e-015
    endloop
  endfacet
  facet normal  6.954758e-001 -6.800330e-001 -2.320961e-001
    outer loop
      vertex  1.706661e+000  1.535430e+000  7.090497e-001
      vertex  1.974883e+000  1.528555e+000  1.532918e+000
      vertex  1.565314e+000  1.277409e+000  1.041496e+000
    endloop
  endfacet
  facet normal  7.786929e-001 -4.805093e-001 -4.034205e-001
    outer loop
      vertex  1.565314e+000  1.277409e+000  1.041496e+000
      vertex  1.974883e+000  1.528555e+000  1.532918e+000
      vertex  1.779327e+000  1.024245e+000  1.756131e+000
    endloop
  endfacet
  facet normal  6.982464e-001 -5.828691e-001 -4.155907e-001
    outer loop
      vertex  1.565314e+000  1.277409e+000  1.041496e+000
      vertex  1.779327e+000  1.024245e+000  1.756131e+000
      vertex  1.436177e+000  9.334956e-001  1.306869e+000
    endloop
  endfacet
  facet normal  7.959840e-001 -2.220052e-001 -5.631369e-001
    outer loop
      vertex  1.436177e+000  9.334956e-001  1.306869e+000
      vertex  1.779327e+000  1.024245e+000  1.756131e+000
      vertex  1.668102e+000  3.566403e-001  1.862105e+000
    endloop
  endfacet
  facet normal  6.884676e-001 -3.398843e-001 -6.406957e-001
    outer loop
      vertex  1.436177e+000  9.334956e-001  1.306869e+000
      vertex  1.668102e+000  3.566403e-001  1.862105e+000
      vertex  1.353512e+000  3.597120e-001  1.522428e+000
    endloop
  endfacet
  facet normal  7.331098e-001 -3.374626e-002 -6.792726e-001
    outer loop
      vertex  1.353512e+000  3.597120e-001  1.522428e+000
      vertex  1.668102e+000  3.566403e-001  1.862105e+000
      vertex  1.659112e+000  0.000000e+000  1.870120e+000
    endloop
  endfacet
  facet normal  7.047132e-001 -8.243627e-002 -7.046869e-001
    outer loop
      vertex  1.353512e+000  3.597120e-001  1.522428e+000
      vertex  1.659112e+000  0.000000e+000  1.870120e+000
      vertex  1.189009e+000 -4.720008e-006  1.400000e+000
    endloop
  endfacet
  facet normal  7.043575e-001 -7.092529e-001 -2.899611e-002
    outer loop
      vertex  1.500000e+000  1.400000e+000 -3.428898e-016
      vertex  1.801054e+000  1.684302e+000  3.589414e-001
      vertex  1.490400e+000  1.381091e+000  2.293169e-001
    endloop
  endfacet
  facet normal  7.161205e-001 -6.906863e-001 -1.006168e-001
    outer loop
      vertex  1.490400e+000  1.381091e+000  2.293169e-001
      vertex  1.801054e+000  1.684302e+000  3.589414e-001
      vertex  1.706661e+000  1.535430e+000  7.090497e-001
    endloop
  endfacet
  facet normal  6.922183e-001 -7.170888e-001 -8.134754e-002
    outer loop
      vertex  1.490400e+000  1.381091e+000  2.293169e-001
      vertex  1.706661e+000  1.535430e+000  7.090497e-001
      vertex  1.448378e+000  1.310739e+000  4.918979e-001
    endloop
  endfacet
  facet normal  7.320194e-001 -6.526818e-001 -1.953308e-001
    outer loop
      vertex  1.448378e+000  1.310739e+000  4.918979e-001
      vertex  1.706661e+000  1.535430e+000  7.090497e-001
      vertex  1.565314e+000  1.277409e+000  1.041496e+000
    endloop
  endfacet
  facet normal  6.657434e-001 -7.227607e-001 -1.854793e-001
    outer loop
      vertex  1.448378e+000  1.310739e+000  4.918979e-001
      vertex  1.565314e+000  1.277409e+000  1.041496e+000
      vertex  1.360530e+000  1.151836e+000  7.957847e-001
    endloop
  endfacet
  facet normal  7.569366e-001 -5.529553e-001 -3.482635e-001
    outer loop
      vertex  1.360530e+000  1.151836e+000  7.957847e-001
      vertex  1.565314e+000  1.277409e+000  1.041496e+000
      vertex  1.436177e+000  9.334956e-001  1.306869e+000
    endloop
  endfacet
  facet normal  6.625089e-001 -6.483924e-001 -3.750588e-001
    outer loop
      vertex  1.360530e+000  1.151836e+000  7.957847e-001
      vertex  1.436177e+000  9.334956e-001  1.306869e+000
      vertex  1.264601e+000  8.881211e-001  1.082239e+000
    endloop
  endfacet
  facet normal  7.840231e-001 -3.140935e-001 -5.354000e-001
    outer loop
      vertex  1.264601e+000  8.881211e-001  1.082239e+000
      vertex  1.436177e+000  9.334956e-001  1.306869e+000
      vertex  1.353512e+000  3.597120e-001  1.522428e+000
    endloop
  endfacet
  facet normal  6.685363e-001 -4.063650e-001 -6.228376e-001
    outer loop
      vertex  1.264601e+000  8.881211e-001  1.082239e+000
      vertex  1.353512e+000  3.597120e-001  1.522428e+000
      vertex  1.196216e+000  3.612479e-001  1.352590e+000
    endloop
  endfacet
  facet normal  7.344609e-001 -1.161109e-001  6.686444e-001
    outer loop
      vertex  1.189015e+000 -7.604552e-007 -1.400000e+000
      vertex  1.355998e+000  4.052517e-001 -1.513047e+000
      vertex  1.198440e+000  4.058975e-001 -1.339868e+000
    endloop
  endfacet
  facet normal  7.067509e-001 -7.067508e-001  3.172480e-002
    outer loop
      vertex  2.500000e+000  2.400000e+000 -1.608143e-015
      vertex  1.500000e+000  1.400000e+000 -3.428898e-016
      vertex  2.438064e+000  2.313240e+000 -5.530316e-001
    endloop
  endfacet
  facet normal  7.051526e-001 -7.085789e-001  2.599488e-002
    outer loop
      vertex  2.438064e+000  2.313240e+000 -5.530316e-001
      vertex  1.500000e+000  1.400000e+000 -3.428898e-016
      vertex  1.807792e+000  1.694582e+000 -3.195317e-001
    endloop
  endfacet
  facet normal  7.163415e-001 -6.895612e-001  1.065837e-001
    outer loop
      vertex  2.438064e+000  2.313240e+000 -5.530316e-001
      vertex  1.807792e+000  1.694582e+000 -3.195317e-001
      vertex  2.279128e+000  2.074807e+000 -1.027413e+000
    endloop
  endfacet
  facet normal  7.056366e-001 -7.025102e-001  9.250066e-002
    outer loop
      vertex  2.279128e+000  2.074807e+000 -1.027413e+000
      vertex  1.807792e+000  1.694582e+000 -3.195317e-001
      vertex  1.734873e+000  1.581095e+000 -6.251605e-001
    endloop
  endfacet
  facet normal  7.402954e-001 -6.340873e-001  2.233746e-001
    outer loop
      vertex  2.279128e+000  2.074807e+000 -1.027413e+000
      vertex  1.734873e+000  1.581095e+000 -6.251605e-001
      vertex  2.005232e+000  1.591020e+000 -1.492998e+000
    endloop
  endfacet
  facet normal  6.935489e-001 -6.896757e-001  2.081759e-001
    outer loop
      vertex  2.005232e+000  1.591020e+000 -1.492998e+000
      vertex  1.734873e+000  1.581095e+000 -6.251605e-001
      vertex  1.583960e+000  1.315505e+000 -1.002272e+000
    endloop
  endfacet
  facet normal  7.749234e-001 -5.028566e-001  3.829218e-001
    outer loop
      vertex  2.005232e+000  1.591020e+000 -1.492998e+000
      vertex  1.583960e+000  1.315505e+000 -1.002272e+000
      vertex  1.798505e+000  1.087031e+000 -1.736485e+000
    endloop
  endfacet
  facet normal  6.971152e-001 -6.011127e-001  3.907608e-001
    outer loop
      vertex  1.798505e+000  1.087031e+000 -1.736485e+000
      vertex  1.583960e+000  1.315505e+000 -1.002272e+000
      vertex  1.449560e+000  9.800977e-001 -1.278465e+000
    endloop
  endfacet
  facet normal  7.976682e-001 -2.477151e-001  5.498752e-001
    outer loop
      vertex  1.798505e+000  1.087031e+000 -1.736485e+000
      vertex  1.449560e+000  9.800977e-001 -1.278465e+000
      vertex  1.671113e+000  4.039601e-001 -1.859403e+000
    endloop
  endfacet
  facet normal  6.872203e-001 -3.675551e-001  6.266032e-001
    outer loop
      vertex  1.671113e+000  4.039601e-001 -1.859403e+000
      vertex  1.449560e+000  9.800977e-001 -1.278465e+000
      vertex  1.355998e+000  4.052517e-001 -1.513047e+000
    endloop
  endfacet
  facet normal  7.390206e-001 -3.975778e-002  6.725086e-001
    outer loop
      vertex  1.671113e+000  4.039601e-001 -1.859403e+000
      vertex  1.355998e+000  4.052517e-001 -1.513047e+000
      vertex  1.659123e+000  0.000000e+000 -1.870110e+000
    endloop
  endfacet
  facet normal  7.039972e-001 -9.369728e-002  7.039949e-001
    outer loop
      vertex  1.659123e+000  0.000000e+000 -1.870110e+000
      vertex  1.355998e+000  4.052517e-001 -1.513047e+000
      vertex  1.189015e+000 -7.604552e-007 -1.400000e+000
    endloop
  endfacet
  facet normal  6.648284e-001 -4.360937e-001  6.064861e-001
    outer loop
      vertex  1.198440e+000  4.058975e-001 -1.339868e+000
      vertex  1.355998e+000  4.052517e-001 -1.513047e+000
      vertex  1.275087e+000  9.266309e-001 -1.049455e+000
    endloop
  endfacet
  facet normal  7.847551e-001 -3.393719e-001  5.186388e-001
    outer loop
      vertex  1.275087e+000  9.266309e-001 -1.049455e+000
      vertex  1.355998e+000  4.052517e-001 -1.513047e+000
      vertex  1.449560e+000  9.800977e-001 -1.278465e+000
    endloop
  endfacet
  facet normal  6.610289e-001 -6.645426e-001  3.484597e-001
    outer loop
      vertex  1.275087e+000  9.266309e-001 -1.049455e+000
      vertex  1.449560e+000  9.800977e-001 -1.278465e+000
      vertex  1.373323e+000  1.177747e+000 -7.569093e-001
    endloop
  endfacet
  facet normal  7.534826e-001 -5.707152e-001  3.264169e-001
    outer loop
      vertex  1.373323e+000  1.177747e+000 -7.569093e-001
      vertex  1.449560e+000  9.800977e-001 -1.278465e+000
      vertex  1.583960e+000  1.315505e+000 -1.002272e+000
    endloop
  endfacet
  facet normal  6.660975e-001 -7.277884e-001  1.632117e-001
    outer loop
      vertex  1.373323e+000  1.177747e+000 -7.569093e-001
      vertex  1.583960e+000  1.315505e+000 -1.002272e+000
      vertex  1.462746e+000  1.334239e+000 -4.240344e-001
    endloop
  endfacet
  facet normal  7.291481e-001 -6.617900e-001  1.742904e-001
    outer loop
      vertex  1.462746e+000  1.334239e+000 -4.240344e-001
      vertex  1.583960e+000  1.315505e+000 -1.002272e+000
      vertex  1.734873e+000  1.581095e+000 -6.251605e-001
    endloop
  endfacet
  facet normal  6.980826e-001 -7.125972e-001  6.989898e-002
    outer loop
      vertex  1.462746e+000  1.334239e+000 -4.240344e-001
      vertex  1.734873e+000  1.581095e+000 -6.251605e-001
      vertex  1.492648e+000  1.385234e+000 -2.027973e-001
    endloop
  endfacet
  facet normal  7.141448e-001 -6.945078e-001  8.749924e-002
    outer loop
      vertex  1.492648e+000  1.385234e+000 -2.027973e-001
      vertex  1.734873e+000  1.581095e+000 -6.251605e-001
      vertex  1.807792e+000  1.694582e+000 -3.195317e-001
    endloop
  endfacet
  facet normal  7.051694e-001 -7.085609e-001  2.602777e-002
    outer loop
      vertex  1.492648e+000  1.385234e+000 -2.027973e-001
      vertex  1.807792e+000  1.694582e+000 -3.195317e-001
      vertex  1.500000e+000  1.400000e+000 -3.428898e-016
    endloop
  endfacet
  facet normal  -0.000000e+000  1.000000e+000  0.000000e+000
    outer loop
      vertex  4.223093e-001  2.250000e+001 -1.439324e+000
      vertex -7.191383e-001  2.250000e+001 -1.316374e+000
      vertex  1.316374e+000  2.250000e+001 -7.191383e-001
    endloop
  endfacet
  facet normal  0.000000e+000  1.000000e+000  0.000000e+000
    outer loop
      vertex  1.316374e+000  2.250000e+001 -7.191383e-001
      vertex -7.191383e-001  2.250000e+001 -1.316374e+000
      vertex -1.439324e+000  2.250000e+001 -4.223093e-001
    endloop
  endfacet
  facet normal  -0.000000e+000  1.000000e+000  0.000000e+000
    outer loop
      vertex  1.316374e+000  2.250000e+001 -7.191383e-001
      vertex -1.439324e+000  2.250000e+001 -4.223093e-001
      vertex  1.439324e+000  2.250000e+001  4.223093e-001
    endloop
  endfacet
  facet normal  0.000000e+000  1.000000e+000  0.000000e+000
    outer loop
      vertex  1.439324e+000  2.250000e+001  4.223093e-001
      vertex -1.439324e+000  2.250000e+001 -4.223093e-001
      vertex -1.316374e+000  2.250000e+001  7.191383e-001
    endloop
  endfacet
  facet normal  -0.000000e+000  1.000000e+000  0.000000e+000
    outer loop
      vertex  1.439324e+000  2.250000e+001  4.223093e-001
      vertex -1.316374e+000  2.250000e+001  7.191383e-001
      vertex  7.191383e-001  2.250000e+001  1.316374e+000
    endloop
  endfacet
  facet normal  0.000000e+000  1.000000e+000  0.000000e+000
    outer loop
      vertex  7.191383e-001  2.250000e+001  1.316374e+000
      vertex -1.316374e+000  2.250000e+001  7.191383e-001
      vertex -4.223093e-001  2.250000e+001  1.439324e+000
    endloop
  endfacet
endsolid CATIA STL
