<?xml version="1.0" encoding="utf-8" ?><!DOCTYPE svg PUBLIC "-//W3C//DTD SVG 1.1//EN" "http://www.w3.org/Graphics/SVG/1.1/DTD/svg11.dtd" 
[ <!ATTLIST svg 
  xmlns:dsy CDATA #FIXED "http://www.3ds.com/print"  
    dsy:text-version CDATA #IMPLIED > 

  <!ATTLIST text 
  xmlns:dsy CDATA #FIXED "http://www.3ds.com/print" 
    dsy:text-version CDATA #IMPLIED > 
]><svg xmlns="http://www.w3.org/2000/svg" xmlns:dsy="http://www.3ds.com/print" dsy:text-version="18000" width="297" height="210" viewBox="0 0 297 210" version="1.1"><g stroke="rgb(0, 0, 0)" stroke-width="0.13" stroke-linecap="butt" stroke-linejoin="miter" fill="none"><path d="M 70.1856 57.1952 L 97.5892 57.1952"/><path d="M 79.1856 18.1952 L 97.5892 18.1952"/><path d="M 136.266 62.6623 L 136.266 34.3094"/><path d="M 194.266 62.6623 L 194.266 34.3094"/><path d="M 254.461 59.9167 L 272.409 59.9167"/><path d="M 234.461 29.9167 L 272.409 29.9167"/><path d="M 239.449 141.912 L 239.449 160.608"/><path d="M 249.449 141.912 L 249.449 160.608"/><path d="M 120.194 116.85 L 140.551 116.85"/><path d="M 120.194 108.85 L 140.551 108.85"/><path d="M 152.543 168.626 L 138.303 168.626"/><path d="M 152.543 163.626 L 138.303 163.626"/><path d="M 63.3813 170.399 L 47.4461 170.399"/><path d="M 65.8813 165.399 L 47.4461 165.399"/></g><g stroke="rgb(0, 0, 0)" stroke-width="0.35" stroke-linecap="butt" stroke-linejoin="miter" fill="none"><path d="M 32.0072 26.0848 L 22.0578 19.1025"/><path d="M 42.6818 39.0223 L 35.376 38.5628"/><path d="M 35.376 38.5628 A 4.61162 4.61162 0 0 0 33.4141 47.463"/><path d="M 38.1765 49.3163 L 33.4141 47.463"/><path d="M 19.1856 54.1952 L 28.1856 54.1952"/><path d="M 15.8765 45.4469 A 5 5 0 0 0 19.1856 54.1952"/><path d="M 19.4253 42.3141 L 15.8765 45.4469"/><path d="M 19.4253 42.3141 A 8.16199 8.16199 0 0 0 19.4253 30.0764"/><path d="M 19.4253 30.0764 L 15.8765 26.9436"/><path d="M 22.0578 19.1025 A 5 5 0 0 0 15.8765 26.9436"/><circle cx="19.1856" cy="49.1952" r="1.35"/><circle cx="19.1856" cy="23.1952" r="1.35"/><path d="M 80.4946 26.9436 A 5 5 0 0 0 74.3134 19.1025"/><path d="M 62.9571 47.463 A 4.61162 4.61162 0 0 0 60.9951 38.5628"/><path d="M 68.1856 54.1952 L 77.1856 54.1952"/><path d="M 77.1856 54.1952 A 5 5 0 0 0 80.4946 45.4469"/><path d="M 76.9459 42.3141 L 80.4946 45.4469"/><path d="M 76.9459 30.0764 A 8.16199 8.16199 0 0 0 76.9459 42.3141"/><path d="M 76.9459 30.0764 L 80.4946 26.9436"/><circle cx="77.1856" cy="49.1952" r="1.35"/><circle cx="77.1856" cy="23.1952" r="1.35"/><path d="M 64.3639 26.0848 L 74.3134 19.1025"/><path d="M 53.6894 39.0223 L 60.9951 38.5628"/><path d="M 58.1946 49.3163 L 62.9571 47.463"/><path d="M 32.0072 26.0848 A 28.1637 28.1637 0 0 0 64.3639 26.0848"/><path d="M 28.1856 57.1952 L 68.1856 57.1952"/><path d="M 38.1765 49.3163 A 27.5988 27.5988 0 0 0 58.1946 49.3163"/><path d="M 42.6818 39.0223 A 87.6788 87.6788 0 0 0 53.6894 39.0223"/><path d="M 68.1856 54.1952 L 68.1856 57.1952"/><path d="M 28.1856 54.1952 L 28.1856 57.1952"/><path d="M 140.266 60.6623 A 4 4 0 0 0 140.266 68.6623"/><path d="M 140.266 68.6623 L 190.266 68.6623"/><path d="M 190.266 68.6623 A 4 4 0 0 0 190.266 60.6623"/><path d="M 140.266 60.6623 L 190.266 60.6623"/><circle cx="190.266" cy="64.6623" r="1.35001"/><circle cx="140.266" cy="64.6623" r="1.35001"/><circle cx="232.461" cy="34.9167" r="1.34999"/><circle cx="252.461" cy="54.9167" r="1.34999"/><circle cx="232.461" cy="54.9167" r="2.5"/><path d="M 237.461 44.9167 A 5 5 0 0 0 242.461 49.9167"/><path d="M 242.461 49.9167 L 252.461 49.9167"/><path d="M 252.461 59.9167 A 5 5 0 0 0 252.461 49.9167"/><path d="M 252.461 59.9167 L 232.461 59.9167"/><path d="M 227.461 54.9167 A 5 5 0 0 0 232.461 59.9167"/><path d="M 237.461 34.9167 L 237.461 44.9167"/><path d="M 237.461 34.9167 A 5 5 0 1 0 227.461 34.9167"/><path d="M 227.461 54.9167 L 227.461 34.9167"/><circle cx="244.449" cy="139.912" r="2.5"/><circle cx="244.449" cy="119.912" r="1.35001"/><path d="M 249.449 119.912 A 5 5 0 1 0 239.449 119.912"/><path d="M 249.449 119.912 L 249.449 139.912"/><path d="M 239.449 139.912 A 5 5 0 1 0 249.449 139.912"/><path d="M 239.449 139.912 L 239.449 119.912"/><path d="M 62.1938 108.85 A 60 60 0 0 0 102.194 108.85"/><circle cx="108.194" cy="112.85" r="1.34999"/><circle cx="46.1939" cy="112.85" r="1.34999"/><circle cx="56.1939" cy="112.85" r="1.34999"/><circle cx="118.194" cy="112.85" r="1.34999"/><path d="M 118.194 116.85 A 3.99999 3.99999 0 0 0 118.194 108.85"/><path d="M 118.194 108.85 L 102.194 108.85"/><path d="M 46.1939 116.85 L 118.194 116.85"/><path d="M 46.1939 108.85 A 3.99999 3.99999 0 0 0 46.1939 116.85"/><path d="M 46.1939 108.85 L 62.1939 108.85"/><circle cx="186.543" cy="166.126" r="1.3"/><circle cx="154.543" cy="166.126" r="1.3"/><path d="M 186.543 168.626 A 2.5 2.5 0 0 0 186.543 163.626"/><path d="M 154.543 163.626 L 186.543 163.626"/><path d="M 154.543 163.626 A 2.5 2.5 0 0 0 154.543 168.626"/><path d="M 186.543 168.626 L 154.543 168.626"/><circle cx="99.8813" cy="167.899" r="1.3"/><circle cx="67.8813" cy="167.899" r="1.3"/><path d="M 99.8813 170.399 A 2.5 2.5 0 0 0 99.8813 165.399"/><path d="M 67.8813 165.399 L 99.8813 165.399"/><path d="M 67.8813 165.399 A 2.5 2.5 0 0 0 67.8813 170.399"/><path d="M 99.8813 170.399 L 67.8813 170.399"/></g><g stroke="rgb(0, 0, 0)" stroke-width="0.13" stroke-linecap="butt" stroke-linejoin="miter" fill="none"><path d="M 92.4898 40.8341 L 92.5251 40.8341 L 93.0092 40.7534 L 93.3724 40.5164 L 93.6043 40.1432 L 93.6901 39.649 L 93.6043 39.1245 L 93.3824 38.7311 L 93.0294 38.4789 L 92.5755 38.3882 L 92.278 38.4285 L 92.0359 38.5395 L 91.8493 38.721 L 91.7131 38.9631 L 91.4408 38.6353 L 91.0071 38.5193 L 90.6137 38.5949 L 90.3162 38.8118 L 90.1296 39.1648 L 90.064 39.649 L 90.1447 40.1029 L 90.3666 40.4509 L 90.7196 40.6778 L 91.1886 40.7534 L 91.2239 40.7534 L 91.2239 40.3046 L 90.9012 40.2643 L 90.6692 40.1331 L 90.528 39.9213 L 90.4775 39.6238 L 90.5179 39.3615 L 90.6238 39.1699 L 90.7953 39.0539 L 91.0273 39.0085 L 91.2744 39.0539 L 91.4408 39.1749 L 91.5417 39.3867 L 91.5719 39.6742 L 91.5669 39.8709 L 91.9653 39.8709 L 91.9552 39.6238 L 92.0006 39.306 L 92.1216 39.069 L 92.3183 38.9278 L 92.5755 38.8774 L 92.868 38.9328 L 93.0849 39.0791 L 93.2211 39.3111 L 93.2664 39.6187 L 93.216 39.9364 L 93.0647 40.1684 L 92.8226 40.3147 L 92.4898 40.3702 L 92.4898 40.8341 L 92.4898 40.8341 z M 92.7218 37.0376 L 93.1202 36.9619 L 93.4278 36.7451 L 93.6195 36.4021 L 93.6901 35.9483 L 93.6548 35.6507 L 93.564 35.3834 L 93.4077 35.1565 L 93.1858 34.9648 L 92.9084 34.8135 L 92.5654 34.7026 L 92.1721 34.637 L 91.7182 34.6118 L 91.0071 34.6975 L 90.4876 34.9447 L 90.1749 35.338 L 90.064 35.8777 L 90.1548 36.3719 L 90.3969 36.7451 L 90.7701 36.9872 L 91.2391 37.0679 L 91.7232 36.9872 L 92.0914 36.7501 L 92.3234 36.3971 L 92.399 35.9483 L 92.3032 35.4742 L 92.0107 35.1161 L 92.5705 35.1968 L 92.9689 35.3582 L 93.2059 35.6053 L 93.2816 35.9432 L 93.2463 36.2055 L 93.1353 36.3971 L 92.9588 36.5232 L 92.7218 36.5736 L 92.7218 37.0376 L 92.7218 37.0376 z M 91.234 36.5787 L 90.9213 36.5282 L 90.6742 36.387 L 90.5179 36.1651 L 90.4624 35.8777 L 90.5179 35.5801 L 90.6742 35.3531 L 90.9163 35.2119 L 91.229 35.1565 L 91.5467 35.2119 L 91.7837 35.3531 L 91.93 35.5851 L 91.9804 35.8928 L 91.93 36.1702 L 91.7837 36.387 L 91.5518 36.5282 L 91.234 36.5787 L 91.234 36.5787 z" stroke="none" fill-rule="evenodd" fill="rgb(0, 0, 0)"/><path d="M 96.1068 20.1271 L 95.5892 18.1952 L 95.0716 20.1271"/><path d="M 95.0716 55.2634 L 95.5892 57.1952 L 96.1068 55.2634"/><path d="M 95.5892 57.1952 L 95.5892 18.1952"/></g><g stroke="rgb(0, 0, 0)" stroke-width="0.13" stroke-linecap="butt" stroke-linejoin="miter" fill="none"><path d="M 162.147 33.3966 L 162.258 33.8101 L 162.505 34.1329 L 162.868 34.3346 L 163.332 34.4102 L 163.842 34.3195 L 164.24 34.0724 L 164.492 33.679 L 164.588 33.1747 L 164.502 32.7056 L 164.26 32.3375 L 163.882 32.1004 L 163.393 32.0147 L 163.014 32.0752 L 162.722 32.2417 L 162.863 31.2986 L 164.396 31.2986 L 164.396 30.885 L 162.525 30.885 L 162.248 32.7409 L 162.651 32.7409 L 162.944 32.5039 L 163.317 32.4182 L 163.64 32.4736 L 163.887 32.635 L 164.043 32.8822 L 164.099 33.1999 L 164.043 33.5176 L 163.882 33.7647 L 163.635 33.9211 L 163.317 33.9765 L 163.05 33.9412 L 162.843 33.8252 L 162.692 33.6437 L 162.616 33.3966 L 162.147 33.3966 L 162.147 33.3966 z M 166.508 32.4232 L 166.251 32.5644 L 166.075 32.7611 L 165.964 33.0082 L 165.928 33.3058 L 166.009 33.7546 L 166.241 34.1026 L 166.619 34.3245 L 167.134 34.4102 L 167.643 34.3245 L 168.021 34.1026 L 168.253 33.7546 L 168.339 33.3058 L 168.299 33.0082 L 168.193 32.7611 L 168.011 32.5644 L 167.759 32.4232 L 167.961 32.3022 L 168.102 32.1358 L 168.188 31.934 L 168.218 31.6869 L 168.137 31.3288 L 167.926 31.0414 L 167.583 30.8548 L 167.134 30.7842 L 166.68 30.8548 L 166.337 31.0414 L 166.12 31.3288 L 166.044 31.6869 L 166.07 31.934 L 166.155 32.1358 L 166.508 32.4232 L 166.508 32.4232 z M 166.413 33.2957 L 166.458 33.0284 L 166.604 32.8267 L 166.831 32.6956 L 167.134 32.6502 L 167.431 32.6956 L 167.658 32.8267 L 167.805 33.0284 L 167.855 33.2957 L 167.805 33.5832 L 167.658 33.8 L 167.431 33.9412 L 167.134 33.9866 L 166.831 33.9412 L 166.604 33.8 L 166.458 33.5832 L 166.413 33.2957 L 166.413 33.2957 z M 166.524 31.7272 L 166.564 31.5054 L 166.685 31.3339 L 166.877 31.228 L 167.134 31.1876 L 167.386 31.228 L 167.578 31.3339 L 167.699 31.5054 L 167.744 31.7272 L 167.699 31.9542 L 167.578 32.1307 L 167.386 32.2467 L 167.134 32.282 L 166.877 32.2417 L 166.685 32.1307 L 166.564 31.9542 L 166.524 31.7272 L 166.524 31.7272 z" stroke="none" fill-rule="evenodd" fill="rgb(0, 0, 0)"/><path d="M 138.198 35.7917 L 136.266 36.3094 L 138.198 36.827"/><path d="M 192.334 36.827 L 194.266 36.3094 L 192.334 35.7917"/><path d="M 136.266 36.3094 L 194.266 36.3094"/></g><g stroke="rgb(0, 0, 0)" stroke-width="0.13" stroke-linecap="butt" stroke-linejoin="miter" fill="none"><path d="M 267.31 48.0556 L 267.345 48.0556 L 267.829 47.9749 L 268.192 47.7378 L 268.424 47.3646 L 268.51 46.8704 L 268.424 46.3459 L 268.202 45.9525 L 267.849 45.7004 L 267.396 45.6096 L 267.098 45.6499 L 266.856 45.7609 L 266.669 45.9424 L 266.533 46.1845 L 266.261 45.8567 L 265.827 45.7407 L 265.434 45.8164 L 265.136 46.0332 L 264.95 46.3862 L 264.884 46.8704 L 264.965 47.3243 L 265.187 47.6723 L 265.54 47.8992 L 266.009 47.9749 L 266.044 47.9749 L 266.044 47.526 L 265.721 47.4857 L 265.489 47.3546 L 265.348 47.1427 L 265.298 46.8452 L 265.338 46.5829 L 265.444 46.3913 L 265.615 46.2753 L 265.847 46.2299 L 266.094 46.2753 L 266.261 46.3963 L 266.362 46.6082 L 266.392 46.8956 L 266.387 47.0923 L 266.785 47.0923 L 266.775 46.8452 L 266.821 46.5275 L 266.942 46.2904 L 267.138 46.1492 L 267.396 46.0988 L 267.688 46.1543 L 267.905 46.3005 L 268.041 46.5325 L 268.086 46.8401 L 268.036 47.1579 L 267.885 47.3898 L 267.643 47.5361 L 267.31 47.5916 L 267.31 48.0556 L 267.31 48.0556 z M 266.7 44.2641 L 267.491 44.1884 L 268.056 43.9514 L 268.399 43.5731 L 268.51 43.0486 L 268.399 42.5292 L 268.056 42.1509 L 267.491 41.919 L 266.7 41.8383 L 265.913 41.919 L 265.6 42.0148 L 265.343 42.1509 L 265 42.5292 L 264.884 43.0486 L 265 43.5731 L 265.348 43.9514 L 265.913 44.1884 L 266.7 44.2641 L 266.7 44.2641 z M 266.7 43.7799 L 266.089 43.7396 L 265.651 43.6135 L 265.393 43.3865 L 265.303 43.0486 L 265.393 42.7158 L 265.651 42.4888 L 266.089 42.3628 L 266.7 42.3224 L 267.315 42.3628 L 267.754 42.4888 L 268.011 42.7158 L 268.097 43.0486 L 268.011 43.3865 L 267.754 43.6135 L 267.315 43.7396 L 266.7 43.7799 L 266.7 43.7799 z" stroke="none" fill-rule="evenodd" fill="rgb(0, 0, 0)"/><path d="M 270.927 31.8485 L 270.409 29.9167 L 269.892 31.8485"/><path d="M 269.892 57.9848 L 270.409 59.9167 L 270.927 57.9848"/><path d="M 270.409 59.9167 L 270.409 29.9167"/></g><g stroke="rgb(0, 0, 0)" stroke-width="0.13" stroke-linecap="butt" stroke-linejoin="miter" fill="none"><path d="M 242.49 156.608 L 242.949 156.608 L 242.949 153.083 L 242.606 153.083 L 242.515 153.39 L 242.334 153.597 L 242.056 153.718 L 241.673 153.758 L 241.673 154.116 L 242.49 154.116 L 242.49 156.608 L 242.49 156.608 z M 245.102 154.898 L 245.177 155.69 L 245.414 156.255 L 245.793 156.598 L 246.317 156.709 L 246.836 156.598 L 247.215 156.255 L 247.447 155.69 L 247.527 154.898 L 247.447 154.111 L 247.351 153.799 L 247.215 153.542 L 246.836 153.199 L 246.317 153.083 L 245.793 153.199 L 245.414 153.547 L 245.177 154.111 L 245.102 154.898 L 245.102 154.898 z M 245.586 154.898 L 245.626 154.288 L 245.752 153.849 L 245.979 153.592 L 246.317 153.501 L 246.65 153.592 L 246.877 153.849 L 247.003 154.288 L 247.043 154.898 L 247.003 155.513 L 246.877 155.952 L 246.65 156.209 L 246.317 156.295 L 245.979 156.209 L 245.752 155.952 L 245.626 155.513 L 245.586 154.898 L 245.586 154.898 z" stroke="none" fill-rule="evenodd" fill="rgb(0, 0, 0)"/><path d="M 251.381 158.09 L 249.449 158.608 L 251.381 159.125"/><path d="M 237.517 159.125 L 239.449 158.608 L 237.517 158.09"/><path d="M 234.449 158.608 L 254.449 158.608"/></g><g stroke="rgb(0, 0, 0)" stroke-width="0.13" stroke-linecap="butt" stroke-linejoin="miter" fill="none"><path d="M 134.665 113.476 L 134.806 113.733 L 135.003 113.91 L 135.25 114.021 L 135.548 114.056 L 135.997 113.975 L 136.345 113.743 L 136.567 113.365 L 136.652 112.85 L 136.567 112.341 L 136.345 111.963 L 135.997 111.731 L 135.548 111.645 L 135.25 111.685 L 135.003 111.791 L 134.806 111.973 L 134.665 112.225 L 134.544 112.023 L 134.378 111.882 L 134.176 111.796 L 133.929 111.766 L 133.571 111.847 L 133.283 112.059 L 133.097 112.402 L 133.026 112.85 L 133.097 113.304 L 133.283 113.647 L 133.571 113.864 L 133.929 113.94 L 134.176 113.915 L 134.378 113.829 L 134.665 113.476 L 134.665 113.476 z M 135.538 113.572 L 135.27 113.526 L 135.069 113.38 L 134.938 113.153 L 134.892 112.85 L 134.938 112.553 L 135.069 112.326 L 135.27 112.18 L 135.538 112.129 L 135.825 112.18 L 136.042 112.326 L 136.183 112.553 L 136.229 112.85 L 136.183 113.153 L 136.042 113.38 L 135.825 113.526 L 135.538 113.572 L 135.538 113.572 z M 133.969 113.461 L 133.747 113.42 L 133.576 113.299 L 133.47 113.108 L 133.43 112.85 L 133.47 112.598 L 133.576 112.407 L 133.747 112.286 L 133.969 112.24 L 134.196 112.286 L 134.373 112.407 L 134.489 112.598 L 134.524 112.85 L 134.484 113.108 L 134.373 113.299 L 134.196 113.42 L 133.969 113.461 L 133.969 113.461 z" stroke="none" fill-rule="evenodd" fill="rgb(0, 0, 0)"/><path d="M 138.034 106.919 L 138.551 108.85 L 139.069 106.919"/><path d="M 139.069 118.782 L 138.551 116.85 L 138.034 118.782"/><path d="M 138.551 121.85 L 138.551 103.85"/></g><g stroke="rgb(0, 0, 0)" stroke-width="0.13" stroke-linecap="butt" stroke-linejoin="miter" fill="none"><path d="M 137.391 179.853 L 137.804 179.742 L 138.127 179.495 L 138.329 179.131 L 138.404 178.667 L 138.314 178.158 L 138.066 177.76 L 137.673 177.507 L 137.169 177.412 L 136.7 177.497 L 136.332 177.739 L 136.094 178.118 L 136.009 178.607 L 136.069 178.985 L 136.236 179.278 L 135.293 179.136 L 135.293 177.603 L 134.879 177.603 L 134.879 179.474 L 136.735 179.752 L 136.735 179.348 L 136.498 179.056 L 136.412 178.683 L 136.468 178.36 L 136.629 178.113 L 136.876 177.956 L 137.194 177.901 L 137.512 177.956 L 137.759 178.118 L 137.915 178.365 L 137.971 178.683 L 137.935 178.95 L 137.819 179.157 L 137.638 179.308 L 137.391 179.384 L 137.391 179.853 L 137.391 179.853 z" stroke="none" fill-rule="evenodd" fill="rgb(0, 0, 0)"/><path d="M 139.786 161.695 L 140.303 163.626 L 140.821 161.695"/><path d="M 140.821 170.558 L 140.303 168.626 L 139.786 170.558"/><path d="M 140.303 180.12 L 140.303 158.626"/></g><g stroke="rgb(0, 0, 0)" stroke-width="0.13" stroke-linecap="butt" stroke-linejoin="miter" fill="none"><path d="M 46.5333 155.647 L 46.9468 155.536 L 47.2696 155.289 L 47.4713 154.926 L 47.5469 154.462 L 47.4562 153.952 L 47.2091 153.554 L 46.8157 153.302 L 46.3114 153.206 L 45.8423 153.292 L 45.4742 153.534 L 45.2371 153.912 L 45.1514 154.401 L 45.2119 154.779 L 45.3784 155.072 L 44.4353 154.931 L 44.4353 153.398 L 44.0217 153.398 L 44.0217 155.269 L 45.8776 155.546 L 45.8776 155.143 L 45.6406 154.85 L 45.5549 154.477 L 45.6103 154.154 L 45.7717 153.907 L 46.0188 153.751 L 46.3366 153.695 L 46.6543 153.751 L 46.9014 153.912 L 47.0578 154.159 L 47.1132 154.477 L 47.0779 154.744 L 46.9619 154.951 L 46.7804 155.102 L 46.5333 155.178 L 46.5333 155.647 L 46.5333 155.647 z" stroke="none" fill-rule="evenodd" fill="rgb(0, 0, 0)"/><path d="M 49.9637 172.33 L 49.4461 170.399 L 48.9284 172.33"/><path d="M 48.9284 163.467 L 49.4461 165.399 L 49.9637 163.467"/><path d="M 49.4461 175.399 L 49.4461 152.878"/></g></svg>