<?xml version="1.0" encoding="utf-8" ?><!DOCTYPE svg PUBLIC "-//W3C//DTD SVG 1.1//EN" "http://www.w3.org/Graphics/SVG/1.1/DTD/svg11.dtd" 
[ <!ATTLIST svg 
  xmlns:dsy CDATA #FIXED "http://www.3ds.com/print"  
    dsy:text-version CDATA #IMPLIED > 

  <!ATTLIST text 
  xmlns:dsy CDATA #FIXED "http://www.3ds.com/print" 
    dsy:text-version CDATA #IMPLIED > 
]><svg xmlns="http://www.w3.org/2000/svg" xmlns:dsy="http://www.3ds.com/print" dsy:text-version="18000" width="297" height="210" viewBox="0 0 297 210" version="1.1"><g stroke="rgb(0, 0, 0)" stroke-width="0.13" stroke-linecap="butt" stroke-linejoin="miter" fill="none"><path d="M 117.5 113 L 117.5 56.8061"/><path d="M 179.5 113 L 179.5 56.8061"/></g><g stroke="rgb(0, 0, 0)" stroke-width="0.35" stroke-linecap="butt" stroke-linejoin="miter" fill="none"><path d="M 164.097 96.6298 A 3.5 3.5 0 1 0 157.746 96.288"/><path d="M 153.887 100.422 L 157.746 96.288"/><path d="M 138.998 109.112 A 30 30 0 0 0 153.887 100.422"/><path d="M 123.722 112.8 L 138.998 109.112"/><path d="M 123.722 112.8 A 3.5 3.5 0 1 0 124.426 115.716"/><path d="M 124.426 115.716 L 139.702 112.028"/><path d="M 139.702 112.028 A 33 33 0 0 0 156.08 102.469"/><path d="M 156.08 102.469 L 159.939 98.3352"/><path d="M 159.939 98.3352 A 3.5 3.5 0 0 0 161.697 98.4298"/><path d="M 161.697 98.4298 L 172.903 113.37"/><path d="M 172.903 113.37 A 3.5 3.5 0 1 0 175.303 111.57"/><path d="M 164.097 96.6298 L 175.303 111.57"/><circle cx="161" cy="95" r="1.60001"/><circle cx="176" cy="115" r="1.60001"/><circle cx="121" cy="115" r="1.60001"/><circle cx="226.045" cy="100.65" r="3.5"/><circle cx="226.045" cy="100.65" r="1.59999"/></g><g stroke="rgb(0, 0, 0)" stroke-width="0.13" stroke-linecap="butt" stroke-linejoin="miter" fill="none"><path d="M 147.842 54.2492 L 147.747 53.8407 L 147.525 53.5381 L 147.182 53.3465 L 146.738 53.2809 L 146.44 53.3162 L 146.183 53.412 L 145.956 53.5684 L 145.765 53.7903 L 145.613 54.0676 L 145.502 54.4055 L 145.432 54.804 L 145.412 55.2528 L 145.492 55.9689 L 145.739 56.4884 L 146.138 56.8011 L 146.682 56.907 L 147.172 56.8162 L 147.545 56.5792 L 147.787 56.206 L 147.873 55.7319 L 147.787 55.2528 L 147.555 54.8847 L 147.197 54.6527 L 146.753 54.572 L 146.274 54.6728 L 145.916 54.9603 L 145.992 54.4055 L 146.153 54.0071 L 146.4 53.7701 L 146.743 53.6894 L 146.995 53.7298 L 147.187 53.8357 L 147.313 54.0122 L 147.378 54.2492 L 147.842 54.2492 L 147.842 54.2492 z M 147.383 55.737 L 147.328 56.0547 L 147.187 56.2968 L 146.96 56.4581 L 146.677 56.5086 L 146.38 56.4581 L 146.153 56.3018 L 146.007 56.0597 L 145.961 55.742 L 146.012 55.4293 L 146.153 55.1923 L 146.385 55.041 L 146.698 54.9855 L 146.97 55.041 L 147.187 55.1872 L 147.328 55.4243 L 147.383 55.737 L 147.383 55.737 z M 149.137 56.8061 L 151.543 56.8061 L 151.543 56.3724 L 149.642 56.3724 L 149.748 56.1354 L 149.929 55.9387 L 150.489 55.5806 L 150.787 55.4293 L 151.119 55.2125 L 151.356 54.9603 L 151.493 54.6628 L 151.543 54.3249 L 151.457 53.9012 L 151.22 53.5684 L 150.857 53.3566 L 150.388 53.2809 L 149.904 53.3666 L 149.536 53.6037 L 149.299 53.9819 L 149.218 54.4812 L 149.218 54.5518 L 149.677 54.5518 L 149.677 54.5115 L 149.722 54.1685 L 149.859 53.9164 L 150.076 53.755 L 150.363 53.6995 L 150.655 53.7499 L 150.872 53.876 L 151.014 54.0727 L 151.064 54.3198 L 151.029 54.5518 L 150.933 54.7485 L 150.771 54.92 L 150.55 55.0713 L 150.252 55.2326 L 149.758 55.5453 L 149.41 55.8782 L 149.203 56.2816 L 149.137 56.791 L 149.137 56.8061 L 149.137 56.8061 z" stroke="none" fill-rule="evenodd" fill="rgb(0, 0, 0)"/><path d="M 119.432 58.2885 L 117.5 58.8061 L 119.432 59.3238"/><path d="M 177.568 59.3238 L 179.5 58.8061 L 177.568 58.2885"/><path d="M 117.5 58.8061 L 179.5 58.8061"/></g><g stroke="rgb(0, 0, 0)" stroke-width="0.13" stroke-linecap="butt" stroke-linejoin="miter" fill="none"><path d="M 205.95 102.511 L 206.45 102.414 L 206.455 101.566 L 206.594 100.748 L 206.862 99.9608 L 207.263 99.1946 L 207.184 98.7837 L 204.827 99.2409 L 204.914 99.6914 L 206.796 99.3264 L 206.381 100.1 L 206.105 100.878 L 205.962 101.677 L 205.95 102.511 L 205.95 102.511 z" stroke="none" fill-rule="evenodd" fill="rgb(0, 0, 0)"/></g><g stroke="rgb(0, 0, 0)" stroke-width="0.13" stroke-linecap="butt" stroke-linejoin="miter" fill="none"><path d="M 202.562 103.168 L 202.583 99.5992"/><path d="M 203.833 101.139 L 203.81 101.025 M 203.81 101.025 L 203.709 100.807 M 203.709 100.807 L 203.618 100.646 M 203.618 100.646 L 203.539 100.543 M 203.539 100.543 L 203.391 100.393 M 203.391 100.393 L 203.186 100.255 M 203.186 100.255 L 202.992 100.174 M 202.992 100.174 L 202.866 100.139 M 202.866 100.139 L 202.683 100.115 M 202.683 100.115 L 202.443 100.102 M 202.443 100.102 L 202.328 100.124 M 202.328 100.124 L 202.214 100.146 M 202.214 100.146 L 201.996 100.248 M 201.996 100.248 L 201.835 100.338 M 201.835 100.338 L 201.732 100.418 M 201.732 100.418 L 201.582 100.566 M 201.582 100.566 L 201.444 100.771 M 201.444 100.771 L 201.362 100.965 M 201.362 100.965 L 201.327 101.091 M 201.327 101.091 L 201.303 101.274 M 201.303 101.274 L 201.291 101.514 M 201.291 101.514 L 201.313 101.628 M 201.313 101.628 L 201.335 101.743 M 201.335 101.743 L 201.437 101.961 M 201.437 101.961 L 201.527 102.121 M 201.527 102.121 L 201.607 102.225 M 201.607 102.225 L 201.755 102.374 M 201.755 102.374 L 201.96 102.513 M 201.96 102.513 L 202.154 102.594 M 202.154 102.594 L 202.28 102.629 M 202.28 102.629 L 202.462 102.653 M 202.462 102.653 L 202.703 102.666 M 202.703 102.666 L 202.817 102.644 M 202.817 102.644 L 202.932 102.621 M 202.932 102.621 L 203.15 102.52 M 203.15 102.52 L 203.31 102.429 M 203.31 102.429 L 203.414 102.35 M 203.414 102.35 L 203.563 102.202 M 203.563 102.202 L 203.702 101.997 M 203.702 101.997 L 203.783 101.803 M 203.783 101.803 L 203.818 101.677 M 203.818 101.677 L 203.842 101.494 M 203.842 101.494 L 203.855 101.254 M 203.855 101.254 L 203.833 101.139"/><path d="M 231.279 99.1071 L 229.481 99.9832 L 231.476 100.123"/><path d="M 220.812 102.193 L 222.609 101.316 L 220.614 101.176"/><path d="M 202.027 105.31 L 234.39 99.0309"/></g></svg>