<?xml version="1.0" encoding="utf-8" ?><!DOCTYPE svg PUBLIC "-//W3C//DTD SVG 1.1//EN" "http://www.w3.org/Graphics/SVG/1.1/DTD/svg11.dtd" 
[ <!ATTLIST svg 
  xmlns:dsy CDATA #FIXED "http://www.3ds.com/print"  
    dsy:text-version CDATA #IMPLIED > 

  <!ATTLIST text 
  xmlns:dsy CDATA #FIXED "http://www.3ds.com/print" 
    dsy:text-version CDATA #IMPLIED > 
]><svg xmlns="http://www.w3.org/2000/svg" xmlns:dsy="http://www.3ds.com/print" dsy:text-version="18000" width="297" height="210" viewBox="0 0 297 210" version="1.1"><g stroke="rgb(0, 0, 0)" stroke-width="0.13" stroke-linecap="butt" stroke-linejoin="miter" fill="none"><path d="M 222.5 176 L 252.935 176"/><path d="M 222.5 34 L 252.935 34"/></g><g stroke="rgb(0, 0, 0)" stroke-width="0.35" stroke-linecap="butt" stroke-linejoin="miter" fill="none"><path d="M 76.5 34 L 220.5 34"/><path d="M 76.5 176 L 76.5 34"/><path d="M 220.5 176 L 76.5 176"/><path d="M 220.5 34 L 220.5 176"/><circle cx="86.5" cy="44" r="1.6"/><circle cx="86.5" cy="166" r="1.6"/><circle cx="141.5" cy="44" r="1.6"/><circle cx="141.5" cy="166" r="1.6"/><path d="M 137 83.7 L 152 83.7"/><path d="M 152 86.5 L 152 83.7"/><path d="M 152 86.5 L 137 86.5"/><path d="M 137 83.7 L 137 86.5"/><path d="M 137 135.5 L 152 135.5"/><path d="M 152 138.3 L 152 135.5"/><path d="M 152 138.3 L 137 138.3"/><path d="M 137 135.5 L 137 138.3"/><path d="M 137 71.5 L 152 71.4999"/><path d="M 152 74.3 L 152 71.4999"/><path d="M 152 74.3 L 137 74.3"/><path d="M 137 71.5 L 137 74.3"/><path d="M 137 123.5 L 152 123.5"/><path d="M 152 126.3 L 152 123.5"/><path d="M 152 126.3 L 137 126.3"/><path d="M 137 123.5 L 137 126.3"/><path d="M 188.4 68 L 210.6 68"/><path d="M 210.6 80 L 210.6 68"/><path d="M 210.6 80 L 188.4 80"/><path d="M 188.4 68 L 188.4 80"/></g><g stroke="rgb(0, 0, 0)" stroke-width="0.13" stroke-linecap="butt" stroke-linejoin="miter" fill="none"><path d="M 248.935 108.827 L 248.935 108.368 L 245.41 108.368 L 245.41 108.711 L 245.718 108.802 L 245.924 108.983 L 246.045 109.261 L 246.086 109.644 L 246.444 109.644 L 246.444 108.827 L 248.935 108.827 L 248.935 108.827 z M 248.935 104.723 L 248.935 104.269 L 248.068 104.269 L 248.068 103.769 L 247.664 103.769 L 247.664 104.269 L 245.511 104.269 L 245.511 104.728 L 247.624 106.261 L 248.068 106.261 L 248.068 104.723 L 248.935 104.723 L 248.935 104.723 z M 247.664 105.837 L 246.096 104.723 L 247.664 104.723 L 247.664 105.837 L 247.664 105.837 z M 248.935 102.495 L 248.935 100.089 L 248.502 100.089 L 248.502 101.99 L 248.265 101.884 L 248.068 101.703 L 247.71 101.143 L 247.558 100.845 L 247.342 100.513 L 247.089 100.276 L 246.792 100.139 L 246.454 100.089 L 246.03 100.175 L 245.698 100.412 L 245.486 100.775 L 245.41 101.244 L 245.496 101.728 L 245.733 102.096 L 246.111 102.333 L 246.61 102.414 L 246.681 102.414 L 246.681 101.955 L 246.641 101.955 L 246.298 101.91 L 246.045 101.773 L 245.884 101.556 L 245.829 101.269 L 245.879 100.977 L 246.005 100.76 L 246.202 100.618 L 246.449 100.568 L 246.681 100.603 L 246.878 100.699 L 247.049 100.861 L 247.2 101.082 L 247.362 101.38 L 247.674 101.874 L 248.007 102.222 L 248.411 102.429 L 248.92 102.495 L 248.935 102.495 L 248.935 102.495 z" stroke="none" fill-rule="evenodd" fill="rgb(0, 0, 0)"/><path d="M 250.418 174.068 L 250.935 176 L 251.453 174.068"/><path d="M 251.453 35.9319 L 250.935 34 L 250.418 35.9319"/><path d="M 250.935 176 L 250.935 34"/></g></svg>