solid CATIA STL
  facet normal -1.486413e-003  1.865705e-001 -9.824405e-001
    outer loop
      vertex -3.873446e+000 -9.999943e+000  1.350000e+000
      vertex  3.891896e+000 -1.054642e+001  1.234471e+000
      vertex -3.888459e+000 -1.049484e+001  1.256040e+000
    endloop
  endfacet
  facet normal  1.512283e-003  5.712438e-001 -8.207791e-001
    outer loop
      vertex -3.888459e+000 -1.049484e+001  1.256040e+000
      vertex  3.891896e+000 -1.054642e+001  1.234471e+000
      vertex  3.936223e+000 -1.096755e+001  9.414580e-001
    endloop
  endfacet
  facet normal -1.284378e-003  5.391939e-001 -8.421807e-001
    outer loop
      vertex -3.888459e+000 -1.049484e+001  1.256040e+000
      vertex  3.936223e+000 -1.096755e+001  9.414580e-001
      vertex -3.931468e+000 -1.093342e+001  9.753104e-001
    endloop
  endfacet
  facet normal  1.139580e-003  8.242392e-001 -5.662408e-001
    outer loop
      vertex -3.931468e+000 -1.093342e+001  9.753104e-001
      vertex  3.936223e+000 -1.096755e+001  9.414580e-001
      vertex  3.978639e+000 -1.122577e+001  5.656700e-001
    endloop
  endfacet
  facet normal -9.401484e-004  8.052920e-001 -5.928777e-001
    outer loop
      vertex -3.931468e+000 -1.093342e+001  9.753104e-001
      vertex  3.978639e+000 -1.122577e+001  5.656700e-001
      vertex -3.975534e+000 -1.120842e+001  6.018587e-001
    endloop
  endfacet
  facet normal  7.573141e-004  9.563479e-001 -2.922297e-001
    outer loop
      vertex -3.975534e+000 -1.120842e+001  6.018587e-001
      vertex  3.978639e+000 -1.122577e+001  5.656700e-001
      vertex  3.997262e+000 -1.133258e+001  2.161867e-001
    endloop
  endfacet
  facet normal -1.585332e-003  9.418626e-001 -3.359946e-001
    outer loop
      vertex -3.975534e+000 -1.120842e+001  6.018587e-001
      vertex  3.997262e+000 -1.133258e+001  2.161867e-001
      vertex -3.994602e+000 -1.131645e+001  2.991172e-001
    endloop
  endfacet
  facet normal  1.178650e-003  9.967687e-001 -8.031555e-002
    outer loop
      vertex -3.994602e+000 -1.131645e+001  2.991172e-001
      vertex  3.997262e+000 -1.133258e+001  2.161867e-001
      vertex  4.000000e+000 -1.135000e+001  1.653219e-016
    endloop
  endfacet
  facet normal  0.000000e+000  9.937665e-001 -1.114809e-001
    outer loop
      vertex -3.994602e+000 -1.131645e+001  2.991172e-001
      vertex  4.000000e+000 -1.135000e+001  1.653219e-016
      vertex -4.000000e+000 -1.135000e+001  1.653219e-016
    endloop
  endfacet
  facet normal  3.056051e-006  2.068744e-001 -9.783674e-001
    outer loop
      vertex  3.891896e+000 -1.054642e+001  1.234471e+000
      vertex -3.873446e+000 -9.999943e+000  1.350000e+000
      vertex  3.873446e+000 -1.000006e+001  1.350000e+000
    endloop
  endfacet
  facet normal -3.056051e-006 -2.068744e-001 -9.783674e-001
    outer loop
      vertex  3.873446e+000 -1.000006e+001  1.350000e+000
      vertex -3.873446e+000 -9.999943e+000  1.350000e+000
      vertex -3.891896e+000 -9.453575e+000  1.234471e+000
    endloop
  endfacet
  facet normal  1.486413e-003 -1.865705e-001 -9.824405e-001
    outer loop
      vertex  3.873446e+000 -1.000006e+001  1.350000e+000
      vertex -3.891896e+000 -9.453575e+000  1.234471e+000
      vertex  3.888459e+000 -9.505162e+000  1.256040e+000
    endloop
  endfacet
  facet normal -1.512283e-003 -5.712438e-001 -8.207791e-001
    outer loop
      vertex  3.888459e+000 -9.505162e+000  1.256040e+000
      vertex -3.891896e+000 -9.453575e+000  1.234471e+000
      vertex -3.936223e+000 -9.032448e+000  9.414580e-001
    endloop
  endfacet
  facet normal  1.284378e-003 -5.391939e-001 -8.421807e-001
    outer loop
      vertex  3.888459e+000 -9.505162e+000  1.256040e+000
      vertex -3.936223e+000 -9.032448e+000  9.414580e-001
      vertex  3.931468e+000 -9.066582e+000  9.753104e-001
    endloop
  endfacet
  facet normal -1.139580e-003 -8.242392e-001 -5.662408e-001
    outer loop
      vertex  3.931468e+000 -9.066582e+000  9.753104e-001
      vertex -3.936223e+000 -9.032448e+000  9.414580e-001
      vertex -3.978639e+000 -8.774228e+000  5.656700e-001
    endloop
  endfacet
  facet normal  9.401484e-004 -8.052920e-001 -5.928777e-001
    outer loop
      vertex  3.931468e+000 -9.066582e+000  9.753104e-001
      vertex -3.978639e+000 -8.774228e+000  5.656700e-001
      vertex  3.975534e+000 -8.791585e+000  6.018587e-001
    endloop
  endfacet
  facet normal -6.350297e-004 -9.489117e-001 -3.155409e-001
    outer loop
      vertex  3.975534e+000 -8.791585e+000  6.018587e-001
      vertex -3.978639e+000 -8.774228e+000  5.656700e-001
      vertex -3.995265e+000 -8.679590e+000  2.811033e-001
    endloop
  endfacet
  facet normal  2.905487e-004 -9.418365e-001 -3.360712e-001
    outer loop
      vertex  3.975534e+000 -8.791585e+000  6.018587e-001
      vertex -3.995265e+000 -8.679590e+000  2.811033e-001
      vertex  3.994598e+000 -8.683558e+000  2.991292e-001
    endloop
  endfacet
  facet normal -2.576365e-004 -9.945056e-001 -1.046832e-001
    outer loop
      vertex  3.994598e+000 -8.683558e+000  2.991292e-001
      vertex -3.995265e+000 -8.679590e+000  2.811033e-001
      vertex -4.000000e+000 -8.650000e+000 -3.306437e-016
    endloop
  endfacet
  facet normal  3.834175e-018 -9.937660e-001 -1.114859e-001
    outer loop
      vertex  3.994598e+000 -8.683558e+000  2.991292e-001
      vertex -4.000000e+000 -8.650000e+000 -3.306437e-016
      vertex  4.000000e+000 -8.650000e+000 -5.551115e-017
    endloop
  endfacet
  facet normal -2.282409e-003 -1.686867e-001  9.856670e-001
    outer loop
      vertex -3.873492e+000 -1.002820e+001 -1.349705e+000
      vertex  3.892178e+000 -9.449590e+000 -1.232700e+000
      vertex -3.887257e+000 -9.524726e+000 -1.263572e+000
    endloop
  endfacet
  facet normal  2.187586e-003 -5.654054e-001  8.248103e-001
    outer loop
      vertex -3.887257e+000 -9.524726e+000 -1.263572e+000
      vertex  3.892178e+000 -9.449590e+000 -1.232700e+000
      vertex  3.933874e+000 -9.049104e+000 -9.582779e-001
    endloop
  endfacet
  facet normal -1.210118e-003 -5.260093e-001  8.504779e-001
    outer loop
      vertex -3.887257e+000 -9.524726e+000 -1.263572e+000
      vertex  3.933874e+000 -9.049104e+000 -9.582779e-001
      vertex -3.929401e+000 -9.081922e+000 -9.897637e-001
    endloop
  endfacet
  facet normal  1.027661e-003 -8.095086e-001  5.871072e-001
    outer loop
      vertex -3.929401e+000 -9.081922e+000 -9.897637e-001
      vertex  3.933874e+000 -9.049104e+000 -9.582779e-001
      vertex  3.975123e+000 -8.793883e+000 -6.064500e-001
    endloop
  endfacet
  facet normal -3.403834e-004 -7.960624e-001  6.052145e-001
    outer loop
      vertex -3.929401e+000 -9.081922e+000 -9.897637e-001
      vertex  3.975123e+000 -8.793883e+000 -6.064500e-001
      vertex -3.973890e+000 -8.800803e+000 -6.200227e-001
    endloop
  endfacet
  facet normal  2.407876e-004 -9.408993e-001  3.386865e-001
    outer loop
      vertex -3.973890e+000 -8.800803e+000 -6.200227e-001
      vertex  3.975123e+000 -8.793883e+000 -6.064500e-001
      vertex  3.994510e+000 -8.684080e+000 -3.014214e-001
    endloop
  endfacet
  facet normal -1.095485e-004 -9.380809e-001  3.464161e-001
    outer loop
      vertex -3.973890e+000 -8.800803e+000 -6.200227e-001
      vertex  3.994510e+000 -8.684080e+000 -3.014214e-001
      vertex -3.994243e+000 -8.685652e+000 -3.082037e-001
    endloop
  endfacet
  facet normal  1.001064e-004 -9.936689e-001  1.123483e-001
    outer loop
      vertex -3.994243e+000 -8.685652e+000 -3.082037e-001
      vertex  3.994510e+000 -8.684080e+000 -3.014214e-001
      vertex  4.000000e+000 -8.650000e+000 -5.551115e-017
    endloop
  endfacet
  facet normal -3.951970e-018 -9.933758e-001  1.149110e-001
    outer loop
      vertex -3.994243e+000 -8.685652e+000 -3.082037e-001
      vertex  4.000000e+000 -8.650000e+000 -5.551115e-017
      vertex -4.000000e+000 -8.650000e+000 -3.306437e-016
    endloop
  endfacet
  facet normal  1.592311e-003 -2.186931e-001  9.757923e-001
    outer loop
      vertex  3.892178e+000 -9.449590e+000 -1.232700e+000
      vertex -3.873492e+000 -1.002820e+001 -1.349705e+000
      vertex  3.873492e+000 -9.971797e+000 -1.349705e+000
    endloop
  endfacet
  facet normal -1.592311e-003  2.186931e-001  9.757923e-001
    outer loop
      vertex  3.873492e+000 -9.971797e+000 -1.349705e+000
      vertex -3.873492e+000 -1.002820e+001 -1.349705e+000
      vertex -3.892178e+000 -1.055041e+001 -1.232700e+000
    endloop
  endfacet
  facet normal  2.282409e-003  1.686867e-001  9.856670e-001
    outer loop
      vertex  3.873492e+000 -9.971797e+000 -1.349705e+000
      vertex -3.892178e+000 -1.055041e+001 -1.232700e+000
      vertex  3.887257e+000 -1.047527e+001 -1.263572e+000
    endloop
  endfacet
  facet normal -2.187586e-003  5.654054e-001  8.248103e-001
    outer loop
      vertex  3.887257e+000 -1.047527e+001 -1.263572e+000
      vertex -3.892178e+000 -1.055041e+001 -1.232700e+000
      vertex -3.933874e+000 -1.095090e+001 -9.582779e-001
    endloop
  endfacet
  facet normal  1.210118e-003  5.260093e-001  8.504779e-001
    outer loop
      vertex  3.887257e+000 -1.047527e+001 -1.263572e+000
      vertex -3.933874e+000 -1.095090e+001 -9.582779e-001
      vertex  3.929401e+000 -1.091808e+001 -9.897637e-001
    endloop
  endfacet
  facet normal -1.027661e-003  8.095086e-001  5.871072e-001
    outer loop
      vertex  3.929401e+000 -1.091808e+001 -9.897637e-001
      vertex -3.933874e+000 -1.095090e+001 -9.582779e-001
      vertex -3.975123e+000 -1.120612e+001 -6.064500e-001
    endloop
  endfacet
  facet normal  3.403834e-004  7.960624e-001  6.052145e-001
    outer loop
      vertex  3.929401e+000 -1.091808e+001 -9.897637e-001
      vertex -3.975123e+000 -1.120612e+001 -6.064500e-001
      vertex  3.973890e+000 -1.119920e+001 -6.200227e-001
    endloop
  endfacet
  facet normal -2.407876e-004  9.408993e-001  3.386865e-001
    outer loop
      vertex  3.973890e+000 -1.119920e+001 -6.200227e-001
      vertex -3.975123e+000 -1.120612e+001 -6.064500e-001
      vertex -3.994510e+000 -1.131592e+001 -3.014214e-001
    endloop
  endfacet
  facet normal  1.094873e-004  9.380814e-001  3.464147e-001
    outer loop
      vertex  3.973890e+000 -1.119920e+001 -6.200227e-001
      vertex -3.994510e+000 -1.131592e+001 -3.014214e-001
      vertex  3.994245e+000 -1.131435e+001 -3.081997e-001
    endloop
  endfacet
  facet normal -1.000436e-004  9.936689e-001  1.123483e-001
    outer loop
      vertex  3.994245e+000 -1.131435e+001 -3.081997e-001
      vertex -3.994510e+000 -1.131592e+001 -3.014214e-001
      vertex -4.000000e+000 -1.135000e+001  1.653219e-016
    endloop
  endfacet
  facet normal  -0.000000e+000  9.933760e-001  1.149094e-001
    outer loop
      vertex  3.994245e+000 -1.131435e+001 -3.081997e-001
      vertex -4.000000e+000 -1.135000e+001  1.653219e-016
      vertex  4.000000e+000 -1.135000e+001  1.653219e-016
    endloop
  endfacet
  facet normal -8.925236e-001 -1.404367e-001  4.285779e-001
    outer loop
      vertex -4.998608e+000 -1.500000e+001 -1.179829e-001
      vertex -4.707322e+000 -1.134725e+001  1.685562e+000
      vertex -4.859579e+000 -1.193270e+001  1.176644e+000
    endloop
  endfacet
  facet normal -9.782158e-001 -4.151024e-002  2.033979e-001
    outer loop
      vertex -4.998608e+000 -1.500000e+001 -1.179829e-001
      vertex -4.859579e+000 -1.193270e+001  1.176644e+000
      vertex -4.959974e+000 -1.223852e+001  6.313947e-001
    endloop
  endfacet
  facet normal -9.979534e-001 -3.367390e-003  6.385797e-002
    outer loop
      vertex -4.998608e+000 -1.500000e+001 -1.179829e-001
      vertex -4.959974e+000 -1.223852e+001  6.313947e-001
      vertex -5.000000e+000 -1.235000e+001 -1.294376e-006
    endloop
  endfacet
  facet normal -9.979904e-001  2.294893e-003 -6.332368e-002
    outer loop
      vertex -4.998608e+000 -1.500000e+001 -1.179829e-001
      vertex -5.000000e+000 -1.235000e+001 -1.294376e-006
      vertex -4.959384e+000 -1.223685e+001 -6.360075e-001
    endloop
  endfacet
  facet normal -9.588147e-001 -3.913096e-002 -2.813239e-001
    outer loop
      vertex -4.998608e+000 -1.500000e+001 -1.179829e-001
      vertex -4.959384e+000 -1.223685e+001 -6.360075e-001
      vertex -4.269930e+000 -1.500000e+001 -2.601480e+000
    endloop
  endfacet
  facet normal -8.959448e-001  0.000000e+000  4.441653e-001
    outer loop
      vertex -4.387913e+000 -1.500000e+001  2.397128e+000
      vertex -4.387913e+000 -1.000000e+001  2.397128e+000
      vertex -4.564457e+000 -9.999927e+000  2.041012e+000
    endloop
  endfacet
  facet normal -9.086871e-001 -2.351112e-003  4.174712e-001
    outer loop
      vertex -4.387913e+000 -1.500000e+001  2.397128e+000
      vertex -4.564457e+000 -9.999927e+000  2.041012e+000
      vertex -4.597789e+000 -1.065464e+001  1.964773e+000
    endloop
  endfacet
  facet normal -9.249926e-001 -6.874644e-003  3.799228e-001
    outer loop
      vertex -4.387913e+000 -1.500000e+001  2.397128e+000
      vertex -4.597789e+000 -1.065464e+001  1.964773e+000
      vertex -4.707322e+000 -1.134725e+001  1.685562e+000
    endloop
  endfacet
  facet normal -9.710256e-001 -3.898029e-002  2.357751e-001
    outer loop
      vertex -4.387913e+000 -1.500000e+001  2.397128e+000
      vertex -4.707322e+000 -1.134725e+001  1.685562e+000
      vertex -4.998608e+000 -1.500000e+001 -1.179829e-001
    endloop
  endfacet
  facet normal -9.707115e-001 -8.143358e-002 -2.260260e-001
    outer loop
      vertex -4.269930e+000 -1.500000e+001 -2.601480e+000
      vertex -4.959384e+000 -1.223685e+001 -6.360075e-001
      vertex -4.857798e+000 -1.192685e+001 -1.183977e+000
    endloop
  endfacet
  facet normal -9.468302e-001 -3.352755e-002 -3.199822e-001
    outer loop
      vertex -4.269930e+000 -1.500000e+001 -2.601480e+000
      vertex -4.857798e+000 -1.192685e+001 -1.183977e+000
      vertex -4.714290e+000 -1.137945e+001 -1.665974e+000
    endloop
  endfacet
  facet normal -9.218401e-001 -1.305325e-002 -3.873507e-001
    outer loop
      vertex -4.269930e+000 -1.500000e+001 -2.601480e+000
      vertex -4.714290e+000 -1.137945e+001 -1.665974e+000
      vertex -4.606379e+000 -1.073364e+001 -1.944550e+000
    endloop
  endfacet
  facet normal -9.030963e-001 -5.099217e-003 -4.294076e-001
    outer loop
      vertex -4.269930e+000 -1.500000e+001 -2.601480e+000
      vertex -4.606379e+000 -1.073364e+001 -1.944550e+000
      vertex -4.564559e+000 -1.003619e+001 -2.040786e+000
    endloop
  endfacet
  facet normal -8.852262e-001  0.000000e+000 -4.651606e-001
    outer loop
      vertex -4.269930e+000 -1.500000e+001 -2.601480e+000
      vertex -4.564559e+000 -1.003619e+001 -2.040786e+000
      vertex -4.269930e+000 -1.000000e+001 -2.601480e+000
    endloop
  endfacet
  facet normal -6.902245e-001  -0.000000e+000 -7.235952e-001
    outer loop
      vertex -4.269930e+000 -1.500000e+001 -2.601480e+000
      vertex -4.269930e+000 -1.000000e+001 -2.601480e+000
      vertex -2.397128e+000  2.400000e+001 -4.387913e+000
    endloop
  endfacet
  facet normal -6.902245e-001  -0.000000e+000 -7.235952e-001
    outer loop
      vertex -4.269930e+000 -1.500000e+001 -2.601480e+000
      vertex -2.397128e+000  2.400000e+001 -4.387913e+000
      vertex -2.397128e+000 -1.500000e+001 -4.387913e+000
    endloop
  endfacet
  facet normal -9.595439e-001  3.472671e-003 -2.815378e-001
    outer loop
      vertex -4.998608e+000  2.400000e+001 -1.179829e-001
      vertex -4.269930e+000  2.400000e+001 -2.601480e+000
      vertex -4.957642e+000 -7.768129e+000 -6.494514e-001
    endloop
  endfacet
  facet normal -9.978822e-001 -1.985782e-004 -6.504683e-002
    outer loop
      vertex -4.998608e+000  2.400000e+001 -1.179829e-001
      vertex -4.957642e+000 -7.768129e+000 -6.494514e-001
      vertex -5.000000e+000 -7.650000e+000 -1.836910e-015
    endloop
  endfacet
  facet normal -9.982168e-001  2.664326e-004  5.969262e-002
    outer loop
      vertex -4.998608e+000  2.400000e+001 -1.179829e-001
      vertex -5.000000e+000 -7.650000e+000 -1.836910e-015
      vertex -4.964420e+000 -7.748839e+000  5.954265e-001
    endloop
  endfacet
  facet normal -9.849167e-001  2.826967e-003  1.730066e-001
    outer loop
      vertex -4.998608e+000  2.400000e+001 -1.179829e-001
      vertex -4.964420e+000 -7.748839e+000  5.954265e-001
      vertex -4.873437e+000 -8.022424e+000  1.117860e+000
    endloop
  endfacet
  facet normal -9.588076e-001  7.211241e-003  2.839649e-001
    outer loop
      vertex -4.998608e+000  2.400000e+001 -1.179829e-001
      vertex -4.873437e+000 -8.022424e+000  1.117860e+000
      vertex -4.721194e+000 -8.589400e+000  1.646307e+000
    endloop
  endfacet
  facet normal -9.228194e-001  1.298807e-002  3.850139e-001
    outer loop
      vertex -4.998608e+000  2.400000e+001 -1.179829e-001
      vertex -4.721194e+000 -8.589400e+000  1.646307e+000
      vertex -4.605723e+000 -9.272088e+000  1.946103e+000
    endloop
  endfacet
  facet normal -8.356601e-001  2.417271e-002  5.487148e-001
    outer loop
      vertex -4.998608e+000  2.400000e+001 -1.179829e-001
      vertex -4.605723e+000 -9.272088e+000  1.946103e+000
      vertex -4.564457e+000 -9.999927e+000  2.041012e+000
    endloop
  endfacet
  facet normal -8.958176e-001  1.676187e-002  4.441057e-001
    outer loop
      vertex -4.998608e+000  2.400000e+001 -1.179829e-001
      vertex -4.564457e+000 -9.999927e+000  2.041012e+000
      vertex -4.387913e+000 -1.000000e+001  2.397128e+000
    endloop
  endfacet
  facet normal -9.717641e-001  0.000000e+000  2.359544e-001
    outer loop
      vertex -4.998608e+000  2.400000e+001 -1.179829e-001
      vertex -4.387913e+000 -1.000000e+001  2.397128e+000
      vertex -4.387913e+000  2.400000e+001  2.397128e+000
    endloop
  endfacet
  facet normal -6.902246e-001  0.000000e+000 -7.235953e-001
    outer loop
      vertex -4.269930e+000  2.400000e+001 -2.601480e+000
      vertex -2.397128e+000  2.400000e+001 -4.387913e+000
      vertex -4.269930e+000 -1.000000e+001 -2.601480e+000
    endloop
  endfacet
  facet normal -8.852263e-001  0.000000e+000 -4.651607e-001
    outer loop
      vertex -4.269930e+000  2.400000e+001 -2.601480e+000
      vertex -4.269930e+000 -1.000000e+001 -2.601480e+000
      vertex -4.564559e+000 -1.003619e+001 -2.040786e+000
    endloop
  endfacet
  facet normal -9.119622e-001  1.135633e-003 -4.102726e-001
    outer loop
      vertex -4.269930e+000  2.400000e+001 -2.601480e+000
      vertex -4.564559e+000 -1.003619e+001 -2.040786e+000
      vertex -4.595042e+000 -9.372771e+000 -1.971189e+000
    endloop
  endfacet
  facet normal -9.282510e-001  2.018116e-003 -3.719487e-001
    outer loop
      vertex -4.269930e+000  2.400000e+001 -2.601480e+000
      vertex -4.595042e+000 -9.372771e+000 -1.971189e+000
      vertex -4.701427e+000 -8.680599e+000 -1.701937e+000
    endloop
  endfacet
  facet normal -9.551824e-001  4.464653e-003 -2.959840e-001
    outer loop
      vertex -4.269930e+000  2.400000e+001 -2.601480e+000
      vertex -4.701427e+000 -8.680599e+000 -1.701937e+000
      vertex -4.852504e+000 -8.090607e+000 -1.205488e+000
    endloop
  endfacet
  facet normal -9.815238e-001  9.505320e-003 -1.911036e-001
    outer loop
      vertex -4.269930e+000  2.400000e+001 -2.601480e+000
      vertex -4.852504e+000 -8.090607e+000 -1.205488e+000
      vertex -4.957642e+000 -7.768129e+000 -6.494514e-001
    endloop
  endfacet
  facet normal -7.235953e-001  0.000000e+000  6.902246e-001
    outer loop
      vertex -4.387913e+000  2.400000e+001  2.397128e+000
      vertex -4.387913e+000 -1.000000e+001  2.397128e+000
      vertex -2.601480e+000  2.400000e+001  4.269930e+000
    endloop
  endfacet
  facet normal -7.235953e-001  0.000000e+000  6.902246e-001
    outer loop
      vertex -2.601480e+000  2.400000e+001  4.269930e+000
      vertex -4.387913e+000 -1.000000e+001  2.397128e+000
      vertex -2.601480e+000 -1.000000e+001  4.269930e+000
    endloop
  endfacet
  facet normal -2.815395e-001  0.000000e+000  9.595496e-001
    outer loop
      vertex -2.601480e+000  2.400000e+001  4.269930e+000
      vertex -2.601480e+000 -1.000000e+001  4.269930e+000
      vertex -1.179829e-001  2.400000e+001  4.998608e+000
    endloop
  endfacet
  facet normal -2.815395e-001  0.000000e+000  9.595496e-001
    outer loop
      vertex -1.179829e-001  2.400000e+001  4.998608e+000
      vertex -2.601480e+000 -1.000000e+001  4.269930e+000
      vertex -1.179829e-001 -1.000000e+001  4.998608e+000
    endloop
  endfacet
  facet normal  2.359544e-001  -0.000000e+000  9.717641e-001
    outer loop
      vertex -1.179829e-001  2.400000e+001  4.998608e+000
      vertex -1.179829e-001 -1.000000e+001  4.998608e+000
      vertex  2.397128e+000  2.400000e+001  4.387913e+000
    endloop
  endfacet
  facet normal  2.359544e-001  0.000000e+000  9.717641e-001
    outer loop
      vertex  2.397128e+000  2.400000e+001  4.387913e+000
      vertex -1.179829e-001 -1.000000e+001  4.998608e+000
      vertex  2.397128e+000 -1.500000e+001  4.387913e+000
    endloop
  endfacet
  facet normal -7.235952e-001  0.000000e+000  6.902245e-001
    outer loop
      vertex -4.387913e+000 -1.000000e+001  2.397128e+000
      vertex -4.387913e+000 -1.500000e+001  2.397128e+000
      vertex -2.601480e+000 -1.000000e+001  4.269930e+000
    endloop
  endfacet
  facet normal -7.235952e-001  0.000000e+000  6.902245e-001
    outer loop
      vertex -2.601480e+000 -1.000000e+001  4.269930e+000
      vertex -4.387913e+000 -1.500000e+001  2.397128e+000
      vertex -2.601480e+000 -1.500000e+001  4.269930e+000
    endloop
  endfacet
  facet normal -2.815395e-001  0.000000e+000  9.595497e-001
    outer loop
      vertex -2.601480e+000 -1.000000e+001  4.269930e+000
      vertex -2.601480e+000 -1.500000e+001  4.269930e+000
      vertex -1.179829e-001 -1.000000e+001  4.998608e+000
    endloop
  endfacet
  facet normal -2.815395e-001  0.000000e+000  9.595497e-001
    outer loop
      vertex -1.179829e-001 -1.000000e+001  4.998608e+000
      vertex -2.601480e+000 -1.500000e+001  4.269930e+000
      vertex -1.179829e-001 -1.500000e+001  4.998608e+000
    endloop
  endfacet
  facet normal  2.359544e-001  -0.000000e+000  9.717641e-001
    outer loop
      vertex -1.179829e-001 -1.000000e+001  4.998608e+000
      vertex -1.179829e-001 -1.500000e+001  4.998608e+000
      vertex  2.397128e+000 -1.500000e+001  4.387913e+000
    endloop
  endfacet
  facet normal -7.054492e-001 -7.054495e-001  6.842812e-002
    outer loop
      vertex -4.000000e+000 -8.650000e+000 -3.306437e-016
      vertex -5.000000e+000 -7.650000e+000 -1.836910e-015
      vertex -3.994243e+000 -8.685652e+000 -3.082037e-001
    endloop
  endfacet
  facet normal -7.025042e-001 -7.068521e-001  8.275183e-002
    outer loop
      vertex -3.994243e+000 -8.685652e+000 -3.082037e-001
      vertex -5.000000e+000 -7.650000e+000 -1.836910e-015
      vertex -4.957642e+000 -7.768129e+000 -6.494514e-001
    endloop
  endfacet
  facet normal -7.120079e-001 -6.725243e-001  2.018807e-001
    outer loop
      vertex -3.994243e+000 -8.685652e+000 -3.082037e-001
      vertex -4.957642e+000 -7.768129e+000 -6.494514e-001
      vertex -3.973890e+000 -8.800803e+000 -6.200227e-001
    endloop
  endfacet
  facet normal -7.042971e-001 -6.637568e-001  2.517790e-001
    outer loop
      vertex -3.973890e+000 -8.800803e+000 -6.200227e-001
      vertex -4.957642e+000 -7.768129e+000 -6.494514e-001
      vertex -4.852504e+000 -8.090607e+000 -1.205488e+000
    endloop
  endfacet
  facet normal -7.199916e-001 -5.914448e-001  3.630497e-001
    outer loop
      vertex -3.973890e+000 -8.800803e+000 -6.200227e-001
      vertex -4.852504e+000 -8.090607e+000 -1.205488e+000
      vertex -3.929401e+000 -9.081922e+000 -9.897637e-001
    endloop
  endfacet
  facet normal -7.011071e-001 -5.556049e-001  4.469363e-001
    outer loop
      vertex -3.929401e+000 -9.081922e+000 -9.897637e-001
      vertex -4.852504e+000 -8.090607e+000 -1.205488e+000
      vertex -4.701427e+000 -8.680599e+000 -1.701937e+000
    endloop
  endfacet
  facet normal -7.242997e-001 -4.111728e-001  5.534682e-001
    outer loop
      vertex -3.929401e+000 -9.081922e+000 -9.897637e-001
      vertex -4.701427e+000 -8.680599e+000 -1.701937e+000
      vertex -3.887257e+000 -9.524726e+000 -1.263572e+000
    endloop
  endfacet
  facet normal -6.988068e-001 -3.500604e-001  6.238003e-001
    outer loop
      vertex -3.887257e+000 -9.524726e+000 -1.263572e+000
      vertex -4.701427e+000 -8.680599e+000 -1.701937e+000
      vertex -4.595042e+000 -9.372771e+000 -1.971189e+000
    endloop
  endfacet
  facet normal -7.149106e-001 -1.368508e-001  6.856928e-001
    outer loop
      vertex -3.887257e+000 -9.524726e+000 -1.263572e+000
      vertex -4.595042e+000 -9.372771e+000 -1.971189e+000
      vertex -3.873492e+000 -1.002820e+001 -1.349705e+000
    endloop
  endfacet
  facet normal -7.025092e-001 -1.061044e-001  7.037206e-001
    outer loop
      vertex -3.873492e+000 -1.002820e+001 -1.349705e+000
      vertex -4.595042e+000 -9.372771e+000 -1.971189e+000
      vertex -4.564559e+000 -1.003619e+001 -2.040786e+000
    endloop
  endfacet
  facet normal -6.965392e-001  1.805197e-001  6.944393e-001
    outer loop
      vertex -3.873492e+000 -1.002820e+001 -1.349705e+000
      vertex -4.564559e+000 -1.003619e+001 -2.040786e+000
      vertex -3.892178e+000 -1.055041e+001 -1.232700e+000
    endloop
  endfacet
  facet normal -7.167033e-001  1.373170e-001  6.837253e-001
    outer loop
      vertex -3.892178e+000 -1.055041e+001 -1.232700e+000
      vertex -4.564559e+000 -1.003619e+001 -2.040786e+000
      vertex -4.606379e+000 -1.073364e+001 -1.944550e+000
    endloop
  endfacet
  facet normal -6.832870e-001  4.597929e-001  5.671945e-001
    outer loop
      vertex -3.892178e+000 -1.055041e+001 -1.232700e+000
      vertex -4.606379e+000 -1.073364e+001 -1.944550e+000
      vertex -3.933874e+000 -1.095090e+001 -9.582779e-001
    endloop
  endfacet
  facet normal -7.273186e-001  3.706758e-001  5.775872e-001
    outer loop
      vertex -3.933874e+000 -1.095090e+001 -9.582779e-001
      vertex -4.606379e+000 -1.073364e+001 -1.944550e+000
      vertex -4.714290e+000 -1.137945e+001 -1.665974e+000
    endloop
  endfacet
  facet normal -6.835616e-001  6.265668e-001  3.743763e-001
    outer loop
      vertex -3.933874e+000 -1.095090e+001 -9.582779e-001
      vertex -4.714290e+000 -1.137945e+001 -1.665974e+000
      vertex -3.975123e+000 -1.120612e+001 -6.064500e-001
    endloop
  endfacet
  facet normal -7.227361e-001  5.536814e-001  4.136297e-001
    outer loop
      vertex -3.975123e+000 -1.120612e+001 -6.064500e-001
      vertex -4.714290e+000 -1.137945e+001 -1.665974e+000
      vertex -4.857798e+000 -1.192685e+001 -1.183977e+000
    endloop
  endfacet
  facet normal -6.957335e-001  6.888013e-001  2.037341e-001
    outer loop
      vertex -3.975123e+000 -1.120612e+001 -6.064500e-001
      vertex -4.857798e+000 -1.192685e+001 -1.183977e+000
      vertex -3.994510e+000 -1.131592e+001 -3.014214e-001
    endloop
  endfacet
  facet normal -7.125202e-001  6.590581e-001  2.407435e-001
    outer loop
      vertex -3.994510e+000 -1.131592e+001 -3.014214e-001
      vertex -4.857798e+000 -1.192685e+001 -1.183977e+000
      vertex -4.959384e+000 -1.223685e+001 -6.360075e-001
    endloop
  endfacet
  facet normal -7.010149e-001  7.099448e-001  6.750237e-002
    outer loop
      vertex -3.994510e+000 -1.131592e+001 -3.014214e-001
      vertex -4.959384e+000 -1.223685e+001 -6.360075e-001
      vertex -4.000000e+000 -1.135000e+001  1.653219e-016
    endloop
  endfacet
  facet normal -7.048184e-001  7.048183e-001  8.038817e-002
    outer loop
      vertex -4.000000e+000 -1.135000e+001  1.653219e-016
      vertex -4.959384e+000 -1.223685e+001 -6.360075e-001
      vertex -5.000000e+000 -1.235000e+001 -1.294376e-006
    endloop
  endfacet
  facet normal -7.055455e-001  7.055455e-001 -6.641670e-002
    outer loop
      vertex -4.000000e+000 -1.135000e+001  1.653219e-016
      vertex -5.000000e+000 -1.235000e+001 -1.294376e-006
      vertex -3.994602e+000 -1.131645e+001  2.991172e-001
    endloop
  endfacet
  facet normal -7.027833e-001  7.068629e-001 -8.025259e-002
    outer loop
      vertex -3.994602e+000 -1.131645e+001  2.991172e-001
      vertex -5.000000e+000 -1.235000e+001 -1.294376e-006
      vertex -4.959974e+000 -1.223852e+001  6.313947e-001
    endloop
  endfacet
  facet normal -7.117432e-001  6.745745e-001 -1.958849e-001
    outer loop
      vertex -3.994602e+000 -1.131645e+001  2.991172e-001
      vertex -4.959974e+000 -1.223852e+001  6.313947e-001
      vertex -3.975534e+000 -1.120842e+001  6.018587e-001
    endloop
  endfacet
  facet normal -7.045807e-001  6.663494e-001 -2.440173e-001
    outer loop
      vertex -3.975534e+000 -1.120842e+001  6.018587e-001
      vertex -4.959974e+000 -1.223852e+001  6.313947e-001
      vertex -4.859579e+000 -1.193270e+001  1.176644e+000
    endloop
  endfacet
  facet normal -7.196444e-001  5.969384e-001 -3.546499e-001
    outer loop
      vertex -3.975534e+000 -1.120842e+001  6.018587e-001
      vertex -4.859579e+000 -1.193270e+001  1.176644e+000
      vertex -3.931468e+000 -1.093342e+001  9.753104e-001
    endloop
  endfacet
  facet normal -7.010407e-001  5.629038e-001 -4.378141e-001
    outer loop
      vertex -3.931468e+000 -1.093342e+001  9.753104e-001
      vertex -4.859579e+000 -1.193270e+001  1.176644e+000
      vertex -4.707322e+000 -1.134725e+001  1.685562e+000
    endloop
  endfacet
  facet normal -7.243800e-001  4.206476e-001 -5.461952e-001
    outer loop
      vertex -3.931468e+000 -1.093342e+001  9.753104e-001
      vertex -4.707322e+000 -1.134725e+001  1.685562e+000
      vertex -3.888459e+000 -1.049484e+001  1.256040e+000
    endloop
  endfacet
  facet normal -6.987975e-001  3.597533e-001 -6.182716e-001
    outer loop
      vertex -3.888459e+000 -1.049484e+001  1.256040e+000
      vertex -4.707322e+000 -1.134725e+001  1.685562e+000
      vertex -4.597789e+000 -1.065464e+001  1.964773e+000
    endloop
  endfacet
  facet normal -7.155212e-001  1.511972e-001 -6.820329e-001
    outer loop
      vertex -3.888459e+000 -1.049484e+001  1.256040e+000
      vertex -4.597789e+000 -1.065464e+001  1.964773e+000
      vertex -3.873446e+000 -9.999943e+000  1.350000e+000
    endloop
  endfacet
  facet normal -7.022055e-001  1.175197e-001 -7.022084e-001
    outer loop
      vertex -3.873446e+000 -9.999943e+000  1.350000e+000
      vertex -4.597789e+000 -1.065464e+001  1.964773e+000
      vertex -4.564457e+000 -9.999927e+000  2.041012e+000
    endloop
  endfacet
  facet normal -6.967127e-001 -1.708458e-001 -6.967087e-001
    outer loop
      vertex -3.873446e+000 -9.999943e+000  1.350000e+000
      vertex -4.564457e+000 -9.999927e+000  2.041012e+000
      vertex -3.891896e+000 -9.453575e+000  1.234471e+000
    endloop
  endfacet
  facet normal -7.164077e-001 -1.300004e-001 -6.854633e-001
    outer loop
      vertex -3.891896e+000 -9.453575e+000  1.234471e+000
      vertex -4.564457e+000 -9.999927e+000  2.041012e+000
      vertex -4.605723e+000 -9.272088e+000  1.946103e+000
    endloop
  endfacet
  facet normal -6.815576e-001 -4.649206e-001 -5.650913e-001
    outer loop
      vertex -3.891896e+000 -9.453575e+000  1.234471e+000
      vertex -4.605723e+000 -9.272088e+000  1.946103e+000
      vertex -3.936223e+000 -9.032448e+000  9.414580e-001
    endloop
  endfacet
  facet normal -7.275299e-001 -3.752730e-001 -5.743436e-001
    outer loop
      vertex -3.936223e+000 -9.032448e+000  9.414580e-001
      vertex -4.605723e+000 -9.272088e+000  1.946103e+000
      vertex -4.721194e+000 -8.589400e+000  1.646307e+000
    endloop
  endfacet
  facet normal -6.823886e-001 -6.361416e-001 -3.600968e-001
    outer loop
      vertex -3.936223e+000 -9.032448e+000  9.414580e-001
      vertex -4.721194e+000 -8.589400e+000  1.646307e+000
      vertex -3.978639e+000 -8.774228e+000  5.656700e-001
    endloop
  endfacet
  facet normal -7.215924e-001 -5.657204e-001 -3.990800e-001
    outer loop
      vertex -3.978639e+000 -8.774228e+000  5.656700e-001
      vertex -4.721194e+000 -8.589400e+000  1.646307e+000
      vertex -4.873437e+000 -8.022424e+000  1.117860e+000
    endloop
  endfacet
  facet normal -6.974649e-001 -6.912120e-001 -1.891263e-001
    outer loop
      vertex -3.978639e+000 -8.774228e+000  5.656700e-001
      vertex -4.873437e+000 -8.022424e+000  1.117860e+000
      vertex -3.995265e+000 -8.679590e+000  2.811033e-001
    endloop
  endfacet
  facet normal -7.118871e-001 -6.654451e-001 -2.244990e-001
    outer loop
      vertex -3.995265e+000 -8.679590e+000  2.811033e-001
      vertex -4.873437e+000 -8.022424e+000  1.117860e+000
      vertex -4.964420e+000 -7.748839e+000  5.954265e-001
    endloop
  endfacet
  facet normal -7.018340e-001 -7.095606e-001 -6.287065e-002
    outer loop
      vertex -3.995265e+000 -8.679590e+000  2.811033e-001
      vertex -4.964420e+000 -7.748839e+000  5.954265e-001
      vertex -4.000000e+000 -8.650000e+000 -3.306437e-016
    endloop
  endfacet
  facet normal -7.051197e-001 -7.051201e-001 -7.491317e-002
    outer loop
      vertex -4.000000e+000 -8.650000e+000 -3.306437e-016
      vertex -4.964420e+000 -7.748839e+000  5.954265e-001
      vertex -5.000000e+000 -7.650000e+000 -1.836910e-015
    endloop
  endfacet
  facet normal  9.241353e-001 -6.564129e-003 -3.820089e-001
    outer loop
      vertex  4.387913e+000 -1.500000e+001 -2.397128e+000
      vertex  4.595042e+000 -1.062723e+001 -1.971189e+000
      vertex  4.701427e+000 -1.131940e+001 -1.701937e+000
    endloop
  endfacet
  facet normal  6.902246e-001  -0.000000e+000  7.235952e-001
    outer loop
      vertex  2.397128e+000  2.400000e+001  4.387913e+000
      vertex  4.269930e+000 -9.999990e+000  2.601480e+000
      vertex  4.269930e+000  2.400000e+001  2.601480e+000
    endloop
  endfacet
  facet normal  9.710556e-001 -3.818006e-002 -2.357824e-001
    outer loop
      vertex  4.998608e+000 -1.500000e+001  1.179829e-001
      vertex  4.387913e+000 -1.500000e+001 -2.397128e+000
      vertex  4.701427e+000 -1.131940e+001 -1.701937e+000
    endloop
  endfacet
  facet normal  8.825400e-001 -1.492362e-001 -4.459279e-001
    outer loop
      vertex  4.998608e+000 -1.500000e+001  1.179829e-001
      vertex  4.701427e+000 -1.131940e+001 -1.701937e+000
      vertex  4.852504e+000 -1.190939e+001 -1.205488e+000
    endloop
  endfacet
  facet normal  9.767054e-001 -4.378480e-002 -2.100701e-001
    outer loop
      vertex  4.998608e+000 -1.500000e+001  1.179829e-001
      vertex  4.852504e+000 -1.190939e+001 -1.205488e+000
      vertex  4.957645e+000 -1.223188e+001 -6.494260e-001
    endloop
  endfacet
  facet normal  9.978331e-001 -3.449570e-003 -6.570458e-002
    outer loop
      vertex  4.998608e+000 -1.500000e+001  1.179829e-001
      vertex  4.957645e+000 -1.223188e+001 -6.494260e-001
      vertex  5.000000e+000 -1.235000e+001  1.230912e-007
    endloop
  endfacet
  facet normal  9.989337e-001  1.529506e-003  4.614291e-002
    outer loop
      vertex  4.998608e+000 -1.500000e+001  1.179829e-001
      vertex  5.000000e+000 -1.235000e+001  1.230912e-007
      vertex  4.978528e+000 -1.229083e+001  4.628791e-001
    endloop
  endfacet
  facet normal  9.591539e-001 -2.871816e-002  2.814234e-001
    outer loop
      vertex  4.998608e+000 -1.500000e+001  1.179829e-001
      vertex  4.978528e+000 -1.229083e+001  4.628791e-001
      vertex  4.269930e+000 -1.500000e+001  2.601480e+000
    endloop
  endfacet
  facet normal  9.747143e-001 -9.545074e-002  2.020426e-001
    outer loop
      vertex  4.269930e+000 -1.500000e+001  2.601480e+000
      vertex  4.978528e+000 -1.229083e+001  4.628791e-001
      vertex  4.873437e+000 -1.197758e+001  1.117860e+000
    endloop
  endfacet
  facet normal  9.492766e-001 -3.622538e-002  3.123486e-001
    outer loop
      vertex  4.269930e+000 -1.500000e+001  2.601480e+000
      vertex  4.873437e+000 -1.197758e+001  1.117860e+000
      vertex  4.721194e+000 -1.141060e+001  1.646307e+000
    endloop
  endfacet
  facet normal  9.225256e-001 -1.334135e-002  3.857052e-001
    outer loop
      vertex  4.269930e+000 -1.500000e+001  2.601480e+000
      vertex  4.721194e+000 -1.141060e+001  1.646307e+000
      vertex  4.605723e+000 -1.072791e+001  1.946103e+000
    endloop
  endfacet
  facet normal  9.026625e-001 -4.935631e-003  4.303209e-001
    outer loop
      vertex  4.269930e+000 -1.500000e+001  2.601480e+000
      vertex  4.605723e+000 -1.072791e+001  1.946103e+000
      vertex  4.564457e+000 -1.000007e+001  2.041012e+000
    endloop
  endfacet
  facet normal  8.852146e-001  0.000000e+000  4.651827e-001
    outer loop
      vertex  4.269930e+000 -1.500000e+001  2.601480e+000
      vertex  4.564457e+000 -1.000007e+001  2.041012e+000
      vertex  4.269930e+000 -9.999990e+000  2.601480e+000
    endloop
  endfacet
  facet normal  6.902246e-001  0.000000e+000  7.235952e-001
    outer loop
      vertex  4.269930e+000 -1.500000e+001  2.601480e+000
      vertex  4.269930e+000 -9.999990e+000  2.601480e+000
      vertex  2.397128e+000  2.400000e+001  4.387913e+000
    endloop
  endfacet
  facet normal  6.902245e-001  0.000000e+000  7.235952e-001
    outer loop
      vertex  4.269930e+000 -1.500000e+001  2.601480e+000
      vertex  2.397128e+000  2.400000e+001  4.387913e+000
      vertex  2.397128e+000 -1.500000e+001  4.387913e+000
    endloop
  endfacet
  facet normal  9.595496e-001  0.000000e+000  2.815395e-001
    outer loop
      vertex  4.998608e+000  2.400000e+001  1.179829e-001
      vertex  4.269930e+000  2.400000e+001  2.601480e+000
      vertex  4.269930e+000 -9.999990e+000  2.601480e+000
    endloop
  endfacet
  facet normal  8.851160e-001  1.500533e-002  4.651286e-001
    outer loop
      vertex  4.998608e+000  2.400000e+001  1.179829e-001
      vertex  4.269930e+000 -9.999990e+000  2.601480e+000
      vertex  4.564457e+000 -1.000007e+001  2.041012e+000
    endloop
  endfacet
  facet normal  8.432966e-001  1.960947e-002  5.370907e-001
    outer loop
      vertex  4.998608e+000  2.400000e+001  1.179829e-001
      vertex  4.564457e+000 -1.000007e+001  2.041012e+000
      vertex  4.597789e+000 -9.345363e+000  1.964773e+000
    endloop
  endfacet
  facet normal  9.218642e-001  1.037322e-002  3.873742e-001
    outer loop
      vertex  4.998608e+000  2.400000e+001  1.179829e-001
      vertex  4.597789e+000 -9.345363e+000  1.964773e+000
      vertex  4.707322e+000 -8.652751e+000  1.685562e+000
    endloop
  endfacet
  facet normal  9.562706e-001  5.508314e-003  2.924314e-001
    outer loop
      vertex  4.998608e+000  2.400000e+001  1.179829e-001
      vertex  4.707322e+000 -8.652751e+000  1.685562e+000
      vertex  4.859579e+000 -8.067305e+000  1.176644e+000
    endloop
  endfacet
  facet normal  9.832905e-001  1.746584e-003  1.820353e-001
    outer loop
      vertex  4.998608e+000  2.400000e+001  1.179829e-001
      vertex  4.859579e+000 -8.067305e+000  1.176644e+000
      vertex  4.959966e+000 -7.761497e+000  6.314542e-001
    endloop
  endfacet
  facet normal  9.979984e-001 -1.918325e-004  6.323863e-002
    outer loop
      vertex  4.998608e+000  2.400000e+001  1.179829e-001
      vertex  4.959966e+000 -7.761497e+000  6.314542e-001
      vertex  5.000000e+000 -7.650000e+000  1.224606e-015
    endloop
  endfacet
  facet normal  9.979640e-001  2.816592e-004 -6.378027e-002
    outer loop
      vertex  4.998608e+000  2.400000e+001  1.179829e-001
      vertex  5.000000e+000 -7.650000e+000  1.224606e-015
      vertex  4.959384e+000 -7.763155e+000 -6.360075e-001
    endloop
  endfacet
  facet normal  9.829201e-001  3.154138e-003 -1.840058e-001
    outer loop
      vertex  4.998608e+000  2.400000e+001  1.179829e-001
      vertex  4.959384e+000 -7.763155e+000 -6.360075e-001
      vertex  4.857798e+000 -8.073147e+000 -1.183977e+000
    endloop
  endfacet
  facet normal  9.559637e-001  7.712500e-003 -2.933835e-001
    outer loop
      vertex  4.998608e+000  2.400000e+001  1.179829e-001
      vertex  4.857798e+000 -8.073147e+000 -1.183977e+000
      vertex  4.714290e+000 -8.620550e+000 -1.665974e+000
    endloop
  endfacet
  facet normal  9.217481e-001  1.316137e-002 -3.875658e-001
    outer loop
      vertex  4.998608e+000  2.400000e+001  1.179829e-001
      vertex  4.714290e+000 -8.620550e+000 -1.665974e+000
      vertex  4.606379e+000 -9.266362e+000 -1.944550e+000
    endloop
  endfacet
  facet normal  8.443417e-001  2.323373e-002 -5.353013e-001
    outer loop
      vertex  4.998608e+000  2.400000e+001  1.179829e-001
      vertex  4.606379e+000 -9.266362e+000 -1.944550e+000
      vertex  4.564559e+000 -9.963813e+000 -2.040786e+000
    endloop
  endfacet
  facet normal  8.951457e-001  1.687371e-002 -4.454543e-001
    outer loop
      vertex  4.998608e+000  2.400000e+001  1.179829e-001
      vertex  4.564559e+000 -9.963813e+000 -2.040786e+000
      vertex  4.387913e+000 -9.999990e+000 -2.397128e+000
    endloop
  endfacet
  facet normal  9.717641e-001  0.000000e+000 -2.359544e-001
    outer loop
      vertex  4.998608e+000  2.400000e+001  1.179829e-001
      vertex  4.387913e+000 -9.999990e+000 -2.397128e+000
      vertex  4.387913e+000  2.400000e+001 -2.397128e+000
    endloop
  endfacet
  facet normal  7.235952e-001  0.000000e+000 -6.902246e-001
    outer loop
      vertex  4.387913e+000  2.400000e+001 -2.397128e+000
      vertex  4.387913e+000 -9.999990e+000 -2.397128e+000
      vertex  2.601480e+000  2.400000e+001 -4.269930e+000
    endloop
  endfacet
  facet normal  7.235952e-001  0.000000e+000 -6.902246e-001
    outer loop
      vertex  2.601480e+000  2.400000e+001 -4.269930e+000
      vertex  4.387913e+000 -9.999990e+000 -2.397128e+000
      vertex  2.601480e+000 -9.999990e+000 -4.269930e+000
    endloop
  endfacet
  facet normal  2.815395e-001  0.000000e+000 -9.595496e-001
    outer loop
      vertex  2.601480e+000  2.400000e+001 -4.269930e+000
      vertex  2.601480e+000 -9.999990e+000 -4.269930e+000
      vertex  1.179829e-001  2.400000e+001 -4.998608e+000
    endloop
  endfacet
  facet normal  2.815395e-001  0.000000e+000 -9.595496e-001
    outer loop
      vertex  1.179829e-001  2.400000e+001 -4.998608e+000
      vertex  2.601480e+000 -9.999990e+000 -4.269930e+000
      vertex  1.179829e-001 -9.999990e+000 -4.998608e+000
    endloop
  endfacet
  facet normal -2.359544e-001  0.000000e+000 -9.717641e-001
    outer loop
      vertex  1.179829e-001  2.400000e+001 -4.998608e+000
      vertex  1.179829e-001 -9.999990e+000 -4.998608e+000
      vertex -2.397128e+000  2.400000e+001 -4.387913e+000
    endloop
  endfacet
  facet normal -2.359544e-001  -0.000000e+000 -9.717641e-001
    outer loop
      vertex -2.397128e+000  2.400000e+001 -4.387913e+000
      vertex  1.179829e-001 -9.999990e+000 -4.998608e+000
      vertex -2.397128e+000 -1.500000e+001 -4.387913e+000
    endloop
  endfacet
  facet normal  8.961599e-001 -5.368371e-003 -4.436990e-001
    outer loop
      vertex  4.564559e+000 -9.963813e+000 -2.040786e+000
      vertex  4.595042e+000 -1.062723e+001 -1.971189e+000
      vertex  4.387913e+000 -9.999990e+000 -2.397128e+000
    endloop
  endfacet
  facet normal  8.993046e-001  0.000000e+000 -4.373228e-001
    outer loop
      vertex  4.387913e+000 -9.999990e+000 -2.397128e+000
      vertex  4.595042e+000 -1.062723e+001 -1.971189e+000
      vertex  4.387913e+000 -1.500000e+001 -2.397128e+000
    endloop
  endfacet
  facet normal  7.235952e-001  0.000000e+000 -6.902246e-001
    outer loop
      vertex  4.387913e+000 -9.999990e+000 -2.397128e+000
      vertex  4.387913e+000 -1.500000e+001 -2.397128e+000
      vertex  2.601480e+000 -9.999990e+000 -4.269930e+000
    endloop
  endfacet
  facet normal  7.235952e-001  0.000000e+000 -6.902246e-001
    outer loop
      vertex  2.601480e+000 -9.999990e+000 -4.269930e+000
      vertex  4.387913e+000 -1.500000e+001 -2.397128e+000
      vertex  2.601480e+000 -1.500000e+001 -4.269930e+000
    endloop
  endfacet
  facet normal  2.815395e-001  0.000000e+000 -9.595496e-001
    outer loop
      vertex  2.601480e+000 -9.999990e+000 -4.269930e+000
      vertex  2.601480e+000 -1.500000e+001 -4.269930e+000
      vertex  1.179829e-001 -9.999990e+000 -4.998608e+000
    endloop
  endfacet
  facet normal  2.815395e-001  0.000000e+000 -9.595496e-001
    outer loop
      vertex  1.179829e-001 -9.999990e+000 -4.998608e+000
      vertex  2.601480e+000 -1.500000e+001 -4.269930e+000
      vertex  1.179829e-001 -1.500000e+001 -4.998608e+000
    endloop
  endfacet
  facet normal -2.359544e-001  0.000000e+000 -9.717641e-001
    outer loop
      vertex  1.179829e-001 -9.999990e+000 -4.998608e+000
      vertex  1.179829e-001 -1.500000e+001 -4.998608e+000
      vertex -2.397128e+000 -1.500000e+001 -4.387913e+000
    endloop
  endfacet
  facet normal  7.054493e-001  7.054493e-001  6.842951e-002
    outer loop
      vertex  4.000000e+000 -1.135000e+001  1.653219e-016
      vertex  5.000000e+000 -1.235000e+001  1.230912e-007
      vertex  3.994245e+000 -1.131435e+001 -3.081997e-001
    endloop
  endfacet
  facet normal  7.025051e-001  7.068516e-001  8.274970e-002
    outer loop
      vertex  3.994245e+000 -1.131435e+001 -3.081997e-001
      vertex  5.000000e+000 -1.235000e+001  1.230912e-007
      vertex  4.957645e+000 -1.223188e+001 -6.494260e-001
    endloop
  endfacet
  facet normal  7.120074e-001  6.725256e-001  2.018780e-001
    outer loop
      vertex  3.994245e+000 -1.131435e+001 -3.081997e-001
      vertex  4.957645e+000 -1.223188e+001 -6.494260e-001
      vertex  3.973890e+000 -1.119920e+001 -6.200227e-001
    endloop
  endfacet
  facet normal  7.042963e-001  6.637591e-001  2.517750e-001
    outer loop
      vertex  3.973890e+000 -1.119920e+001 -6.200227e-001
      vertex  4.957645e+000 -1.223188e+001 -6.494260e-001
      vertex  4.852504e+000 -1.190939e+001 -1.205488e+000
    endloop
  endfacet
  facet normal  7.199916e-001  5.914448e-001  3.630497e-001
    outer loop
      vertex  3.973890e+000 -1.119920e+001 -6.200227e-001
      vertex  4.852504e+000 -1.190939e+001 -1.205488e+000
      vertex  3.929401e+000 -1.091808e+001 -9.897637e-001
    endloop
  endfacet
  facet normal  7.011071e-001  5.556049e-001  4.469363e-001
    outer loop
      vertex  3.929401e+000 -1.091808e+001 -9.897637e-001
      vertex  4.852504e+000 -1.190939e+001 -1.205488e+000
      vertex  4.701427e+000 -1.131940e+001 -1.701937e+000
    endloop
  endfacet
  facet normal  7.242997e-001  4.111728e-001  5.534682e-001
    outer loop
      vertex  3.929401e+000 -1.091808e+001 -9.897637e-001
      vertex  4.701427e+000 -1.131940e+001 -1.701937e+000
      vertex  3.887257e+000 -1.047527e+001 -1.263572e+000
    endloop
  endfacet
  facet normal  6.988068e-001  3.500604e-001  6.238003e-001
    outer loop
      vertex  3.887257e+000 -1.047527e+001 -1.263572e+000
      vertex  4.701427e+000 -1.131940e+001 -1.701937e+000
      vertex  4.595042e+000 -1.062723e+001 -1.971189e+000
    endloop
  endfacet
  facet normal  7.149106e-001  1.368508e-001  6.856928e-001
    outer loop
      vertex  3.887257e+000 -1.047527e+001 -1.263572e+000
      vertex  4.595042e+000 -1.062723e+001 -1.971189e+000
      vertex  3.873492e+000 -9.971797e+000 -1.349705e+000
    endloop
  endfacet
  facet normal  7.025092e-001  1.061044e-001  7.037206e-001
    outer loop
      vertex  3.873492e+000 -9.971797e+000 -1.349705e+000
      vertex  4.595042e+000 -1.062723e+001 -1.971189e+000
      vertex  4.564559e+000 -9.963813e+000 -2.040786e+000
    endloop
  endfacet
  facet normal  6.965392e-001 -1.805197e-001  6.944393e-001
    outer loop
      vertex  3.873492e+000 -9.971797e+000 -1.349705e+000
      vertex  4.564559e+000 -9.963813e+000 -2.040786e+000
      vertex  3.892178e+000 -9.449590e+000 -1.232700e+000
    endloop
  endfacet
  facet normal  7.167033e-001 -1.373170e-001  6.837253e-001
    outer loop
      vertex  3.892178e+000 -9.449590e+000 -1.232700e+000
      vertex  4.564559e+000 -9.963813e+000 -2.040786e+000
      vertex  4.606379e+000 -9.266362e+000 -1.944550e+000
    endloop
  endfacet
  facet normal  6.832870e-001 -4.597929e-001  5.671945e-001
    outer loop
      vertex  3.892178e+000 -9.449590e+000 -1.232700e+000
      vertex  4.606379e+000 -9.266362e+000 -1.944550e+000
      vertex  3.933874e+000 -9.049104e+000 -9.582779e-001
    endloop
  endfacet
  facet normal  7.273186e-001 -3.706758e-001  5.775872e-001
    outer loop
      vertex  3.933874e+000 -9.049104e+000 -9.582779e-001
      vertex  4.606379e+000 -9.266362e+000 -1.944550e+000
      vertex  4.714290e+000 -8.620550e+000 -1.665974e+000
    endloop
  endfacet
  facet normal  6.835616e-001 -6.265668e-001  3.743763e-001
    outer loop
      vertex  3.933874e+000 -9.049104e+000 -9.582779e-001
      vertex  4.714290e+000 -8.620550e+000 -1.665974e+000
      vertex  3.975123e+000 -8.793883e+000 -6.064500e-001
    endloop
  endfacet
  facet normal  7.227361e-001 -5.536814e-001  4.136297e-001
    outer loop
      vertex  3.975123e+000 -8.793883e+000 -6.064500e-001
      vertex  4.714290e+000 -8.620550e+000 -1.665974e+000
      vertex  4.857798e+000 -8.073147e+000 -1.183977e+000
    endloop
  endfacet
  facet normal  6.957335e-001 -6.888013e-001  2.037341e-001
    outer loop
      vertex  3.975123e+000 -8.793883e+000 -6.064500e-001
      vertex  4.857798e+000 -8.073147e+000 -1.183977e+000
      vertex  3.994510e+000 -8.684080e+000 -3.014214e-001
    endloop
  endfacet
  facet normal  7.125202e-001 -6.590581e-001  2.407435e-001
    outer loop
      vertex  3.994510e+000 -8.684080e+000 -3.014214e-001
      vertex  4.857798e+000 -8.073147e+000 -1.183977e+000
      vertex  4.959384e+000 -7.763155e+000 -6.360075e-001
    endloop
  endfacet
  facet normal  7.010149e-001 -7.099448e-001  6.750237e-002
    outer loop
      vertex  3.994510e+000 -8.684080e+000 -3.014214e-001
      vertex  4.959384e+000 -7.763155e+000 -6.360075e-001
      vertex  4.000000e+000 -8.650000e+000 -5.551115e-017
    endloop
  endfacet
  facet normal  7.048182e-001 -7.048185e-001  8.038753e-002
    outer loop
      vertex  4.000000e+000 -8.650000e+000 -5.551115e-017
      vertex  4.959384e+000 -7.763155e+000 -6.360075e-001
      vertex  5.000000e+000 -7.650000e+000  1.224606e-015
    endloop
  endfacet
  facet normal  7.055455e-001 -7.055459e-001 -6.641126e-002
    outer loop
      vertex  4.000000e+000 -8.650000e+000 -5.551115e-017
      vertex  5.000000e+000 -7.650000e+000  1.224606e-015
      vertex  3.994598e+000 -8.683558e+000  2.991292e-001
    endloop
  endfacet
  facet normal  7.027816e-001 -7.068642e-001 -8.025627e-002
    outer loop
      vertex  3.994598e+000 -8.683558e+000  2.991292e-001
      vertex  5.000000e+000 -7.650000e+000  1.224606e-015
      vertex  4.959966e+000 -7.761497e+000  6.314542e-001
    endloop
  endfacet
  facet normal  7.117445e-001 -6.745704e-001 -1.958942e-001
    outer loop
      vertex  3.994598e+000 -8.683558e+000  2.991292e-001
      vertex  4.959966e+000 -7.761497e+000  6.314542e-001
      vertex  3.975534e+000 -8.791585e+000  6.018587e-001
    endloop
  endfacet
  facet normal  7.045828e-001 -6.663432e-001 -2.440284e-001
    outer loop
      vertex  3.975534e+000 -8.791585e+000  6.018587e-001
      vertex  4.959966e+000 -7.761497e+000  6.314542e-001
      vertex  4.859579e+000 -8.067305e+000  1.176644e+000
    endloop
  endfacet
  facet normal  7.196444e-001 -5.969384e-001 -3.546499e-001
    outer loop
      vertex  3.975534e+000 -8.791585e+000  6.018587e-001
      vertex  4.859579e+000 -8.067305e+000  1.176644e+000
      vertex  3.931468e+000 -9.066582e+000  9.753104e-001
    endloop
  endfacet
  facet normal  7.010407e-001 -5.629038e-001 -4.378141e-001
    outer loop
      vertex  3.931468e+000 -9.066582e+000  9.753104e-001
      vertex  4.859579e+000 -8.067305e+000  1.176644e+000
      vertex  4.707322e+000 -8.652751e+000  1.685562e+000
    endloop
  endfacet
  facet normal  7.243800e-001 -4.206476e-001 -5.461952e-001
    outer loop
      vertex  3.931468e+000 -9.066582e+000  9.753104e-001
      vertex  4.707322e+000 -8.652751e+000  1.685562e+000
      vertex  3.888459e+000 -9.505162e+000  1.256040e+000
    endloop
  endfacet
  facet normal  6.987975e-001 -3.597533e-001 -6.182716e-001
    outer loop
      vertex  3.888459e+000 -9.505162e+000  1.256040e+000
      vertex  4.707322e+000 -8.652751e+000  1.685562e+000
      vertex  4.597789e+000 -9.345363e+000  1.964773e+000
    endloop
  endfacet
  facet normal  7.155212e-001 -1.511972e-001 -6.820329e-001
    outer loop
      vertex  3.888459e+000 -9.505162e+000  1.256040e+000
      vertex  4.597789e+000 -9.345363e+000  1.964773e+000
      vertex  3.873446e+000 -1.000006e+001  1.350000e+000
    endloop
  endfacet
  facet normal  7.022055e-001 -1.175197e-001 -7.022084e-001
    outer loop
      vertex  3.873446e+000 -1.000006e+001  1.350000e+000
      vertex  4.597789e+000 -9.345363e+000  1.964773e+000
      vertex  4.564457e+000 -1.000007e+001  2.041012e+000
    endloop
  endfacet
  facet normal  6.967127e-001  1.708458e-001 -6.967087e-001
    outer loop
      vertex  3.873446e+000 -1.000006e+001  1.350000e+000
      vertex  4.564457e+000 -1.000007e+001  2.041012e+000
      vertex  3.891896e+000 -1.054642e+001  1.234471e+000
    endloop
  endfacet
  facet normal  7.164077e-001  1.300004e-001 -6.854633e-001
    outer loop
      vertex  3.891896e+000 -1.054642e+001  1.234471e+000
      vertex  4.564457e+000 -1.000007e+001  2.041012e+000
      vertex  4.605723e+000 -1.072791e+001  1.946103e+000
    endloop
  endfacet
  facet normal  6.815576e-001  4.649206e-001 -5.650913e-001
    outer loop
      vertex  3.891896e+000 -1.054642e+001  1.234471e+000
      vertex  4.605723e+000 -1.072791e+001  1.946103e+000
      vertex  3.936223e+000 -1.096755e+001  9.414580e-001
    endloop
  endfacet
  facet normal  7.275299e-001  3.752730e-001 -5.743436e-001
    outer loop
      vertex  3.936223e+000 -1.096755e+001  9.414580e-001
      vertex  4.605723e+000 -1.072791e+001  1.946103e+000
      vertex  4.721194e+000 -1.141060e+001  1.646307e+000
    endloop
  endfacet
  facet normal  6.823886e-001  6.361416e-001 -3.600968e-001
    outer loop
      vertex  3.936223e+000 -1.096755e+001  9.414580e-001
      vertex  4.721194e+000 -1.141060e+001  1.646307e+000
      vertex  3.978639e+000 -1.122577e+001  5.656700e-001
    endloop
  endfacet
  facet normal  7.215924e-001  5.657204e-001 -3.990800e-001
    outer loop
      vertex  3.978639e+000 -1.122577e+001  5.656700e-001
      vertex  4.721194e+000 -1.141060e+001  1.646307e+000
      vertex  4.873437e+000 -1.197758e+001  1.117860e+000
    endloop
  endfacet
  facet normal  6.946698e-001  6.974333e-001 -1.761267e-001
    outer loop
      vertex  3.978639e+000 -1.122577e+001  5.656700e-001
      vertex  4.873437e+000 -1.197758e+001  1.117860e+000
      vertex  3.997262e+000 -1.133258e+001  2.161867e-001
    endloop
  endfacet
  facet normal  7.096509e-001  6.731289e-001 -2.080700e-001
    outer loop
      vertex  3.997262e+000 -1.133258e+001  2.161867e-001
      vertex  4.873437e+000 -1.197758e+001  1.117860e+000
      vertex  4.978528e+000 -1.229083e+001  4.628791e-001
    endloop
  endfacet
  facet normal  7.040300e-001  7.085338e-001 -4.818484e-002
    outer loop
      vertex  3.997262e+000 -1.133258e+001  2.161867e-001
      vertex  4.978528e+000 -1.229083e+001  4.628791e-001
      vertex  4.000000e+000 -1.135000e+001  1.653219e-016
    endloop
  endfacet
  facet normal  7.059371e-001  7.059371e-001 -5.749439e-002
    outer loop
      vertex  4.000000e+000 -1.135000e+001  1.653219e-016
      vertex  4.978528e+000 -1.229083e+001  4.628791e-001
      vertex  5.000000e+000 -1.235000e+001  1.230912e-007
    endloop
  endfacet
  facet normal  4.281799e-001  0.000000e+000 -9.036934e-001
    outer loop
      vertex -2.059440e+000  3.000000e+000  2.181446e+000
      vertex -3.839000e-001  2.400000e+001  2.975335e+000
      vertex -3.839000e-001  3.000000e+000  2.975335e+000
    endloop
  endfacet
  facet normal -1.847728e-001  0.000000e+000 -9.827812e-001
    outer loop
      vertex -3.839000e-001  3.000000e+000  2.975335e+000
      vertex -3.839000e-001  2.400000e+001  2.975335e+000
      vertex  1.438277e+000  2.400000e+001  2.632748e+000
    endloop
  endfacet
  facet normal -1.847728e-001  -0.000000e+000 -9.827812e-001
    outer loop
      vertex -3.839000e-001  3.000000e+000  2.975335e+000
      vertex  1.438277e+000  2.400000e+001  2.632748e+000
      vertex  1.438277e+000  3.000000e+000  2.632748e+000
    endloop
  endfacet
  facet normal  4.281799e-001  0.000000e+000 -9.036934e-001
    outer loop
      vertex -3.839000e-001  2.400000e+001  2.975335e+000
      vertex -2.059440e+000  3.000000e+000  2.181446e+000
      vertex -2.059440e+000  2.400000e+001  2.181446e+000
    endloop
  endfacet
  facet normal  8.775826e-001  0.000000e+000 -4.794255e-001
    outer loop
      vertex -2.059440e+000  2.400000e+001  2.181446e+000
      vertex -2.059440e+000  3.000000e+000  2.181446e+000
      vertex -2.948344e+000  3.000000e+000  5.543185e-001
    endloop
  endfacet
  facet normal  8.775826e-001  0.000000e+000 -4.794255e-001
    outer loop
      vertex -2.059440e+000  2.400000e+001  2.181446e+000
      vertex -2.948344e+000  3.000000e+000  5.543185e-001
      vertex -2.948344e+000  2.400000e+001  5.543185e-001
    endloop
  endfacet
  facet normal  9.917785e-001  0.000000e+000  1.279667e-001
    outer loop
      vertex -2.948344e+000  2.400000e+001  5.543185e-001
      vertex -2.948344e+000  3.000000e+000  5.543185e-001
      vertex -2.711081e+000  3.000000e+000 -1.284540e+000
    endloop
  endfacet
  facet normal  9.917785e-001  -0.000000e+000  1.279667e-001
    outer loop
      vertex -2.948344e+000  2.400000e+001  5.543185e-001
      vertex -2.711081e+000  3.000000e+000 -1.284540e+000
      vertex -2.711081e+000  2.400000e+001 -1.284540e+000
    endloop
  endfacet
  facet normal  7.271487e-001  0.000000e+000  6.864800e-001
    outer loop
      vertex -2.711081e+000  2.400000e+001 -1.284540e+000
      vertex -2.711081e+000  3.000000e+000 -1.284540e+000
      vertex -1.438277e+000  3.000000e+000 -2.632748e+000
    endloop
  endfacet
  facet normal  7.271487e-001  -0.000000e+000  6.864800e-001
    outer loop
      vertex -2.711081e+000  2.400000e+001 -1.284540e+000
      vertex -1.438277e+000  3.000000e+000 -2.632748e+000
      vertex -1.438277e+000  2.400000e+001 -2.632748e+000
    endloop
  endfacet
  facet normal -4.281799e-001  0.000000e+000  9.036934e-001
    outer loop
      vertex  2.059440e+000  3.000000e+000 -2.181446e+000
      vertex  3.839000e-001  2.400000e+001 -2.975335e+000
      vertex  3.839000e-001  3.000000e+000 -2.975335e+000
    endloop
  endfacet
  facet normal  1.847728e-001  -0.000000e+000  9.827812e-001
    outer loop
      vertex  3.839000e-001  3.000000e+000 -2.975335e+000
      vertex  3.839000e-001  2.400000e+001 -2.975335e+000
      vertex -1.438277e+000  2.400000e+001 -2.632748e+000
    endloop
  endfacet
  facet normal  1.847728e-001  0.000000e+000  9.827812e-001
    outer loop
      vertex  3.839000e-001  3.000000e+000 -2.975335e+000
      vertex -1.438277e+000  2.400000e+001 -2.632748e+000
      vertex -1.438277e+000  3.000000e+000 -2.632748e+000
    endloop
  endfacet
  facet normal -4.281799e-001  0.000000e+000  9.036934e-001
    outer loop
      vertex  3.839000e-001  2.400000e+001 -2.975335e+000
      vertex  2.059440e+000  3.000000e+000 -2.181446e+000
      vertex  2.059440e+000  2.400000e+001 -2.181446e+000
    endloop
  endfacet
  facet normal -8.775826e-001  0.000000e+000  4.794255e-001
    outer loop
      vertex  2.059440e+000  2.400000e+001 -2.181446e+000
      vertex  2.059440e+000  3.000000e+000 -2.181446e+000
      vertex  2.948344e+000  3.000000e+000 -5.543185e-001
    endloop
  endfacet
  facet normal -8.775826e-001  0.000000e+000  4.794255e-001
    outer loop
      vertex  2.059440e+000  2.400000e+001 -2.181446e+000
      vertex  2.948344e+000  3.000000e+000 -5.543185e-001
      vertex  2.948344e+000  2.400000e+001 -5.543185e-001
    endloop
  endfacet
  facet normal -9.917785e-001  -0.000000e+000 -1.279667e-001
    outer loop
      vertex  2.948344e+000  2.400000e+001 -5.543185e-001
      vertex  2.948344e+000  3.000000e+000 -5.543185e-001
      vertex  2.711081e+000  3.000000e+000  1.284540e+000
    endloop
  endfacet
  facet normal -9.917785e-001  0.000000e+000 -1.279667e-001
    outer loop
      vertex  2.948344e+000  2.400000e+001 -5.543185e-001
      vertex  2.711081e+000  3.000000e+000  1.284540e+000
      vertex  2.711081e+000  2.400000e+001  1.284540e+000
    endloop
  endfacet
  facet normal -7.271487e-001  -0.000000e+000 -6.864800e-001
    outer loop
      vertex  2.711081e+000  2.400000e+001  1.284540e+000
      vertex  2.711081e+000  3.000000e+000  1.284540e+000
      vertex  1.438277e+000  3.000000e+000  2.632748e+000
    endloop
  endfacet
  facet normal -7.271487e-001  0.000000e+000 -6.864800e-001
    outer loop
      vertex  2.711081e+000  2.400000e+001  1.284540e+000
      vertex  1.438277e+000  3.000000e+000  2.632748e+000
      vertex  1.438277e+000  2.400000e+001  2.632748e+000
    endloop
  endfacet
  facet normal  3.263019e-001  8.936616e-001  3.080521e-001
    outer loop
      vertex -1.917703e+000  2.500000e+001 -3.510330e+000
      vertex -3.614774e+000  2.500000e+001 -1.712720e+000
      vertex -2.812085e+000  2.470711e+001 -1.713279e+000
    endloop
  endfacet
  facet normal  2.720284e-001  9.190608e-001  2.851802e-001
    outer loop
      vertex -1.917703e+000  2.500000e+001 -3.510330e+000
      vertex -2.812085e+000  2.470711e+001 -1.713279e+000
      vertex -1.578698e+000  2.470711e+001 -2.889786e+000
    endloop
  endfacet
  facet normal -9.299335e-002  9.190608e-001 -3.829875e-001
    outer loop
      vertex  1.917702e+000  2.500000e+001  3.510330e+000
      vertex  1.578697e+000  2.470711e+001  2.889786e+000
      vertex -7.770103e-002  2.470711e+001  3.291976e+000
    endloop
  endfacet
  facet normal -8.291531e-002  8.936616e-001 -4.410149e-001
    outer loop
      vertex  1.917702e+000  2.500000e+001  3.510330e+000
      vertex -7.770103e-002  2.470711e+001  3.291976e+000
      vertex -5.118667e-001  2.500000e+001  3.967114e+000
    endloop
  endfacet
  facet normal -1.639269e-001  4.614221e-001 -8.719046e-001
    outer loop
      vertex  1.438277e+000  2.400000e+001  2.632748e+000
      vertex -3.839000e-001  2.400000e+001  2.975335e+000
      vertex -7.770103e-002  2.470711e+001  3.291976e+000
    endloop
  endfacet
  facet normal -2.190707e-001  3.714702e-001 -9.022294e-001
    outer loop
      vertex  1.438277e+000  2.400000e+001  2.632748e+000
      vertex -7.770103e-002  2.470711e+001  3.291976e+000
      vertex  1.578697e+000  2.470711e+001  2.889786e+000
    endloop
  endfacet
  facet normal  6.408355e-001  3.714703e-001  6.718181e-001
    outer loop
      vertex -1.438277e+000  2.400000e+001 -2.632748e+000
      vertex -1.578698e+000  2.470711e+001 -2.889786e+000
      vertex -2.812085e+000  2.470711e+001 -1.713279e+000
    endloop
  endfacet
  facet normal  6.451124e-001  4.614220e-001  6.090319e-001
    outer loop
      vertex -1.438277e+000  2.400000e+001 -2.632748e+000
      vertex -2.812085e+000  2.470711e+001 -1.713279e+000
      vertex -2.711081e+000  2.400000e+001 -1.284540e+000
    endloop
  endfacet
  facet normal  3.411224e-001  9.346753e-001  1.000881e-001
    outer loop
      vertex -3.614774e+000  2.500000e+001 -1.712720e+000
      vertex -3.291976e+000  2.470711e+001 -7.770103e-002
      vertex -2.812085e+000  2.470711e+001 -1.713279e+000
    endloop
  endfacet
  facet normal  3.290705e-001  9.409189e-001 -7.990175e-002
    outer loop
      vertex -3.931125e+000  2.500000e+001  7.390915e-001
      vertex -2.889786e+000  2.470711e+001  1.578697e+000
      vertex -3.291976e+000  2.470711e+001 -7.770103e-002
    endloop
  endfacet
  facet normal  4.801427e-001  8.749999e-001  6.195159e-002
    outer loop
      vertex -3.931125e+000  2.500000e+001  7.390915e-001
      vertex -3.291976e+000  2.470711e+001 -7.770103e-002
      vertex -3.614774e+000  2.500000e+001 -1.712720e+000
    endloop
  endfacet
  facet normal  8.518109e-001  5.121900e-001  1.099070e-001
    outer loop
      vertex -3.291976e+000  2.470711e+001 -7.770103e-002
      vertex -2.948344e+000  2.400000e+001  5.543185e-001
      vertex -2.711081e+000  2.400000e+001 -1.284540e+000
    endloop
  endfacet
  facet normal  9.170977e-001  2.941525e-001  2.690838e-001
    outer loop
      vertex -3.291976e+000  2.470711e+001 -7.770103e-002
      vertex -2.711081e+000  2.400000e+001 -1.284540e+000
      vertex -2.812085e+000  2.470711e+001 -1.713279e+000
    endloop
  endfacet
  facet normal  2.450325e-001  9.409189e-001 -2.337321e-001
    outer loop
      vertex -2.745920e+000  2.500000e+001  2.908595e+000
      vertex -1.713279e+000  2.470711e+001  2.812085e+000
      vertex -2.889786e+000  2.470711e+001  1.578697e+000
    endloop
  endfacet
  facet normal  4.361911e-001  8.677292e-001 -2.382923e-001
    outer loop
      vertex -2.745920e+000  2.500000e+001  2.908595e+000
      vertex -2.889786e+000  2.470711e+001  1.578697e+000
      vertex -3.931125e+000  2.500000e+001  7.390915e-001
    endloop
  endfacet
  facet normal  7.452375e-001  5.280818e-001 -4.071251e-001
    outer loop
      vertex -2.889786e+000  2.470711e+001  1.578697e+000
      vertex -2.059440e+000  2.400000e+001  2.181446e+000
      vertex -2.948344e+000  2.400000e+001  5.543185e-001
    endloop
  endfacet
  facet normal  9.401855e-001  2.528565e-001 -2.282868e-001
    outer loop
      vertex -2.889786e+000  2.470711e+001  1.578697e+000
      vertex -2.948344e+000  2.400000e+001  5.543185e-001
      vertex -3.291976e+000  2.470711e+001 -7.770103e-002
    endloop
  endfacet
  facet normal  1.000881e-001  9.346753e-001 -3.411224e-001
    outer loop
      vertex -5.118667e-001  2.500000e+001  3.967114e+000
      vertex -7.770103e-002  2.470711e+001  3.291976e+000
      vertex -1.713279e+000  2.470711e+001  2.812085e+000
    endloop
  endfacet
  facet normal  2.072917e-001  8.750001e-001 -4.374987e-001
    outer loop
      vertex -5.118667e-001  2.500000e+001  3.967114e+000
      vertex -1.713279e+000  2.470711e+001  2.812085e+000
      vertex -2.745920e+000  2.500000e+001  2.908595e+000
    endloop
  endfacet
  facet normal  3.677519e-001  5.121900e-001 -7.761572e-001
    outer loop
      vertex -1.713279e+000  2.470711e+001  2.812085e+000
      vertex -3.839000e-001  2.400000e+001  2.975335e+000
      vertex -2.059440e+000  2.400000e+001  2.181446e+000
    endloop
  endfacet
  facet normal  7.000811e-001  2.528565e-001 -6.677949e-001
    outer loop
      vertex -1.713279e+000  2.470711e+001  2.812085e+000
      vertex -2.059440e+000  2.400000e+001  2.181446e+000
      vertex -2.889786e+000  2.470711e+001  1.578697e+000
    endloop
  endfacet
  facet normal  2.690838e-001  2.941527e-001 -9.170976e-001
    outer loop
      vertex -7.770103e-002  2.470711e+001  3.291976e+000
      vertex -3.839000e-001  2.400000e+001  2.975335e+000
      vertex -1.713279e+000  2.470711e+001  2.812085e+000
    endloop
  endfacet
  facet normal -3.263019e-001  8.936616e-001 -3.080522e-001
    outer loop
      vertex  1.917702e+000  2.500000e+001  3.510330e+000
      vertex  3.614774e+000  2.500000e+001  1.712720e+000
      vertex  2.812085e+000  2.470711e+001  1.713279e+000
    endloop
  endfacet
  facet normal -2.720284e-001  9.190609e-001 -2.851802e-001
    outer loop
      vertex  1.917702e+000  2.500000e+001  3.510330e+000
      vertex  2.812085e+000  2.470711e+001  1.713279e+000
      vertex  1.578697e+000  2.470711e+001  2.889786e+000
    endloop
  endfacet
  facet normal  9.299340e-002  9.190609e-001  3.829875e-001
    outer loop
      vertex -1.917703e+000  2.500000e+001 -3.510330e+000
      vertex -1.578698e+000  2.470711e+001 -2.889786e+000
      vertex  7.770061e-002  2.470711e+001 -3.291976e+000
    endloop
  endfacet
  facet normal  8.291534e-002  8.936616e-001  4.410149e-001
    outer loop
      vertex -1.917703e+000  2.500000e+001 -3.510330e+000
      vertex  7.770061e-002  2.470711e+001 -3.291976e+000
      vertex  5.118667e-001  2.500000e+001 -3.967114e+000
    endloop
  endfacet
  facet normal  1.639269e-001  4.614222e-001  8.719046e-001
    outer loop
      vertex -1.438277e+000  2.400000e+001 -2.632748e+000
      vertex  3.839000e-001  2.400000e+001 -2.975335e+000
      vertex  7.770061e-002  2.470711e+001 -3.291976e+000
    endloop
  endfacet
  facet normal  2.190708e-001  3.714700e-001  9.022294e-001
    outer loop
      vertex -1.438277e+000  2.400000e+001 -2.632748e+000
      vertex  7.770061e-002  2.470711e+001 -3.291976e+000
      vertex -1.578698e+000  2.470711e+001 -2.889786e+000
    endloop
  endfacet
  facet normal -6.408356e-001  3.714701e-001 -6.718183e-001
    outer loop
      vertex  1.438277e+000  2.400000e+001  2.632748e+000
      vertex  1.578697e+000  2.470711e+001  2.889786e+000
      vertex  2.812085e+000  2.470711e+001  1.713279e+000
    endloop
  endfacet
  facet normal -6.451124e-001  4.614220e-001 -6.090319e-001
    outer loop
      vertex  1.438277e+000  2.400000e+001  2.632748e+000
      vertex  2.812085e+000  2.470711e+001  1.713279e+000
      vertex  2.711081e+000  2.400000e+001  1.284540e+000
    endloop
  endfacet
  facet normal -3.411224e-001  9.346753e-001 -1.000881e-001
    outer loop
      vertex  3.614774e+000  2.500000e+001  1.712720e+000
      vertex  3.291976e+000  2.470711e+001  7.770087e-002
      vertex  2.812085e+000  2.470711e+001  1.713279e+000
    endloop
  endfacet
  facet normal -3.290705e-001  9.409189e-001  7.990178e-002
    outer loop
      vertex  3.931125e+000  2.500000e+001 -7.390915e-001
      vertex  2.889786e+000  2.470711e+001 -1.578697e+000
      vertex  3.291976e+000  2.470711e+001  7.770087e-002
    endloop
  endfacet
  facet normal -4.801427e-001  8.749999e-001 -6.195159e-002
    outer loop
      vertex  3.931125e+000  2.500000e+001 -7.390915e-001
      vertex  3.291976e+000  2.470711e+001  7.770087e-002
      vertex  3.614774e+000  2.500000e+001  1.712720e+000
    endloop
  endfacet
  facet normal -8.518109e-001  5.121900e-001 -1.099070e-001
    outer loop
      vertex  3.291976e+000  2.470711e+001  7.770087e-002
      vertex  2.948344e+000  2.400000e+001 -5.543185e-001
      vertex  2.711081e+000  2.400000e+001  1.284540e+000
    endloop
  endfacet
  facet normal -9.170977e-001  2.941525e-001 -2.690838e-001
    outer loop
      vertex  3.291976e+000  2.470711e+001  7.770087e-002
      vertex  2.711081e+000  2.400000e+001  1.284540e+000
      vertex  2.812085e+000  2.470711e+001  1.713279e+000
    endloop
  endfacet
  facet normal -2.450325e-001  9.409189e-001  2.337321e-001
    outer loop
      vertex  2.745920e+000  2.500000e+001 -2.908595e+000
      vertex  1.713279e+000  2.470711e+001 -2.812085e+000
      vertex  2.889786e+000  2.470711e+001 -1.578697e+000
    endloop
  endfacet
  facet normal -4.361911e-001  8.677294e-001  2.382922e-001
    outer loop
      vertex  2.745920e+000  2.500000e+001 -2.908595e+000
      vertex  2.889786e+000  2.470711e+001 -1.578697e+000
      vertex  3.931125e+000  2.500000e+001 -7.390915e-001
    endloop
  endfacet
  facet normal -7.452375e-001  5.280817e-001  4.071251e-001
    outer loop
      vertex  2.889786e+000  2.470711e+001 -1.578697e+000
      vertex  2.059440e+000  2.400000e+001 -2.181446e+000
      vertex  2.948344e+000  2.400000e+001 -5.543185e-001
    endloop
  endfacet
  facet normal -9.401855e-001  2.528564e-001  2.282869e-001
    outer loop
      vertex  2.889786e+000  2.470711e+001 -1.578697e+000
      vertex  2.948344e+000  2.400000e+001 -5.543185e-001
      vertex  3.291976e+000  2.470711e+001  7.770087e-002
    endloop
  endfacet
  facet normal -1.000880e-001  9.346753e-001  3.411224e-001
    outer loop
      vertex  5.118667e-001  2.500000e+001 -3.967114e+000
      vertex  7.770061e-002  2.470711e+001 -3.291976e+000
      vertex  1.713279e+000  2.470711e+001 -2.812085e+000
    endloop
  endfacet
  facet normal -2.072918e-001  8.750001e-001  4.374987e-001
    outer loop
      vertex  5.118667e-001  2.500000e+001 -3.967114e+000
      vertex  1.713279e+000  2.470711e+001 -2.812085e+000
      vertex  2.745920e+000  2.500000e+001 -2.908595e+000
    endloop
  endfacet
  facet normal -3.677518e-001  5.121902e-001  7.761571e-001
    outer loop
      vertex  1.713279e+000  2.470711e+001 -2.812085e+000
      vertex  3.839000e-001  2.400000e+001 -2.975335e+000
      vertex  2.059440e+000  2.400000e+001 -2.181446e+000
    endloop
  endfacet
  facet normal -7.000811e-001  2.528565e-001  6.677949e-001
    outer loop
      vertex  1.713279e+000  2.470711e+001 -2.812085e+000
      vertex  2.059440e+000  2.400000e+001 -2.181446e+000
      vertex  2.889786e+000  2.470711e+001 -1.578697e+000
    endloop
  endfacet
  facet normal -2.690837e-001  2.941526e-001  9.170977e-001
    outer loop
      vertex  7.770061e-002  2.470711e+001 -3.291976e+000
      vertex  3.839000e-001  2.400000e+001 -2.975335e+000
      vertex  1.713279e+000  2.470711e+001 -2.812085e+000
    endloop
  endfacet
  facet normal  6.352331e-002  9.390461e-001  3.378716e-001
    outer loop
      vertex  1.917702e+000  2.500000e+001  3.510330e+000
      vertex -5.118667e-001  2.500000e+001  3.967114e+000
      vertex -1.110716e-001  2.470711e+001  4.705796e+000
    endloop
  endfacet
  facet normal  9.299339e-002  9.190608e-001  3.829875e-001
    outer loop
      vertex  1.917702e+000  2.500000e+001  3.510330e+000
      vertex -1.110716e-001  2.470711e+001  4.705796e+000
      vertex  2.256707e+000  2.470711e+001  4.130875e+000
    endloop
  endfacet
  facet normal -2.720284e-001  9.190608e-001 -2.851803e-001
    outer loop
      vertex -1.917703e+000  2.500000e+001 -3.510330e+000
      vertex -2.256707e+000  2.470711e+001 -4.130875e+000
      vertex -4.019803e+000  2.470711e+001 -2.449089e+000
    endloop
  endfacet
  facet normal -2.499874e-001  9.390461e-001 -2.360058e-001
    outer loop
      vertex -1.917703e+000  2.500000e+001 -3.510330e+000
      vertex -4.019803e+000  2.470711e+001 -2.449089e+000
      vertex -3.614774e+000  2.500000e+001 -1.712720e+000
    endloop
  endfacet
  facet normal -3.141370e-001  9.485120e-001 -4.053230e-002
    outer loop
      vertex -4.705796e+000  2.470711e+001 -1.110716e-001
      vertex -3.931125e+000  2.500000e+001  7.390915e-001
      vertex -3.614774e+000  2.500000e+001 -1.712720e+000
    endloop
  endfacet
  facet normal -4.232309e-001  8.974715e-001 -1.241794e-001
    outer loop
      vertex -4.705796e+000  2.470711e+001 -1.110716e-001
      vertex -3.614774e+000  2.500000e+001 -1.712720e+000
      vertex -4.019803e+000  2.470711e+001 -2.449089e+000
    endloop
  endfacet
  facet normal -2.707938e-001  9.512023e-001  1.479353e-001
    outer loop
      vertex -4.130875e+000  2.470711e+001  2.256707e+000
      vertex -2.745920e+000  2.500000e+001  2.908595e+000
      vertex -3.931125e+000  2.500000e+001  7.390915e-001
    endloop
  endfacet
  facet normal -4.553471e-001  8.834222e-001  1.105631e-001
    outer loop
      vertex -4.130875e+000  2.470711e+001  2.256707e+000
      vertex -3.931125e+000  2.500000e+001  7.390915e-001
      vertex -4.705796e+000  2.470711e+001 -1.110716e-001
    endloop
  endfacet
  facet normal -1.356222e-001  9.485120e-001  2.862369e-001
    outer loop
      vertex -2.449089e+000  2.470711e+001  4.019803e+000
      vertex -5.118667e-001  2.500000e+001  3.967114e+000
      vertex -2.745920e+000  2.500000e+001  2.908595e+000
    endloop
  endfacet
  facet normal -3.390608e-001  8.834221e-001  3.234240e-001
    outer loop
      vertex -2.449089e+000  2.470711e+001  4.019803e+000
      vertex -2.745920e+000  2.500000e+001  2.908595e+000
      vertex -4.130875e+000  2.470711e+001  2.256707e+000
    endloop
  endfacet
  facet normal -1.241793e-001  8.974715e-001  4.232308e-001
    outer loop
      vertex -1.110716e-001  2.470711e+001  4.705796e+000
      vertex -5.118667e-001  2.500000e+001  3.967114e+000
      vertex -2.449089e+000  2.470711e+001  4.019803e+000
    endloop
  endfacet
  facet normal -6.408354e-001  3.714701e-001 -6.718183e-001
    outer loop
      vertex -2.256707e+000  2.470711e+001 -4.130875e+000
      vertex -2.397128e+000  2.400000e+001 -4.387913e+000
      vertex -4.019803e+000  2.470711e+001 -2.449089e+000
    endloop
  endfacet
  facet normal -6.408356e-001  3.714700e-001 -6.718184e-001
    outer loop
      vertex -4.019803e+000  2.470711e+001 -2.449089e+000
      vertex -2.397128e+000  2.400000e+001 -4.387913e+000
      vertex -4.269930e+000  2.400000e+001 -2.601480e+000
    endloop
  endfacet
  facet normal -8.908890e-001  3.714701e-001 -2.613940e-001
    outer loop
      vertex -4.019803e+000  2.470711e+001 -2.449089e+000
      vertex -4.269930e+000  2.400000e+001 -2.601480e+000
      vertex -4.705796e+000  2.470711e+001 -1.110716e-001
    endloop
  endfacet
  facet normal -8.908891e-001  3.714697e-001 -2.613939e-001
    outer loop
      vertex -4.705796e+000  2.470711e+001 -1.110716e-001
      vertex -4.269930e+000  2.400000e+001 -2.601480e+000
      vertex -4.998608e+000  2.400000e+001 -1.179829e-001
    endloop
  endfacet
  facet normal -9.022295e-001  3.714697e-001  2.190708e-001
    outer loop
      vertex -4.705796e+000  2.470711e+001 -1.110716e-001
      vertex -4.998608e+000  2.400000e+001 -1.179829e-001
      vertex -4.130875e+000  2.470711e+001  2.256707e+000
    endloop
  endfacet
  facet normal -9.022295e-001  3.714702e-001  2.190707e-001
    outer loop
      vertex -4.130875e+000  2.470711e+001  2.256707e+000
      vertex -4.998608e+000  2.400000e+001 -1.179829e-001
      vertex -4.387913e+000  2.400000e+001  2.397128e+000
    endloop
  endfacet
  facet normal -6.718183e-001  3.714701e-001  6.408354e-001
    outer loop
      vertex -4.130875e+000  2.470711e+001  2.256707e+000
      vertex -4.387913e+000  2.400000e+001  2.397128e+000
      vertex -2.449089e+000  2.470711e+001  4.019803e+000
    endloop
  endfacet
  facet normal -6.718184e-001  3.714700e-001  6.408356e-001
    outer loop
      vertex -2.449089e+000  2.470711e+001  4.019803e+000
      vertex -4.387913e+000  2.400000e+001  2.397128e+000
      vertex -2.601480e+000  2.400000e+001  4.269930e+000
    endloop
  endfacet
  facet normal -2.613940e-001  3.714701e-001  8.908890e-001
    outer loop
      vertex -2.449089e+000  2.470711e+001  4.019803e+000
      vertex -2.601480e+000  2.400000e+001  4.269930e+000
      vertex -1.110716e-001  2.470711e+001  4.705796e+000
    endloop
  endfacet
  facet normal -2.613939e-001  3.714697e-001  8.908891e-001
    outer loop
      vertex -1.110716e-001  2.470711e+001  4.705796e+000
      vertex -2.601480e+000  2.400000e+001  4.269930e+000
      vertex -1.179829e-001  2.400000e+001  4.998608e+000
    endloop
  endfacet
  facet normal  2.190708e-001  3.714697e-001  9.022295e-001
    outer loop
      vertex -1.110716e-001  2.470711e+001  4.705796e+000
      vertex -1.179829e-001  2.400000e+001  4.998608e+000
      vertex  2.256707e+000  2.470711e+001  4.130875e+000
    endloop
  endfacet
  facet normal  2.190707e-001  3.714702e-001  9.022295e-001
    outer loop
      vertex  2.256707e+000  2.470711e+001  4.130875e+000
      vertex -1.179829e-001  2.400000e+001  4.998608e+000
      vertex  2.397128e+000  2.400000e+001  4.387913e+000
    endloop
  endfacet
  facet normal -6.352331e-002  9.390461e-001 -3.378715e-001
    outer loop
      vertex -1.917703e+000  2.500000e+001 -3.510330e+000
      vertex  5.118667e-001  2.500000e+001 -3.967114e+000
      vertex  1.110716e-001  2.470711e+001 -4.705796e+000
    endloop
  endfacet
  facet normal -9.299338e-002  9.190609e-001 -3.829874e-001
    outer loop
      vertex -1.917703e+000  2.500000e+001 -3.510330e+000
      vertex  1.110716e-001  2.470711e+001 -4.705796e+000
      vertex -2.256707e+000  2.470711e+001 -4.130875e+000
    endloop
  endfacet
  facet normal  2.720283e-001  9.190608e-001  2.851802e-001
    outer loop
      vertex  1.917702e+000  2.500000e+001  3.510330e+000
      vertex  2.256707e+000  2.470711e+001  4.130875e+000
      vertex  4.019803e+000  2.470711e+001  2.449089e+000
    endloop
  endfacet
  facet normal  2.499873e-001  9.390461e-001  2.360058e-001
    outer loop
      vertex  1.917702e+000  2.500000e+001  3.510330e+000
      vertex  4.019803e+000  2.470711e+001  2.449089e+000
      vertex  3.614774e+000  2.500000e+001  1.712720e+000
    endloop
  endfacet
  facet normal  3.141370e-001  9.485120e-001  4.053230e-002
    outer loop
      vertex  4.705796e+000  2.470711e+001  1.110716e-001
      vertex  3.931125e+000  2.500000e+001 -7.390915e-001
      vertex  3.614774e+000  2.500000e+001  1.712720e+000
    endloop
  endfacet
  facet normal  4.232309e-001  8.974715e-001  1.241794e-001
    outer loop
      vertex  4.705796e+000  2.470711e+001  1.110716e-001
      vertex  3.614774e+000  2.500000e+001  1.712720e+000
      vertex  4.019803e+000  2.470711e+001  2.449089e+000
    endloop
  endfacet
  facet normal  2.707938e-001  9.512023e-001 -1.479353e-001
    outer loop
      vertex  4.130875e+000  2.470711e+001 -2.256707e+000
      vertex  2.745920e+000  2.500000e+001 -2.908595e+000
      vertex  3.931125e+000  2.500000e+001 -7.390915e-001
    endloop
  endfacet
  facet normal  4.553471e-001  8.834222e-001 -1.105631e-001
    outer loop
      vertex  4.130875e+000  2.470711e+001 -2.256707e+000
      vertex  3.931125e+000  2.500000e+001 -7.390915e-001
      vertex  4.705796e+000  2.470711e+001  1.110716e-001
    endloop
  endfacet
  facet normal  1.356222e-001  9.485120e-001 -2.862369e-001
    outer loop
      vertex  2.449089e+000  2.470711e+001 -4.019803e+000
      vertex  5.118667e-001  2.500000e+001 -3.967114e+000
      vertex  2.745920e+000  2.500000e+001 -2.908595e+000
    endloop
  endfacet
  facet normal  3.390608e-001  8.834221e-001 -3.234240e-001
    outer loop
      vertex  2.449089e+000  2.470711e+001 -4.019803e+000
      vertex  2.745920e+000  2.500000e+001 -2.908595e+000
      vertex  4.130875e+000  2.470711e+001 -2.256707e+000
    endloop
  endfacet
  facet normal  1.241793e-001  8.974715e-001 -4.232308e-001
    outer loop
      vertex  1.110716e-001  2.470711e+001 -4.705796e+000
      vertex  5.118667e-001  2.500000e+001 -3.967114e+000
      vertex  2.449089e+000  2.470711e+001 -4.019803e+000
    endloop
  endfacet
  facet normal  6.408354e-001  3.714701e-001  6.718183e-001
    outer loop
      vertex  2.256707e+000  2.470711e+001  4.130875e+000
      vertex  2.397128e+000  2.400000e+001  4.387913e+000
      vertex  4.019803e+000  2.470711e+001  2.449089e+000
    endloop
  endfacet
  facet normal  6.408356e-001  3.714700e-001  6.718184e-001
    outer loop
      vertex  4.019803e+000  2.470711e+001  2.449089e+000
      vertex  2.397128e+000  2.400000e+001  4.387913e+000
      vertex  4.269930e+000  2.400000e+001  2.601480e+000
    endloop
  endfacet
  facet normal  8.908890e-001  3.714701e-001  2.613940e-001
    outer loop
      vertex  4.019803e+000  2.470711e+001  2.449089e+000
      vertex  4.269930e+000  2.400000e+001  2.601480e+000
      vertex  4.705796e+000  2.470711e+001  1.110716e-001
    endloop
  endfacet
  facet normal  8.908891e-001  3.714697e-001  2.613939e-001
    outer loop
      vertex  4.705796e+000  2.470711e+001  1.110716e-001
      vertex  4.269930e+000  2.400000e+001  2.601480e+000
      vertex  4.998608e+000  2.400000e+001  1.179829e-001
    endloop
  endfacet
  facet normal  9.022295e-001  3.714697e-001 -2.190708e-001
    outer loop
      vertex  4.705796e+000  2.470711e+001  1.110716e-001
      vertex  4.998608e+000  2.400000e+001  1.179829e-001
      vertex  4.130875e+000  2.470711e+001 -2.256707e+000
    endloop
  endfacet
  facet normal  9.022295e-001  3.714702e-001 -2.190707e-001
    outer loop
      vertex  4.130875e+000  2.470711e+001 -2.256707e+000
      vertex  4.998608e+000  2.400000e+001  1.179829e-001
      vertex  4.387913e+000  2.400000e+001 -2.397128e+000
    endloop
  endfacet
  facet normal  6.718183e-001  3.714701e-001 -6.408354e-001
    outer loop
      vertex  4.130875e+000  2.470711e+001 -2.256707e+000
      vertex  4.387913e+000  2.400000e+001 -2.397128e+000
      vertex  2.449089e+000  2.470711e+001 -4.019803e+000
    endloop
  endfacet
  facet normal  6.718184e-001  3.714700e-001 -6.408356e-001
    outer loop
      vertex  2.449089e+000  2.470711e+001 -4.019803e+000
      vertex  4.387913e+000  2.400000e+001 -2.397128e+000
      vertex  2.601480e+000  2.400000e+001 -4.269930e+000
    endloop
  endfacet
  facet normal  2.613940e-001  3.714701e-001 -8.908890e-001
    outer loop
      vertex  2.449089e+000  2.470711e+001 -4.019803e+000
      vertex  2.601480e+000  2.400000e+001 -4.269930e+000
      vertex  1.110716e-001  2.470711e+001 -4.705796e+000
    endloop
  endfacet
  facet normal  2.613939e-001  3.714697e-001 -8.908891e-001
    outer loop
      vertex  1.110716e-001  2.470711e+001 -4.705796e+000
      vertex  2.601480e+000  2.400000e+001 -4.269930e+000
      vertex  1.179829e-001  2.400000e+001 -4.998608e+000
    endloop
  endfacet
  facet normal -2.190708e-001  3.714697e-001 -9.022295e-001
    outer loop
      vertex  1.110716e-001  2.470711e+001 -4.705796e+000
      vertex  1.179829e-001  2.400000e+001 -4.998608e+000
      vertex -2.256707e+000  2.470711e+001 -4.130875e+000
    endloop
  endfacet
  facet normal -2.190707e-001  3.714702e-001 -9.022295e-001
    outer loop
      vertex -2.256707e+000  2.470711e+001 -4.130875e+000
      vertex  1.179829e-001  2.400000e+001 -4.998608e+000
      vertex -2.397128e+000  2.400000e+001 -4.387913e+000
    endloop
  endfacet
  facet normal  -0.000000e+000  1.000000e+000  0.000000e+000
    outer loop
      vertex  7.191383e-001  3.000000e+000  1.316374e+000
      vertex -4.223093e-001  3.000000e+000  1.439324e+000
      vertex -3.839000e-001  3.000000e+000  2.975335e+000
    endloop
  endfacet
  facet normal  0.000000e+000  9.999999e-001  0.000000e+000
    outer loop
      vertex  7.191383e-001  3.000000e+000  1.316374e+000
      vertex -3.839000e-001  3.000000e+000  2.975335e+000
      vertex  1.438277e+000  3.000000e+000  2.632748e+000
    endloop
  endfacet
  facet normal  0.000000e+000  9.999999e-001  0.000000e+000
    outer loop
      vertex  7.191383e-001  3.000000e+000  1.316374e+000
      vertex  1.438277e+000  3.000000e+000  2.632748e+000
      vertex  2.711081e+000  3.000000e+000  1.284540e+000
    endloop
  endfacet
  facet normal  0.000000e+000  1.000000e+000  0.000000e+000
    outer loop
      vertex  7.191383e-001  3.000000e+000  1.316374e+000
      vertex  2.711081e+000  3.000000e+000  1.284540e+000
      vertex  1.439324e+000  3.000000e+000  4.223093e-001
    endloop
  endfacet
  facet normal  0.000000e+000  1.000000e+000  -0.000000e+000
    outer loop
      vertex  4.223093e-001  3.000000e+000 -1.439324e+000
      vertex  3.839000e-001  3.000000e+000 -2.975335e+000
      vertex -7.191383e-001  3.000000e+000 -1.316374e+000
    endloop
  endfacet
  facet normal  0.000000e+000  9.999999e-001  0.000000e+000
    outer loop
      vertex -7.191383e-001  3.000000e+000 -1.316374e+000
      vertex  3.839000e-001  3.000000e+000 -2.975335e+000
      vertex -1.438277e+000  3.000000e+000 -2.632748e+000
    endloop
  endfacet
  facet normal  0.000000e+000  9.999999e-001  -0.000000e+000
    outer loop
      vertex -7.191383e-001  3.000000e+000 -1.316374e+000
      vertex -1.438277e+000  3.000000e+000 -2.632748e+000
      vertex -2.711081e+000  3.000000e+000 -1.284540e+000
    endloop
  endfacet
  facet normal  -0.000000e+000  1.000000e+000  0.000000e+000
    outer loop
      vertex -7.191383e-001  3.000000e+000 -1.316374e+000
      vertex -2.711081e+000  3.000000e+000 -1.284540e+000
      vertex -1.439324e+000  3.000000e+000 -4.223093e-001
    endloop
  endfacet
  facet normal  0.000000e+000  1.000000e+000  0.000000e+000
    outer loop
      vertex -1.439324e+000  3.000000e+000 -4.223093e-001
      vertex -2.711081e+000  3.000000e+000 -1.284540e+000
      vertex -2.948344e+000  3.000000e+000  5.543185e-001
    endloop
  endfacet
  facet normal  -0.000000e+000  9.999999e-001  0.000000e+000
    outer loop
      vertex -1.439324e+000  3.000000e+000 -4.223093e-001
      vertex -2.948344e+000  3.000000e+000  5.543185e-001
      vertex -1.316374e+000  3.000000e+000  7.191383e-001
    endloop
  endfacet
  facet normal  0.000000e+000  1.000000e+000  0.000000e+000
    outer loop
      vertex -1.316374e+000  3.000000e+000  7.191383e-001
      vertex -2.948344e+000  3.000000e+000  5.543185e-001
      vertex -4.223093e-001  3.000000e+000  1.439324e+000
    endloop
  endfacet
  facet normal  0.000000e+000  1.000000e+000  0.000000e+000
    outer loop
      vertex -4.223093e-001  3.000000e+000  1.439324e+000
      vertex -2.948344e+000  3.000000e+000  5.543185e-001
      vertex -2.059440e+000  3.000000e+000  2.181446e+000
    endloop
  endfacet
  facet normal  -0.000000e+000  1.000000e+000  0.000000e+000
    outer loop
      vertex -4.223093e-001  3.000000e+000  1.439324e+000
      vertex -2.059440e+000  3.000000e+000  2.181446e+000
      vertex -3.839000e-001  3.000000e+000  2.975335e+000
    endloop
  endfacet
  facet normal  0.000000e+000  1.000000e+000  0.000000e+000
    outer loop
      vertex  1.439324e+000  3.000000e+000  4.223093e-001
      vertex  2.711081e+000  3.000000e+000  1.284540e+000
      vertex  1.316374e+000  3.000000e+000 -7.191383e-001
    endloop
  endfacet
  facet normal  0.000000e+000  1.000000e+000  0.000000e+000
    outer loop
      vertex  1.316374e+000  3.000000e+000 -7.191383e-001
      vertex  2.711081e+000  3.000000e+000  1.284540e+000
      vertex  2.948344e+000  3.000000e+000 -5.543185e-001
    endloop
  endfacet
  facet normal  0.000000e+000  1.000000e+000  0.000000e+000
    outer loop
      vertex  1.316374e+000  3.000000e+000 -7.191383e-001
      vertex  2.948344e+000  3.000000e+000 -5.543185e-001
      vertex  4.223093e-001  3.000000e+000 -1.439324e+000
    endloop
  endfacet
  facet normal  -0.000000e+000  1.000000e+000  0.000000e+000
    outer loop
      vertex  4.223093e-001  3.000000e+000 -1.439324e+000
      vertex  2.948344e+000  3.000000e+000 -5.543185e-001
      vertex  2.059440e+000  3.000000e+000 -2.181446e+000
    endloop
  endfacet
  facet normal  0.000000e+000  1.000000e+000  0.000000e+000
    outer loop
      vertex  4.223093e-001  3.000000e+000 -1.439324e+000
      vertex  2.059440e+000  3.000000e+000 -2.181446e+000
      vertex  3.839000e-001  3.000000e+000 -2.975335e+000
    endloop
  endfacet
  facet normal  -0.000000e+000  1.000000e+000  0.000000e+000
    outer loop
      vertex  4.223093e-001  0.000000e+000 -1.439324e+000
      vertex -7.191383e-001  0.000000e+000 -1.316374e+000
      vertex  1.316374e+000  0.000000e+000 -7.191383e-001
    endloop
  endfacet
  facet normal  0.000000e+000  1.000000e+000  0.000000e+000
    outer loop
      vertex  1.316374e+000  0.000000e+000 -7.191383e-001
      vertex -7.191383e-001  0.000000e+000 -1.316374e+000
      vertex -1.439324e+000  0.000000e+000 -4.223093e-001
    endloop
  endfacet
  facet normal  -0.000000e+000  1.000000e+000  0.000000e+000
    outer loop
      vertex  1.316374e+000  0.000000e+000 -7.191383e-001
      vertex -1.439324e+000  0.000000e+000 -4.223093e-001
      vertex  1.439324e+000  0.000000e+000  4.223093e-001
    endloop
  endfacet
  facet normal  0.000000e+000  1.000000e+000  0.000000e+000
    outer loop
      vertex  1.439324e+000  0.000000e+000  4.223093e-001
      vertex -1.439324e+000  0.000000e+000 -4.223093e-001
      vertex -1.316374e+000  0.000000e+000  7.191383e-001
    endloop
  endfacet
  facet normal  -0.000000e+000  1.000000e+000  0.000000e+000
    outer loop
      vertex  1.439324e+000  0.000000e+000  4.223093e-001
      vertex -1.316374e+000  0.000000e+000  7.191383e-001
      vertex  7.191383e-001  0.000000e+000  1.316374e+000
    endloop
  endfacet
  facet normal  0.000000e+000  1.000000e+000  0.000000e+000
    outer loop
      vertex  7.191383e-001  0.000000e+000  1.316374e+000
      vertex -1.316374e+000  0.000000e+000  7.191383e-001
      vertex -4.223093e-001  0.000000e+000  1.439324e+000
    endloop
  endfacet
  facet normal  0.000000e+000 -1.000000e+000  0.000000e+000
    outer loop
      vertex  1.179829e-001 -1.500000e+001 -4.998608e+000
      vertex  2.601480e+000 -1.500000e+001 -4.269930e+000
      vertex -2.397128e+000 -1.500000e+001 -4.387913e+000
    endloop
  endfacet
  facet normal  0.000000e+000 -1.000000e+000  0.000000e+000
    outer loop
      vertex -1.179829e-001 -1.500000e+001  4.998608e+000
      vertex -2.601480e+000 -1.500000e+001  4.269930e+000
      vertex  2.397128e+000 -1.500000e+001  4.387913e+000
    endloop
  endfacet
  facet normal  0.000000e+000 -1.000000e+000  0.000000e+000
    outer loop
      vertex  2.397128e+000 -1.500000e+001  4.387913e+000
      vertex -2.601480e+000 -1.500000e+001  4.269930e+000
      vertex -4.387913e+000 -1.500000e+001  2.397128e+000
    endloop
  endfacet
  facet normal  0.000000e+000 -1.000000e+000  0.000000e+000
    outer loop
      vertex  2.397128e+000 -1.500000e+001  4.387913e+000
      vertex -4.387913e+000 -1.500000e+001  2.397128e+000
      vertex  4.269930e+000 -1.500000e+001  2.601480e+000
    endloop
  endfacet
  facet normal  0.000000e+000 -1.000000e+000  0.000000e+000
    outer loop
      vertex  4.269930e+000 -1.500000e+001  2.601480e+000
      vertex -4.387913e+000 -1.500000e+001  2.397128e+000
      vertex -4.998608e+000 -1.500000e+001 -1.179829e-001
    endloop
  endfacet
  facet normal  0.000000e+000 -1.000000e+000  0.000000e+000
    outer loop
      vertex  4.269930e+000 -1.500000e+001  2.601480e+000
      vertex -4.998608e+000 -1.500000e+001 -1.179829e-001
      vertex  4.998608e+000 -1.500000e+001  1.179829e-001
    endloop
  endfacet
  facet normal  0.000000e+000 -1.000000e+000  0.000000e+000
    outer loop
      vertex  4.998608e+000 -1.500000e+001  1.179829e-001
      vertex -4.998608e+000 -1.500000e+001 -1.179829e-001
      vertex -4.269930e+000 -1.500000e+001 -2.601480e+000
    endloop
  endfacet
  facet normal  0.000000e+000 -1.000000e+000  0.000000e+000
    outer loop
      vertex  4.998608e+000 -1.500000e+001  1.179829e-001
      vertex -4.269930e+000 -1.500000e+001 -2.601480e+000
      vertex  4.387913e+000 -1.500000e+001 -2.397128e+000
    endloop
  endfacet
  facet normal  0.000000e+000 -1.000000e+000  0.000000e+000
    outer loop
      vertex  4.387913e+000 -1.500000e+001 -2.397128e+000
      vertex -4.269930e+000 -1.500000e+001 -2.601480e+000
      vertex -2.397128e+000 -1.500000e+001 -4.387913e+000
    endloop
  endfacet
  facet normal  0.000000e+000 -1.000000e+000  0.000000e+000
    outer loop
      vertex  4.387913e+000 -1.500000e+001 -2.397128e+000
      vertex -2.397128e+000 -1.500000e+001 -4.387913e+000
      vertex  2.601480e+000 -1.500000e+001 -4.269930e+000
    endloop
  endfacet
  facet normal  6.273124e-001  0.000000e+000 -7.787678e-001
    outer loop
      vertex -1.316374e+000  0.000000e+000  7.191383e-001
      vertex -4.223093e-001  3.000000e+000  1.439324e+000
      vertex -4.223093e-001  0.000000e+000  1.439324e+000
    endloop
  endfacet
  facet normal -1.070952e-001  0.000000e+000 -9.942488e-001
    outer loop
      vertex -4.223093e-001  0.000000e+000  1.439324e+000
      vertex -4.223093e-001  3.000000e+000  1.439324e+000
      vertex  7.191383e-001  3.000000e+000  1.316374e+000
    endloop
  endfacet
  facet normal -1.070952e-001  -0.000000e+000 -9.942488e-001
    outer loop
      vertex -4.223093e-001  0.000000e+000  1.439324e+000
      vertex  7.191383e-001  3.000000e+000  1.316374e+000
      vertex  7.191383e-001  0.000000e+000  1.316374e+000
    endloop
  endfacet
  facet normal  6.273124e-001  0.000000e+000 -7.787678e-001
    outer loop
      vertex -4.223093e-001  3.000000e+000  1.439324e+000
      vertex -1.316374e+000  0.000000e+000  7.191383e-001
      vertex -1.316374e+000  3.000000e+000  7.191383e-001
    endloop
  endfacet
  facet normal  9.942488e-001  0.000000e+000 -1.070952e-001
    outer loop
      vertex -1.316374e+000  3.000000e+000  7.191383e-001
      vertex -1.316374e+000  0.000000e+000  7.191383e-001
      vertex -1.439324e+000  0.000000e+000 -4.223093e-001
    endloop
  endfacet
  facet normal  9.942488e-001  0.000000e+000 -1.070952e-001
    outer loop
      vertex -1.316374e+000  3.000000e+000  7.191383e-001
      vertex -1.439324e+000  0.000000e+000 -4.223093e-001
      vertex -1.439324e+000  3.000000e+000 -4.223093e-001
    endloop
  endfacet
  facet normal  7.787678e-001  0.000000e+000  6.273124e-001
    outer loop
      vertex -1.439324e+000  3.000000e+000 -4.223093e-001
      vertex -1.439324e+000  0.000000e+000 -4.223093e-001
      vertex -7.191383e-001  0.000000e+000 -1.316374e+000
    endloop
  endfacet
  facet normal  7.787678e-001  -0.000000e+000  6.273124e-001
    outer loop
      vertex -1.439324e+000  3.000000e+000 -4.223093e-001
      vertex -7.191383e-001  0.000000e+000 -1.316374e+000
      vertex -7.191383e-001  3.000000e+000 -1.316374e+000
    endloop
  endfacet
  facet normal -6.273124e-001  0.000000e+000  7.787678e-001
    outer loop
      vertex  1.316374e+000  0.000000e+000 -7.191383e-001
      vertex  4.223093e-001  3.000000e+000 -1.439324e+000
      vertex  4.223093e-001  0.000000e+000 -1.439324e+000
    endloop
  endfacet
  facet normal  1.070952e-001  -0.000000e+000  9.942488e-001
    outer loop
      vertex  4.223093e-001  0.000000e+000 -1.439324e+000
      vertex  4.223093e-001  3.000000e+000 -1.439324e+000
      vertex -7.191383e-001  3.000000e+000 -1.316374e+000
    endloop
  endfacet
  facet normal  1.070952e-001  0.000000e+000  9.942488e-001
    outer loop
      vertex  4.223093e-001  0.000000e+000 -1.439324e+000
      vertex -7.191383e-001  3.000000e+000 -1.316374e+000
      vertex -7.191383e-001  0.000000e+000 -1.316374e+000
    endloop
  endfacet
  facet normal -6.273124e-001  0.000000e+000  7.787678e-001
    outer loop
      vertex  4.223093e-001  3.000000e+000 -1.439324e+000
      vertex  1.316374e+000  0.000000e+000 -7.191383e-001
      vertex  1.316374e+000  3.000000e+000 -7.191383e-001
    endloop
  endfacet
  facet normal -9.942488e-001  0.000000e+000  1.070952e-001
    outer loop
      vertex  1.316374e+000  3.000000e+000 -7.191383e-001
      vertex  1.316374e+000  0.000000e+000 -7.191383e-001
      vertex  1.439324e+000  0.000000e+000  4.223093e-001
    endloop
  endfacet
  facet normal -9.942488e-001  0.000000e+000  1.070952e-001
    outer loop
      vertex  1.316374e+000  3.000000e+000 -7.191383e-001
      vertex  1.439324e+000  0.000000e+000  4.223093e-001
      vertex  1.439324e+000  3.000000e+000  4.223093e-001
    endloop
  endfacet
  facet normal -7.787678e-001  -0.000000e+000 -6.273124e-001
    outer loop
      vertex  1.439324e+000  3.000000e+000  4.223093e-001
      vertex  1.439324e+000  0.000000e+000  4.223093e-001
      vertex  7.191383e-001  0.000000e+000  1.316374e+000
    endloop
  endfacet
  facet normal -7.787678e-001  0.000000e+000 -6.273124e-001
    outer loop
      vertex  1.439324e+000  3.000000e+000  4.223093e-001
      vertex  7.191383e-001  0.000000e+000  1.316374e+000
      vertex  7.191383e-001  3.000000e+000  1.316374e+000
    endloop
  endfacet
endsolid CATIA STL
