solid CATIA STL
  facet normal -9.807852e-001  0.000000e+000  1.950904e-001
    outer loop
      vertex -4.000000e+000  0.000000e+000  4.898425e-016
      vertex -4.000000e+000 -1.500000e+000  4.898425e-016
      vertex -3.695518e+000  0.000000e+000  1.530734e+000
    endloop
  endfacet
  facet normal -9.807852e-001  0.000000e+000  1.950904e-001
    outer loop
      vertex -3.695518e+000  0.000000e+000  1.530734e+000
      vertex -4.000000e+000 -1.500000e+000  4.898425e-016
      vertex -3.695518e+000 -1.500000e+000  1.530734e+000
    endloop
  endfacet
  facet normal -8.314697e-001  0.000000e+000  5.555702e-001
    outer loop
      vertex -3.695518e+000  0.000000e+000  1.530734e+000
      vertex -3.695518e+000 -1.500000e+000  1.530734e+000
      vertex -2.828427e+000  0.000000e+000  2.828427e+000
    endloop
  endfacet
  facet normal -8.314697e-001  0.000000e+000  5.555702e-001
    outer loop
      vertex -2.828427e+000  0.000000e+000  2.828427e+000
      vertex -3.695518e+000 -1.500000e+000  1.530734e+000
      vertex -2.828427e+000 -1.500000e+000  2.828427e+000
    endloop
  endfacet
  facet normal -5.555702e-001  0.000000e+000  8.314697e-001
    outer loop
      vertex -2.828427e+000  0.000000e+000  2.828427e+000
      vertex -2.828427e+000 -1.500000e+000  2.828427e+000
      vertex -1.530734e+000  0.000000e+000  3.695518e+000
    endloop
  endfacet
  facet normal -5.555702e-001  0.000000e+000  8.314697e-001
    outer loop
      vertex -1.530734e+000  0.000000e+000  3.695518e+000
      vertex -2.828427e+000 -1.500000e+000  2.828427e+000
      vertex -1.530734e+000 -1.500000e+000  3.695518e+000
    endloop
  endfacet
  facet normal -1.950904e-001  0.000000e+000  9.807852e-001
    outer loop
      vertex -1.530734e+000  0.000000e+000  3.695518e+000
      vertex -1.530734e+000 -1.500000e+000  3.695518e+000
      vertex  2.449213e-016  0.000000e+000  4.000000e+000
    endloop
  endfacet
  facet normal -1.950904e-001  0.000000e+000  9.807852e-001
    outer loop
      vertex  2.449213e-016  0.000000e+000  4.000000e+000
      vertex -1.530734e+000 -1.500000e+000  3.695518e+000
      vertex  2.449213e-016 -1.500000e+000  4.000000e+000
    endloop
  endfacet
  facet normal  1.950904e-001  -0.000000e+000  9.807852e-001
    outer loop
      vertex  2.449213e-016  0.000000e+000  4.000000e+000
      vertex  2.449213e-016 -1.500000e+000  4.000000e+000
      vertex  1.530734e+000  0.000000e+000  3.695518e+000
    endloop
  endfacet
  facet normal  1.950904e-001  0.000000e+000  9.807852e-001
    outer loop
      vertex  1.530734e+000  0.000000e+000  3.695518e+000
      vertex  2.449213e-016 -1.500000e+000  4.000000e+000
      vertex  1.530734e+000 -1.500000e+000  3.695518e+000
    endloop
  endfacet
  facet normal  5.555702e-001  -0.000000e+000  8.314697e-001
    outer loop
      vertex  1.530734e+000  0.000000e+000  3.695518e+000
      vertex  1.530734e+000 -1.500000e+000  3.695518e+000
      vertex  2.828427e+000  0.000000e+000  2.828427e+000
    endloop
  endfacet
  facet normal  5.555702e-001  0.000000e+000  8.314697e-001
    outer loop
      vertex  2.828427e+000  0.000000e+000  2.828427e+000
      vertex  1.530734e+000 -1.500000e+000  3.695518e+000
      vertex  2.828427e+000 -1.500000e+000  2.828427e+000
    endloop
  endfacet
  facet normal  8.314697e-001  -0.000000e+000  5.555702e-001
    outer loop
      vertex  2.828427e+000  0.000000e+000  2.828427e+000
      vertex  2.828427e+000 -1.500000e+000  2.828427e+000
      vertex  3.695518e+000  0.000000e+000  1.530734e+000
    endloop
  endfacet
  facet normal  8.314697e-001  0.000000e+000  5.555702e-001
    outer loop
      vertex  3.695518e+000  0.000000e+000  1.530734e+000
      vertex  2.828427e+000 -1.500000e+000  2.828427e+000
      vertex  3.695518e+000 -1.500000e+000  1.530734e+000
    endloop
  endfacet
  facet normal  9.807852e-001  -0.000000e+000  1.950904e-001
    outer loop
      vertex  3.695518e+000  0.000000e+000  1.530734e+000
      vertex  3.695518e+000 -1.500000e+000  1.530734e+000
      vertex  4.000000e+000  0.000000e+000  0.000000e+000
    endloop
  endfacet
  facet normal  9.807852e-001 -1.274181e-016  1.950904e-001
    outer loop
      vertex  4.000000e+000  0.000000e+000  0.000000e+000
      vertex  3.695518e+000 -1.500000e+000  1.530734e+000
      vertex  4.000000e+000 -1.500000e+000 -9.796851e-016
    endloop
  endfacet
  facet normal  9.807852e-001  1.274181e-016 -1.950904e-001
    outer loop
      vertex  4.000000e+000  0.000000e+000  0.000000e+000
      vertex  4.000000e+000 -1.500000e+000 -9.796851e-016
      vertex  3.695518e+000  0.000000e+000 -1.530734e+000
    endloop
  endfacet
  facet normal  9.807852e-001  0.000000e+000 -1.950904e-001
    outer loop
      vertex  3.695518e+000  0.000000e+000 -1.530734e+000
      vertex  4.000000e+000 -1.500000e+000 -9.796851e-016
      vertex  3.695518e+000 -1.500000e+000 -1.530734e+000
    endloop
  endfacet
  facet normal  8.314697e-001  0.000000e+000 -5.555702e-001
    outer loop
      vertex  3.695518e+000  0.000000e+000 -1.530734e+000
      vertex  3.695518e+000 -1.500000e+000 -1.530734e+000
      vertex  2.828427e+000  0.000000e+000 -2.828427e+000
    endloop
  endfacet
  facet normal  8.314697e-001  0.000000e+000 -5.555702e-001
    outer loop
      vertex  2.828427e+000  0.000000e+000 -2.828427e+000
      vertex  3.695518e+000 -1.500000e+000 -1.530734e+000
      vertex  2.828427e+000 -1.500000e+000 -2.828427e+000
    endloop
  endfacet
  facet normal  5.555702e-001  0.000000e+000 -8.314697e-001
    outer loop
      vertex  2.828427e+000  0.000000e+000 -2.828427e+000
      vertex  2.828427e+000 -1.500000e+000 -2.828427e+000
      vertex  1.530734e+000  0.000000e+000 -3.695518e+000
    endloop
  endfacet
  facet normal  5.555702e-001  0.000000e+000 -8.314697e-001
    outer loop
      vertex  1.530734e+000  0.000000e+000 -3.695518e+000
      vertex  2.828427e+000 -1.500000e+000 -2.828427e+000
      vertex  1.530734e+000 -1.500000e+000 -3.695518e+000
    endloop
  endfacet
  facet normal  1.950904e-001  0.000000e+000 -9.807852e-001
    outer loop
      vertex  1.530734e+000  0.000000e+000 -3.695518e+000
      vertex  1.530734e+000 -1.500000e+000 -3.695518e+000
      vertex -7.347638e-016  0.000000e+000 -4.000000e+000
    endloop
  endfacet
  facet normal  1.950904e-001  0.000000e+000 -9.807852e-001
    outer loop
      vertex -7.347638e-016  0.000000e+000 -4.000000e+000
      vertex  1.530734e+000 -1.500000e+000 -3.695518e+000
      vertex -7.347638e-016 -1.500000e+000 -4.000000e+000
    endloop
  endfacet
  facet normal -1.950904e-001  0.000000e+000 -9.807852e-001
    outer loop
      vertex -7.347638e-016  0.000000e+000 -4.000000e+000
      vertex -7.347638e-016 -1.500000e+000 -4.000000e+000
      vertex -1.530734e+000  0.000000e+000 -3.695518e+000
    endloop
  endfacet
  facet normal -1.950904e-001  -0.000000e+000 -9.807852e-001
    outer loop
      vertex -1.530734e+000  0.000000e+000 -3.695518e+000
      vertex -7.347638e-016 -1.500000e+000 -4.000000e+000
      vertex -1.530734e+000 -1.500000e+000 -3.695518e+000
    endloop
  endfacet
  facet normal -5.555702e-001  0.000000e+000 -8.314697e-001
    outer loop
      vertex -1.530734e+000  0.000000e+000 -3.695518e+000
      vertex -1.530734e+000 -1.500000e+000 -3.695518e+000
      vertex -2.828427e+000  0.000000e+000 -2.828427e+000
    endloop
  endfacet
  facet normal -5.555702e-001  -0.000000e+000 -8.314697e-001
    outer loop
      vertex -2.828427e+000  0.000000e+000 -2.828427e+000
      vertex -1.530734e+000 -1.500000e+000 -3.695518e+000
      vertex -2.828427e+000 -1.500000e+000 -2.828427e+000
    endloop
  endfacet
  facet normal -8.314697e-001  0.000000e+000 -5.555702e-001
    outer loop
      vertex -2.828427e+000  0.000000e+000 -2.828427e+000
      vertex -2.828427e+000 -1.500000e+000 -2.828427e+000
      vertex -3.695518e+000  0.000000e+000 -1.530734e+000
    endloop
  endfacet
  facet normal -8.314697e-001  -0.000000e+000 -5.555702e-001
    outer loop
      vertex -3.695518e+000  0.000000e+000 -1.530734e+000
      vertex -2.828427e+000 -1.500000e+000 -2.828427e+000
      vertex -3.695518e+000 -1.500000e+000 -1.530734e+000
    endloop
  endfacet
  facet normal -9.807852e-001  0.000000e+000 -1.950904e-001
    outer loop
      vertex -3.695518e+000  0.000000e+000 -1.530734e+000
      vertex -3.695518e+000 -1.500000e+000 -1.530734e+000
      vertex -4.000000e+000  0.000000e+000  4.898425e-016
    endloop
  endfacet
  facet normal -9.807852e-001  -0.000000e+000 -1.950904e-001
    outer loop
      vertex -4.000000e+000  0.000000e+000  4.898425e-016
      vertex -3.695518e+000 -1.500000e+000 -1.530734e+000
      vertex -4.000000e+000 -1.500000e+000  4.898425e-016
    endloop
  endfacet
  facet normal  0.000000e+000 -1.000000e+000  0.000000e+000
    outer loop
      vertex  7.788234e-001 -2.000000e+000  3.412248e+000
      vertex -7.788231e-001 -2.000000e+000  3.412248e+000
      vertex  2.182214e+000 -2.000000e+000  2.736410e+000
    endloop
  endfacet
  facet normal  0.000000e+000 -1.000000e+000  0.000000e+000
    outer loop
      vertex  2.182214e+000 -2.000000e+000  2.736410e+000
      vertex -7.788231e-001 -2.000000e+000  3.412248e+000
      vertex -2.182214e+000 -2.000000e+000  2.736410e+000
    endloop
  endfacet
  facet normal  0.000000e+000 -1.000000e+000  0.000000e+000
    outer loop
      vertex  2.182214e+000 -2.000000e+000  2.736410e+000
      vertex -2.182214e+000 -2.000000e+000  2.736410e+000
      vertex  3.153391e+000 -2.000000e+000  1.518593e+000
    endloop
  endfacet
  facet normal  0.000000e+000 -1.000000e+000  0.000000e+000
    outer loop
      vertex  3.153391e+000 -2.000000e+000  1.518593e+000
      vertex -2.182214e+000 -2.000000e+000  2.736410e+000
      vertex -3.153391e+000 -2.000000e+000  1.518593e+000
    endloop
  endfacet
  facet normal  0.000000e+000 -1.000000e+000  0.000000e+000
    outer loop
      vertex  3.153391e+000 -2.000000e+000  1.518593e+000
      vertex -3.153391e+000 -2.000000e+000  1.518593e+000
      vertex  3.500000e+000 -2.000000e+000 -2.272759e-015
    endloop
  endfacet
  facet normal  0.000000e+000 -1.000000e+000  0.000000e+000
    outer loop
      vertex  3.500000e+000 -2.000000e+000 -2.272759e-015
      vertex -3.153391e+000 -2.000000e+000  1.518593e+000
      vertex -3.500000e+000 -2.000000e+000  2.619931e-007
    endloop
  endfacet
  facet normal  0.000000e+000 -1.000000e+000  0.000000e+000
    outer loop
      vertex  3.500000e+000 -2.000000e+000 -2.272759e-015
      vertex -3.500000e+000 -2.000000e+000  2.619931e-007
      vertex  3.153391e+000 -2.000000e+000 -1.518593e+000
    endloop
  endfacet
  facet normal  -0.000000e+000 -1.000000e+000  0.000000e+000
    outer loop
      vertex  3.153391e+000 -2.000000e+000 -1.518593e+000
      vertex -3.500000e+000 -2.000000e+000  2.619931e-007
      vertex -3.153391e+000 -2.000000e+000 -1.518593e+000
    endloop
  endfacet
  facet normal  0.000000e+000 -9.999999e-001  0.000000e+000
    outer loop
      vertex  3.153391e+000 -2.000000e+000 -1.518593e+000
      vertex -3.153391e+000 -2.000000e+000 -1.518593e+000
      vertex  2.182214e+000 -2.000000e+000 -2.736410e+000
    endloop
  endfacet
  facet normal  0.000000e+000 -1.000000e+000  0.000000e+000
    outer loop
      vertex  2.182214e+000 -2.000000e+000 -2.736410e+000
      vertex -3.153391e+000 -2.000000e+000 -1.518593e+000
      vertex -2.182214e+000 -2.000000e+000 -2.736410e+000
    endloop
  endfacet
  facet normal  0.000000e+000 -9.999999e-001  0.000000e+000
    outer loop
      vertex  2.182214e+000 -2.000000e+000 -2.736410e+000
      vertex -2.182214e+000 -2.000000e+000 -2.736410e+000
      vertex  7.788233e-001 -2.000000e+000 -3.412248e+000
    endloop
  endfacet
  facet normal  0.000000e+000 -1.000000e+000  0.000000e+000
    outer loop
      vertex  7.788233e-001 -2.000000e+000 -3.412248e+000
      vertex -2.182214e+000 -2.000000e+000 -2.736410e+000
      vertex -7.788233e-001 -2.000000e+000 -3.412248e+000
    endloop
  endfacet
  facet normal -7.002146e-001 -7.002145e-001  1.392814e-001
    outer loop
      vertex -3.695518e+000 -1.500000e+000  1.530734e+000
      vertex -4.000000e+000 -1.500000e+000  4.898425e-016
      vertex -3.500000e+000 -2.000000e+000  2.619931e-007
    endloop
  endfacet
  facet normal -6.681903e-001 -7.281912e-001  1.525101e-001
    outer loop
      vertex -3.153391e+000 -2.000000e+000  1.518593e+000
      vertex -3.695518e+000 -1.500000e+000  1.530734e+000
      vertex -3.500000e+000 -2.000000e+000  2.619931e-007
    endloop
  endfacet
  facet normal  6.681904e-001 -7.281911e-001  1.525101e-001
    outer loop
      vertex  3.695518e+000 -1.500000e+000  1.530734e+000
      vertex  3.153391e+000 -2.000000e+000  1.518593e+000
      vertex  3.500000e+000 -2.000000e+000 -2.272759e-015
    endloop
  endfacet
  facet normal  7.002144e-001 -7.002144e-001  1.392814e-001
    outer loop
      vertex  4.000000e+000 -1.500000e+000 -9.796851e-016
      vertex  3.695518e+000 -1.500000e+000  1.530734e+000
      vertex  3.500000e+000 -2.000000e+000 -2.272759e-015
    endloop
  endfacet
  facet normal  6.134260e-001 -6.750619e-001  4.098782e-001
    outer loop
      vertex  3.695518e+000 -1.500000e+000  1.530734e+000
      vertex  2.828427e+000 -1.500000e+000  2.828427e+000
      vertex  3.153391e+000 -2.000000e+000  1.518593e+000
    endloop
  endfacet
  facet normal  4.189278e-001 -6.568168e-001  6.269699e-001
    outer loop
      vertex  2.828427e+000 -1.500000e+000  2.828427e+000
      vertex  1.530734e+000 -1.500000e+000  3.695518e+000
      vertex  2.182214e+000 -2.000000e+000  2.736410e+000
    endloop
  endfacet
  facet normal  5.193684e-001 -7.474686e-001  4.141825e-001
    outer loop
      vertex  3.153391e+000 -2.000000e+000  1.518593e+000
      vertex  2.828427e+000 -1.500000e+000  2.828427e+000
      vertex  2.182214e+000 -2.000000e+000  2.736410e+000
    endloop
  endfacet
  facet normal  1.487178e-001 -6.472216e-001  7.476545e-001
    outer loop
      vertex  1.530734e+000 -1.500000e+000  3.695518e+000
      vertex  2.449213e-016 -1.500000e+000  4.000000e+000
      vertex  7.788234e-001 -2.000000e+000  3.412248e+000
    endloop
  endfacet
  facet normal  2.828913e-001 -7.582208e-001  5.874298e-001
    outer loop
      vertex  2.182214e+000 -2.000000e+000  2.736410e+000
      vertex  1.530734e+000 -1.500000e+000  3.695518e+000
      vertex  7.788234e-001 -2.000000e+000  3.412248e+000
    endloop
  endfacet
  facet normal -1.487178e-001 -6.472216e-001  7.476545e-001
    outer loop
      vertex  2.449213e-016 -1.500000e+000  4.000000e+000
      vertex -1.530734e+000 -1.500000e+000  3.695518e+000
      vertex -7.788231e-001 -2.000000e+000  3.412248e+000
    endloop
  endfacet
  facet normal  0.000000e+000 -7.616767e-001  6.479572e-001
    outer loop
      vertex  7.788234e-001 -2.000000e+000  3.412248e+000
      vertex  2.449213e-016 -1.500000e+000  4.000000e+000
      vertex -7.788231e-001 -2.000000e+000  3.412248e+000
    endloop
  endfacet
  facet normal -4.189280e-001 -6.568167e-001  6.269701e-001
    outer loop
      vertex -1.530734e+000 -1.500000e+000  3.695518e+000
      vertex -2.828427e+000 -1.500000e+000  2.828427e+000
      vertex -2.182214e+000 -2.000000e+000  2.736410e+000
    endloop
  endfacet
  facet normal -2.828912e-001 -7.582208e-001  5.874299e-001
    outer loop
      vertex -7.788231e-001 -2.000000e+000  3.412248e+000
      vertex -1.530734e+000 -1.500000e+000  3.695518e+000
      vertex -2.182214e+000 -2.000000e+000  2.736410e+000
    endloop
  endfacet
  facet normal -6.134260e-001 -6.750619e-001  4.098781e-001
    outer loop
      vertex -2.828427e+000 -1.500000e+000  2.828427e+000
      vertex -3.695518e+000 -1.500000e+000  1.530734e+000
      vertex -3.153391e+000 -2.000000e+000  1.518593e+000
    endloop
  endfacet
  facet normal -5.193685e-001 -7.474686e-001  4.141825e-001
    outer loop
      vertex -2.182214e+000 -2.000000e+000  2.736410e+000
      vertex -2.828427e+000 -1.500000e+000  2.828427e+000
      vertex -3.153391e+000 -2.000000e+000  1.518593e+000
    endloop
  endfacet
  facet normal  7.002144e-001 -7.002144e-001 -1.392814e-001
    outer loop
      vertex  3.695518e+000 -1.500000e+000 -1.530734e+000
      vertex  4.000000e+000 -1.500000e+000 -9.796851e-016
      vertex  3.500000e+000 -2.000000e+000 -2.272759e-015
    endloop
  endfacet
  facet normal  6.681904e-001 -7.281911e-001 -1.525101e-001
    outer loop
      vertex  3.153391e+000 -2.000000e+000 -1.518593e+000
      vertex  3.695518e+000 -1.500000e+000 -1.530734e+000
      vertex  3.500000e+000 -2.000000e+000 -2.272759e-015
    endloop
  endfacet
  facet normal -6.681904e-001 -7.281911e-001 -1.525100e-001
    outer loop
      vertex -3.695518e+000 -1.500000e+000 -1.530734e+000
      vertex -3.153391e+000 -2.000000e+000 -1.518593e+000
      vertex -3.500000e+000 -2.000000e+000  2.619931e-007
    endloop
  endfacet
  facet normal -7.002144e-001 -7.002145e-001 -1.392814e-001
    outer loop
      vertex -4.000000e+000 -1.500000e+000  4.898425e-016
      vertex -3.695518e+000 -1.500000e+000 -1.530734e+000
      vertex -3.500000e+000 -2.000000e+000  2.619931e-007
    endloop
  endfacet
  facet normal -6.134260e-001 -6.750618e-001 -4.098782e-001
    outer loop
      vertex -3.695518e+000 -1.500000e+000 -1.530734e+000
      vertex -2.828427e+000 -1.500000e+000 -2.828427e+000
      vertex -3.153391e+000 -2.000000e+000 -1.518593e+000
    endloop
  endfacet
  facet normal -4.189278e-001 -6.568168e-001 -6.269699e-001
    outer loop
      vertex -2.828427e+000 -1.500000e+000 -2.828427e+000
      vertex -1.530734e+000 -1.500000e+000 -3.695518e+000
      vertex -2.182214e+000 -2.000000e+000 -2.736410e+000
    endloop
  endfacet
  facet normal -5.193684e-001 -7.474686e-001 -4.141825e-001
    outer loop
      vertex -3.153391e+000 -2.000000e+000 -1.518593e+000
      vertex -2.828427e+000 -1.500000e+000 -2.828427e+000
      vertex -2.182214e+000 -2.000000e+000 -2.736410e+000
    endloop
  endfacet
  facet normal -1.487178e-001 -6.472216e-001 -7.476545e-001
    outer loop
      vertex -1.530734e+000 -1.500000e+000 -3.695518e+000
      vertex -7.347638e-016 -1.500000e+000 -4.000000e+000
      vertex -7.788233e-001 -2.000000e+000 -3.412248e+000
    endloop
  endfacet
  facet normal -2.828913e-001 -7.582207e-001 -5.874298e-001
    outer loop
      vertex -2.182214e+000 -2.000000e+000 -2.736410e+000
      vertex -1.530734e+000 -1.500000e+000 -3.695518e+000
      vertex -7.788233e-001 -2.000000e+000 -3.412248e+000
    endloop
  endfacet
  facet normal  1.487178e-001 -6.472216e-001 -7.476545e-001
    outer loop
      vertex -7.347638e-016 -1.500000e+000 -4.000000e+000
      vertex  1.530734e+000 -1.500000e+000 -3.695518e+000
      vertex  7.788233e-001 -2.000000e+000 -3.412248e+000
    endloop
  endfacet
  facet normal  0.000000e+000 -7.616767e-001 -6.479572e-001
    outer loop
      vertex -7.788233e-001 -2.000000e+000 -3.412248e+000
      vertex -7.347638e-016 -1.500000e+000 -4.000000e+000
      vertex  7.788233e-001 -2.000000e+000 -3.412248e+000
    endloop
  endfacet
  facet normal  4.189278e-001 -6.568168e-001 -6.269699e-001
    outer loop
      vertex  1.530734e+000 -1.500000e+000 -3.695518e+000
      vertex  2.828427e+000 -1.500000e+000 -2.828427e+000
      vertex  2.182214e+000 -2.000000e+000 -2.736410e+000
    endloop
  endfacet
  facet normal  2.828913e-001 -7.582208e-001 -5.874298e-001
    outer loop
      vertex  7.788233e-001 -2.000000e+000 -3.412248e+000
      vertex  1.530734e+000 -1.500000e+000 -3.695518e+000
      vertex  2.182214e+000 -2.000000e+000 -2.736410e+000
    endloop
  endfacet
  facet normal  6.134260e-001 -6.750619e-001 -4.098782e-001
    outer loop
      vertex  2.828427e+000 -1.500000e+000 -2.828427e+000
      vertex  3.695518e+000 -1.500000e+000 -1.530734e+000
      vertex  3.153391e+000 -2.000000e+000 -1.518593e+000
    endloop
  endfacet
  facet normal  5.193684e-001 -7.474686e-001 -4.141825e-001
    outer loop
      vertex  2.182214e+000 -2.000000e+000 -2.736410e+000
      vertex  2.828427e+000 -1.500000e+000 -2.828427e+000
      vertex  3.153391e+000 -2.000000e+000 -1.518593e+000
    endloop
  endfacet
  facet normal  8.074794e-001  8.557829e-002 -5.836551e-001
    outer loop
      vertex  2.173857e+000  6.000000e+001 -8.926622e-001
      vertex  1.529479e+000  6.000000e+001 -1.784151e+000
      vertex  1.767847e+000  6.077415e+001 -1.340863e+000
    endloop
  endfacet
  facet normal  8.938796e-001  2.555524e-001 -3.683370e-001
    outer loop
      vertex  2.173857e+000  6.000000e+001 -8.926622e-001
      vertex  1.767847e+000  6.077415e+001 -1.340863e+000
      vertex  2.299801e+000  6.029809e+001 -3.802043e-001
    endloop
  endfacet
  facet normal -8.938796e-001  2.555524e-001 -3.683370e-001
    outer loop
      vertex -2.173857e+000  6.000000e+001 -8.926622e-001
      vertex -2.299801e+000  6.029809e+001 -3.802043e-001
      vertex -1.767847e+000  6.077415e+001 -1.340863e+000
    endloop
  endfacet
  facet normal -8.074794e-001  8.557829e-002 -5.836551e-001
    outer loop
      vertex -2.173857e+000  6.000000e+001 -8.926622e-001
      vertex -1.767847e+000  6.077415e+001 -1.340863e+000
      vertex -1.529479e+000  6.000000e+001 -1.784151e+000
    endloop
  endfacet
  facet normal -8.074794e-001  8.557829e-002  5.836551e-001
    outer loop
      vertex -2.173857e+000  6.000000e+001  8.926622e-001
      vertex -1.529479e+000  6.000000e+001  1.784151e+000
      vertex -1.767847e+000  6.077415e+001  1.340863e+000
    endloop
  endfacet
  facet normal -8.938796e-001  2.555524e-001  3.683370e-001
    outer loop
      vertex -2.173857e+000  6.000000e+001  8.926622e-001
      vertex -1.767847e+000  6.077415e+001  1.340863e+000
      vertex -2.299801e+000  6.029809e+001  3.802043e-001
    endloop
  endfacet
  facet normal  8.938796e-001  2.555524e-001  3.683370e-001
    outer loop
      vertex  2.173857e+000  6.000000e+001  8.926622e-001
      vertex  2.299801e+000  6.029809e+001  3.802043e-001
      vertex  1.767847e+000  6.077415e+001  1.340863e+000
    endloop
  endfacet
  facet normal  8.074794e-001  8.557829e-002  5.836551e-001
    outer loop
      vertex  2.173857e+000  6.000000e+001  8.926622e-001
      vertex  1.767847e+000  6.077415e+001  1.340863e+000
      vertex  1.529479e+000  6.000000e+001  1.784151e+000
    endloop
  endfacet
  facet normal -8.858993e-001  3.280111e-001  3.280111e-001
    outer loop
      vertex -1.767847e+000  6.077415e+001  1.340863e+000
      vertex -1.767847e+000  6.134086e+001  7.741474e-001
      vertex -2.299801e+000  6.029809e+001  3.802043e-001
    endloop
  endfacet
  facet normal -8.858993e-001  3.280111e-001 -3.280111e-001
    outer loop
      vertex -1.767847e+000  6.077415e+001 -1.340863e+000
      vertex -2.299801e+000  6.029809e+001 -3.802043e-001
      vertex -1.767847e+000  6.134086e+001 -7.741474e-001
    endloop
  endfacet
  facet normal -5.319798e-001  2.914395e-001 -7.950224e-001
    outer loop
      vertex -1.529479e+000  6.000000e+001 -1.784151e+000
      vertex -1.767847e+000  6.077415e+001 -1.340863e+000
      vertex -6.580951e-001  6.112799e+001 -1.953729e+000
    endloop
  endfacet
  facet normal  4.446661e-001  2.127056e-001 -8.700739e-001
    outer loop
      vertex  1.529479e+000  6.000000e+001 -1.784151e+000
      vertex  5.499941e-001  6.000000e+001 -2.284733e+000
      vertex  6.580951e-001  6.112799e+001 -1.953729e+000
    endloop
  endfacet
  facet normal  5.319798e-001  2.914395e-001 -7.950224e-001
    outer loop
      vertex  6.580951e-001  6.112799e+001 -1.953729e+000
      vertex  1.767847e+000  6.077415e+001 -1.340863e+000
      vertex  1.529479e+000  6.000000e+001 -1.784151e+000
    endloop
  endfacet
  facet normal -5.319798e-001  2.914395e-001  7.950224e-001
    outer loop
      vertex -6.580951e-001  6.112799e+001  1.953729e+000
      vertex -1.767847e+000  6.077415e+001  1.340863e+000
      vertex -1.529479e+000  6.000000e+001  1.784151e+000
    endloop
  endfacet
  facet normal -4.446661e-001  2.127056e-001  8.700739e-001
    outer loop
      vertex -1.529479e+000  6.000000e+001  1.784151e+000
      vertex -5.499941e-001  6.000000e+001  2.284733e+000
      vertex -6.580951e-001  6.112799e+001  1.953729e+000
    endloop
  endfacet
  facet normal  5.319798e-001  2.914395e-001  7.950224e-001
    outer loop
      vertex  6.580951e-001  6.112799e+001  1.953729e+000
      vertex  1.529479e+000  6.000000e+001  1.784151e+000
      vertex  1.767847e+000  6.077415e+001  1.340863e+000
    endloop
  endfacet
  facet normal -9.018754e-001  4.157704e-001  1.172845e-001
    outer loop
      vertex -2.323042e+000  6.035493e+001  0.000000e+000
      vertex -2.299801e+000  6.029809e+001  3.802043e-001
      vertex -1.767847e+000  6.134086e+001  7.741474e-001
    endloop
  endfacet
  facet normal -9.009433e-001  4.191508e-001  1.123109e-001
    outer loop
      vertex -2.323042e+000  6.035493e+001  0.000000e+000
      vertex -1.767847e+000  6.134086e+001  7.741474e-001
      vertex -1.767847e+000  6.154829e+001 -1.104198e-015
    endloop
  endfacet
  facet normal -9.009433e-001  4.191508e-001 -1.123109e-001
    outer loop
      vertex -2.323042e+000  6.035493e+001  0.000000e+000
      vertex -1.767847e+000  6.154829e+001 -1.104198e-015
      vertex -1.767847e+000  6.134086e+001 -7.741474e-001
    endloop
  endfacet
  facet normal -9.018754e-001  4.157704e-001 -1.172845e-001
    outer loop
      vertex -2.323042e+000  6.035493e+001  0.000000e+000
      vertex -1.767847e+000  6.134086e+001 -7.741474e-001
      vertex -2.299801e+000  6.029809e+001 -3.802043e-001
    endloop
  endfacet
  facet normal  9.018754e-001  4.157704e-001 -1.172845e-001
    outer loop
      vertex  2.323042e+000  6.035493e+001  0.000000e+000
      vertex  2.299801e+000  6.029809e+001 -3.802043e-001
      vertex  1.767847e+000  6.134086e+001 -7.741474e-001
    endloop
  endfacet
  facet normal  9.009433e-001  4.191508e-001 -1.123109e-001
    outer loop
      vertex  2.323042e+000  6.035493e+001  0.000000e+000
      vertex  1.767847e+000  6.134086e+001 -7.741474e-001
      vertex  1.767847e+000  6.154829e+001 -8.877058e-016
    endloop
  endfacet
  facet normal  9.009433e-001  4.191508e-001  1.123109e-001
    outer loop
      vertex  2.323042e+000  6.035493e+001  0.000000e+000
      vertex  1.767847e+000  6.154829e+001 -8.877058e-016
      vertex  1.767847e+000  6.134086e+001  7.741474e-001
    endloop
  endfacet
  facet normal  9.018754e-001  4.157704e-001  1.172845e-001
    outer loop
      vertex  2.323042e+000  6.035493e+001  0.000000e+000
      vertex  1.767847e+000  6.134086e+001  7.741474e-001
      vertex  2.299801e+000  6.029809e+001  3.802043e-001
    endloop
  endfacet
  facet normal  0.000000e+000  2.815737e-001 -9.595396e-001
    outer loop
      vertex  6.580951e-001  6.112799e+001 -1.953729e+000
      vertex  5.499941e-001  6.000000e+001 -2.284733e+000
      vertex -6.580951e-001  6.112799e+001 -1.953729e+000
    endloop
  endfacet
  facet normal  0.000000e+000  2.815737e-001 -9.595395e-001
    outer loop
      vertex -6.580951e-001  6.112799e+001 -1.953729e+000
      vertex  5.499941e-001  6.000000e+001 -2.284733e+000
      vertex -5.499941e-001  6.000000e+001 -2.284733e+000
    endloop
  endfacet
  facet normal -4.446661e-001  2.127056e-001 -8.700739e-001
    outer loop
      vertex -6.580951e-001  6.112799e+001 -1.953729e+000
      vertex -5.499941e-001  6.000000e+001 -2.284733e+000
      vertex -1.529479e+000  6.000000e+001 -1.784151e+000
    endloop
  endfacet
  facet normal  0.000000e+000  2.815737e-001  9.595396e-001
    outer loop
      vertex -6.580951e-001  6.112799e+001  1.953729e+000
      vertex -5.499941e-001  6.000000e+001  2.284733e+000
      vertex  6.580951e-001  6.112799e+001  1.953729e+000
    endloop
  endfacet
  facet normal  0.000000e+000  2.815737e-001  9.595395e-001
    outer loop
      vertex  6.580951e-001  6.112799e+001  1.953729e+000
      vertex -5.499941e-001  6.000000e+001  2.284733e+000
      vertex  5.499941e-001  6.000000e+001  2.284733e+000
    endloop
  endfacet
  facet normal  4.446661e-001  2.127056e-001  8.700739e-001
    outer loop
      vertex  6.580951e-001  6.112799e+001  1.953729e+000
      vertex  5.499941e-001  6.000000e+001  2.284733e+000
      vertex  1.529479e+000  6.000000e+001  1.784151e+000
    endloop
  endfacet
  facet normal -5.244529e-001  6.020586e-001  6.020586e-001
    outer loop
      vertex -1.767847e+000  6.134086e+001  7.741474e-001
      vertex -1.767847e+000  6.077415e+001  1.340863e+000
      vertex -6.580951e-001  6.195373e+001  1.127986e+000
    endloop
  endfacet
  facet normal -5.244536e-001  6.020591e-001  6.020574e-001
    outer loop
      vertex -6.580951e-001  6.195373e+001  1.127986e+000
      vertex -1.767847e+000  6.077415e+001  1.340863e+000
      vertex -6.580951e-001  6.112799e+001  1.953729e+000
    endloop
  endfacet
  facet normal  0.000000e+000  7.071078e-001  7.071058e-001
    outer loop
      vertex -6.580951e-001  6.195373e+001  1.127986e+000
      vertex -6.580951e-001  6.112799e+001  1.953729e+000
      vertex  6.580951e-001  6.195373e+001  1.127986e+000
    endloop
  endfacet
  facet normal  0.000000e+000  7.071078e-001  7.071058e-001
    outer loop
      vertex  6.580951e-001  6.195373e+001  1.127986e+000
      vertex -6.580951e-001  6.112799e+001  1.953729e+000
      vertex  6.580951e-001  6.112799e+001  1.953729e+000
    endloop
  endfacet
  facet normal  5.244530e-001  6.020594e-001  6.020577e-001
    outer loop
      vertex  6.580951e-001  6.195373e+001  1.127986e+000
      vertex  6.580951e-001  6.112799e+001  1.953729e+000
      vertex  1.767847e+000  6.134086e+001  7.741474e-001
    endloop
  endfacet
  facet normal  5.244538e-001  6.020582e-001  6.020582e-001
    outer loop
      vertex  1.767847e+000  6.134086e+001  7.741474e-001
      vertex  6.580951e-001  6.112799e+001  1.953729e+000
      vertex  1.767847e+000  6.077415e+001  1.340863e+000
    endloop
  endfacet
  facet normal  8.858993e-001  3.280111e-001  3.280111e-001
    outer loop
      vertex  1.767847e+000  6.134086e+001  7.741474e-001
      vertex  1.767847e+000  6.077415e+001  1.340863e+000
      vertex  2.299801e+000  6.029809e+001  3.802043e-001
    endloop
  endfacet
  facet normal -5.244546e-001  8.224264e-001  2.203681e-001
    outer loop
      vertex -1.767847e+000  6.154829e+001 -1.104198e-015
      vertex -1.767847e+000  6.134086e+001  7.741474e-001
      vertex -6.580951e-001  6.225597e+001 -1.491466e-015
    endloop
  endfacet
  facet normal -5.244530e-001  8.224267e-001  2.203709e-001
    outer loop
      vertex -6.580951e-001  6.225597e+001 -1.491466e-015
      vertex -1.767847e+000  6.134086e+001  7.741474e-001
      vertex -6.580951e-001  6.195373e+001  1.127986e+000
    endloop
  endfacet
  facet normal  0.000000e+000  9.659252e-001  2.588215e-001
    outer loop
      vertex -6.580951e-001  6.225597e+001 -1.491466e-015
      vertex -6.580951e-001  6.195373e+001  1.127986e+000
      vertex  6.580951e-001  6.225597e+001 -1.410875e-015
    endloop
  endfacet
  facet normal  0.000000e+000  9.659252e-001  2.588215e-001
    outer loop
      vertex  6.580951e-001  6.225597e+001 -1.410875e-015
      vertex -6.580951e-001  6.195373e+001  1.127986e+000
      vertex  6.580951e-001  6.195373e+001  1.127986e+000
    endloop
  endfacet
  facet normal  5.244544e-001  8.224260e-001  2.203707e-001
    outer loop
      vertex  6.580951e-001  6.225597e+001 -1.410875e-015
      vertex  6.580951e-001  6.195373e+001  1.127986e+000
      vertex  1.767847e+000  6.154829e+001 -8.877058e-016
    endloop
  endfacet
  facet normal  5.244527e-001  8.224276e-001  2.203684e-001
    outer loop
      vertex  1.767847e+000  6.154829e+001 -8.877058e-016
      vertex  6.580951e-001  6.195373e+001  1.127986e+000
      vertex  1.767847e+000  6.134086e+001  7.741474e-001
    endloop
  endfacet
  facet normal -5.244527e-001  8.224276e-001 -2.203684e-001
    outer loop
      vertex -1.767847e+000  6.134086e+001 -7.741474e-001
      vertex -1.767847e+000  6.154829e+001 -1.104198e-015
      vertex -6.580951e-001  6.195373e+001 -1.127986e+000
    endloop
  endfacet
  facet normal -5.244544e-001  8.224260e-001 -2.203707e-001
    outer loop
      vertex -6.580951e-001  6.195373e+001 -1.127986e+000
      vertex -1.767847e+000  6.154829e+001 -1.104198e-015
      vertex -6.580951e-001  6.225597e+001 -1.491466e-015
    endloop
  endfacet
  facet normal  0.000000e+000  9.659252e-001 -2.588215e-001
    outer loop
      vertex -6.580951e-001  6.195373e+001 -1.127986e+000
      vertex -6.580951e-001  6.225597e+001 -1.491466e-015
      vertex  6.580951e-001  6.195373e+001 -1.127986e+000
    endloop
  endfacet
  facet normal  0.000000e+000  9.659252e-001 -2.588215e-001
    outer loop
      vertex  6.580951e-001  6.195373e+001 -1.127986e+000
      vertex -6.580951e-001  6.225597e+001 -1.491466e-015
      vertex  6.580951e-001  6.225597e+001 -1.410875e-015
    endloop
  endfacet
  facet normal  5.244530e-001  8.224267e-001 -2.203709e-001
    outer loop
      vertex  6.580951e-001  6.195373e+001 -1.127986e+000
      vertex  6.580951e-001  6.225597e+001 -1.410875e-015
      vertex  1.767847e+000  6.134086e+001 -7.741474e-001
    endloop
  endfacet
  facet normal  5.244546e-001  8.224264e-001 -2.203681e-001
    outer loop
      vertex  1.767847e+000  6.134086e+001 -7.741474e-001
      vertex  6.580951e-001  6.225597e+001 -1.410875e-015
      vertex  1.767847e+000  6.154829e+001 -8.877058e-016
    endloop
  endfacet
  facet normal -5.244538e-001  6.020582e-001 -6.020582e-001
    outer loop
      vertex -1.767847e+000  6.077415e+001 -1.340863e+000
      vertex -1.767847e+000  6.134086e+001 -7.741474e-001
      vertex -6.580951e-001  6.112799e+001 -1.953729e+000
    endloop
  endfacet
  facet normal -5.244530e-001  6.020594e-001 -6.020577e-001
    outer loop
      vertex -6.580951e-001  6.112799e+001 -1.953729e+000
      vertex -1.767847e+000  6.134086e+001 -7.741474e-001
      vertex -6.580951e-001  6.195373e+001 -1.127986e+000
    endloop
  endfacet
  facet normal  0.000000e+000  7.071078e-001 -7.071058e-001
    outer loop
      vertex -6.580951e-001  6.112799e+001 -1.953729e+000
      vertex -6.580951e-001  6.195373e+001 -1.127986e+000
      vertex  6.580951e-001  6.112799e+001 -1.953729e+000
    endloop
  endfacet
  facet normal  0.000000e+000  7.071078e-001 -7.071058e-001
    outer loop
      vertex  6.580951e-001  6.112799e+001 -1.953729e+000
      vertex -6.580951e-001  6.195373e+001 -1.127986e+000
      vertex  6.580951e-001  6.195373e+001 -1.127986e+000
    endloop
  endfacet
  facet normal  5.244536e-001  6.020591e-001 -6.020574e-001
    outer loop
      vertex  6.580951e-001  6.112799e+001 -1.953729e+000
      vertex  6.580951e-001  6.195373e+001 -1.127986e+000
      vertex  1.767847e+000  6.077415e+001 -1.340863e+000
    endloop
  endfacet
  facet normal  5.244529e-001  6.020586e-001 -6.020586e-001
    outer loop
      vertex  1.767847e+000  6.077415e+001 -1.340863e+000
      vertex  6.580951e-001  6.195373e+001 -1.127986e+000
      vertex  1.767847e+000  6.134086e+001 -7.741474e-001
    endloop
  endfacet
  facet normal  8.858993e-001  3.280111e-001 -3.280111e-001
    outer loop
      vertex  1.767847e+000  6.077415e+001 -1.340863e+000
      vertex  1.767847e+000  6.134086e+001 -7.741474e-001
      vertex  2.299801e+000  6.029809e+001 -3.802043e-001
    endloop
  endfacet
  facet normal -8.014434e-001  1.486911e-001  5.792922e-001
    outer loop
      vertex -2.173857e+000  6.000000e+001  8.926622e-001
      vertex -2.053442e+000  5.967471e+001  1.142750e+000
      vertex -1.529479e+000  6.000000e+001  1.784151e+000
    endloop
  endfacet
  facet normal  4.550798e-001  1.036577e-003  8.904501e-001
    outer loop
      vertex  1.175000e+000  0.000000e+000  2.035160e+000
      vertex  1.529479e+000  6.000000e+001  1.784151e+000
      vertex  5.499941e-001  6.000000e+001  2.284733e+000
    endloop
  endfacet
  facet normal  2.588188e-001 -1.321770e-003  9.659249e-001
    outer loop
      vertex  1.175000e+000  0.000000e+000  2.035160e+000
      vertex  5.499941e-001  6.000000e+001  2.284733e+000
      vertex  3.779136e-016  0.000000e+000  2.350000e+000
    endloop
  endfacet
  facet normal  -0.000000e+000  1.087776e-003  9.999994e-001
    outer loop
      vertex  5.499941e-001  6.000000e+001  2.284733e+000
      vertex -5.499941e-001  6.000000e+001  2.284733e+000
      vertex  3.779136e-016  0.000000e+000  2.350000e+000
    endloop
  endfacet
  facet normal -2.588188e-001 -1.321770e-003  9.659249e-001
    outer loop
      vertex -1.175000e+000  0.000000e+000  2.035160e+000
      vertex  3.779136e-016  0.000000e+000  2.350000e+000
      vertex -5.499941e-001  6.000000e+001  2.284733e+000
    endloop
  endfacet
  facet normal -4.550798e-001  1.036577e-003  8.904501e-001
    outer loop
      vertex -5.499941e-001  6.000000e+001  2.284733e+000
      vertex -1.529479e+000  6.000000e+001  1.784151e+000
      vertex -1.175000e+000  0.000000e+000  2.035160e+000
    endloop
  endfacet
  facet normal -8.550901e-001  1.046586e-005  5.184793e-001
    outer loop
      vertex -1.970152e+000  5.927629e+001  1.281015e+000
      vertex -2.046650e+000  5.845804e+001  1.154869e+000
      vertex -2.035160e+000  0.000000e+000  1.175000e+000
    endloop
  endfacet
  facet normal  8.014434e-001  1.486911e-001  5.792922e-001
    outer loop
      vertex  2.173857e+000  6.000000e+001  8.926622e-001
      vertex  1.529479e+000  6.000000e+001  1.784151e+000
      vertex  2.053442e+000  5.967471e+001  1.142750e+000
    endloop
  endfacet
  facet normal  7.856945e-001  4.973678e-002  6.166122e-001
    outer loop
      vertex  1.529479e+000  6.000000e+001  1.784151e+000
      vertex  1.970152e+000  5.927629e+001  1.281015e+000
      vertex  2.053442e+000  5.967471e+001  1.142750e+000
    endloop
  endfacet
  facet normal  9.659259e-001 -2.010919e-018  2.588190e-001
    outer loop
      vertex  2.350000e+000  0.000000e+000  2.877825e-016
      vertex  2.350000e+000  5.775493e+001  7.365148e-016
      vertex  2.035160e+000  0.000000e+000  1.175000e+000
    endloop
  endfacet
  facet normal  9.925011e-001 -2.924316e-003  1.222006e-001
    outer loop
      vertex  2.035160e+000  0.000000e+000  1.175000e+000
      vertex  2.350000e+000  5.775493e+001  7.365148e-016
      vertex  2.280572e+000  5.788510e+001  5.670019e-001
    endloop
  endfacet
  facet normal  9.291245e-001 -5.529820e-005  3.697671e-001
    outer loop
      vertex  2.035160e+000  0.000000e+000  1.175000e+000
      vertex  2.280572e+000  5.788510e+001  5.670019e-001
      vertex  2.046650e+000  5.845804e+001  1.154869e+000
    endloop
  endfacet
  facet normal  7.071068e-001  1.045113e-004  7.071068e-001
    outer loop
      vertex  2.035160e+000  0.000000e+000  1.175000e+000
      vertex  2.046650e+000  5.845804e+001  1.154869e+000
      vertex  1.175000e+000  0.000000e+000  2.035160e+000
    endloop
  endfacet
  facet normal  8.420439e-001 -4.433051e-003  5.393907e-001
    outer loop
      vertex  1.175000e+000  0.000000e+000  2.035160e+000
      vertex  2.046650e+000  5.845804e+001  1.154869e+000
      vertex  1.970152e+000  5.927629e+001  1.281015e+000
    endloop
  endfacet
  facet normal  7.510617e-001 -1.675203e-003  6.602299e-001
    outer loop
      vertex  1.175000e+000  0.000000e+000  2.035160e+000
      vertex  1.970152e+000  5.927629e+001  1.281015e+000
      vertex  1.529479e+000  6.000000e+001  1.784151e+000
    endloop
  endfacet
  facet normal -7.071067e-001 -4.891842e-004  7.071067e-001
    outer loop
      vertex -2.035160e+000  0.000000e+000  1.175000e+000
      vertex -1.175000e+000  0.000000e+000  2.035160e+000
      vertex -1.970152e+000  5.927629e+001  1.281015e+000
    endloop
  endfacet
  facet normal -7.510617e-001 -1.675203e-003  6.602299e-001
    outer loop
      vertex -1.970152e+000  5.927629e+001  1.281015e+000
      vertex -1.175000e+000  0.000000e+000  2.035160e+000
      vertex -1.529479e+000  6.000000e+001  1.784151e+000
    endloop
  endfacet
  facet normal -7.856945e-001  4.973678e-002  6.166122e-001
    outer loop
      vertex -1.970152e+000  5.927629e+001  1.281015e+000
      vertex -1.529479e+000  6.000000e+001  1.784151e+000
      vertex -2.053442e+000  5.967471e+001  1.142750e+000
    endloop
  endfacet
  facet normal -9.659259e-001 -1.007389e-004  2.588191e-001
    outer loop
      vertex -2.035160e+000  0.000000e+000  1.175000e+000
      vertex -2.046650e+000  5.845804e+001  1.154869e+000
      vertex -2.350000e+000  0.000000e+000 -5.755650e-016
    endloop
  endfacet
  facet normal -9.282909e-001 -2.528945e-003  3.718463e-001
    outer loop
      vertex -2.350000e+000  0.000000e+000 -5.755650e-016
      vertex -2.046650e+000  5.845804e+001  1.154869e+000
      vertex -2.280572e+000  5.788510e+001  5.670019e-001
    endloop
  endfacet
  facet normal -9.925866e-001  0.000000e+000  1.215397e-001
    outer loop
      vertex -2.350000e+000  0.000000e+000 -5.755650e-016
      vertex -2.280572e+000  5.788510e+001  5.670019e-001
      vertex -2.350000e+000  5.775493e+001  7.365148e-016
    endloop
  endfacet
  facet normal  8.014434e-001  1.486911e-001 -5.792922e-001
    outer loop
      vertex  2.173857e+000  6.000000e+001 -8.926622e-001
      vertex  2.053442e+000  5.967471e+001 -1.142750e+000
      vertex  1.529479e+000  6.000000e+001 -1.784151e+000
    endloop
  endfacet
  facet normal -4.550798e-001  1.036577e-003 -8.904501e-001
    outer loop
      vertex -1.175000e+000  0.000000e+000 -2.035160e+000
      vertex -1.529479e+000  6.000000e+001 -1.784151e+000
      vertex -5.499941e-001  6.000000e+001 -2.284733e+000
    endloop
  endfacet
  facet normal -2.588188e-001 -1.321770e-003 -9.659249e-001
    outer loop
      vertex -1.175000e+000  0.000000e+000 -2.035160e+000
      vertex -5.499941e-001  6.000000e+001 -2.284733e+000
      vertex  4.316737e-016  0.000000e+000 -2.350000e+000
    endloop
  endfacet
  facet normal  0.000000e+000  1.087776e-003 -9.999994e-001
    outer loop
      vertex -5.499941e-001  6.000000e+001 -2.284733e+000
      vertex  5.499941e-001  6.000000e+001 -2.284733e+000
      vertex  4.316737e-016  0.000000e+000 -2.350000e+000
    endloop
  endfacet
  facet normal  2.588188e-001 -1.321770e-003 -9.659249e-001
    outer loop
      vertex  1.175000e+000  0.000000e+000 -2.035160e+000
      vertex  4.316737e-016  0.000000e+000 -2.350000e+000
      vertex  5.499941e-001  6.000000e+001 -2.284733e+000
    endloop
  endfacet
  facet normal  4.550798e-001  1.036577e-003 -8.904501e-001
    outer loop
      vertex  5.499941e-001  6.000000e+001 -2.284733e+000
      vertex  1.529479e+000  6.000000e+001 -1.784151e+000
      vertex  1.175000e+000  0.000000e+000 -2.035160e+000
    endloop
  endfacet
  facet normal  8.550901e-001  1.046586e-005 -5.184793e-001
    outer loop
      vertex  1.970152e+000  5.927629e+001 -1.281015e+000
      vertex  2.046650e+000  5.845804e+001 -1.154869e+000
      vertex  2.035160e+000  0.000000e+000 -1.175000e+000
    endloop
  endfacet
  facet normal -8.014434e-001  1.486911e-001 -5.792922e-001
    outer loop
      vertex -2.173857e+000  6.000000e+001 -8.926622e-001
      vertex -1.529479e+000  6.000000e+001 -1.784151e+000
      vertex -2.053442e+000  5.967471e+001 -1.142750e+000
    endloop
  endfacet
  facet normal -7.856945e-001  4.973678e-002 -6.166122e-001
    outer loop
      vertex -1.529479e+000  6.000000e+001 -1.784151e+000
      vertex -1.970152e+000  5.927629e+001 -1.281015e+000
      vertex -2.053442e+000  5.967471e+001 -1.142750e+000
    endloop
  endfacet
  facet normal -9.659259e-001  5.879866e-018 -2.588190e-001
    outer loop
      vertex -2.350000e+000  0.000000e+000 -5.755650e-016
      vertex -2.350000e+000  5.775493e+001  7.365148e-016
      vertex -2.035160e+000  0.000000e+000 -1.175000e+000
    endloop
  endfacet
  facet normal -9.925011e-001 -2.924316e-003 -1.222006e-001
    outer loop
      vertex -2.035160e+000  0.000000e+000 -1.175000e+000
      vertex -2.350000e+000  5.775493e+001  7.365148e-016
      vertex -2.280572e+000  5.788510e+001 -5.670019e-001
    endloop
  endfacet
  facet normal -9.291245e-001 -5.529820e-005 -3.697671e-001
    outer loop
      vertex -2.035160e+000  0.000000e+000 -1.175000e+000
      vertex -2.280572e+000  5.788510e+001 -5.670019e-001
      vertex -2.046650e+000  5.845804e+001 -1.154869e+000
    endloop
  endfacet
  facet normal -7.071068e-001  1.045113e-004 -7.071068e-001
    outer loop
      vertex -2.035160e+000  0.000000e+000 -1.175000e+000
      vertex -2.046650e+000  5.845804e+001 -1.154869e+000
      vertex -1.175000e+000  0.000000e+000 -2.035160e+000
    endloop
  endfacet
  facet normal -8.420439e-001 -4.433051e-003 -5.393907e-001
    outer loop
      vertex -1.175000e+000  0.000000e+000 -2.035160e+000
      vertex -2.046650e+000  5.845804e+001 -1.154869e+000
      vertex -1.970152e+000  5.927629e+001 -1.281015e+000
    endloop
  endfacet
  facet normal -7.510617e-001 -1.675203e-003 -6.602299e-001
    outer loop
      vertex -1.175000e+000  0.000000e+000 -2.035160e+000
      vertex -1.970152e+000  5.927629e+001 -1.281015e+000
      vertex -1.529479e+000  6.000000e+001 -1.784151e+000
    endloop
  endfacet
  facet normal  7.071067e-001 -4.891842e-004 -7.071067e-001
    outer loop
      vertex  2.035160e+000  0.000000e+000 -1.175000e+000
      vertex  1.175000e+000  0.000000e+000 -2.035160e+000
      vertex  1.970152e+000  5.927629e+001 -1.281015e+000
    endloop
  endfacet
  facet normal  7.510617e-001 -1.675203e-003 -6.602299e-001
    outer loop
      vertex  1.970152e+000  5.927629e+001 -1.281015e+000
      vertex  1.175000e+000  0.000000e+000 -2.035160e+000
      vertex  1.529479e+000  6.000000e+001 -1.784151e+000
    endloop
  endfacet
  facet normal  7.856945e-001  4.973678e-002 -6.166122e-001
    outer loop
      vertex  1.970152e+000  5.927629e+001 -1.281015e+000
      vertex  1.529479e+000  6.000000e+001 -1.784151e+000
      vertex  2.053442e+000  5.967471e+001 -1.142750e+000
    endloop
  endfacet
  facet normal  9.659259e-001 -1.007389e-004 -2.588191e-001
    outer loop
      vertex  2.035160e+000  0.000000e+000 -1.175000e+000
      vertex  2.046650e+000  5.845804e+001 -1.154869e+000
      vertex  2.350000e+000  0.000000e+000  2.877825e-016
    endloop
  endfacet
  facet normal  9.282909e-001 -2.528945e-003 -3.718463e-001
    outer loop
      vertex  2.350000e+000  0.000000e+000  2.877825e-016
      vertex  2.046650e+000  5.845804e+001 -1.154869e+000
      vertex  2.280572e+000  5.788510e+001 -5.670019e-001
    endloop
  endfacet
  facet normal  9.925866e-001  0.000000e+000 -1.215397e-001
    outer loop
      vertex  2.350000e+000  0.000000e+000  2.877825e-016
      vertex  2.280572e+000  5.788510e+001 -5.670019e-001
      vertex  2.350000e+000  5.775493e+001  7.365148e-016
    endloop
  endfacet
  facet normal  0.000000e+000  1.523662e-001 -9.883240e-001
    outer loop
      vertex -1.970152e+000  5.927629e+001  1.281015e+000
      vertex  2.046650e+000  5.845804e+001  1.154869e+000
      vertex -2.046650e+000  5.845804e+001  1.154869e+000
    endloop
  endfacet
  facet normal  0.000000e+000  7.161376e-001 -6.979592e-001
    outer loop
      vertex -2.046650e+000  5.845804e+001  1.154869e+000
      vertex  2.046650e+000  5.845804e+001  1.154869e+000
      vertex  2.280572e+000  5.788510e+001  5.670019e-001
    endloop
  endfacet
  facet normal  0.000000e+000  7.161376e-001 -6.979592e-001
    outer loop
      vertex -2.046650e+000  5.845804e+001  1.154869e+000
      vertex  2.280572e+000  5.788510e+001  5.670019e-001
      vertex -2.280572e+000  5.788510e+001  5.670019e-001
    endloop
  endfacet
  facet normal  0.000000e+000  9.746473e-001 -2.237471e-001
    outer loop
      vertex -2.280572e+000  5.788510e+001  5.670019e-001
      vertex  2.280572e+000  5.788510e+001  5.670019e-001
      vertex  2.350000e+000  5.775493e+001  7.365148e-016
    endloop
  endfacet
  facet normal  0.000000e+000  9.746472e-001 -2.237471e-001
    outer loop
      vertex -2.280572e+000  5.788510e+001  5.670019e-001
      vertex  2.350000e+000  5.775493e+001  7.365148e-016
      vertex -2.350000e+000  5.775493e+001  7.365148e-016
    endloop
  endfacet
  facet normal  0.000000e+000  1.523662e-001 -9.883241e-001
    outer loop
      vertex  2.046650e+000  5.845804e+001  1.154869e+000
      vertex -1.970152e+000  5.927629e+001  1.281015e+000
      vertex  1.970152e+000  5.927629e+001  1.281015e+000
    endloop
  endfacet
  facet normal  -0.000000e+000 -3.278538e-001 -9.447284e-001
    outer loop
      vertex  1.970152e+000  5.927629e+001  1.281015e+000
      vertex -1.970152e+000  5.927629e+001  1.281015e+000
      vertex -2.053442e+000  5.967471e+001  1.142750e+000
    endloop
  endfacet
  facet normal  0.000000e+000 -3.278538e-001 -9.447284e-001
    outer loop
      vertex  1.970152e+000  5.927629e+001  1.281015e+000
      vertex -2.053442e+000  5.967471e+001  1.142750e+000
      vertex  2.053442e+000  5.967471e+001  1.142750e+000
    endloop
  endfacet
  facet normal  -0.000000e+000 -6.095031e-001 -7.927837e-001
    outer loop
      vertex  2.053442e+000  5.967471e+001  1.142750e+000
      vertex -2.053442e+000  5.967471e+001  1.142750e+000
      vertex -2.173857e+000  6.000000e+001  8.926622e-001
    endloop
  endfacet
  facet normal  0.000000e+000 -6.095030e-001 -7.927837e-001
    outer loop
      vertex  2.053442e+000  5.967471e+001  1.142750e+000
      vertex -2.173857e+000  6.000000e+001  8.926622e-001
      vertex  2.173857e+000  6.000000e+001  8.926622e-001
    endloop
  endfacet
  facet normal  -0.000000e+000 -8.643962e-001 -5.028111e-001
    outer loop
      vertex  2.173857e+000  6.000000e+001  8.926622e-001
      vertex -2.173857e+000  6.000000e+001  8.926622e-001
      vertex -2.299801e+000  6.029809e+001  3.802043e-001
    endloop
  endfacet
  facet normal  0.000000e+000 -8.643962e-001 -5.028111e-001
    outer loop
      vertex  2.173857e+000  6.000000e+001  8.926622e-001
      vertex -2.299801e+000  6.029809e+001  3.802043e-001
      vertex  2.299801e+000  6.029809e+001  3.802043e-001
    endloop
  endfacet
  facet normal  -0.000000e+000 -9.890093e-001 -1.478528e-001
    outer loop
      vertex  2.299801e+000  6.029809e+001  3.802043e-001
      vertex -2.299801e+000  6.029809e+001  3.802043e-001
      vertex -2.323042e+000  6.035493e+001  0.000000e+000
    endloop
  endfacet
  facet normal  0.000000e+000 -9.890093e-001 -1.478529e-001
    outer loop
      vertex  2.299801e+000  6.029809e+001  3.802043e-001
      vertex -2.323042e+000  6.035493e+001  0.000000e+000
      vertex  2.323042e+000  6.035493e+001  0.000000e+000
    endloop
  endfacet
  facet normal  0.000000e+000 -6.095030e-001  7.927837e-001
    outer loop
      vertex -2.053442e+000  5.967471e+001 -1.142750e+000
      vertex  2.173857e+000  6.000000e+001 -8.926622e-001
      vertex -2.173857e+000  6.000000e+001 -8.926622e-001
    endloop
  endfacet
  facet normal  0.000000e+000 -8.643962e-001  5.028111e-001
    outer loop
      vertex -2.173857e+000  6.000000e+001 -8.926622e-001
      vertex  2.173857e+000  6.000000e+001 -8.926622e-001
      vertex  2.299801e+000  6.029809e+001 -3.802043e-001
    endloop
  endfacet
  facet normal  0.000000e+000 -8.643962e-001  5.028111e-001
    outer loop
      vertex -2.173857e+000  6.000000e+001 -8.926622e-001
      vertex  2.299801e+000  6.029809e+001 -3.802043e-001
      vertex -2.299801e+000  6.029809e+001 -3.802043e-001
    endloop
  endfacet
  facet normal  0.000000e+000 -9.890093e-001  1.478528e-001
    outer loop
      vertex -2.299801e+000  6.029809e+001 -3.802043e-001
      vertex  2.299801e+000  6.029809e+001 -3.802043e-001
      vertex  2.323042e+000  6.035493e+001  0.000000e+000
    endloop
  endfacet
  facet normal  0.000000e+000 -9.890093e-001  1.478529e-001
    outer loop
      vertex -2.299801e+000  6.029809e+001 -3.802043e-001
      vertex  2.323042e+000  6.035493e+001  0.000000e+000
      vertex -2.323042e+000  6.035493e+001  0.000000e+000
    endloop
  endfacet
  facet normal  0.000000e+000 -6.095031e-001  7.927837e-001
    outer loop
      vertex  2.173857e+000  6.000000e+001 -8.926622e-001
      vertex -2.053442e+000  5.967471e+001 -1.142750e+000
      vertex  2.053442e+000  5.967471e+001 -1.142750e+000
    endloop
  endfacet
  facet normal  0.000000e+000 -3.278538e-001  9.447284e-001
    outer loop
      vertex  2.053442e+000  5.967471e+001 -1.142750e+000
      vertex -2.053442e+000  5.967471e+001 -1.142750e+000
      vertex -1.970152e+000  5.927629e+001 -1.281015e+000
    endloop
  endfacet
  facet normal  0.000000e+000 -3.278538e-001  9.447284e-001
    outer loop
      vertex  2.053442e+000  5.967471e+001 -1.142750e+000
      vertex -1.970152e+000  5.927629e+001 -1.281015e+000
      vertex  1.970152e+000  5.927629e+001 -1.281015e+000
    endloop
  endfacet
  facet normal  0.000000e+000  1.523662e-001  9.883241e-001
    outer loop
      vertex  1.970152e+000  5.927629e+001 -1.281015e+000
      vertex -1.970152e+000  5.927629e+001 -1.281015e+000
      vertex -2.046650e+000  5.845804e+001 -1.154869e+000
    endloop
  endfacet
  facet normal  -0.000000e+000  1.523662e-001  9.883240e-001
    outer loop
      vertex  1.970152e+000  5.927629e+001 -1.281015e+000
      vertex -2.046650e+000  5.845804e+001 -1.154869e+000
      vertex  2.046650e+000  5.845804e+001 -1.154869e+000
    endloop
  endfacet
  facet normal  0.000000e+000  7.161376e-001  6.979592e-001
    outer loop
      vertex  2.046650e+000  5.845804e+001 -1.154869e+000
      vertex -2.046650e+000  5.845804e+001 -1.154869e+000
      vertex -2.280572e+000  5.788510e+001 -5.670019e-001
    endloop
  endfacet
  facet normal  -0.000000e+000  7.161376e-001  6.979592e-001
    outer loop
      vertex  2.046650e+000  5.845804e+001 -1.154869e+000
      vertex -2.280572e+000  5.788510e+001 -5.670019e-001
      vertex  2.280572e+000  5.788510e+001 -5.670019e-001
    endloop
  endfacet
  facet normal  0.000000e+000  9.746473e-001  2.237471e-001
    outer loop
      vertex  2.280572e+000  5.788510e+001 -5.670019e-001
      vertex -2.280572e+000  5.788510e+001 -5.670019e-001
      vertex -2.350000e+000  5.775493e+001  7.365148e-016
    endloop
  endfacet
  facet normal  -0.000000e+000  9.746472e-001  2.237471e-001
    outer loop
      vertex  2.280572e+000  5.788510e+001 -5.670019e-001
      vertex -2.350000e+000  5.775493e+001  7.365148e-016
      vertex  2.350000e+000  5.775493e+001  7.365148e-016
    endloop
  endfacet
  facet normal  0.000000e+000  1.000000e+000  0.000000e+000
    outer loop
      vertex -2.828427e+000  0.000000e+000  2.828427e+000
      vertex -1.530734e+000  0.000000e+000  3.695518e+000
      vertex  3.779136e-016  0.000000e+000  2.350000e+000
    endloop
  endfacet
  facet normal  0.000000e+000  1.000000e+000  0.000000e+000
    outer loop
      vertex  3.779136e-016  0.000000e+000  2.350000e+000
      vertex -1.530734e+000  0.000000e+000  3.695518e+000
      vertex  2.449213e-016  0.000000e+000  4.000000e+000
    endloop
  endfacet
  facet normal  0.000000e+000  1.000000e+000  0.000000e+000
    outer loop
      vertex  3.779136e-016  0.000000e+000  2.350000e+000
      vertex  2.449213e-016  0.000000e+000  4.000000e+000
      vertex  2.828427e+000  0.000000e+000  2.828427e+000
    endloop
  endfacet
  facet normal  0.000000e+000  1.000000e+000  0.000000e+000
    outer loop
      vertex  2.828427e+000  0.000000e+000  2.828427e+000
      vertex  2.449213e-016  0.000000e+000  4.000000e+000
      vertex  1.530734e+000  0.000000e+000  3.695518e+000
    endloop
  endfacet
  facet normal  0.000000e+000  1.000000e+000  0.000000e+000
    outer loop
      vertex  3.779136e-016  0.000000e+000  2.350000e+000
      vertex  2.828427e+000  0.000000e+000  2.828427e+000
      vertex  1.175000e+000  0.000000e+000  2.035160e+000
    endloop
  endfacet
  facet normal  -0.000000e+000  1.000000e+000  0.000000e+000
    outer loop
      vertex  1.175000e+000  0.000000e+000  2.035160e+000
      vertex  2.828427e+000  0.000000e+000  2.828427e+000
      vertex  3.695518e+000  0.000000e+000  1.530734e+000
    endloop
  endfacet
  facet normal  0.000000e+000  1.000000e+000  0.000000e+000
    outer loop
      vertex  1.175000e+000  0.000000e+000  2.035160e+000
      vertex  3.695518e+000  0.000000e+000  1.530734e+000
      vertex  2.035160e+000  0.000000e+000  1.175000e+000
    endloop
  endfacet
  facet normal  0.000000e+000  1.000000e+000  0.000000e+000
    outer loop
      vertex  2.035160e+000  0.000000e+000  1.175000e+000
      vertex  3.695518e+000  0.000000e+000  1.530734e+000
      vertex  2.350000e+000  0.000000e+000  2.877825e-016
    endloop
  endfacet
  facet normal  -0.000000e+000  1.000000e+000  0.000000e+000
    outer loop
      vertex  2.350000e+000  0.000000e+000  2.877825e-016
      vertex  3.695518e+000  0.000000e+000  1.530734e+000
      vertex  4.000000e+000  0.000000e+000  0.000000e+000
    endloop
  endfacet
  facet normal  0.000000e+000  1.000000e+000  0.000000e+000
    outer loop
      vertex  2.350000e+000  0.000000e+000  2.877825e-016
      vertex  4.000000e+000  0.000000e+000  0.000000e+000
      vertex  2.035160e+000  0.000000e+000 -1.175000e+000
    endloop
  endfacet
  facet normal  -0.000000e+000  1.000000e+000  0.000000e+000
    outer loop
      vertex  2.035160e+000  0.000000e+000 -1.175000e+000
      vertex  4.000000e+000  0.000000e+000  0.000000e+000
      vertex  3.695518e+000  0.000000e+000 -1.530734e+000
    endloop
  endfacet
  facet normal  0.000000e+000  1.000000e+000  0.000000e+000
    outer loop
      vertex  2.035160e+000  0.000000e+000 -1.175000e+000
      vertex  3.695518e+000  0.000000e+000 -1.530734e+000
      vertex  1.175000e+000  0.000000e+000 -2.035160e+000
    endloop
  endfacet
  facet normal  -0.000000e+000  1.000000e+000  0.000000e+000
    outer loop
      vertex  1.175000e+000  0.000000e+000 -2.035160e+000
      vertex  3.695518e+000  0.000000e+000 -1.530734e+000
      vertex  2.828427e+000  0.000000e+000 -2.828427e+000
    endloop
  endfacet
  facet normal  0.000000e+000  1.000000e+000  0.000000e+000
    outer loop
      vertex  1.175000e+000  0.000000e+000 -2.035160e+000
      vertex  2.828427e+000  0.000000e+000 -2.828427e+000
      vertex  4.316737e-016  0.000000e+000 -2.350000e+000
    endloop
  endfacet
  facet normal  0.000000e+000  1.000000e+000  0.000000e+000
    outer loop
      vertex -1.530734e+000  0.000000e+000 -3.695518e+000
      vertex -2.828427e+000  0.000000e+000 -2.828427e+000
      vertex -7.347638e-016  0.000000e+000 -4.000000e+000
    endloop
  endfacet
  facet normal  0.000000e+000  1.000000e+000  -0.000000e+000
    outer loop
      vertex -7.347638e-016  0.000000e+000 -4.000000e+000
      vertex -2.828427e+000  0.000000e+000 -2.828427e+000
      vertex  4.316737e-016  0.000000e+000 -2.350000e+000
    endloop
  endfacet
  facet normal  0.000000e+000  1.000000e+000  0.000000e+000
    outer loop
      vertex -7.347638e-016  0.000000e+000 -4.000000e+000
      vertex  4.316737e-016  0.000000e+000 -2.350000e+000
      vertex  1.530734e+000  0.000000e+000 -3.695518e+000
    endloop
  endfacet
  facet normal  0.000000e+000  1.000000e+000  -0.000000e+000
    outer loop
      vertex  1.530734e+000  0.000000e+000 -3.695518e+000
      vertex  4.316737e-016  0.000000e+000 -2.350000e+000
      vertex  2.828427e+000  0.000000e+000 -2.828427e+000
    endloop
  endfacet
  facet normal  0.000000e+000  1.000000e+000  0.000000e+000
    outer loop
      vertex -2.828427e+000  0.000000e+000  2.828427e+000
      vertex  3.779136e-016  0.000000e+000  2.350000e+000
      vertex -3.695518e+000  0.000000e+000  1.530734e+000
    endloop
  endfacet
  facet normal  0.000000e+000  1.000000e+000  0.000000e+000
    outer loop
      vertex -3.695518e+000  0.000000e+000  1.530734e+000
      vertex  3.779136e-016  0.000000e+000  2.350000e+000
      vertex -1.175000e+000  0.000000e+000  2.035160e+000
    endloop
  endfacet
  facet normal  0.000000e+000  1.000000e+000  0.000000e+000
    outer loop
      vertex -3.695518e+000  0.000000e+000  1.530734e+000
      vertex -1.175000e+000  0.000000e+000  2.035160e+000
      vertex -2.035160e+000  0.000000e+000  1.175000e+000
    endloop
  endfacet
  facet normal  0.000000e+000  1.000000e+000  0.000000e+000
    outer loop
      vertex -3.695518e+000  0.000000e+000  1.530734e+000
      vertex -2.035160e+000  0.000000e+000  1.175000e+000
      vertex -4.000000e+000  0.000000e+000  4.898425e-016
    endloop
  endfacet
  facet normal  -0.000000e+000  1.000000e+000  0.000000e+000
    outer loop
      vertex -4.000000e+000  0.000000e+000  4.898425e-016
      vertex -2.035160e+000  0.000000e+000  1.175000e+000
      vertex -2.350000e+000  0.000000e+000 -5.755650e-016
    endloop
  endfacet
  facet normal  0.000000e+000  1.000000e+000  0.000000e+000
    outer loop
      vertex -4.000000e+000  0.000000e+000  4.898425e-016
      vertex -2.350000e+000  0.000000e+000 -5.755650e-016
      vertex -3.695518e+000  0.000000e+000 -1.530734e+000
    endloop
  endfacet
  facet normal  0.000000e+000  1.000000e+000  0.000000e+000
    outer loop
      vertex -3.695518e+000  0.000000e+000 -1.530734e+000
      vertex -2.350000e+000  0.000000e+000 -5.755650e-016
      vertex -2.035160e+000  0.000000e+000 -1.175000e+000
    endloop
  endfacet
  facet normal  0.000000e+000  1.000000e+000  0.000000e+000
    outer loop
      vertex -3.695518e+000  0.000000e+000 -1.530734e+000
      vertex -2.035160e+000  0.000000e+000 -1.175000e+000
      vertex -2.828427e+000  0.000000e+000 -2.828427e+000
    endloop
  endfacet
  facet normal  0.000000e+000  1.000000e+000  0.000000e+000
    outer loop
      vertex -2.828427e+000  0.000000e+000 -2.828427e+000
      vertex -2.035160e+000  0.000000e+000 -1.175000e+000
      vertex -1.175000e+000  0.000000e+000 -2.035160e+000
    endloop
  endfacet
  facet normal  0.000000e+000  1.000000e+000  0.000000e+000
    outer loop
      vertex -2.828427e+000  0.000000e+000 -2.828427e+000
      vertex -1.175000e+000  0.000000e+000 -2.035160e+000
      vertex  4.316737e-016  0.000000e+000 -2.350000e+000
    endloop
  endfacet
endsolid CATIA STL
