solid CATIA STL
  facet normal -9.510565e-001  0.000000e+000  3.090170e-001
    outer loop
      vertex -4.000000e+000  0.000000e+000  4.898425e-016
      vertex -4.000000e+000 -1.500000e+000  4.898425e-016
      vertex -3.236068e+000  0.000000e+000  2.351141e+000
    endloop
  endfacet
  facet normal -9.510565e-001  0.000000e+000  3.090170e-001
    outer loop
      vertex -3.236068e+000  0.000000e+000  2.351141e+000
      vertex -4.000000e+000 -1.500000e+000  4.898425e-016
      vertex -3.236068e+000 -1.500000e+000  2.351141e+000
    endloop
  endfacet
  facet normal -5.877853e-001  0.000000e+000  8.090169e-001
    outer loop
      vertex -3.236068e+000  0.000000e+000  2.351141e+000
      vertex -3.236068e+000 -1.500000e+000  2.351141e+000
      vertex -1.236068e+000  0.000000e+000  3.804226e+000
    endloop
  endfacet
  facet normal -5.877853e-001  0.000000e+000  8.090169e-001
    outer loop
      vertex -1.236068e+000  0.000000e+000  3.804226e+000
      vertex -3.236068e+000 -1.500000e+000  2.351141e+000
      vertex -1.236068e+000 -1.500000e+000  3.804226e+000
    endloop
  endfacet
  facet normal  0.000000e+000  0.000000e+000  1.000000e+000
    outer loop
      vertex -1.236068e+000  0.000000e+000  3.804226e+000
      vertex -1.236068e+000 -1.500000e+000  3.804226e+000
      vertex  1.236068e+000  0.000000e+000  3.804226e+000
    endloop
  endfacet
  facet normal  0.000000e+000  0.000000e+000  1.000000e+000
    outer loop
      vertex  1.236068e+000  0.000000e+000  3.804226e+000
      vertex -1.236068e+000 -1.500000e+000  3.804226e+000
      vertex  1.236068e+000 -1.500000e+000  3.804226e+000
    endloop
  endfacet
  facet normal  5.877853e-001  -0.000000e+000  8.090169e-001
    outer loop
      vertex  1.236068e+000  0.000000e+000  3.804226e+000
      vertex  1.236068e+000 -1.500000e+000  3.804226e+000
      vertex  3.236068e+000  0.000000e+000  2.351141e+000
    endloop
  endfacet
  facet normal  5.877853e-001  0.000000e+000  8.090169e-001
    outer loop
      vertex  3.236068e+000  0.000000e+000  2.351141e+000
      vertex  1.236068e+000 -1.500000e+000  3.804226e+000
      vertex  3.236068e+000 -1.500000e+000  2.351141e+000
    endloop
  endfacet
  facet normal  9.510565e-001  -0.000000e+000  3.090170e-001
    outer loop
      vertex  3.236068e+000  0.000000e+000  2.351141e+000
      vertex  3.236068e+000 -1.500000e+000  2.351141e+000
      vertex  4.000000e+000  0.000000e+000  0.000000e+000
    endloop
  endfacet
  facet normal  9.510565e-001 -2.018262e-016  3.090170e-001
    outer loop
      vertex  4.000000e+000  0.000000e+000  0.000000e+000
      vertex  3.236068e+000 -1.500000e+000  2.351141e+000
      vertex  4.000000e+000 -1.500000e+000 -9.796851e-016
    endloop
  endfacet
  facet normal  9.510565e-001  2.018262e-016 -3.090170e-001
    outer loop
      vertex  4.000000e+000  0.000000e+000  0.000000e+000
      vertex  4.000000e+000 -1.500000e+000 -9.796851e-016
      vertex  3.236068e+000  0.000000e+000 -2.351141e+000
    endloop
  endfacet
  facet normal  9.510565e-001  0.000000e+000 -3.090170e-001
    outer loop
      vertex  3.236068e+000  0.000000e+000 -2.351141e+000
      vertex  4.000000e+000 -1.500000e+000 -9.796851e-016
      vertex  3.236068e+000 -1.500000e+000 -2.351141e+000
    endloop
  endfacet
  facet normal  5.877853e-001  0.000000e+000 -8.090169e-001
    outer loop
      vertex  3.236068e+000  0.000000e+000 -2.351141e+000
      vertex  3.236068e+000 -1.500000e+000 -2.351141e+000
      vertex  1.236068e+000  0.000000e+000 -3.804226e+000
    endloop
  endfacet
  facet normal  5.877853e-001  0.000000e+000 -8.090169e-001
    outer loop
      vertex  1.236068e+000  0.000000e+000 -3.804226e+000
      vertex  3.236068e+000 -1.500000e+000 -2.351141e+000
      vertex  1.236068e+000 -1.500000e+000 -3.804226e+000
    endloop
  endfacet
  facet normal  0.000000e+000  0.000000e+000 -1.000000e+000
    outer loop
      vertex  1.236068e+000  0.000000e+000 -3.804226e+000
      vertex  1.236068e+000 -1.500000e+000 -3.804226e+000
      vertex -1.236068e+000  0.000000e+000 -3.804226e+000
    endloop
  endfacet
  facet normal  0.000000e+000  0.000000e+000 -1.000000e+000
    outer loop
      vertex -1.236068e+000  0.000000e+000 -3.804226e+000
      vertex  1.236068e+000 -1.500000e+000 -3.804226e+000
      vertex -1.236068e+000 -1.500000e+000 -3.804226e+000
    endloop
  endfacet
  facet normal -5.877853e-001  0.000000e+000 -8.090169e-001
    outer loop
      vertex -1.236068e+000  0.000000e+000 -3.804226e+000
      vertex -1.236068e+000 -1.500000e+000 -3.804226e+000
      vertex -3.236068e+000  0.000000e+000 -2.351141e+000
    endloop
  endfacet
  facet normal -5.877853e-001  -0.000000e+000 -8.090169e-001
    outer loop
      vertex -3.236068e+000  0.000000e+000 -2.351141e+000
      vertex -1.236068e+000 -1.500000e+000 -3.804226e+000
      vertex -3.236068e+000 -1.500000e+000 -2.351141e+000
    endloop
  endfacet
  facet normal -9.510565e-001  0.000000e+000 -3.090170e-001
    outer loop
      vertex -3.236068e+000  0.000000e+000 -2.351141e+000
      vertex -3.236068e+000 -1.500000e+000 -2.351141e+000
      vertex -4.000000e+000  0.000000e+000  4.898425e-016
    endloop
  endfacet
  facet normal -9.510565e-001  -0.000000e+000 -3.090170e-001
    outer loop
      vertex -4.000000e+000  0.000000e+000  4.898425e-016
      vertex -3.236068e+000 -1.500000e+000 -2.351141e+000
      vertex -4.000000e+000 -1.500000e+000  4.898425e-016
    endloop
  endfacet
  facet normal  0.000000e+000 -1.000000e+000  0.000000e+000
    outer loop
      vertex  1.081560e+000 -2.000000e+000  3.328698e+000
      vertex -1.081559e+000 -2.000000e+000  3.328698e+000
      vertex  2.831559e+000 -2.000000e+000  2.057248e+000
    endloop
  endfacet
  facet normal  0.000000e+000 -1.000000e+000  0.000000e+000
    outer loop
      vertex  2.831559e+000 -2.000000e+000  2.057248e+000
      vertex -1.081559e+000 -2.000000e+000  3.328698e+000
      vertex -2.831559e+000 -2.000000e+000  2.057249e+000
    endloop
  endfacet
  facet normal  0.000000e+000 -1.000000e+000  0.000000e+000
    outer loop
      vertex  2.831559e+000 -2.000000e+000  2.057248e+000
      vertex -2.831559e+000 -2.000000e+000  2.057249e+000
      vertex  3.500000e+000 -2.000000e+000 -2.272759e-015
    endloop
  endfacet
  facet normal  0.000000e+000 -9.999999e-001  0.000000e+000
    outer loop
      vertex  3.500000e+000 -2.000000e+000 -2.272759e-015
      vertex -2.831559e+000 -2.000000e+000  2.057249e+000
      vertex -3.500000e+000 -2.000000e+000  2.619931e-007
    endloop
  endfacet
  facet normal  0.000000e+000 -9.999999e-001  0.000000e+000
    outer loop
      vertex  3.500000e+000 -2.000000e+000 -2.272759e-015
      vertex -3.500000e+000 -2.000000e+000  2.619931e-007
      vertex  2.831559e+000 -2.000000e+000 -2.057248e+000
    endloop
  endfacet
  facet normal  0.000000e+000 -1.000000e+000  0.000000e+000
    outer loop
      vertex  2.831559e+000 -2.000000e+000 -2.057248e+000
      vertex -3.500000e+000 -2.000000e+000  2.619931e-007
      vertex -2.831559e+000 -2.000000e+000 -2.057248e+000
    endloop
  endfacet
  facet normal  0.000000e+000 -1.000000e+000  0.000000e+000
    outer loop
      vertex  2.831559e+000 -2.000000e+000 -2.057248e+000
      vertex -2.831559e+000 -2.000000e+000 -2.057248e+000
      vertex  1.081560e+000 -2.000000e+000 -3.328698e+000
    endloop
  endfacet
  facet normal  -0.000000e+000 -1.000000e+000  0.000000e+000
    outer loop
      vertex  1.081560e+000 -2.000000e+000 -3.328698e+000
      vertex -2.831559e+000 -2.000000e+000 -2.057248e+000
      vertex -1.081559e+000 -2.000000e+000 -3.328698e+000
    endloop
  endfacet
  facet normal  4.259192e-001 -6.891518e-001  5.862274e-001
    outer loop
      vertex  1.236068e+000 -1.500000e+000  3.804226e+000
      vertex  2.831559e+000 -2.000000e+000  2.057248e+000
      vertex  3.236068e+000 -1.500000e+000  2.351141e+000
    endloop
  endfacet
  facet normal  6.891516e-001 -6.891518e-001  2.239190e-001
    outer loop
      vertex  3.236068e+000 -1.500000e+000  2.351141e+000
      vertex  2.831559e+000 -2.000000e+000  2.057248e+000
      vertex  3.500000e+000 -2.000000e+000 -2.272759e-015
    endloop
  endfacet
  facet normal  6.891518e-001 -6.891518e-001  2.239190e-001
    outer loop
      vertex  3.236068e+000 -1.500000e+000  2.351141e+000
      vertex  3.500000e+000 -2.000000e+000 -2.272759e-015
      vertex  4.000000e+000 -1.500000e+000 -9.796851e-016
    endloop
  endfacet
  facet normal  4.259191e-001 -6.891518e-001  5.862274e-001
    outer loop
      vertex  2.831559e+000 -2.000000e+000  2.057248e+000
      vertex  1.236068e+000 -1.500000e+000  3.804226e+000
      vertex  1.081560e+000 -2.000000e+000  3.328698e+000
    endloop
  endfacet
  facet normal  0.000000e+000 -6.891519e-001  7.246169e-001
    outer loop
      vertex  1.081560e+000 -2.000000e+000  3.328698e+000
      vertex  1.236068e+000 -1.500000e+000  3.804226e+000
      vertex -1.236068e+000 -1.500000e+000  3.804226e+000
    endloop
  endfacet
  facet normal  7.986716e-008 -6.891517e-001  7.246171e-001
    outer loop
      vertex  1.081560e+000 -2.000000e+000  3.328698e+000
      vertex -1.236068e+000 -1.500000e+000  3.804226e+000
      vertex -1.081559e+000 -2.000000e+000  3.328698e+000
    endloop
  endfacet
  facet normal -4.259192e-001 -6.891518e-001  5.862274e-001
    outer loop
      vertex -1.081559e+000 -2.000000e+000  3.328698e+000
      vertex -1.236068e+000 -1.500000e+000  3.804226e+000
      vertex -3.236068e+000 -1.500000e+000  2.351141e+000
    endloop
  endfacet
  facet normal -4.259192e-001 -6.891516e-001  5.862276e-001
    outer loop
      vertex -1.081559e+000 -2.000000e+000  3.328698e+000
      vertex -3.236068e+000 -1.500000e+000  2.351141e+000
      vertex -2.831559e+000 -2.000000e+000  2.057249e+000
    endloop
  endfacet
  facet normal -6.891518e-001 -6.891518e-001  2.239190e-001
    outer loop
      vertex -2.831559e+000 -2.000000e+000  2.057249e+000
      vertex -3.236068e+000 -1.500000e+000  2.351141e+000
      vertex -4.000000e+000 -1.500000e+000  4.898425e-016
    endloop
  endfacet
  facet normal -6.891518e-001 -6.891517e-001  2.239190e-001
    outer loop
      vertex -2.831559e+000 -2.000000e+000  2.057249e+000
      vertex -4.000000e+000 -1.500000e+000  4.898425e-016
      vertex -3.500000e+000 -2.000000e+000  2.619931e-007
    endloop
  endfacet
  facet normal -4.259192e-001 -6.891518e-001 -5.862274e-001
    outer loop
      vertex -1.236068e+000 -1.500000e+000 -3.804226e+000
      vertex -2.831559e+000 -2.000000e+000 -2.057248e+000
      vertex -3.236068e+000 -1.500000e+000 -2.351141e+000
    endloop
  endfacet
  facet normal -6.891518e-001 -6.891519e-001 -2.239190e-001
    outer loop
      vertex -3.236068e+000 -1.500000e+000 -2.351141e+000
      vertex -2.831559e+000 -2.000000e+000 -2.057248e+000
      vertex -3.500000e+000 -2.000000e+000  2.619931e-007
    endloop
  endfacet
  facet normal -6.891516e-001 -6.891518e-001 -2.239189e-001
    outer loop
      vertex -3.236068e+000 -1.500000e+000 -2.351141e+000
      vertex -3.500000e+000 -2.000000e+000  2.619931e-007
      vertex -4.000000e+000 -1.500000e+000  4.898425e-016
    endloop
  endfacet
  facet normal -4.259192e-001 -6.891518e-001 -5.862274e-001
    outer loop
      vertex -2.831559e+000 -2.000000e+000 -2.057248e+000
      vertex -1.236068e+000 -1.500000e+000 -3.804226e+000
      vertex -1.081559e+000 -2.000000e+000 -3.328698e+000
    endloop
  endfacet
  facet normal  0.000000e+000 -6.891517e-001 -7.246170e-001
    outer loop
      vertex -1.081559e+000 -2.000000e+000 -3.328698e+000
      vertex -1.236068e+000 -1.500000e+000 -3.804226e+000
      vertex  1.236068e+000 -1.500000e+000 -3.804226e+000
    endloop
  endfacet
  facet normal  7.986715e-008 -6.891520e-001 -7.246169e-001
    outer loop
      vertex -1.081559e+000 -2.000000e+000 -3.328698e+000
      vertex  1.236068e+000 -1.500000e+000 -3.804226e+000
      vertex  1.081560e+000 -2.000000e+000 -3.328698e+000
    endloop
  endfacet
  facet normal  4.259192e-001 -6.891519e-001 -5.862274e-001
    outer loop
      vertex  1.081560e+000 -2.000000e+000 -3.328698e+000
      vertex  1.236068e+000 -1.500000e+000 -3.804226e+000
      vertex  3.236068e+000 -1.500000e+000 -2.351141e+000
    endloop
  endfacet
  facet normal  4.259192e-001 -6.891518e-001 -5.862275e-001
    outer loop
      vertex  1.081560e+000 -2.000000e+000 -3.328698e+000
      vertex  3.236068e+000 -1.500000e+000 -2.351141e+000
      vertex  2.831559e+000 -2.000000e+000 -2.057248e+000
    endloop
  endfacet
  facet normal  6.891516e-001 -6.891518e-001 -2.239189e-001
    outer loop
      vertex  2.831559e+000 -2.000000e+000 -2.057248e+000
      vertex  3.236068e+000 -1.500000e+000 -2.351141e+000
      vertex  4.000000e+000 -1.500000e+000 -9.796851e-016
    endloop
  endfacet
  facet normal  6.891517e-001 -6.891517e-001 -2.239190e-001
    outer loop
      vertex  2.831559e+000 -2.000000e+000 -2.057248e+000
      vertex  4.000000e+000 -1.500000e+000 -9.796851e-016
      vertex  3.500000e+000 -2.000000e+000 -2.272759e-015
    endloop
  endfacet
  facet normal -5.798525e-001  3.117803e-001 -7.527045e-001
    outer loop
      vertex -1.957677e+000  6.000000e+001 -1.300000e+000
      vertex -1.957677e+000  6.091924e+001 -9.192388e-001
      vertex -7.575025e-001  6.000000e+001 -2.224565e+000
    endloop
  endfacet
  facet normal -5.798525e-001  3.117803e-001 -7.527045e-001
    outer loop
      vertex -7.575025e-001  6.000000e+001 -2.224565e+000
      vertex -1.957677e+000  6.091924e+001 -9.192388e-001
      vertex -7.575025e-001  6.157301e+001 -1.573005e+000
    endloop
  endfacet
  facet normal  0.000000e+000  3.826832e-001 -9.238796e-001
    outer loop
      vertex -7.575025e-001  6.000000e+001 -2.224565e+000
      vertex -7.575025e-001  6.157301e+001 -1.573005e+000
      vertex  7.575025e-001  6.000000e+001 -2.224565e+000
    endloop
  endfacet
  facet normal  0.000000e+000  3.826832e-001 -9.238796e-001
    outer loop
      vertex  7.575025e-001  6.000000e+001 -2.224565e+000
      vertex -7.575025e-001  6.157301e+001 -1.573005e+000
      vertex  7.575025e-001  6.157301e+001 -1.573005e+000
    endloop
  endfacet
  facet normal  5.798525e-001  3.117803e-001 -7.527045e-001
    outer loop
      vertex  7.575025e-001  6.000000e+001 -2.224565e+000
      vertex  7.575025e-001  6.157301e+001 -1.573005e+000
      vertex  1.957677e+000  6.000000e+001 -1.300000e+000
    endloop
  endfacet
  facet normal  5.798525e-001  3.117803e-001 -7.527045e-001
    outer loop
      vertex  1.957677e+000  6.000000e+001 -1.300000e+000
      vertex  7.575025e-001  6.157301e+001 -1.573005e+000
      vertex  1.957677e+000  6.091924e+001 -9.192388e-001
    endloop
  endfacet
  facet normal -5.798525e-001  3.117803e-001  7.527045e-001
    outer loop
      vertex -1.957677e+000  6.091924e+001  9.192388e-001
      vertex -1.957677e+000  6.000000e+001  1.300000e+000
      vertex -7.575025e-001  6.157301e+001  1.573005e+000
    endloop
  endfacet
  facet normal -5.798525e-001  3.117803e-001  7.527045e-001
    outer loop
      vertex -7.575025e-001  6.157301e+001  1.573005e+000
      vertex -1.957677e+000  6.000000e+001  1.300000e+000
      vertex -7.575025e-001  6.000000e+001  2.224565e+000
    endloop
  endfacet
  facet normal  0.000000e+000  3.826832e-001  9.238796e-001
    outer loop
      vertex -7.575025e-001  6.157301e+001  1.573005e+000
      vertex -7.575025e-001  6.000000e+001  2.224565e+000
      vertex  7.575025e-001  6.157301e+001  1.573005e+000
    endloop
  endfacet
  facet normal  0.000000e+000  3.826832e-001  9.238796e-001
    outer loop
      vertex  7.575025e-001  6.157301e+001  1.573005e+000
      vertex -7.575025e-001  6.000000e+001  2.224565e+000
      vertex  7.575025e-001  6.000000e+001  2.224565e+000
    endloop
  endfacet
  facet normal  5.798525e-001  3.117803e-001  7.527045e-001
    outer loop
      vertex  7.575025e-001  6.157301e+001  1.573005e+000
      vertex  7.575025e-001  6.000000e+001  2.224565e+000
      vertex  1.957677e+000  6.091924e+001  9.192388e-001
    endloop
  endfacet
  facet normal  5.798525e-001  3.117803e-001  7.527045e-001
    outer loop
      vertex  1.957677e+000  6.091924e+001  9.192388e-001
      vertex  7.575025e-001  6.000000e+001  2.224565e+000
      vertex  1.957677e+000  6.000000e+001  1.300000e+000
    endloop
  endfacet
  facet normal -5.798523e-001  7.527050e-001  3.117798e-001
    outer loop
      vertex -1.957677e+000  6.130000e+001  0.000000e+000
      vertex -1.957677e+000  6.091924e+001  9.192388e-001
      vertex -7.575025e-001  6.222456e+001  4.984612e-016
    endloop
  endfacet
  facet normal -5.798525e-001  7.527049e-001  3.117796e-001
    outer loop
      vertex -7.575025e-001  6.222456e+001  4.984612e-016
      vertex -1.957677e+000  6.091924e+001  9.192388e-001
      vertex -7.575025e-001  6.157301e+001  1.573005e+000
    endloop
  endfacet
  facet normal  0.000000e+000  9.238800e-001  3.826824e-001
    outer loop
      vertex -7.575025e-001  6.222456e+001  4.984612e-016
      vertex -7.575025e-001  6.157301e+001  1.573005e+000
      vertex  7.575025e-001  6.222456e+001  5.912255e-016
    endloop
  endfacet
  facet normal  0.000000e+000  9.238800e-001  3.826824e-001
    outer loop
      vertex  7.575025e-001  6.222456e+001  5.912255e-016
      vertex -7.575025e-001  6.157301e+001  1.573005e+000
      vertex  7.575025e-001  6.157301e+001  1.573005e+000
    endloop
  endfacet
  facet normal  5.798523e-001  7.527050e-001  3.117796e-001
    outer loop
      vertex  7.575025e-001  6.222456e+001  5.912255e-016
      vertex  7.575025e-001  6.157301e+001  1.573005e+000
      vertex  1.957677e+000  6.130000e+001  0.000000e+000
    endloop
  endfacet
  facet normal  5.798525e-001  7.527048e-001  3.117797e-001
    outer loop
      vertex  1.957677e+000  6.130000e+001  0.000000e+000
      vertex  7.575025e-001  6.157301e+001  1.573005e+000
      vertex  1.957677e+000  6.091924e+001  9.192388e-001
    endloop
  endfacet
  facet normal -5.798525e-001  7.527048e-001 -3.117797e-001
    outer loop
      vertex -1.957677e+000  6.091924e+001 -9.192388e-001
      vertex -1.957677e+000  6.130000e+001  0.000000e+000
      vertex -7.575025e-001  6.157301e+001 -1.573005e+000
    endloop
  endfacet
  facet normal -5.798523e-001  7.527050e-001 -3.117796e-001
    outer loop
      vertex -7.575025e-001  6.157301e+001 -1.573005e+000
      vertex -1.957677e+000  6.130000e+001  0.000000e+000
      vertex -7.575025e-001  6.222456e+001  4.984612e-016
    endloop
  endfacet
  facet normal  0.000000e+000  9.238800e-001 -3.826824e-001
    outer loop
      vertex -7.575025e-001  6.157301e+001 -1.573005e+000
      vertex -7.575025e-001  6.222456e+001  4.984612e-016
      vertex  7.575025e-001  6.157301e+001 -1.573005e+000
    endloop
  endfacet
  facet normal  0.000000e+000  9.238800e-001 -3.826824e-001
    outer loop
      vertex  7.575025e-001  6.157301e+001 -1.573005e+000
      vertex -7.575025e-001  6.222456e+001  4.984612e-016
      vertex  7.575025e-001  6.222456e+001  5.912255e-016
    endloop
  endfacet
  facet normal  5.798525e-001  7.527049e-001 -3.117796e-001
    outer loop
      vertex  7.575025e-001  6.157301e+001 -1.573005e+000
      vertex  7.575025e-001  6.222456e+001  5.912255e-016
      vertex  1.957677e+000  6.091924e+001 -9.192388e-001
    endloop
  endfacet
  facet normal  5.798523e-001  7.527050e-001 -3.117798e-001
    outer loop
      vertex  1.957677e+000  6.091924e+001 -9.192388e-001
      vertex  7.575025e-001  6.222456e+001  5.912255e-016
      vertex  1.957677e+000  6.130000e+001  0.000000e+000
    endloop
  endfacet
  facet normal -6.102710e-001  1.765174e-003  7.921907e-001
    outer loop
      vertex -1.957677e+000  6.000000e+001  1.300000e+000
      vertex -1.661701e+000  0.000000e+000  1.661701e+000
      vertex -7.575025e-001  6.000000e+001  2.224565e+000
    endloop
  endfacet
  facet normal  -0.000000e+000  2.090577e-003  9.999979e-001
    outer loop
      vertex  7.575025e-001  6.000000e+001  2.224565e+000
      vertex -7.575025e-001  6.000000e+001  2.224565e+000
      vertex -1.438912e-016  0.000000e+000  2.350000e+000
    endloop
  endfacet
  facet normal -3.826818e-001 -2.899936e-003  9.238757e-001
    outer loop
      vertex -1.661701e+000  0.000000e+000  1.661701e+000
      vertex -1.438912e-016  0.000000e+000  2.350000e+000
      vertex -7.575025e-001  6.000000e+001  2.224565e+000
    endloop
  endfacet
  facet normal -9.238772e-001 -2.250486e-003  3.826824e-001
    outer loop
      vertex -2.350000e+000  0.000000e+000 -5.755650e-016
      vertex -1.661701e+000  0.000000e+000  1.661701e+000
      vertex -1.957677e+000  6.000000e+001  1.300000e+000
    endloop
  endfacet
  facet normal -8.215447e-001 -6.980353e-003  5.701013e-001
    outer loop
      vertex -2.350000e+000  0.000000e+000 -5.755650e-016
      vertex -1.957677e+000  6.000000e+001  1.300000e+000
      vertex -1.999128e+000  5.959502e+001  1.235309e+000
    endloop
  endfacet
  facet normal -9.034017e-001 -3.569052e-003  4.287803e-001
    outer loop
      vertex -2.350000e+000  0.000000e+000 -5.755650e-016
      vertex -1.999128e+000  5.959502e+001  1.235309e+000
      vertex -2.227680e+000  5.893696e+001  7.482920e-001
    endloop
  endfacet
  facet normal -9.869015e-001  0.000000e+000  1.613240e-001
    outer loop
      vertex -2.350000e+000  0.000000e+000 -5.755650e-016
      vertex -2.227680e+000  5.893696e+001  7.482920e-001
      vertex -2.350000e+000  5.870000e+001  7.365148e-016
    endloop
  endfacet
  facet normal  8.395143e-001 -8.658471e-004  5.433369e-001
    outer loop
      vertex  1.999128e+000  5.959502e+001  1.235309e+000
      vertex  1.957677e+000  6.000000e+001  1.300000e+000
      vertex  1.661701e+000  0.000000e+000  1.661701e+000
    endloop
  endfacet
  facet normal  6.102710e-001  1.765174e-003  7.921907e-001
    outer loop
      vertex  1.661701e+000  0.000000e+000  1.661701e+000
      vertex  1.957677e+000  6.000000e+001  1.300000e+000
      vertex  7.575025e-001  6.000000e+001  2.224565e+000
    endloop
  endfacet
  facet normal  3.826818e-001 -2.899936e-003  9.238757e-001
    outer loop
      vertex  1.661701e+000  0.000000e+000  1.661701e+000
      vertex  7.575025e-001  6.000000e+001  2.224565e+000
      vertex -1.438912e-016  0.000000e+000  2.350000e+000
    endloop
  endfacet
  facet normal  9.238796e-001 -2.925424e-018  3.826834e-001
    outer loop
      vertex  2.350000e+000  0.000000e+000  2.877825e-016
      vertex  2.350000e+000  5.870000e+001  7.365148e-016
      vertex  1.661701e+000  0.000000e+000  1.661701e+000
    endloop
  endfacet
  facet normal  9.865255e-001 -6.940412e-003  1.634604e-001
    outer loop
      vertex  1.661701e+000  0.000000e+000  1.661701e+000
      vertex  2.350000e+000  5.870000e+001  7.365148e-016
      vertex  2.227680e+000  5.893696e+001  7.482920e-001
    endloop
  endfacet
  facet normal  9.041937e-001 -2.063589e-003  4.271178e-001
    outer loop
      vertex  1.661701e+000  0.000000e+000  1.661701e+000
      vertex  2.227680e+000  5.893696e+001  7.482920e-001
      vertex  1.999128e+000  5.959502e+001  1.235309e+000
    endloop
  endfacet
  facet normal  6.102710e-001  1.765174e-003 -7.921907e-001
    outer loop
      vertex  1.957677e+000  6.000000e+001 -1.300000e+000
      vertex  1.661701e+000  0.000000e+000 -1.661701e+000
      vertex  7.575025e-001  6.000000e+001 -2.224565e+000
    endloop
  endfacet
  facet normal  0.000000e+000  2.090577e-003 -9.999979e-001
    outer loop
      vertex -7.575025e-001  6.000000e+001 -2.224565e+000
      vertex  7.575025e-001  6.000000e+001 -2.224565e+000
      vertex  4.316737e-016  0.000000e+000 -2.350000e+000
    endloop
  endfacet
  facet normal  3.826818e-001 -2.899936e-003 -9.238757e-001
    outer loop
      vertex  1.661701e+000  0.000000e+000 -1.661701e+000
      vertex  4.316737e-016  0.000000e+000 -2.350000e+000
      vertex  7.575025e-001  6.000000e+001 -2.224565e+000
    endloop
  endfacet
  facet normal  9.238772e-001 -2.250486e-003 -3.826824e-001
    outer loop
      vertex  2.350000e+000  0.000000e+000  2.877825e-016
      vertex  1.661701e+000  0.000000e+000 -1.661701e+000
      vertex  1.957677e+000  6.000000e+001 -1.300000e+000
    endloop
  endfacet
  facet normal  8.215447e-001 -6.980353e-003 -5.701013e-001
    outer loop
      vertex  2.350000e+000  0.000000e+000  2.877825e-016
      vertex  1.957677e+000  6.000000e+001 -1.300000e+000
      vertex  1.999128e+000  5.959502e+001 -1.235309e+000
    endloop
  endfacet
  facet normal  9.034017e-001 -3.569052e-003 -4.287803e-001
    outer loop
      vertex  2.350000e+000  0.000000e+000  2.877825e-016
      vertex  1.999128e+000  5.959502e+001 -1.235309e+000
      vertex  2.227680e+000  5.893696e+001 -7.482920e-001
    endloop
  endfacet
  facet normal  9.869015e-001  0.000000e+000 -1.613240e-001
    outer loop
      vertex  2.350000e+000  0.000000e+000  2.877825e-016
      vertex  2.227680e+000  5.893696e+001 -7.482920e-001
      vertex  2.350000e+000  5.870000e+001  7.365148e-016
    endloop
  endfacet
  facet normal -8.395143e-001 -8.658471e-004 -5.433369e-001
    outer loop
      vertex -1.999128e+000  5.959502e+001 -1.235309e+000
      vertex -1.957677e+000  6.000000e+001 -1.300000e+000
      vertex -1.661701e+000  0.000000e+000 -1.661701e+000
    endloop
  endfacet
  facet normal -6.102710e-001  1.765174e-003 -7.921907e-001
    outer loop
      vertex -1.661701e+000  0.000000e+000 -1.661701e+000
      vertex -1.957677e+000  6.000000e+001 -1.300000e+000
      vertex -7.575025e-001  6.000000e+001 -2.224565e+000
    endloop
  endfacet
  facet normal -3.826818e-001 -2.899936e-003 -9.238757e-001
    outer loop
      vertex -1.661701e+000  0.000000e+000 -1.661701e+000
      vertex -7.575025e-001  6.000000e+001 -2.224565e+000
      vertex  4.316737e-016  0.000000e+000 -2.350000e+000
    endloop
  endfacet
  facet normal -9.238796e-001  8.553852e-018 -3.826834e-001
    outer loop
      vertex -2.350000e+000  0.000000e+000 -5.755650e-016
      vertex -2.350000e+000  5.870000e+001  7.365148e-016
      vertex -1.661701e+000  0.000000e+000 -1.661701e+000
    endloop
  endfacet
  facet normal -9.865255e-001 -6.940412e-003 -1.634604e-001
    outer loop
      vertex -1.661701e+000  0.000000e+000 -1.661701e+000
      vertex -2.350000e+000  5.870000e+001  7.365148e-016
      vertex -2.227680e+000  5.893696e+001 -7.482920e-001
    endloop
  endfacet
  facet normal -9.041937e-001 -2.063589e-003 -4.271178e-001
    outer loop
      vertex -1.661701e+000  0.000000e+000 -1.661701e+000
      vertex -2.227680e+000  5.893696e+001 -7.482920e-001
      vertex -1.999128e+000  5.959502e+001 -1.235309e+000
    endloop
  endfacet
  facet normal  0.000000e+000  5.948855e-001 -8.038105e-001
    outer loop
      vertex -1.999128e+000  5.959502e+001  1.235309e+000
      vertex  2.227680e+000  5.893696e+001  7.482920e-001
      vertex -2.227680e+000  5.893696e+001  7.482920e-001
    endloop
  endfacet
  facet normal  0.000000e+000  9.533428e-001 -3.018899e-001
    outer loop
      vertex -2.227680e+000  5.893696e+001  7.482920e-001
      vertex  2.227680e+000  5.893696e+001  7.482920e-001
      vertex  2.350000e+000  5.870000e+001  7.365148e-016
    endloop
  endfacet
  facet normal  0.000000e+000  9.533429e-001 -3.018899e-001
    outer loop
      vertex -2.227680e+000  5.893696e+001  7.482920e-001
      vertex  2.350000e+000  5.870000e+001  7.365148e-016
      vertex -2.350000e+000  5.870000e+001  7.365148e-016
    endloop
  endfacet
  facet normal  0.000000e+000  5.948855e-001 -8.038105e-001
    outer loop
      vertex  2.227680e+000  5.893696e+001  7.482920e-001
      vertex -1.999128e+000  5.959502e+001  1.235309e+000
      vertex  1.999128e+000  5.959502e+001  1.235309e+000
    endloop
  endfacet
  facet normal  0.000000e+000  1.577378e-001 -9.874811e-001
    outer loop
      vertex  1.999128e+000  5.959502e+001  1.235309e+000
      vertex -1.999128e+000  5.959502e+001  1.235309e+000
      vertex -1.957677e+000  6.000000e+001  1.300000e+000
    endloop
  endfacet
  facet normal  0.000000e+000  1.577378e-001 -9.874811e-001
    outer loop
      vertex  1.999128e+000  5.959502e+001  1.235309e+000
      vertex -1.957677e+000  6.000000e+001  1.300000e+000
      vertex  1.957677e+000  6.000000e+001  1.300000e+000
    endloop
  endfacet
  facet normal  -0.000000e+000 -3.826834e-001 -9.238796e-001
    outer loop
      vertex  1.957677e+000  6.000000e+001  1.300000e+000
      vertex -1.957677e+000  6.000000e+001  1.300000e+000
      vertex -1.957677e+000  6.091924e+001  9.192388e-001
    endloop
  endfacet
  facet normal  0.000000e+000 -3.826834e-001 -9.238796e-001
    outer loop
      vertex  1.957677e+000  6.000000e+001  1.300000e+000
      vertex -1.957677e+000  6.091924e+001  9.192388e-001
      vertex  1.957677e+000  6.091924e+001  9.192388e-001
    endloop
  endfacet
  facet normal  -0.000000e+000 -9.238799e-001 -3.826826e-001
    outer loop
      vertex  1.957677e+000  6.091924e+001  9.192388e-001
      vertex -1.957677e+000  6.091924e+001  9.192388e-001
      vertex -1.957677e+000  6.130000e+001  0.000000e+000
    endloop
  endfacet
  facet normal  0.000000e+000 -9.238799e-001 -3.826826e-001
    outer loop
      vertex  1.957677e+000  6.091924e+001  9.192388e-001
      vertex -1.957677e+000  6.130000e+001  0.000000e+000
      vertex  1.957677e+000  6.130000e+001  0.000000e+000
    endloop
  endfacet
  facet normal  0.000000e+000 -3.826834e-001  9.238796e-001
    outer loop
      vertex -1.957677e+000  6.000000e+001 -1.300000e+000
      vertex  1.957677e+000  6.091924e+001 -9.192388e-001
      vertex -1.957677e+000  6.091924e+001 -9.192388e-001
    endloop
  endfacet
  facet normal  0.000000e+000 -9.238799e-001  3.826826e-001
    outer loop
      vertex -1.957677e+000  6.091924e+001 -9.192388e-001
      vertex  1.957677e+000  6.091924e+001 -9.192388e-001
      vertex  1.957677e+000  6.130000e+001  0.000000e+000
    endloop
  endfacet
  facet normal  0.000000e+000 -9.238799e-001  3.826826e-001
    outer loop
      vertex -1.957677e+000  6.091924e+001 -9.192388e-001
      vertex  1.957677e+000  6.130000e+001  0.000000e+000
      vertex -1.957677e+000  6.130000e+001  0.000000e+000
    endloop
  endfacet
  facet normal  0.000000e+000 -3.826834e-001  9.238796e-001
    outer loop
      vertex  1.957677e+000  6.091924e+001 -9.192388e-001
      vertex -1.957677e+000  6.000000e+001 -1.300000e+000
      vertex  1.957677e+000  6.000000e+001 -1.300000e+000
    endloop
  endfacet
  facet normal  0.000000e+000  1.577378e-001  9.874811e-001
    outer loop
      vertex  1.957677e+000  6.000000e+001 -1.300000e+000
      vertex -1.957677e+000  6.000000e+001 -1.300000e+000
      vertex -1.999128e+000  5.959502e+001 -1.235309e+000
    endloop
  endfacet
  facet normal  -0.000000e+000  1.577378e-001  9.874811e-001
    outer loop
      vertex  1.957677e+000  6.000000e+001 -1.300000e+000
      vertex -1.999128e+000  5.959502e+001 -1.235309e+000
      vertex  1.999128e+000  5.959502e+001 -1.235309e+000
    endloop
  endfacet
  facet normal  0.000000e+000  5.948855e-001  8.038105e-001
    outer loop
      vertex  1.999128e+000  5.959502e+001 -1.235309e+000
      vertex -1.999128e+000  5.959502e+001 -1.235309e+000
      vertex -2.227680e+000  5.893696e+001 -7.482920e-001
    endloop
  endfacet
  facet normal  -0.000000e+000  5.948855e-001  8.038105e-001
    outer loop
      vertex  1.999128e+000  5.959502e+001 -1.235309e+000
      vertex -2.227680e+000  5.893696e+001 -7.482920e-001
      vertex  2.227680e+000  5.893696e+001 -7.482920e-001
    endloop
  endfacet
  facet normal  0.000000e+000  9.533428e-001  3.018899e-001
    outer loop
      vertex  2.227680e+000  5.893696e+001 -7.482920e-001
      vertex -2.227680e+000  5.893696e+001 -7.482920e-001
      vertex -2.350000e+000  5.870000e+001  7.365148e-016
    endloop
  endfacet
  facet normal  -0.000000e+000  9.533429e-001  3.018899e-001
    outer loop
      vertex  2.227680e+000  5.893696e+001 -7.482920e-001
      vertex -2.350000e+000  5.870000e+001  7.365148e-016
      vertex  2.350000e+000  5.870000e+001  7.365148e-016
    endloop
  endfacet
  facet normal  0.000000e+000  1.000000e+000  -0.000000e+000
    outer loop
      vertex  3.236068e+000  0.000000e+000 -2.351141e+000
      vertex  1.236068e+000  0.000000e+000 -3.804226e+000
      vertex  4.316737e-016  0.000000e+000 -2.350000e+000
    endloop
  endfacet
  facet normal  -0.000000e+000  1.000000e+000  0.000000e+000
    outer loop
      vertex  3.236068e+000  0.000000e+000 -2.351141e+000
      vertex  4.316737e-016  0.000000e+000 -2.350000e+000
      vertex  1.661701e+000  0.000000e+000 -1.661701e+000
    endloop
  endfacet
  facet normal  -0.000000e+000  1.000000e+000  0.000000e+000
    outer loop
      vertex  3.236068e+000  0.000000e+000 -2.351141e+000
      vertex  1.661701e+000  0.000000e+000 -1.661701e+000
      vertex  2.350000e+000  0.000000e+000  2.877825e-016
    endloop
  endfacet
  facet normal  0.000000e+000  9.999999e-001  0.000000e+000
    outer loop
      vertex  3.236068e+000  0.000000e+000 -2.351141e+000
      vertex  2.350000e+000  0.000000e+000  2.877825e-016
      vertex  4.000000e+000  0.000000e+000  0.000000e+000
    endloop
  endfacet
  facet normal  0.000000e+000  1.000000e+000  0.000000e+000
    outer loop
      vertex  1.236068e+000  0.000000e+000 -3.804226e+000
      vertex -1.236068e+000  0.000000e+000 -3.804226e+000
      vertex  4.316737e-016  0.000000e+000 -2.350000e+000
    endloop
  endfacet
  facet normal  0.000000e+000  1.000000e+000  0.000000e+000
    outer loop
      vertex  4.316737e-016  0.000000e+000 -2.350000e+000
      vertex -1.236068e+000  0.000000e+000 -3.804226e+000
      vertex -3.236068e+000  0.000000e+000 -2.351141e+000
    endloop
  endfacet
  facet normal  0.000000e+000  1.000000e+000  0.000000e+000
    outer loop
      vertex  4.316737e-016  0.000000e+000 -2.350000e+000
      vertex -3.236068e+000  0.000000e+000 -2.351141e+000
      vertex -1.661701e+000  0.000000e+000 -1.661701e+000
    endloop
  endfacet
  facet normal  0.000000e+000  1.000000e+000  0.000000e+000
    outer loop
      vertex -1.236068e+000  0.000000e+000  3.804226e+000
      vertex  1.236068e+000  0.000000e+000  3.804226e+000
      vertex -1.438912e-016  0.000000e+000  2.350000e+000
    endloop
  endfacet
  facet normal  0.000000e+000  1.000000e+000  0.000000e+000
    outer loop
      vertex -1.438912e-016  0.000000e+000  2.350000e+000
      vertex  1.236068e+000  0.000000e+000  3.804226e+000
      vertex  3.236068e+000  0.000000e+000  2.351141e+000
    endloop
  endfacet
  facet normal  0.000000e+000  1.000000e+000  0.000000e+000
    outer loop
      vertex -1.438912e-016  0.000000e+000  2.350000e+000
      vertex  3.236068e+000  0.000000e+000  2.351141e+000
      vertex  1.661701e+000  0.000000e+000  1.661701e+000
    endloop
  endfacet
  facet normal  0.000000e+000  1.000000e+000  0.000000e+000
    outer loop
      vertex  2.350000e+000  0.000000e+000  2.877825e-016
      vertex  1.661701e+000  0.000000e+000  1.661701e+000
      vertex  4.000000e+000  0.000000e+000  0.000000e+000
    endloop
  endfacet
  facet normal  0.000000e+000  1.000000e+000  0.000000e+000
    outer loop
      vertex  4.000000e+000  0.000000e+000  0.000000e+000
      vertex  1.661701e+000  0.000000e+000  1.661701e+000
      vertex  3.236068e+000  0.000000e+000  2.351141e+000
    endloop
  endfacet
  facet normal  0.000000e+000  1.000000e+000  0.000000e+000
    outer loop
      vertex -1.236068e+000  0.000000e+000  3.804226e+000
      vertex -1.438912e-016  0.000000e+000  2.350000e+000
      vertex -3.236068e+000  0.000000e+000  2.351141e+000
    endloop
  endfacet
  facet normal  0.000000e+000  1.000000e+000  0.000000e+000
    outer loop
      vertex -3.236068e+000  0.000000e+000  2.351141e+000
      vertex -1.438912e-016  0.000000e+000  2.350000e+000
      vertex -1.661701e+000  0.000000e+000  1.661701e+000
    endloop
  endfacet
  facet normal  0.000000e+000  1.000000e+000  0.000000e+000
    outer loop
      vertex -3.236068e+000  0.000000e+000  2.351141e+000
      vertex -1.661701e+000  0.000000e+000  1.661701e+000
      vertex -4.000000e+000  0.000000e+000  4.898425e-016
    endloop
  endfacet
  facet normal  -0.000000e+000  1.000000e+000  0.000000e+000
    outer loop
      vertex -4.000000e+000  0.000000e+000  4.898425e-016
      vertex -1.661701e+000  0.000000e+000  1.661701e+000
      vertex -2.350000e+000  0.000000e+000 -5.755650e-016
    endloop
  endfacet
  facet normal  0.000000e+000  9.999999e-001  0.000000e+000
    outer loop
      vertex -4.000000e+000  0.000000e+000  4.898425e-016
      vertex -2.350000e+000  0.000000e+000 -5.755650e-016
      vertex -3.236068e+000  0.000000e+000 -2.351141e+000
    endloop
  endfacet
  facet normal  0.000000e+000  1.000000e+000  0.000000e+000
    outer loop
      vertex -3.236068e+000  0.000000e+000 -2.351141e+000
      vertex -2.350000e+000  0.000000e+000 -5.755650e-016
      vertex -1.661701e+000  0.000000e+000 -1.661701e+000
    endloop
  endfacet
endsolid CATIA STL
