solid CATIA STL
  facet normal -3.653353e-003  4.413328e-001 -8.973360e-001
    outer loop
      vertex  1.229910e+000  2.084934e+000  1.284609e+000
      vertex  1.268909e+000  1.735077e+000  1.112382e+000
      vertex -1.234715e+000  2.011419e+000  1.258487e+000
    endloop
  endfacet
  facet normal  2.771060e-002  6.517705e-001 -7.579098e-001
    outer loop
      vertex -1.234715e+000  2.011419e+000  1.258487e+000
      vertex  1.268909e+000  1.735077e+000  1.112382e+000
      vertex  1.322164e+000  1.524615e+000  9.333398e-001
    endloop
  endfacet
  facet normal -8.975900e-003  5.223718e-001 -8.526706e-001
    outer loop
      vertex -1.234715e+000  2.011419e+000  1.258487e+000
      vertex  1.322164e+000  1.524615e+000  9.333398e-001
      vertex -1.298678e+000  1.603161e+000  1.009049e+000
    endloop
  endfacet
  facet normal  5.533685e-003  7.835287e-001 -6.213309e-001
    outer loop
      vertex -1.298678e+000  1.603161e+000  1.009049e+000
      vertex  1.322164e+000  1.524615e+000  9.333398e-001
      vertex  1.383223e+000  1.370974e+000  7.401354e-001
    endloop
  endfacet
  facet normal  5.536598e-003  7.835424e-001 -6.213137e-001
    outer loop
      vertex -1.298678e+000  1.603161e+000  1.009049e+000
      vertex  1.383223e+000  1.370974e+000  7.401354e-001
      vertex -1.412742e+000  1.311382e+000  6.400689e-001
    endloop
  endfacet
  facet normal -3.745208e-003  9.017039e-001 -4.323379e-001
    outer loop
      vertex -1.412742e+000  1.311382e+000  6.400689e-001
      vertex  1.383223e+000  1.370974e+000  7.401354e-001
      vertex  1.465977e+000  1.215254e+000  4.146417e-001
    endloop
  endfacet
  facet normal  2.263481e-003  9.299594e-001 -3.676554e-001
    outer loop
      vertex -1.412742e+000  1.311382e+000  6.400689e-001
      vertex  1.465977e+000  1.215254e+000  4.146417e-001
      vertex -1.477555e+000  1.194710e+000  3.445553e-001
    endloop
  endfacet
  facet normal -1.996887e-003  9.791468e-001 -2.031439e-001
    outer loop
      vertex -1.477555e+000  1.194710e+000  3.445553e-001
      vertex  1.465977e+000  1.215254e+000  4.146417e-001
      vertex  1.497318e+000  1.156283e+000  1.300957e-001
    endloop
  endfacet
  facet normal  1.488413e-003  9.877037e-001 -1.563308e-001
    outer loop
      vertex -1.477555e+000  1.194710e+000  3.445553e-001
      vertex  1.497318e+000  1.156283e+000  1.300957e-001
      vertex -1.499136e+000  1.152089e+000  7.506494e-002
    endloop
  endfacet
  facet normal -5.120901e-004  9.988351e-001 -4.825079e-002
    outer loop
      vertex -1.499136e+000  1.152089e+000  7.506494e-002
      vertex  1.497318e+000  1.156283e+000  1.300957e-001
      vertex  1.500002e+000  1.150000e+000  1.653219e-016
    endloop
  endfacet
  facet normal  0.000000e+000  9.996132e-001 -2.781244e-002
    outer loop
      vertex -1.499136e+000  1.152089e+000  7.506494e-002
      vertex  1.500002e+000  1.150000e+000  1.653219e-016
      vertex -1.500002e+000  1.150000e+000  1.653219e-016
    endloop
  endfacet
  facet normal  2.604180e-003 -6.475763e-001 -7.619962e-001
    outer loop
      vertex -1.322164e+000  3.475385e+000  9.333398e-001
      vertex  1.298678e+000  3.396839e+000  1.009049e+000
      vertex -1.268909e+000  3.264923e+000  1.112382e+000
    endloop
  endfacet
  facet normal -7.621634e-003 -5.204844e-001 -8.538371e-001
    outer loop
      vertex -1.268909e+000  3.264923e+000  1.112382e+000
      vertex  1.298678e+000  3.396839e+000  1.009049e+000
      vertex  1.234715e+000  2.988581e+000  1.258487e+000
    endloop
  endfacet
  facet normal  3.653349e-003 -4.413327e-001 -8.973362e-001
    outer loop
      vertex -1.268909e+000  3.264923e+000  1.112382e+000
      vertex  1.234715e+000  2.988581e+000  1.258487e+000
      vertex -1.229910e+000  2.915066e+000  1.284609e+000
    endloop
  endfacet
  facet normal -4.930906e-003 -1.839566e-001 -9.829221e-001
    outer loop
      vertex -1.229910e+000  2.915066e+000  1.284609e+000
      vertex  1.234715e+000  2.988581e+000  1.258487e+000
      vertex  1.219950e+000  2.500000e+000  1.350000e+000
    endloop
  endfacet
  facet normal -6.082820e-008 -1.556241e-001 -9.878164e-001
    outer loop
      vertex -1.229910e+000  2.915066e+000  1.284609e+000
      vertex  1.219950e+000  2.500000e+000  1.350000e+000
      vertex -1.219950e+000  2.500000e+000  1.350000e+000
    endloop
  endfacet
  facet normal  6.082820e-008  1.556241e-001 -9.878164e-001
    outer loop
      vertex -1.219950e+000  2.500000e+000  1.350000e+000
      vertex  1.219950e+000  2.500000e+000  1.350000e+000
      vertex  1.229910e+000  2.084934e+000  1.284609e+000
    endloop
  endfacet
  facet normal  4.930906e-003  1.839566e-001 -9.829221e-001
    outer loop
      vertex -1.219950e+000  2.500000e+000  1.350000e+000
      vertex  1.229910e+000  2.084934e+000  1.284609e+000
      vertex -1.234715e+000  2.011419e+000  1.258487e+000
    endloop
  endfacet
  facet normal  3.745246e-003 -9.017039e-001 -4.323379e-001
    outer loop
      vertex -1.465977e+000  3.784746e+000  4.146417e-001
      vertex  1.412742e+000  3.688618e+000  6.400689e-001
      vertex -1.383223e+000  3.629026e+000  7.401354e-001
    endloop
  endfacet
  facet normal -5.536580e-003 -7.835421e-001 -6.213140e-001
    outer loop
      vertex -1.383223e+000  3.629026e+000  7.401354e-001
      vertex  1.412742e+000  3.688618e+000  6.400689e-001
      vertex  1.298678e+000  3.396839e+000  1.009049e+000
    endloop
  endfacet
  facet normal -5.533722e-003 -7.835287e-001 -6.213309e-001
    outer loop
      vertex -1.383223e+000  3.629026e+000  7.401354e-001
      vertex  1.298678e+000  3.396839e+000  1.009049e+000
      vertex -1.322164e+000  3.475385e+000  9.333398e-001
    endloop
  endfacet
  facet normal -2.263444e-003 -9.299594e-001 -3.676554e-001
    outer loop
      vertex  1.412742e+000  3.688618e+000  6.400689e-001
      vertex -1.465977e+000  3.784746e+000  4.146417e-001
      vertex  1.477555e+000  3.805290e+000  3.445553e-001
    endloop
  endfacet
  facet normal  1.370393e-003 -9.736931e-001 -2.278588e-001
    outer loop
      vertex  1.477555e+000  3.805290e+000  3.445553e-001
      vertex -1.465977e+000  3.784746e+000  4.146417e-001
      vertex -1.493443e+000  3.835395e+000  1.980430e-001
    endloop
  endfacet
  facet normal -2.295745e-003 -9.876923e-001 -1.563928e-001
    outer loop
      vertex  1.477555e+000  3.805290e+000  3.445553e-001
      vertex -1.493443e+000  3.835395e+000  1.980430e-001
      vertex  1.499136e+000  3.847911e+000  7.506494e-002
    endloop
  endfacet
  facet normal  1.147280e-003 -9.972882e-001 -7.358602e-002
    outer loop
      vertex  1.499136e+000  3.847911e+000  7.506494e-002
      vertex -1.493443e+000  3.835395e+000  1.980430e-001
      vertex -1.500000e+000  3.850000e+000 -3.306437e-016
    endloop
  endfacet
  facet normal  3.001006e-018 -9.996131e-001 -2.781243e-002
    outer loop
      vertex  1.499136e+000  3.847911e+000  7.506494e-002
      vertex -1.500000e+000  3.850000e+000 -3.306437e-016
      vertex  1.500000e+000  3.850000e+000 -6.938894e-018
    endloop
  endfacet
  facet normal  8.129939e-003 -6.296244e-001  7.768572e-001
    outer loop
      vertex -1.251479e+000  3.154287e+000 -1.180851e+000
      vertex  1.285379e+000  3.343841e+000 -1.053770e+000
      vertex -1.338611e+000  3.522389e+000 -8.816009e-001
    endloop
  endfacet
  facet normal -4.811055e-003 -7.298617e-001  6.835779e-001
    outer loop
      vertex -1.338611e+000  3.522389e+000 -8.816009e-001
      vertex  1.285379e+000  3.343841e+000 -1.053770e+000
      vertex  1.373690e+000  3.608411e+000 -7.706658e-001
    endloop
  endfacet
  facet normal  2.067667e-003 -8.141018e-001  5.807185e-001
    outer loop
      vertex -1.338611e+000  3.522389e+000 -8.816009e-001
      vertex  1.373690e+000  3.608411e+000 -7.706658e-001
      vertex -1.401707e+000  3.667110e+000 -6.784940e-001
    endloop
  endfacet
  facet normal -3.140967e-003 -8.836364e-001  4.681635e-001
    outer loop
      vertex -1.401707e+000  3.667110e+000 -6.784940e-001
      vertex  1.373690e+000  3.608411e+000 -7.706658e-001
      vertex  1.452389e+000  3.760896e+000 -4.823289e-001
    endloop
  endfacet
  facet normal  9.543531e-005 -9.027313e-001  4.302048e-001
    outer loop
      vertex -1.401707e+000  3.667110e+000 -6.784940e-001
      vertex  1.452389e+000  3.760896e+000 -4.823289e-001
      vertex -1.453085e+000  3.762122e+000 -4.791119e-001
    endloop
  endfacet
  facet normal -1.155588e-004 -9.647225e-001  2.632689e-001
    outer loop
      vertex -1.453085e+000  3.762122e+000 -4.791119e-001
      vertex  1.452389e+000  3.760896e+000 -4.823289e-001
      vertex  1.491325e+000  3.831122e+000 -2.249750e-001
    endloop
  endfacet
  facet normal  1.499814e-003 -9.693191e-001  2.458013e-001
    outer loop
      vertex -1.453085e+000  3.762122e+000 -4.791119e-001
      vertex  1.491325e+000  3.831122e+000 -2.249750e-001
      vertex -1.494679e+000  3.837991e+000 -1.796697e-001
    endloop
  endfacet
  facet normal -1.022853e-003 -9.964942e-001  8.365569e-002
    outer loop
      vertex -1.494679e+000  3.837991e+000 -1.796697e-001
      vertex  1.491325e+000  3.831122e+000 -2.249750e-001
      vertex  1.500000e+000  3.850000e+000 -6.938894e-018
    endloop
  endfacet
  facet normal -7.196240e-018 -9.977736e-001  6.669261e-002
    outer loop
      vertex -1.494679e+000  3.837991e+000 -1.796697e-001
      vertex  1.500000e+000  3.850000e+000 -6.938894e-018
      vertex -1.500000e+000  3.850000e+000 -3.306437e-016
    endloop
  endfacet
  facet normal -2.067667e-003  8.141018e-001  5.807185e-001
    outer loop
      vertex  1.401707e+000  1.332890e+000 -6.784940e-001
      vertex  1.338611e+000  1.477611e+000 -8.816009e-001
      vertex -1.373690e+000  1.391589e+000 -7.706658e-001
    endloop
  endfacet
  facet normal  1.162201e-002  6.324168e-001  7.745411e-001
    outer loop
      vertex -1.373690e+000  1.391589e+000 -7.706658e-001
      vertex  1.338611e+000  1.477611e+000 -8.816009e-001
      vertex  1.251479e+000  1.845713e+000 -1.180851e+000
    endloop
  endfacet
  facet normal -2.079940e-002  7.336897e-001  6.791663e-001
    outer loop
      vertex -1.373690e+000  1.391589e+000 -7.706658e-001
      vertex  1.251479e+000  1.845713e+000 -1.180851e+000
      vertex -1.285379e+000  1.656159e+000 -1.053770e+000
    endloop
  endfacet
  facet normal  2.358394e-002  3.194596e-001  9.473064e-001
    outer loop
      vertex -1.285379e+000  1.656159e+000 -1.053770e+000
      vertex  1.251479e+000  1.845713e+000 -1.180851e+000
      vertex  1.221758e+000  2.309387e+000 -1.336475e+000
    endloop
  endfacet
  facet normal -1.596026e-002  4.480952e-001  8.938435e-001
    outer loop
      vertex -1.285379e+000  1.656159e+000 -1.053770e+000
      vertex  1.221758e+000  2.309387e+000 -1.336475e+000
      vertex -1.226039e+000  2.164899e+000 -1.307749e+000
    endloop
  endfacet
  facet normal  1.494428e-002 -5.467688e-002  9.983923e-001
    outer loop
      vertex -1.226039e+000  2.164899e+000 -1.307749e+000
      vertex  1.221758e+000  2.309387e+000 -1.336475e+000
      vertex  1.226039e+000  2.835101e+000 -1.307749e+000
    endloop
  endfacet
  facet normal -1.494428e-002  5.467688e-002  9.983923e-001
    outer loop
      vertex -1.226039e+000  2.164899e+000 -1.307749e+000
      vertex  1.226039e+000  2.835101e+000 -1.307749e+000
      vertex -1.221758e+000  2.690613e+000 -1.336475e+000
    endloop
  endfacet
  facet normal  1.596026e-002 -4.480952e-001  8.938434e-001
    outer loop
      vertex -1.221758e+000  2.690613e+000 -1.336475e+000
      vertex  1.226039e+000  2.835101e+000 -1.307749e+000
      vertex  1.285379e+000  3.343841e+000 -1.053770e+000
    endloop
  endfacet
  facet normal -2.358395e-002 -3.194596e-001  9.473064e-001
    outer loop
      vertex -1.221758e+000  2.690613e+000 -1.336475e+000
      vertex  1.285379e+000  3.343841e+000 -1.053770e+000
      vertex -1.251479e+000  3.154287e+000 -1.180851e+000
    endloop
  endfacet
  facet normal  3.140967e-003  8.836364e-001  4.681635e-001
    outer loop
      vertex -1.452389e+000  1.239104e+000 -4.823289e-001
      vertex  1.401707e+000  1.332890e+000 -6.784940e-001
      vertex -1.373690e+000  1.391589e+000 -7.706658e-001
    endloop
  endfacet
  facet normal -9.547179e-005  9.027315e-001  4.302044e-001
    outer loop
      vertex  1.401707e+000  1.332890e+000 -6.784940e-001
      vertex -1.452389e+000  1.239104e+000 -4.823289e-001
      vertex  1.453085e+000  1.237878e+000 -4.791119e-001
    endloop
  endfacet
  facet normal  1.155197e-004  9.647226e-001  2.632684e-001
    outer loop
      vertex  1.453085e+000  1.237878e+000 -4.791119e-001
      vertex -1.452389e+000  1.239104e+000 -4.823289e-001
      vertex -1.491325e+000  1.168878e+000 -2.249750e-001
    endloop
  endfacet
  facet normal -1.499814e-003  9.693191e-001  2.458013e-001
    outer loop
      vertex  1.453085e+000  1.237878e+000 -4.791119e-001
      vertex -1.491325e+000  1.168878e+000 -2.249750e-001
      vertex  1.494679e+000  1.162009e+000 -1.796697e-001
    endloop
  endfacet
  facet normal  1.022845e-003  9.964941e-001  8.365622e-002
    outer loop
      vertex  1.494679e+000  1.162009e+000 -1.796697e-001
      vertex -1.491325e+000  1.168878e+000 -2.249750e-001
      vertex -1.500002e+000  1.150000e+000  1.653219e-016
    endloop
  endfacet
  facet normal  -0.000000e+000  9.977735e-001  6.669328e-002
    outer loop
      vertex  1.494679e+000  1.162009e+000 -1.796697e-001
      vertex -1.500002e+000  1.150000e+000  1.653219e-016
      vertex  1.500002e+000  1.150000e+000  1.653219e-016
    endloop
  endfacet
  facet normal -9.900981e-001 -4.727014e-002 -1.321790e-001
    outer loop
      vertex -2.500000e+000  1.499977e-001  1.119841e-006
      vertex -2.423178e+000  2.605830e-001 -6.149850e-001
      vertex -2.398874e+000  0.000000e+000 -7.038488e-001
    endloop
  endfacet
  facet normal -9.409360e-001  2.732675e-002 -3.374799e-001
    outer loop
      vertex -2.398874e+000  0.000000e+000 -7.038488e-001
      vertex -2.423178e+000  2.605830e-001 -6.149850e-001
      vertex -2.228250e+000  5.685217e-001 -1.133535e+000
    endloop
  endfacet
  facet normal -7.571956e-001 -2.337380e-001 -6.099355e-001
    outer loop
      vertex -1.198564e+000  0.000000e+000 -2.193956e+000
      vertex -2.398874e+000  0.000000e+000 -7.038488e-001
      vertex -2.228250e+000  5.685217e-001 -1.133535e+000
    endloop
  endfacet
  facet normal -7.483221e-001 -1.501989e-001 -6.461070e-001
    outer loop
      vertex -1.198564e+000  0.000000e+000 -2.193956e+000
      vertex -2.228250e+000  5.685217e-001 -1.133535e+000
      vertex -1.996249e+000  1.010516e+000 -1.504989e+000
    endloop
  endfacet
  facet normal -6.927807e-001 -5.671539e-002 -7.189146e-001
    outer loop
      vertex -1.198564e+000  0.000000e+000 -2.193956e+000
      vertex -1.996249e+000  1.010516e+000 -1.504989e+000
      vertex -1.809395e+000  1.518624e+000 -1.725135e+000
    endloop
  endfacet
  facet normal -6.383955e-001 -1.923356e-002 -7.694682e-001
    outer loop
      vertex -1.198564e+000  0.000000e+000 -2.193956e+000
      vertex -1.809395e+000  1.518624e+000 -1.725135e+000
      vertex -1.709582e+000  2.164793e+000 -1.824097e+000
    endloop
  endfacet
  facet normal -5.912755e-001 -1.789035e-003 -8.064677e-001
    outer loop
      vertex -1.198564e+000  0.000000e+000 -2.193956e+000
      vertex -1.709582e+000  2.164793e+000 -1.824097e+000
      vertex -1.703820e+000  2.687103e+000 -1.829481e+000
    endloop
  endfacet
  facet normal -5.850357e-001  0.000000e+000 -8.110075e-001
    outer loop
      vertex -1.198564e+000  0.000000e+000 -2.193956e+000
      vertex -1.703820e+000  2.687103e+000 -1.829481e+000
      vertex -1.198564e+000  2.700000e+001 -2.193956e+000
    endloop
  endfacet
  facet normal -8.657324e-001 -5.811930e-004  5.005068e-001
    outer loop
      vertex -2.193956e+000  2.700000e+001  1.198564e+000
      vertex -2.283653e+000  4.523468e+000  1.017315e+000
      vertex -2.019554e+000  4.039571e+000  1.473568e+000
    endloop
  endfacet
  facet normal -7.594843e-001  2.022632e-003  6.505225e-001
    outer loop
      vertex -2.193956e+000  2.700000e+001  1.198564e+000
      vertex -2.019554e+000  4.039571e+000  1.473568e+000
      vertex -1.779400e+000  3.361111e+000  1.756057e+000
    endloop
  endfacet
  facet normal -6.799947e-001  5.366424e-003  7.331974e-001
    outer loop
      vertex -2.193956e+000  2.700000e+001  1.198564e+000
      vertex -1.779400e+000  3.361111e+000  1.756057e+000
      vertex -1.715125e+000  2.921433e+000  1.818886e+000
    endloop
  endfacet
  facet normal -4.935139e-001  1.259009e-002  8.696468e-001
    outer loop
      vertex -2.193956e+000  2.700000e+001  1.198564e+000
      vertex -1.715125e+000  2.921433e+000  1.818886e+000
      vertex -7.038488e-001  2.499999e+000  2.398874e+000
    endloop
  endfacet
  facet normal -6.273123e-001  0.000000e+000  7.787677e-001
    outer loop
      vertex -2.193956e+000  2.700000e+001  1.198564e+000
      vertex -7.038488e-001  2.499999e+000  2.398874e+000
      vertex -7.038488e-001  2.700000e+001  2.398874e+000
    endloop
  endfacet
  facet normal -9.632031e-001 -2.678639e-004 -2.687744e-001
    outer loop
      vertex -2.398874e+000  2.700000e+001 -7.038488e-001
      vertex -2.354691e+000  4.636020e+000 -8.398987e-001
      vertex -2.449252e+000  4.777566e+000 -5.011624e-001
    endloop
  endfacet
  facet normal -9.948919e-001  1.334795e-003 -1.009360e-001
    outer loop
      vertex -2.398874e+000  2.700000e+001 -7.038488e-001
      vertex -2.449252e+000  4.777566e+000 -5.011624e-001
      vertex -2.500000e+000  4.850000e+000 -9.184548e-016
    endloop
  endfacet
  facet normal -9.937273e-001  8.081160e-003  1.115382e-001
    outer loop
      vertex -2.398874e+000  2.700000e+001 -7.038488e-001
      vertex -2.500000e+000  4.850000e+000 -9.184548e-016
      vertex -2.439199e+000  4.762935e+000  5.480047e-001
    endloop
  endfacet
  facet normal -9.459514e-001  1.993805e-002  3.236948e-001
    outer loop
      vertex -2.398874e+000  2.700000e+001 -7.038488e-001
      vertex -2.439199e+000  4.762935e+000  5.480047e-001
      vertex -2.283653e+000  4.523468e+000  1.017315e+000
    endloop
  endfacet
  facet normal -9.942440e-001  3.104106e-003  1.070946e-001
    outer loop
      vertex -2.398874e+000  2.700000e+001 -7.038488e-001
      vertex -2.283653e+000  4.523468e+000  1.017315e+000
      vertex -2.193956e+000  2.700000e+001  1.198564e+000
    endloop
  endfacet
  facet normal -6.730877e-001  2.900957e-003 -7.395571e-001
    outer loop
      vertex -1.198564e+000  2.700000e+001 -2.193956e+000
      vertex -1.703820e+000  2.687103e+000 -1.829481e+000
      vertex -1.749279e+000  3.208003e+000 -1.786063e+000
    endloop
  endfacet
  facet normal -7.256892e-001  5.002357e-003 -6.880044e-001
    outer loop
      vertex -1.198564e+000  2.700000e+001 -2.193956e+000
      vertex -1.749279e+000  3.208003e+000 -1.786063e+000
      vertex -1.916074e+000  3.801019e+000 -1.605821e+000
    endloop
  endfacet
  facet normal -7.904900e-001  8.923000e-003 -6.124099e-001
    outer loop
      vertex -1.198564e+000  2.700000e+001 -2.193956e+000
      vertex -1.916074e+000  3.801019e+000 -1.605821e+000
      vertex -2.067818e+000  4.138325e+000 -1.405038e+000
    endloop
  endfacet
  facet normal -8.544987e-001  1.457158e-002 -5.192492e-001
    outer loop
      vertex -1.198564e+000  2.700000e+001 -2.193956e+000
      vertex -2.067818e+000  4.138325e+000 -1.405038e+000
      vertex -2.230904e+000  4.435977e+000 -1.128303e+000
    endloop
  endfacet
  facet normal -9.129407e-001  2.252450e-002 -4.074702e-001
    outer loop
      vertex -1.198564e+000  2.700000e+001 -2.193956e+000
      vertex -2.230904e+000  4.435977e+000 -1.128303e+000
      vertex -2.354691e+000  4.636020e+000 -8.398987e-001
    endloop
  endfacet
  facet normal -7.787657e-001  2.277650e-003 -6.273108e-001
    outer loop
      vertex -1.198564e+000  2.700000e+001 -2.193956e+000
      vertex -2.354691e+000  4.636020e+000 -8.398987e-001
      vertex -2.398874e+000  2.700000e+001 -7.038488e-001
    endloop
  endfacet
  facet normal  1.070951e-001  0.000000e+000  9.942488e-001
    outer loop
      vertex  1.198564e+000  2.700000e+001  2.193956e+000
      vertex -7.038488e-001  2.700000e+001  2.398874e+000
      vertex  1.198564e+000  0.000000e+000  2.193956e+000
    endloop
  endfacet
  facet normal  1.070951e-001  0.000000e+000  9.942488e-001
    outer loop
      vertex  1.198564e+000  0.000000e+000  2.193956e+000
      vertex -7.038488e-001  2.700000e+001  2.398874e+000
      vertex -7.038488e-001  2.499999e+000  2.398874e+000
    endloop
  endfacet
  facet normal  1.070951e-001  0.000000e+000  9.942488e-001
    outer loop
      vertex  1.198564e+000  0.000000e+000  2.193956e+000
      vertex -7.038488e-001  2.499999e+000  2.398874e+000
      vertex -7.038488e-001  0.000000e+000  2.398874e+000
    endloop
  endfacet
  facet normal -4.975066e-001  0.000000e+000  8.674603e-001
    outer loop
      vertex -7.038488e-001  2.499999e+000  2.398874e+000
      vertex -1.715125e+000  2.921433e+000  1.818886e+000
      vertex -7.038488e-001  0.000000e+000  2.398874e+000
    endloop
  endfacet
  facet normal -5.028275e-001 -2.452698e-003  8.643834e-001
    outer loop
      vertex -7.038488e-001  0.000000e+000  2.398874e+000
      vertex -1.715125e+000  2.921433e+000  1.818886e+000
      vertex -1.722322e+000  1.995668e+000  1.812072e+000
    endloop
  endfacet
  facet normal -5.720604e-001 -5.124455e-002  8.186091e-001
    outer loop
      vertex -7.038488e-001  0.000000e+000  2.398874e+000
      vertex -1.722322e+000  1.995668e+000  1.812072e+000
      vertex -1.834628e+000  1.431525e+000  1.698276e+000
    endloop
  endfacet
  facet normal -6.232482e-001 -1.136463e-001  7.737223e-001
    outer loop
      vertex -7.038488e-001  0.000000e+000  2.398874e+000
      vertex -1.834628e+000  1.431525e+000  1.698276e+000
      vertex -2.193956e+000  0.000000e+000  1.198564e+000
    endloop
  endfacet
  facet normal -7.485908e-001 -4.305605e-002  6.616328e-001
    outer loop
      vertex -2.193956e+000  0.000000e+000  1.198564e+000
      vertex -1.834628e+000  1.431525e+000  1.698276e+000
      vertex -2.098628e+000  8.016362e-001  1.358588e+000
    endloop
  endfacet
  facet normal -8.992383e-001  1.969734e-002  4.370153e-001
    outer loop
      vertex -2.193956e+000  0.000000e+000  1.198564e+000
      vertex -2.098628e+000  8.016362e-001  1.358588e+000
      vertex -2.339073e+000  3.882436e-001  8.824615e-001
    endloop
  endfacet
  facet normal -1.807115e-001 -9.669072e-001  1.800941e-001
    outer loop
      vertex -2.500000e+000  1.499977e-001  1.119841e-006
      vertex -2.398874e+000  0.000000e+000 -7.038488e-001
      vertex -2.434842e+000  2.434370e-001  5.670482e-001
    endloop
  endfacet
  facet normal -8.122218e-001 -5.767509e-001  8.748817e-002
    outer loop
      vertex -2.434842e+000  2.434370e-001  5.670482e-001
      vertex -2.398874e+000  0.000000e+000 -7.038488e-001
      vertex -2.193956e+000  0.000000e+000  1.198564e+000
    endloop
  endfacet
  facet normal -9.414905e-001 -8.673722e-002  3.256872e-001
    outer loop
      vertex -2.434842e+000  2.434370e-001  5.670482e-001
      vertex -2.193956e+000  0.000000e+000  1.198564e+000
      vertex -2.339073e+000  3.882436e-001  8.824615e-001
    endloop
  endfacet
  facet normal -7.066515e-001  7.066483e-001  3.594067e-002
    outer loop
      vertex -1.500002e+000  1.150000e+000  1.653219e-016
      vertex -1.801942e+000  8.661129e-001 -3.549783e-001
      vertex -2.500000e+000  1.499977e-001  1.119841e-006
    endloop
  endfacet
  facet normal -7.416962e-001 -6.272547e-001  2.375673e-001
    outer loop
      vertex -1.712358e+000  3.986740e+000 -6.955088e-001
      vertex -2.230904e+000  4.435977e+000 -1.128303e+000
      vertex -2.067818e+000  4.138325e+000 -1.405038e+000
    endloop
  endfacet
  facet normal -7.057472e-001 -7.079709e-001  2.642160e-002
    outer loop
      vertex -1.500000e+000  3.850000e+000 -3.306437e-016
      vertex -1.812870e+000  4.151183e+000 -2.868340e-001
      vertex -1.494679e+000  3.837991e+000 -1.796697e-001
    endloop
  endfacet
  facet normal -7.068135e-001 -7.068135e-001  2.879997e-002
    outer loop
      vertex -1.500000e+000  3.850000e+000 -3.306437e-016
      vertex -2.500000e+000  4.850000e+000 -9.184548e-016
      vertex -1.812870e+000  4.151183e+000 -2.868340e-001
    endloop
  endfacet
  facet normal -7.063848e-001 -7.071629e-001  3.067816e-002
    outer loop
      vertex -1.812870e+000  4.151183e+000 -2.868340e-001
      vertex -2.500000e+000  4.850000e+000 -9.184548e-016
      vertex -2.449252e+000  4.777566e+000 -5.011624e-001
    endloop
  endfacet
  facet normal -7.139545e-001 -6.942787e-001  9.080873e-002
    outer loop
      vertex -1.812870e+000  4.151183e+000 -2.868340e-001
      vertex -2.449252e+000  4.777566e+000 -5.011624e-001
      vertex -2.354691e+000  4.636020e+000 -8.398987e-001
    endloop
  endfacet
  facet normal -7.367458e-001 -6.610303e-001  1.422835e-001
    outer loop
      vertex -2.354691e+000  4.636020e+000 -8.398987e-001
      vertex -2.230904e+000  4.435977e+000 -1.128303e+000
      vertex -1.812870e+000  4.151183e+000 -2.868340e-001
    endloop
  endfacet
  facet normal -7.018702e-001 -7.036780e-001  1.105235e-001
    outer loop
      vertex -1.812870e+000  4.151183e+000 -2.868340e-001
      vertex -2.230904e+000  4.435977e+000 -1.128303e+000
      vertex -1.712358e+000  3.986740e+000 -6.955088e-001
    endloop
  endfacet
  facet normal -7.150994e-001 -6.914871e-001  1.023645e-001
    outer loop
      vertex -1.812870e+000  4.151183e+000 -2.868340e-001
      vertex -1.712358e+000  3.986740e+000 -6.955088e-001
      vertex -1.494679e+000  3.837991e+000 -1.796697e-001
    endloop
  endfacet
  facet normal -6.921726e-001 -7.166578e-001  8.543135e-002
    outer loop
      vertex -1.494679e+000  3.837991e+000 -1.796697e-001
      vertex -1.712358e+000  3.986740e+000 -6.955088e-001
      vertex -1.453085e+000  3.762122e+000 -4.791119e-001
    endloop
  endfacet
  facet normal -7.389328e-001 -6.313548e-001  2.353069e-001
    outer loop
      vertex -1.712358e+000  3.986740e+000 -6.955088e-001
      vertex -2.067818e+000  4.138325e+000 -1.405038e+000
      vertex -1.531099e+000  3.615266e+000 -1.123008e+000
    endloop
  endfacet
  facet normal -7.404629e-001 -5.569997e-001  3.761196e-001
    outer loop
      vertex -1.531099e+000  3.615266e+000 -1.123008e+000
      vertex -2.067818e+000  4.138325e+000 -1.405038e+000
      vertex -1.916074e+000  3.801019e+000 -1.605821e+000
    endloop
  endfacet
  facet normal -7.729284e-001 -4.564967e-001  4.406728e-001
    outer loop
      vertex -1.531099e+000  3.615266e+000 -1.123008e+000
      vertex -1.916074e+000  3.801019e+000 -1.605821e+000
      vertex -1.417412e+000  3.172192e+000 -1.382588e+000
    endloop
  endfacet
  facet normal -7.311301e-001 -3.782199e-001  5.678015e-001
    outer loop
      vertex -1.417412e+000  3.172192e+000 -1.382588e+000
      vertex -1.916074e+000  3.801019e+000 -1.605821e+000
      vertex -1.749279e+000  3.208003e+000 -1.786063e+000
    endloop
  endfacet
  facet normal -7.647601e-001 -2.049844e-001  6.108383e-001
    outer loop
      vertex -1.417412e+000  3.172192e+000 -1.382588e+000
      vertex -1.749279e+000  3.208003e+000 -1.786063e+000
      vertex -1.382445e+000  2.689443e+000 -1.500811e+000
    endloop
  endfacet
  facet normal -7.094217e-001 -1.198012e-001  6.945276e-001
    outer loop
      vertex -1.382445e+000  2.689443e+000 -1.500811e+000
      vertex -1.749279e+000  3.208003e+000 -1.786063e+000
      vertex -1.703820e+000  2.687103e+000 -1.829481e+000
    endloop
  endfacet
  facet normal -7.146969e-001  3.439856e-002  6.985879e-001
    outer loop
      vertex -1.382445e+000  2.689443e+000 -1.500811e+000
      vertex -1.703820e+000  2.687103e+000 -1.829481e+000
      vertex -1.387220e+000  2.164864e+000 -1.479865e+000
    endloop
  endfacet
  facet normal -7.298320e-001  1.509564e-002  6.834599e-001
    outer loop
      vertex -1.387220e+000  2.164864e+000 -1.479865e+000
      vertex -1.703820e+000  2.687103e+000 -1.829481e+000
      vertex -1.709582e+000  2.164793e+000 -1.824097e+000
    endloop
  endfacet
  facet normal -6.899915e-001  3.263190e-001  6.460864e-001
    outer loop
      vertex -1.387220e+000  2.164864e+000 -1.479865e+000
      vertex -1.709582e+000  2.164793e+000 -1.824097e+000
      vertex -1.460051e+000  1.610314e+000 -1.277559e+000
    endloop
  endfacet
  facet normal -7.911131e-001  2.101776e-001  5.744264e-001
    outer loop
      vertex -1.460051e+000  1.610314e+000 -1.277559e+000
      vertex -1.709582e+000  2.164793e+000 -1.824097e+000
      vertex -1.809395e+000  1.518624e+000 -1.725135e+000
    endloop
  endfacet
  facet normal -6.998845e-001  5.708138e-001  4.293406e-001
    outer loop
      vertex -1.460051e+000  1.610314e+000 -1.277559e+000
      vertex -1.809395e+000  1.518624e+000 -1.725135e+000
      vertex -1.581188e+000  1.264600e+000 -1.015398e+000
    endloop
  endfacet
  facet normal -7.790215e-001  4.675041e-001  4.178102e-001
    outer loop
      vertex -1.581188e+000  1.264600e+000 -1.015398e+000
      vertex -1.809395e+000  1.518624e+000 -1.725135e+000
      vertex -1.996249e+000  1.010516e+000 -1.504989e+000
    endloop
  endfacet
  facet normal -6.987031e-001  6.728178e-001  2.431669e-001
    outer loop
      vertex -1.581188e+000  1.264600e+000 -1.015398e+000
      vertex -1.996249e+000  1.010516e+000 -1.504989e+000
      vertex -1.711009e+000  1.015577e+000 -6.993976e-001
    endloop
  endfacet
  facet normal -7.472025e-001  6.113187e-001  2.607256e-001
    outer loop
      vertex -1.711009e+000  1.015577e+000 -6.993976e-001
      vertex -1.996249e+000  1.010516e+000 -1.504989e+000
      vertex -2.228250e+000  5.685217e-001 -1.133535e+000
    endloop
  endfacet
  facet normal -7.041586e-001  7.001796e-001  1.179373e-001
    outer loop
      vertex -1.711009e+000  1.015577e+000 -6.993976e-001
      vertex -2.228250e+000  5.685217e-001 -1.133535e+000
      vertex -1.801942e+000  8.661129e-001 -3.549783e-001
    endloop
  endfacet
  facet normal -7.198756e-001  6.810761e-001  1.338454e-001
    outer loop
      vertex -1.801942e+000  8.661129e-001 -3.549783e-001
      vertex -2.228250e+000  5.685217e-001 -1.133535e+000
      vertex -2.423178e+000  2.605830e-001 -6.149850e-001
    endloop
  endfacet
  facet normal -7.057933e-001  7.073419e-001  3.902760e-002
    outer loop
      vertex -1.801942e+000  8.661129e-001 -3.549783e-001
      vertex -2.423178e+000  2.605830e-001 -6.149850e-001
      vertex -2.500000e+000  1.499977e-001  1.119841e-006
    endloop
  endfacet
  facet normal -7.135334e-001 -6.858779e-001  1.429738e-001
    outer loop
      vertex -1.453085e+000  3.762122e+000 -4.791119e-001
      vertex -1.712358e+000  3.986740e+000 -6.955088e-001
      vertex -1.401707e+000  3.667110e+000 -6.784940e-001
    endloop
  endfacet
  facet normal -6.958837e-001 -6.614454e-001  2.797069e-001
    outer loop
      vertex -1.401707e+000  3.667110e+000 -6.784940e-001
      vertex -1.712358e+000  3.986740e+000 -6.955088e-001
      vertex -1.531099e+000  3.615266e+000 -1.123008e+000
    endloop
  endfacet
  facet normal -6.762241e-001 -6.828467e-001  2.764803e-001
    outer loop
      vertex -1.401707e+000  3.667110e+000 -6.784940e-001
      vertex -1.531099e+000  3.615266e+000 -1.123008e+000
      vertex -1.338611e+000  3.522389e+000 -8.816009e-001
    endloop
  endfacet
  facet normal -7.572595e-001 -5.104598e-001  4.074172e-001
    outer loop
      vertex -1.338611e+000  3.522389e+000 -8.816009e-001
      vertex -1.531099e+000  3.615266e+000 -1.123008e+000
      vertex -1.251479e+000  3.154287e+000 -1.180851e+000
    endloop
  endfacet
  facet normal -6.949317e-001 -4.878212e-001  5.282996e-001
    outer loop
      vertex -1.251479e+000  3.154287e+000 -1.180851e+000
      vertex -1.531099e+000  3.615266e+000 -1.123008e+000
      vertex -1.417412e+000  3.172192e+000 -1.382588e+000
    endloop
  endfacet
  facet normal -7.584718e-001 -2.505420e-001  6.016221e-001
    outer loop
      vertex -1.251479e+000  3.154287e+000 -1.180851e+000
      vertex -1.417412e+000  3.172192e+000 -1.382588e+000
      vertex -1.221758e+000  2.690613e+000 -1.336475e+000
    endloop
  endfacet
  facet normal -6.970596e-001 -2.177863e-001  6.831377e-001
    outer loop
      vertex -1.221758e+000  2.690613e+000 -1.336475e+000
      vertex -1.417412e+000  3.172192e+000 -1.382588e+000
      vertex -1.382445e+000  2.689443e+000 -1.500811e+000
    endloop
  endfacet
  facet normal -7.144624e-001  4.397496e-002  6.982906e-001
    outer loop
      vertex -1.221758e+000  2.690613e+000 -1.336475e+000
      vertex -1.382445e+000  2.689443e+000 -1.500811e+000
      vertex -1.226039e+000  2.164899e+000 -1.307749e+000
    endloop
  endfacet
  facet normal -7.294971e-001  3.391657e-002  6.831424e-001
    outer loop
      vertex -1.226039e+000  2.164899e+000 -1.307749e+000
      vertex -1.382445e+000  2.689443e+000 -1.500811e+000
      vertex -1.387220e+000  2.164864e+000 -1.479865e+000
    endloop
  endfacet
  facet normal -6.714725e-001  3.922021e-001  6.287304e-001
    outer loop
      vertex -1.226039e+000  2.164899e+000 -1.307749e+000
      vertex -1.387220e+000  2.164864e+000 -1.479865e+000
      vertex -1.285379e+000  1.656159e+000 -1.053770e+000
    endloop
  endfacet
  facet normal -7.804924e-001  3.021635e-001  5.472922e-001
    outer loop
      vertex -1.285379e+000  1.656159e+000 -1.053770e+000
      vertex -1.387220e+000  2.164864e+000 -1.479865e+000
      vertex -1.460051e+000  1.610314e+000 -1.277559e+000
    endloop
  endfacet
  facet normal -6.651160e-001  6.377240e-001  3.884957e-001
    outer loop
      vertex -1.285379e+000  1.656159e+000 -1.053770e+000
      vertex -1.460051e+000  1.610314e+000 -1.277559e+000
      vertex -1.373690e+000  1.391589e+000 -7.706658e-001
    endloop
  endfacet
  facet normal -7.588391e-001  5.409364e-001  3.626996e-001
    outer loop
      vertex -1.373690e+000  1.391589e+000 -7.706658e-001
      vertex -1.460051e+000  1.610314e+000 -1.277559e+000
      vertex -1.581188e+000  1.264600e+000 -1.015398e+000
    endloop
  endfacet
  facet normal -6.696427e-001  7.163374e-001  1.960594e-001
    outer loop
      vertex -1.373690e+000  1.391589e+000 -7.706658e-001
      vertex -1.581188e+000  1.264600e+000 -1.015398e+000
      vertex -1.452389e+000  1.239104e+000 -4.823289e-001
    endloop
  endfacet
  facet normal -7.337423e-001  6.467360e-001  2.082182e-001
    outer loop
      vertex -1.452389e+000  1.239104e+000 -4.823289e-001
      vertex -1.581188e+000  1.264600e+000 -1.015398e+000
      vertex -1.711009e+000  1.015577e+000 -6.993976e-001
    endloop
  endfacet
  facet normal -6.934775e-001  7.148173e-001  9.013875e-002
    outer loop
      vertex -1.452389e+000  1.239104e+000 -4.823289e-001
      vertex -1.711009e+000  1.015577e+000 -6.993976e-001
      vertex -1.491325e+000  1.168878e+000 -2.249750e-001
    endloop
  endfacet
  facet normal -7.169223e-001  6.885001e-001  1.094990e-001
    outer loop
      vertex -1.491325e+000  1.168878e+000 -2.249750e-001
      vertex -1.711009e+000  1.015577e+000 -6.993976e-001
      vertex -1.801942e+000  8.661129e-001 -3.549783e-001
    endloop
  endfacet
  facet normal -7.045344e-001  7.089338e-001  3.231206e-002
    outer loop
      vertex -1.491325e+000  1.168878e+000 -2.249750e-001
      vertex -1.801942e+000  8.661129e-001 -3.549783e-001
      vertex -1.500002e+000  1.150000e+000  1.653219e-016
    endloop
  endfacet
  facet normal -7.067515e-001 -7.067515e-001 -3.169615e-002
    outer loop
      vertex -1.500000e+000  3.850000e+000 -3.306437e-016
      vertex -1.808700e+000  4.144587e+000  3.146864e-001
      vertex -2.500000e+000  4.850000e+000 -9.184548e-016
    endloop
  endfacet
  facet normal -7.044913e-001  7.088068e-001 -3.584746e-002
    outer loop
      vertex -2.500000e+000  1.499977e-001  1.119841e-006
      vertex -2.434842e+000  2.434370e-001  5.670482e-001
      vertex -1.829636e+000  8.224565e-001  1.221119e-001
    endloop
  endfacet
  facet normal -7.070615e-001  7.070583e-001 -1.151721e-002
    outer loop
      vertex -1.500002e+000  1.150000e+000  1.653219e-016
      vertex -2.500000e+000  1.499977e-001  1.119841e-006
      vertex -1.499136e+000  1.152089e+000  7.506494e-002
    endloop
  endfacet
  facet normal -7.070152e-001  7.070875e-001 -1.252336e-002
    outer loop
      vertex -1.499136e+000  1.152089e+000  7.506494e-002
      vertex -2.500000e+000  1.499977e-001  1.119841e-006
      vertex -1.829636e+000  8.224565e-001  1.221119e-001
    endloop
  endfacet
  facet normal -7.090040e-001  7.031015e-001 -5.442191e-002
    outer loop
      vertex -1.499136e+000  1.152089e+000  7.506494e-002
      vertex -1.829636e+000  8.224565e-001  1.221119e-001
      vertex -1.477555e+000  1.194710e+000  3.445553e-001
    endloop
  endfacet
  facet normal -7.041667e-001  7.067529e-001 -6.818913e-002
    outer loop
      vertex -1.477555e+000  1.194710e+000  3.445553e-001
      vertex -1.829636e+000  8.224565e-001  1.221119e-001
      vertex -1.764728e+000  9.258879e-001  5.238574e-001
    endloop
  endfacet
  facet normal -7.161269e-001  6.884725e-001 -1.147521e-001
    outer loop
      vertex -1.477555e+000  1.194710e+000  3.445553e-001
      vertex -1.764728e+000  9.258879e-001  5.238574e-001
      vertex -1.412742e+000  1.311382e+000  6.400689e-001
    endloop
  endfacet
  facet normal -6.997039e-001  6.921978e-001 -1.768522e-001
    outer loop
      vertex -1.412742e+000  1.311382e+000  6.400689e-001
      vertex -1.764728e+000  9.258879e-001  5.238574e-001
      vertex -1.641370e+000  1.141467e+000  8.795754e-001
    endloop
  endfacet
  facet normal -7.378110e-001  6.215016e-001 -2.633833e-001
    outer loop
      vertex -1.412742e+000  1.311382e+000  6.400689e-001
      vertex -1.641370e+000  1.141467e+000  8.795754e-001
      vertex -1.298678e+000  1.603161e+000  1.009049e+000
    endloop
  endfacet
  facet normal -6.879816e-001  6.175535e-001 -3.811943e-001
    outer loop
      vertex -1.298678e+000  1.603161e+000  1.009049e+000
      vertex -1.641370e+000  1.141467e+000  8.795754e-001
      vertex -1.477328e+000  1.545949e+000  1.238791e+000
    endloop
  endfacet
  facet normal -7.643532e-001  4.191302e-001 -4.899940e-001
    outer loop
      vertex -1.298678e+000  1.603161e+000  1.009049e+000
      vertex -1.477328e+000  1.545949e+000  1.238791e+000
      vertex -1.234715e+000  2.011419e+000  1.258487e+000
    endloop
  endfacet
  facet normal -6.968524e-001  3.887180e-001 -6.027396e-001
    outer loop
      vertex -1.234715e+000  2.011419e+000  1.258487e+000
      vertex -1.477328e+000  1.545949e+000  1.238791e+000
      vertex -1.397251e+000  2.006169e+000  1.443015e+000
    endloop
  endfacet
  facet normal -7.445629e-001  1.445689e-001 -6.517100e-001
    outer loop
      vertex -1.234715e+000  2.011419e+000  1.258487e+000
      vertex -1.397251e+000  2.006169e+000  1.443015e+000
      vertex -1.219950e+000  2.500000e+000  1.350000e+000
    endloop
  endfacet
  facet normal -7.020127e-001  1.198174e-001 -7.020127e-001
    outer loop
      vertex -1.219950e+000  2.500000e+000  1.350000e+000
      vertex -1.397251e+000  2.006169e+000  1.443015e+000
      vertex -1.380482e+000  2.500000e+000  1.510532e+000
    endloop
  endfacet
  facet normal -7.013518e-001 -1.273241e-001 -7.013518e-001
    outer loop
      vertex -1.219950e+000  2.500000e+000  1.350000e+000
      vertex -1.380482e+000  2.500000e+000  1.510532e+000
      vertex -1.229910e+000  2.915066e+000  1.284609e+000
    endloop
  endfacet
  facet normal -7.374037e-001 -9.638596e-002 -6.685398e-001
    outer loop
      vertex -1.229910e+000  2.915066e+000  1.284609e+000
      vertex -1.380482e+000  2.500000e+000  1.510532e+000
      vertex -1.391649e+000  2.917188e+000  1.462701e+000
    endloop
  endfacet
  facet normal -6.866180e-001 -3.812698e-001 -6.190226e-001
    outer loop
      vertex -1.229910e+000  2.915066e+000  1.284609e+000
      vertex -1.391649e+000  2.917188e+000  1.462701e+000
      vertex -1.268909e+000  3.264923e+000  1.112382e+000
    endloop
  endfacet
  facet normal -7.690636e-001 -2.981316e-001 -5.653838e-001
    outer loop
      vertex -1.268909e+000  3.264923e+000  1.112382e+000
      vertex -1.391649e+000  2.917188e+000  1.462701e+000
      vertex -1.439073e+000  3.296986e+000  1.326940e+000
    endloop
  endfacet
  facet normal -6.857535e-001 -5.644352e-001 -4.595161e-001
    outer loop
      vertex -1.268909e+000  3.264923e+000  1.112382e+000
      vertex -1.439073e+000  3.296986e+000  1.326940e+000
      vertex -1.322164e+000  3.475385e+000  9.333398e-001
    endloop
  endfacet
  facet normal -6.860855e-001 -5.640817e-001 -4.594545e-001
    outer loop
      vertex -1.322164e+000  3.475385e+000  9.333398e-001
      vertex -1.439073e+000  3.296986e+000  1.326940e+000
      vertex -1.595333e+000  3.765874e+000  9.846131e-001
    endloop
  endfacet
  facet normal -7.242493e-001 -6.326646e-001 -2.742233e-001
    outer loop
      vertex -1.322164e+000  3.475385e+000  9.333398e-001
      vertex -1.595333e+000  3.765874e+000  9.846131e-001
      vertex -1.383223e+000  3.629026e+000  7.401354e-001
    endloop
  endfacet
  facet normal -7.140841e-001  6.971185e-001 -6.410636e-002
    outer loop
      vertex -1.829636e+000  8.224565e-001  1.221119e-001
      vertex -2.434842e+000  2.434370e-001  5.670482e-001
      vertex -1.764728e+000  9.258879e-001  5.238574e-001
    endloop
  endfacet
  facet normal -7.130258e-001  6.936827e-001 -1.019735e-001
    outer loop
      vertex -1.764728e+000  9.258879e-001  5.238574e-001
      vertex -2.434842e+000  2.434370e-001  5.670482e-001
      vertex -2.339073e+000  3.882436e-001  8.824615e-001
    endloop
  endfacet
  facet normal -7.250329e-001  6.709952e-001 -1.552188e-001
    outer loop
      vertex -1.764728e+000  9.258879e-001  5.238574e-001
      vertex -2.339073e+000  3.882436e-001  8.824615e-001
      vertex -1.641370e+000  1.141467e+000  8.795754e-001
    endloop
  endfacet
  facet normal -7.170630e-001  6.633880e-001 -2.138620e-001
    outer loop
      vertex -1.641370e+000  1.141467e+000  8.795754e-001
      vertex -2.339073e+000  3.882436e-001  8.824615e-001
      vertex -2.098628e+000  8.016362e-001  1.358588e+000
    endloop
  endfacet
  facet normal -7.540890e-001  5.798070e-001 -3.085020e-001
    outer loop
      vertex -1.641370e+000  1.141467e+000  8.795754e-001
      vertex -2.098628e+000  8.016362e-001  1.358588e+000
      vertex -1.477328e+000  1.545949e+000  1.238791e+000
    endloop
  endfacet
  facet normal -7.257254e-001  5.364569e-001 -4.307398e-001
    outer loop
      vertex -1.477328e+000  1.545949e+000  1.238791e+000
      vertex -2.098628e+000  8.016362e-001  1.358588e+000
      vertex -1.834628e+000  1.431525e+000  1.698276e+000
    endloop
  endfacet
  facet normal -7.771633e-001  3.632557e-001 -5.138701e-001
    outer loop
      vertex -1.477328e+000  1.545949e+000  1.238791e+000
      vertex -1.834628e+000  1.431525e+000  1.698276e+000
      vertex -1.397251e+000  2.006169e+000  1.443015e+000
    endloop
  endfacet
  facet normal -7.259544e-001  2.719403e-001 -6.316951e-001
    outer loop
      vertex -1.397251e+000  2.006169e+000  1.443015e+000
      vertex -1.834628e+000  1.431525e+000  1.698276e+000
      vertex -1.722322e+000  1.995668e+000  1.812072e+000
    endloop
  endfacet
  facet normal -7.470601e-001  1.148858e-001 -6.547538e-001
    outer loop
      vertex -1.397251e+000  2.006169e+000  1.443015e+000
      vertex -1.722322e+000  1.995668e+000  1.812072e+000
      vertex -1.380482e+000  2.500000e+000  1.510532e+000
    endloop
  endfacet
  facet normal -6.702900e-001  1.067240e-002 -7.420225e-001
    outer loop
      vertex -1.380482e+000  2.500000e+000  1.510532e+000
      vertex -1.722322e+000  1.995668e+000  1.812072e+000
      vertex -1.715125e+000  2.921433e+000  1.818886e+000
    endloop
  endfacet
  facet normal -7.374038e-001 -9.638596e-002 -6.685398e-001
    outer loop
      vertex -1.380482e+000  2.500000e+000  1.510532e+000
      vertex -1.715125e+000  2.921433e+000  1.818886e+000
      vertex -1.391649e+000  2.917188e+000  1.462701e+000
    endloop
  endfacet
  facet normal -7.043909e-001 -3.152803e-001 -6.359494e-001
    outer loop
      vertex -1.391649e+000  2.917188e+000  1.462701e+000
      vertex -1.715125e+000  2.921433e+000  1.818886e+000
      vertex -1.439073e+000  3.296986e+000  1.326940e+000
    endloop
  endfacet
  facet normal -7.821179e-001 -1.987305e-001 -5.905911e-001
    outer loop
      vertex -1.439073e+000  3.296986e+000  1.326940e+000
      vertex -1.715125e+000  2.921433e+000  1.818886e+000
      vertex -1.779400e+000  3.361111e+000  1.756057e+000
    endloop
  endfacet
  facet normal -6.858820e-001 -5.641630e-001 -4.596587e-001
    outer loop
      vertex -1.439073e+000  3.296986e+000  1.326940e+000
      vertex -1.779400e+000  3.361111e+000  1.756057e+000
      vertex -1.595333e+000  3.765874e+000  9.846131e-001
    endloop
  endfacet
  facet normal -7.829710e-001 -4.541442e-001 -4.250993e-001
    outer loop
      vertex -1.595333e+000  3.765874e+000  9.846131e-001
      vertex -1.779400e+000  3.361111e+000  1.756057e+000
      vertex -2.019554e+000  4.039571e+000  1.473568e+000
    endloop
  endfacet
  facet normal -6.957062e-001 -6.834801e-001 -2.210151e-001
    outer loop
      vertex -1.595333e+000  3.765874e+000  9.846131e-001
      vertex -2.019554e+000  4.039571e+000  1.473568e+000
      vertex -1.738535e+000  4.030987e+000  6.155326e-001
    endloop
  endfacet
  facet normal -7.415532e-001 -6.277940e-001 -2.365877e-001
    outer loop
      vertex -1.738535e+000  4.030987e+000  6.155326e-001
      vertex -2.019554e+000  4.039571e+000  1.473568e+000
      vertex -2.283653e+000  4.523468e+000  1.017315e+000
    endloop
  endfacet
  facet normal -7.065179e-001 -7.006256e-001 -9.978069e-002
    outer loop
      vertex -1.738535e+000  4.030987e+000  6.155326e-001
      vertex -2.283653e+000  4.523468e+000  1.017315e+000
      vertex -1.808700e+000  4.144587e+000  3.146864e-001
    endloop
  endfacet
  facet normal -7.167615e-001 -6.880189e-001 -1.135030e-001
    outer loop
      vertex -1.808700e+000  4.144587e+000  3.146864e-001
      vertex -2.283653e+000  4.523468e+000  1.017315e+000
      vertex -2.439199e+000  4.762935e+000  5.480047e-001
    endloop
  endfacet
  facet normal -7.061756e-001 -7.072195e-001 -3.401038e-002
    outer loop
      vertex -1.808700e+000  4.144587e+000  3.146864e-001
      vertex -2.439199e+000  4.762935e+000  5.480047e-001
      vertex -2.500000e+000  4.850000e+000 -9.184548e-016
    endloop
  endfacet
  facet normal -6.686424e-001 -7.225347e-001 -1.756729e-001
    outer loop
      vertex -1.383223e+000  3.629026e+000  7.401354e-001
      vertex -1.595333e+000  3.765874e+000  9.846131e-001
      vertex -1.465977e+000  3.784746e+000  4.146417e-001
    endloop
  endfacet
  facet normal -7.310085e-001 -6.560663e-001 -1.876263e-001
    outer loop
      vertex -1.465977e+000  3.784746e+000  4.146417e-001
      vertex -1.595333e+000  3.765874e+000  9.846131e-001
      vertex -1.738535e+000  4.030987e+000  6.155326e-001
    endloop
  endfacet
  facet normal -6.992123e-001 -7.106985e-001 -7.752166e-002
    outer loop
      vertex -1.465977e+000  3.784746e+000  4.146417e-001
      vertex -1.738535e+000  4.030987e+000  6.155326e-001
      vertex -1.493443e+000  3.835395e+000  1.980430e-001
    endloop
  endfacet
  facet normal -7.147293e-001 -6.929250e-001 -9.495785e-002
    outer loop
      vertex -1.493443e+000  3.835395e+000  1.980430e-001
      vertex -1.738535e+000  4.030987e+000  6.155326e-001
      vertex -1.808700e+000  4.144587e+000  3.146864e-001
    endloop
  endfacet
  facet normal -7.053408e-001 -7.082797e-001 -2.888160e-002
    outer loop
      vertex -1.493443e+000  3.835395e+000  1.980430e-001
      vertex -1.808700e+000  4.144587e+000  3.146864e-001
      vertex -1.500000e+000  3.850000e+000 -3.306437e-016
    endloop
  endfacet
  facet normal  4.953061e-001  3.489289e-003 -8.687115e-001
    outer loop
      vertex  7.038488e-001  2.499998e+000 -2.398874e+000
      vertex  1.709582e+000  2.835207e+000 -1.824097e+000
      vertex  1.703820e+000  2.312897e+000 -1.829481e+000
    endloop
  endfacet
  facet normal -1.070951e-001  -0.000000e+000 -9.942488e-001
    outer loop
      vertex -1.198564e+000  0.000000e+000 -2.193956e+000
      vertex  7.038488e-001  2.499998e+000 -2.398874e+000
      vertex  7.038488e-001  0.000000e+000 -2.398874e+000
    endloop
  endfacet
  facet normal  8.643301e-001  6.025593e-003 -5.028890e-001
    outer loop
      vertex  2.067818e+000  8.616751e-001 -1.405038e+000
      vertex  2.230904e+000  5.640230e-001 -1.128303e+000
      vertex  2.193956e+000  0.000000e+000 -1.198564e+000
    endloop
  endfacet
  facet normal  9.163117e-001 -1.015464e-002 -4.003371e-001
    outer loop
      vertex  2.193956e+000  0.000000e+000 -1.198564e+000
      vertex  2.230904e+000  5.640230e-001 -1.128303e+000
      vertex  2.354691e+000  3.639798e-001 -8.398987e-001
    endloop
  endfacet
  facet normal  9.726963e-001 -2.119320e-001  9.458771e-002
    outer loop
      vertex  2.500000e+000  1.499983e-001  5.990603e-007
      vertex  2.472544e+000  1.888948e-001  3.694919e-001
      vertex  2.398874e+000  0.000000e+000  7.038488e-001
    endloop
  endfacet
  facet normal  9.762439e-001  2.755860e-003  2.166572e-001
    outer loop
      vertex  2.472544e+000  1.888948e-001  3.694919e-001
      vertex  2.395469e+000  3.018453e-001  7.153504e-001
      vertex  2.398874e+000  0.000000e+000  7.038488e-001
    endloop
  endfacet
  facet normal  7.599739e-001  2.125472e-003 -6.499501e-001
    outer loop
      vertex  1.996249e+000  3.989484e+000 -1.504989e+000
      vertex  1.809395e+000  3.481376e+000 -1.725135e+000
      vertex  2.193956e+000  2.700000e+001 -1.198564e+000
    endloop
  endfacet
  facet normal  8.482861e-001 -2.368073e-004 -5.295381e-001
    outer loop
      vertex  1.996249e+000  3.989484e+000 -1.504989e+000
      vertex  2.193956e+000  2.700000e+001 -1.198564e+000
      vertex  2.228250e+000  4.431478e+000 -1.133535e+000
    endloop
  endfacet
  facet normal  7.786788e-001 -1.511747e-002  6.272407e-001
    outer loop
      vertex  1.198564e+000  0.000000e+000  2.193956e+000
      vertex  2.398874e+000  0.000000e+000  7.038488e-001
      vertex  2.395469e+000  3.018453e-001  7.153504e-001
    endloop
  endfacet
  facet normal  7.458075e-001 -4.185160e-001  5.182815e-001
    outer loop
      vertex  1.198564e+000  0.000000e+000  2.193956e+000
      vertex  2.395469e+000  3.018453e-001  7.153504e-001
      vertex  2.283653e+000  4.765313e-001  1.017315e+000
    endloop
  endfacet
  facet normal  7.582440e-001 -1.776373e-001  6.273045e-001
    outer loop
      vertex  1.198564e+000  0.000000e+000  2.193956e+000
      vertex  2.283653e+000  4.765313e-001  1.017315e+000
      vertex  2.019554e+000  9.604288e-001  1.473568e+000
    endloop
  endfacet
  facet normal  6.933855e-001 -5.374780e-002  7.185594e-001
    outer loop
      vertex  1.198564e+000  0.000000e+000  2.193956e+000
      vertex  2.019554e+000  9.604288e-001  1.473568e+000
      vertex  1.779400e+000  1.638889e+000  1.756057e+000
    endloop
  endfacet
  facet normal  6.336113e-001 -1.789835e-002  7.734445e-001
    outer loop
      vertex  1.198564e+000  0.000000e+000  2.193956e+000
      vertex  1.779400e+000  1.638889e+000  1.756057e+000
      vertex  1.715125e+000  2.078567e+000  1.818886e+000
    endloop
  endfacet
  facet normal  5.837514e-001  1.437514e-003  8.119311e-001
    outer loop
      vertex  1.198564e+000  0.000000e+000  2.193956e+000
      vertex  1.715125e+000  2.078567e+000  1.818886e+000
      vertex  1.722322e+000  3.004332e+000  1.812072e+000
    endloop
  endfacet
  facet normal  5.891488e-001  0.000000e+000  8.080245e-001
    outer loop
      vertex  1.198564e+000  0.000000e+000  2.193956e+000
      vertex  1.722322e+000  3.004332e+000  1.812072e+000
      vertex  1.198564e+000  2.700000e+001  2.193956e+000
    endloop
  endfacet
  facet normal  7.787644e-001  2.924496e-003  6.273097e-001
    outer loop
      vertex  2.398874e+000  2.700000e+001  7.038488e-001
      vertex  1.198564e+000  2.700000e+001  2.193956e+000
      vertex  2.339073e+000  4.611756e+000  8.824615e-001
    endloop
  endfacet
  facet normal  9.568951e-001 -2.388956e-004  2.904337e-001
    outer loop
      vertex  2.398874e+000  2.700000e+001  7.038488e-001
      vertex  2.339073e+000  4.611756e+000  8.824615e-001
      vertex  2.434842e+000  4.756563e+000  5.670482e-001
    endloop
  endfacet
  facet normal  9.934456e-001  9.034399e-004  1.143029e-001
    outer loop
      vertex  2.398874e+000  2.700000e+001  7.038488e-001
      vertex  2.434842e+000  4.756563e+000  5.670482e-001
      vertex  2.500000e+000  4.850000e+000  6.123032e-016
    endloop
  endfacet
  facet normal  9.920627e-001  8.515815e-003 -1.254559e-001
    outer loop
      vertex  2.398874e+000  2.700000e+001  7.038488e-001
      vertex  2.500000e+000  4.850000e+000  6.123032e-016
      vertex  2.423178e+000  4.739417e+000 -6.149850e-001
    endloop
  endfacet
  facet normal  9.313260e-001  2.255174e-002 -3.634875e-001
    outer loop
      vertex  2.398874e+000  2.700000e+001  7.038488e-001
      vertex  2.423178e+000  4.739417e+000 -6.149850e-001
      vertex  2.228250e+000  4.431478e+000 -1.133535e+000
    endloop
  endfacet
  facet normal  9.942481e-001  1.202211e-003 -1.070951e-001
    outer loop
      vertex  2.398874e+000  2.700000e+001  7.038488e-001
      vertex  2.228250e+000  4.431478e+000 -1.133535e+000
      vertex  2.193956e+000  2.700000e+001 -1.198564e+000
    endloop
  endfacet
  facet normal  7.018096e-001  3.981648e-003  7.123535e-001
    outer loop
      vertex  1.198564e+000  2.700000e+001  2.193956e+000
      vertex  1.722322e+000  3.004332e+000  1.812072e+000
      vertex  1.834628e+000  3.568475e+000  1.698276e+000
    endloop
  endfacet
  facet normal  7.822589e-001  8.057805e-003  6.229013e-001
    outer loop
      vertex  1.198564e+000  2.700000e+001  2.193956e+000
      vertex  1.834628e+000  3.568475e+000  1.698276e+000
      vertex  2.098628e+000  4.198364e+000  1.358588e+000
    endloop
  endfacet
  facet normal  8.861099e-001  1.801079e-002  4.631251e-001
    outer loop
      vertex  1.198564e+000  2.700000e+001  2.193956e+000
      vertex  2.098628e+000  4.198364e+000  1.358588e+000
      vertex  2.339073e+000  4.611756e+000  8.824615e-001
    endloop
  endfacet
  facet normal -1.070951e-001  -0.000000e+000 -9.942488e-001
    outer loop
      vertex -1.198564e+000  0.000000e+000 -2.193956e+000
      vertex -1.198564e+000  2.700000e+001 -2.193956e+000
      vertex  7.038488e-001  2.499998e+000 -2.398874e+000
    endloop
  endfacet
  facet normal -1.070951e-001  0.000000e+000 -9.942488e-001
    outer loop
      vertex  7.038488e-001  2.499998e+000 -2.398874e+000
      vertex -1.198564e+000  2.700000e+001 -2.193956e+000
      vertex  7.038488e-001  2.700000e+001 -2.398874e+000
    endloop
  endfacet
  facet normal  4.961860e-001  0.000000e+000 -8.682162e-001
    outer loop
      vertex  7.038488e-001  2.499998e+000 -2.398874e+000
      vertex  7.038488e-001  2.700000e+001 -2.398874e+000
      vertex  1.709582e+000  2.835207e+000 -1.824097e+000
    endloop
  endfacet
  facet normal  6.272944e-001  7.584826e-003 -7.787454e-001
    outer loop
      vertex  1.709582e+000  2.835207e+000 -1.824097e+000
      vertex  7.038488e-001  2.700000e+001 -2.398874e+000
      vertex  2.193956e+000  2.700000e+001 -1.198564e+000
    endloop
  endfacet
  facet normal  6.874990e-001  5.017016e-003 -7.261680e-001
    outer loop
      vertex  1.709582e+000  2.835207e+000 -1.824097e+000
      vertex  2.193956e+000  2.700000e+001 -1.198564e+000
      vertex  1.809395e+000  3.481376e+000 -1.725135e+000
    endloop
  endfacet
  facet normal  4.948161e-001  0.000000e+000 -8.689977e-001
    outer loop
      vertex  7.038488e-001  2.499998e+000 -2.398874e+000
      vertex  1.703820e+000  2.312897e+000 -1.829481e+000
      vertex  7.038488e-001  0.000000e+000 -2.398874e+000
    endloop
  endfacet
  facet normal  5.354143e-001 -2.364277e-002 -8.442585e-001
    outer loop
      vertex  7.038488e-001  0.000000e+000 -2.398874e+000
      vertex  1.703820e+000  2.312897e+000 -1.829481e+000
      vertex  1.749279e+000  1.791998e+000 -1.786063e+000
    endloop
  endfacet
  facet normal  6.242207e-001 -9.915979e-002 -7.749296e-001
    outer loop
      vertex  7.038488e-001  0.000000e+000 -2.398874e+000
      vertex  1.749279e+000  1.791998e+000 -1.786063e+000
      vertex  2.193956e+000  0.000000e+000 -1.198564e+000
    endloop
  endfacet
  facet normal -5.413071e-001 -3.801945e-001 -7.499592e-001
    outer loop
      vertex  2.193956e+000  0.000000e+000 -1.198564e+000
      vertex  1.749279e+000  1.791998e+000 -1.786063e+000
      vertex  1.916074e+000  1.198981e+000 -1.605821e+000
    endloop
  endfacet
  facet normal  7.599396e-001 -4.414538e-002 -6.484930e-001
    outer loop
      vertex  2.193956e+000  0.000000e+000 -1.198564e+000
      vertex  1.916074e+000  1.198981e+000 -1.605821e+000
      vertex  2.067818e+000  8.616751e-001 -1.405038e+000
    endloop
  endfacet
  facet normal  2.659535e-001 -9.498945e-001 -1.642226e-001
    outer loop
      vertex  2.500000e+000  1.499983e-001  5.990603e-007
      vertex  2.398874e+000  0.000000e+000  7.038488e-001
      vertex  2.449252e+000  2.224334e-001 -5.011624e-001
    endloop
  endfacet
  facet normal  7.743487e-001 -6.272376e-001 -8.340868e-002
    outer loop
      vertex  2.449252e+000  2.224334e-001 -5.011624e-001
      vertex  2.398874e+000  0.000000e+000  7.038488e-001
      vertex  2.193956e+000  0.000000e+000 -1.198564e+000
    endloop
  endfacet
  facet normal  9.441570e-001 -1.113655e-001 -3.101053e-001
    outer loop
      vertex  2.449252e+000  2.224334e-001 -5.011624e-001
      vertex  2.193956e+000  0.000000e+000 -1.198564e+000
      vertex  2.354691e+000  3.639798e-001 -8.398987e-001
    endloop
  endfacet
  facet normal  7.066499e-001 -7.066499e-001  3.594197e-002
    outer loop
      vertex  1.500000e+000  3.850000e+000 -6.938894e-018
      vertex  1.801942e+000  4.133887e+000 -3.549783e-001
      vertex  2.500000e+000  4.850000e+000  6.123032e-016
    endloop
  endfacet
  facet normal  7.416963e-001  6.272547e-001  2.375672e-001
    outer loop
      vertex  1.712358e+000  1.013260e+000 -6.955088e-001
      vertex  2.230904e+000  5.640230e-001 -1.128303e+000
      vertex  2.067818e+000  8.616751e-001 -1.405038e+000
    endloop
  endfacet
  facet normal  7.057462e-001  7.079720e-001  2.641562e-002
    outer loop
      vertex  1.500002e+000  1.150000e+000  1.653219e-016
      vertex  1.812870e+000  8.488174e-001 -2.868340e-001
      vertex  1.494679e+000  1.162009e+000 -1.796697e-001
    endloop
  endfacet
  facet normal  7.068147e-001  7.068123e-001  2.879866e-002
    outer loop
      vertex  1.500002e+000  1.150000e+000  1.653219e-016
      vertex  2.500000e+000  1.499983e-001  5.990603e-007
      vertex  1.812870e+000  8.488174e-001 -2.868340e-001
    endloop
  endfacet
  facet normal  7.063853e-001  7.071624e-001  3.068027e-002
    outer loop
      vertex  1.812870e+000  8.488174e-001 -2.868340e-001
      vertex  2.500000e+000  1.499983e-001  5.990603e-007
      vertex  2.449252e+000  2.224334e-001 -5.011624e-001
    endloop
  endfacet
  facet normal  7.139546e-001  6.942785e-001  9.080884e-002
    outer loop
      vertex  1.812870e+000  8.488174e-001 -2.868340e-001
      vertex  2.449252e+000  2.224334e-001 -5.011624e-001
      vertex  2.354691e+000  3.639798e-001 -8.398987e-001
    endloop
  endfacet
  facet normal  7.367458e-001  6.610302e-001  1.422834e-001
    outer loop
      vertex  2.354691e+000  3.639798e-001 -8.398987e-001
      vertex  2.230904e+000  5.640230e-001 -1.128303e+000
      vertex  1.812870e+000  8.488174e-001 -2.868340e-001
    endloop
  endfacet
  facet normal  7.018703e-001  7.036780e-001  1.105235e-001
    outer loop
      vertex  1.812870e+000  8.488174e-001 -2.868340e-001
      vertex  2.230904e+000  5.640230e-001 -1.128303e+000
      vertex  1.712358e+000  1.013260e+000 -6.955088e-001
    endloop
  endfacet
  facet normal  7.150993e-001  6.914871e-001  1.023645e-001
    outer loop
      vertex  1.812870e+000  8.488174e-001 -2.868340e-001
      vertex  1.712358e+000  1.013260e+000 -6.955088e-001
      vertex  1.494679e+000  1.162009e+000 -1.796697e-001
    endloop
  endfacet
  facet normal  6.921726e-001  7.166578e-001  8.543135e-002
    outer loop
      vertex  1.494679e+000  1.162009e+000 -1.796697e-001
      vertex  1.712358e+000  1.013260e+000 -6.955088e-001
      vertex  1.453085e+000  1.237878e+000 -4.791119e-001
    endloop
  endfacet
  facet normal  7.389329e-001  6.313548e-001  2.353069e-001
    outer loop
      vertex  1.712358e+000  1.013260e+000 -6.955088e-001
      vertex  2.067818e+000  8.616751e-001 -1.405038e+000
      vertex  1.531099e+000  1.384734e+000 -1.123008e+000
    endloop
  endfacet
  facet normal  7.404630e-001  5.569997e-001  3.761196e-001
    outer loop
      vertex  1.531099e+000  1.384734e+000 -1.123008e+000
      vertex  2.067818e+000  8.616751e-001 -1.405038e+000
      vertex  1.916074e+000  1.198981e+000 -1.605821e+000
    endloop
  endfacet
  facet normal  7.729284e-001  4.564967e-001  4.406727e-001
    outer loop
      vertex  1.531099e+000  1.384734e+000 -1.123008e+000
      vertex  1.916074e+000  1.198981e+000 -1.605821e+000
      vertex  1.417412e+000  1.827808e+000 -1.382588e+000
    endloop
  endfacet
  facet normal  7.311301e-001  3.782198e-001  5.678016e-001
    outer loop
      vertex  1.417412e+000  1.827808e+000 -1.382588e+000
      vertex  1.916074e+000  1.198981e+000 -1.605821e+000
      vertex  1.749279e+000  1.791998e+000 -1.786063e+000
    endloop
  endfacet
  facet normal  7.647601e-001  2.049844e-001  6.108384e-001
    outer loop
      vertex  1.417412e+000  1.827808e+000 -1.382588e+000
      vertex  1.749279e+000  1.791998e+000 -1.786063e+000
      vertex  1.382445e+000  2.310557e+000 -1.500811e+000
    endloop
  endfacet
  facet normal  7.094216e-001  1.198012e-001  6.945276e-001
    outer loop
      vertex  1.382445e+000  2.310557e+000 -1.500811e+000
      vertex  1.749279e+000  1.791998e+000 -1.786063e+000
      vertex  1.703820e+000  2.312897e+000 -1.829481e+000
    endloop
  endfacet
  facet normal  7.146969e-001 -3.439856e-002  6.985879e-001
    outer loop
      vertex  1.382445e+000  2.310557e+000 -1.500811e+000
      vertex  1.703820e+000  2.312897e+000 -1.829481e+000
      vertex  1.387220e+000  2.835136e+000 -1.479865e+000
    endloop
  endfacet
  facet normal  7.298320e-001 -1.509564e-002  6.834599e-001
    outer loop
      vertex  1.387220e+000  2.835136e+000 -1.479865e+000
      vertex  1.703820e+000  2.312897e+000 -1.829481e+000
      vertex  1.709582e+000  2.835207e+000 -1.824097e+000
    endloop
  endfacet
  facet normal  6.899915e-001 -3.263190e-001  6.460864e-001
    outer loop
      vertex  1.387220e+000  2.835136e+000 -1.479865e+000
      vertex  1.709582e+000  2.835207e+000 -1.824097e+000
      vertex  1.460051e+000  3.389686e+000 -1.277559e+000
    endloop
  endfacet
  facet normal  7.911131e-001 -2.101776e-001  5.744264e-001
    outer loop
      vertex  1.460051e+000  3.389686e+000 -1.277559e+000
      vertex  1.709582e+000  2.835207e+000 -1.824097e+000
      vertex  1.809395e+000  3.481376e+000 -1.725135e+000
    endloop
  endfacet
  facet normal  6.998845e-001 -5.708137e-001  4.293407e-001
    outer loop
      vertex  1.460051e+000  3.389686e+000 -1.277559e+000
      vertex  1.809395e+000  3.481376e+000 -1.725135e+000
      vertex  1.581188e+000  3.735400e+000 -1.015398e+000
    endloop
  endfacet
  facet normal  7.790215e-001 -4.675040e-001  4.178103e-001
    outer loop
      vertex  1.581188e+000  3.735400e+000 -1.015398e+000
      vertex  1.809395e+000  3.481376e+000 -1.725135e+000
      vertex  1.996249e+000  3.989484e+000 -1.504989e+000
    endloop
  endfacet
  facet normal  6.987031e-001 -6.728179e-001  2.431668e-001
    outer loop
      vertex  1.581188e+000  3.735400e+000 -1.015398e+000
      vertex  1.996249e+000  3.989484e+000 -1.504989e+000
      vertex  1.711009e+000  3.984423e+000 -6.993976e-001
    endloop
  endfacet
  facet normal  7.472023e-001 -6.113190e-001  2.607255e-001
    outer loop
      vertex  1.711009e+000  3.984423e+000 -6.993976e-001
      vertex  1.996249e+000  3.989484e+000 -1.504989e+000
      vertex  2.228250e+000  4.431478e+000 -1.133535e+000
    endloop
  endfacet
  facet normal  7.041585e-001 -7.001796e-001  1.179376e-001
    outer loop
      vertex  1.711009e+000  3.984423e+000 -6.993976e-001
      vertex  2.228250e+000  4.431478e+000 -1.133535e+000
      vertex  1.801942e+000  4.133887e+000 -3.549783e-001
    endloop
  endfacet
  facet normal  7.198755e-001 -6.810760e-001  1.338457e-001
    outer loop
      vertex  1.801942e+000  4.133887e+000 -3.549783e-001
      vertex  2.228250e+000  4.431478e+000 -1.133535e+000
      vertex  2.423178e+000  4.739417e+000 -6.149850e-001
    endloop
  endfacet
  facet normal  7.057927e-001 -7.073427e-001  3.902509e-002
    outer loop
      vertex  1.801942e+000  4.133887e+000 -3.549783e-001
      vertex  2.423178e+000  4.739417e+000 -6.149850e-001
      vertex  2.500000e+000  4.850000e+000  6.123032e-016
    endloop
  endfacet
  facet normal  7.135333e-001  6.858781e-001  1.429735e-001
    outer loop
      vertex  1.453085e+000  1.237878e+000 -4.791119e-001
      vertex  1.712358e+000  1.013260e+000 -6.955088e-001
      vertex  1.401707e+000  1.332890e+000 -6.784940e-001
    endloop
  endfacet
  facet normal  6.958835e-001  6.614454e-001  2.797070e-001
    outer loop
      vertex  1.401707e+000  1.332890e+000 -6.784940e-001
      vertex  1.712358e+000  1.013260e+000 -6.955088e-001
      vertex  1.531099e+000  1.384734e+000 -1.123008e+000
    endloop
  endfacet
  facet normal  6.762239e-001  6.828469e-001  2.764805e-001
    outer loop
      vertex  1.401707e+000  1.332890e+000 -6.784940e-001
      vertex  1.531099e+000  1.384734e+000 -1.123008e+000
      vertex  1.338611e+000  1.477611e+000 -8.816009e-001
    endloop
  endfacet
  facet normal  7.572594e-001  5.104597e-001  4.074174e-001
    outer loop
      vertex  1.338611e+000  1.477611e+000 -8.816009e-001
      vertex  1.531099e+000  1.384734e+000 -1.123008e+000
      vertex  1.251479e+000  1.845713e+000 -1.180851e+000
    endloop
  endfacet
  facet normal  6.949317e-001  4.878212e-001  5.282996e-001
    outer loop
      vertex  1.251479e+000  1.845713e+000 -1.180851e+000
      vertex  1.531099e+000  1.384734e+000 -1.123008e+000
      vertex  1.417412e+000  1.827808e+000 -1.382588e+000
    endloop
  endfacet
  facet normal  7.584718e-001  2.505420e-001  6.016221e-001
    outer loop
      vertex  1.251479e+000  1.845713e+000 -1.180851e+000
      vertex  1.417412e+000  1.827808e+000 -1.382588e+000
      vertex  1.221758e+000  2.309387e+000 -1.336475e+000
    endloop
  endfacet
  facet normal  6.970596e-001  2.177863e-001  6.831377e-001
    outer loop
      vertex  1.221758e+000  2.309387e+000 -1.336475e+000
      vertex  1.417412e+000  1.827808e+000 -1.382588e+000
      vertex  1.382445e+000  2.310557e+000 -1.500811e+000
    endloop
  endfacet
  facet normal  7.144624e-001 -4.397496e-002  6.982906e-001
    outer loop
      vertex  1.221758e+000  2.309387e+000 -1.336475e+000
      vertex  1.382445e+000  2.310557e+000 -1.500811e+000
      vertex  1.226039e+000  2.835101e+000 -1.307749e+000
    endloop
  endfacet
  facet normal  7.294971e-001 -3.391657e-002  6.831424e-001
    outer loop
      vertex  1.226039e+000  2.835101e+000 -1.307749e+000
      vertex  1.382445e+000  2.310557e+000 -1.500811e+000
      vertex  1.387220e+000  2.835136e+000 -1.479865e+000
    endloop
  endfacet
  facet normal  6.714725e-001 -3.922022e-001  6.287305e-001
    outer loop
      vertex  1.226039e+000  2.835101e+000 -1.307749e+000
      vertex  1.387220e+000  2.835136e+000 -1.479865e+000
      vertex  1.285379e+000  3.343841e+000 -1.053770e+000
    endloop
  endfacet
  facet normal  7.804925e-001 -3.021635e-001  5.472922e-001
    outer loop
      vertex  1.285379e+000  3.343841e+000 -1.053770e+000
      vertex  1.387220e+000  2.835136e+000 -1.479865e+000
      vertex  1.460051e+000  3.389686e+000 -1.277559e+000
    endloop
  endfacet
  facet normal  6.651161e-001 -6.377239e-001  3.884955e-001
    outer loop
      vertex  1.285379e+000  3.343841e+000 -1.053770e+000
      vertex  1.460051e+000  3.389686e+000 -1.277559e+000
      vertex  1.373690e+000  3.608411e+000 -7.706658e-001
    endloop
  endfacet
  facet normal  7.588394e-001 -5.409361e-001  3.626994e-001
    outer loop
      vertex  1.373690e+000  3.608411e+000 -7.706658e-001
      vertex  1.460051e+000  3.389686e+000 -1.277559e+000
      vertex  1.581188e+000  3.735400e+000 -1.015398e+000
    endloop
  endfacet
  facet normal  6.696431e-001 -7.163371e-001  1.960592e-001
    outer loop
      vertex  1.373690e+000  3.608411e+000 -7.706658e-001
      vertex  1.581188e+000  3.735400e+000 -1.015398e+000
      vertex  1.452389e+000  3.760896e+000 -4.823289e-001
    endloop
  endfacet
  facet normal  7.337424e-001 -6.467360e-001  2.082179e-001
    outer loop
      vertex  1.452389e+000  3.760896e+000 -4.823289e-001
      vertex  1.581188e+000  3.735400e+000 -1.015398e+000
      vertex  1.711009e+000  3.984423e+000 -6.993976e-001
    endloop
  endfacet
  facet normal  6.934779e-001 -7.148171e-001  9.013897e-002
    outer loop
      vertex  1.452389e+000  3.760896e+000 -4.823289e-001
      vertex  1.711009e+000  3.984423e+000 -6.993976e-001
      vertex  1.491325e+000  3.831122e+000 -2.249750e-001
    endloop
  endfacet
  facet normal  7.169225e-001 -6.884998e-001  1.094992e-001
    outer loop
      vertex  1.491325e+000  3.831122e+000 -2.249750e-001
      vertex  1.711009e+000  3.984423e+000 -6.993976e-001
      vertex  1.801942e+000  4.133887e+000 -3.549783e-001
    endloop
  endfacet
  facet normal  7.045358e-001 -7.089322e-001  3.231858e-002
    outer loop
      vertex  1.491325e+000  3.831122e+000 -2.249750e-001
      vertex  1.801942e+000  4.133887e+000 -3.549783e-001
      vertex  1.500000e+000  3.850000e+000 -6.938894e-018
    endloop
  endfacet
  facet normal  7.044902e-001 -7.088079e-001 -3.584455e-002
    outer loop
      vertex  2.500000e+000  4.850000e+000  6.123032e-016
      vertex  2.434842e+000  4.756563e+000  5.670482e-001
      vertex  1.829636e+000  4.177544e+000  1.221119e-001
    endloop
  endfacet
  facet normal  7.067853e-001  7.070885e-001 -2.191683e-002
    outer loop
      vertex  2.500000e+000  1.499983e-001  5.990603e-007
      vertex  1.822393e+000  8.338203e-001  2.098944e-001
      vertex  2.472544e+000  1.888948e-001  3.694919e-001
    endloop
  endfacet
  facet normal  7.070597e-001 -7.070597e-001 -1.153860e-002
    outer loop
      vertex  1.500000e+000  3.850000e+000 -6.938894e-018
      vertex  2.500000e+000  4.850000e+000  6.123032e-016
      vertex  1.499136e+000  3.847911e+000  7.506494e-002
    endloop
  endfacet
  facet normal  7.070149e-001 -7.070879e-001 -1.251360e-002
    outer loop
      vertex  1.499136e+000  3.847911e+000  7.506494e-002
      vertex  2.500000e+000  4.850000e+000  6.123032e-016
      vertex  1.829636e+000  4.177544e+000  1.221119e-001
    endloop
  endfacet
  facet normal  7.090042e-001 -7.031012e-001 -5.442124e-002
    outer loop
      vertex  1.499136e+000  3.847911e+000  7.506494e-002
      vertex  1.829636e+000  4.177544e+000  1.221119e-001
      vertex  1.477555e+000  3.805290e+000  3.445553e-001
    endloop
  endfacet
  facet normal  7.041665e-001 -7.067530e-001 -6.818961e-002
    outer loop
      vertex  1.477555e+000  3.805290e+000  3.445553e-001
      vertex  1.829636e+000  4.177544e+000  1.221119e-001
      vertex  1.764728e+000  4.074112e+000  5.238574e-001
    endloop
  endfacet
  facet normal  7.161266e-001 -6.884727e-001 -1.147522e-001
    outer loop
      vertex  1.477555e+000  3.805290e+000  3.445553e-001
      vertex  1.764728e+000  4.074112e+000  5.238574e-001
      vertex  1.412742e+000  3.688618e+000  6.400689e-001
    endloop
  endfacet
  facet normal  6.997036e-001 -6.921980e-001 -1.768524e-001
    outer loop
      vertex  1.412742e+000  3.688618e+000  6.400689e-001
      vertex  1.764728e+000  4.074112e+000  5.238574e-001
      vertex  1.641370e+000  3.858533e+000  8.795754e-001
    endloop
  endfacet
  facet normal  7.378108e-001 -6.215016e-001 -2.633837e-001
    outer loop
      vertex  1.412742e+000  3.688618e+000  6.400689e-001
      vertex  1.641370e+000  3.858533e+000  8.795754e-001
      vertex  1.298678e+000  3.396839e+000  1.009049e+000
    endloop
  endfacet
  facet normal  6.879817e-001 -6.175535e-001 -3.811940e-001
    outer loop
      vertex  1.298678e+000  3.396839e+000  1.009049e+000
      vertex  1.641370e+000  3.858533e+000  8.795754e-001
      vertex  1.477328e+000  3.454051e+000  1.238791e+000
    endloop
  endfacet
  facet normal  7.643532e-001 -4.191302e-001 -4.899938e-001
    outer loop
      vertex  1.298678e+000  3.396839e+000  1.009049e+000
      vertex  1.477328e+000  3.454051e+000  1.238791e+000
      vertex  1.234715e+000  2.988581e+000  1.258487e+000
    endloop
  endfacet
  facet normal  6.968524e-001 -3.887180e-001 -6.027396e-001
    outer loop
      vertex  1.234715e+000  2.988581e+000  1.258487e+000
      vertex  1.477328e+000  3.454051e+000  1.238791e+000
      vertex  1.397251e+000  2.993831e+000  1.443015e+000
    endloop
  endfacet
  facet normal  7.445629e-001 -1.445689e-001 -6.517100e-001
    outer loop
      vertex  1.234715e+000  2.988581e+000  1.258487e+000
      vertex  1.397251e+000  2.993831e+000  1.443015e+000
      vertex  1.219950e+000  2.500000e+000  1.350000e+000
    endloop
  endfacet
  facet normal  7.020127e-001 -1.198174e-001 -7.020127e-001
    outer loop
      vertex  1.219950e+000  2.500000e+000  1.350000e+000
      vertex  1.397251e+000  2.993831e+000  1.443015e+000
      vertex  1.380482e+000  2.500000e+000  1.510532e+000
    endloop
  endfacet
  facet normal  7.013518e-001  1.273241e-001 -7.013518e-001
    outer loop
      vertex  1.219950e+000  2.500000e+000  1.350000e+000
      vertex  1.380482e+000  2.500000e+000  1.510532e+000
      vertex  1.229910e+000  2.084934e+000  1.284609e+000
    endloop
  endfacet
  facet normal  7.374037e-001  9.638596e-002 -6.685398e-001
    outer loop
      vertex  1.229910e+000  2.084934e+000  1.284609e+000
      vertex  1.380482e+000  2.500000e+000  1.510532e+000
      vertex  1.391649e+000  2.082812e+000  1.462701e+000
    endloop
  endfacet
  facet normal  6.866180e-001  3.812698e-001 -6.190226e-001
    outer loop
      vertex  1.229910e+000  2.084934e+000  1.284609e+000
      vertex  1.391649e+000  2.082812e+000  1.462701e+000
      vertex  1.268909e+000  1.735077e+000  1.112382e+000
    endloop
  endfacet
  facet normal  7.690637e-001  2.981315e-001 -5.653837e-001
    outer loop
      vertex  1.268909e+000  1.735077e+000  1.112382e+000
      vertex  1.391649e+000  2.082812e+000  1.462701e+000
      vertex  1.439073e+000  1.703014e+000  1.326940e+000
    endloop
  endfacet
  facet normal  6.857537e-001  5.644349e-001 -4.595161e-001
    outer loop
      vertex  1.268909e+000  1.735077e+000  1.112382e+000
      vertex  1.439073e+000  1.703014e+000  1.326940e+000
      vertex  1.322164e+000  1.524615e+000  9.333398e-001
    endloop
  endfacet
  facet normal  6.860855e-001  5.640817e-001 -4.594545e-001
    outer loop
      vertex  1.322164e+000  1.524615e+000  9.333398e-001
      vertex  1.439073e+000  1.703014e+000  1.326940e+000
      vertex  1.595333e+000  1.234126e+000  9.846131e-001
    endloop
  endfacet
  facet normal  7.242493e-001  6.326646e-001 -2.742233e-001
    outer loop
      vertex  1.322164e+000  1.524615e+000  9.333398e-001
      vertex  1.595333e+000  1.234126e+000  9.846131e-001
      vertex  1.383223e+000  1.370974e+000  7.401354e-001
    endloop
  endfacet
  facet normal  7.069531e-001  7.069508e-001 -2.092602e-002
    outer loop
      vertex  2.500000e+000  1.499983e-001  5.990603e-007
      vertex  1.500002e+000  1.150000e+000  1.653219e-016
      vertex  1.822393e+000  8.338203e-001  2.098944e-001
    endloop
  endfacet
  facet normal  7.065325e-001  7.074094e-001 -1.958896e-002
    outer loop
      vertex  1.822393e+000  8.338203e-001  2.098944e-001
      vertex  1.500002e+000  1.150000e+000  1.653219e-016
      vertex  1.497318e+000  1.156283e+000  1.300957e-001
    endloop
  endfacet
  facet normal  7.121408e-001  6.968678e-001 -8.503374e-002
    outer loop
      vertex  1.822393e+000  8.338203e-001  2.098944e-001
      vertex  1.497318e+000  1.156283e+000  1.300957e-001
      vertex  1.738535e+000  9.690131e-001  6.155326e-001
    endloop
  endfacet
  facet normal  6.970236e-001  7.135144e-001 -7.110000e-002
    outer loop
      vertex  1.738535e+000  9.690131e-001  6.155326e-001
      vertex  1.497318e+000  1.156283e+000  1.300957e-001
      vertex  1.465977e+000  1.215254e+000  4.146417e-001
    endloop
  endfacet
  facet normal  7.310087e-001  6.560661e-001 -1.876263e-001
    outer loop
      vertex  1.738535e+000  9.690131e-001  6.155326e-001
      vertex  1.465977e+000  1.215254e+000  4.146417e-001
      vertex  1.595333e+000  1.234126e+000  9.846131e-001
    endloop
  endfacet
  facet normal  6.686424e-001  7.225347e-001 -1.756729e-001
    outer loop
      vertex  1.595333e+000  1.234126e+000  9.846131e-001
      vertex  1.465977e+000  1.215254e+000  4.146417e-001
      vertex  1.383223e+000  1.370974e+000  7.401354e-001
    endloop
  endfacet
  facet normal  7.140843e-001 -6.971183e-001 -6.410672e-002
    outer loop
      vertex  1.829636e+000  4.177544e+000  1.221119e-001
      vertex  2.434842e+000  4.756563e+000  5.670482e-001
      vertex  1.764728e+000  4.074112e+000  5.238574e-001
    endloop
  endfacet
  facet normal  7.130259e-001 -6.936825e-001 -1.019739e-001
    outer loop
      vertex  1.764728e+000  4.074112e+000  5.238574e-001
      vertex  2.434842e+000  4.756563e+000  5.670482e-001
      vertex  2.339073e+000  4.611756e+000  8.824615e-001
    endloop
  endfacet
  facet normal  7.250329e-001 -6.709952e-001 -1.552188e-001
    outer loop
      vertex  1.764728e+000  4.074112e+000  5.238574e-001
      vertex  2.339073e+000  4.611756e+000  8.824615e-001
      vertex  1.641370e+000  3.858533e+000  8.795754e-001
    endloop
  endfacet
  facet normal  7.170631e-001 -6.633881e-001 -2.138618e-001
    outer loop
      vertex  1.641370e+000  3.858533e+000  8.795754e-001
      vertex  2.339073e+000  4.611756e+000  8.824615e-001
      vertex  2.098628e+000  4.198364e+000  1.358588e+000
    endloop
  endfacet
  facet normal  7.540891e-001 -5.798071e-001 -3.085019e-001
    outer loop
      vertex  1.641370e+000  3.858533e+000  8.795754e-001
      vertex  2.098628e+000  4.198364e+000  1.358588e+000
      vertex  1.477328e+000  3.454051e+000  1.238791e+000
    endloop
  endfacet
  facet normal  7.257254e-001 -5.364569e-001 -4.307398e-001
    outer loop
      vertex  1.477328e+000  3.454051e+000  1.238791e+000
      vertex  2.098628e+000  4.198364e+000  1.358588e+000
      vertex  1.834628e+000  3.568475e+000  1.698276e+000
    endloop
  endfacet
  facet normal  7.771633e-001 -3.632557e-001 -5.138701e-001
    outer loop
      vertex  1.477328e+000  3.454051e+000  1.238791e+000
      vertex  1.834628e+000  3.568475e+000  1.698276e+000
      vertex  1.397251e+000  2.993831e+000  1.443015e+000
    endloop
  endfacet
  facet normal  7.259544e-001 -2.719403e-001 -6.316951e-001
    outer loop
      vertex  1.397251e+000  2.993831e+000  1.443015e+000
      vertex  1.834628e+000  3.568475e+000  1.698276e+000
      vertex  1.722322e+000  3.004332e+000  1.812072e+000
    endloop
  endfacet
  facet normal  7.470601e-001 -1.148858e-001 -6.547538e-001
    outer loop
      vertex  1.397251e+000  2.993831e+000  1.443015e+000
      vertex  1.722322e+000  3.004332e+000  1.812072e+000
      vertex  1.380482e+000  2.500000e+000  1.510532e+000
    endloop
  endfacet
  facet normal  6.702900e-001 -1.067240e-002 -7.420225e-001
    outer loop
      vertex  1.380482e+000  2.500000e+000  1.510532e+000
      vertex  1.722322e+000  3.004332e+000  1.812072e+000
      vertex  1.715125e+000  2.078567e+000  1.818886e+000
    endloop
  endfacet
  facet normal  7.374038e-001  9.638596e-002 -6.685398e-001
    outer loop
      vertex  1.380482e+000  2.500000e+000  1.510532e+000
      vertex  1.715125e+000  2.078567e+000  1.818886e+000
      vertex  1.391649e+000  2.082812e+000  1.462701e+000
    endloop
  endfacet
  facet normal  7.043909e-001  3.152803e-001 -6.359494e-001
    outer loop
      vertex  1.391649e+000  2.082812e+000  1.462701e+000
      vertex  1.715125e+000  2.078567e+000  1.818886e+000
      vertex  1.439073e+000  1.703014e+000  1.326940e+000
    endloop
  endfacet
  facet normal  7.821179e-001  1.987305e-001 -5.905911e-001
    outer loop
      vertex  1.439073e+000  1.703014e+000  1.326940e+000
      vertex  1.715125e+000  2.078567e+000  1.818886e+000
      vertex  1.779400e+000  1.638889e+000  1.756057e+000
    endloop
  endfacet
  facet normal  6.858820e-001  5.641630e-001 -4.596587e-001
    outer loop
      vertex  1.439073e+000  1.703014e+000  1.326940e+000
      vertex  1.779400e+000  1.638889e+000  1.756057e+000
      vertex  1.595333e+000  1.234126e+000  9.846131e-001
    endloop
  endfacet
  facet normal  7.829710e-001  4.541443e-001 -4.250993e-001
    outer loop
      vertex  1.595333e+000  1.234126e+000  9.846131e-001
      vertex  1.779400e+000  1.638889e+000  1.756057e+000
      vertex  2.019554e+000  9.604288e-001  1.473568e+000
    endloop
  endfacet
  facet normal  6.957062e-001  6.834801e-001 -2.210153e-001
    outer loop
      vertex  1.595333e+000  1.234126e+000  9.846131e-001
      vertex  2.019554e+000  9.604288e-001  1.473568e+000
      vertex  1.738535e+000  9.690131e-001  6.155326e-001
    endloop
  endfacet
  facet normal  7.415532e-001  6.277937e-001 -2.365879e-001
    outer loop
      vertex  1.738535e+000  9.690131e-001  6.155326e-001
      vertex  2.019554e+000  9.604288e-001  1.473568e+000
      vertex  2.283653e+000  4.765313e-001  1.017315e+000
    endloop
  endfacet
  facet normal  7.032534e-001  7.052618e-001 -8.966862e-002
    outer loop
      vertex  1.738535e+000  9.690131e-001  6.155326e-001
      vertex  2.283653e+000  4.765313e-001  1.017315e+000
      vertex  1.822393e+000  8.338203e-001  2.098944e-001
    endloop
  endfacet
  facet normal  7.298906e-001  6.731058e-001 -1.191150e-001
    outer loop
      vertex  1.822393e+000  8.338203e-001  2.098944e-001
      vertex  2.283653e+000  4.765313e-001  1.017315e+000
      vertex  2.395469e+000  3.018453e-001  7.153504e-001
    endloop
  endfacet
  facet normal  7.111281e-001  6.995701e-001 -6.998974e-002
    outer loop
      vertex  1.822393e+000  8.338203e-001  2.098944e-001
      vertex  2.395469e+000  3.018453e-001  7.153504e-001
      vertex  2.472544e+000  1.888948e-001  3.694919e-001
    endloop
  endfacet
  facet normal  7.302846e-001  6.785991e-001 -7.866234e-002
    outer loop
      vertex  2.193956e+000  2.700000e+001 -1.198564e+000
      vertex  2.117829e+000  2.729289e+001  6.213878e-001
      vertex  2.398874e+000  2.700000e+001  7.038488e-001
    endloop
  endfacet
  facet normal  5.720117e-001  6.785992e-001  4.607665e-001
    outer loop
      vertex  2.398874e+000  2.700000e+001  7.038488e-001
      vertex  2.117829e+000  2.729289e+001  6.213878e-001
      vertex  1.058143e+000  2.729289e+001  1.936918e+000
    endloop
  endfacet
  facet normal  5.720116e-001  6.785992e-001  4.607664e-001
    outer loop
      vertex  2.398874e+000  2.700000e+001  7.038488e-001
      vertex  1.058143e+000  2.729289e+001  1.936918e+000
      vertex  1.198564e+000  2.700000e+001  2.193956e+000
    endloop
  endfacet
  facet normal  7.302844e-001  6.785994e-001 -7.866238e-002
    outer loop
      vertex  2.117829e+000  2.729289e+001  6.213878e-001
      vertex  2.193956e+000  2.700000e+001 -1.198564e+000
      vertex  1.936918e+000  2.729289e+001 -1.058143e+000
    endloop
  endfacet
  facet normal  4.607664e-001  6.785992e-001 -5.720116e-001
    outer loop
      vertex  1.936918e+000  2.729289e+001 -1.058143e+000
      vertex  2.193956e+000  2.700000e+001 -1.198564e+000
      vertex  7.038488e-001  2.700000e+001 -2.398874e+000
    endloop
  endfacet
  facet normal  4.607665e-001  6.785992e-001 -5.720117e-001
    outer loop
      vertex  1.936918e+000  2.729289e+001 -1.058143e+000
      vertex  7.038488e-001  2.700000e+001 -2.398874e+000
      vertex  6.213878e-001  2.729289e+001 -2.117829e+000
    endloop
  endfacet
  facet normal -7.866234e-002  6.785991e-001 -7.302846e-001
    outer loop
      vertex  6.213878e-001  2.729289e+001 -2.117829e+000
      vertex  7.038488e-001  2.700000e+001 -2.398874e+000
      vertex -1.198564e+000  2.700000e+001 -2.193956e+000
    endloop
  endfacet
  facet normal -7.866238e-002  6.785994e-001 -7.302844e-001
    outer loop
      vertex  6.213878e-001  2.729289e+001 -2.117829e+000
      vertex -1.198564e+000  2.700000e+001 -2.193956e+000
      vertex -1.058143e+000  2.729289e+001 -1.936918e+000
    endloop
  endfacet
  facet normal -7.302846e-001  6.785991e-001  7.866234e-002
    outer loop
      vertex -2.193956e+000  2.700000e+001  1.198564e+000
      vertex -2.117829e+000  2.729289e+001 -6.213878e-001
      vertex -2.398874e+000  2.700000e+001 -7.038488e-001
    endloop
  endfacet
  facet normal -5.720117e-001  6.785992e-001 -4.607665e-001
    outer loop
      vertex -2.398874e+000  2.700000e+001 -7.038488e-001
      vertex -2.117829e+000  2.729289e+001 -6.213878e-001
      vertex -1.058143e+000  2.729289e+001 -1.936918e+000
    endloop
  endfacet
  facet normal -5.720116e-001  6.785992e-001 -4.607664e-001
    outer loop
      vertex -2.398874e+000  2.700000e+001 -7.038488e-001
      vertex -1.058143e+000  2.729289e+001 -1.936918e+000
      vertex -1.198564e+000  2.700000e+001 -2.193956e+000
    endloop
  endfacet
  facet normal -7.302844e-001  6.785994e-001  7.866238e-002
    outer loop
      vertex -2.117829e+000  2.729289e+001 -6.213878e-001
      vertex -2.193956e+000  2.700000e+001  1.198564e+000
      vertex -1.936918e+000  2.729289e+001  1.058143e+000
    endloop
  endfacet
  facet normal -4.607664e-001  6.785992e-001  5.720116e-001
    outer loop
      vertex -1.936918e+000  2.729289e+001  1.058143e+000
      vertex -2.193956e+000  2.700000e+001  1.198564e+000
      vertex -7.038488e-001  2.700000e+001  2.398874e+000
    endloop
  endfacet
  facet normal -4.607665e-001  6.785992e-001  5.720117e-001
    outer loop
      vertex -1.936918e+000  2.729289e+001  1.058143e+000
      vertex -7.038488e-001  2.700000e+001  2.398874e+000
      vertex -6.213878e-001  2.729289e+001  2.117829e+000
    endloop
  endfacet
  facet normal  7.866234e-002  6.785991e-001  7.302846e-001
    outer loop
      vertex -6.213878e-001  2.729289e+001  2.117829e+000
      vertex -7.038488e-001  2.700000e+001  2.398874e+000
      vertex  1.198564e+000  2.700000e+001  2.193956e+000
    endloop
  endfacet
  facet normal  7.866238e-002  6.785994e-001  7.302844e-001
    outer loop
      vertex -6.213878e-001  2.729289e+001  2.117829e+000
      vertex  1.198564e+000  2.700000e+001  2.193956e+000
      vertex  1.058143e+000  2.729289e+001  1.936918e+000
    endloop
  endfacet
  facet normal  6.273124e-001  0.000000e+000 -7.787677e-001
    outer loop
      vertex -1.316374e+000  2.500000e+001  7.191383e-001
      vertex -4.223093e-001  2.729289e+001  1.439324e+000
      vertex -4.223093e-001  2.500000e+001  1.439324e+000
    endloop
  endfacet
  facet normal -1.070952e-001  0.000000e+000 -9.942487e-001
    outer loop
      vertex -4.223093e-001  2.500000e+001  1.439324e+000
      vertex -4.223093e-001  2.729289e+001  1.439324e+000
      vertex  7.191383e-001  2.729289e+001  1.316374e+000
    endloop
  endfacet
  facet normal -1.070952e-001  -0.000000e+000 -9.942487e-001
    outer loop
      vertex -4.223093e-001  2.500000e+001  1.439324e+000
      vertex  7.191383e-001  2.729289e+001  1.316374e+000
      vertex  7.191383e-001  2.500000e+001  1.316374e+000
    endloop
  endfacet
  facet normal  6.273124e-001  0.000000e+000 -7.787677e-001
    outer loop
      vertex -4.223093e-001  2.729289e+001  1.439324e+000
      vertex -1.316374e+000  2.500000e+001  7.191383e-001
      vertex -1.316374e+000  2.729289e+001  7.191383e-001
    endloop
  endfacet
  facet normal  9.942487e-001  0.000000e+000 -1.070952e-001
    outer loop
      vertex -1.316374e+000  2.729289e+001  7.191383e-001
      vertex -1.316374e+000  2.500000e+001  7.191383e-001
      vertex -1.439324e+000  2.500000e+001 -4.223093e-001
    endloop
  endfacet
  facet normal  9.942487e-001  0.000000e+000 -1.070952e-001
    outer loop
      vertex -1.316374e+000  2.729289e+001  7.191383e-001
      vertex -1.439324e+000  2.500000e+001 -4.223093e-001
      vertex -1.439324e+000  2.729289e+001 -4.223093e-001
    endloop
  endfacet
  facet normal  7.787677e-001  0.000000e+000  6.273124e-001
    outer loop
      vertex -1.439324e+000  2.729289e+001 -4.223093e-001
      vertex -1.439324e+000  2.500000e+001 -4.223093e-001
      vertex -7.191383e-001  2.500000e+001 -1.316374e+000
    endloop
  endfacet
  facet normal  7.787677e-001  -0.000000e+000  6.273124e-001
    outer loop
      vertex -1.439324e+000  2.729289e+001 -4.223093e-001
      vertex -7.191383e-001  2.500000e+001 -1.316374e+000
      vertex -7.191383e-001  2.729289e+001 -1.316374e+000
    endloop
  endfacet
  facet normal -6.273124e-001  0.000000e+000  7.787677e-001
    outer loop
      vertex  1.316374e+000  2.500000e+001 -7.191383e-001
      vertex  4.223093e-001  2.729289e+001 -1.439324e+000
      vertex  4.223093e-001  2.500000e+001 -1.439324e+000
    endloop
  endfacet
  facet normal  1.070952e-001  -0.000000e+000  9.942487e-001
    outer loop
      vertex  4.223093e-001  2.500000e+001 -1.439324e+000
      vertex  4.223093e-001  2.729289e+001 -1.439324e+000
      vertex -7.191383e-001  2.729289e+001 -1.316374e+000
    endloop
  endfacet
  facet normal  1.070952e-001  0.000000e+000  9.942487e-001
    outer loop
      vertex  4.223093e-001  2.500000e+001 -1.439324e+000
      vertex -7.191383e-001  2.729289e+001 -1.316374e+000
      vertex -7.191383e-001  2.500000e+001 -1.316374e+000
    endloop
  endfacet
  facet normal -6.273124e-001  0.000000e+000  7.787677e-001
    outer loop
      vertex  4.223093e-001  2.729289e+001 -1.439324e+000
      vertex  1.316374e+000  2.500000e+001 -7.191383e-001
      vertex  1.316374e+000  2.729289e+001 -7.191383e-001
    endloop
  endfacet
  facet normal -9.942487e-001  0.000000e+000  1.070952e-001
    outer loop
      vertex  1.316374e+000  2.729289e+001 -7.191383e-001
      vertex  1.316374e+000  2.500000e+001 -7.191383e-001
      vertex  1.439324e+000  2.500000e+001  4.223093e-001
    endloop
  endfacet
  facet normal -9.942487e-001  0.000000e+000  1.070952e-001
    outer loop
      vertex  1.316374e+000  2.729289e+001 -7.191383e-001
      vertex  1.439324e+000  2.500000e+001  4.223093e-001
      vertex  1.439324e+000  2.729289e+001  4.223093e-001
    endloop
  endfacet
  facet normal -7.787677e-001  -0.000000e+000 -6.273124e-001
    outer loop
      vertex  1.439324e+000  2.729289e+001  4.223093e-001
      vertex  1.439324e+000  2.500000e+001  4.223093e-001
      vertex  7.191383e-001  2.500000e+001  1.316374e+000
    endloop
  endfacet
  facet normal -7.787677e-001  0.000000e+000 -6.273124e-001
    outer loop
      vertex  1.439324e+000  2.729289e+001  4.223093e-001
      vertex  7.191383e-001  2.500000e+001  1.316374e+000
      vertex  7.191383e-001  2.729289e+001  1.316374e+000
    endloop
  endfacet
  facet normal  0.000000e+000  1.000000e+000  0.000000e+000
    outer loop
      vertex -1.936918e+000  2.729289e+001  1.058143e+000
      vertex -1.439324e+000  2.729289e+001 -4.223093e-001
      vertex -2.117829e+000  2.729289e+001 -6.213878e-001
    endloop
  endfacet
  facet normal  -0.000000e+000  1.000000e+000  0.000000e+000
    outer loop
      vertex -2.117829e+000  2.729289e+001 -6.213878e-001
      vertex -1.439324e+000  2.729289e+001 -4.223093e-001
      vertex -7.191383e-001  2.729289e+001 -1.316374e+000
    endloop
  endfacet
  facet normal  0.000000e+000  1.000000e+000  0.000000e+000
    outer loop
      vertex -2.117829e+000  2.729289e+001 -6.213878e-001
      vertex -7.191383e-001  2.729289e+001 -1.316374e+000
      vertex -1.058143e+000  2.729289e+001 -1.936918e+000
    endloop
  endfacet
  facet normal  0.000000e+000  1.000000e+000  0.000000e+000
    outer loop
      vertex -1.439324e+000  2.729289e+001 -4.223093e-001
      vertex -1.936918e+000  2.729289e+001  1.058143e+000
      vertex -1.316374e+000  2.729289e+001  7.191383e-001
    endloop
  endfacet
  facet normal  0.000000e+000  1.000000e+000  -0.000000e+000
    outer loop
      vertex -1.316374e+000  2.729289e+001  7.191383e-001
      vertex -1.936918e+000  2.729289e+001  1.058143e+000
      vertex -6.213878e-001  2.729289e+001  2.117829e+000
    endloop
  endfacet
  facet normal  0.000000e+000  1.000000e+000  0.000000e+000
    outer loop
      vertex -1.316374e+000  2.729289e+001  7.191383e-001
      vertex -6.213878e-001  2.729289e+001  2.117829e+000
      vertex -4.223093e-001  2.729289e+001  1.439324e+000
    endloop
  endfacet
  facet normal  0.000000e+000  1.000000e+000  -0.000000e+000
    outer loop
      vertex -4.223093e-001  2.729289e+001  1.439324e+000
      vertex -6.213878e-001  2.729289e+001  2.117829e+000
      vertex  1.058143e+000  2.729289e+001  1.936918e+000
    endloop
  endfacet
  facet normal  0.000000e+000  1.000000e+000  0.000000e+000
    outer loop
      vertex -4.223093e-001  2.729289e+001  1.439324e+000
      vertex  1.058143e+000  2.729289e+001  1.936918e+000
      vertex  7.191383e-001  2.729289e+001  1.316374e+000
    endloop
  endfacet
  facet normal  -0.000000e+000  1.000000e+000  0.000000e+000
    outer loop
      vertex  1.936918e+000  2.729289e+001 -1.058143e+000
      vertex  1.439324e+000  2.729289e+001  4.223093e-001
      vertex  2.117829e+000  2.729289e+001  6.213878e-001
    endloop
  endfacet
  facet normal  0.000000e+000  1.000000e+000  0.000000e+000
    outer loop
      vertex  2.117829e+000  2.729289e+001  6.213878e-001
      vertex  1.439324e+000  2.729289e+001  4.223093e-001
      vertex  7.191383e-001  2.729289e+001  1.316374e+000
    endloop
  endfacet
  facet normal  -0.000000e+000  1.000000e+000  0.000000e+000
    outer loop
      vertex  2.117829e+000  2.729289e+001  6.213878e-001
      vertex  7.191383e-001  2.729289e+001  1.316374e+000
      vertex  1.058143e+000  2.729289e+001  1.936918e+000
    endloop
  endfacet
  facet normal  0.000000e+000  1.000000e+000  0.000000e+000
    outer loop
      vertex  1.439324e+000  2.729289e+001  4.223093e-001
      vertex  1.936918e+000  2.729289e+001 -1.058143e+000
      vertex  1.316374e+000  2.729289e+001 -7.191383e-001
    endloop
  endfacet
  facet normal  0.000000e+000  1.000000e+000  0.000000e+000
    outer loop
      vertex  1.316374e+000  2.729289e+001 -7.191383e-001
      vertex  1.936918e+000  2.729289e+001 -1.058143e+000
      vertex  6.213878e-001  2.729289e+001 -2.117829e+000
    endloop
  endfacet
  facet normal  0.000000e+000  1.000000e+000  -0.000000e+000
    outer loop
      vertex  1.316374e+000  2.729289e+001 -7.191383e-001
      vertex  6.213878e-001  2.729289e+001 -2.117829e+000
      vertex  4.223093e-001  2.729289e+001 -1.439324e+000
    endloop
  endfacet
  facet normal  0.000000e+000  1.000000e+000  0.000000e+000
    outer loop
      vertex  4.223093e-001  2.729289e+001 -1.439324e+000
      vertex  6.213878e-001  2.729289e+001 -2.117829e+000
      vertex -1.058143e+000  2.729289e+001 -1.936918e+000
    endloop
  endfacet
  facet normal  0.000000e+000  1.000000e+000  0.000000e+000
    outer loop
      vertex  4.223093e-001  2.729289e+001 -1.439324e+000
      vertex -1.058143e+000  2.729289e+001 -1.936918e+000
      vertex -7.191383e-001  2.729289e+001 -1.316374e+000
    endloop
  endfacet
  facet normal  -0.000000e+000  1.000000e+000  0.000000e+000
    outer loop
      vertex  4.223093e-001  2.500000e+001 -1.439324e+000
      vertex -7.191383e-001  2.500000e+001 -1.316374e+000
      vertex  1.316374e+000  2.500000e+001 -7.191383e-001
    endloop
  endfacet
  facet normal  0.000000e+000  1.000000e+000  0.000000e+000
    outer loop
      vertex  1.316374e+000  2.500000e+001 -7.191383e-001
      vertex -7.191383e-001  2.500000e+001 -1.316374e+000
      vertex -1.439324e+000  2.500000e+001 -4.223093e-001
    endloop
  endfacet
  facet normal  -0.000000e+000  1.000000e+000  0.000000e+000
    outer loop
      vertex  1.316374e+000  2.500000e+001 -7.191383e-001
      vertex -1.439324e+000  2.500000e+001 -4.223093e-001
      vertex  1.439324e+000  2.500000e+001  4.223093e-001
    endloop
  endfacet
  facet normal  0.000000e+000  1.000000e+000  0.000000e+000
    outer loop
      vertex  1.439324e+000  2.500000e+001  4.223093e-001
      vertex -1.439324e+000  2.500000e+001 -4.223093e-001
      vertex -1.316374e+000  2.500000e+001  7.191383e-001
    endloop
  endfacet
  facet normal  -0.000000e+000  1.000000e+000  0.000000e+000
    outer loop
      vertex  1.439324e+000  2.500000e+001  4.223093e-001
      vertex -1.316374e+000  2.500000e+001  7.191383e-001
      vertex  7.191383e-001  2.500000e+001  1.316374e+000
    endloop
  endfacet
  facet normal  0.000000e+000  1.000000e+000  0.000000e+000
    outer loop
      vertex  7.191383e-001  2.500000e+001  1.316374e+000
      vertex -1.316374e+000  2.500000e+001  7.191383e-001
      vertex -4.223093e-001  2.500000e+001  1.439324e+000
    endloop
  endfacet
  facet normal  0.000000e+000 -1.000000e+000  0.000000e+000
    outer loop
      vertex  2.193956e+000  0.000000e+000 -1.198564e+000
      vertex -1.198564e+000  0.000000e+000 -2.193956e+000
      vertex  7.038488e-001  0.000000e+000 -2.398874e+000
    endloop
  endfacet
  facet normal  -0.000000e+000 -1.000000e+000  0.000000e+000
    outer loop
      vertex -1.198564e+000  0.000000e+000 -2.193956e+000
      vertex  2.193956e+000  0.000000e+000 -1.198564e+000
      vertex -2.398874e+000  0.000000e+000 -7.038488e-001
    endloop
  endfacet
  facet normal  0.000000e+000 -1.000000e+000  0.000000e+000
    outer loop
      vertex -2.398874e+000  0.000000e+000 -7.038488e-001
      vertex  2.193956e+000  0.000000e+000 -1.198564e+000
      vertex  2.398874e+000  0.000000e+000  7.038488e-001
    endloop
  endfacet
  facet normal  -0.000000e+000 -1.000000e+000  0.000000e+000
    outer loop
      vertex -2.398874e+000  0.000000e+000 -7.038488e-001
      vertex  2.398874e+000  0.000000e+000  7.038488e-001
      vertex -2.193956e+000  0.000000e+000  1.198564e+000
    endloop
  endfacet
  facet normal  0.000000e+000 -1.000000e+000  0.000000e+000
    outer loop
      vertex -2.193956e+000  0.000000e+000  1.198564e+000
      vertex  2.398874e+000  0.000000e+000  7.038488e-001
      vertex  1.198564e+000  0.000000e+000  2.193956e+000
    endloop
  endfacet
  facet normal  -0.000000e+000 -1.000000e+000  0.000000e+000
    outer loop
      vertex -2.193956e+000  0.000000e+000  1.198564e+000
      vertex  1.198564e+000  0.000000e+000  2.193956e+000
      vertex -7.038488e-001  0.000000e+000  2.398874e+000
    endloop
  endfacet
endsolid CATIA STL
