solid CATIA STL
  facet normal  0.000000e+000  0.000000e+000  9.999999e-001
    outer loop
      vertex -2.000000e+000 -1.500000e+000  1.000000e+001
      vertex -2.442707e+000 -5.321482e-001  1.000000e+001
      vertex -7.132924e+000 -2.317627e+000  1.000000e+001
    endloop
  endfacet
  facet normal  -0.000000e+000  0.000000e+000  1.000000e+000
    outer loop
      vertex -2.000000e+000 -1.500000e+000  1.000000e+001
      vertex -7.132924e+000 -2.317627e+000  1.000000e+001
      vertex -8.039020e-015 -7.500000e+000  1.000000e+001
    endloop
  endfacet
  facet normal  0.000000e+000  -0.000000e+000  1.000000e+000
    outer loop
      vertex -2.000000e+000 -1.500000e+000  1.000000e+001
      vertex -8.039020e-015 -7.500000e+000  1.000000e+001
      vertex  7.132924e+000 -2.317627e+000  1.000000e+001
    endloop
  endfacet
  facet normal  0.000000e+000  0.000000e+000  1.000000e+000
    outer loop
      vertex -2.000000e+000 -1.500000e+000  1.000000e+001
      vertex  7.132924e+000 -2.317627e+000  1.000000e+001
      vertex  2.000000e+000 -1.500000e+000  1.000000e+001
    endloop
  endfacet
  facet normal  0.000000e+000  0.000000e+000  1.000000e+000
    outer loop
      vertex -8.039020e-015 -7.500000e+000  1.000000e+001
      vertex -7.132924e+000 -2.317627e+000  1.000000e+001
      vertex -6.067627e+000 -4.408390e+000  1.000000e+001
    endloop
  endfacet
  facet normal  0.000000e+000  0.000000e+000  1.000000e+000
    outer loop
      vertex -8.039020e-015 -7.500000e+000  1.000000e+001
      vertex -6.067627e+000 -4.408390e+000  1.000000e+001
      vertex -4.408390e+000 -6.067627e+000  1.000000e+001
    endloop
  endfacet
  facet normal  0.000000e+000  0.000000e+000  1.000000e+000
    outer loop
      vertex -8.039020e-015 -7.500000e+000  1.000000e+001
      vertex -4.408390e+000 -6.067627e+000  1.000000e+001
      vertex -2.317627e+000 -7.132924e+000  1.000000e+001
    endloop
  endfacet
  facet normal  0.000000e+000  -0.000000e+000  1.000000e+000
    outer loop
      vertex -8.039020e-015 -7.500000e+000  1.000000e+001
      vertex  2.317627e+000 -7.132924e+000  1.000000e+001
      vertex  4.408390e+000 -6.067627e+000  1.000000e+001
    endloop
  endfacet
  facet normal  0.000000e+000  -0.000000e+000  1.000000e+000
    outer loop
      vertex -8.039020e-015 -7.500000e+000  1.000000e+001
      vertex  4.408390e+000 -6.067627e+000  1.000000e+001
      vertex  6.067627e+000 -4.408390e+000  1.000000e+001
    endloop
  endfacet
  facet normal  0.000000e+000  -0.000000e+000  1.000000e+000
    outer loop
      vertex -8.039020e-015 -7.500000e+000  1.000000e+001
      vertex  6.067627e+000 -4.408390e+000  1.000000e+001
      vertex  7.132924e+000 -2.317627e+000  1.000000e+001
    endloop
  endfacet
  facet normal  0.000000e+000  0.000000e+000  1.000000e+000
    outer loop
      vertex -4.408390e+000  6.067627e+000  1.000000e+001
      vertex -6.067627e+000  4.408390e+000  1.000000e+001
      vertex -2.317627e+000  7.132924e+000  1.000000e+001
    endloop
  endfacet
  facet normal  0.000000e+000  0.000000e+000  1.000000e+000
    outer loop
      vertex -2.317627e+000  7.132924e+000  1.000000e+001
      vertex -6.067627e+000  4.408390e+000  1.000000e+001
      vertex -7.132924e+000  2.317627e+000  1.000000e+001
    endloop
  endfacet
  facet normal  0.000000e+000  0.000000e+000  1.000000e+000
    outer loop
      vertex -2.317627e+000  7.132924e+000  1.000000e+001
      vertex -7.132924e+000  2.317627e+000  1.000000e+001
      vertex  2.124562e-015  7.500000e+000  1.000000e+001
    endloop
  endfacet
  facet normal  0.000000e+000  0.000000e+000  1.000000e+000
    outer loop
      vertex  2.124562e-015  7.500000e+000  1.000000e+001
      vertex -7.132924e+000  2.317627e+000  1.000000e+001
      vertex -2.000000e+000  1.500000e+000  1.000000e+001
    endloop
  endfacet
  facet normal  0.000000e+000  0.000000e+000  1.000000e+000
    outer loop
      vertex  2.124562e-015  7.500000e+000  1.000000e+001
      vertex -2.000000e+000  1.500000e+000  1.000000e+001
      vertex  2.317627e+000  7.132924e+000  1.000000e+001
    endloop
  endfacet
  facet normal  0.000000e+000  0.000000e+000  1.000000e+000
    outer loop
      vertex  2.317627e+000  7.132924e+000  1.000000e+001
      vertex -2.000000e+000  1.500000e+000  1.000000e+001
      vertex  2.000000e+000  1.500000e+000  1.000000e+001
    endloop
  endfacet
  facet normal  0.000000e+000  0.000000e+000  1.000000e+000
    outer loop
      vertex  2.317627e+000  7.132924e+000  1.000000e+001
      vertex  2.000000e+000  1.500000e+000  1.000000e+001
      vertex  4.408390e+000  6.067627e+000  1.000000e+001
    endloop
  endfacet
  facet normal  0.000000e+000  0.000000e+000  1.000000e+000
    outer loop
      vertex  6.067627e+000  4.408390e+000  1.000000e+001
      vertex  4.408390e+000  6.067627e+000  1.000000e+001
      vertex  7.132924e+000  2.317627e+000  1.000000e+001
    endloop
  endfacet
  facet normal  0.000000e+000  0.000000e+000  1.000000e+000
    outer loop
      vertex  7.132924e+000  2.317627e+000  1.000000e+001
      vertex  4.408390e+000  6.067627e+000  1.000000e+001
      vertex  2.000000e+000  1.500000e+000  1.000000e+001
    endloop
  endfacet
  facet normal  -0.000000e+000  0.000000e+000  9.999999e-001
    outer loop
      vertex  7.132924e+000  2.317627e+000  1.000000e+001
      vertex  2.000000e+000  1.500000e+000  1.000000e+001
      vertex  7.500000e+000  0.000000e+000  1.000000e+001
    endloop
  endfacet
  facet normal  0.000000e+000  0.000000e+000  1.000000e+000
    outer loop
      vertex  7.500000e+000  0.000000e+000  1.000000e+001
      vertex  2.000000e+000  1.500000e+000  1.000000e+001
      vertex  2.442707e+000  5.321482e-001  1.000000e+001
    endloop
  endfacet
  facet normal  0.000000e+000  0.000000e+000  1.000000e+000
    outer loop
      vertex  7.500000e+000  0.000000e+000  1.000000e+001
      vertex  2.442707e+000  5.321482e-001  1.000000e+001
      vertex  7.132924e+000 -2.317627e+000  1.000000e+001
    endloop
  endfacet
  facet normal  0.000000e+000  0.000000e+000  1.000000e+000
    outer loop
      vertex  7.132924e+000 -2.317627e+000  1.000000e+001
      vertex  2.442707e+000  5.321482e-001  1.000000e+001
      vertex  2.442707e+000 -5.321482e-001  1.000000e+001
    endloop
  endfacet
  facet normal  0.000000e+000  0.000000e+000  9.999999e-001
    outer loop
      vertex  7.132924e+000 -2.317627e+000  1.000000e+001
      vertex  2.442707e+000 -5.321482e-001  1.000000e+001
      vertex  2.000000e+000 -1.500000e+000  1.000000e+001
    endloop
  endfacet
  facet normal  0.000000e+000  0.000000e+000  9.999999e-001
    outer loop
      vertex -7.132924e+000 -2.317627e+000  1.000000e+001
      vertex -2.442707e+000 -5.321482e-001  1.000000e+001
      vertex -7.500000e+000  4.249124e-015  1.000000e+001
    endloop
  endfacet
  facet normal  -0.000000e+000  0.000000e+000  1.000000e+000
    outer loop
      vertex -7.500000e+000  4.249124e-015  1.000000e+001
      vertex -2.442707e+000 -5.321482e-001  1.000000e+001
      vertex -2.442707e+000  5.321482e-001  1.000000e+001
    endloop
  endfacet
  facet normal  0.000000e+000  0.000000e+000  9.999999e-001
    outer loop
      vertex -7.500000e+000  4.249124e-015  1.000000e+001
      vertex -2.442707e+000  5.321482e-001  1.000000e+001
      vertex -7.132924e+000  2.317627e+000  1.000000e+001
    endloop
  endfacet
  facet normal  0.000000e+000  0.000000e+000  1.000000e+000
    outer loop
      vertex -7.132924e+000  2.317627e+000  1.000000e+001
      vertex -2.442707e+000  5.321482e-001  1.000000e+001
      vertex -2.000000e+000  1.500000e+000  1.000000e+001
    endloop
  endfacet
  facet normal  -0.000000e+000  -0.000000e+000 -1.000000e+000
    outer loop
      vertex -2.000000e+000 -1.500000e+000  0.000000e+000
      vertex  2.000000e+000 -1.500000e+000  0.000000e+000
      vertex  7.132924e+000 -2.317627e+000  0.000000e+000
    endloop
  endfacet
  facet normal  -0.000000e+000  0.000000e+000 -1.000000e+000
    outer loop
      vertex -2.000000e+000 -1.500000e+000  0.000000e+000
      vertex  7.132924e+000 -2.317627e+000  0.000000e+000
      vertex -8.039020e-015 -7.500000e+000  0.000000e+000
    endloop
  endfacet
  facet normal  0.000000e+000  0.000000e+000 -1.000000e+000
    outer loop
      vertex -2.000000e+000 -1.500000e+000  0.000000e+000
      vertex -8.039020e-015 -7.500000e+000  0.000000e+000
      vertex -7.132924e+000 -2.317627e+000  0.000000e+000
    endloop
  endfacet
  facet normal  0.000000e+000  0.000000e+000 -1.000000e+000
    outer loop
      vertex -2.000000e+000 -1.500000e+000  0.000000e+000
      vertex -7.132924e+000 -2.317627e+000  0.000000e+000
      vertex -2.442707e+000 -5.321482e-001  0.000000e+000
    endloop
  endfacet
  facet normal  0.000000e+000  0.000000e+000 -1.000000e+000
    outer loop
      vertex -8.039020e-015 -7.500000e+000  0.000000e+000
      vertex -2.317627e+000 -7.132924e+000  0.000000e+000
      vertex -4.408390e+000 -6.067627e+000  0.000000e+000
    endloop
  endfacet
  facet normal  0.000000e+000  0.000000e+000 -1.000000e+000
    outer loop
      vertex -8.039020e-015 -7.500000e+000  0.000000e+000
      vertex -4.408390e+000 -6.067627e+000  0.000000e+000
      vertex -6.067627e+000 -4.408390e+000  0.000000e+000
    endloop
  endfacet
  facet normal  0.000000e+000  0.000000e+000 -1.000000e+000
    outer loop
      vertex -8.039020e-015 -7.500000e+000  0.000000e+000
      vertex -6.067627e+000 -4.408390e+000  0.000000e+000
      vertex -7.132924e+000 -2.317627e+000  0.000000e+000
    endloop
  endfacet
  facet normal  0.000000e+000  0.000000e+000 -1.000000e+000
    outer loop
      vertex -8.039020e-015 -7.500000e+000  0.000000e+000
      vertex  7.132924e+000 -2.317627e+000  0.000000e+000
      vertex  6.067627e+000 -4.408390e+000  0.000000e+000
    endloop
  endfacet
  facet normal  0.000000e+000  0.000000e+000 -1.000000e+000
    outer loop
      vertex -8.039020e-015 -7.500000e+000  0.000000e+000
      vertex  6.067627e+000 -4.408390e+000  0.000000e+000
      vertex  4.408390e+000 -6.067627e+000  0.000000e+000
    endloop
  endfacet
  facet normal  0.000000e+000  0.000000e+000 -1.000000e+000
    outer loop
      vertex -8.039020e-015 -7.500000e+000  0.000000e+000
      vertex  4.408390e+000 -6.067627e+000  0.000000e+000
      vertex  2.317627e+000 -7.132924e+000  0.000000e+000
    endloop
  endfacet
  facet normal  0.000000e+000  0.000000e+000 -1.000000e+000
    outer loop
      vertex  4.408390e+000  6.067627e+000  0.000000e+000
      vertex  2.000000e+000  1.500000e+000  0.000000e+000
      vertex  2.317627e+000  7.132924e+000  0.000000e+000
    endloop
  endfacet
  facet normal  0.000000e+000  0.000000e+000 -1.000000e+000
    outer loop
      vertex  2.317627e+000  7.132924e+000  0.000000e+000
      vertex  2.000000e+000  1.500000e+000  0.000000e+000
      vertex -2.000000e+000  1.500000e+000  0.000000e+000
    endloop
  endfacet
  facet normal  0.000000e+000  0.000000e+000 -1.000000e+000
    outer loop
      vertex  2.317627e+000  7.132924e+000  0.000000e+000
      vertex -2.000000e+000  1.500000e+000  0.000000e+000
      vertex  2.124562e-015  7.500000e+000  0.000000e+000
    endloop
  endfacet
  facet normal  0.000000e+000  0.000000e+000 -1.000000e+000
    outer loop
      vertex  2.124562e-015  7.500000e+000  0.000000e+000
      vertex -2.000000e+000  1.500000e+000  0.000000e+000
      vertex -7.132924e+000  2.317627e+000  0.000000e+000
    endloop
  endfacet
  facet normal  0.000000e+000  0.000000e+000 -1.000000e+000
    outer loop
      vertex  2.124562e-015  7.500000e+000  0.000000e+000
      vertex -7.132924e+000  2.317627e+000  0.000000e+000
      vertex -2.317627e+000  7.132924e+000  0.000000e+000
    endloop
  endfacet
  facet normal  0.000000e+000  0.000000e+000 -1.000000e+000
    outer loop
      vertex -2.317627e+000  7.132924e+000  0.000000e+000
      vertex -7.132924e+000  2.317627e+000  0.000000e+000
      vertex -6.067627e+000  4.408390e+000  0.000000e+000
    endloop
  endfacet
  facet normal  0.000000e+000  0.000000e+000 -1.000000e+000
    outer loop
      vertex -2.317627e+000  7.132924e+000  0.000000e+000
      vertex -6.067627e+000  4.408390e+000  0.000000e+000
      vertex -4.408390e+000  6.067627e+000  0.000000e+000
    endloop
  endfacet
  facet normal  0.000000e+000  -0.000000e+000 -9.999999e-001
    outer loop
      vertex  2.000000e+000 -1.500000e+000  0.000000e+000
      vertex  2.442707e+000 -5.321482e-001  0.000000e+000
      vertex  7.132924e+000 -2.317627e+000  0.000000e+000
    endloop
  endfacet
  facet normal  0.000000e+000  0.000000e+000 -1.000000e+000
    outer loop
      vertex  7.132924e+000 -2.317627e+000  0.000000e+000
      vertex  2.442707e+000 -5.321482e-001  0.000000e+000
      vertex  2.442707e+000  5.321482e-001  0.000000e+000
    endloop
  endfacet
  facet normal  0.000000e+000  0.000000e+000 -1.000000e+000
    outer loop
      vertex  7.132924e+000 -2.317627e+000  0.000000e+000
      vertex  2.442707e+000  5.321482e-001  0.000000e+000
      vertex  7.500000e+000  0.000000e+000  0.000000e+000
    endloop
  endfacet
  facet normal  0.000000e+000  0.000000e+000 -1.000000e+000
    outer loop
      vertex  7.500000e+000  0.000000e+000  0.000000e+000
      vertex  2.442707e+000  5.321482e-001  0.000000e+000
      vertex  2.000000e+000  1.500000e+000  0.000000e+000
    endloop
  endfacet
  facet normal  0.000000e+000  0.000000e+000 -9.999999e-001
    outer loop
      vertex  7.500000e+000  0.000000e+000  0.000000e+000
      vertex  2.000000e+000  1.500000e+000  0.000000e+000
      vertex  7.132924e+000  2.317627e+000  0.000000e+000
    endloop
  endfacet
  facet normal  -0.000000e+000  0.000000e+000 -1.000000e+000
    outer loop
      vertex  7.132924e+000  2.317627e+000  0.000000e+000
      vertex  2.000000e+000  1.500000e+000  0.000000e+000
      vertex  4.408390e+000  6.067627e+000  0.000000e+000
    endloop
  endfacet
  facet normal  0.000000e+000  0.000000e+000 -1.000000e+000
    outer loop
      vertex  7.132924e+000  2.317627e+000  0.000000e+000
      vertex  4.408390e+000  6.067627e+000  0.000000e+000
      vertex  6.067627e+000  4.408390e+000  0.000000e+000
    endloop
  endfacet
  facet normal  0.000000e+000  0.000000e+000 -9.999999e-001
    outer loop
      vertex -7.132924e+000 -2.317627e+000  0.000000e+000
      vertex -7.500000e+000  4.249124e-015  0.000000e+000
      vertex -2.442707e+000 -5.321482e-001  0.000000e+000
    endloop
  endfacet
  facet normal  0.000000e+000  0.000000e+000 -1.000000e+000
    outer loop
      vertex -2.442707e+000 -5.321482e-001  0.000000e+000
      vertex -7.500000e+000  4.249124e-015  0.000000e+000
      vertex -2.442707e+000  5.321482e-001  0.000000e+000
    endloop
  endfacet
  facet normal  0.000000e+000  -0.000000e+000 -9.999999e-001
    outer loop
      vertex -7.500000e+000  4.249124e-015  0.000000e+000
      vertex -7.132924e+000  2.317627e+000  0.000000e+000
      vertex -2.442707e+000  5.321482e-001  0.000000e+000
    endloop
  endfacet
  facet normal  0.000000e+000  0.000000e+000 -9.999999e-001
    outer loop
      vertex -2.442707e+000  5.321482e-001  0.000000e+000
      vertex -7.132924e+000  2.317627e+000  0.000000e+000
      vertex -2.000000e+000  1.500000e+000  0.000000e+000
    endloop
  endfacet
  facet normal  9.093819e-001  4.159622e-001  0.000000e+000
    outer loop
      vertex -2.442707e+000 -5.321482e-001  0.000000e+000
      vertex -2.000000e+000 -1.500000e+000  1.000000e+001
      vertex -2.000000e+000 -1.500000e+000  0.000000e+000
    endloop
  endfacet
  facet normal  9.093819e-001  4.159622e-001  -0.000000e+000
    outer loop
      vertex -2.000000e+000 -1.500000e+000  1.000000e+001
      vertex -2.442707e+000 -5.321482e-001  0.000000e+000
      vertex -2.442707e+000 -5.321482e-001  1.000000e+001
    endloop
  endfacet
  facet normal  1.000000e+000  0.000000e+000  0.000000e+000
    outer loop
      vertex -2.442707e+000 -5.321482e-001  1.000000e+001
      vertex -2.442707e+000 -5.321482e-001  0.000000e+000
      vertex -2.442707e+000  5.321482e-001  0.000000e+000
    endloop
  endfacet
  facet normal  1.000000e+000  0.000000e+000  -0.000000e+000
    outer loop
      vertex -2.442707e+000 -5.321482e-001  1.000000e+001
      vertex -2.442707e+000  5.321482e-001  0.000000e+000
      vertex -2.442707e+000  5.321482e-001  1.000000e+001
    endloop
  endfacet
  facet normal  9.093819e-001 -4.159622e-001  0.000000e+000
    outer loop
      vertex -2.442707e+000  5.321482e-001  1.000000e+001
      vertex -2.442707e+000  5.321482e-001  0.000000e+000
      vertex -2.000000e+000  1.500000e+000  0.000000e+000
    endloop
  endfacet
  facet normal  9.093819e-001 -4.159622e-001  0.000000e+000
    outer loop
      vertex -2.442707e+000  5.321482e-001  1.000000e+001
      vertex -2.000000e+000  1.500000e+000  0.000000e+000
      vertex -2.000000e+000  1.500000e+000  1.000000e+001
    endloop
  endfacet
  facet normal  0.000000e+000  1.000000e+000  0.000000e+000
    outer loop
      vertex -2.000000e+000 -1.500000e+000  0.000000e+000
      vertex -2.000000e+000 -1.500000e+000  1.000000e+001
      vertex  2.000000e+000 -1.500000e+000  0.000000e+000
    endloop
  endfacet
  facet normal  0.000000e+000  1.000000e+000  -0.000000e+000
    outer loop
      vertex  2.000000e+000 -1.500000e+000  0.000000e+000
      vertex -2.000000e+000 -1.500000e+000  1.000000e+001
      vertex  2.000000e+000 -1.500000e+000  1.000000e+001
    endloop
  endfacet
  facet normal -9.093819e-001 -4.159622e-001  -0.000000e+000
    outer loop
      vertex  2.442707e+000  5.321482e-001  0.000000e+000
      vertex  2.000000e+000  1.500000e+000  1.000000e+001
      vertex  2.000000e+000  1.500000e+000  0.000000e+000
    endloop
  endfacet
  facet normal -9.093819e-001 -4.159622e-001  0.000000e+000
    outer loop
      vertex  2.000000e+000  1.500000e+000  1.000000e+001
      vertex  2.442707e+000  5.321482e-001  0.000000e+000
      vertex  2.442707e+000  5.321482e-001  1.000000e+001
    endloop
  endfacet
  facet normal -1.000000e+000  0.000000e+000  -0.000000e+000
    outer loop
      vertex  2.442707e+000  5.321482e-001  1.000000e+001
      vertex  2.442707e+000  5.321482e-001  0.000000e+000
      vertex  2.442707e+000 -5.321482e-001  0.000000e+000
    endloop
  endfacet
  facet normal -1.000000e+000  0.000000e+000  0.000000e+000
    outer loop
      vertex  2.442707e+000  5.321482e-001  1.000000e+001
      vertex  2.442707e+000 -5.321482e-001  0.000000e+000
      vertex  2.442707e+000 -5.321482e-001  1.000000e+001
    endloop
  endfacet
  facet normal -9.093819e-001  4.159622e-001  0.000000e+000
    outer loop
      vertex  2.442707e+000 -5.321482e-001  1.000000e+001
      vertex  2.442707e+000 -5.321482e-001  0.000000e+000
      vertex  2.000000e+000 -1.500000e+000  0.000000e+000
    endloop
  endfacet
  facet normal -9.093819e-001  4.159622e-001  0.000000e+000
    outer loop
      vertex  2.442707e+000 -5.321482e-001  1.000000e+001
      vertex  2.000000e+000 -1.500000e+000  0.000000e+000
      vertex  2.000000e+000 -1.500000e+000  1.000000e+001
    endloop
  endfacet
  facet normal  0.000000e+000 -1.000000e+000  0.000000e+000
    outer loop
      vertex -2.000000e+000  1.500000e+000  0.000000e+000
      vertex  2.000000e+000  1.500000e+000  0.000000e+000
      vertex -2.000000e+000  1.500000e+000  1.000000e+001
    endloop
  endfacet
  facet normal  0.000000e+000 -1.000000e+000  0.000000e+000
    outer loop
      vertex -2.000000e+000  1.500000e+000  1.000000e+001
      vertex  2.000000e+000  1.500000e+000  0.000000e+000
      vertex  2.000000e+000  1.500000e+000  1.000000e+001
    endloop
  endfacet
  facet normal  9.876883e-001 -1.564344e-001  0.000000e+000
    outer loop
      vertex  7.500000e+000  0.000000e+000  0.000000e+000
      vertex  7.500000e+000  0.000000e+000  1.000000e+001
      vertex  7.132924e+000 -2.317627e+000  0.000000e+000
    endloop
  endfacet
  facet normal  9.876883e-001 -1.564344e-001  0.000000e+000
    outer loop
      vertex  7.132924e+000 -2.317627e+000  0.000000e+000
      vertex  7.500000e+000  0.000000e+000  1.000000e+001
      vertex  7.132924e+000 -2.317627e+000  1.000000e+001
    endloop
  endfacet
  facet normal  8.910066e-001 -4.539906e-001  0.000000e+000
    outer loop
      vertex  7.132924e+000 -2.317627e+000  0.000000e+000
      vertex  7.132924e+000 -2.317627e+000  1.000000e+001
      vertex  6.067627e+000 -4.408390e+000  0.000000e+000
    endloop
  endfacet
  facet normal  8.910066e-001 -4.539906e-001  0.000000e+000
    outer loop
      vertex  6.067627e+000 -4.408390e+000  0.000000e+000
      vertex  7.132924e+000 -2.317627e+000  1.000000e+001
      vertex  6.067627e+000 -4.408390e+000  1.000000e+001
    endloop
  endfacet
  facet normal  7.071067e-001 -7.071067e-001  0.000000e+000
    outer loop
      vertex  6.067627e+000 -4.408390e+000  0.000000e+000
      vertex  6.067627e+000 -4.408390e+000  1.000000e+001
      vertex  4.408390e+000 -6.067627e+000  0.000000e+000
    endloop
  endfacet
  facet normal  7.071067e-001 -7.071067e-001  0.000000e+000
    outer loop
      vertex  4.408390e+000 -6.067627e+000  0.000000e+000
      vertex  6.067627e+000 -4.408390e+000  1.000000e+001
      vertex  4.408390e+000 -6.067627e+000  1.000000e+001
    endloop
  endfacet
  facet normal  4.539906e-001 -8.910066e-001  0.000000e+000
    outer loop
      vertex  4.408390e+000 -6.067627e+000  0.000000e+000
      vertex  4.408390e+000 -6.067627e+000  1.000000e+001
      vertex  2.317627e+000 -7.132924e+000  0.000000e+000
    endloop
  endfacet
  facet normal  4.539906e-001 -8.910066e-001  0.000000e+000
    outer loop
      vertex  2.317627e+000 -7.132924e+000  0.000000e+000
      vertex  4.408390e+000 -6.067627e+000  1.000000e+001
      vertex  2.317627e+000 -7.132924e+000  1.000000e+001
    endloop
  endfacet
  facet normal  1.564344e-001 -9.876883e-001  0.000000e+000
    outer loop
      vertex  2.317627e+000 -7.132924e+000  0.000000e+000
      vertex  2.317627e+000 -7.132924e+000  1.000000e+001
      vertex -8.039020e-015 -7.500000e+000  0.000000e+000
    endloop
  endfacet
  facet normal  1.564344e-001 -9.876883e-001  0.000000e+000
    outer loop
      vertex -8.039020e-015 -7.500000e+000  0.000000e+000
      vertex  2.317627e+000 -7.132924e+000  1.000000e+001
      vertex -8.039020e-015 -7.500000e+000  1.000000e+001
    endloop
  endfacet
  facet normal -1.564344e-001 -9.876883e-001  -0.000000e+000
    outer loop
      vertex -8.039020e-015 -7.500000e+000  0.000000e+000
      vertex -8.039020e-015 -7.500000e+000  1.000000e+001
      vertex -2.317627e+000 -7.132924e+000  0.000000e+000
    endloop
  endfacet
  facet normal -1.564344e-001 -9.876883e-001  0.000000e+000
    outer loop
      vertex -2.317627e+000 -7.132924e+000  0.000000e+000
      vertex -8.039020e-015 -7.500000e+000  1.000000e+001
      vertex -2.317627e+000 -7.132924e+000  1.000000e+001
    endloop
  endfacet
  facet normal -4.539906e-001 -8.910066e-001  -0.000000e+000
    outer loop
      vertex -2.317627e+000 -7.132924e+000  0.000000e+000
      vertex -2.317627e+000 -7.132924e+000  1.000000e+001
      vertex -4.408390e+000 -6.067627e+000  0.000000e+000
    endloop
  endfacet
  facet normal -4.539906e-001 -8.910066e-001  0.000000e+000
    outer loop
      vertex -4.408390e+000 -6.067627e+000  0.000000e+000
      vertex -2.317627e+000 -7.132924e+000  1.000000e+001
      vertex -4.408390e+000 -6.067627e+000  1.000000e+001
    endloop
  endfacet
  facet normal -7.071067e-001 -7.071067e-001  -0.000000e+000
    outer loop
      vertex -4.408390e+000 -6.067627e+000  0.000000e+000
      vertex -4.408390e+000 -6.067627e+000  1.000000e+001
      vertex -6.067627e+000 -4.408390e+000  0.000000e+000
    endloop
  endfacet
  facet normal -7.071067e-001 -7.071067e-001  0.000000e+000
    outer loop
      vertex -6.067627e+000 -4.408390e+000  0.000000e+000
      vertex -4.408390e+000 -6.067627e+000  1.000000e+001
      vertex -6.067627e+000 -4.408390e+000  1.000000e+001
    endloop
  endfacet
  facet normal -8.910066e-001 -4.539906e-001  -0.000000e+000
    outer loop
      vertex -6.067627e+000 -4.408390e+000  0.000000e+000
      vertex -6.067627e+000 -4.408390e+000  1.000000e+001
      vertex -7.132924e+000 -2.317627e+000  0.000000e+000
    endloop
  endfacet
  facet normal -8.910066e-001 -4.539906e-001  0.000000e+000
    outer loop
      vertex -7.132924e+000 -2.317627e+000  0.000000e+000
      vertex -6.067627e+000 -4.408390e+000  1.000000e+001
      vertex -7.132924e+000 -2.317627e+000  1.000000e+001
    endloop
  endfacet
  facet normal -9.876883e-001 -1.564344e-001  -0.000000e+000
    outer loop
      vertex -7.132924e+000 -2.317627e+000  0.000000e+000
      vertex -7.132924e+000 -2.317627e+000  1.000000e+001
      vertex -7.500000e+000  4.249124e-015  0.000000e+000
    endloop
  endfacet
  facet normal -9.876883e-001 -1.564344e-001  0.000000e+000
    outer loop
      vertex -7.500000e+000  4.249124e-015  0.000000e+000
      vertex -7.132924e+000 -2.317627e+000  1.000000e+001
      vertex -7.500000e+000  4.249124e-015  1.000000e+001
    endloop
  endfacet
  facet normal -9.876883e-001  1.564344e-001  0.000000e+000
    outer loop
      vertex -7.500000e+000  4.249124e-015  0.000000e+000
      vertex -7.500000e+000  4.249124e-015  1.000000e+001
      vertex -7.132924e+000  2.317627e+000  0.000000e+000
    endloop
  endfacet
  facet normal -9.876883e-001  1.564344e-001  0.000000e+000
    outer loop
      vertex -7.132924e+000  2.317627e+000  0.000000e+000
      vertex -7.500000e+000  4.249124e-015  1.000000e+001
      vertex -7.132924e+000  2.317627e+000  1.000000e+001
    endloop
  endfacet
  facet normal -8.910066e-001  4.539906e-001  0.000000e+000
    outer loop
      vertex -7.132924e+000  2.317627e+000  0.000000e+000
      vertex -7.132924e+000  2.317627e+000  1.000000e+001
      vertex -6.067627e+000  4.408390e+000  0.000000e+000
    endloop
  endfacet
  facet normal -8.910066e-001  4.539906e-001  0.000000e+000
    outer loop
      vertex -6.067627e+000  4.408390e+000  0.000000e+000
      vertex -7.132924e+000  2.317627e+000  1.000000e+001
      vertex -6.067627e+000  4.408390e+000  1.000000e+001
    endloop
  endfacet
  facet normal -7.071067e-001  7.071067e-001  0.000000e+000
    outer loop
      vertex -6.067627e+000  4.408390e+000  0.000000e+000
      vertex -6.067627e+000  4.408390e+000  1.000000e+001
      vertex -4.408390e+000  6.067627e+000  0.000000e+000
    endloop
  endfacet
  facet normal -7.071067e-001  7.071067e-001  0.000000e+000
    outer loop
      vertex -4.408390e+000  6.067627e+000  0.000000e+000
      vertex -6.067627e+000  4.408390e+000  1.000000e+001
      vertex -4.408390e+000  6.067627e+000  1.000000e+001
    endloop
  endfacet
  facet normal -4.539906e-001  8.910066e-001  0.000000e+000
    outer loop
      vertex -4.408390e+000  6.067627e+000  0.000000e+000
      vertex -4.408390e+000  6.067627e+000  1.000000e+001
      vertex -2.317627e+000  7.132924e+000  0.000000e+000
    endloop
  endfacet
  facet normal -4.539906e-001  8.910066e-001  0.000000e+000
    outer loop
      vertex -2.317627e+000  7.132924e+000  0.000000e+000
      vertex -4.408390e+000  6.067627e+000  1.000000e+001
      vertex -2.317627e+000  7.132924e+000  1.000000e+001
    endloop
  endfacet
  facet normal -1.564344e-001  9.876883e-001  0.000000e+000
    outer loop
      vertex -2.317627e+000  7.132924e+000  0.000000e+000
      vertex -2.317627e+000  7.132924e+000  1.000000e+001
      vertex  2.124562e-015  7.500000e+000  0.000000e+000
    endloop
  endfacet
  facet normal -1.564344e-001  9.876883e-001  0.000000e+000
    outer loop
      vertex  2.124562e-015  7.500000e+000  0.000000e+000
      vertex -2.317627e+000  7.132924e+000  1.000000e+001
      vertex  2.124562e-015  7.500000e+000  1.000000e+001
    endloop
  endfacet
  facet normal  1.564344e-001  9.876883e-001  0.000000e+000
    outer loop
      vertex  2.124562e-015  7.500000e+000  0.000000e+000
      vertex  2.124562e-015  7.500000e+000  1.000000e+001
      vertex  2.317627e+000  7.132924e+000  0.000000e+000
    endloop
  endfacet
  facet normal  1.564344e-001  9.876883e-001  -0.000000e+000
    outer loop
      vertex  2.317627e+000  7.132924e+000  0.000000e+000
      vertex  2.124562e-015  7.500000e+000  1.000000e+001
      vertex  2.317627e+000  7.132924e+000  1.000000e+001
    endloop
  endfacet
  facet normal  4.539906e-001  8.910066e-001  0.000000e+000
    outer loop
      vertex  2.317627e+000  7.132924e+000  0.000000e+000
      vertex  2.317627e+000  7.132924e+000  1.000000e+001
      vertex  4.408390e+000  6.067627e+000  0.000000e+000
    endloop
  endfacet
  facet normal  4.539906e-001  8.910066e-001  -0.000000e+000
    outer loop
      vertex  4.408390e+000  6.067627e+000  0.000000e+000
      vertex  2.317627e+000  7.132924e+000  1.000000e+001
      vertex  4.408390e+000  6.067627e+000  1.000000e+001
    endloop
  endfacet
  facet normal  7.071067e-001  7.071067e-001  0.000000e+000
    outer loop
      vertex  4.408390e+000  6.067627e+000  0.000000e+000
      vertex  4.408390e+000  6.067627e+000  1.000000e+001
      vertex  6.067627e+000  4.408390e+000  0.000000e+000
    endloop
  endfacet
  facet normal  7.071067e-001  7.071067e-001  -0.000000e+000
    outer loop
      vertex  6.067627e+000  4.408390e+000  0.000000e+000
      vertex  4.408390e+000  6.067627e+000  1.000000e+001
      vertex  6.067627e+000  4.408390e+000  1.000000e+001
    endloop
  endfacet
  facet normal  8.910066e-001  4.539906e-001  0.000000e+000
    outer loop
      vertex  6.067627e+000  4.408390e+000  0.000000e+000
      vertex  6.067627e+000  4.408390e+000  1.000000e+001
      vertex  7.132924e+000  2.317627e+000  0.000000e+000
    endloop
  endfacet
  facet normal  8.910066e-001  4.539906e-001  -0.000000e+000
    outer loop
      vertex  7.132924e+000  2.317627e+000  0.000000e+000
      vertex  6.067627e+000  4.408390e+000  1.000000e+001
      vertex  7.132924e+000  2.317627e+000  1.000000e+001
    endloop
  endfacet
  facet normal  9.876883e-001  1.564344e-001  0.000000e+000
    outer loop
      vertex  7.132924e+000  2.317627e+000  0.000000e+000
      vertex  7.132924e+000  2.317627e+000  1.000000e+001
      vertex  7.500000e+000  0.000000e+000  0.000000e+000
    endloop
  endfacet
  facet normal  9.876883e-001  1.564344e-001  -0.000000e+000
    outer loop
      vertex  7.500000e+000  0.000000e+000  0.000000e+000
      vertex  7.132924e+000  2.317627e+000  1.000000e+001
      vertex  7.500000e+000  0.000000e+000  1.000000e+001
    endloop
  endfacet
endsolid CATIA STL
