solid CATIA STL
  facet normal  0.000000e+000  9.999999e-001  0.000000e+000
    outer loop
      vertex  1.500000e+001  2.000000e+000  2.161438e+001
      vertex  2.500000e+001  2.000000e+000  2.161438e+001
      vertex  2.129443e+001  2.000000e+000  1.594046e+001
    endloop
  endfacet
  facet normal  0.000000e+000  9.999999e-001  0.000000e+000
    outer loop
      vertex  1.500000e+001  2.000000e+000  2.161438e+001
      vertex  2.129443e+001  2.000000e+000  1.594046e+001
      vertex  2.049443e+001  2.000000e+000  1.652169e+001
    endloop
  endfacet
  facet normal  0.000000e+000  1.000000e+000  0.000000e+000
    outer loop
      vertex  1.500000e+001  2.000000e+000  2.161438e+001
      vertex  2.049443e+001  2.000000e+000  1.652169e+001
      vertex  1.950557e+001  2.000000e+000  1.652169e+001
    endloop
  endfacet
  facet normal  0.000000e+000  9.999999e-001  0.000000e+000
    outer loop
      vertex  1.500000e+001  2.000000e+000  2.161438e+001
      vertex  1.950557e+001  2.000000e+000  1.652169e+001
      vertex  1.870557e+001  2.000000e+000  1.594046e+001
    endloop
  endfacet
  facet normal  0.000000e+000  1.000000e+000  0.000000e+000
    outer loop
      vertex  1.500000e+001  2.000000e+000  2.161438e+001
      vertex  1.870557e+001  2.000000e+000  1.594046e+001
      vertex  1.500000e+001  2.000000e+000  8.385622e+000
    endloop
  endfacet
  facet normal  0.000000e+000  1.000000e+000  0.000000e+000
    outer loop
      vertex  1.500000e+001  2.000000e+000  8.385622e+000
      vertex  1.870557e+001  2.000000e+000  1.594046e+001
      vertex  1.840000e+001  2.000000e+000  1.500000e+001
    endloop
  endfacet
  facet normal  0.000000e+000  1.000000e+000  0.000000e+000
    outer loop
      vertex  1.500000e+001  2.000000e+000  8.385622e+000
      vertex  1.840000e+001  2.000000e+000  1.500000e+001
      vertex  1.870557e+001  2.000000e+000  1.405954e+001
    endloop
  endfacet
  facet normal  0.000000e+000  9.999999e-001  0.000000e+000
    outer loop
      vertex  1.500000e+001  2.000000e+000  8.385622e+000
      vertex  1.870557e+001  2.000000e+000  1.405954e+001
      vertex  1.950557e+001  2.000000e+000  1.347831e+001
    endloop
  endfacet
  facet normal  -0.000000e+000  1.000000e+000  0.000000e+000
    outer loop
      vertex  1.500000e+001  2.000000e+000  8.385622e+000
      vertex  1.950557e+001  2.000000e+000  1.347831e+001
      vertex  2.049443e+001  2.000000e+000  1.347831e+001
    endloop
  endfacet
  facet normal  0.000000e+000  1.000000e+000  0.000000e+000
    outer loop
      vertex  1.500000e+001  2.000000e+000  8.385622e+000
      vertex  2.049443e+001  2.000000e+000  1.347831e+001
      vertex  2.500000e+001  2.000000e+000  8.385622e+000
    endloop
  endfacet
  facet normal  -0.000000e+000  9.999999e-001  0.000000e+000
    outer loop
      vertex  2.500000e+001  2.000000e+000  8.385622e+000
      vertex  2.049443e+001  2.000000e+000  1.347831e+001
      vertex  2.129443e+001  2.000000e+000  1.405954e+001
    endloop
  endfacet
  facet normal  -0.000000e+000  1.000000e+000  0.000000e+000
    outer loop
      vertex  2.500000e+001  2.000000e+000  8.385622e+000
      vertex  2.129443e+001  2.000000e+000  1.405954e+001
      vertex  2.160000e+001  2.000000e+000  1.500000e+001
    endloop
  endfacet
  facet normal  -0.000000e+000  1.000000e+000  -0.000000e+000
    outer loop
      vertex  2.500000e+001  2.000000e+000  8.385622e+000
      vertex  2.160000e+001  2.000000e+000  1.500000e+001
      vertex  2.129443e+001  2.000000e+000  1.594046e+001
    endloop
  endfacet
  facet normal  -0.000000e+000  1.000000e+000  0.000000e+000
    outer loop
      vertex  2.500000e+001  2.000000e+000  8.385622e+000
      vertex  2.129443e+001  2.000000e+000  1.594046e+001
      vertex  2.500000e+001  2.000000e+000  2.161438e+001
    endloop
  endfacet
  facet normal  -0.000000e+000 -9.999999e-001  0.000000e+000
    outer loop
      vertex  1.500000e+001  0.000000e+000  8.385622e+000
      vertex  1.950557e+001  0.000000e+000  1.347831e+001
      vertex  1.870557e+001  0.000000e+000  1.405954e+001
    endloop
  endfacet
  facet normal  -0.000000e+000 -1.000000e+000  0.000000e+000
    outer loop
      vertex  1.500000e+001  0.000000e+000  8.385622e+000
      vertex  1.870557e+001  0.000000e+000  1.405954e+001
      vertex  1.840000e+001  0.000000e+000  1.500000e+001
    endloop
  endfacet
  facet normal  0.000000e+000 -9.999999e-001  0.000000e+000
    outer loop
      vertex  2.500000e+001  0.000000e+000  2.161438e+001
      vertex  2.049443e+001  0.000000e+000  1.652169e+001
      vertex  2.129443e+001  0.000000e+000  1.594046e+001
    endloop
  endfacet
  facet normal  0.000000e+000 -1.000000e+000  -0.000000e+000
    outer loop
      vertex  2.500000e+001  0.000000e+000  8.385622e+000
      vertex  2.500000e+001  0.000000e+000  2.161438e+001
      vertex  2.129443e+001  0.000000e+000  1.594046e+001
    endloop
  endfacet
  facet normal  0.000000e+000 -1.000000e+000  0.000000e+000
    outer loop
      vertex  2.500000e+001  0.000000e+000  8.385622e+000
      vertex  2.129443e+001  0.000000e+000  1.594046e+001
      vertex  2.160000e+001  0.000000e+000  1.500000e+001
    endloop
  endfacet
  facet normal  0.000000e+000 -1.000000e+000  -0.000000e+000
    outer loop
      vertex  2.500000e+001  0.000000e+000  8.385622e+000
      vertex  2.160000e+001  0.000000e+000  1.500000e+001
      vertex  2.129443e+001  0.000000e+000  1.405954e+001
    endloop
  endfacet
  facet normal  0.000000e+000 -9.999999e-001  -0.000000e+000
    outer loop
      vertex  2.500000e+001  0.000000e+000  8.385622e+000
      vertex  2.129443e+001  0.000000e+000  1.405954e+001
      vertex  2.049443e+001  0.000000e+000  1.347831e+001
    endloop
  endfacet
  facet normal  -0.000000e+000 -1.000000e+000  -0.000000e+000
    outer loop
      vertex  2.500000e+001  0.000000e+000  8.385622e+000
      vertex  2.049443e+001  0.000000e+000  1.347831e+001
      vertex  1.950557e+001  0.000000e+000  1.347831e+001
    endloop
  endfacet
  facet normal  0.000000e+000 -1.000000e+000  -0.000000e+000
    outer loop
      vertex  2.500000e+001  0.000000e+000  8.385622e+000
      vertex  1.950557e+001  0.000000e+000  1.347831e+001
      vertex  1.500000e+001  0.000000e+000  8.385622e+000
    endloop
  endfacet
  facet normal  0.000000e+000 -1.000000e+000  0.000000e+000
    outer loop
      vertex  1.500000e+001  0.000000e+000  2.161438e+001
      vertex  1.840000e+001  0.000000e+000  1.500000e+001
      vertex  1.870557e+001  0.000000e+000  1.594046e+001
    endloop
  endfacet
  facet normal  0.000000e+000 -9.999999e-001  0.000000e+000
    outer loop
      vertex  1.500000e+001  0.000000e+000  2.161438e+001
      vertex  1.870557e+001  0.000000e+000  1.594046e+001
      vertex  1.950557e+001  0.000000e+000  1.652169e+001
    endloop
  endfacet
  facet normal  0.000000e+000 -1.000000e+000  0.000000e+000
    outer loop
      vertex  1.500000e+001  0.000000e+000  2.161438e+001
      vertex  1.950557e+001  0.000000e+000  1.652169e+001
      vertex  2.049443e+001  0.000000e+000  1.652169e+001
    endloop
  endfacet
  facet normal  0.000000e+000 -1.000000e+000  0.000000e+000
    outer loop
      vertex  1.500000e+001  0.000000e+000  2.161438e+001
      vertex  2.049443e+001  0.000000e+000  1.652169e+001
      vertex  2.500000e+001  0.000000e+000  2.161438e+001
    endloop
  endfacet
  facet normal -1.184238e-016 -1.000000e+000  0.000000e+000
    outer loop
      vertex  1.001433e-016  1.776357e-015  0.000000e+000
      vertex  1.500000e+001  0.000000e+000  0.000000e+000
      vertex  1.500000e+001  0.000000e+000  8.385622e+000
    endloop
  endfacet
  facet normal -1.661773e-016 -1.000000e+000  8.542041e-017
    outer loop
      vertex  1.001433e-016  1.776357e-015  0.000000e+000
      vertex  1.500000e+001  0.000000e+000  8.385622e+000
      vertex  1.840000e+001  0.000000e+000  1.500000e+001
    endloop
  endfacet
  facet normal -6.803234e-017 -1.000000e+000 -3.497078e-017
    outer loop
      vertex  1.001433e-016  1.776357e-015  0.000000e+000
      vertex  1.840000e+001  0.000000e+000  1.500000e+001
      vertex  1.500000e+001  0.000000e+000  2.161438e+001
    endloop
  endfacet
  facet normal -1.184238e-016 -1.000000e+000  0.000000e+000
    outer loop
      vertex  1.001433e-016  1.776357e-015  0.000000e+000
      vertex  1.500000e+001  0.000000e+000  2.161438e+001
      vertex  1.500000e+001  0.000000e+000  3.000000e+001
    endloop
  endfacet
  facet normal  -0.000000e+000 -1.000000e+000 -5.921190e-017
    outer loop
      vertex  1.001433e-016  1.776357e-015  0.000000e+000
      vertex  1.500000e+001  0.000000e+000  3.000000e+001
      vertex  0.000000e+000  0.000000e+000  3.000000e+001
    endloop
  endfacet
  facet normal -5.877846e-001  -0.000000e+000 -8.090174e-001
    outer loop
      vertex  2.049443e+001  0.000000e+000  1.652169e+001
      vertex  2.129443e+001  2.000000e+000  1.594046e+001
      vertex  2.129443e+001  0.000000e+000  1.594046e+001
    endloop
  endfacet
  facet normal -9.510566e-001  0.000000e+000 -3.090167e-001
    outer loop
      vertex  2.129443e+001  0.000000e+000  1.594046e+001
      vertex  2.129443e+001  2.000000e+000  1.594046e+001
      vertex  2.160000e+001  2.000000e+000  1.500000e+001
    endloop
  endfacet
  facet normal -9.510566e-001  -0.000000e+000 -3.090167e-001
    outer loop
      vertex  2.129443e+001  0.000000e+000  1.594046e+001
      vertex  2.160000e+001  2.000000e+000  1.500000e+001
      vertex  2.160000e+001  0.000000e+000  1.500000e+001
    endloop
  endfacet
  facet normal -5.877846e-001  0.000000e+000 -8.090174e-001
    outer loop
      vertex  2.129443e+001  2.000000e+000  1.594046e+001
      vertex  2.049443e+001  0.000000e+000  1.652169e+001
      vertex  2.049443e+001  2.000000e+000  1.652169e+001
    endloop
  endfacet
  facet normal  0.000000e+000  -0.000000e+000 -1.000000e+000
    outer loop
      vertex  2.049443e+001  2.000000e+000  1.652169e+001
      vertex  2.049443e+001  0.000000e+000  1.652169e+001
      vertex  1.950557e+001  0.000000e+000  1.652169e+001
    endloop
  endfacet
  facet normal  0.000000e+000  0.000000e+000 -1.000000e+000
    outer loop
      vertex  2.049443e+001  2.000000e+000  1.652169e+001
      vertex  1.950557e+001  0.000000e+000  1.652169e+001
      vertex  1.950557e+001  2.000000e+000  1.652169e+001
    endloop
  endfacet
  facet normal  5.877846e-001  0.000000e+000 -8.090174e-001
    outer loop
      vertex  1.950557e+001  2.000000e+000  1.652169e+001
      vertex  1.950557e+001  0.000000e+000  1.652169e+001
      vertex  1.870557e+001  0.000000e+000  1.594046e+001
    endloop
  endfacet
  facet normal  5.877846e-001  0.000000e+000 -8.090174e-001
    outer loop
      vertex  1.950557e+001  2.000000e+000  1.652169e+001
      vertex  1.870557e+001  0.000000e+000  1.594046e+001
      vertex  1.870557e+001  2.000000e+000  1.594046e+001
    endloop
  endfacet
  facet normal  9.510566e-001  0.000000e+000 -3.090167e-001
    outer loop
      vertex  1.870557e+001  2.000000e+000  1.594046e+001
      vertex  1.870557e+001  0.000000e+000  1.594046e+001
      vertex  1.840000e+001  0.000000e+000  1.500000e+001
    endloop
  endfacet
  facet normal  9.510566e-001  0.000000e+000 -3.090167e-001
    outer loop
      vertex  1.870557e+001  2.000000e+000  1.594046e+001
      vertex  1.840000e+001  0.000000e+000  1.500000e+001
      vertex  1.840000e+001  2.000000e+000  1.500000e+001
    endloop
  endfacet
  facet normal  5.877846e-001  0.000000e+000  8.090174e-001
    outer loop
      vertex  1.950557e+001  0.000000e+000  1.347831e+001
      vertex  1.870557e+001  2.000000e+000  1.405954e+001
      vertex  1.870557e+001  0.000000e+000  1.405954e+001
    endloop
  endfacet
  facet normal  9.510566e-001  -0.000000e+000  3.090167e-001
    outer loop
      vertex  1.870557e+001  0.000000e+000  1.405954e+001
      vertex  1.870557e+001  2.000000e+000  1.405954e+001
      vertex  1.840000e+001  2.000000e+000  1.500000e+001
    endloop
  endfacet
  facet normal  9.510566e-001  0.000000e+000  3.090167e-001
    outer loop
      vertex  1.870557e+001  0.000000e+000  1.405954e+001
      vertex  1.840000e+001  2.000000e+000  1.500000e+001
      vertex  1.840000e+001  0.000000e+000  1.500000e+001
    endloop
  endfacet
  facet normal  5.877846e-001  -0.000000e+000  8.090174e-001
    outer loop
      vertex  1.870557e+001  2.000000e+000  1.405954e+001
      vertex  1.950557e+001  0.000000e+000  1.347831e+001
      vertex  1.950557e+001  2.000000e+000  1.347831e+001
    endloop
  endfacet
  facet normal  0.000000e+000  0.000000e+000  1.000000e+000
    outer loop
      vertex  1.950557e+001  2.000000e+000  1.347831e+001
      vertex  1.950557e+001  0.000000e+000  1.347831e+001
      vertex  2.049443e+001  0.000000e+000  1.347831e+001
    endloop
  endfacet
  facet normal  0.000000e+000  -0.000000e+000  1.000000e+000
    outer loop
      vertex  1.950557e+001  2.000000e+000  1.347831e+001
      vertex  2.049443e+001  0.000000e+000  1.347831e+001
      vertex  2.049443e+001  2.000000e+000  1.347831e+001
    endloop
  endfacet
  facet normal -5.877846e-001  0.000000e+000  8.090174e-001
    outer loop
      vertex  2.049443e+001  2.000000e+000  1.347831e+001
      vertex  2.049443e+001  0.000000e+000  1.347831e+001
      vertex  2.129443e+001  0.000000e+000  1.405954e+001
    endloop
  endfacet
  facet normal -5.877846e-001  0.000000e+000  8.090174e-001
    outer loop
      vertex  2.049443e+001  2.000000e+000  1.347831e+001
      vertex  2.129443e+001  0.000000e+000  1.405954e+001
      vertex  2.129443e+001  2.000000e+000  1.405954e+001
    endloop
  endfacet
  facet normal -9.510566e-001  0.000000e+000  3.090167e-001
    outer loop
      vertex  2.129443e+001  2.000000e+000  1.405954e+001
      vertex  2.129443e+001  0.000000e+000  1.405954e+001
      vertex  2.160000e+001  0.000000e+000  1.500000e+001
    endloop
  endfacet
  facet normal -9.510566e-001  0.000000e+000  3.090167e-001
    outer loop
      vertex  2.129443e+001  2.000000e+000  1.405954e+001
      vertex  2.160000e+001  0.000000e+000  1.500000e+001
      vertex  2.160000e+001  2.000000e+000  1.500000e+001
    endloop
  endfacet
  facet normal  -0.000000e+000  0.000000e+000 -1.000000e+000
    outer loop
      vertex  1.500000e+001  2.000000e+000  8.385622e+000
      vertex  2.500000e+001  2.000000e+000  8.385622e+000
      vertex  1.500000e+001  0.000000e+000  8.385622e+000
    endloop
  endfacet
  facet normal  0.000000e+000  0.000000e+000 -1.000000e+000
    outer loop
      vertex  1.500000e+001  0.000000e+000  8.385622e+000
      vertex  2.500000e+001  2.000000e+000  8.385622e+000
      vertex  2.500000e+001  0.000000e+000  8.385622e+000
    endloop
  endfacet
  facet normal  0.000000e+000  0.000000e+000  1.000000e+000
    outer loop
      vertex  1.500000e+001  0.000000e+000  2.161438e+001
      vertex  2.500000e+001  0.000000e+000  2.161438e+001
      vertex  1.500000e+001  2.000000e+000  2.161438e+001
    endloop
  endfacet
  facet normal  -0.000000e+000  0.000000e+000  1.000000e+000
    outer loop
      vertex  1.500000e+001  2.000000e+000  2.161438e+001
      vertex  2.500000e+001  0.000000e+000  2.161438e+001
      vertex  2.500000e+001  2.000000e+000  2.161438e+001
    endloop
  endfacet
  facet normal  1.000000e+000  0.000000e+000  0.000000e+000
    outer loop
      vertex  1.500000e+001  0.000000e+000  8.385622e+000
      vertex  1.500000e+001  0.000000e+000  0.000000e+000
      vertex  1.500000e+001  2.000000e+000  8.385622e+000
    endloop
  endfacet
  facet normal  1.000000e+000  0.000000e+000  0.000000e+000
    outer loop
      vertex  1.500000e+001  0.000000e+000  3.000000e+001
      vertex  1.500000e+001  0.000000e+000  2.161438e+001
      vertex  1.500000e+001  1.330000e+001  3.000000e+001
    endloop
  endfacet
  facet normal  1.000000e+000  0.000000e+000  0.000000e+000
    outer loop
      vertex  1.500000e+001  1.330000e+001  3.000000e+001
      vertex  1.500000e+001  0.000000e+000  2.161438e+001
      vertex  1.500000e+001  2.000000e+000  2.161438e+001
    endloop
  endfacet
  facet normal  1.000000e+000  0.000000e+000  0.000000e+000
    outer loop
      vertex  1.500000e+001  1.330000e+001  3.000000e+001
      vertex  1.500000e+001  2.000000e+000  2.161438e+001
      vertex  1.500000e+001  1.330000e+001  2.161438e+001
    endloop
  endfacet
  facet normal  1.000000e+000  -0.000000e+000  0.000000e+000
    outer loop
      vertex  1.500000e+001  1.330000e+001  2.161438e+001
      vertex  1.500000e+001  2.000000e+000  2.161438e+001
      vertex  1.500000e+001  1.330000e+001  8.385622e+000
    endloop
  endfacet
  facet normal  1.000000e+000  0.000000e+000  0.000000e+000
    outer loop
      vertex  1.500000e+001  1.330000e+001  8.385622e+000
      vertex  1.500000e+001  2.000000e+000  2.161438e+001
      vertex  1.500000e+001  2.000000e+000  8.385622e+000
    endloop
  endfacet
  facet normal  1.000000e+000  -0.000000e+000  0.000000e+000
    outer loop
      vertex  1.500000e+001  1.330000e+001  8.385622e+000
      vertex  1.500000e+001  2.000000e+000  8.385622e+000
      vertex  1.500000e+001  1.330000e+001  0.000000e+000
    endloop
  endfacet
  facet normal  1.000000e+000  0.000000e+000  0.000000e+000
    outer loop
      vertex  1.500000e+001  1.330000e+001  0.000000e+000
      vertex  1.500000e+001  2.000000e+000  8.385622e+000
      vertex  1.500000e+001  0.000000e+000  0.000000e+000
    endloop
  endfacet
  facet normal  1.000000e+000  0.000000e+000  0.000000e+000
    outer loop
      vertex  2.500000e+001  0.000000e+000  8.385622e+000
      vertex  2.500000e+001  2.000000e+000  8.385622e+000
      vertex  2.500000e+001  0.000000e+000  2.161438e+001
    endloop
  endfacet
  facet normal  1.000000e+000  -0.000000e+000  0.000000e+000
    outer loop
      vertex  2.500000e+001  0.000000e+000  2.161438e+001
      vertex  2.500000e+001  2.000000e+000  8.385622e+000
      vertex  2.500000e+001  2.000000e+000  2.161438e+001
    endloop
  endfacet
  facet normal -4.050333e-017 -1.112820e-016 -1.000000e+000
    outer loop
      vertex  1.500000e+001  1.330000e+001  0.000000e+000
      vertex -1.332268e-014  1.875955e+001  0.000000e+000
      vertex  2.013030e+001  2.739539e+001 -1.776357e-015
    endloop
  endfacet
  facet normal -4.050167e-017 -1.112858e-016 -1.000000e+000
    outer loop
      vertex  2.013030e+001  2.739539e+001 -1.776357e-015
      vertex -1.332268e-014  1.875955e+001  0.000000e+000
      vertex -3.508193e-002  1.877232e+001  0.000000e+000
    endloop
  endfacet
  facet normal -4.050331e-017 -1.112820e-016 -1.000000e+000
    outer loop
      vertex  2.013030e+001  2.739539e+001 -1.776357e-015
      vertex -3.508193e-002  1.877232e+001  0.000000e+000
      vertex  5.095220e+000  3.286771e+001 -1.776357e-015
    endloop
  endfacet
  facet normal  0.000000e+000  0.000000e+000 -9.999999e-001
    outer loop
      vertex  1.001433e-016  1.776357e-015  0.000000e+000
      vertex -1.332268e-014  1.875955e+001  0.000000e+000
      vertex  1.500000e+001  0.000000e+000  0.000000e+000
    endloop
  endfacet
  facet normal  0.000000e+000  0.000000e+000 -1.000000e+000
    outer loop
      vertex  1.500000e+001  0.000000e+000  0.000000e+000
      vertex -1.332268e-014  1.875955e+001  0.000000e+000
      vertex  1.500000e+001  1.330000e+001  0.000000e+000
    endloop
  endfacet
  facet normal  0.000000e+000  0.000000e+000  1.000000e+000
    outer loop
      vertex  5.095220e+000  3.286771e+001  3.000000e+001
      vertex -3.508193e-002  1.877232e+001  3.000000e+001
      vertex  2.013030e+001  2.739539e+001  3.000000e+001
    endloop
  endfacet
  facet normal  0.000000e+000  0.000000e+000  1.000000e+000
    outer loop
      vertex  2.013030e+001  2.739539e+001  3.000000e+001
      vertex -3.508193e-002  1.877232e+001  3.000000e+001
      vertex -1.332268e-014  1.875955e+001  3.000000e+001
    endloop
  endfacet
  facet normal  -0.000000e+000  0.000000e+000  1.000000e+000
    outer loop
      vertex  2.013030e+001  2.739539e+001  3.000000e+001
      vertex -1.332268e-014  1.875955e+001  3.000000e+001
      vertex  1.500000e+001  1.330000e+001  3.000000e+001
    endloop
  endfacet
  facet normal  0.000000e+000  0.000000e+000  9.999999e-001
    outer loop
      vertex  0.000000e+000  0.000000e+000  3.000000e+001
      vertex  1.500000e+001  0.000000e+000  3.000000e+001
      vertex -1.332268e-014  1.875955e+001  3.000000e+001
    endloop
  endfacet
  facet normal  0.000000e+000  0.000000e+000  1.000000e+000
    outer loop
      vertex -1.332268e-014  1.875955e+001  3.000000e+001
      vertex  1.500000e+001  0.000000e+000  3.000000e+001
      vertex  1.500000e+001  1.330000e+001  3.000000e+001
    endloop
  endfacet
  facet normal  3.420202e-001  9.396927e-001  0.000000e+000
    outer loop
      vertex  1.500000e+001  1.330000e+001  8.385622e+000
      vertex -5.329071e-015  1.875955e+001  8.385622e+000
      vertex  1.500000e+001  1.330000e+001  2.161438e+001
    endloop
  endfacet
  facet normal  3.420202e-001  9.396927e-001  0.000000e+000
    outer loop
      vertex  1.500000e+001  1.330000e+001  2.161438e+001
      vertex -5.329071e-015  1.875955e+001  8.385622e+000
      vertex -5.329071e-015  1.875955e+001  2.161438e+001
    endloop
  endfacet
  facet normal -1.000000e+000 -7.155191e-016  9.532514e-016
    outer loop
      vertex -5.329071e-015  1.875955e+001  8.385622e+000
      vertex -1.332268e-014  1.875955e+001  0.000000e+000
      vertex  1.001433e-016  1.776357e-015  0.000000e+000
    endloop
  endfacet
  facet normal -9.999999e-001 -7.101809e-016 -3.338100e-018
    outer loop
      vertex  0.000000e+000  0.000000e+000  3.000000e+001
      vertex -1.332268e-014  1.875955e+001  3.000000e+001
      vertex  1.001433e-016  1.776357e-015  0.000000e+000
    endloop
  endfacet
  facet normal -1.000000e+000  8.089063e-016 -9.532514e-016
    outer loop
      vertex  1.001433e-016  1.776357e-015  0.000000e+000
      vertex -1.332268e-014  1.875955e+001  3.000000e+001
      vertex -5.329071e-015  1.875955e+001  2.161438e+001
    endloop
  endfacet
  facet normal -9.999999e-001 -2.894106e-016  -0.000000e+000
    outer loop
      vertex  1.001433e-016  1.776357e-015  0.000000e+000
      vertex -5.329071e-015  1.875955e+001  2.161438e+001
      vertex -5.329071e-015  1.875955e+001  8.385622e+000
    endloop
  endfacet
  facet normal  2.220728e-001  6.101871e-001  7.604968e-001
    outer loop
      vertex -5.329071e-015  1.875955e+001  8.385622e+000
      vertex  6.977569e-001  2.078578e+001  6.556121e+000
      vertex -3.508193e-002  1.877232e+001  8.385622e+000
    endloop
  endfacet
  facet normal -4.818157e-002 -1.323778e-001  9.900276e-001
    outer loop
      vertex  2.530069e+000  2.582002e+001  5.000000e+000
      vertex  1.851917e+001  2.296885e+001  5.396907e+000
      vertex  3.484091e+000  2.844117e+001  5.396907e+000
    endloop
  endfacet
  facet normal -1.407200e-001 -3.866252e-001  9.114377e-001
    outer loop
      vertex  3.484091e+000  2.844117e+001  5.396907e+000
      vertex  1.851917e+001  2.296885e+001  5.396907e+000
      vertex  1.939746e+001  2.538193e+001  6.556121e+000
    endloop
  endfacet
  facet normal -1.407200e-001 -3.866250e-001  9.114379e-001
    outer loop
      vertex  3.484091e+000  2.844117e+001  5.396907e+000
      vertex  1.939746e+001  2.538193e+001  6.556121e+000
      vertex  4.362381e+000  3.085425e+001  6.556121e+000
    endloop
  endfacet
  facet normal -2.220879e-001 -6.101815e-001  7.604968e-001
    outer loop
      vertex  4.362381e+000  3.085425e+001  6.556121e+000
      vertex  1.939746e+001  2.538193e+001  6.556121e+000
      vertex  2.013030e+001  2.739539e+001  8.385622e+000
    endloop
  endfacet
  facet normal -2.220880e-001 -6.101819e-001  7.604966e-001
    outer loop
      vertex  4.362381e+000  3.085425e+001  6.556121e+000
      vertex  2.013030e+001  2.739539e+001  8.385622e+000
      vertex  5.095220e+000  3.286771e+001  8.385622e+000
    endloop
  endfacet
  facet normal -4.818155e-002 -1.323777e-001  9.900276e-001
    outer loop
      vertex  1.851917e+001  2.296885e+001  5.396907e+000
      vertex  2.530069e+000  2.582002e+001  5.000000e+000
      vertex  1.756515e+001  2.034769e+001  5.000000e+000
    endloop
  endfacet
  facet normal  4.818158e-002  1.323778e-001  9.900276e-001
    outer loop
      vertex  1.756515e+001  2.034769e+001  5.000000e+000
      vertex  2.530069e+000  2.582002e+001  5.000000e+000
      vertex  1.576047e+000  2.319886e+001  5.396907e+000
    endloop
  endfacet
  facet normal  4.818158e-002  1.323778e-001  9.900276e-001
    outer loop
      vertex  1.756515e+001  2.034769e+001  5.000000e+000
      vertex  1.576047e+000  2.319886e+001  5.396907e+000
      vertex  1.661113e+001  1.772654e+001  5.396907e+000
    endloop
  endfacet
  facet normal  1.407200e-001  3.866250e-001  9.114379e-001
    outer loop
      vertex  1.661113e+001  1.772654e+001  5.396907e+000
      vertex  1.576047e+000  2.319886e+001  5.396907e+000
      vertex  6.977569e-001  2.078578e+001  6.556121e+000
    endloop
  endfacet
  facet normal  1.407200e-001  3.866251e-001  9.114379e-001
    outer loop
      vertex  1.661113e+001  1.772654e+001  5.396907e+000
      vertex  6.977569e-001  2.078578e+001  6.556121e+000
      vertex  1.573284e+001  1.531346e+001  6.556121e+000
    endloop
  endfacet
  facet normal  2.220879e-001  6.101817e-001  7.604967e-001
    outer loop
      vertex  1.573284e+001  1.531346e+001  6.556121e+000
      vertex  6.977569e-001  2.078578e+001  6.556121e+000
      vertex -5.329071e-015  1.875955e+001  8.385622e+000
    endloop
  endfacet
  facet normal  2.220879e-001  6.101816e-001  7.604968e-001
    outer loop
      vertex  1.573284e+001  1.531346e+001  6.556121e+000
      vertex -5.329071e-015  1.875955e+001  8.385622e+000
      vertex  1.500000e+001  1.330000e+001  8.385622e+000
    endloop
  endfacet
  facet normal -3.419968e-001 -9.397011e-001  3.260089e-016
    outer loop
      vertex -1.332268e-014  1.875955e+001  0.000000e+000
      vertex -5.329071e-015  1.875955e+001  8.385622e+000
      vertex -3.508193e-002  1.877232e+001  0.000000e+000
    endloop
  endfacet
  facet normal -3.419968e-001 -9.397011e-001  0.000000e+000
    outer loop
      vertex -3.508193e-002  1.877232e+001  0.000000e+000
      vertex -5.329071e-015  1.875955e+001  8.385622e+000
      vertex -3.508193e-002  1.877232e+001  8.385622e+000
    endloop
  endfacet
  facet normal  9.396926e-001 -3.420205e-001  0.000000e+000
    outer loop
      vertex  2.013030e+001  2.739539e+001 -1.776357e-015
      vertex  2.013030e+001  2.739539e+001  8.385622e+000
      vertex  1.939746e+001  2.538193e+001  6.556121e+000
    endloop
  endfacet
  facet normal  9.396926e-001 -3.420202e-001  7.746606e-008
    outer loop
      vertex  2.013030e+001  2.739539e+001 -1.776357e-015
      vertex  1.939746e+001  2.538193e+001  6.556121e+000
      vertex  1.851917e+001  2.296885e+001  5.396907e+000
    endloop
  endfacet
  facet normal  9.396927e-001 -3.420199e-001  3.544144e-007
    outer loop
      vertex  2.013030e+001  2.739539e+001 -1.776357e-015
      vertex  1.851917e+001  2.296885e+001  5.396907e+000
      vertex  1.756515e+001  2.034769e+001  5.000000e+000
    endloop
  endfacet
  facet normal  9.396926e-001 -3.420202e-001 -3.261759e-008
    outer loop
      vertex  2.013030e+001  2.739539e+001 -1.776357e-015
      vertex  1.756515e+001  2.034769e+001  5.000000e+000
      vertex  1.500000e+001  1.330000e+001  0.000000e+000
    endloop
  endfacet
  facet normal  9.396927e-001 -3.420201e-001 -1.190748e-007
    outer loop
      vertex  1.500000e+001  1.330000e+001  0.000000e+000
      vertex  1.756515e+001  2.034769e+001  5.000000e+000
      vertex  1.661113e+001  1.772654e+001  5.396907e+000
    endloop
  endfacet
  facet normal  9.396926e-001 -3.420204e-001  1.048663e-007
    outer loop
      vertex  1.500000e+001  1.330000e+001  0.000000e+000
      vertex  1.661113e+001  1.772654e+001  5.396907e+000
      vertex  1.573284e+001  1.531346e+001  6.556121e+000
    endloop
  endfacet
  facet normal  9.396926e-001 -3.420200e-001  0.000000e+000
    outer loop
      vertex  1.500000e+001  1.330000e+001  0.000000e+000
      vertex  1.573284e+001  1.531346e+001  6.556121e+000
      vertex  1.500000e+001  1.330000e+001  8.385622e+000
    endloop
  endfacet
  facet normal  2.220879e-001  6.101814e-001 -7.604970e-001
    outer loop
      vertex  1.573284e+001  1.531346e+001  2.344388e+001
      vertex  1.500000e+001  1.330000e+001  2.161438e+001
      vertex -5.329071e-015  1.875955e+001  2.161438e+001
    endloop
  endfacet
  facet normal  2.220963e-001  6.102505e-001 -7.604390e-001
    outer loop
      vertex -3.508193e-002  1.877232e+001  2.161438e+001
      vertex  1.573284e+001  1.531346e+001  2.344388e+001
      vertex -5.329071e-015  1.875955e+001  2.161438e+001
    endloop
  endfacet
  facet normal  2.220878e-001  6.101814e-001 -7.604970e-001
    outer loop
      vertex -3.508193e-002  1.877232e+001  2.161438e+001
      vertex  6.977569e-001  2.078578e+001  2.344388e+001
      vertex  1.573284e+001  1.531346e+001  2.344388e+001
    endloop
  endfacet
  facet normal  1.407200e-001  3.866250e-001 -9.114379e-001
    outer loop
      vertex  1.573284e+001  1.531346e+001  2.344388e+001
      vertex  6.977569e-001  2.078578e+001  2.344388e+001
      vertex  1.576047e+000  2.319886e+001  2.460309e+001
    endloop
  endfacet
  facet normal  1.407200e-001  3.866251e-001 -9.114379e-001
    outer loop
      vertex  1.573284e+001  1.531346e+001  2.344388e+001
      vertex  1.576047e+000  2.319886e+001  2.460309e+001
      vertex  1.661113e+001  1.772654e+001  2.460309e+001
    endloop
  endfacet
  facet normal  4.818169e-002  1.323781e-001 -9.900275e-001
    outer loop
      vertex  1.661113e+001  1.772654e+001  2.460309e+001
      vertex  1.576047e+000  2.319886e+001  2.460309e+001
      vertex  2.530069e+000  2.582002e+001  2.500000e+001
    endloop
  endfacet
  facet normal  4.818169e-002  1.323781e-001 -9.900275e-001
    outer loop
      vertex  1.661113e+001  1.772654e+001  2.460309e+001
      vertex  2.530069e+000  2.582002e+001  2.500000e+001
      vertex  1.756515e+001  2.034769e+001  2.500000e+001
    endloop
  endfacet
  facet normal -4.818169e-002 -1.323781e-001 -9.900275e-001
    outer loop
      vertex  1.756515e+001  2.034769e+001  2.500000e+001
      vertex  2.530069e+000  2.582002e+001  2.500000e+001
      vertex  3.484091e+000  2.844117e+001  2.460309e+001
    endloop
  endfacet
  facet normal -4.818165e-002 -1.323780e-001 -9.900275e-001
    outer loop
      vertex  1.756515e+001  2.034769e+001  2.500000e+001
      vertex  3.484091e+000  2.844117e+001  2.460309e+001
      vertex  1.851917e+001  2.296885e+001  2.460309e+001
    endloop
  endfacet
  facet normal -1.407200e-001 -3.866250e-001 -9.114379e-001
    outer loop
      vertex  1.851917e+001  2.296885e+001  2.460309e+001
      vertex  3.484091e+000  2.844117e+001  2.460309e+001
      vertex  4.362381e+000  3.085425e+001  2.344388e+001
    endloop
  endfacet
  facet normal -1.407201e-001 -3.866252e-001 -9.114377e-001
    outer loop
      vertex  1.851917e+001  2.296885e+001  2.460309e+001
      vertex  4.362381e+000  3.085425e+001  2.344388e+001
      vertex  1.939746e+001  2.538193e+001  2.344388e+001
    endloop
  endfacet
  facet normal -2.220880e-001 -6.101816e-001 -7.604967e-001
    outer loop
      vertex  1.939746e+001  2.538193e+001  2.344388e+001
      vertex  4.362381e+000  3.085425e+001  2.344388e+001
      vertex  5.095220e+000  3.286771e+001  2.161438e+001
    endloop
  endfacet
  facet normal -2.220878e-001 -6.101813e-001 -7.604970e-001
    outer loop
      vertex  1.939746e+001  2.538193e+001  2.344388e+001
      vertex  5.095220e+000  3.286771e+001  2.161438e+001
      vertex  2.013030e+001  2.739539e+001  2.161438e+001
    endloop
  endfacet
  facet normal -3.419968e-001 -9.397011e-001 -3.260089e-016
    outer loop
      vertex -5.329071e-015  1.875955e+001  2.161438e+001
      vertex -1.332268e-014  1.875955e+001  3.000000e+001
      vertex -3.508193e-002  1.877232e+001  2.161438e+001
    endloop
  endfacet
  facet normal -3.419968e-001 -9.397011e-001  0.000000e+000
    outer loop
      vertex -3.508193e-002  1.877232e+001  2.161438e+001
      vertex -1.332268e-014  1.875955e+001  3.000000e+001
      vertex -3.508193e-002  1.877232e+001  3.000000e+001
    endloop
  endfacet
  facet normal  9.396926e-001 -3.420200e-001  0.000000e+000
    outer loop
      vertex  1.500000e+001  1.330000e+001  2.161438e+001
      vertex  1.573284e+001  1.531346e+001  2.344388e+001
      vertex  1.500000e+001  1.330000e+001  3.000000e+001
    endloop
  endfacet
  facet normal  9.396927e-001 -3.420202e-001 -3.985231e-008
    outer loop
      vertex  2.013030e+001  2.739539e+001  3.000000e+001
      vertex  1.500000e+001  1.330000e+001  3.000000e+001
      vertex  1.573284e+001  1.531346e+001  2.344388e+001
    endloop
  endfacet
  facet normal  9.396920e-001 -3.420220e-001  3.862495e-006
    outer loop
      vertex  2.013030e+001  2.739539e+001  3.000000e+001
      vertex  1.573284e+001  1.531346e+001  2.344388e+001
      vertex  1.661113e+001  1.772654e+001  2.460309e+001
    endloop
  endfacet
  facet normal  9.396927e-001 -3.420201e-001 -1.007612e-007
    outer loop
      vertex  2.013030e+001  2.739539e+001  3.000000e+001
      vertex  1.661113e+001  1.772654e+001  2.460309e+001
      vertex  1.756515e+001  2.034769e+001  2.500000e+001
    endloop
  endfacet
  facet normal  9.396927e-001 -3.420199e-001 -3.544143e-007
    outer loop
      vertex  2.013030e+001  2.739539e+001  3.000000e+001
      vertex  1.756515e+001  2.034769e+001  2.500000e+001
      vertex  1.851917e+001  2.296885e+001  2.460309e+001
    endloop
  endfacet
  facet normal  9.396926e-001 -3.420202e-001 -7.746605e-008
    outer loop
      vertex  2.013030e+001  2.739539e+001  3.000000e+001
      vertex  1.851917e+001  2.296885e+001  2.460309e+001
      vertex  1.939746e+001  2.538193e+001  2.344388e+001
    endloop
  endfacet
  facet normal  9.396926e-001 -3.420205e-001  0.000000e+000
    outer loop
      vertex  2.013030e+001  2.739539e+001  3.000000e+001
      vertex  1.939746e+001  2.538193e+001  2.344388e+001
      vertex  2.013030e+001  2.739539e+001  2.161438e+001
    endloop
  endfacet
  facet normal -9.396926e-001  3.420201e-001  0.000000e+000
    outer loop
      vertex -3.508193e-002  1.877232e+001  3.000000e+001
      vertex  6.977569e-001  2.078578e+001  2.344388e+001
      vertex -3.508193e-002  1.877232e+001  2.161438e+001
    endloop
  endfacet
  facet normal -9.396926e-001  3.420203e-001  0.000000e+000
    outer loop
      vertex  5.095220e+000  3.286771e+001  3.000000e+001
      vertex  5.095220e+000  3.286771e+001  2.161438e+001
      vertex  4.362381e+000  3.085425e+001  2.344388e+001
    endloop
  endfacet
  facet normal -9.396926e-001  3.420201e-001  9.256178e-008
    outer loop
      vertex  5.095220e+000  3.286771e+001  3.000000e+001
      vertex  4.362381e+000  3.085425e+001  2.344388e+001
      vertex  3.484091e+000  2.844117e+001  2.460309e+001
    endloop
  endfacet
  facet normal -9.396926e-001  3.420202e-001 -6.266524e-008
    outer loop
      vertex  5.095220e+000  3.286771e+001  3.000000e+001
      vertex  3.484091e+000  2.844117e+001  2.460309e+001
      vertex  2.530069e+000  2.582002e+001  2.500000e+001
    endloop
  endfacet
  facet normal -9.396926e-001  3.420203e-001 -9.667461e-008
    outer loop
      vertex  5.095220e+000  3.286771e+001  3.000000e+001
      vertex  2.530069e+000  2.582002e+001  2.500000e+001
      vertex  1.576047e+000  2.319886e+001  2.460309e+001
    endloop
  endfacet
  facet normal -9.396932e-001  3.420186e-001  3.217840e-006
    outer loop
      vertex  5.095220e+000  3.286771e+001  3.000000e+001
      vertex  1.576047e+000  2.319886e+001  2.460309e+001
      vertex  6.977569e-001  2.078578e+001  2.344388e+001
    endloop
  endfacet
  facet normal -9.396927e-001  3.420202e-001  1.522779e-008
    outer loop
      vertex  5.095220e+000  3.286771e+001  3.000000e+001
      vertex  6.977569e-001  2.078578e+001  2.344388e+001
      vertex -3.508193e-002  1.877232e+001  3.000000e+001
    endloop
  endfacet
  facet normal  3.420200e-001  9.396926e-001  -0.000000e+000
    outer loop
      vertex  2.013030e+001  2.739539e+001  3.000000e+001
      vertex  2.013030e+001  2.739539e+001  2.161438e+001
      vertex  5.095220e+000  3.286771e+001  3.000000e+001
    endloop
  endfacet
  facet normal  3.420200e-001  9.396926e-001  0.000000e+000
    outer loop
      vertex  5.095220e+000  3.286771e+001  3.000000e+001
      vertex  2.013030e+001  2.739539e+001  2.161438e+001
      vertex  5.095220e+000  3.286771e+001  2.161438e+001
    endloop
  endfacet
  facet normal -9.396926e-001  3.420202e-001 -6.523516e-008
    outer loop
      vertex  5.095220e+000  3.286771e+001 -1.776357e-015
      vertex -3.508193e-002  1.877232e+001  0.000000e+000
      vertex  2.530069e+000  2.582002e+001  5.000000e+000
    endloop
  endfacet
  facet normal -9.396926e-001  3.420202e-001  6.266526e-008
    outer loop
      vertex  5.095220e+000  3.286771e+001 -1.776357e-015
      vertex  2.530069e+000  2.582002e+001  5.000000e+000
      vertex  3.484091e+000  2.844117e+001  5.396907e+000
    endloop
  endfacet
  facet normal -9.396926e-001  3.420201e-001 -9.256179e-008
    outer loop
      vertex  5.095220e+000  3.286771e+001 -1.776357e-015
      vertex  3.484091e+000  2.844117e+001  5.396907e+000
      vertex  4.362381e+000  3.085425e+001  6.556121e+000
    endloop
  endfacet
  facet normal -9.396926e-001  3.420203e-001  0.000000e+000
    outer loop
      vertex  5.095220e+000  3.286771e+001 -1.776357e-015
      vertex  4.362381e+000  3.085425e+001  6.556121e+000
      vertex  5.095220e+000  3.286771e+001  8.385622e+000
    endloop
  endfacet
  facet normal -9.396926e-001  3.420201e-001  0.000000e+000
    outer loop
      vertex -3.508193e-002  1.877232e+001  0.000000e+000
      vertex -3.508193e-002  1.877232e+001  8.385622e+000
      vertex  6.977569e-001  2.078578e+001  6.556121e+000
    endloop
  endfacet
  facet normal -9.396926e-001  3.420200e-001  4.060992e-008
    outer loop
      vertex -3.508193e-002  1.877232e+001  0.000000e+000
      vertex  6.977569e-001  2.078578e+001  6.556121e+000
      vertex  1.576047e+000  2.319886e+001  5.396907e+000
    endloop
  endfacet
  facet normal -9.396927e-001  3.420202e-001 -1.517232e-007
    outer loop
      vertex -3.508193e-002  1.877232e+001  0.000000e+000
      vertex  1.576047e+000  2.319886e+001  5.396907e+000
      vertex  2.530069e+000  2.582002e+001  5.000000e+000
    endloop
  endfacet
  facet normal  3.420200e-001  9.396926e-001  -0.000000e+000
    outer loop
      vertex  2.013030e+001  2.739539e+001  8.385622e+000
      vertex  2.013030e+001  2.739539e+001 -1.776357e-015
      vertex  5.095220e+000  3.286771e+001  8.385622e+000
    endloop
  endfacet
  facet normal  3.420200e-001  9.396926e-001  0.000000e+000
    outer loop
      vertex  5.095220e+000  3.286771e+001  8.385622e+000
      vertex  2.013030e+001  2.739539e+001 -1.776357e-015
      vertex  5.095220e+000  3.286771e+001 -1.776357e-015
    endloop
  endfacet
endsolid CATIA STL
