<?xml version="1.0" encoding="utf-8" ?><!DOCTYPE svg PUBLIC "-//W3C//DTD SVG 1.1//EN" "http://www.w3.org/Graphics/SVG/1.1/DTD/svg11.dtd" 
[ <!ATTLIST svg 
  xmlns:dsy CDATA #FIXED "http://www.3ds.com/print"  
    dsy:text-version CDATA #IMPLIED > 

  <!ATTLIST text 
  xmlns:dsy CDATA #FIXED "http://www.3ds.com/print" 
    dsy:text-version CDATA #IMPLIED > 
]><svg xmlns="http://www.w3.org/2000/svg" xmlns:dsy="http://www.3ds.com/print" dsy:text-version="18000" width="841" height="594" viewBox="0 0 841 594" version="1.1"><g stroke="rgb(0, 0, 0)" stroke-width="0.13" stroke-linecap="butt" stroke-linejoin="miter" fill="none"><path d="M 436.765 300.848 A 10.3999 10.3999 0 0 0 451.356 305.926"/><path d="M 454.733 302.965 A 10.3999 10.3999 0 0 0 453.719 289.473"/></g><g stroke="rgb(0, 0, 0)" stroke-width="0.35" stroke-linecap="butt" stroke-linejoin="miter" fill="none"><circle cx="420.5" cy="297" r="1.5"/><path d="M 421.062 294.873 A 2.20001 2.20001 0 0 0 420.795 294.82"/><path d="M 421.062 294.873 A 0.312012 0.312012 0 0 0 421.45 294.618"/><path d="M 422.704 293.701 A 1.09442 1.09442 0 0 0 421.45 294.618"/><path d="M 422.337 295.211 A 1.09442 1.09442 0 0 0 422.704 293.701"/><path d="M 422.337 295.211 A 0.312012 0.312012 0 0 0 422.25 295.667"/><path d="M 422.401 295.893 A 2.20001 2.20001 0 0 0 422.25 295.667"/><path d="M 422.401 295.893 A 0.312012 0.312012 0 0 0 422.856 295.988"/><path d="M 424.391 296.226 A 1.09442 1.09442 0 0 0 422.856 295.988"/><path d="M 423.064 297.034 A 1.09442 1.09442 0 0 0 424.391 296.226"/><path d="M 423.064 297.034 A 0.312012 0.312012 0 0 0 422.68 297.295"/><path d="M 422.627 297.562 A 2.20001 2.20001 0 0 0 422.68 297.295"/><path d="M 422.627 297.562 A 0.312012 0.312012 0 0 0 422.882 297.95"/><path d="M 423.799 299.204 A 1.09442 1.09442 0 0 0 422.882 297.95"/><path d="M 422.289 298.837 A 1.09442 1.09442 0 0 0 423.799 299.204"/><path d="M 422.289 298.837 A 0.312012 0.312012 0 0 0 421.833 298.75"/><path d="M 421.607 298.901 A 2.20001 2.20001 0 0 0 421.833 298.75"/><path d="M 421.607 298.901 A 0.312012 0.312012 0 0 0 421.512 299.356"/><path d="M 421.274 300.891 A 1.09442 1.09442 0 0 0 421.512 299.356"/><path d="M 420.466 299.564 A 1.09442 1.09442 0 0 0 421.274 300.891"/><path d="M 420.466 299.564 A 0.312012 0.312012 0 0 0 420.205 299.18"/><path d="M 419.938 299.127 A 2.20001 2.20001 0 0 0 420.205 299.18"/><path d="M 419.938 299.127 A 0.312012 0.312012 0 0 0 419.55 299.382"/><path d="M 418.296 300.299 A 1.09442 1.09442 0 0 0 419.55 299.382"/><path d="M 418.663 298.789 A 1.09442 1.09442 0 0 0 418.296 300.299"/><path d="M 418.663 298.789 A 0.312012 0.312012 0 0 0 418.75 298.333"/><path d="M 418.599 298.107 A 2.20001 2.20001 0 0 0 418.75 298.333"/><path d="M 418.599 298.107 A 0.312012 0.312012 0 0 0 418.144 298.012"/><path d="M 416.609 297.774 A 1.09442 1.09442 0 0 0 418.144 298.012"/><path d="M 417.936 296.966 A 1.09442 1.09442 0 0 0 416.609 297.774"/><path d="M 417.936 296.966 A 0.312012 0.312012 0 0 0 418.32 296.705"/><path d="M 418.373 296.438 A 2.20001 2.20001 0 0 0 418.32 296.705"/><path d="M 418.373 296.438 A 0.312012 0.312012 0 0 0 418.118 296.05"/><path d="M 417.201 294.796 A 1.09442 1.09442 0 0 0 418.118 296.05"/><path d="M 418.711 295.163 A 1.09442 1.09442 0 0 0 417.201 294.796"/><path d="M 418.711 295.163 A 0.312012 0.312012 0 0 0 419.167 295.25"/><path d="M 419.393 295.099 A 2.20001 2.20001 0 0 0 419.167 295.25"/><path d="M 419.393 295.099 A 0.312012 0.312012 0 0 0 419.488 294.644"/><path d="M 419.726 293.109 A 1.09442 1.09442 0 0 0 419.488 294.644"/><path d="M 420.534 294.436 A 1.09442 1.09442 0 0 0 419.726 293.109"/><path d="M 420.534 294.436 A 0.312012 0.312012 0 0 0 420.795 294.82"/><circle cx="420.5" cy="297" r="1.5"/><path d="M 421.062 294.873 A 2.20001 2.20001 0 0 0 420.795 294.82"/><path d="M 421.062 294.873 A 0.312012 0.312012 0 0 0 421.45 294.618"/><path d="M 422.704 293.701 A 1.09442 1.09442 0 0 0 421.45 294.618"/><path d="M 422.337 295.211 A 1.09442 1.09442 0 0 0 422.704 293.701"/><path d="M 422.337 295.211 A 0.312012 0.312012 0 0 0 422.25 295.667"/><path d="M 422.401 295.893 A 2.20001 2.20001 0 0 0 422.25 295.667"/><path d="M 422.401 295.893 A 0.312012 0.312012 0 0 0 422.856 295.988"/><path d="M 424.391 296.226 A 1.09442 1.09442 0 0 0 422.856 295.988"/><path d="M 423.064 297.034 A 1.09442 1.09442 0 0 0 424.391 296.226"/><path d="M 423.064 297.034 A 0.312012 0.312012 0 0 0 422.68 297.295"/><path d="M 422.627 297.562 A 2.20001 2.20001 0 0 0 422.68 297.295"/><path d="M 422.627 297.562 A 0.312012 0.312012 0 0 0 422.882 297.95"/><path d="M 423.799 299.204 A 1.09442 1.09442 0 0 0 422.882 297.95"/><path d="M 422.289 298.837 A 1.09442 1.09442 0 0 0 423.799 299.204"/><path d="M 422.289 298.837 A 0.312012 0.312012 0 0 0 421.833 298.75"/><path d="M 421.607 298.901 A 2.20001 2.20001 0 0 0 421.833 298.75"/><path d="M 421.607 298.901 A 0.312012 0.312012 0 0 0 421.512 299.356"/><path d="M 421.274 300.891 A 1.09442 1.09442 0 0 0 421.512 299.356"/><path d="M 420.466 299.564 A 1.09442 1.09442 0 0 0 421.274 300.891"/><path d="M 420.466 299.564 A 0.312012 0.312012 0 0 0 420.205 299.18"/><path d="M 419.938 299.127 A 2.20001 2.20001 0 0 0 420.205 299.18"/><path d="M 419.938 299.127 A 0.312012 0.312012 0 0 0 419.55 299.382"/><path d="M 418.296 300.299 A 1.09442 1.09442 0 0 0 419.55 299.382"/><path d="M 418.663 298.789 A 1.09442 1.09442 0 0 0 418.296 300.299"/><path d="M 418.663 298.789 A 0.312012 0.312012 0 0 0 418.75 298.333"/><path d="M 418.599 298.107 A 2.20001 2.20001 0 0 0 418.75 298.333"/><path d="M 418.599 298.107 A 0.312012 0.312012 0 0 0 418.144 298.012"/><path d="M 416.609 297.774 A 1.09442 1.09442 0 0 0 418.144 298.012"/><path d="M 417.936 296.966 A 1.09442 1.09442 0 0 0 416.609 297.774"/><path d="M 417.936 296.966 A 0.312012 0.312012 0 0 0 418.32 296.705"/><path d="M 418.373 296.438 A 2.20001 2.20001 0 0 0 418.32 296.705"/><path d="M 418.373 296.438 A 0.312012 0.312012 0 0 0 418.118 296.05"/><path d="M 417.201 294.796 A 1.09442 1.09442 0 0 0 418.118 296.05"/><path d="M 418.711 295.163 A 1.09442 1.09442 0 0 0 417.201 294.796"/><path d="M 418.711 295.163 A 0.312012 0.312012 0 0 0 419.167 295.25"/><path d="M 419.393 295.099 A 2.20001 2.20001 0 0 0 419.167 295.25"/><path d="M 419.393 295.099 A 0.312012 0.312012 0 0 0 419.488 294.644"/><path d="M 419.726 293.109 A 1.09442 1.09442 0 0 0 419.488 294.644"/><path d="M 420.534 294.436 A 1.09442 1.09442 0 0 0 419.726 293.109"/><path d="M 420.534 294.436 A 0.312012 0.312012 0 0 0 420.795 294.82"/><path d="M 452.091 290.408 A 8.59998 8.59998 0 0 0 451.948 290.283"/><path d="M 450.238 289.14 A 8.59998 8.59998 0 0 0 450.068 289.056"/><path d="M 445.882 288.224 A 8.59998 8.59998 0 0 0 445.692 288.236"/><path d="M 443.675 288.637 A 8.59998 8.59998 0 0 0 443.495 288.698"/><path d="M 441.651 289.608 A 8.59998 8.59998 0 0 0 441.493 289.714"/><path d="M 439.947 291.069 A 8.59998 8.59998 0 0 0 439.821 291.212"/><path d="M 438.679 292.922 A 8.59998 8.59998 0 0 0 438.595 293.093"/><path d="M 437.934 295.04 A 8.59998 8.59998 0 0 0 437.897 295.226"/><path d="M 437.762 297.278 A 8.59998 8.59998 0 0 0 437.775 297.468"/><path d="M 438.176 299.485 A 8.59998 8.59998 0 0 0 438.237 299.665"/><path d="M 439.146 301.509 A 8.59998 8.59998 0 0 0 439.252 301.668"/><path d="M 440.608 303.214 A 8.59998 8.59998 0 0 0 440.751 303.339"/><path d="M 442.461 304.481 A 8.59998 8.59998 0 0 0 442.631 304.566"/><path d="M 444.579 305.227 A 8.59998 8.59998 0 0 0 444.765 305.264"/><path d="M 446.817 305.398 A 8.59998 8.59998 0 0 0 447.007 305.386"/><path d="M 449.024 304.984 A 8.59998 8.59998 0 0 0 449.204 304.923"/><path d="M 451.048 304.014 A 8.59998 8.59998 0 0 0 451.206 303.908"/><path d="M 452.752 302.552 A 8.59998 8.59998 0 0 0 452.878 302.409"/><path d="M 454.02 300.7 A 8.59998 8.59998 0 0 0 454.104 300.529"/><path d="M 454.765 298.582 A 8.59998 8.59998 0 0 0 454.802 298.395"/><path d="M 454.937 296.343 A 8.59998 8.59998 0 0 0 454.924 296.154"/><path d="M 454.523 294.137 A 8.59998 8.59998 0 0 0 454.462 293.957"/><path d="M 453.552 292.112 A 8.59998 8.59998 0 0 0 453.447 291.954"/><path d="M 448.12 288.395 A 8.59998 8.59998 0 0 0 447.934 288.358"/><path d="M 453.487 291.554 A 0.312012 0.312012 0 0 0 453.447 291.954"/><path d="M 453.487 291.554 A 3.28333 3.28333 0 0 0 454.34 290.154"/><path d="M 454.34 290.154 A 10.3999 10.3999 0 0 0 453.992 289.758"/><path d="M 453.992 289.758 A 3.28333 3.28333 0 0 0 452.493 290.421"/><path d="M 452.091 290.408 A 0.312012 0.312012 0 0 0 452.493 290.421"/><path d="M 454.604 293.581 A 0.312012 0.312012 0 0 0 454.462 293.957"/><path d="M 454.604 293.581 A 3.28333 3.28333 0 0 0 455.79 292.449"/><path d="M 455.79 292.449 A 10.3999 10.3999 0 0 0 455.557 291.976"/><path d="M 455.557 291.976 A 3.28333 3.28333 0 0 0 453.937 292.228"/><path d="M 453.552 292.112 A 0.312012 0.312012 0 0 0 453.937 292.228"/><path d="M 455.159 295.827 A 0.312012 0.312012 0 0 0 454.924 296.154"/><path d="M 455.159 295.827 A 3.28333 3.28333 0 0 0 456.598 295.041"/><path d="M 456.598 295.041 A 10.3999 10.3999 0 0 0 456.495 294.524"/><path d="M 456.495 294.524 A 3.28333 3.28333 0 0 0 454.865 294.348"/><path d="M 454.523 294.137 A 0.312012 0.312012 0 0 0 454.865 294.348"/><path d="M 455.113 298.141 A 0.312012 0.312012 0 0 0 454.802 298.395"/><path d="M 455.113 298.141 A 3.28333 3.28333 0 0 0 456.707 297.754"/><path d="M 456.707 297.754 A 10.3999 10.3999 0 0 0 456.741 297.228"/><path d="M 456.741 297.228 A 3.28333 3.28333 0 0 0 455.212 296.636"/><path d="M 454.937 296.343 A 0.312012 0.312012 0 0 0 455.212 296.636"/><path d="M 454.47 300.364 A 0.312012 0.312012 0 0 0 454.104 300.529"/><path d="M 454.47 300.364 A 3.28333 3.28333 0 0 0 456.11 300.402"/><path d="M 456.11 300.402 A 10.3999 10.3999 0 0 0 456.279 299.903"/><path d="M 456.279 299.903 A 3.28333 3.28333 0 0 0 454.955 298.936"/><path d="M 454.765 298.582 A 0.312012 0.312012 0 0 0 454.955 298.936"/><path d="M 453.274 302.345 A 0.312012 0.312012 0 0 0 452.878 302.409"/><path d="M 453.274 302.344 A 3.28333 3.28333 0 0 0 454.848 302.806"/><path d="M 454.848 302.806 A 10.3999 10.3999 0 0 0 455.14 302.368"/><path d="M 455.14 302.368 A 3.28333 3.28333 0 0 0 454.112 301.091"/><path d="M 454.02 300.7 A 0.312012 0.312012 0 0 0 454.112 301.091"/><path d="M 451.606 303.948 A 0.312012 0.312012 0 0 0 451.206 303.908"/><path d="M 451.606 303.948 A 3.28333 3.28333 0 0 0 453.006 304.801"/><path d="M 453.006 304.801 A 10.3999 10.3999 0 0 0 453.403 304.454"/><path d="M 453.403 304.454 A 3.28333 3.28333 0 0 0 452.74 302.954"/><path d="M 452.752 302.552 A 0.312012 0.312012 0 0 0 452.74 302.954"/><path d="M 449.58 305.066 A 0.312012 0.312012 0 0 0 449.204 304.923"/><path d="M 449.58 305.065 A 3.28333 3.28333 0 0 0 450.711 306.252"/><path d="M 450.711 306.252 A 10.3999 10.3999 0 0 0 451.184 306.019"/><path d="M 451.184 306.019 A 3.28333 3.28333 0 0 0 450.932 304.399"/><path d="M 451.048 304.014 A 0.312012 0.312012 0 0 0 450.932 304.399"/><path d="M 447.333 305.62 A 0.312012 0.312012 0 0 0 447.007 305.386"/><path d="M 447.333 305.62 A 3.28333 3.28333 0 0 0 448.119 307.059"/><path d="M 448.119 307.059 A 10.3999 10.3999 0 0 0 448.636 306.956"/><path d="M 448.636 306.956 A 3.28333 3.28333 0 0 0 448.812 305.326"/><path d="M 449.024 304.985 A 0.312012 0.312012 0 0 0 448.812 305.326"/><path d="M 445.02 305.575 A 0.312012 0.312012 0 0 0 444.765 305.264"/><path d="M 445.02 305.575 A 3.28333 3.28333 0 0 0 445.407 307.168"/><path d="M 445.407 307.168 A 10.3999 10.3999 0 0 0 445.932 307.202"/><path d="M 445.932 307.202 A 3.28333 3.28333 0 0 0 446.524 305.673"/><path d="M 446.817 305.398 A 0.312012 0.312012 0 0 0 446.524 305.673"/><path d="M 442.797 304.932 A 0.312012 0.312012 0 0 0 442.631 304.566"/><path d="M 442.797 304.932 A 3.28333 3.28333 0 0 0 442.758 306.571"/><path d="M 442.758 306.571 A 10.3999 10.3999 0 0 0 443.257 306.74"/><path d="M 443.257 306.74 A 3.28333 3.28333 0 0 0 444.224 305.417"/><path d="M 444.578 305.227 A 0.312012 0.312012 0 0 0 444.224 305.417"/><path d="M 440.816 303.736 A 0.312012 0.312012 0 0 0 440.751 303.339"/><path d="M 440.816 303.736 A 3.28333 3.28333 0 0 0 440.354 305.309"/><path d="M 440.354 305.309 A 10.3999 10.3999 0 0 0 440.793 305.602"/><path d="M 440.792 305.602 A 3.28333 3.28333 0 0 0 442.069 304.573"/><path d="M 442.461 304.481 A 0.312012 0.312012 0 0 0 442.069 304.573"/><path d="M 439.212 302.067 A 0.312012 0.312012 0 0 0 439.252 301.668"/><path d="M 439.212 302.068 A 3.28333 3.28333 0 0 0 438.359 303.468"/><path d="M 438.359 303.468 A 10.3999 10.3999 0 0 0 438.707 303.864"/><path d="M 438.707 303.864 A 3.28333 3.28333 0 0 0 440.206 303.201"/><path d="M 440.608 303.214 A 0.312012 0.312012 0 0 0 440.206 303.201"/><path d="M 438.095 300.041 A 0.312012 0.312012 0 0 0 438.237 299.665"/><path d="M 438.095 300.041 A 3.28333 3.28333 0 0 0 436.908 301.173"/><path d="M 436.908 301.173 A 10.3999 10.3999 0 0 0 437.142 301.645"/><path d="M 437.142 301.645 A 3.28333 3.28333 0 0 0 438.762 301.393"/><path d="M 439.146 301.509 A 0.312012 0.312012 0 0 0 438.762 301.393"/><path d="M 437.54 297.795 A 0.312012 0.312012 0 0 0 437.775 297.468"/><path d="M 437.54 297.795 A 3.28333 3.28333 0 0 0 436.101 298.581"/><path d="M 436.101 298.581 A 10.3999 10.3999 0 0 0 436.204 299.098"/><path d="M 436.204 299.098 A 3.28333 3.28333 0 0 0 437.834 299.273"/><path d="M 438.176 299.485 A 0.312012 0.312012 0 0 0 437.834 299.273"/><path d="M 437.586 295.481 A 0.312012 0.312012 0 0 0 437.897 295.226"/><path d="M 437.586 295.481 A 3.28333 3.28333 0 0 0 435.992 295.868"/><path d="M 435.992 295.868 A 10.3999 10.3999 0 0 0 435.958 296.394"/><path d="M 435.958 296.394 A 3.28333 3.28333 0 0 0 437.487 296.985"/><path d="M 437.762 297.278 A 0.312012 0.312012 0 0 0 437.487 296.985"/><path d="M 438.228 293.258 A 0.312012 0.312012 0 0 0 438.595 293.093"/><path d="M 438.228 293.258 A 3.28333 3.28333 0 0 0 436.589 293.22"/><path d="M 436.589 293.219 A 10.3999 10.3999 0 0 0 436.42 293.719"/><path d="M 436.42 293.718 A 3.28333 3.28333 0 0 0 437.744 294.686"/><path d="M 437.934 295.04 A 0.312012 0.312012 0 0 0 437.744 294.686"/><path d="M 439.425 291.277 A 0.312012 0.312012 0 0 0 439.821 291.212"/><path d="M 439.425 291.277 A 3.28333 3.28333 0 0 0 437.851 290.816"/><path d="M 437.851 290.816 A 10.3999 10.3999 0 0 0 437.559 291.254"/><path d="M 437.559 291.254 A 3.28333 3.28333 0 0 0 438.587 292.531"/><path d="M 438.679 292.922 A 0.312012 0.312012 0 0 0 438.587 292.531"/><path d="M 441.093 289.673 A 0.312012 0.312012 0 0 0 441.493 289.714"/><path d="M 441.093 289.674 A 3.28333 3.28333 0 0 0 439.693 288.821"/><path d="M 439.693 288.821 A 10.3999 10.3999 0 0 0 439.296 289.168"/><path d="M 439.296 289.168 A 3.28333 3.28333 0 0 0 439.959 290.668"/><path d="M 439.947 291.069 A 0.312012 0.312012 0 0 0 439.959 290.668"/><path d="M 443.119 288.556 A 0.312012 0.312012 0 0 0 443.495 288.698"/><path d="M 443.119 288.556 A 3.28333 3.28333 0 0 0 441.987 287.37"/><path d="M 441.987 287.37 A 10.3999 10.3999 0 0 0 441.515 287.603"/><path d="M 441.515 287.603 A 3.28333 3.28333 0 0 0 441.767 289.223"/><path d="M 441.651 289.608 A 0.312012 0.312012 0 0 0 441.767 289.223"/><path d="M 447.679 288.047 A 0.312012 0.312012 0 0 0 447.934 288.358"/><path d="M 447.679 288.047 A 3.28333 3.28333 0 0 0 447.292 286.454"/><path d="M 447.292 286.454 A 10.3999 10.3999 0 0 0 446.766 286.419"/><path d="M 446.767 286.419 A 3.28333 3.28333 0 0 0 446.175 287.948"/><path d="M 445.882 288.224 A 0.312012 0.312012 0 0 0 446.175 287.948"/><path d="M 445.366 288.001 A 0.312012 0.312012 0 0 0 445.692 288.236"/><path d="M 445.366 288.001 A 3.28333 3.28333 0 0 0 444.58 286.563"/><path d="M 444.58 286.563 A 10.3999 10.3999 0 0 0 444.063 286.665"/><path d="M 444.063 286.665 A 3.28333 3.28333 0 0 0 443.887 288.296"/><path d="M 443.675 288.637 A 0.312012 0.312012 0 0 0 443.887 288.296"/><path d="M 449.902 288.69 A 0.312012 0.312012 0 0 0 450.068 289.056"/><path d="M 449.902 288.69 A 3.28333 3.28333 0 0 0 449.941 287.051"/><path d="M 449.941 287.051 A 10.3999 10.3999 0 0 0 449.442 286.881"/><path d="M 449.442 286.881 A 3.28333 3.28333 0 0 0 448.475 288.205"/><path d="M 448.12 288.395 A 0.312012 0.312012 0 0 0 448.475 288.205"/><path d="M 451.883 289.886 A 0.312012 0.312012 0 0 0 451.948 290.283"/><path d="M 451.883 289.886 A 3.28333 3.28333 0 0 0 452.345 288.313"/><path d="M 452.345 288.313 A 10.3999 10.3999 0 0 0 451.906 288.02"/><path d="M 451.906 288.02 A 3.28333 3.28333 0 0 0 450.629 289.048"/><path d="M 450.238 289.14 A 0.312012 0.312012 0 0 0 450.629 289.048"/><circle cx="446.349" cy="296.811" r="1"/></g><g stroke="rgb(0, 0, 0)" stroke-width="0.13" stroke-linecap="butt" stroke-linejoin="miter" fill="none"><path d="M 411.488 317.791 L 413.486 316.451 L 413.245 316.091 L 411.666 317.15 L 411.622 316.894 L 411.663 316.63 L 411.928 316.02 L 412.091 315.729 L 412.246 315.363 L 412.303 315.022 L 412.25 314.699 L 412.104 314.39 L 411.797 314.086 L 411.414 313.942 L 410.995 313.968 L 410.563 314.167 L 410.209 314.508 L 410.035 314.91 L 410.049 315.356 L 410.26 315.815 L 410.299 315.874 L 410.681 315.618 L 410.658 315.585 L 410.505 315.275 L 410.477 314.99 L 410.568 314.735 L 410.775 314.529 L 411.046 314.407 L 411.297 314.391 L 411.523 314.476 L 411.703 314.653 L 411.803 314.865 L 411.833 315.082 L 411.795 315.314 L 411.695 315.564 L 411.537 315.863 L 411.301 316.398 L 411.198 316.869 L 411.251 317.319 L 411.48 317.779 L 411.488 317.791 L 411.488 317.791 z M 413.651 314.281 L 414.155 314.897 L 414.666 315.234 L 415.172 315.308 L 415.669 315.108 L 416.039 314.726 L 416.162 314.231 L 416.04 313.632 L 415.665 312.93 L 415.16 312.322 L 414.906 312.115 L 414.65 311.978 L 414.145 311.904 L 413.649 312.097 L 413.278 312.485 L 413.158 312.985 L 413.275 313.586 L 413.651 314.281 L 413.651 314.281 z M 414.053 314.012 L 413.747 313.483 L 413.607 313.048 L 413.652 312.708 L 413.882 312.444 L 414.209 312.334 L 414.541 312.421 L 414.89 312.715 L 415.263 313.2 L 415.573 313.733 L 415.712 314.168 L 415.667 314.508 L 415.439 314.764 L 415.11 314.881 L 414.778 314.794 L 414.429 314.5 L 414.053 314.012 L 414.053 314.012 z M 418.426 313.136 L 419.004 312.749 L 418.586 312.125 L 418.008 312.512 L 418.426 313.136 L 418.426 313.136 z M 420.248 309.643 L 420.113 309.904 L 420.076 310.165 L 420.121 310.432 L 420.258 310.699 L 420.575 311.027 L 420.961 311.187 L 421.399 311.16 L 421.874 310.945 L 422.249 310.59 L 422.44 310.195 L 422.438 309.777 L 422.259 309.356 L 422.06 309.132 L 421.835 308.985 L 421.574 308.923 L 421.286 308.946 L 421.386 308.733 L 421.411 308.517 L 421.37 308.301 L 421.257 308.079 L 420.991 307.827 L 420.654 307.706 L 420.266 307.742 L 419.854 307.934 L 419.516 308.245 L 419.335 308.591 L 419.315 308.951 L 419.452 309.29 L 419.611 309.481 L 419.794 309.601 L 420.248 309.643 L 420.248 309.643 z M 420.654 310.421 L 420.543 310.174 L 420.552 309.925 L 420.667 309.69 L 420.893 309.483 L 421.166 309.355 L 421.427 309.338 L 421.661 309.424 L 421.852 309.617 L 421.97 309.884 L 421.969 310.146 L 421.86 310.39 L 421.638 310.593 L 421.361 310.724 L 421.094 310.733 L 420.852 310.635 L 420.654 310.421 L 420.654 310.421 z M 419.872 309.057 L 419.782 308.85 L 419.787 308.64 L 419.887 308.446 L 420.078 308.269 L 420.31 308.162 L 420.528 308.143 L 420.724 308.218 L 420.886 308.377 L 420.975 308.591 L 420.972 308.805 L 420.878 309.008 L 420.688 309.178 L 420.452 309.287 L 420.231 309.302 L 420.032 309.223 L 419.872 309.057 L 419.872 309.057 z" stroke="none" fill-rule="evenodd" fill="rgb(0, 0, 0)"/></g><g stroke="rgb(0, 0, 0)" stroke-width="0.13" stroke-linecap="butt" stroke-linejoin="miter" fill="none"><path d="M 409.063 319.418 L 407.694 316.122"/><path d="M 409.444 317.055 L 409.379 316.958 M 409.379 316.958 L 409.201 316.797 M 409.201 316.797 L 409.055 316.684 M 409.055 316.684 L 408.942 316.62 M 408.942 316.62 L 408.747 316.54 M 408.747 316.54 L 408.504 316.492 M 408.504 316.492 L 408.294 316.492 M 408.294 316.492 L 408.165 316.509 M 408.165 316.509 L 407.987 316.558 M 407.987 316.558 L 407.761 316.64 M 407.761 316.64 L 407.664 316.705 M 407.664 316.705 L 407.567 316.77 M 407.567 316.77 L 407.406 316.948 M 407.406 316.948 L 407.293 317.094 M 407.293 317.094 L 407.228 317.207 M 407.228 317.207 L 407.148 317.402 M 407.148 317.402 L 407.1 317.645 M 407.1 317.645 L 407.101 317.855 M 407.101 317.855 L 407.117 317.984 M 407.117 317.984 L 407.166 318.162 M 407.166 318.162 L 407.248 318.388 M 407.248 318.388 L 407.313 318.485 M 407.313 318.485 L 407.378 318.582 M 407.378 318.582 L 407.556 318.743 M 407.556 318.743 L 407.702 318.856 M 407.702 318.856 L 407.816 318.921 M 407.816 318.921 L 408.01 319.001 M 408.01 319.001 L 408.253 319.049 M 408.253 319.049 L 408.463 319.048 M 408.463 319.048 L 408.593 319.032 M 408.593 319.032 L 408.771 318.982 M 408.771 318.982 L 408.997 318.901 M 408.997 318.901 L 409.094 318.836 M 409.094 318.836 L 409.191 318.771 M 409.191 318.771 L 409.352 318.592 M 409.352 318.592 L 409.465 318.447 M 409.465 318.447 L 409.529 318.333 M 409.529 318.333 L 409.609 318.139 M 409.609 318.139 L 409.657 317.896 M 409.657 317.896 L 409.657 317.686 M 409.657 317.686 L 409.64 317.556 M 409.64 317.556 L 409.591 317.378 M 409.591 317.378 L 409.509 317.152 M 409.509 317.152 L 409.444 317.055"/><path d="M 453.67 292.523 L 454.986 291.017 L 453.093 291.663"/><path d="M 439.029 301.099 L 437.713 302.605 L 439.606 301.959"/><path d="M 409.402 321.599 L 454.986 291.017"/></g></svg>