<?xml version="1.0" encoding="utf-8" ?><!DOCTYPE svg PUBLIC "-//W3C//DTD SVG 1.1//EN" "http://www.w3.org/Graphics/SVG/1.1/DTD/svg11.dtd" 
[ <!ATTLIST svg 
  xmlns:dsy CDATA #FIXED "http://www.3ds.com/print"  
    dsy:text-version CDATA #IMPLIED > 

  <!ATTLIST text 
  xmlns:dsy CDATA #FIXED "http://www.3ds.com/print" 
    dsy:text-version CDATA #IMPLIED > 
]><svg xmlns="http://www.w3.org/2000/svg" xmlns:dsy="http://www.3ds.com/print" dsy:text-version="18000" width="420" height="297" viewBox="0 0 420 297" version="1.1"><g stroke="rgb(0, 0, 0)" stroke-width="0.35" stroke-linecap="butt" stroke-linejoin="miter" fill="none"><path d="M 204.401 141.972 A 8.60001 8.60001 0 0 0 204.258 142.097"/><path d="M 206.282 140.745 A 8.60001 8.60001 0 0 0 206.111 140.829"/><path d="M 210.657 139.925 A 8.60001 8.60001 0 0 0 210.468 139.913"/><path d="M 212.854 140.387 A 8.60001 8.60001 0 0 0 212.674 140.326"/><path d="M 214.857 141.403 A 8.60001 8.60001 0 0 0 214.699 141.297"/><path d="M 216.528 142.901 A 8.60001 8.60001 0 0 0 216.403 142.758"/><path d="M 217.755 144.782 A 8.60001 8.60001 0 0 0 217.671 144.611"/><path d="M 218.453 146.916 A 8.60001 8.60001 0 0 0 218.416 146.729"/><path d="M 218.575 149.157 A 8.60001 8.60001 0 0 0 218.587 148.968"/><path d="M 218.113 151.354 A 8.60001 8.60001 0 0 0 218.174 151.174"/><path d="M 217.097 153.357 A 8.60001 8.60001 0 0 0 217.203 153.199"/><path d="M 215.599 155.028 A 8.60001 8.60001 0 0 0 215.742 154.903"/><path d="M 213.718 156.255 A 8.60001 8.60001 0 0 0 213.889 156.171"/><path d="M 211.584 156.953 A 8.60001 8.60001 0 0 0 211.771 156.916"/><path d="M 209.343 157.075 A 8.60001 8.60001 0 0 0 209.532 157.087"/><path d="M 207.146 156.613 A 8.60001 8.60001 0 0 0 207.326 156.674"/><path d="M 205.143 155.597 A 8.60001 8.60001 0 0 0 205.301 155.703"/><path d="M 203.472 154.099 A 8.60001 8.60001 0 0 0 203.597 154.242"/><path d="M 202.245 152.218 A 8.60001 8.60001 0 0 0 202.329 152.389"/><path d="M 201.547 150.084 A 8.60001 8.60001 0 0 0 201.584 150.271"/><path d="M 201.425 147.843 A 8.60001 8.60001 0 0 0 201.413 148.032"/><path d="M 201.887 145.646 A 8.60001 8.60001 0 0 0 201.826 145.826"/><path d="M 202.903 143.643 A 8.60001 8.60001 0 0 0 202.797 143.801"/><path d="M 208.416 140.047 A 8.60001 8.60001 0 0 0 208.229 140.084"/><path d="M 202.903 143.643 A 0.311981 0.311981 0 0 0 202.863 143.243"/><path d="M 202.01 141.843 A 3.2834 3.2834 0 0 0 202.863 143.243"/><path d="M 202.357 141.447 A 10.4 10.4 0 0 0 202.01 141.843"/><path d="M 203.857 142.11 A 3.2834 3.2834 0 0 0 202.357 141.447"/><path d="M 203.857 142.11 A 0.311981 0.311981 0 0 0 204.258 142.097"/><path d="M 201.887 145.646 A 0.311981 0.311981 0 0 0 201.745 145.27"/><path d="M 200.559 144.138 A 3.2834 3.2834 0 0 0 201.745 145.27"/><path d="M 200.792 143.665 A 10.4 10.4 0 0 0 200.559 144.138"/><path d="M 202.412 143.918 A 3.2834 3.2834 0 0 0 200.792 143.665"/><path d="M 202.412 143.918 A 0.311981 0.311981 0 0 0 202.797 143.801"/><path d="M 201.425 147.843 A 0.311981 0.311981 0 0 0 201.191 147.516"/><path d="M 199.752 146.73 A 3.2834 3.2834 0 0 0 201.191 147.516"/><path d="M 199.855 146.213 A 10.4 10.4 0 0 0 199.752 146.73"/><path d="M 201.485 146.038 A 3.2834 3.2834 0 0 0 199.855 146.213"/><path d="M 201.485 146.038 A 0.311981 0.311981 0 0 0 201.826 145.826"/><path d="M 201.547 150.084 A 0.311981 0.311981 0 0 0 201.236 149.83"/><path d="M 199.643 149.443 A 3.2834 3.2834 0 0 0 201.236 149.83"/><path d="M 199.608 148.917 A 10.4 10.4 0 0 0 199.643 149.443"/><path d="M 201.138 148.325 A 3.2834 3.2834 0 0 0 199.608 148.917"/><path d="M 201.138 148.325 A 0.311981 0.311981 0 0 0 201.413 148.032"/><path d="M 202.245 152.218 A 0.311981 0.311981 0 0 0 201.879 152.053"/><path d="M 200.24 152.091 A 3.2834 3.2834 0 0 0 201.879 152.053"/><path d="M 200.07 151.592 A 10.4 10.4 0 0 0 200.24 152.091"/><path d="M 201.394 150.625 A 3.2834 3.2834 0 0 0 200.07 151.592"/><path d="M 201.394 150.625 A 0.311981 0.311981 0 0 0 201.584 150.271"/><path d="M 203.472 154.099 A 0.311981 0.311981 0 0 0 203.075 154.034"/><path d="M 201.502 154.495 A 3.2834 3.2834 0 0 0 203.075 154.034"/><path d="M 201.209 154.057 A 10.4 10.4 0 0 0 201.502 154.495"/><path d="M 202.238 152.78 A 3.2834 3.2834 0 0 0 201.209 154.057"/><path d="M 202.238 152.78 A 0.311981 0.311981 0 0 0 202.329 152.389"/><path d="M 205.143 155.597 A 0.311981 0.311981 0 0 0 204.743 155.637"/><path d="M 203.343 156.49 A 3.2834 3.2834 0 0 0 204.743 155.637"/><path d="M 202.947 156.143 A 10.4 10.4 0 0 0 203.343 156.49"/><path d="M 203.61 154.643 A 3.2834 3.2834 0 0 0 202.947 156.143"/><path d="M 203.61 154.643 A 0.311981 0.311981 0 0 0 203.597 154.242"/><path d="M 207.146 156.613 A 0.311981 0.311981 0 0 0 206.77 156.755"/><path d="M 205.638 157.941 A 3.2834 3.2834 0 0 0 206.77 156.755"/><path d="M 205.165 157.708 A 10.4 10.4 0 0 0 205.638 157.941"/><path d="M 205.418 156.088 A 3.2834 3.2834 0 0 0 205.165 157.708"/><path d="M 205.418 156.088 A 0.311981 0.311981 0 0 0 205.301 155.703"/><path d="M 209.343 157.075 A 0.311981 0.311981 0 0 0 209.016 157.309"/><path d="M 208.23 158.748 A 3.2834 3.2834 0 0 0 209.016 157.309"/><path d="M 207.713 158.645 A 10.4 10.4 0 0 0 208.23 158.748"/><path d="M 207.538 157.015 A 3.2834 3.2834 0 0 0 207.713 158.645"/><path d="M 207.538 157.015 A 0.311981 0.311981 0 0 0 207.326 156.674"/><path d="M 211.584 156.953 A 0.311981 0.311981 0 0 0 211.33 157.264"/><path d="M 210.943 158.857 A 3.2834 3.2834 0 0 0 211.33 157.264"/><path d="M 210.417 158.892 A 10.4 10.4 0 0 0 210.943 158.857"/><path d="M 209.825 157.362 A 3.2834 3.2834 0 0 0 210.417 158.892"/><path d="M 209.825 157.362 A 0.311981 0.311981 0 0 0 209.532 157.087"/><path d="M 213.718 156.255 A 0.311981 0.311981 0 0 0 213.553 156.621"/><path d="M 213.591 158.26 A 3.2834 3.2834 0 0 0 213.553 156.621"/><path d="M 213.092 158.43 A 10.4 10.4 0 0 0 213.591 158.26"/><path d="M 212.125 157.106 A 3.2834 3.2834 0 0 0 213.092 158.43"/><path d="M 212.125 157.106 A 0.311981 0.311981 0 0 0 211.771 156.916"/><path d="M 215.599 155.028 A 0.311981 0.311981 0 0 0 215.534 155.425"/><path d="M 215.995 156.998 A 3.2834 3.2834 0 0 0 215.534 155.425"/><path d="M 215.557 157.291 A 10.4 10.4 0 0 0 215.995 156.998"/><path d="M 214.28 156.262 A 3.2834 3.2834 0 0 0 215.557 157.291"/><path d="M 214.28 156.262 A 0.311981 0.311981 0 0 0 213.889 156.171"/><path d="M 217.097 153.357 A 0.311981 0.311981 0 0 0 217.137 153.757"/><path d="M 217.99 155.157 A 3.2834 3.2834 0 0 0 217.137 153.757"/><path d="M 217.643 155.553 A 10.4 10.4 0 0 0 217.99 155.157"/><path d="M 216.143 154.89 A 3.2834 3.2834 0 0 0 217.643 155.553"/><path d="M 216.143 154.89 A 0.311981 0.311981 0 0 0 215.742 154.903"/><path d="M 218.113 151.354 A 0.311981 0.311981 0 0 0 218.255 151.73"/><path d="M 219.441 152.862 A 3.2834 3.2834 0 0 0 218.255 151.73"/><path d="M 219.208 153.335 A 10.4 10.4 0 0 0 219.441 152.862"/><path d="M 217.588 153.082 A 3.2834 3.2834 0 0 0 219.208 153.335"/><path d="M 217.588 153.082 A 0.311981 0.311981 0 0 0 217.203 153.199"/><path d="M 218.575 149.157 A 0.311981 0.311981 0 0 0 218.809 149.484"/><path d="M 220.248 150.27 A 3.2834 3.2834 0 0 0 218.809 149.484"/><path d="M 220.145 150.787 A 10.4 10.4 0 0 0 220.248 150.27"/><path d="M 218.515 150.962 A 3.2834 3.2834 0 0 0 220.145 150.787"/><path d="M 218.515 150.962 A 0.311981 0.311981 0 0 0 218.174 151.174"/><path d="M 218.453 146.916 A 0.311981 0.311981 0 0 0 218.764 147.17"/><path d="M 220.357 147.557 A 3.2834 3.2834 0 0 0 218.764 147.17"/><path d="M 220.392 148.083 A 10.4 10.4 0 0 0 220.357 147.557"/><path d="M 218.862 148.675 A 3.2834 3.2834 0 0 0 220.392 148.083"/><path d="M 218.862 148.675 A 0.311981 0.311981 0 0 0 218.587 148.968"/><path d="M 217.755 144.782 A 0.311981 0.311981 0 0 0 218.121 144.947"/><path d="M 219.76 144.909 A 3.2834 3.2834 0 0 0 218.121 144.947"/><path d="M 219.93 145.408 A 10.4 10.4 0 0 0 219.76 144.909"/><path d="M 218.606 146.375 A 3.2834 3.2834 0 0 0 219.93 145.408"/><path d="M 218.606 146.375 A 0.311981 0.311981 0 0 0 218.416 146.729"/><path d="M 216.528 142.901 A 0.311981 0.311981 0 0 0 216.925 142.966"/><path d="M 218.498 142.505 A 3.2834 3.2834 0 0 0 216.925 142.966"/><path d="M 218.791 142.943 A 10.4 10.4 0 0 0 218.498 142.505"/><path d="M 217.762 144.22 A 3.2834 3.2834 0 0 0 218.791 142.943"/><path d="M 217.762 144.22 A 0.311981 0.311981 0 0 0 217.671 144.611"/><path d="M 214.857 141.403 A 0.311981 0.311981 0 0 0 215.257 141.363"/><path d="M 216.657 140.51 A 3.2834 3.2834 0 0 0 215.257 141.363"/><path d="M 217.053 140.857 A 10.4 10.4 0 0 0 216.657 140.51"/><path d="M 216.39 142.357 A 3.2834 3.2834 0 0 0 217.053 140.857"/><path d="M 216.39 142.357 A 0.311981 0.311981 0 0 0 216.403 142.758"/><path d="M 212.854 140.387 A 0.311981 0.311981 0 0 0 213.23 140.245"/><path d="M 214.362 139.059 A 3.2834 3.2834 0 0 0 213.23 140.245"/><path d="M 214.835 139.292 A 10.4 10.4 0 0 0 214.362 139.059"/><path d="M 214.582 140.912 A 3.2834 3.2834 0 0 0 214.835 139.292"/><path d="M 214.582 140.912 A 0.311981 0.311981 0 0 0 214.699 141.297"/><path d="M 208.416 140.047 A 0.311981 0.311981 0 0 0 208.67 139.736"/><path d="M 209.057 138.143 A 3.2834 3.2834 0 0 0 208.67 139.736"/><path d="M 209.583 138.108 A 10.4 10.4 0 0 0 209.057 138.143"/><path d="M 210.175 139.638 A 3.2834 3.2834 0 0 0 209.583 138.108"/><path d="M 210.175 139.638 A 0.311981 0.311981 0 0 0 210.468 139.913"/><path d="M 210.657 139.925 A 0.311981 0.311981 0 0 0 210.984 139.691"/><path d="M 211.77 138.252 A 3.2834 3.2834 0 0 0 210.984 139.691"/><path d="M 212.287 138.355 A 10.4 10.4 0 0 0 211.77 138.252"/><path d="M 212.462 139.985 A 3.2834 3.2834 0 0 0 212.287 138.355"/><path d="M 212.462 139.985 A 0.311981 0.311981 0 0 0 212.674 140.326"/><path d="M 206.282 140.745 A 0.311981 0.311981 0 0 0 206.447 140.379"/><path d="M 206.409 138.74 A 3.2834 3.2834 0 0 0 206.447 140.379"/><path d="M 206.908 138.57 A 10.4 10.4 0 0 0 206.409 138.74"/><path d="M 207.875 139.894 A 3.2834 3.2834 0 0 0 206.908 138.57"/><path d="M 207.875 139.894 A 0.311981 0.311981 0 0 0 208.229 140.084"/><path d="M 204.401 141.972 A 0.311981 0.311981 0 0 0 204.466 141.575"/><path d="M 204.005 140.002 A 3.2834 3.2834 0 0 0 204.466 141.575"/><path d="M 204.443 139.709 A 10.4 10.4 0 0 0 204.005 140.002"/><path d="M 205.72 140.738 A 3.2834 3.2834 0 0 0 204.443 139.709"/><path d="M 205.72 140.738 A 0.311981 0.311981 0 0 0 206.111 140.829"/><circle cx="210" cy="148.5" r="0.899994"/></g></svg>