solid CATIA STL
  facet normal  0.000000e+000  0.000000e+000  1.000000e+000
    outer loop
      vertex  1.174828e+001  7.641208e-001  3.000000e+000
      vertex  1.239828e+001  1.236373e+000  3.000000e+000
      vertex -5.128408e+000  1.135541e+001  3.000000e+000
    endloop
  endfacet
  facet normal  0.000000e+000  0.000000e+000  1.000000e+000
    outer loop
      vertex -7.050000e+000  1.221096e+001  3.000000e+000
      vertex -6.264113e+000  1.237800e+001  3.000000e+000
      vertex -7.250000e+000  1.255737e+001  3.000000e+000
    endloop
  endfacet
  facet normal  0.000000e+000  -0.000000e+000  1.000000e+000
    outer loop
      vertex -5.212391e+000 -1.055637e+001  3.000000e+000
      vertex -5.128408e+000 -1.135541e+001  3.000000e+000
      vertex  1.239828e+001 -1.236373e+000  3.000000e+000
    endloop
  endfacet
  facet normal  0.000000e+000  -0.000000e+000  1.000000e+000
    outer loop
      vertex -7.269870e+000 -1.011904e+001  3.000000e+000
      vertex -6.535887e+000 -9.792247e+000  3.000000e+000
      vertex -6.535887e+000  9.792247e+000  3.000000e+000
    endloop
  endfacet
  facet normal  -0.000000e+000  0.000000e+000  1.000000e+000
    outer loop
      vertex  1.434568e+001  2.109820e+000  3.000000e+000
      vertex  1.320172e+001  1.236373e+000  3.000000e+000
      vertex  1.385172e+001  7.641208e-001  3.000000e+000
    endloop
  endfacet
  facet normal  0.000000e+000  -0.000000e+000  1.000000e+000
    outer loop
      vertex -5.750000e+000 -9.959292e+000  3.000000e+000
      vertex -5.212391e+000 -1.055637e+001  3.000000e+000
      vertex  1.239828e+001 -1.236373e+000  3.000000e+000
    endloop
  endfacet
  facet normal  0.000000e+000  0.000000e+000  1.000000e+000
    outer loop
      vertex -5.750000e+000 -9.959292e+000  3.000000e+000
      vertex  1.239828e+001 -1.236373e+000  3.000000e+000
      vertex  1.174828e+001 -7.641208e-001  3.000000e+000
    endloop
  endfacet
  facet normal  0.000000e+000  0.000000e+000  1.000000e+000
    outer loop
      vertex -5.750000e+000 -9.959292e+000  3.000000e+000
      vertex  1.174828e+001 -7.641208e-001  3.000000e+000
      vertex  1.150000e+001  1.591988e-016  3.000000e+000
    endloop
  endfacet
  facet normal  0.000000e+000  -0.000000e+000  1.000000e+000
    outer loop
      vertex -5.750000e+000 -9.959292e+000  3.000000e+000
      vertex  1.150000e+001  1.591988e-016  3.000000e+000
      vertex  1.174828e+001  7.641208e-001  3.000000e+000
    endloop
  endfacet
  facet normal  0.000000e+000  0.000000e+000  1.000000e+000
    outer loop
      vertex -5.750000e+000 -9.959292e+000  3.000000e+000
      vertex  1.174828e+001  7.641208e-001  3.000000e+000
      vertex -5.128408e+000  1.135541e+001  3.000000e+000
    endloop
  endfacet
  facet normal  0.000000e+000  0.000000e+000  1.000000e+000
    outer loop
      vertex -5.750000e+000 -9.959292e+000  3.000000e+000
      vertex -5.128408e+000  1.135541e+001  3.000000e+000
      vertex -5.212391e+000  1.055637e+001  3.000000e+000
    endloop
  endfacet
  facet normal  0.000000e+000  0.000000e+000  1.000000e+000
    outer loop
      vertex -5.750000e+000 -9.959292e+000  3.000000e+000
      vertex -5.212391e+000  1.055637e+001  3.000000e+000
      vertex -5.750000e+000  9.959292e+000  3.000000e+000
    endloop
  endfacet
  facet normal  0.000000e+000  0.000000e+000  1.000000e+000
    outer loop
      vertex -5.750000e+000 -9.959292e+000  3.000000e+000
      vertex -5.750000e+000  9.959292e+000  3.000000e+000
      vertex -6.535887e+000  9.792247e+000  3.000000e+000
    endloop
  endfacet
  facet normal  0.000000e+000  0.000000e+000  1.000000e+000
    outer loop
      vertex -5.750000e+000 -9.959292e+000  3.000000e+000
      vertex -6.535887e+000  9.792247e+000  3.000000e+000
      vertex -6.535887e+000 -9.792247e+000  3.000000e+000
    endloop
  endfacet
  facet normal  -0.000000e+000  0.000000e+000  1.000000e+000
    outer loop
      vertex -5.345685e+000  1.347864e+001  3.000000e+000
      vertex -7.250000e+000  1.255737e+001  3.000000e+000
      vertex -6.264113e+000  1.237800e+001  3.000000e+000
    endloop
  endfacet
  facet normal  -0.000000e+000  0.000000e+000  1.000000e+000
    outer loop
      vertex -5.345685e+000  1.347864e+001  3.000000e+000
      vertex -6.264113e+000  1.237800e+001  3.000000e+000
      vertex -5.530130e+000  1.205121e+001  3.000000e+000
    endloop
  endfacet
  facet normal  -0.000000e+000  0.000000e+000  1.000000e+000
    outer loop
      vertex -5.345685e+000  1.347864e+001  3.000000e+000
      vertex -5.530130e+000  1.205121e+001  3.000000e+000
      vertex -5.128408e+000  1.135541e+001  3.000000e+000
    endloop
  endfacet
  facet normal  -0.000000e+000  -0.000000e+000  1.000000e+000
    outer loop
      vertex -5.345685e+000  1.347864e+001  3.000000e+000
      vertex -5.128408e+000  1.135541e+001  3.000000e+000
      vertex  1.239828e+001  1.236373e+000  3.000000e+000
    endloop
  endfacet
  facet normal  0.000000e+000  -0.000000e+000  1.000000e+000
    outer loop
      vertex -5.345685e+000  1.347864e+001  3.000000e+000
      vertex  1.239828e+001  1.236373e+000  3.000000e+000
      vertex  1.320172e+001  1.236373e+000  3.000000e+000
    endloop
  endfacet
  facet normal  0.000000e+000  -0.000000e+000  1.000000e+000
    outer loop
      vertex -5.345685e+000  1.347864e+001  3.000000e+000
      vertex  1.320172e+001  1.236373e+000  3.000000e+000
      vertex  1.434568e+001  2.109820e+000  3.000000e+000
    endloop
  endfacet
  facet normal  0.000000e+000  0.000000e+000  1.000000e+000
    outer loop
      vertex -5.345685e+000 -1.347864e+001  3.000000e+000
      vertex  1.434568e+001 -2.109820e+000  3.000000e+000
      vertex  1.320172e+001 -1.236373e+000  3.000000e+000
    endloop
  endfacet
  facet normal  0.000000e+000  0.000000e+000  1.000000e+000
    outer loop
      vertex -5.345685e+000 -1.347864e+001  3.000000e+000
      vertex  1.320172e+001 -1.236373e+000  3.000000e+000
      vertex  1.239828e+001 -1.236373e+000  3.000000e+000
    endloop
  endfacet
  facet normal  0.000000e+000  0.000000e+000  1.000000e+000
    outer loop
      vertex -5.345685e+000 -1.347864e+001  3.000000e+000
      vertex  1.239828e+001 -1.236373e+000  3.000000e+000
      vertex -5.128408e+000 -1.135541e+001  3.000000e+000
    endloop
  endfacet
  facet normal  0.000000e+000  0.000000e+000  1.000000e+000
    outer loop
      vertex -5.345685e+000 -1.347864e+001  3.000000e+000
      vertex -5.128408e+000 -1.135541e+001  3.000000e+000
      vertex -5.530130e+000 -1.205121e+001  3.000000e+000
    endloop
  endfacet
  facet normal  0.000000e+000  0.000000e+000  1.000000e+000
    outer loop
      vertex -5.345685e+000 -1.347864e+001  3.000000e+000
      vertex -5.530130e+000 -1.205121e+001  3.000000e+000
      vertex -6.264113e+000 -1.237800e+001  3.000000e+000
    endloop
  endfacet
  facet normal  0.000000e+000  0.000000e+000  1.000000e+000
    outer loop
      vertex -5.345685e+000 -1.347864e+001  3.000000e+000
      vertex -6.264113e+000 -1.237800e+001  3.000000e+000
      vertex -7.050000e+000 -1.221096e+001  3.000000e+000
    endloop
  endfacet
  facet normal  0.000000e+000  0.000000e+000  9.999999e-001
    outer loop
      vertex -5.345685e+000 -1.347864e+001  3.000000e+000
      vertex -7.050000e+000 -1.221096e+001  3.000000e+000
      vertex -7.250000e+000 -1.255737e+001  3.000000e+000
    endloop
  endfacet
  facet normal  0.000000e+000  -0.000000e+000  1.000000e+000
    outer loop
      vertex -9.000000e+000 -1.136882e+001  3.000000e+000
      vertex -7.250000e+000 -1.255737e+001  3.000000e+000
      vertex -7.050000e+000 -1.221096e+001  3.000000e+000
    endloop
  endfacet
  facet normal  0.000000e+000  0.000000e+000  1.000000e+000
    outer loop
      vertex -9.000000e+000 -1.136882e+001  3.000000e+000
      vertex -7.050000e+000 -1.221096e+001  3.000000e+000
      vertex -7.587609e+000 -1.161388e+001  3.000000e+000
    endloop
  endfacet
  facet normal  0.000000e+000  0.000000e+000  1.000000e+000
    outer loop
      vertex -9.000000e+000 -1.136882e+001  3.000000e+000
      vertex -7.587609e+000 -1.161388e+001  3.000000e+000
      vertex -7.671592e+000 -1.081484e+001  3.000000e+000
    endloop
  endfacet
  facet normal  0.000000e+000  -0.000000e+000  1.000000e+000
    outer loop
      vertex -9.000000e+000 -1.136882e+001  3.000000e+000
      vertex -7.671592e+000 -1.081484e+001  3.000000e+000
      vertex -7.269870e+000 -1.011904e+001  3.000000e+000
    endloop
  endfacet
  facet normal  0.000000e+000  -0.000000e+000  1.000000e+000
    outer loop
      vertex -9.000000e+000 -1.136882e+001  3.000000e+000
      vertex -7.269870e+000 -1.011904e+001  3.000000e+000
      vertex -6.535887e+000  9.792247e+000  3.000000e+000
    endloop
  endfacet
  facet normal  0.000000e+000  0.000000e+000  1.000000e+000
    outer loop
      vertex -9.000000e+000 -1.136882e+001  3.000000e+000
      vertex -6.535887e+000  9.792247e+000  3.000000e+000
      vertex -7.269870e+000  1.011904e+001  3.000000e+000
    endloop
  endfacet
  facet normal  0.000000e+000  0.000000e+000  9.999999e-001
    outer loop
      vertex -9.000000e+000 -1.136882e+001  3.000000e+000
      vertex -7.269870e+000  1.011904e+001  3.000000e+000
      vertex -7.671592e+000  1.081484e+001  3.000000e+000
    endloop
  endfacet
  facet normal  0.000000e+000  0.000000e+000  1.000000e+000
    outer loop
      vertex -9.000000e+000  1.136882e+001  3.000000e+000
      vertex -9.000000e+000 -1.136882e+001  3.000000e+000
      vertex -7.671592e+000  1.081484e+001  3.000000e+000
    endloop
  endfacet
  facet normal  0.000000e+000  -0.000000e+000  1.000000e+000
    outer loop
      vertex -9.000000e+000  1.136882e+001  3.000000e+000
      vertex -7.671592e+000  1.081484e+001  3.000000e+000
      vertex -7.587609e+000  1.161388e+001  3.000000e+000
    endloop
  endfacet
  facet normal  0.000000e+000  -0.000000e+000  1.000000e+000
    outer loop
      vertex -9.000000e+000  1.136882e+001  3.000000e+000
      vertex -7.587609e+000  1.161388e+001  3.000000e+000
      vertex -7.050000e+000  1.221096e+001  3.000000e+000
    endloop
  endfacet
  facet normal  0.000000e+000  0.000000e+000  1.000000e+000
    outer loop
      vertex -9.000000e+000  1.136882e+001  3.000000e+000
      vertex -7.050000e+000  1.221096e+001  3.000000e+000
      vertex -7.250000e+000  1.255737e+001  3.000000e+000
    endloop
  endfacet
  facet normal  -0.000000e+000  0.000000e+000  1.000000e+000
    outer loop
      vertex  1.434568e+001  2.109820e+000  3.000000e+000
      vertex  1.385172e+001  7.641208e-001  3.000000e+000
      vertex  1.450000e+001  0.000000e+000  3.000000e+000
    endloop
  endfacet
  facet normal  0.000000e+000  0.000000e+000  1.000000e+000
    outer loop
      vertex  1.450000e+001  0.000000e+000  3.000000e+000
      vertex  1.385172e+001  7.641208e-001  3.000000e+000
      vertex  1.410000e+001  0.000000e+000  3.000000e+000
    endloop
  endfacet
  facet normal  -0.000000e+000  0.000000e+000  1.000000e+000
    outer loop
      vertex  1.450000e+001  0.000000e+000  3.000000e+000
      vertex  1.410000e+001  0.000000e+000  3.000000e+000
      vertex  1.434568e+001 -2.109820e+000  3.000000e+000
    endloop
  endfacet
  facet normal  0.000000e+000  0.000000e+000  1.000000e+000
    outer loop
      vertex  1.434568e+001 -2.109820e+000  3.000000e+000
      vertex  1.410000e+001  0.000000e+000  3.000000e+000
      vertex  1.385172e+001 -7.641208e-001  3.000000e+000
    endloop
  endfacet
  facet normal  0.000000e+000  0.000000e+000  1.000000e+000
    outer loop
      vertex  1.434568e+001 -2.109820e+000  3.000000e+000
      vertex  1.385172e+001 -7.641208e-001  3.000000e+000
      vertex  1.320172e+001 -1.236373e+000  3.000000e+000
    endloop
  endfacet
  facet normal  -0.000000e+000  0.000000e+000 -1.000000e+000
    outer loop
      vertex -7.250000e+000  1.255737e+001  0.000000e+000
      vertex -6.264113e+000  1.237800e+001  0.000000e+000
      vertex -7.050000e+000  1.221096e+001  0.000000e+000
    endloop
  endfacet
  facet normal  0.000000e+000  0.000000e+000 -1.000000e+000
    outer loop
      vertex  1.385172e+001  7.641208e-001  0.000000e+000
      vertex  1.320172e+001  1.236373e+000  0.000000e+000
      vertex  1.434568e+001  2.109820e+000  0.000000e+000
    endloop
  endfacet
  facet normal  0.000000e+000  0.000000e+000 -1.000000e+000
    outer loop
      vertex -1.322876e+000  1.500000e+000  0.000000e+000
      vertex -1.920619e+000  5.578747e-001  0.000000e+000
      vertex -5.750000e+000  9.959292e+000  0.000000e+000
    endloop
  endfacet
  facet normal  0.000000e+000  0.000000e+000 -1.000000e+000
    outer loop
      vertex -1.322876e+000  1.500000e+000  0.000000e+000
      vertex -5.750000e+000  9.959292e+000  0.000000e+000
      vertex -5.212391e+000  1.055637e+001  0.000000e+000
    endloop
  endfacet
  facet normal  0.000000e+000  0.000000e+000 -1.000000e+000
    outer loop
      vertex -1.322876e+000  1.500000e+000  0.000000e+000
      vertex -5.212391e+000  1.055637e+001  0.000000e+000
      vertex -5.128408e+000  1.135541e+001  0.000000e+000
    endloop
  endfacet
  facet normal  0.000000e+000  0.000000e+000 -1.000000e+000
    outer loop
      vertex -1.322876e+000  1.500000e+000  0.000000e+000
      vertex -5.128408e+000  1.135541e+001  0.000000e+000
      vertex -5.345685e+000  1.347864e+001  0.000000e+000
    endloop
  endfacet
  facet normal  0.000000e+000  0.000000e+000 -1.000000e+000
    outer loop
      vertex -1.322876e+000  1.500000e+000  0.000000e+000
      vertex -5.345685e+000  1.347864e+001  0.000000e+000
      vertex  1.322876e+000  1.500000e+000  0.000000e+000
    endloop
  endfacet
  facet normal  -0.000000e+000  0.000000e+000 -1.000000e+000
    outer loop
      vertex -1.322876e+000 -1.500000e+000  0.000000e+000
      vertex  1.322876e+000 -1.500000e+000  0.000000e+000
      vertex -5.345685e+000 -1.347864e+001  0.000000e+000
    endloop
  endfacet
  facet normal  0.000000e+000  0.000000e+000 -1.000000e+000
    outer loop
      vertex -1.322876e+000 -1.500000e+000  0.000000e+000
      vertex -5.345685e+000 -1.347864e+001  0.000000e+000
      vertex -5.128408e+000 -1.135541e+001  0.000000e+000
    endloop
  endfacet
  facet normal  0.000000e+000  0.000000e+000 -1.000000e+000
    outer loop
      vertex -1.322876e+000 -1.500000e+000  0.000000e+000
      vertex -5.128408e+000 -1.135541e+001  0.000000e+000
      vertex -5.212391e+000 -1.055637e+001  0.000000e+000
    endloop
  endfacet
  facet normal  0.000000e+000  0.000000e+000 -1.000000e+000
    outer loop
      vertex -1.322876e+000 -1.500000e+000  0.000000e+000
      vertex -5.212391e+000 -1.055637e+001  0.000000e+000
      vertex -5.750000e+000 -9.959292e+000  0.000000e+000
    endloop
  endfacet
  facet normal  0.000000e+000  0.000000e+000 -1.000000e+000
    outer loop
      vertex -1.322876e+000 -1.500000e+000  0.000000e+000
      vertex -5.750000e+000 -9.959292e+000  0.000000e+000
      vertex -1.920619e+000 -5.578747e-001  0.000000e+000
    endloop
  endfacet
  facet normal  0.000000e+000  0.000000e+000 -1.000000e+000
    outer loop
      vertex -5.345685e+000  1.347864e+001  0.000000e+000
      vertex -5.128408e+000  1.135541e+001  0.000000e+000
      vertex -5.530130e+000  1.205121e+001  0.000000e+000
    endloop
  endfacet
  facet normal  0.000000e+000  0.000000e+000 -1.000000e+000
    outer loop
      vertex -5.345685e+000  1.347864e+001  0.000000e+000
      vertex -5.530130e+000  1.205121e+001  0.000000e+000
      vertex -6.264113e+000  1.237800e+001  0.000000e+000
    endloop
  endfacet
  facet normal  0.000000e+000  0.000000e+000 -1.000000e+000
    outer loop
      vertex -5.345685e+000  1.347864e+001  0.000000e+000
      vertex -6.264113e+000  1.237800e+001  0.000000e+000
      vertex -7.250000e+000  1.255737e+001  0.000000e+000
    endloop
  endfacet
  facet normal  0.000000e+000  0.000000e+000 -9.999999e-001
    outer loop
      vertex -5.345685e+000 -1.347864e+001  0.000000e+000
      vertex -7.250000e+000 -1.255737e+001  0.000000e+000
      vertex -7.050000e+000 -1.221096e+001  0.000000e+000
    endloop
  endfacet
  facet normal  0.000000e+000  0.000000e+000 -1.000000e+000
    outer loop
      vertex -5.345685e+000 -1.347864e+001  0.000000e+000
      vertex -7.050000e+000 -1.221096e+001  0.000000e+000
      vertex -6.264113e+000 -1.237800e+001  0.000000e+000
    endloop
  endfacet
  facet normal  0.000000e+000  0.000000e+000 -1.000000e+000
    outer loop
      vertex -5.345685e+000 -1.347864e+001  0.000000e+000
      vertex -6.264113e+000 -1.237800e+001  0.000000e+000
      vertex -5.530130e+000 -1.205121e+001  0.000000e+000
    endloop
  endfacet
  facet normal  0.000000e+000  0.000000e+000 -1.000000e+000
    outer loop
      vertex -5.345685e+000 -1.347864e+001  0.000000e+000
      vertex -5.530130e+000 -1.205121e+001  0.000000e+000
      vertex -5.128408e+000 -1.135541e+001  0.000000e+000
    endloop
  endfacet
  facet normal  0.000000e+000  -0.000000e+000 -9.999999e-001
    outer loop
      vertex -9.000000e+000 -1.136882e+001  0.000000e+000
      vertex -7.671592e+000  1.081484e+001  0.000000e+000
      vertex -7.269870e+000  1.011904e+001  0.000000e+000
    endloop
  endfacet
  facet normal  0.000000e+000  -0.000000e+000 -1.000000e+000
    outer loop
      vertex -9.000000e+000 -1.136882e+001  0.000000e+000
      vertex -7.269870e+000  1.011904e+001  0.000000e+000
      vertex -6.535887e+000  9.792247e+000  0.000000e+000
    endloop
  endfacet
  facet normal  0.000000e+000  0.000000e+000 -1.000000e+000
    outer loop
      vertex -9.000000e+000 -1.136882e+001  0.000000e+000
      vertex -6.535887e+000  9.792247e+000  0.000000e+000
      vertex -7.269870e+000 -1.011904e+001  0.000000e+000
    endloop
  endfacet
  facet normal  0.000000e+000  0.000000e+000 -1.000000e+000
    outer loop
      vertex -9.000000e+000 -1.136882e+001  0.000000e+000
      vertex -7.269870e+000 -1.011904e+001  0.000000e+000
      vertex -7.671592e+000 -1.081484e+001  0.000000e+000
    endloop
  endfacet
  facet normal  0.000000e+000  -0.000000e+000 -1.000000e+000
    outer loop
      vertex -9.000000e+000 -1.136882e+001  0.000000e+000
      vertex -7.671592e+000 -1.081484e+001  0.000000e+000
      vertex -7.587609e+000 -1.161388e+001  0.000000e+000
    endloop
  endfacet
  facet normal  -0.000000e+000  -0.000000e+000 -1.000000e+000
    outer loop
      vertex -9.000000e+000 -1.136882e+001  0.000000e+000
      vertex -7.587609e+000 -1.161388e+001  0.000000e+000
      vertex -7.050000e+000 -1.221096e+001  0.000000e+000
    endloop
  endfacet
  facet normal  -0.000000e+000  0.000000e+000 -1.000000e+000
    outer loop
      vertex -9.000000e+000 -1.136882e+001  0.000000e+000
      vertex -7.050000e+000 -1.221096e+001  0.000000e+000
      vertex -7.250000e+000 -1.255737e+001  0.000000e+000
    endloop
  endfacet
  facet normal  0.000000e+000  -0.000000e+000 -1.000000e+000
    outer loop
      vertex -9.000000e+000  1.136882e+001  0.000000e+000
      vertex -7.250000e+000  1.255737e+001  0.000000e+000
      vertex -7.050000e+000  1.221096e+001  0.000000e+000
    endloop
  endfacet
  facet normal  0.000000e+000  0.000000e+000 -1.000000e+000
    outer loop
      vertex -9.000000e+000  1.136882e+001  0.000000e+000
      vertex -7.050000e+000  1.221096e+001  0.000000e+000
      vertex -7.587609e+000  1.161388e+001  0.000000e+000
    endloop
  endfacet
  facet normal  0.000000e+000  0.000000e+000 -1.000000e+000
    outer loop
      vertex -9.000000e+000  1.136882e+001  0.000000e+000
      vertex -7.587609e+000  1.161388e+001  0.000000e+000
      vertex -7.671592e+000  1.081484e+001  0.000000e+000
    endloop
  endfacet
  facet normal  -0.000000e+000  0.000000e+000 -9.999999e-001
    outer loop
      vertex -9.000000e+000  1.136882e+001  0.000000e+000
      vertex -7.671592e+000  1.081484e+001  0.000000e+000
      vertex -9.000000e+000 -1.136882e+001  0.000000e+000
    endloop
  endfacet
  facet normal  -0.000000e+000  0.000000e+000 -1.000000e+000
    outer loop
      vertex -5.345685e+000  1.347864e+001  0.000000e+000
      vertex  1.434568e+001  2.109820e+000  0.000000e+000
      vertex  1.320172e+001  1.236373e+000  0.000000e+000
    endloop
  endfacet
  facet normal  0.000000e+000  0.000000e+000 -1.000000e+000
    outer loop
      vertex -5.345685e+000  1.347864e+001  0.000000e+000
      vertex  1.320172e+001  1.236373e+000  0.000000e+000
      vertex  1.239828e+001  1.236373e+000  0.000000e+000
    endloop
  endfacet
  facet normal  0.000000e+000  0.000000e+000 -1.000000e+000
    outer loop
      vertex -5.345685e+000  1.347864e+001  0.000000e+000
      vertex  1.239828e+001  1.236373e+000  0.000000e+000
      vertex  1.322876e+000  1.500000e+000  0.000000e+000
    endloop
  endfacet
  facet normal  0.000000e+000  -0.000000e+000 -1.000000e+000
    outer loop
      vertex -7.269870e+000 -1.011904e+001  0.000000e+000
      vertex -6.535887e+000  9.792247e+000  0.000000e+000
      vertex -6.535887e+000 -9.792247e+000  0.000000e+000
    endloop
  endfacet
  facet normal  0.000000e+000  0.000000e+000 -1.000000e+000
    outer loop
      vertex -6.535887e+000 -9.792247e+000  0.000000e+000
      vertex -6.535887e+000  9.792247e+000  0.000000e+000
      vertex -5.750000e+000  9.959292e+000  0.000000e+000
    endloop
  endfacet
  facet normal  0.000000e+000  -0.000000e+000 -1.000000e+000
    outer loop
      vertex -6.535887e+000 -9.792247e+000  0.000000e+000
      vertex -5.750000e+000  9.959292e+000  0.000000e+000
      vertex -5.750000e+000 -9.959292e+000  0.000000e+000
    endloop
  endfacet
  facet normal  0.000000e+000  0.000000e+000 -1.000000e+000
    outer loop
      vertex -5.750000e+000 -9.959292e+000  0.000000e+000
      vertex -5.750000e+000  9.959292e+000  0.000000e+000
      vertex -1.920619e+000  5.578747e-001  0.000000e+000
    endloop
  endfacet
  facet normal  0.000000e+000  -0.000000e+000 -1.000000e+000
    outer loop
      vertex -5.750000e+000 -9.959292e+000  0.000000e+000
      vertex -1.920619e+000  5.578747e-001  0.000000e+000
      vertex -1.920619e+000 -5.578747e-001  0.000000e+000
    endloop
  endfacet
  facet normal  0.000000e+000  0.000000e+000 -1.000000e+000
    outer loop
      vertex  1.322876e+000 -1.500000e+000  0.000000e+000
      vertex  1.239828e+001 -1.236373e+000  0.000000e+000
      vertex -5.345685e+000 -1.347864e+001  0.000000e+000
    endloop
  endfacet
  facet normal  0.000000e+000  0.000000e+000 -1.000000e+000
    outer loop
      vertex -5.345685e+000 -1.347864e+001  0.000000e+000
      vertex  1.239828e+001 -1.236373e+000  0.000000e+000
      vertex  1.320172e+001 -1.236373e+000  0.000000e+000
    endloop
  endfacet
  facet normal  0.000000e+000  -0.000000e+000 -1.000000e+000
    outer loop
      vertex -5.345685e+000 -1.347864e+001  0.000000e+000
      vertex  1.320172e+001 -1.236373e+000  0.000000e+000
      vertex  1.434568e+001 -2.109820e+000  0.000000e+000
    endloop
  endfacet
  facet normal  0.000000e+000  0.000000e+000 -1.000000e+000
    outer loop
      vertex  1.174828e+001 -7.641208e-001  0.000000e+000
      vertex  1.920619e+000 -5.578747e-001  0.000000e+000
      vertex  1.150000e+001  1.591988e-016  0.000000e+000
    endloop
  endfacet
  facet normal  -0.000000e+000  0.000000e+000 -1.000000e+000
    outer loop
      vertex  1.150000e+001  1.591988e-016  0.000000e+000
      vertex  1.920619e+000 -5.578747e-001  0.000000e+000
      vertex  1.920619e+000  5.578747e-001  0.000000e+000
    endloop
  endfacet
  facet normal  0.000000e+000  0.000000e+000 -1.000000e+000
    outer loop
      vertex  1.150000e+001  1.591988e-016  0.000000e+000
      vertex  1.920619e+000  5.578747e-001  0.000000e+000
      vertex  1.174828e+001  7.641208e-001  0.000000e+000
    endloop
  endfacet
  facet normal  -0.000000e+000  0.000000e+000 -1.000000e+000
    outer loop
      vertex  1.174828e+001  7.641208e-001  0.000000e+000
      vertex  1.920619e+000  5.578747e-001  0.000000e+000
      vertex  1.322876e+000  1.500000e+000  0.000000e+000
    endloop
  endfacet
  facet normal  0.000000e+000  0.000000e+000 -1.000000e+000
    outer loop
      vertex  1.174828e+001  7.641208e-001  0.000000e+000
      vertex  1.322876e+000  1.500000e+000  0.000000e+000
      vertex  1.239828e+001  1.236373e+000  0.000000e+000
    endloop
  endfacet
  facet normal  0.000000e+000  -0.000000e+000 -9.999999e-001
    outer loop
      vertex  1.322876e+000 -1.500000e+000  0.000000e+000
      vertex  1.920619e+000 -5.578747e-001  0.000000e+000
      vertex  1.239828e+001 -1.236373e+000  0.000000e+000
    endloop
  endfacet
  facet normal  0.000000e+000  0.000000e+000 -1.000000e+000
    outer loop
      vertex  1.239828e+001 -1.236373e+000  0.000000e+000
      vertex  1.920619e+000 -5.578747e-001  0.000000e+000
      vertex  1.174828e+001 -7.641208e-001  0.000000e+000
    endloop
  endfacet
  facet normal  0.000000e+000  -0.000000e+000 -1.000000e+000
    outer loop
      vertex  1.320172e+001 -1.236373e+000  0.000000e+000
      vertex  1.385172e+001 -7.641208e-001  0.000000e+000
      vertex  1.434568e+001 -2.109820e+000  0.000000e+000
    endloop
  endfacet
  facet normal  0.000000e+000  0.000000e+000 -1.000000e+000
    outer loop
      vertex  1.434568e+001 -2.109820e+000  0.000000e+000
      vertex  1.385172e+001 -7.641208e-001  0.000000e+000
      vertex  1.410000e+001  0.000000e+000  0.000000e+000
    endloop
  endfacet
  facet normal  0.000000e+000  0.000000e+000 -1.000000e+000
    outer loop
      vertex  1.434568e+001 -2.109820e+000  0.000000e+000
      vertex  1.410000e+001  0.000000e+000  0.000000e+000
      vertex  1.450000e+001  0.000000e+000  0.000000e+000
    endloop
  endfacet
  facet normal  0.000000e+000  0.000000e+000 -1.000000e+000
    outer loop
      vertex  1.450000e+001  0.000000e+000  0.000000e+000
      vertex  1.410000e+001  0.000000e+000  0.000000e+000
      vertex  1.385172e+001  7.641208e-001  0.000000e+000
    endloop
  endfacet
  facet normal  0.000000e+000  0.000000e+000 -1.000000e+000
    outer loop
      vertex  1.450000e+001  0.000000e+000  0.000000e+000
      vertex  1.385172e+001  7.641208e-001  0.000000e+000
      vertex  1.434568e+001  2.109820e+000  0.000000e+000
    endloop
  endfacet
  facet normal -9.945219e-001 -1.045287e-001  -0.000000e+000
    outer loop
      vertex -5.128408e+000 -1.135541e+001  0.000000e+000
      vertex -5.212391e+000 -1.055637e+001  3.000000e+000
      vertex -5.212391e+000 -1.055637e+001  0.000000e+000
    endloop
  endfacet
  facet normal -7.431449e-001 -6.691306e-001  0.000000e+000
    outer loop
      vertex -5.212391e+000 -1.055637e+001  0.000000e+000
      vertex -5.212391e+000 -1.055637e+001  3.000000e+000
      vertex -5.750000e+000 -9.959292e+000  3.000000e+000
    endloop
  endfacet
  facet normal -7.431449e-001 -6.691306e-001  -0.000000e+000
    outer loop
      vertex -5.212391e+000 -1.055637e+001  0.000000e+000
      vertex -5.750000e+000 -9.959292e+000  3.000000e+000
      vertex -5.750000e+000 -9.959292e+000  0.000000e+000
    endloop
  endfacet
  facet normal -9.945219e-001 -1.045287e-001  0.000000e+000
    outer loop
      vertex -5.212391e+000 -1.055637e+001  3.000000e+000
      vertex -5.128408e+000 -1.135541e+001  0.000000e+000
      vertex -5.128408e+000 -1.135541e+001  3.000000e+000
    endloop
  endfacet
  facet normal -8.660251e-001  5.000005e-001  0.000000e+000
    outer loop
      vertex -5.128408e+000 -1.135541e+001  3.000000e+000
      vertex -5.128408e+000 -1.135541e+001  0.000000e+000
      vertex -5.530130e+000 -1.205121e+001  0.000000e+000
    endloop
  endfacet
  facet normal -8.660251e-001  5.000005e-001  0.000000e+000
    outer loop
      vertex -5.128408e+000 -1.135541e+001  3.000000e+000
      vertex -5.530130e+000 -1.205121e+001  0.000000e+000
      vertex -5.530130e+000 -1.205121e+001  3.000000e+000
    endloop
  endfacet
  facet normal -4.067374e-001  9.135451e-001  0.000000e+000
    outer loop
      vertex -5.530130e+000 -1.205121e+001  3.000000e+000
      vertex -5.530130e+000 -1.205121e+001  0.000000e+000
      vertex -6.264113e+000 -1.237800e+001  0.000000e+000
    endloop
  endfacet
  facet normal -4.067374e-001  9.135451e-001  0.000000e+000
    outer loop
      vertex -5.530130e+000 -1.205121e+001  3.000000e+000
      vertex -6.264113e+000 -1.237800e+001  0.000000e+000
      vertex -6.264113e+000 -1.237800e+001  3.000000e+000
    endloop
  endfacet
  facet normal  2.079118e-001  9.781476e-001  0.000000e+000
    outer loop
      vertex -6.264113e+000 -1.237800e+001  3.000000e+000
      vertex -6.264113e+000 -1.237800e+001  0.000000e+000
      vertex -7.050000e+000 -1.221096e+001  0.000000e+000
    endloop
  endfacet
  facet normal  2.079118e-001  9.781476e-001  -0.000000e+000
    outer loop
      vertex -6.264113e+000 -1.237800e+001  3.000000e+000
      vertex -7.050000e+000 -1.221096e+001  0.000000e+000
      vertex -7.050000e+000 -1.221096e+001  3.000000e+000
    endloop
  endfacet
  facet normal  9.945220e-001  1.045281e-001  0.000000e+000
    outer loop
      vertex -7.671592e+000 -1.081484e+001  0.000000e+000
      vertex -7.587609e+000 -1.161388e+001  3.000000e+000
      vertex -7.587609e+000 -1.161388e+001  0.000000e+000
    endloop
  endfacet
  facet normal  7.431449e-001  6.691306e-001  -0.000000e+000
    outer loop
      vertex -7.587609e+000 -1.161388e+001  0.000000e+000
      vertex -7.587609e+000 -1.161388e+001  3.000000e+000
      vertex -7.050000e+000 -1.221096e+001  3.000000e+000
    endloop
  endfacet
  facet normal  7.431449e-001  6.691306e-001  0.000000e+000
    outer loop
      vertex -7.587609e+000 -1.161388e+001  0.000000e+000
      vertex -7.050000e+000 -1.221096e+001  3.000000e+000
      vertex -7.050000e+000 -1.221096e+001  0.000000e+000
    endloop
  endfacet
  facet normal  9.945220e-001  1.045281e-001  -0.000000e+000
    outer loop
      vertex -7.587609e+000 -1.161388e+001  3.000000e+000
      vertex -7.671592e+000 -1.081484e+001  0.000000e+000
      vertex -7.671592e+000 -1.081484e+001  3.000000e+000
    endloop
  endfacet
  facet normal  8.660256e-001 -4.999996e-001  0.000000e+000
    outer loop
      vertex -7.671592e+000 -1.081484e+001  3.000000e+000
      vertex -7.671592e+000 -1.081484e+001  0.000000e+000
      vertex -7.269870e+000 -1.011904e+001  0.000000e+000
    endloop
  endfacet
  facet normal  8.660256e-001 -4.999996e-001  0.000000e+000
    outer loop
      vertex -7.671592e+000 -1.081484e+001  3.000000e+000
      vertex -7.269870e+000 -1.011904e+001  0.000000e+000
      vertex -7.269870e+000 -1.011904e+001  3.000000e+000
    endloop
  endfacet
  facet normal  4.067362e-001 -9.135457e-001  0.000000e+000
    outer loop
      vertex -7.269870e+000 -1.011904e+001  3.000000e+000
      vertex -7.269870e+000 -1.011904e+001  0.000000e+000
      vertex -6.535887e+000 -9.792247e+000  0.000000e+000
    endloop
  endfacet
  facet normal  4.067362e-001 -9.135457e-001  0.000000e+000
    outer loop
      vertex -7.269870e+000 -1.011904e+001  3.000000e+000
      vertex -6.535887e+000 -9.792247e+000  0.000000e+000
      vertex -6.535887e+000 -9.792247e+000  3.000000e+000
    endloop
  endfacet
  facet normal -2.079119e-001 -9.781475e-001  -0.000000e+000
    outer loop
      vertex -6.535887e+000 -9.792247e+000  3.000000e+000
      vertex -6.535887e+000 -9.792247e+000  0.000000e+000
      vertex -5.750000e+000 -9.959292e+000  0.000000e+000
    endloop
  endfacet
  facet normal -2.079119e-001 -9.781475e-001  0.000000e+000
    outer loop
      vertex -6.535887e+000 -9.792247e+000  3.000000e+000
      vertex -5.750000e+000 -9.959292e+000  0.000000e+000
      vertex -5.750000e+000 -9.959292e+000  3.000000e+000
    endloop
  endfacet
  facet normal  4.067362e-001  9.135457e-001  0.000000e+000
    outer loop
      vertex -7.269870e+000  1.011904e+001  0.000000e+000
      vertex -6.535887e+000  9.792247e+000  3.000000e+000
      vertex -6.535887e+000  9.792247e+000  0.000000e+000
    endloop
  endfacet
  facet normal -2.079119e-001  9.781475e-001  0.000000e+000
    outer loop
      vertex -6.535887e+000  9.792247e+000  0.000000e+000
      vertex -6.535887e+000  9.792247e+000  3.000000e+000
      vertex -5.750000e+000  9.959292e+000  3.000000e+000
    endloop
  endfacet
  facet normal -2.079119e-001  9.781475e-001  0.000000e+000
    outer loop
      vertex -6.535887e+000  9.792247e+000  0.000000e+000
      vertex -5.750000e+000  9.959292e+000  3.000000e+000
      vertex -5.750000e+000  9.959292e+000  0.000000e+000
    endloop
  endfacet
  facet normal  4.067362e-001  9.135457e-001  -0.000000e+000
    outer loop
      vertex -6.535887e+000  9.792247e+000  3.000000e+000
      vertex -7.269870e+000  1.011904e+001  0.000000e+000
      vertex -7.269870e+000  1.011904e+001  3.000000e+000
    endloop
  endfacet
  facet normal  8.660256e-001  4.999996e-001  0.000000e+000
    outer loop
      vertex -7.269870e+000  1.011904e+001  3.000000e+000
      vertex -7.269870e+000  1.011904e+001  0.000000e+000
      vertex -7.671592e+000  1.081484e+001  0.000000e+000
    endloop
  endfacet
  facet normal  8.660256e-001  4.999996e-001  -0.000000e+000
    outer loop
      vertex -7.269870e+000  1.011904e+001  3.000000e+000
      vertex -7.671592e+000  1.081484e+001  0.000000e+000
      vertex -7.671592e+000  1.081484e+001  3.000000e+000
    endloop
  endfacet
  facet normal  9.945220e-001 -1.045281e-001  0.000000e+000
    outer loop
      vertex -7.671592e+000  1.081484e+001  3.000000e+000
      vertex -7.671592e+000  1.081484e+001  0.000000e+000
      vertex -7.587609e+000  1.161388e+001  0.000000e+000
    endloop
  endfacet
  facet normal  9.945220e-001 -1.045281e-001  0.000000e+000
    outer loop
      vertex -7.671592e+000  1.081484e+001  3.000000e+000
      vertex -7.587609e+000  1.161388e+001  0.000000e+000
      vertex -7.587609e+000  1.161388e+001  3.000000e+000
    endloop
  endfacet
  facet normal  7.431449e-001 -6.691306e-001  0.000000e+000
    outer loop
      vertex -7.587609e+000  1.161388e+001  3.000000e+000
      vertex -7.587609e+000  1.161388e+001  0.000000e+000
      vertex -7.050000e+000  1.221096e+001  0.000000e+000
    endloop
  endfacet
  facet normal  7.431449e-001 -6.691306e-001  0.000000e+000
    outer loop
      vertex -7.587609e+000  1.161388e+001  3.000000e+000
      vertex -7.050000e+000  1.221096e+001  0.000000e+000
      vertex -7.050000e+000  1.221096e+001  3.000000e+000
    endloop
  endfacet
  facet normal -4.067374e-001 -9.135451e-001  -0.000000e+000
    outer loop
      vertex -5.530130e+000  1.205121e+001  0.000000e+000
      vertex -6.264113e+000  1.237800e+001  3.000000e+000
      vertex -6.264113e+000  1.237800e+001  0.000000e+000
    endloop
  endfacet
  facet normal  2.079118e-001 -9.781476e-001  0.000000e+000
    outer loop
      vertex -6.264113e+000  1.237800e+001  0.000000e+000
      vertex -6.264113e+000  1.237800e+001  3.000000e+000
      vertex -7.050000e+000  1.221096e+001  3.000000e+000
    endloop
  endfacet
  facet normal  2.079118e-001 -9.781476e-001  0.000000e+000
    outer loop
      vertex -6.264113e+000  1.237800e+001  0.000000e+000
      vertex -7.050000e+000  1.221096e+001  3.000000e+000
      vertex -7.050000e+000  1.221096e+001  0.000000e+000
    endloop
  endfacet
  facet normal -4.067374e-001 -9.135451e-001  0.000000e+000
    outer loop
      vertex -6.264113e+000  1.237800e+001  3.000000e+000
      vertex -5.530130e+000  1.205121e+001  0.000000e+000
      vertex -5.530130e+000  1.205121e+001  3.000000e+000
    endloop
  endfacet
  facet normal -8.660251e-001 -5.000005e-001  -0.000000e+000
    outer loop
      vertex -5.530130e+000  1.205121e+001  3.000000e+000
      vertex -5.530130e+000  1.205121e+001  0.000000e+000
      vertex -5.128408e+000  1.135541e+001  0.000000e+000
    endloop
  endfacet
  facet normal -8.660251e-001 -5.000005e-001  0.000000e+000
    outer loop
      vertex -5.530130e+000  1.205121e+001  3.000000e+000
      vertex -5.128408e+000  1.135541e+001  0.000000e+000
      vertex -5.128408e+000  1.135541e+001  3.000000e+000
    endloop
  endfacet
  facet normal -9.945219e-001  1.045287e-001  0.000000e+000
    outer loop
      vertex -5.128408e+000  1.135541e+001  3.000000e+000
      vertex -5.128408e+000  1.135541e+001  0.000000e+000
      vertex -5.212391e+000  1.055637e+001  0.000000e+000
    endloop
  endfacet
  facet normal -9.945219e-001  1.045287e-001  0.000000e+000
    outer loop
      vertex -5.128408e+000  1.135541e+001  3.000000e+000
      vertex -5.212391e+000  1.055637e+001  0.000000e+000
      vertex -5.212391e+000  1.055637e+001  3.000000e+000
    endloop
  endfacet
  facet normal -7.431449e-001  6.691306e-001  0.000000e+000
    outer loop
      vertex -5.212391e+000  1.055637e+001  3.000000e+000
      vertex -5.212391e+000  1.055637e+001  0.000000e+000
      vertex -5.750000e+000  9.959292e+000  0.000000e+000
    endloop
  endfacet
  facet normal -7.431449e-001  6.691306e-001  0.000000e+000
    outer loop
      vertex -5.212391e+000  1.055637e+001  3.000000e+000
      vertex -5.750000e+000  9.959292e+000  0.000000e+000
      vertex -5.750000e+000  9.959292e+000  3.000000e+000
    endloop
  endfacet
  facet normal  5.877849e-001 -8.090172e-001  0.000000e+000
    outer loop
      vertex  1.239828e+001  1.236373e+000  0.000000e+000
      vertex  1.174828e+001  7.641208e-001  3.000000e+000
      vertex  1.174828e+001  7.641208e-001  0.000000e+000
    endloop
  endfacet
  facet normal  9.510566e-001 -3.090167e-001  0.000000e+000
    outer loop
      vertex  1.174828e+001  7.641208e-001  0.000000e+000
      vertex  1.174828e+001  7.641208e-001  3.000000e+000
      vertex  1.150000e+001  1.591988e-016  3.000000e+000
    endloop
  endfacet
  facet normal  9.510566e-001 -3.090167e-001  0.000000e+000
    outer loop
      vertex  1.174828e+001  7.641208e-001  0.000000e+000
      vertex  1.150000e+001  1.591988e-016  3.000000e+000
      vertex  1.150000e+001  1.591988e-016  0.000000e+000
    endloop
  endfacet
  facet normal  5.877849e-001 -8.090172e-001  0.000000e+000
    outer loop
      vertex  1.174828e+001  7.641208e-001  3.000000e+000
      vertex  1.239828e+001  1.236373e+000  0.000000e+000
      vertex  1.239828e+001  1.236373e+000  3.000000e+000
    endloop
  endfacet
  facet normal  0.000000e+000 -1.000000e+000  0.000000e+000
    outer loop
      vertex  1.239828e+001  1.236373e+000  3.000000e+000
      vertex  1.239828e+001  1.236373e+000  0.000000e+000
      vertex  1.320172e+001  1.236373e+000  0.000000e+000
    endloop
  endfacet
  facet normal  0.000000e+000 -1.000000e+000  0.000000e+000
    outer loop
      vertex  1.239828e+001  1.236373e+000  3.000000e+000
      vertex  1.320172e+001  1.236373e+000  0.000000e+000
      vertex  1.320172e+001  1.236373e+000  3.000000e+000
    endloop
  endfacet
  facet normal -5.877855e-001 -8.090169e-001  -0.000000e+000
    outer loop
      vertex  1.320172e+001  1.236373e+000  3.000000e+000
      vertex  1.320172e+001  1.236373e+000  0.000000e+000
      vertex  1.385172e+001  7.641208e-001  0.000000e+000
    endloop
  endfacet
  facet normal -5.877855e-001 -8.090169e-001  0.000000e+000
    outer loop
      vertex  1.320172e+001  1.236373e+000  3.000000e+000
      vertex  1.385172e+001  7.641208e-001  0.000000e+000
      vertex  1.385172e+001  7.641208e-001  3.000000e+000
    endloop
  endfacet
  facet normal -9.510562e-001 -3.090178e-001  -0.000000e+000
    outer loop
      vertex  1.385172e+001  7.641208e-001  3.000000e+000
      vertex  1.385172e+001  7.641208e-001  0.000000e+000
      vertex  1.410000e+001  0.000000e+000  0.000000e+000
    endloop
  endfacet
  facet normal -9.510562e-001 -3.090178e-001  0.000000e+000
    outer loop
      vertex  1.385172e+001  7.641208e-001  3.000000e+000
      vertex  1.410000e+001  0.000000e+000  0.000000e+000
      vertex  1.410000e+001  0.000000e+000  3.000000e+000
    endloop
  endfacet
  facet normal -5.877855e-001  8.090169e-001  0.000000e+000
    outer loop
      vertex  1.320172e+001 -1.236373e+000  0.000000e+000
      vertex  1.385172e+001 -7.641208e-001  3.000000e+000
      vertex  1.385172e+001 -7.641208e-001  0.000000e+000
    endloop
  endfacet
  facet normal -9.510562e-001  3.090178e-001  0.000000e+000
    outer loop
      vertex  1.385172e+001 -7.641208e-001  0.000000e+000
      vertex  1.385172e+001 -7.641208e-001  3.000000e+000
      vertex  1.410000e+001  0.000000e+000  3.000000e+000
    endloop
  endfacet
  facet normal -9.510562e-001  3.090178e-001  0.000000e+000
    outer loop
      vertex  1.385172e+001 -7.641208e-001  0.000000e+000
      vertex  1.410000e+001  0.000000e+000  3.000000e+000
      vertex  1.410000e+001  0.000000e+000  0.000000e+000
    endloop
  endfacet
  facet normal -5.877855e-001  8.090169e-001  0.000000e+000
    outer loop
      vertex  1.385172e+001 -7.641208e-001  3.000000e+000
      vertex  1.320172e+001 -1.236373e+000  0.000000e+000
      vertex  1.320172e+001 -1.236373e+000  3.000000e+000
    endloop
  endfacet
  facet normal  0.000000e+000  1.000000e+000  0.000000e+000
    outer loop
      vertex  1.320172e+001 -1.236373e+000  3.000000e+000
      vertex  1.320172e+001 -1.236373e+000  0.000000e+000
      vertex  1.239828e+001 -1.236373e+000  0.000000e+000
    endloop
  endfacet
  facet normal  0.000000e+000  1.000000e+000  0.000000e+000
    outer loop
      vertex  1.320172e+001 -1.236373e+000  3.000000e+000
      vertex  1.239828e+001 -1.236373e+000  0.000000e+000
      vertex  1.239828e+001 -1.236373e+000  3.000000e+000
    endloop
  endfacet
  facet normal  5.877849e-001  8.090172e-001  0.000000e+000
    outer loop
      vertex  1.239828e+001 -1.236373e+000  3.000000e+000
      vertex  1.239828e+001 -1.236373e+000  0.000000e+000
      vertex  1.174828e+001 -7.641208e-001  0.000000e+000
    endloop
  endfacet
  facet normal  5.877849e-001  8.090172e-001  -0.000000e+000
    outer loop
      vertex  1.239828e+001 -1.236373e+000  3.000000e+000
      vertex  1.174828e+001 -7.641208e-001  0.000000e+000
      vertex  1.174828e+001 -7.641208e-001  3.000000e+000
    endloop
  endfacet
  facet normal  9.510566e-001  3.090167e-001  0.000000e+000
    outer loop
      vertex  1.174828e+001 -7.641208e-001  3.000000e+000
      vertex  1.174828e+001 -7.641208e-001  0.000000e+000
      vertex  1.150000e+001  1.591988e-016  0.000000e+000
    endloop
  endfacet
  facet normal  9.510566e-001  3.090167e-001  -0.000000e+000
    outer loop
      vertex  1.174828e+001 -7.641208e-001  3.000000e+000
      vertex  1.150000e+001  1.591988e-016  0.000000e+000
      vertex  1.150000e+001  1.591988e-016  3.000000e+000
    endloop
  endfacet
  facet normal  9.973359e-001 -7.294690e-002  0.000000e+000
    outer loop
      vertex  1.434568e+001 -2.109820e+000  3.000000e+000
      vertex  1.434568e+001 -2.109820e+000  0.000000e+000
      vertex  1.450000e+001  0.000000e+000  3.000000e+000
    endloop
  endfacet
  facet normal  9.973359e-001 -7.294690e-002  0.000000e+000
    outer loop
      vertex  1.450000e+001  0.000000e+000  3.000000e+000
      vertex  1.434568e+001 -2.109820e+000  0.000000e+000
      vertex  1.450000e+001  0.000000e+000  0.000000e+000
    endloop
  endfacet
  facet normal -4.354941e-001 -9.001915e-001  -0.000000e+000
    outer loop
      vertex -5.345685e+000 -1.347864e+001  0.000000e+000
      vertex -5.345685e+000 -1.347864e+001  3.000000e+000
      vertex -7.250000e+000 -1.255737e+001  0.000000e+000
    endloop
  endfacet
  facet normal -4.354941e-001 -9.001915e-001  0.000000e+000
    outer loop
      vertex -7.250000e+000 -1.255737e+001  0.000000e+000
      vertex -5.345685e+000 -1.347864e+001  3.000000e+000
      vertex -7.250000e+000 -1.255737e+001  3.000000e+000
    endloop
  endfacet
  facet normal -5.618415e-001 -8.272449e-001  -0.000000e+000
    outer loop
      vertex -7.250000e+000 -1.255737e+001  0.000000e+000
      vertex -7.250000e+000 -1.255737e+001  3.000000e+000
      vertex -9.000000e+000 -1.136882e+001  0.000000e+000
    endloop
  endfacet
  facet normal -5.618415e-001 -8.272449e-001  0.000000e+000
    outer loop
      vertex -9.000000e+000 -1.136882e+001  0.000000e+000
      vertex -7.250000e+000 -1.255737e+001  3.000000e+000
      vertex -9.000000e+000 -1.136882e+001  3.000000e+000
    endloop
  endfacet
  facet normal  9.973359e-001  7.294690e-002  -0.000000e+000
    outer loop
      vertex  1.450000e+001  0.000000e+000  3.000000e+000
      vertex  1.450000e+001  0.000000e+000  0.000000e+000
      vertex  1.434568e+001  2.109820e+000  3.000000e+000
    endloop
  endfacet
  facet normal  9.973359e-001  7.294690e-002  0.000000e+000
    outer loop
      vertex  1.434568e+001  2.109820e+000  3.000000e+000
      vertex  1.450000e+001  0.000000e+000  0.000000e+000
      vertex  1.434568e+001  2.109820e+000  0.000000e+000
    endloop
  endfacet
  facet normal -5.618415e-001  8.272449e-001  0.000000e+000
    outer loop
      vertex -9.000000e+000  1.136882e+001  0.000000e+000
      vertex -9.000000e+000  1.136882e+001  3.000000e+000
      vertex -7.250000e+000  1.255737e+001  0.000000e+000
    endloop
  endfacet
  facet normal -5.618415e-001  8.272449e-001  0.000000e+000
    outer loop
      vertex -7.250000e+000  1.255737e+001  0.000000e+000
      vertex -9.000000e+000  1.136882e+001  3.000000e+000
      vertex -7.250000e+000  1.255737e+001  3.000000e+000
    endloop
  endfacet
  facet normal -4.354941e-001  9.001915e-001  0.000000e+000
    outer loop
      vertex -7.250000e+000  1.255737e+001  0.000000e+000
      vertex -7.250000e+000  1.255737e+001  3.000000e+000
      vertex -5.345685e+000  1.347864e+001  0.000000e+000
    endloop
  endfacet
  facet normal -4.354941e-001  9.001915e-001  0.000000e+000
    outer loop
      vertex -5.345685e+000  1.347864e+001  0.000000e+000
      vertex -7.250000e+000  1.255737e+001  3.000000e+000
      vertex -5.345685e+000  1.347864e+001  3.000000e+000
    endloop
  endfacet
  facet normal -1.000000e+000  0.000000e+000  0.000000e+000
    outer loop
      vertex -9.000000e+000  1.136882e+001  0.000000e+000
      vertex -9.000000e+000 -1.136882e+001  0.000000e+000
      vertex -9.000000e+000  1.136882e+001  3.000000e+000
    endloop
  endfacet
  facet normal -1.000000e+000  -0.000000e+000  0.000000e+000
    outer loop
      vertex -9.000000e+000  1.136882e+001  3.000000e+000
      vertex -9.000000e+000 -1.136882e+001  0.000000e+000
      vertex -9.000000e+000 -1.136882e+001  3.000000e+000
    endloop
  endfacet
  facet normal  5.000000e-001  8.660254e-001  0.000000e+000
    outer loop
      vertex  1.434568e+001  2.109820e+000  0.000000e+000
      vertex -5.345685e+000  1.347864e+001  0.000000e+000
      vertex  1.434568e+001  2.109820e+000  3.000000e+000
    endloop
  endfacet
  facet normal  5.000000e-001  8.660254e-001  0.000000e+000
    outer loop
      vertex  1.434568e+001  2.109820e+000  3.000000e+000
      vertex -5.345685e+000  1.347864e+001  0.000000e+000
      vertex -5.345685e+000  1.347864e+001  3.000000e+000
    endloop
  endfacet
  facet normal  5.000000e-001 -8.660254e-001  0.000000e+000
    outer loop
      vertex -5.345685e+000 -1.347864e+001  0.000000e+000
      vertex  1.434568e+001 -2.109820e+000  0.000000e+000
      vertex -5.345685e+000 -1.347864e+001  3.000000e+000
    endloop
  endfacet
  facet normal  5.000000e-001 -8.660254e-001  0.000000e+000
    outer loop
      vertex -5.345685e+000 -1.347864e+001  3.000000e+000
      vertex  1.434568e+001 -2.109820e+000  0.000000e+000
      vertex  1.434568e+001 -2.109820e+000  3.000000e+000
    endloop
  endfacet
  facet normal  0.000000e+000 -1.000000e+000  0.000000e+000
    outer loop
      vertex -1.322876e+000 -1.500000e+000  0.000000e+000
      vertex -1.322876e+000 -1.500000e+000 -1.000000e+001
      vertex  1.322876e+000 -1.500000e+000  0.000000e+000
    endloop
  endfacet
  facet normal  0.000000e+000 -1.000000e+000  -0.000000e+000
    outer loop
      vertex  1.322876e+000 -1.500000e+000  0.000000e+000
      vertex -1.322876e+000 -1.500000e+000 -1.000000e+001
      vertex  1.322876e+000 -1.500000e+000 -1.000000e+001
    endloop
  endfacet
  facet normal  8.443879e-001 -5.357323e-001  0.000000e+000
    outer loop
      vertex  1.322876e+000 -1.500000e+000  0.000000e+000
      vertex  1.322876e+000 -1.500000e+000 -1.000000e+001
      vertex  1.920619e+000 -5.578747e-001  0.000000e+000
    endloop
  endfacet
  facet normal  8.443879e-001 -5.357323e-001  0.000000e+000
    outer loop
      vertex  1.920619e+000 -5.578747e-001  0.000000e+000
      vertex  1.322876e+000 -1.500000e+000 -1.000000e+001
      vertex  1.920619e+000 -5.578747e-001 -1.000000e+001
    endloop
  endfacet
  facet normal  1.000000e+000  0.000000e+000  0.000000e+000
    outer loop
      vertex  1.920619e+000 -5.578747e-001  0.000000e+000
      vertex  1.920619e+000 -5.578747e-001 -1.000000e+001
      vertex  1.920619e+000  5.578747e-001  0.000000e+000
    endloop
  endfacet
  facet normal  1.000000e+000  0.000000e+000  0.000000e+000
    outer loop
      vertex  1.920619e+000  5.578747e-001  0.000000e+000
      vertex  1.920619e+000 -5.578747e-001 -1.000000e+001
      vertex  1.920619e+000  5.578747e-001 -1.000000e+001
    endloop
  endfacet
  facet normal  8.443879e-001  5.357323e-001  -0.000000e+000
    outer loop
      vertex  1.920619e+000  5.578747e-001  0.000000e+000
      vertex  1.920619e+000  5.578747e-001 -1.000000e+001
      vertex  1.322876e+000  1.500000e+000  0.000000e+000
    endloop
  endfacet
  facet normal  8.443879e-001  5.357323e-001  0.000000e+000
    outer loop
      vertex  1.322876e+000  1.500000e+000  0.000000e+000
      vertex  1.920619e+000  5.578747e-001 -1.000000e+001
      vertex  1.322876e+000  1.500000e+000 -1.000000e+001
    endloop
  endfacet
  facet normal  0.000000e+000  1.000000e+000  0.000000e+000
    outer loop
      vertex -1.322876e+000  1.500000e+000  0.000000e+000
      vertex  1.322876e+000  1.500000e+000  0.000000e+000
      vertex -1.322876e+000  1.500000e+000 -1.000000e+001
    endloop
  endfacet
  facet normal  0.000000e+000  1.000000e+000  0.000000e+000
    outer loop
      vertex -1.322876e+000  1.500000e+000 -1.000000e+001
      vertex  1.322876e+000  1.500000e+000  0.000000e+000
      vertex  1.322876e+000  1.500000e+000 -1.000000e+001
    endloop
  endfacet
  facet normal -8.443879e-001  5.357323e-001  0.000000e+000
    outer loop
      vertex -1.322876e+000  1.500000e+000  0.000000e+000
      vertex -1.322876e+000  1.500000e+000 -1.000000e+001
      vertex -1.920619e+000  5.578747e-001  0.000000e+000
    endloop
  endfacet
  facet normal -8.443879e-001  5.357323e-001  0.000000e+000
    outer loop
      vertex -1.920619e+000  5.578747e-001  0.000000e+000
      vertex -1.322876e+000  1.500000e+000 -1.000000e+001
      vertex -1.920619e+000  5.578747e-001 -1.000000e+001
    endloop
  endfacet
  facet normal -1.000000e+000  0.000000e+000  0.000000e+000
    outer loop
      vertex -1.920619e+000  5.578747e-001  0.000000e+000
      vertex -1.920619e+000  5.578747e-001 -1.000000e+001
      vertex -1.920619e+000 -5.578747e-001  0.000000e+000
    endloop
  endfacet
  facet normal -1.000000e+000  0.000000e+000  0.000000e+000
    outer loop
      vertex -1.920619e+000 -5.578747e-001  0.000000e+000
      vertex -1.920619e+000  5.578747e-001 -1.000000e+001
      vertex -1.920619e+000 -5.578747e-001 -1.000000e+001
    endloop
  endfacet
  facet normal -8.443879e-001 -5.357323e-001  0.000000e+000
    outer loop
      vertex -1.920619e+000 -5.578747e-001  0.000000e+000
      vertex -1.920619e+000 -5.578747e-001 -1.000000e+001
      vertex -1.322876e+000 -1.500000e+000  0.000000e+000
    endloop
  endfacet
  facet normal -8.443879e-001 -5.357323e-001  -0.000000e+000
    outer loop
      vertex -1.322876e+000 -1.500000e+000  0.000000e+000
      vertex -1.920619e+000 -5.578747e-001 -1.000000e+001
      vertex -1.322876e+000 -1.500000e+000 -1.000000e+001
    endloop
  endfacet
  facet normal  0.000000e+000  0.000000e+000 -1.000000e+000
    outer loop
      vertex  1.322876e+000 -1.500000e+000 -1.000000e+001
      vertex -1.322876e+000 -1.500000e+000 -1.000000e+001
      vertex  1.920619e+000 -5.578747e-001 -1.000000e+001
    endloop
  endfacet
  facet normal  -0.000000e+000  0.000000e+000 -9.999999e-001
    outer loop
      vertex  1.920619e+000 -5.578747e-001 -1.000000e+001
      vertex -1.322876e+000 -1.500000e+000 -1.000000e+001
      vertex -1.920619e+000 -5.578747e-001 -1.000000e+001
    endloop
  endfacet
  facet normal  0.000000e+000  0.000000e+000 -1.000000e+000
    outer loop
      vertex  1.920619e+000 -5.578747e-001 -1.000000e+001
      vertex -1.920619e+000 -5.578747e-001 -1.000000e+001
      vertex  1.920619e+000  5.578747e-001 -1.000000e+001
    endloop
  endfacet
  facet normal  -0.000000e+000  0.000000e+000 -1.000000e+000
    outer loop
      vertex  1.920619e+000  5.578747e-001 -1.000000e+001
      vertex -1.920619e+000 -5.578747e-001 -1.000000e+001
      vertex -1.920619e+000  5.578747e-001 -1.000000e+001
    endloop
  endfacet
  facet normal  0.000000e+000  0.000000e+000 -9.999999e-001
    outer loop
      vertex  1.920619e+000  5.578747e-001 -1.000000e+001
      vertex -1.920619e+000  5.578747e-001 -1.000000e+001
      vertex  1.322876e+000  1.500000e+000 -1.000000e+001
    endloop
  endfacet
  facet normal  -0.000000e+000  0.000000e+000 -1.000000e+000
    outer loop
      vertex  1.322876e+000  1.500000e+000 -1.000000e+001
      vertex -1.920619e+000  5.578747e-001 -1.000000e+001
      vertex -1.322876e+000  1.500000e+000 -1.000000e+001
    endloop
  endfacet
endsolid CATIA STL
