solid CATIA STL
  facet normal  0.000000e+000  0.000000e+000 -1.000000e+000
    outer loop
      vertex -9.000000e+000 -1.039230e+001  0.000000e+000
      vertex -1.618034e+000  1.175570e+000  0.000000e+000
      vertex -2.000000e+000  2.449213e-016  0.000000e+000
    endloop
  endfacet
  facet normal  0.000000e+000  -0.000000e+000 -9.999999e-001
    outer loop
      vertex -9.000000e+000 -1.039230e+001  0.000000e+000
      vertex -2.000000e+000  2.449213e-016  0.000000e+000
      vertex -1.618034e+000 -1.175570e+000  0.000000e+000
    endloop
  endfacet
  facet normal  0.000000e+000  -0.000000e+000 -1.000000e+000
    outer loop
      vertex -9.000000e+000 -1.039230e+001  0.000000e+000
      vertex -1.618034e+000 -1.175570e+000  0.000000e+000
      vertex -6.180340e-001 -1.902113e+000  0.000000e+000
    endloop
  endfacet
  facet normal  0.000000e+000  -0.000000e+000 -1.000000e+000
    outer loop
      vertex -9.000000e+000  1.039230e+001  0.000000e+000
      vertex -8.740637e+000  1.161251e+001  0.000000e+000
      vertex -8.007392e+000  1.262174e+001  0.000000e+000
    endloop
  endfacet
  facet normal  0.000000e+000  -0.000000e+000 -9.999999e-001
    outer loop
      vertex -9.000000e+000  1.039230e+001  0.000000e+000
      vertex -8.007392e+000  1.262174e+001  0.000000e+000
      vertex -4.500000e+000  1.299038e+001  0.000000e+000
    endloop
  endfacet
  facet normal  0.000000e+000  -0.000000e+000 -9.999999e-001
    outer loop
      vertex -9.000000e+000  1.039230e+001  0.000000e+000
      vertex -4.500000e+000  1.299038e+001  0.000000e+000
      vertex -6.180340e-001  1.902113e+000  0.000000e+000
    endloop
  endfacet
  facet normal  -0.000000e+000  0.000000e+000 -1.000000e+000
    outer loop
      vertex -9.000000e+000  1.039230e+001  0.000000e+000
      vertex -6.180340e-001  1.902113e+000  0.000000e+000
      vertex -1.618034e+000  1.175570e+000  0.000000e+000
    endloop
  endfacet
  facet normal  -0.000000e+000  0.000000e+000 -1.000000e+000
    outer loop
      vertex -9.000000e+000  1.039230e+001  0.000000e+000
      vertex -1.618034e+000  1.175570e+000  0.000000e+000
      vertex -9.000000e+000 -1.039230e+001  0.000000e+000
    endloop
  endfacet
  facet normal  0.000000e+000  0.000000e+000 -1.000000e+000
    outer loop
      vertex  1.442705e+001 -1.763356e+000  0.000000e+000
      vertex  1.350000e+001 -2.598076e+000  0.000000e+000
      vertex  6.180340e-001 -1.902113e+000  0.000000e+000
    endloop
  endfacet
  facet normal  0.000000e+000  -0.000000e+000 -1.000000e+000
    outer loop
      vertex  6.180340e-001 -1.902113e+000  0.000000e+000
      vertex  1.350000e+001 -2.598076e+000  0.000000e+000
      vertex -4.500000e+000 -1.299038e+001  0.000000e+000
    endloop
  endfacet
  facet normal  0.000000e+000  0.000000e+000 -9.999999e-001
    outer loop
      vertex  6.180340e-001 -1.902113e+000  0.000000e+000
      vertex -4.500000e+000 -1.299038e+001  0.000000e+000
      vertex -6.180340e-001 -1.902113e+000  0.000000e+000
    endloop
  endfacet
  facet normal  0.000000e+000  0.000000e+000 -1.000000e+000
    outer loop
      vertex -6.180340e-001 -1.902113e+000  0.000000e+000
      vertex -4.500000e+000 -1.299038e+001  0.000000e+000
      vertex -8.740637e+000 -1.161251e+001  0.000000e+000
    endloop
  endfacet
  facet normal  0.000000e+000  0.000000e+000 -9.999999e-001
    outer loop
      vertex -6.180340e-001 -1.902113e+000  0.000000e+000
      vertex -8.740637e+000 -1.161251e+001  0.000000e+000
      vertex -9.000000e+000 -1.039230e+001  0.000000e+000
    endloop
  endfacet
  facet normal  0.000000e+000  0.000000e+000 -1.000000e+000
    outer loop
      vertex  1.442705e+001  1.763356e+000  0.000000e+000
      vertex  6.180340e-001  1.902113e+000  0.000000e+000
      vertex  1.350000e+001  2.598076e+000  0.000000e+000
    endloop
  endfacet
  facet normal  0.000000e+000  0.000000e+000 -1.000000e+000
    outer loop
      vertex  1.350000e+001  2.598076e+000  0.000000e+000
      vertex  6.180340e-001  1.902113e+000  0.000000e+000
      vertex -6.180340e-001  1.902113e+000  0.000000e+000
    endloop
  endfacet
  facet normal  0.000000e+000  0.000000e+000 -1.000000e+000
    outer loop
      vertex  1.350000e+001  2.598076e+000  0.000000e+000
      vertex -6.180340e-001  1.902113e+000  0.000000e+000
      vertex -4.500000e+000  1.299038e+001  0.000000e+000
    endloop
  endfacet
  facet normal  0.000000e+000  0.000000e+000 -1.000000e+000
    outer loop
      vertex -6.927051e+000  1.324547e+001  0.000000e+000
      vertex -5.686415e+000  1.337587e+001  0.000000e+000
      vertex -8.007392e+000  1.262174e+001  0.000000e+000
    endloop
  endfacet
  facet normal  0.000000e+000  0.000000e+000 -9.999999e-001
    outer loop
      vertex -8.007392e+000  1.262174e+001  0.000000e+000
      vertex -5.686415e+000  1.337587e+001  0.000000e+000
      vertex -4.500000e+000  1.299038e+001  0.000000e+000
    endloop
  endfacet
  facet normal  0.000000e+000  0.000000e+000 -1.000000e+000
    outer loop
      vertex -8.740637e+000 -1.161251e+001  0.000000e+000
      vertex -4.500000e+000 -1.299038e+001  0.000000e+000
      vertex -8.007392e+000 -1.262174e+001  0.000000e+000
    endloop
  endfacet
  facet normal  0.000000e+000  0.000000e+000 -9.999999e-001
    outer loop
      vertex -8.007392e+000 -1.262174e+001  0.000000e+000
      vertex -4.500000e+000 -1.299038e+001  0.000000e+000
      vertex -5.686415e+000 -1.337587e+001  0.000000e+000
    endloop
  endfacet
  facet normal  0.000000e+000  0.000000e+000 -1.000000e+000
    outer loop
      vertex -8.007392e+000 -1.262174e+001  0.000000e+000
      vertex -5.686415e+000 -1.337587e+001  0.000000e+000
      vertex -6.927051e+000 -1.324547e+001  0.000000e+000
    endloop
  endfacet
  facet normal  0.000000e+000  -0.000000e+000 -1.000000e+000
    outer loop
      vertex  1.618034e+000 -1.175570e+000  0.000000e+000
      vertex  2.000000e+000  0.000000e+000  0.000000e+000
      vertex  1.493444e+001 -6.237351e-001  0.000000e+000
    endloop
  endfacet
  facet normal  0.000000e+000  0.000000e+000 -1.000000e+000
    outer loop
      vertex  1.493444e+001 -6.237351e-001  0.000000e+000
      vertex  2.000000e+000  0.000000e+000  0.000000e+000
      vertex  1.618034e+000  1.175570e+000  0.000000e+000
    endloop
  endfacet
  facet normal  0.000000e+000  0.000000e+000 -1.000000e+000
    outer loop
      vertex  1.493444e+001 -6.237351e-001  0.000000e+000
      vertex  1.618034e+000  1.175570e+000  0.000000e+000
      vertex  1.493444e+001  6.237351e-001  0.000000e+000
    endloop
  endfacet
  facet normal  0.000000e+000  0.000000e+000 -1.000000e+000
    outer loop
      vertex  1.493444e+001  6.237351e-001  0.000000e+000
      vertex  1.618034e+000  1.175570e+000  0.000000e+000
      vertex  6.180340e-001  1.902113e+000  0.000000e+000
    endloop
  endfacet
  facet normal  0.000000e+000  0.000000e+000 -1.000000e+000
    outer loop
      vertex  1.493444e+001  6.237351e-001  0.000000e+000
      vertex  6.180340e-001  1.902113e+000  0.000000e+000
      vertex  1.442705e+001  1.763356e+000  0.000000e+000
    endloop
  endfacet
  facet normal  0.000000e+000  0.000000e+000 -1.000000e+000
    outer loop
      vertex  1.618034e+000 -1.175570e+000  0.000000e+000
      vertex  1.493444e+001 -6.237351e-001  0.000000e+000
      vertex  6.180340e-001 -1.902113e+000  0.000000e+000
    endloop
  endfacet
  facet normal  0.000000e+000  0.000000e+000 -1.000000e+000
    outer loop
      vertex  6.180340e-001 -1.902113e+000  0.000000e+000
      vertex  1.493444e+001 -6.237351e-001  0.000000e+000
      vertex  1.442705e+001 -1.763356e+000  0.000000e+000
    endloop
  endfacet
  facet normal  7.431449e-001  6.691306e-001  0.000000e+000
    outer loop
      vertex -5.750000e+000 -9.959292e+000  2.000000e+000
      vertex -5.750000e+000 -9.959292e+000  1.000000e+001
      vertex -5.212391e+000 -1.055637e+001  2.000000e+000
    endloop
  endfacet
  facet normal  7.431449e-001  6.691306e-001  -0.000000e+000
    outer loop
      vertex -5.212391e+000 -1.055637e+001  2.000000e+000
      vertex -5.750000e+000 -9.959292e+000  1.000000e+001
      vertex -5.212391e+000 -1.055637e+001  1.000000e+001
    endloop
  endfacet
  facet normal  9.945219e-001  1.045287e-001  0.000000e+000
    outer loop
      vertex -5.212391e+000 -1.055637e+001  2.000000e+000
      vertex -5.212391e+000 -1.055637e+001  1.000000e+001
      vertex -5.128408e+000 -1.135541e+001  2.000000e+000
    endloop
  endfacet
  facet normal  9.945219e-001  1.045287e-001  -0.000000e+000
    outer loop
      vertex -5.128408e+000 -1.135541e+001  2.000000e+000
      vertex -5.212391e+000 -1.055637e+001  1.000000e+001
      vertex -5.128408e+000 -1.135541e+001  1.000000e+001
    endloop
  endfacet
  facet normal  8.660251e-001 -5.000005e-001  0.000000e+000
    outer loop
      vertex -5.128408e+000 -1.135541e+001  2.000000e+000
      vertex -5.128408e+000 -1.135541e+001  1.000000e+001
      vertex -5.530130e+000 -1.205121e+001  2.000000e+000
    endloop
  endfacet
  facet normal  8.660251e-001 -5.000005e-001  0.000000e+000
    outer loop
      vertex -5.530130e+000 -1.205121e+001  2.000000e+000
      vertex -5.128408e+000 -1.135541e+001  1.000000e+001
      vertex -5.530130e+000 -1.205121e+001  1.000000e+001
    endloop
  endfacet
  facet normal  4.067374e-001 -9.135451e-001  0.000000e+000
    outer loop
      vertex -5.530130e+000 -1.205121e+001  2.000000e+000
      vertex -5.530130e+000 -1.205121e+001  1.000000e+001
      vertex -6.264113e+000 -1.237800e+001  2.000000e+000
    endloop
  endfacet
  facet normal  4.067374e-001 -9.135451e-001  0.000000e+000
    outer loop
      vertex -6.264113e+000 -1.237800e+001  2.000000e+000
      vertex -5.530130e+000 -1.205121e+001  1.000000e+001
      vertex -6.264113e+000 -1.237800e+001  1.000000e+001
    endloop
  endfacet
  facet normal -2.079118e-001 -9.781476e-001  -0.000000e+000
    outer loop
      vertex -6.264113e+000 -1.237800e+001  2.000000e+000
      vertex -6.264113e+000 -1.237800e+001  1.000000e+001
      vertex -7.050000e+000 -1.221096e+001  2.000000e+000
    endloop
  endfacet
  facet normal -2.079118e-001 -9.781476e-001  0.000000e+000
    outer loop
      vertex -7.050000e+000 -1.221096e+001  2.000000e+000
      vertex -6.264113e+000 -1.237800e+001  1.000000e+001
      vertex -7.050000e+000 -1.221096e+001  1.000000e+001
    endloop
  endfacet
  facet normal -7.431449e-001 -6.691306e-001  -0.000000e+000
    outer loop
      vertex -7.050000e+000 -1.221096e+001  2.000000e+000
      vertex -7.050000e+000 -1.221096e+001  1.000000e+001
      vertex -7.587609e+000 -1.161388e+001  2.000000e+000
    endloop
  endfacet
  facet normal -7.431449e-001 -6.691306e-001  0.000000e+000
    outer loop
      vertex -7.587609e+000 -1.161388e+001  2.000000e+000
      vertex -7.050000e+000 -1.221096e+001  1.000000e+001
      vertex -7.587609e+000 -1.161388e+001  1.000000e+001
    endloop
  endfacet
  facet normal -9.945219e-001 -1.045281e-001  -0.000000e+000
    outer loop
      vertex -7.587609e+000 -1.161388e+001  2.000000e+000
      vertex -7.587609e+000 -1.161388e+001  1.000000e+001
      vertex -7.671592e+000 -1.081484e+001  2.000000e+000
    endloop
  endfacet
  facet normal -9.945219e-001 -1.045281e-001  0.000000e+000
    outer loop
      vertex -7.671592e+000 -1.081484e+001  2.000000e+000
      vertex -7.587609e+000 -1.161388e+001  1.000000e+001
      vertex -7.671592e+000 -1.081484e+001  1.000000e+001
    endloop
  endfacet
  facet normal -8.660256e-001  4.999996e-001  0.000000e+000
    outer loop
      vertex -7.671592e+000 -1.081484e+001  2.000000e+000
      vertex -7.671592e+000 -1.081484e+001  1.000000e+001
      vertex -7.269870e+000 -1.011904e+001  2.000000e+000
    endloop
  endfacet
  facet normal -8.660256e-001  4.999996e-001  0.000000e+000
    outer loop
      vertex -7.269870e+000 -1.011904e+001  2.000000e+000
      vertex -7.671592e+000 -1.081484e+001  1.000000e+001
      vertex -7.269870e+000 -1.011904e+001  1.000000e+001
    endloop
  endfacet
  facet normal -4.067362e-001  9.135457e-001  0.000000e+000
    outer loop
      vertex -7.269870e+000 -1.011904e+001  2.000000e+000
      vertex -7.269870e+000 -1.011904e+001  1.000000e+001
      vertex -6.535887e+000 -9.792247e+000  2.000000e+000
    endloop
  endfacet
  facet normal -4.067362e-001  9.135457e-001  0.000000e+000
    outer loop
      vertex -6.535887e+000 -9.792247e+000  2.000000e+000
      vertex -7.269870e+000 -1.011904e+001  1.000000e+001
      vertex -6.535887e+000 -9.792247e+000  1.000000e+001
    endloop
  endfacet
  facet normal  2.079119e-001  9.781476e-001  0.000000e+000
    outer loop
      vertex -6.535887e+000 -9.792247e+000  2.000000e+000
      vertex -6.535887e+000 -9.792247e+000  1.000000e+001
      vertex -5.750000e+000 -9.959292e+000  2.000000e+000
    endloop
  endfacet
  facet normal  2.079119e-001  9.781476e-001  -0.000000e+000
    outer loop
      vertex -5.750000e+000 -9.959292e+000  2.000000e+000
      vertex -6.535887e+000 -9.792247e+000  1.000000e+001
      vertex -5.750000e+000 -9.959292e+000  1.000000e+001
    endloop
  endfacet
  facet normal  2.079119e-001 -9.781476e-001  0.000000e+000
    outer loop
      vertex -5.750000e+000  9.959292e+000  2.000000e+000
      vertex -5.750000e+000  9.959292e+000  1.000000e+001
      vertex -6.535887e+000  9.792247e+000  2.000000e+000
    endloop
  endfacet
  facet normal  2.079119e-001 -9.781476e-001  0.000000e+000
    outer loop
      vertex -6.535887e+000  9.792247e+000  2.000000e+000
      vertex -5.750000e+000  9.959292e+000  1.000000e+001
      vertex -6.535887e+000  9.792247e+000  1.000000e+001
    endloop
  endfacet
  facet normal -4.067362e-001 -9.135457e-001  -0.000000e+000
    outer loop
      vertex -6.535887e+000  9.792247e+000  2.000000e+000
      vertex -6.535887e+000  9.792247e+000  1.000000e+001
      vertex -7.269870e+000  1.011904e+001  2.000000e+000
    endloop
  endfacet
  facet normal -4.067362e-001 -9.135457e-001  0.000000e+000
    outer loop
      vertex -7.269870e+000  1.011904e+001  2.000000e+000
      vertex -6.535887e+000  9.792247e+000  1.000000e+001
      vertex -7.269870e+000  1.011904e+001  1.000000e+001
    endloop
  endfacet
  facet normal -8.660256e-001 -4.999996e-001  -0.000000e+000
    outer loop
      vertex -7.269870e+000  1.011904e+001  2.000000e+000
      vertex -7.269870e+000  1.011904e+001  1.000000e+001
      vertex -7.671592e+000  1.081484e+001  2.000000e+000
    endloop
  endfacet
  facet normal -8.660256e-001 -4.999996e-001  0.000000e+000
    outer loop
      vertex -7.671592e+000  1.081484e+001  2.000000e+000
      vertex -7.269870e+000  1.011904e+001  1.000000e+001
      vertex -7.671592e+000  1.081484e+001  1.000000e+001
    endloop
  endfacet
  facet normal -9.945219e-001  1.045281e-001  0.000000e+000
    outer loop
      vertex -7.671592e+000  1.081484e+001  2.000000e+000
      vertex -7.671592e+000  1.081484e+001  1.000000e+001
      vertex -7.587609e+000  1.161388e+001  2.000000e+000
    endloop
  endfacet
  facet normal -9.945219e-001  1.045281e-001  0.000000e+000
    outer loop
      vertex -7.587609e+000  1.161388e+001  2.000000e+000
      vertex -7.671592e+000  1.081484e+001  1.000000e+001
      vertex -7.587609e+000  1.161388e+001  1.000000e+001
    endloop
  endfacet
  facet normal -7.431449e-001  6.691306e-001  0.000000e+000
    outer loop
      vertex -7.587609e+000  1.161388e+001  2.000000e+000
      vertex -7.587609e+000  1.161388e+001  1.000000e+001
      vertex -7.050000e+000  1.221096e+001  2.000000e+000
    endloop
  endfacet
  facet normal -7.431449e-001  6.691306e-001  0.000000e+000
    outer loop
      vertex -7.050000e+000  1.221096e+001  2.000000e+000
      vertex -7.587609e+000  1.161388e+001  1.000000e+001
      vertex -7.050000e+000  1.221096e+001  1.000000e+001
    endloop
  endfacet
  facet normal -2.079118e-001  9.781476e-001  0.000000e+000
    outer loop
      vertex -7.050000e+000  1.221096e+001  2.000000e+000
      vertex -7.050000e+000  1.221096e+001  1.000000e+001
      vertex -6.264113e+000  1.237800e+001  2.000000e+000
    endloop
  endfacet
  facet normal -2.079118e-001  9.781476e-001  0.000000e+000
    outer loop
      vertex -6.264113e+000  1.237800e+001  2.000000e+000
      vertex -7.050000e+000  1.221096e+001  1.000000e+001
      vertex -6.264113e+000  1.237800e+001  1.000000e+001
    endloop
  endfacet
  facet normal  4.067374e-001  9.135451e-001  0.000000e+000
    outer loop
      vertex -6.264113e+000  1.237800e+001  2.000000e+000
      vertex -6.264113e+000  1.237800e+001  1.000000e+001
      vertex -5.530130e+000  1.205121e+001  2.000000e+000
    endloop
  endfacet
  facet normal  4.067374e-001  9.135451e-001  -0.000000e+000
    outer loop
      vertex -5.530130e+000  1.205121e+001  2.000000e+000
      vertex -6.264113e+000  1.237800e+001  1.000000e+001
      vertex -5.530130e+000  1.205121e+001  1.000000e+001
    endloop
  endfacet
  facet normal  8.660251e-001  5.000005e-001  0.000000e+000
    outer loop
      vertex -5.530130e+000  1.205121e+001  2.000000e+000
      vertex -5.530130e+000  1.205121e+001  1.000000e+001
      vertex -5.128408e+000  1.135541e+001  2.000000e+000
    endloop
  endfacet
  facet normal  8.660251e-001  5.000005e-001  -0.000000e+000
    outer loop
      vertex -5.128408e+000  1.135541e+001  2.000000e+000
      vertex -5.530130e+000  1.205121e+001  1.000000e+001
      vertex -5.128408e+000  1.135541e+001  1.000000e+001
    endloop
  endfacet
  facet normal  9.945219e-001 -1.045287e-001  0.000000e+000
    outer loop
      vertex -5.128408e+000  1.135541e+001  2.000000e+000
      vertex -5.128408e+000  1.135541e+001  1.000000e+001
      vertex -5.212391e+000  1.055637e+001  2.000000e+000
    endloop
  endfacet
  facet normal  9.945219e-001 -1.045287e-001  0.000000e+000
    outer loop
      vertex -5.212391e+000  1.055637e+001  2.000000e+000
      vertex -5.128408e+000  1.135541e+001  1.000000e+001
      vertex -5.212391e+000  1.055637e+001  1.000000e+001
    endloop
  endfacet
  facet normal  7.431449e-001 -6.691306e-001  0.000000e+000
    outer loop
      vertex -5.212391e+000  1.055637e+001  2.000000e+000
      vertex -5.212391e+000  1.055637e+001  1.000000e+001
      vertex -5.750000e+000  9.959292e+000  2.000000e+000
    endloop
  endfacet
  facet normal  7.431449e-001 -6.691306e-001  0.000000e+000
    outer loop
      vertex -5.750000e+000  9.959292e+000  2.000000e+000
      vertex -5.212391e+000  1.055637e+001  1.000000e+001
      vertex -5.750000e+000  9.959292e+000  1.000000e+001
    endloop
  endfacet
  facet normal -9.510566e-001  3.090167e-001  0.000000e+000
    outer loop
      vertex  1.150000e+001  1.591988e-016  2.000000e+000
      vertex  1.150000e+001  1.591988e-016  1.000000e+001
      vertex  1.174828e+001  7.641208e-001  2.000000e+000
    endloop
  endfacet
  facet normal -9.510566e-001  3.090167e-001  0.000000e+000
    outer loop
      vertex  1.174828e+001  7.641208e-001  2.000000e+000
      vertex  1.150000e+001  1.591988e-016  1.000000e+001
      vertex  1.174828e+001  7.641208e-001  1.000000e+001
    endloop
  endfacet
  facet normal -5.877849e-001  8.090172e-001  0.000000e+000
    outer loop
      vertex  1.174828e+001  7.641208e-001  2.000000e+000
      vertex  1.174828e+001  7.641208e-001  1.000000e+001
      vertex  1.239828e+001  1.236373e+000  2.000000e+000
    endloop
  endfacet
  facet normal -5.877849e-001  8.090172e-001  0.000000e+000
    outer loop
      vertex  1.239828e+001  1.236373e+000  2.000000e+000
      vertex  1.174828e+001  7.641208e-001  1.000000e+001
      vertex  1.239828e+001  1.236373e+000  1.000000e+001
    endloop
  endfacet
  facet normal  0.000000e+000  9.999999e-001  0.000000e+000
    outer loop
      vertex  1.239828e+001  1.236373e+000  2.000000e+000
      vertex  1.239828e+001  1.236373e+000  1.000000e+001
      vertex  1.320172e+001  1.236373e+000  2.000000e+000
    endloop
  endfacet
  facet normal  0.000000e+000  9.999999e-001  -0.000000e+000
    outer loop
      vertex  1.320172e+001  1.236373e+000  2.000000e+000
      vertex  1.239828e+001  1.236373e+000  1.000000e+001
      vertex  1.320172e+001  1.236373e+000  1.000000e+001
    endloop
  endfacet
  facet normal  5.877854e-001  8.090168e-001  0.000000e+000
    outer loop
      vertex  1.320172e+001  1.236373e+000  2.000000e+000
      vertex  1.320172e+001  1.236373e+000  1.000000e+001
      vertex  1.385172e+001  7.641208e-001  2.000000e+000
    endloop
  endfacet
  facet normal  5.877854e-001  8.090168e-001  -0.000000e+000
    outer loop
      vertex  1.385172e+001  7.641208e-001  2.000000e+000
      vertex  1.320172e+001  1.236373e+000  1.000000e+001
      vertex  1.385172e+001  7.641208e-001  1.000000e+001
    endloop
  endfacet
  facet normal  9.510562e-001  3.090178e-001  0.000000e+000
    outer loop
      vertex  1.385172e+001  7.641208e-001  2.000000e+000
      vertex  1.385172e+001  7.641208e-001  1.000000e+001
      vertex  1.410000e+001  0.000000e+000  2.000000e+000
    endloop
  endfacet
  facet normal  9.510562e-001  3.090178e-001  -0.000000e+000
    outer loop
      vertex  1.410000e+001  0.000000e+000  2.000000e+000
      vertex  1.385172e+001  7.641208e-001  1.000000e+001
      vertex  1.410000e+001  0.000000e+000  1.000000e+001
    endloop
  endfacet
  facet normal  9.510562e-001 -3.090178e-001  0.000000e+000
    outer loop
      vertex  1.410000e+001  0.000000e+000  2.000000e+000
      vertex  1.410000e+001  0.000000e+000  1.000000e+001
      vertex  1.385172e+001 -7.641208e-001  2.000000e+000
    endloop
  endfacet
  facet normal  9.510562e-001 -3.090178e-001  0.000000e+000
    outer loop
      vertex  1.385172e+001 -7.641208e-001  2.000000e+000
      vertex  1.410000e+001  0.000000e+000  1.000000e+001
      vertex  1.385172e+001 -7.641208e-001  1.000000e+001
    endloop
  endfacet
  facet normal  5.877854e-001 -8.090168e-001  0.000000e+000
    outer loop
      vertex  1.385172e+001 -7.641208e-001  2.000000e+000
      vertex  1.385172e+001 -7.641208e-001  1.000000e+001
      vertex  1.320172e+001 -1.236373e+000  2.000000e+000
    endloop
  endfacet
  facet normal  5.877854e-001 -8.090168e-001  0.000000e+000
    outer loop
      vertex  1.320172e+001 -1.236373e+000  2.000000e+000
      vertex  1.385172e+001 -7.641208e-001  1.000000e+001
      vertex  1.320172e+001 -1.236373e+000  1.000000e+001
    endloop
  endfacet
  facet normal  0.000000e+000 -9.999999e-001  -0.000000e+000
    outer loop
      vertex  1.320172e+001 -1.236373e+000  2.000000e+000
      vertex  1.320172e+001 -1.236373e+000  1.000000e+001
      vertex  1.239828e+001 -1.236373e+000  2.000000e+000
    endloop
  endfacet
  facet normal  0.000000e+000 -9.999999e-001  0.000000e+000
    outer loop
      vertex  1.239828e+001 -1.236373e+000  2.000000e+000
      vertex  1.320172e+001 -1.236373e+000  1.000000e+001
      vertex  1.239828e+001 -1.236373e+000  1.000000e+001
    endloop
  endfacet
  facet normal -5.877849e-001 -8.090172e-001  -0.000000e+000
    outer loop
      vertex  1.239828e+001 -1.236373e+000  2.000000e+000
      vertex  1.239828e+001 -1.236373e+000  1.000000e+001
      vertex  1.174828e+001 -7.641208e-001  2.000000e+000
    endloop
  endfacet
  facet normal -5.877849e-001 -8.090172e-001  0.000000e+000
    outer loop
      vertex  1.174828e+001 -7.641208e-001  2.000000e+000
      vertex  1.239828e+001 -1.236373e+000  1.000000e+001
      vertex  1.174828e+001 -7.641208e-001  1.000000e+001
    endloop
  endfacet
  facet normal -9.510566e-001 -3.090167e-001  -0.000000e+000
    outer loop
      vertex  1.174828e+001 -7.641208e-001  2.000000e+000
      vertex  1.174828e+001 -7.641208e-001  1.000000e+001
      vertex  1.150000e+001  1.591988e-016  2.000000e+000
    endloop
  endfacet
  facet normal -9.510566e-001 -3.090167e-001  0.000000e+000
    outer loop
      vertex  1.150000e+001  1.591988e-016  2.000000e+000
      vertex  1.174828e+001 -7.641208e-001  1.000000e+001
      vertex  1.150000e+001  1.591988e-016  1.000000e+001
    endloop
  endfacet
  facet normal  0.000000e+000  -0.000000e+000  1.000000e+000
    outer loop
      vertex -5.750000e+000 -9.959292e+000  2.000000e+000
      vertex -5.212391e+000 -1.055637e+001  2.000000e+000
      vertex -6.180340e-001 -1.902113e+000  2.000000e+000
    endloop
  endfacet
  facet normal  0.000000e+000  0.000000e+000  1.000000e+000
    outer loop
      vertex -5.750000e+000 -9.959292e+000  2.000000e+000
      vertex -6.180340e-001 -1.902113e+000  2.000000e+000
      vertex -1.618034e+000 -1.175570e+000  2.000000e+000
    endloop
  endfacet
  facet normal  0.000000e+000  0.000000e+000  1.000000e+000
    outer loop
      vertex -5.750000e+000 -9.959292e+000  2.000000e+000
      vertex -1.618034e+000 -1.175570e+000  2.000000e+000
      vertex -2.000000e+000  2.449213e-016  2.000000e+000
    endloop
  endfacet
  facet normal  0.000000e+000  0.000000e+000  1.000000e+000
    outer loop
      vertex -4.500000e+000  1.299038e+001  2.000000e+000
      vertex -5.686415e+000  1.337587e+001  2.000000e+000
      vertex -6.927051e+000  1.324547e+001  2.000000e+000
    endloop
  endfacet
  facet normal  0.000000e+000  0.000000e+000  1.000000e+000
    outer loop
      vertex -4.500000e+000  1.299038e+001  2.000000e+000
      vertex -6.927051e+000  1.324547e+001  2.000000e+000
      vertex -6.264113e+000  1.237800e+001  2.000000e+000
    endloop
  endfacet
  facet normal  -0.000000e+000  0.000000e+000  1.000000e+000
    outer loop
      vertex -4.500000e+000  1.299038e+001  2.000000e+000
      vertex -6.264113e+000  1.237800e+001  2.000000e+000
      vertex -5.530130e+000  1.205121e+001  2.000000e+000
    endloop
  endfacet
  facet normal  -0.000000e+000  0.000000e+000  1.000000e+000
    outer loop
      vertex -4.500000e+000  1.299038e+001  2.000000e+000
      vertex -5.530130e+000  1.205121e+001  2.000000e+000
      vertex -5.128408e+000  1.135541e+001  2.000000e+000
    endloop
  endfacet
  facet normal  -0.000000e+000  0.000000e+000  1.000000e+000
    outer loop
      vertex -4.500000e+000  1.299038e+001  2.000000e+000
      vertex -5.128408e+000  1.135541e+001  2.000000e+000
      vertex -5.212391e+000  1.055637e+001  2.000000e+000
    endloop
  endfacet
  facet normal  -0.000000e+000  0.000000e+000  1.000000e+000
    outer loop
      vertex -4.500000e+000  1.299038e+001  2.000000e+000
      vertex -5.212391e+000  1.055637e+001  2.000000e+000
      vertex -6.180340e-001  1.902113e+000  2.000000e+000
    endloop
  endfacet
  facet normal  0.000000e+000  -0.000000e+000  9.999999e-001
    outer loop
      vertex -4.500000e+000  1.299038e+001  2.000000e+000
      vertex -6.180340e-001  1.902113e+000  2.000000e+000
      vertex  6.180340e-001  1.902113e+000  2.000000e+000
    endloop
  endfacet
  facet normal  0.000000e+000  -0.000000e+000  1.000000e+000
    outer loop
      vertex -9.000000e+000 -1.039230e+001  2.000000e+000
      vertex -8.740637e+000 -1.161251e+001  2.000000e+000
      vertex -7.671592e+000 -1.081484e+001  2.000000e+000
    endloop
  endfacet
  facet normal  0.000000e+000  -0.000000e+000  1.000000e+000
    outer loop
      vertex -9.000000e+000 -1.039230e+001  2.000000e+000
      vertex -7.671592e+000 -1.081484e+001  2.000000e+000
      vertex -7.269870e+000 -1.011904e+001  2.000000e+000
    endloop
  endfacet
  facet normal  0.000000e+000  -0.000000e+000  9.999999e-001
    outer loop
      vertex -9.000000e+000 -1.039230e+001  2.000000e+000
      vertex -7.269870e+000 -1.011904e+001  2.000000e+000
      vertex -6.535887e+000 -9.792247e+000  2.000000e+000
    endloop
  endfacet
  facet normal  0.000000e+000  -0.000000e+000  1.000000e+000
    outer loop
      vertex -9.000000e+000 -1.039230e+001  2.000000e+000
      vertex -6.535887e+000 -9.792247e+000  2.000000e+000
      vertex -6.535887e+000  9.792247e+000  2.000000e+000
    endloop
  endfacet
  facet normal  0.000000e+000  0.000000e+000  9.999999e-001
    outer loop
      vertex -9.000000e+000 -1.039230e+001  2.000000e+000
      vertex -6.535887e+000  9.792247e+000  2.000000e+000
      vertex -7.269870e+000  1.011904e+001  2.000000e+000
    endloop
  endfacet
  facet normal  0.000000e+000  0.000000e+000  1.000000e+000
    outer loop
      vertex -9.000000e+000 -1.039230e+001  2.000000e+000
      vertex -7.269870e+000  1.011904e+001  2.000000e+000
      vertex -9.000000e+000  1.039230e+001  2.000000e+000
    endloop
  endfacet
  facet normal  0.000000e+000  0.000000e+000  9.999999e-001
    outer loop
      vertex -4.500000e+000 -1.299038e+001  2.000000e+000
      vertex  6.180340e-001 -1.902113e+000  2.000000e+000
      vertex -6.180340e-001 -1.902113e+000  2.000000e+000
    endloop
  endfacet
  facet normal  0.000000e+000  0.000000e+000  1.000000e+000
    outer loop
      vertex -4.500000e+000 -1.299038e+001  2.000000e+000
      vertex -6.180340e-001 -1.902113e+000  2.000000e+000
      vertex -5.212391e+000 -1.055637e+001  2.000000e+000
    endloop
  endfacet
  facet normal  0.000000e+000  0.000000e+000  1.000000e+000
    outer loop
      vertex -4.500000e+000 -1.299038e+001  2.000000e+000
      vertex -5.212391e+000 -1.055637e+001  2.000000e+000
      vertex -5.128408e+000 -1.135541e+001  2.000000e+000
    endloop
  endfacet
  facet normal  0.000000e+000  0.000000e+000  1.000000e+000
    outer loop
      vertex -4.500000e+000 -1.299038e+001  2.000000e+000
      vertex -5.128408e+000 -1.135541e+001  2.000000e+000
      vertex -5.530130e+000 -1.205121e+001  2.000000e+000
    endloop
  endfacet
  facet normal  0.000000e+000  0.000000e+000  1.000000e+000
    outer loop
      vertex -4.500000e+000 -1.299038e+001  2.000000e+000
      vertex -5.530130e+000 -1.205121e+001  2.000000e+000
      vertex -6.264113e+000 -1.237800e+001  2.000000e+000
    endloop
  endfacet
  facet normal  0.000000e+000  0.000000e+000  9.999999e-001
    outer loop
      vertex -6.180340e-001  1.902113e+000  2.000000e+000
      vertex -5.212391e+000  1.055637e+001  2.000000e+000
      vertex -1.618034e+000  1.175570e+000  2.000000e+000
    endloop
  endfacet
  facet normal  0.000000e+000  0.000000e+000  1.000000e+000
    outer loop
      vertex -1.618034e+000  1.175570e+000  2.000000e+000
      vertex -5.212391e+000  1.055637e+001  2.000000e+000
      vertex -5.750000e+000  9.959292e+000  2.000000e+000
    endloop
  endfacet
  facet normal  0.000000e+000  0.000000e+000  1.000000e+000
    outer loop
      vertex -5.686415e+000 -1.337587e+001  2.000000e+000
      vertex -4.500000e+000 -1.299038e+001  2.000000e+000
      vertex -6.927051e+000 -1.324547e+001  2.000000e+000
    endloop
  endfacet
  facet normal  0.000000e+000  0.000000e+000  1.000000e+000
    outer loop
      vertex -6.927051e+000 -1.324547e+001  2.000000e+000
      vertex -4.500000e+000 -1.299038e+001  2.000000e+000
      vertex -6.264113e+000 -1.237800e+001  2.000000e+000
    endloop
  endfacet
  facet normal  0.000000e+000  0.000000e+000  1.000000e+000
    outer loop
      vertex -6.927051e+000 -1.324547e+001  2.000000e+000
      vertex -6.264113e+000 -1.237800e+001  2.000000e+000
      vertex -8.007392e+000 -1.262174e+001  2.000000e+000
    endloop
  endfacet
  facet normal  0.000000e+000  0.000000e+000  1.000000e+000
    outer loop
      vertex -8.007392e+000 -1.262174e+001  2.000000e+000
      vertex -6.264113e+000 -1.237800e+001  2.000000e+000
      vertex -7.050000e+000 -1.221096e+001  2.000000e+000
    endloop
  endfacet
  facet normal  0.000000e+000  0.000000e+000  1.000000e+000
    outer loop
      vertex -8.007392e+000 -1.262174e+001  2.000000e+000
      vertex -7.050000e+000 -1.221096e+001  2.000000e+000
      vertex -8.740637e+000 -1.161251e+001  2.000000e+000
    endloop
  endfacet
  facet normal  0.000000e+000  0.000000e+000  1.000000e+000
    outer loop
      vertex -8.740637e+000 -1.161251e+001  2.000000e+000
      vertex -7.050000e+000 -1.221096e+001  2.000000e+000
      vertex -7.587609e+000 -1.161388e+001  2.000000e+000
    endloop
  endfacet
  facet normal  0.000000e+000  0.000000e+000  1.000000e+000
    outer loop
      vertex -8.740637e+000 -1.161251e+001  2.000000e+000
      vertex -7.587609e+000 -1.161388e+001  2.000000e+000
      vertex -7.671592e+000 -1.081484e+001  2.000000e+000
    endloop
  endfacet
  facet normal  0.000000e+000  0.000000e+000  1.000000e+000
    outer loop
      vertex -2.000000e+000  2.449213e-016  2.000000e+000
      vertex -1.618034e+000  1.175570e+000  2.000000e+000
      vertex -5.750000e+000 -9.959292e+000  2.000000e+000
    endloop
  endfacet
  facet normal  0.000000e+000  0.000000e+000  1.000000e+000
    outer loop
      vertex -5.750000e+000 -9.959292e+000  2.000000e+000
      vertex -1.618034e+000  1.175570e+000  2.000000e+000
      vertex -5.750000e+000  9.959292e+000  2.000000e+000
    endloop
  endfacet
  facet normal  0.000000e+000  0.000000e+000  1.000000e+000
    outer loop
      vertex -5.750000e+000 -9.959292e+000  2.000000e+000
      vertex -5.750000e+000  9.959292e+000  2.000000e+000
      vertex -6.535887e+000 -9.792247e+000  2.000000e+000
    endloop
  endfacet
  facet normal  0.000000e+000  0.000000e+000  1.000000e+000
    outer loop
      vertex -6.535887e+000 -9.792247e+000  2.000000e+000
      vertex -5.750000e+000  9.959292e+000  2.000000e+000
      vertex -6.535887e+000  9.792247e+000  2.000000e+000
    endloop
  endfacet
  facet normal  0.000000e+000  0.000000e+000  1.000000e+000
    outer loop
      vertex -6.264113e+000  1.237800e+001  2.000000e+000
      vertex -6.927051e+000  1.324547e+001  2.000000e+000
      vertex -7.050000e+000  1.221096e+001  2.000000e+000
    endloop
  endfacet
  facet normal  0.000000e+000  -0.000000e+000  1.000000e+000
    outer loop
      vertex -7.050000e+000  1.221096e+001  2.000000e+000
      vertex -6.927051e+000  1.324547e+001  2.000000e+000
      vertex -8.007392e+000  1.262174e+001  2.000000e+000
    endloop
  endfacet
  facet normal  0.000000e+000  0.000000e+000  9.999999e-001
    outer loop
      vertex -7.050000e+000  1.221096e+001  2.000000e+000
      vertex -8.007392e+000  1.262174e+001  2.000000e+000
      vertex -7.587609e+000  1.161388e+001  2.000000e+000
    endloop
  endfacet
  facet normal  0.000000e+000  0.000000e+000  1.000000e+000
    outer loop
      vertex -7.587609e+000  1.161388e+001  2.000000e+000
      vertex -8.007392e+000  1.262174e+001  2.000000e+000
      vertex -8.740637e+000  1.161251e+001  2.000000e+000
    endloop
  endfacet
  facet normal  -0.000000e+000  0.000000e+000  1.000000e+000
    outer loop
      vertex -7.587609e+000  1.161388e+001  2.000000e+000
      vertex -8.740637e+000  1.161251e+001  2.000000e+000
      vertex -7.671592e+000  1.081484e+001  2.000000e+000
    endloop
  endfacet
  facet normal  0.000000e+000  0.000000e+000  1.000000e+000
    outer loop
      vertex -7.671592e+000  1.081484e+001  2.000000e+000
      vertex -8.740637e+000  1.161251e+001  2.000000e+000
      vertex -9.000000e+000  1.039230e+001  2.000000e+000
    endloop
  endfacet
  facet normal  -0.000000e+000  0.000000e+000  1.000000e+000
    outer loop
      vertex -7.671592e+000  1.081484e+001  2.000000e+000
      vertex -9.000000e+000  1.039230e+001  2.000000e+000
      vertex -7.269870e+000  1.011904e+001  2.000000e+000
    endloop
  endfacet
  facet normal  0.000000e+000  0.000000e+000  1.000000e+000
    outer loop
      vertex  1.350000e+001 -2.598076e+000  2.000000e+000
      vertex  1.442705e+001 -1.763356e+000  2.000000e+000
      vertex -4.500000e+000 -1.299038e+001  2.000000e+000
    endloop
  endfacet
  facet normal  0.000000e+000  0.000000e+000  1.000000e+000
    outer loop
      vertex -4.500000e+000 -1.299038e+001  2.000000e+000
      vertex  1.442705e+001 -1.763356e+000  2.000000e+000
      vertex  1.320172e+001 -1.236373e+000  2.000000e+000
    endloop
  endfacet
  facet normal  0.000000e+000  0.000000e+000  1.000000e+000
    outer loop
      vertex -4.500000e+000 -1.299038e+001  2.000000e+000
      vertex  1.320172e+001 -1.236373e+000  2.000000e+000
      vertex  6.180340e-001 -1.902113e+000  2.000000e+000
    endloop
  endfacet
  facet normal  0.000000e+000  0.000000e+000  1.000000e+000
    outer loop
      vertex  6.180340e-001 -1.902113e+000  2.000000e+000
      vertex  1.320172e+001 -1.236373e+000  2.000000e+000
      vertex  1.239828e+001 -1.236373e+000  2.000000e+000
    endloop
  endfacet
  facet normal  0.000000e+000  0.000000e+000  1.000000e+000
    outer loop
      vertex  6.180340e-001 -1.902113e+000  2.000000e+000
      vertex  1.239828e+001 -1.236373e+000  2.000000e+000
      vertex  1.618034e+000 -1.175570e+000  2.000000e+000
    endloop
  endfacet
  facet normal  -0.000000e+000  0.000000e+000  1.000000e+000
    outer loop
      vertex  1.618034e+000 -1.175570e+000  2.000000e+000
      vertex  1.239828e+001 -1.236373e+000  2.000000e+000
      vertex  1.174828e+001 -7.641208e-001  2.000000e+000
    endloop
  endfacet
  facet normal  0.000000e+000  0.000000e+000  1.000000e+000
    outer loop
      vertex  1.442705e+001  1.763356e+000  2.000000e+000
      vertex  1.350000e+001  2.598076e+000  2.000000e+000
      vertex  1.320172e+001  1.236373e+000  2.000000e+000
    endloop
  endfacet
  facet normal  0.000000e+000  -0.000000e+000  9.999999e-001
    outer loop
      vertex  1.320172e+001  1.236373e+000  2.000000e+000
      vertex  1.350000e+001  2.598076e+000  2.000000e+000
      vertex -4.500000e+000  1.299038e+001  2.000000e+000
    endloop
  endfacet
  facet normal  0.000000e+000  0.000000e+000  1.000000e+000
    outer loop
      vertex  1.320172e+001  1.236373e+000  2.000000e+000
      vertex -4.500000e+000  1.299038e+001  2.000000e+000
      vertex  1.239828e+001  1.236373e+000  2.000000e+000
    endloop
  endfacet
  facet normal  0.000000e+000  0.000000e+000  1.000000e+000
    outer loop
      vertex  1.239828e+001  1.236373e+000  2.000000e+000
      vertex -4.500000e+000  1.299038e+001  2.000000e+000
      vertex  6.180340e-001  1.902113e+000  2.000000e+000
    endloop
  endfacet
  facet normal  0.000000e+000  0.000000e+000  1.000000e+000
    outer loop
      vertex  1.239828e+001  1.236373e+000  2.000000e+000
      vertex  6.180340e-001  1.902113e+000  2.000000e+000
      vertex  1.618034e+000  1.175570e+000  2.000000e+000
    endloop
  endfacet
  facet normal  -0.000000e+000  0.000000e+000  1.000000e+000
    outer loop
      vertex  1.239828e+001  1.236373e+000  2.000000e+000
      vertex  1.618034e+000  1.175570e+000  2.000000e+000
      vertex  1.174828e+001  7.641208e-001  2.000000e+000
    endloop
  endfacet
  facet normal  0.000000e+000  0.000000e+000  1.000000e+000
    outer loop
      vertex  1.174828e+001  7.641208e-001  2.000000e+000
      vertex  1.618034e+000  1.175570e+000  2.000000e+000
      vertex  2.000000e+000  0.000000e+000  2.000000e+000
    endloop
  endfacet
  facet normal  0.000000e+000  0.000000e+000  1.000000e+000
    outer loop
      vertex  1.174828e+001  7.641208e-001  2.000000e+000
      vertex  2.000000e+000  0.000000e+000  2.000000e+000
      vertex  1.150000e+001  1.591988e-016  2.000000e+000
    endloop
  endfacet
  facet normal  0.000000e+000  0.000000e+000  1.000000e+000
    outer loop
      vertex  2.000000e+000  0.000000e+000  2.000000e+000
      vertex  1.618034e+000 -1.175570e+000  2.000000e+000
      vertex  1.150000e+001  1.591988e-016  2.000000e+000
    endloop
  endfacet
  facet normal  0.000000e+000  0.000000e+000  1.000000e+000
    outer loop
      vertex  1.150000e+001  1.591988e-016  2.000000e+000
      vertex  1.618034e+000 -1.175570e+000  2.000000e+000
      vertex  1.174828e+001 -7.641208e-001  2.000000e+000
    endloop
  endfacet
  facet normal  -0.000000e+000  0.000000e+000  1.000000e+000
    outer loop
      vertex  1.442705e+001  1.763356e+000  2.000000e+000
      vertex  1.320172e+001  1.236373e+000  2.000000e+000
      vertex  1.493444e+001  6.237351e-001  2.000000e+000
    endloop
  endfacet
  facet normal  0.000000e+000  0.000000e+000  1.000000e+000
    outer loop
      vertex  1.493444e+001  6.237351e-001  2.000000e+000
      vertex  1.320172e+001  1.236373e+000  2.000000e+000
      vertex  1.385172e+001  7.641208e-001  2.000000e+000
    endloop
  endfacet
  facet normal  0.000000e+000  0.000000e+000  9.999999e-001
    outer loop
      vertex  1.493444e+001  6.237351e-001  2.000000e+000
      vertex  1.385172e+001  7.641208e-001  2.000000e+000
      vertex  1.493444e+001 -6.237351e-001  2.000000e+000
    endloop
  endfacet
  facet normal  0.000000e+000  0.000000e+000  1.000000e+000
    outer loop
      vertex  1.493444e+001 -6.237351e-001  2.000000e+000
      vertex  1.385172e+001  7.641208e-001  2.000000e+000
      vertex  1.410000e+001  0.000000e+000  2.000000e+000
    endloop
  endfacet
  facet normal  0.000000e+000  0.000000e+000  9.999999e-001
    outer loop
      vertex  1.493444e+001 -6.237351e-001  2.000000e+000
      vertex  1.410000e+001  0.000000e+000  2.000000e+000
      vertex  1.385172e+001 -7.641208e-001  2.000000e+000
    endloop
  endfacet
  facet normal  0.000000e+000  0.000000e+000  1.000000e+000
    outer loop
      vertex  1.385172e+001 -7.641208e-001  2.000000e+000
      vertex  1.320172e+001 -1.236373e+000  2.000000e+000
      vertex  1.493444e+001 -6.237351e-001  2.000000e+000
    endloop
  endfacet
  facet normal  0.000000e+000  0.000000e+000  1.000000e+000
    outer loop
      vertex  1.493444e+001 -6.237351e-001  2.000000e+000
      vertex  1.320172e+001 -1.236373e+000  2.000000e+000
      vertex  1.442705e+001 -1.763356e+000  2.000000e+000
    endloop
  endfacet
  facet normal  5.877853e-001 -8.090170e-001  0.000000e+000
    outer loop
      vertex -6.180340e-001  1.902113e+000  0.000000e+000
      vertex -1.618034e+000  1.175570e+000  2.000000e+000
      vertex -1.618034e+000  1.175570e+000  0.000000e+000
    endloop
  endfacet
  facet normal  9.510565e-001 -3.090170e-001  0.000000e+000
    outer loop
      vertex -1.618034e+000  1.175570e+000  0.000000e+000
      vertex -1.618034e+000  1.175570e+000  2.000000e+000
      vertex -2.000000e+000  2.449213e-016  2.000000e+000
    endloop
  endfacet
  facet normal  9.510565e-001 -3.090170e-001  0.000000e+000
    outer loop
      vertex -1.618034e+000  1.175570e+000  0.000000e+000
      vertex -2.000000e+000  2.449213e-016  2.000000e+000
      vertex -2.000000e+000  2.449213e-016  0.000000e+000
    endloop
  endfacet
  facet normal  5.877853e-001 -8.090170e-001  0.000000e+000
    outer loop
      vertex -1.618034e+000  1.175570e+000  2.000000e+000
      vertex -6.180340e-001  1.902113e+000  0.000000e+000
      vertex -6.180340e-001  1.902113e+000  2.000000e+000
    endloop
  endfacet
  facet normal  0.000000e+000 -1.000000e+000  0.000000e+000
    outer loop
      vertex -6.180340e-001  1.902113e+000  2.000000e+000
      vertex -6.180340e-001  1.902113e+000  0.000000e+000
      vertex  6.180340e-001  1.902113e+000  0.000000e+000
    endloop
  endfacet
  facet normal  0.000000e+000 -1.000000e+000  0.000000e+000
    outer loop
      vertex -6.180340e-001  1.902113e+000  2.000000e+000
      vertex  6.180340e-001  1.902113e+000  0.000000e+000
      vertex  6.180340e-001  1.902113e+000  2.000000e+000
    endloop
  endfacet
  facet normal -5.877853e-001 -8.090170e-001  -0.000000e+000
    outer loop
      vertex  6.180340e-001  1.902113e+000  2.000000e+000
      vertex  6.180340e-001  1.902113e+000  0.000000e+000
      vertex  1.618034e+000  1.175570e+000  0.000000e+000
    endloop
  endfacet
  facet normal -5.877853e-001 -8.090170e-001  0.000000e+000
    outer loop
      vertex  6.180340e-001  1.902113e+000  2.000000e+000
      vertex  1.618034e+000  1.175570e+000  0.000000e+000
      vertex  1.618034e+000  1.175570e+000  2.000000e+000
    endloop
  endfacet
  facet normal -9.510565e-001 -3.090170e-001  -0.000000e+000
    outer loop
      vertex  1.618034e+000  1.175570e+000  2.000000e+000
      vertex  1.618034e+000  1.175570e+000  0.000000e+000
      vertex  2.000000e+000  0.000000e+000  0.000000e+000
    endloop
  endfacet
  facet normal -9.510565e-001 -3.090170e-001  0.000000e+000
    outer loop
      vertex  1.618034e+000  1.175570e+000  2.000000e+000
      vertex  2.000000e+000  0.000000e+000  0.000000e+000
      vertex  2.000000e+000  0.000000e+000  2.000000e+000
    endloop
  endfacet
  facet normal -5.877853e-001  8.090170e-001  0.000000e+000
    outer loop
      vertex  6.180340e-001 -1.902113e+000  0.000000e+000
      vertex  1.618034e+000 -1.175570e+000  2.000000e+000
      vertex  1.618034e+000 -1.175570e+000  0.000000e+000
    endloop
  endfacet
  facet normal -9.510565e-001  3.090170e-001  0.000000e+000
    outer loop
      vertex  1.618034e+000 -1.175570e+000  0.000000e+000
      vertex  1.618034e+000 -1.175570e+000  2.000000e+000
      vertex  2.000000e+000  0.000000e+000  2.000000e+000
    endloop
  endfacet
  facet normal -9.510565e-001  3.090170e-001  0.000000e+000
    outer loop
      vertex  1.618034e+000 -1.175570e+000  0.000000e+000
      vertex  2.000000e+000  0.000000e+000  2.000000e+000
      vertex  2.000000e+000  0.000000e+000  0.000000e+000
    endloop
  endfacet
  facet normal -5.877853e-001  8.090170e-001  0.000000e+000
    outer loop
      vertex  1.618034e+000 -1.175570e+000  2.000000e+000
      vertex  6.180340e-001 -1.902113e+000  0.000000e+000
      vertex  6.180340e-001 -1.902113e+000  2.000000e+000
    endloop
  endfacet
  facet normal  0.000000e+000  1.000000e+000  0.000000e+000
    outer loop
      vertex  6.180340e-001 -1.902113e+000  2.000000e+000
      vertex  6.180340e-001 -1.902113e+000  0.000000e+000
      vertex -6.180340e-001 -1.902113e+000  0.000000e+000
    endloop
  endfacet
  facet normal  0.000000e+000  1.000000e+000  0.000000e+000
    outer loop
      vertex  6.180340e-001 -1.902113e+000  2.000000e+000
      vertex -6.180340e-001 -1.902113e+000  0.000000e+000
      vertex -6.180340e-001 -1.902113e+000  2.000000e+000
    endloop
  endfacet
  facet normal  5.877853e-001  8.090170e-001  0.000000e+000
    outer loop
      vertex -6.180340e-001 -1.902113e+000  2.000000e+000
      vertex -6.180340e-001 -1.902113e+000  0.000000e+000
      vertex -1.618034e+000 -1.175570e+000  0.000000e+000
    endloop
  endfacet
  facet normal  5.877853e-001  8.090170e-001  -0.000000e+000
    outer loop
      vertex -6.180340e-001 -1.902113e+000  2.000000e+000
      vertex -1.618034e+000 -1.175570e+000  0.000000e+000
      vertex -1.618034e+000 -1.175570e+000  2.000000e+000
    endloop
  endfacet
  facet normal  9.510565e-001  3.090170e-001  0.000000e+000
    outer loop
      vertex -1.618034e+000 -1.175570e+000  2.000000e+000
      vertex -1.618034e+000 -1.175570e+000  0.000000e+000
      vertex -2.000000e+000  2.449213e-016  0.000000e+000
    endloop
  endfacet
  facet normal  9.510565e-001  3.090170e-001  -0.000000e+000
    outer loop
      vertex -1.618034e+000 -1.175570e+000  2.000000e+000
      vertex -2.000000e+000  2.449213e-016  0.000000e+000
      vertex -2.000000e+000  2.449213e-016  2.000000e+000
    endloop
  endfacet
  facet normal  5.000000e-001  8.660254e-001  0.000000e+000
    outer loop
      vertex -4.500000e+000  1.299038e+001  2.000000e+000
      vertex  1.350000e+001  2.598076e+000  2.000000e+000
      vertex -4.500000e+000  1.299038e+001  0.000000e+000
    endloop
  endfacet
  facet normal  5.000000e-001  8.660254e-001  0.000000e+000
    outer loop
      vertex -4.500000e+000  1.299038e+001  0.000000e+000
      vertex  1.350000e+001  2.598076e+000  2.000000e+000
      vertex  1.350000e+001  2.598076e+000  0.000000e+000
    endloop
  endfacet
  facet normal  6.691307e-001  7.431448e-001  0.000000e+000
    outer loop
      vertex  1.350000e+001  2.598076e+000  0.000000e+000
      vertex  1.350000e+001  2.598076e+000  2.000000e+000
      vertex  1.442705e+001  1.763356e+000  0.000000e+000
    endloop
  endfacet
  facet normal  6.691307e-001  7.431448e-001  -0.000000e+000
    outer loop
      vertex  1.442705e+001  1.763356e+000  0.000000e+000
      vertex  1.350000e+001  2.598076e+000  2.000000e+000
      vertex  1.442705e+001  1.763356e+000  2.000000e+000
    endloop
  endfacet
  facet normal  9.135454e-001  4.067367e-001  0.000000e+000
    outer loop
      vertex  1.442705e+001  1.763356e+000  0.000000e+000
      vertex  1.442705e+001  1.763356e+000  2.000000e+000
      vertex  1.493444e+001  6.237351e-001  0.000000e+000
    endloop
  endfacet
  facet normal  9.135454e-001  4.067367e-001  -0.000000e+000
    outer loop
      vertex  1.493444e+001  6.237351e-001  0.000000e+000
      vertex  1.442705e+001  1.763356e+000  2.000000e+000
      vertex  1.493444e+001  6.237351e-001  2.000000e+000
    endloop
  endfacet
  facet normal  1.000000e+000  0.000000e+000  0.000000e+000
    outer loop
      vertex  1.493444e+001  6.237351e-001  0.000000e+000
      vertex  1.493444e+001  6.237351e-001  2.000000e+000
      vertex  1.493444e+001 -6.237351e-001  0.000000e+000
    endloop
  endfacet
  facet normal  1.000000e+000  0.000000e+000  0.000000e+000
    outer loop
      vertex  1.493444e+001 -6.237351e-001  0.000000e+000
      vertex  1.493444e+001  6.237351e-001  2.000000e+000
      vertex  1.493444e+001 -6.237351e-001  2.000000e+000
    endloop
  endfacet
  facet normal  9.135454e-001 -4.067367e-001  0.000000e+000
    outer loop
      vertex  1.493444e+001 -6.237351e-001  0.000000e+000
      vertex  1.493444e+001 -6.237351e-001  2.000000e+000
      vertex  1.442705e+001 -1.763356e+000  0.000000e+000
    endloop
  endfacet
  facet normal  9.135454e-001 -4.067367e-001  0.000000e+000
    outer loop
      vertex  1.442705e+001 -1.763356e+000  0.000000e+000
      vertex  1.493444e+001 -6.237351e-001  2.000000e+000
      vertex  1.442705e+001 -1.763356e+000  2.000000e+000
    endloop
  endfacet
  facet normal  6.691307e-001 -7.431448e-001  0.000000e+000
    outer loop
      vertex  1.442705e+001 -1.763356e+000  0.000000e+000
      vertex  1.442705e+001 -1.763356e+000  2.000000e+000
      vertex  1.350000e+001 -2.598076e+000  0.000000e+000
    endloop
  endfacet
  facet normal  6.691307e-001 -7.431448e-001  0.000000e+000
    outer loop
      vertex  1.350000e+001 -2.598076e+000  0.000000e+000
      vertex  1.442705e+001 -1.763356e+000  2.000000e+000
      vertex  1.350000e+001 -2.598076e+000  2.000000e+000
    endloop
  endfacet
  facet normal  5.000000e-001 -8.660254e-001  0.000000e+000
    outer loop
      vertex  1.350000e+001 -2.598076e+000  2.000000e+000
      vertex -4.500000e+000 -1.299038e+001  2.000000e+000
      vertex  1.350000e+001 -2.598076e+000  0.000000e+000
    endloop
  endfacet
  facet normal  5.000000e-001 -8.660254e-001  0.000000e+000
    outer loop
      vertex  1.350000e+001 -2.598076e+000  0.000000e+000
      vertex -4.500000e+000 -1.299038e+001  2.000000e+000
      vertex -4.500000e+000 -1.299038e+001  0.000000e+000
    endloop
  endfacet
  facet normal  3.090170e-001 -9.510565e-001  0.000000e+000
    outer loop
      vertex -4.500000e+000 -1.299038e+001  0.000000e+000
      vertex -4.500000e+000 -1.299038e+001  2.000000e+000
      vertex -5.686415e+000 -1.337587e+001  0.000000e+000
    endloop
  endfacet
  facet normal  3.090170e-001 -9.510565e-001  0.000000e+000
    outer loop
      vertex -5.686415e+000 -1.337587e+001  0.000000e+000
      vertex -4.500000e+000 -1.299038e+001  2.000000e+000
      vertex -5.686415e+000 -1.337587e+001  2.000000e+000
    endloop
  endfacet
  facet normal -1.045283e-001 -9.945219e-001  -0.000000e+000
    outer loop
      vertex -5.686415e+000 -1.337587e+001  0.000000e+000
      vertex -5.686415e+000 -1.337587e+001  2.000000e+000
      vertex -6.927051e+000 -1.324547e+001  0.000000e+000
    endloop
  endfacet
  facet normal -1.045283e-001 -9.945219e-001  0.000000e+000
    outer loop
      vertex -6.927051e+000 -1.324547e+001  0.000000e+000
      vertex -5.686415e+000 -1.337587e+001  2.000000e+000
      vertex -6.927051e+000 -1.324547e+001  2.000000e+000
    endloop
  endfacet
  facet normal -5.000002e-001 -8.660252e-001  -0.000000e+000
    outer loop
      vertex -6.927051e+000 -1.324547e+001  0.000000e+000
      vertex -6.927051e+000 -1.324547e+001  2.000000e+000
      vertex -8.007392e+000 -1.262174e+001  0.000000e+000
    endloop
  endfacet
  facet normal -5.000002e-001 -8.660252e-001  0.000000e+000
    outer loop
      vertex -8.007392e+000 -1.262174e+001  0.000000e+000
      vertex -6.927051e+000 -1.324547e+001  2.000000e+000
      vertex -8.007392e+000 -1.262174e+001  2.000000e+000
    endloop
  endfacet
  facet normal -8.090169e-001 -5.877853e-001  -0.000000e+000
    outer loop
      vertex -8.007392e+000 -1.262174e+001  0.000000e+000
      vertex -8.007392e+000 -1.262174e+001  2.000000e+000
      vertex -8.740637e+000 -1.161251e+001  0.000000e+000
    endloop
  endfacet
  facet normal -8.090169e-001 -5.877853e-001  0.000000e+000
    outer loop
      vertex -8.740637e+000 -1.161251e+001  0.000000e+000
      vertex -8.007392e+000 -1.262174e+001  2.000000e+000
      vertex -8.740637e+000 -1.161251e+001  2.000000e+000
    endloop
  endfacet
  facet normal -9.781476e-001 -2.079113e-001  -0.000000e+000
    outer loop
      vertex -8.740637e+000 -1.161251e+001  0.000000e+000
      vertex -8.740637e+000 -1.161251e+001  2.000000e+000
      vertex -9.000000e+000 -1.039230e+001  0.000000e+000
    endloop
  endfacet
  facet normal -9.781476e-001 -2.079113e-001  0.000000e+000
    outer loop
      vertex -9.000000e+000 -1.039230e+001  0.000000e+000
      vertex -8.740637e+000 -1.161251e+001  2.000000e+000
      vertex -9.000000e+000 -1.039230e+001  2.000000e+000
    endloop
  endfacet
  facet normal -9.999999e-001  -0.000000e+000  0.000000e+000
    outer loop
      vertex -9.000000e+000 -1.039230e+001  2.000000e+000
      vertex -9.000000e+000  1.039230e+001  2.000000e+000
      vertex -9.000000e+000 -1.039230e+001  0.000000e+000
    endloop
  endfacet
  facet normal -9.999999e-001  0.000000e+000  0.000000e+000
    outer loop
      vertex -9.000000e+000 -1.039230e+001  0.000000e+000
      vertex -9.000000e+000  1.039230e+001  2.000000e+000
      vertex -9.000000e+000  1.039230e+001  0.000000e+000
    endloop
  endfacet
  facet normal -9.781476e-001  2.079113e-001  0.000000e+000
    outer loop
      vertex -9.000000e+000  1.039230e+001  0.000000e+000
      vertex -9.000000e+000  1.039230e+001  2.000000e+000
      vertex -8.740637e+000  1.161251e+001  0.000000e+000
    endloop
  endfacet
  facet normal -9.781476e-001  2.079113e-001  0.000000e+000
    outer loop
      vertex -8.740637e+000  1.161251e+001  0.000000e+000
      vertex -9.000000e+000  1.039230e+001  2.000000e+000
      vertex -8.740637e+000  1.161251e+001  2.000000e+000
    endloop
  endfacet
  facet normal -8.090169e-001  5.877853e-001  0.000000e+000
    outer loop
      vertex -8.740637e+000  1.161251e+001  0.000000e+000
      vertex -8.740637e+000  1.161251e+001  2.000000e+000
      vertex -8.007392e+000  1.262174e+001  0.000000e+000
    endloop
  endfacet
  facet normal -8.090169e-001  5.877853e-001  0.000000e+000
    outer loop
      vertex -8.007392e+000  1.262174e+001  0.000000e+000
      vertex -8.740637e+000  1.161251e+001  2.000000e+000
      vertex -8.007392e+000  1.262174e+001  2.000000e+000
    endloop
  endfacet
  facet normal -5.000002e-001  8.660252e-001  0.000000e+000
    outer loop
      vertex -8.007392e+000  1.262174e+001  0.000000e+000
      vertex -8.007392e+000  1.262174e+001  2.000000e+000
      vertex -6.927051e+000  1.324547e+001  0.000000e+000
    endloop
  endfacet
  facet normal -5.000002e-001  8.660252e-001  0.000000e+000
    outer loop
      vertex -6.927051e+000  1.324547e+001  0.000000e+000
      vertex -8.007392e+000  1.262174e+001  2.000000e+000
      vertex -6.927051e+000  1.324547e+001  2.000000e+000
    endloop
  endfacet
  facet normal -1.045283e-001  9.945219e-001  0.000000e+000
    outer loop
      vertex -6.927051e+000  1.324547e+001  0.000000e+000
      vertex -6.927051e+000  1.324547e+001  2.000000e+000
      vertex -5.686415e+000  1.337587e+001  0.000000e+000
    endloop
  endfacet
  facet normal -1.045283e-001  9.945219e-001  0.000000e+000
    outer loop
      vertex -5.686415e+000  1.337587e+001  0.000000e+000
      vertex -6.927051e+000  1.324547e+001  2.000000e+000
      vertex -5.686415e+000  1.337587e+001  2.000000e+000
    endloop
  endfacet
  facet normal  3.090170e-001  9.510565e-001  0.000000e+000
    outer loop
      vertex -5.686415e+000  1.337587e+001  0.000000e+000
      vertex -5.686415e+000  1.337587e+001  2.000000e+000
      vertex -4.500000e+000  1.299038e+001  0.000000e+000
    endloop
  endfacet
  facet normal  3.090170e-001  9.510565e-001  -0.000000e+000
    outer loop
      vertex -4.500000e+000  1.299038e+001  0.000000e+000
      vertex -5.686415e+000  1.337587e+001  2.000000e+000
      vertex -4.500000e+000  1.299038e+001  2.000000e+000
    endloop
  endfacet
  facet normal  0.000000e+000  0.000000e+000  1.000000e+000
    outer loop
      vertex -5.750000e+000 -9.959292e+000  1.000000e+001
      vertex -6.535887e+000 -9.792247e+000  1.000000e+001
      vertex -7.269870e+000 -1.011904e+001  1.000000e+001
    endloop
  endfacet
  facet normal  -0.000000e+000  0.000000e+000  1.000000e+000
    outer loop
      vertex -5.750000e+000 -9.959292e+000  1.000000e+001
      vertex -7.269870e+000 -1.011904e+001  1.000000e+001
      vertex -5.212391e+000 -1.055637e+001  1.000000e+001
    endloop
  endfacet
  facet normal  0.000000e+000  0.000000e+000  1.000000e+000
    outer loop
      vertex -5.212391e+000 -1.055637e+001  1.000000e+001
      vertex -7.269870e+000 -1.011904e+001  1.000000e+001
      vertex -7.671592e+000 -1.081484e+001  1.000000e+001
    endloop
  endfacet
  facet normal  -0.000000e+000  0.000000e+000  1.000000e+000
    outer loop
      vertex -5.212391e+000 -1.055637e+001  1.000000e+001
      vertex -7.671592e+000 -1.081484e+001  1.000000e+001
      vertex -5.128408e+000 -1.135541e+001  1.000000e+001
    endloop
  endfacet
  facet normal  0.000000e+000  0.000000e+000  1.000000e+000
    outer loop
      vertex -5.128408e+000 -1.135541e+001  1.000000e+001
      vertex -7.671592e+000 -1.081484e+001  1.000000e+001
      vertex -7.587609e+000 -1.161388e+001  1.000000e+001
    endloop
  endfacet
  facet normal  -0.000000e+000  0.000000e+000  1.000000e+000
    outer loop
      vertex -5.128408e+000 -1.135541e+001  1.000000e+001
      vertex -7.587609e+000 -1.161388e+001  1.000000e+001
      vertex -5.530130e+000 -1.205121e+001  1.000000e+001
    endloop
  endfacet
  facet normal  0.000000e+000  0.000000e+000  1.000000e+000
    outer loop
      vertex -5.530130e+000 -1.205121e+001  1.000000e+001
      vertex -7.587609e+000 -1.161388e+001  1.000000e+001
      vertex -7.050000e+000 -1.221096e+001  1.000000e+001
    endloop
  endfacet
  facet normal  -0.000000e+000  0.000000e+000  9.999999e-001
    outer loop
      vertex -5.530130e+000 -1.205121e+001  1.000000e+001
      vertex -7.050000e+000 -1.221096e+001  1.000000e+001
      vertex -6.264113e+000 -1.237800e+001  1.000000e+001
    endloop
  endfacet
  facet normal  0.000000e+000  0.000000e+000  9.999999e-001
    outer loop
      vertex -7.050000e+000  1.221096e+001  1.000000e+001
      vertex -5.530130e+000  1.205121e+001  1.000000e+001
      vertex -6.264113e+000  1.237800e+001  1.000000e+001
    endloop
  endfacet
  facet normal  0.000000e+000  0.000000e+000  1.000000e+000
    outer loop
      vertex -5.530130e+000  1.205121e+001  1.000000e+001
      vertex -7.050000e+000  1.221096e+001  1.000000e+001
      vertex -5.128408e+000  1.135541e+001  1.000000e+001
    endloop
  endfacet
  facet normal  0.000000e+000  0.000000e+000  1.000000e+000
    outer loop
      vertex -5.128408e+000  1.135541e+001  1.000000e+001
      vertex -7.050000e+000  1.221096e+001  1.000000e+001
      vertex -7.587609e+000  1.161388e+001  1.000000e+001
    endloop
  endfacet
  facet normal  0.000000e+000  0.000000e+000  1.000000e+000
    outer loop
      vertex -5.128408e+000  1.135541e+001  1.000000e+001
      vertex -7.587609e+000  1.161388e+001  1.000000e+001
      vertex -5.212391e+000  1.055637e+001  1.000000e+001
    endloop
  endfacet
  facet normal  0.000000e+000  0.000000e+000  1.000000e+000
    outer loop
      vertex -5.212391e+000  1.055637e+001  1.000000e+001
      vertex -7.587609e+000  1.161388e+001  1.000000e+001
      vertex -7.671592e+000  1.081484e+001  1.000000e+001
    endloop
  endfacet
  facet normal  0.000000e+000  0.000000e+000  9.999999e-001
    outer loop
      vertex -5.212391e+000  1.055637e+001  1.000000e+001
      vertex -7.671592e+000  1.081484e+001  1.000000e+001
      vertex -5.750000e+000  9.959292e+000  1.000000e+001
    endloop
  endfacet
  facet normal  0.000000e+000  0.000000e+000  1.000000e+000
    outer loop
      vertex -5.750000e+000  9.959292e+000  1.000000e+001
      vertex -7.671592e+000  1.081484e+001  1.000000e+001
      vertex -7.269870e+000  1.011904e+001  1.000000e+001
    endloop
  endfacet
  facet normal  0.000000e+000  0.000000e+000  1.000000e+000
    outer loop
      vertex -5.750000e+000  9.959292e+000  1.000000e+001
      vertex -7.269870e+000  1.011904e+001  1.000000e+001
      vertex -6.535887e+000  9.792247e+000  1.000000e+001
    endloop
  endfacet
  facet normal  -0.000000e+000  0.000000e+000  1.000000e+000
    outer loop
      vertex  1.320172e+001  1.236373e+000  1.000000e+001
      vertex  1.239828e+001  1.236373e+000  1.000000e+001
      vertex  1.385172e+001  7.641208e-001  1.000000e+001
    endloop
  endfacet
  facet normal  0.000000e+000  0.000000e+000  1.000000e+000
    outer loop
      vertex  1.385172e+001  7.641208e-001  1.000000e+001
      vertex  1.239828e+001  1.236373e+000  1.000000e+001
      vertex  1.174828e+001  7.641208e-001  1.000000e+001
    endloop
  endfacet
  facet normal  -0.000000e+000  0.000000e+000  1.000000e+000
    outer loop
      vertex  1.385172e+001  7.641208e-001  1.000000e+001
      vertex  1.174828e+001  7.641208e-001  1.000000e+001
      vertex  1.410000e+001  0.000000e+000  1.000000e+001
    endloop
  endfacet
  facet normal  0.000000e+000  0.000000e+000  1.000000e+000
    outer loop
      vertex  1.410000e+001  0.000000e+000  1.000000e+001
      vertex  1.174828e+001  7.641208e-001  1.000000e+001
      vertex  1.150000e+001  1.591988e-016  1.000000e+001
    endloop
  endfacet
  facet normal  0.000000e+000  0.000000e+000  1.000000e+000
    outer loop
      vertex  1.410000e+001  0.000000e+000  1.000000e+001
      vertex  1.150000e+001  1.591988e-016  1.000000e+001
      vertex  1.385172e+001 -7.641208e-001  1.000000e+001
    endloop
  endfacet
  facet normal  0.000000e+000  0.000000e+000  1.000000e+000
    outer loop
      vertex  1.385172e+001 -7.641208e-001  1.000000e+001
      vertex  1.150000e+001  1.591988e-016  1.000000e+001
      vertex  1.174828e+001 -7.641208e-001  1.000000e+001
    endloop
  endfacet
  facet normal  -0.000000e+000  0.000000e+000  1.000000e+000
    outer loop
      vertex  1.385172e+001 -7.641208e-001  1.000000e+001
      vertex  1.174828e+001 -7.641208e-001  1.000000e+001
      vertex  1.320172e+001 -1.236373e+000  1.000000e+001
    endloop
  endfacet
  facet normal  0.000000e+000  0.000000e+000  1.000000e+000
    outer loop
      vertex  1.320172e+001 -1.236373e+000  1.000000e+001
      vertex  1.174828e+001 -7.641208e-001  1.000000e+001
      vertex  1.239828e+001 -1.236373e+000  1.000000e+001
    endloop
  endfacet
endsolid CATIA STL
